G04*
G04 #@! TF.GenerationSoftware,Altium Limited,Altium Designer,20.2.6 (244)*
G04*
G04 Layer_Color=32768*
%FSLAX25Y25*%
%MOIN*%
G70*
G04*
G04 #@! TF.SameCoordinates,5A160F3B-083D-47D5-A8DF-67F3035B77D0*
G04*
G04*
G04 #@! TF.FilePolarity,Positive*
G04*
G01*
G75*
%ADD34C,0.07874*%
D34*
X803089Y5192D02*
X803126Y6192D01*
X803146Y7193D01*
X803149Y8193D01*
X803135Y9194D01*
X803104Y10194D01*
X803056Y11194D01*
X802991Y12192D01*
X802910Y13190D01*
X802811Y14186D01*
X802696Y15180D01*
X802564Y16172D01*
X802415Y17161D01*
X802249Y18148D01*
X802067Y19132D01*
X801867Y20113D01*
X801652Y21090D01*
X801420Y22063D01*
X801171Y23033D01*
X800906Y23998D01*
X800624Y24958D01*
X800327Y25913D01*
X800013Y26864D01*
X799683Y27808D01*
X799338Y28748D01*
X798976Y29681D01*
X798599Y30608D01*
X798206Y31528D01*
X797797Y32441D01*
X797373Y33348D01*
X796934Y34247D01*
X796479Y35138D01*
X796010Y36022D01*
X795525Y36898D01*
X795026Y37765D01*
X794512Y38624D01*
X793984Y39474D01*
X793441Y40315D01*
X792885Y41146D01*
X792314Y41968D01*
X791729Y42780D01*
X791131Y43582D01*
X790519Y44374D01*
X789894Y45156D01*
X789256Y45926D01*
X788604Y46686D01*
X787940Y47435D01*
X787263Y48172D01*
X786575Y48898D01*
X785873Y49612D01*
X785160Y50314D01*
X784435Y51003D01*
X783698Y51681D01*
X782950Y52346D01*
X782191Y52998D01*
X781421Y53637D01*
X780640Y54263D01*
X779849Y54875D01*
X779047Y55474D01*
X778236Y56060D01*
X777414Y56631D01*
X776583Y57189D01*
X775743Y57732D01*
X774894Y58262D01*
X774036Y58776D01*
X773169Y59276D01*
X772294Y59762D01*
X771410Y60232D01*
X770519Y60687D01*
X769620Y61128D01*
X768714Y61552D01*
X767801Y61962D01*
X766881Y62356D01*
X765955Y62734D01*
X765022Y63097D01*
X764083Y63443D01*
X763139Y63774D01*
X762189Y64089D01*
X761234Y64387D01*
X760274Y64670D01*
X759309Y64936D01*
X758340Y65185D01*
X757367Y65418D01*
X756390Y65635D01*
X755409Y65835D01*
X754425Y66018D01*
X753439Y66185D01*
X752449Y66335D01*
X751458Y66468D01*
X750464Y66585D01*
X749468Y66684D01*
X748470Y66767D01*
X747472Y66833D01*
X746473Y66881D01*
X745472Y66913D01*
X744472Y66928D01*
X743471Y66926D01*
X742470Y66907D01*
X741470Y66871D01*
X740471Y66818D01*
X739473Y66748D01*
X738476Y66661D01*
X737480Y66558D01*
X736487Y66437D01*
X735496Y66300D01*
X734507Y66146D01*
X733521Y65975D01*
X732538Y65787D01*
X731558Y65583D01*
X730582Y65363D01*
X729610Y65125D01*
X728642Y64872D01*
X727678Y64602D01*
X726720Y64315D01*
X725766Y64013D01*
X724817Y63694D01*
X723874Y63359D01*
X722936Y63009D01*
X722005Y62642D01*
X721080Y62260D01*
X720162Y61862D01*
X719251Y61449D01*
X718347Y61020D01*
X717450Y60577D01*
X716561Y60118D01*
X715679Y59644D01*
X714806Y59154D01*
X713941Y58651D01*
X713085Y58133D01*
X712238Y57600D01*
X711400Y57053D01*
X710571Y56492D01*
X709752Y55917D01*
X708943Y55328D01*
X708144Y54726D01*
X707355Y54110D01*
X706577Y53481D01*
X705810Y52838D01*
X705053Y52183D01*
X704308Y51515D01*
X703574Y50835D01*
X702852Y50142D01*
X702142Y49437D01*
X701444Y48720D01*
X700758Y47992D01*
X700084Y47252D01*
X699423Y46500D01*
X698775Y45738D01*
X698140Y44964D01*
X697518Y44180D01*
X696910Y43386D01*
X696315Y42581D01*
X695733Y41767D01*
X695166Y40942D01*
X694613Y40108D01*
X694074Y39265D01*
X693549Y38413D01*
X693039Y37552D01*
X692543Y36683D01*
X692062Y35805D01*
X691596Y34920D01*
X691146Y34026D01*
X690710Y33125D01*
X690290Y32217D01*
X689885Y31302D01*
X689496Y30380D01*
X689122Y29451D01*
X688765Y28517D01*
X688423Y27576D01*
X688097Y26630D01*
X687787Y25678D01*
X687494Y24722D01*
X687216Y23760D01*
X686955Y22794D01*
X686711Y21824D01*
X686482Y20849D01*
X686271Y19871D01*
X686076Y18889D01*
X685897Y17905D01*
X685736Y16917D01*
X685591Y15927D01*
X685463Y14934D01*
X685352Y13940D01*
X685257Y12944D01*
X685180Y11946D01*
X685119Y10947D01*
X685076Y9947D01*
X685049Y8947D01*
X685039Y7946D01*
X685047Y6945D01*
X685071Y5945D01*
X685112Y4945D01*
X685170Y3946D01*
X531496Y39370D02*
X531488Y40367D01*
X531462Y41365D01*
X531420Y42361D01*
X531361Y43357D01*
X531286Y44351D01*
X531193Y45345D01*
X531084Y46336D01*
X530958Y47326D01*
X530815Y48313D01*
X530656Y49297D01*
X530480Y50279D01*
X530287Y51258D01*
X530078Y52233D01*
X529853Y53205D01*
X529611Y54172D01*
X529353Y55136D01*
X529078Y56095D01*
X528788Y57049D01*
X528481Y57998D01*
X528159Y58942D01*
X527820Y59880D01*
X527466Y60813D01*
X527096Y61739D01*
X526710Y62659D01*
X526309Y63572D01*
X525893Y64478D01*
X525461Y65378D01*
X525014Y66269D01*
X524552Y67154D01*
X524076Y68030D01*
X523584Y68898D01*
X523078Y69757D01*
X522558Y70608D01*
X522023Y71450D01*
X521474Y72283D01*
X520911Y73106D01*
X520334Y73920D01*
X519744Y74724D01*
X519140Y75518D01*
X518523Y76302D01*
X517893Y77075D01*
X517249Y77837D01*
X516593Y78588D01*
X515925Y79328D01*
X515244Y80057D01*
X514550Y80774D01*
X513845Y81480D01*
X513128Y82173D01*
X512399Y82854D01*
X511659Y83523D01*
X510908Y84179D01*
X510146Y84822D01*
X509373Y85452D01*
X508589Y86069D01*
X507795Y86673D01*
X506991Y87264D01*
X506177Y87840D01*
X505354Y88403D01*
X504521Y88952D01*
X503679Y89487D01*
X502828Y90007D01*
X501968Y90513D01*
X501100Y91005D01*
X500224Y91481D01*
X499340Y91943D01*
X498449Y92390D01*
X497549Y92822D01*
X496643Y93238D01*
X495730Y93639D01*
X494810Y94025D01*
X493884Y94395D01*
X492951Y94749D01*
X492013Y95088D01*
X491069Y95410D01*
X490120Y95717D01*
X489166Y96007D01*
X488207Y96282D01*
X487243Y96540D01*
X486276Y96782D01*
X485304Y97007D01*
X484329Y97216D01*
X483350Y97409D01*
X482368Y97585D01*
X481384Y97744D01*
X480396Y97887D01*
X479407Y98013D01*
X478415Y98122D01*
X477422Y98215D01*
X476428Y98290D01*
X475432Y98349D01*
X474435Y98391D01*
X473438Y98417D01*
X472441Y98425D01*
X850394Y3937D02*
Y255906D01*
X803150Y3937D02*
X850394D01*
X531496D02*
X685039D01*
X531496D02*
Y39370D01*
X98425Y255906D02*
X850394D01*
X98425Y98425D02*
X472441D01*
X98425D02*
Y255906D01*
M02*
