G04*
G04 #@! TF.GenerationSoftware,Altium Limited,Altium Designer,20.2.6 (244)*
G04*
G04 Layer_Color=8388736*
%FSLAX25Y25*%
%MOIN*%
G70*
G04*
G04 #@! TF.SameCoordinates,84CE4F0F-00B1-48B8-8D41-A7CC789AE08E*
G04*
G04*
G04 #@! TF.FilePolarity,Negative*
G04*
G01*
G75*
%ADD12O,0.10642X0.05524*%
%ADD13R,0.10642X0.05524*%
%ADD14O,0.05524X0.10642*%
%ADD15R,0.05524X0.10642*%
%ADD16R,0.07099X0.10642*%
%ADD17O,0.07099X0.10642*%
%ADD18O,0.07099X0.08674*%
%ADD19R,0.07099X0.08674*%
%ADD20C,0.06800*%
%ADD21C,0.05800*%
D12*
X657480Y76772D02*
D03*
Y86614D02*
D03*
Y96457D02*
D03*
X633858Y76772D02*
D03*
Y86614D02*
D03*
X657480Y19685D02*
D03*
Y29528D02*
D03*
Y39370D02*
D03*
X633858Y19685D02*
D03*
Y29528D02*
D03*
X818898Y163386D02*
D03*
Y173228D02*
D03*
Y183071D02*
D03*
X795276Y163386D02*
D03*
Y173228D02*
D03*
X759843Y163386D02*
D03*
Y173228D02*
D03*
Y183071D02*
D03*
X736220Y163386D02*
D03*
Y173228D02*
D03*
X700787Y163386D02*
D03*
Y173228D02*
D03*
Y183071D02*
D03*
X677165Y163386D02*
D03*
Y173228D02*
D03*
X641732Y162992D02*
D03*
Y172835D02*
D03*
Y182677D02*
D03*
X618110Y162992D02*
D03*
Y172835D02*
D03*
X582677Y163386D02*
D03*
Y173228D02*
D03*
Y183071D02*
D03*
X559055Y163386D02*
D03*
Y173228D02*
D03*
X165647Y163216D02*
D03*
Y173059D02*
D03*
Y182902D02*
D03*
X142025Y163216D02*
D03*
Y173059D02*
D03*
X224702Y163216D02*
D03*
Y173059D02*
D03*
Y182902D02*
D03*
X201080Y163216D02*
D03*
Y173059D02*
D03*
X283757Y163216D02*
D03*
Y173059D02*
D03*
Y182902D02*
D03*
X260135Y163216D02*
D03*
Y173059D02*
D03*
X342812Y163216D02*
D03*
Y173059D02*
D03*
Y182902D02*
D03*
X319190Y163216D02*
D03*
Y173059D02*
D03*
X401867Y163216D02*
D03*
Y173059D02*
D03*
Y182902D02*
D03*
X378245Y163216D02*
D03*
Y173059D02*
D03*
X460922Y165185D02*
D03*
Y175027D02*
D03*
Y184870D02*
D03*
X437300Y165185D02*
D03*
Y175027D02*
D03*
D13*
X633858Y96457D02*
D03*
Y39370D02*
D03*
X795276Y183071D02*
D03*
X736220D02*
D03*
X677165D02*
D03*
X618110Y182677D02*
D03*
X559055Y183071D02*
D03*
X142025Y182902D02*
D03*
X201080D02*
D03*
X260135D02*
D03*
X319190D02*
D03*
X378245D02*
D03*
X437300Y184870D02*
D03*
D14*
X769685Y122047D02*
D03*
X759843D02*
D03*
X750000D02*
D03*
X769685Y98425D02*
D03*
X759843D02*
D03*
D15*
X750000D02*
D03*
D16*
X501969Y127953D02*
D03*
X620079Y226378D02*
D03*
X265748Y131890D02*
D03*
X289370Y224410D02*
D03*
D17*
X511811Y127953D02*
D03*
X521654D02*
D03*
X531496D02*
D03*
X541339D02*
D03*
X551181D02*
D03*
X561024D02*
D03*
X629921Y226378D02*
D03*
X639764D02*
D03*
X649606D02*
D03*
X659449D02*
D03*
X669291D02*
D03*
X679134D02*
D03*
X255906Y131890D02*
D03*
X246063D02*
D03*
X236221D02*
D03*
X226378D02*
D03*
X216535D02*
D03*
X206693D02*
D03*
X279528Y224410D02*
D03*
X269685D02*
D03*
X259843D02*
D03*
X250000D02*
D03*
X240158D02*
D03*
X230315D02*
D03*
D18*
X405827Y127953D02*
D03*
X395827D02*
D03*
X385827D02*
D03*
X375827D02*
D03*
X365827D02*
D03*
D19*
X355827D02*
D03*
D20*
X118110Y118110D02*
D03*
X452756D02*
D03*
Y224409D02*
D03*
X118110Y236220D02*
D03*
X807087D02*
D03*
X822835Y19685D02*
D03*
X551181D02*
D03*
D21*
X393300Y168200D02*
D03*
M02*
