G04*
G04 #@! TF.GenerationSoftware,Altium Limited,Altium Designer,20.2.6 (244)*
G04*
G04 Layer_Color=16711935*
%FSLAX25Y25*%
%MOIN*%
G70*
G04*
G04 #@! TF.SameCoordinates,84CE4F0F-00B1-48B8-8D41-A7CC789AE08E*
G04*
G04*
G04 #@! TF.FilePolarity,Positive*
G04*
G01*
G75*
%ADD10C,0.01000*%
%ADD11C,0.00787*%
%ADD33C,0.00700*%
D10*
X633494Y100492D02*
X632987Y101370D01*
X631974D01*
X631467Y100492D01*
X631974Y99615D01*
X632987D01*
X633494Y100492D01*
X746978Y97047D02*
X746471Y97925D01*
X745458D01*
X744951Y97047D01*
X745458Y96170D01*
X746471D01*
X746978Y97047D01*
X633494Y43406D02*
X632987Y44283D01*
X631974D01*
X631467Y43406D01*
X631974Y42528D01*
X632987D01*
X633494Y43406D01*
X794911Y187106D02*
X794404Y187984D01*
X793391D01*
X792884Y187106D01*
X793391Y186229D01*
X794404D01*
X794911Y187106D01*
X735856D02*
X735349Y187984D01*
X734336D01*
X733829Y187106D01*
X734336Y186229D01*
X735349D01*
X735856Y187106D01*
X676801D02*
X676294Y187984D01*
X675281D01*
X674774Y187106D01*
X675281Y186229D01*
X676294D01*
X676801Y187106D01*
X617746Y186713D02*
X617239Y187590D01*
X616226D01*
X615719Y186713D01*
X616226Y185835D01*
X617239D01*
X617746Y186713D01*
X558691Y187106D02*
X558184Y187984D01*
X557170D01*
X556664Y187106D01*
X557170Y186229D01*
X558184D01*
X558691Y187106D01*
X141660Y186937D02*
X141153Y187814D01*
X140140D01*
X139633Y186937D01*
X140140Y186059D01*
X141153D01*
X141660Y186937D01*
X200715D02*
X200208Y187814D01*
X199195D01*
X198688Y186937D01*
X199195Y186059D01*
X200208D01*
X200715Y186937D01*
X259770D02*
X259263Y187814D01*
X258250D01*
X257744Y186937D01*
X258250Y186059D01*
X259263D01*
X259770Y186937D01*
X318825D02*
X318319Y187814D01*
X317305D01*
X316799Y186937D01*
X317305Y186059D01*
X318319D01*
X318825Y186937D01*
X377880D02*
X377374Y187814D01*
X376360D01*
X375854Y186937D01*
X376360Y186059D01*
X377374D01*
X377880Y186937D01*
X436936Y188905D02*
X436429Y189783D01*
X435416D01*
X434909Y188905D01*
X435416Y188028D01*
X436429D01*
X436936Y188905D01*
D11*
X661319Y71161D02*
Y102854D01*
X629823Y71161D02*
X661319D01*
X629921Y102854D02*
X661319D01*
X629823Y102756D02*
X629921Y102854D01*
X629823Y71161D02*
Y102756D01*
X743602Y125886D02*
X775295D01*
Y94390D02*
Y125886D01*
X743602Y94488D02*
Y125886D01*
Y94488D02*
X743701Y94390D01*
X775295D01*
X661319Y14075D02*
Y45768D01*
X629823Y14075D02*
X661319D01*
X629921Y45768D02*
X661319D01*
X629823Y45669D02*
X629921Y45768D01*
X629823Y14075D02*
Y45669D01*
X822736Y157776D02*
Y189469D01*
X791240Y157776D02*
X822736D01*
X791339Y189469D02*
X822736D01*
X791240Y189370D02*
X791339Y189469D01*
X791240Y157776D02*
Y189370D01*
X763681Y157776D02*
Y189469D01*
X732185Y157776D02*
X763681D01*
X732283Y189469D02*
X763681D01*
X732185Y189370D02*
X732283Y189469D01*
X732185Y157776D02*
Y189370D01*
X704626Y157776D02*
Y189469D01*
X673130Y157776D02*
X704626D01*
X673228Y189469D02*
X704626D01*
X673130Y189370D02*
X673228Y189469D01*
X673130Y157776D02*
Y189370D01*
X645571Y157382D02*
Y189075D01*
X614075Y157382D02*
X645571D01*
X614173Y189075D02*
X645571D01*
X614075Y188976D02*
X614173Y189075D01*
X614075Y157382D02*
Y188976D01*
X586516Y157776D02*
Y189469D01*
X555020Y157776D02*
X586516D01*
X555118Y189469D02*
X586516D01*
X555020Y189370D02*
X555118Y189469D01*
X555020Y157776D02*
Y189370D01*
X169485Y157606D02*
Y189299D01*
X137989Y157606D02*
X169485D01*
X138088Y189299D02*
X169485D01*
X137989Y189201D02*
X138088Y189299D01*
X137989Y157606D02*
Y189201D01*
X228540Y157606D02*
Y189299D01*
X197044Y157606D02*
X228540D01*
X197143Y189299D02*
X228540D01*
X197044Y189201D02*
X197143Y189299D01*
X197044Y157606D02*
Y189201D01*
X287595Y157606D02*
Y189299D01*
X256099Y157606D02*
X287595D01*
X256198Y189299D02*
X287595D01*
X256099Y189201D02*
X256198Y189299D01*
X256099Y157606D02*
Y189201D01*
X346651Y157606D02*
Y189299D01*
X315154Y157606D02*
X346651D01*
X315253Y189299D02*
X346651D01*
X315154Y189201D02*
X315253Y189299D01*
X315154Y157606D02*
Y189201D01*
X405706Y157606D02*
Y189299D01*
X374210Y157606D02*
X405706D01*
X374308Y189299D02*
X405706D01*
X374210Y189201D02*
X374308Y189299D01*
X374210Y157606D02*
Y189201D01*
X464761Y159575D02*
Y191268D01*
X433265Y159575D02*
X464761D01*
X433363Y191268D02*
X464761D01*
X433265Y191169D02*
X433363Y191268D01*
X433265Y159575D02*
Y191169D01*
X557677Y118799D02*
Y120669D01*
X563583D01*
Y118996D02*
Y120669D01*
X504921Y118996D02*
Y121161D01*
X498327D02*
X504921D01*
X498327Y118996D02*
Y121161D01*
X492028Y141142D02*
Y141634D01*
X570472D01*
Y118701D02*
Y141634D01*
X492028Y118701D02*
X570472D01*
X492028D02*
Y141142D01*
X675787Y217224D02*
Y219094D01*
X681693D01*
Y217421D02*
Y219094D01*
X623031Y217421D02*
Y219587D01*
X616437D02*
X623031D01*
X616437Y217421D02*
Y219587D01*
X610138Y239567D02*
Y240059D01*
X688583D01*
Y217126D02*
Y240059D01*
X610138Y217126D02*
X688583D01*
X610138D02*
Y239567D01*
X210039Y139173D02*
Y141043D01*
X204134Y139173D02*
X210039D01*
X204134D02*
Y140847D01*
X262795Y138681D02*
Y140847D01*
Y138681D02*
X269390D01*
Y140847D01*
X275689Y118209D02*
Y118701D01*
X197244Y118209D02*
X275689D01*
X197244D02*
Y141142D01*
X275689D01*
Y118701D02*
Y141142D01*
X233661Y231693D02*
Y233563D01*
X227756Y231693D02*
X233661D01*
X227756D02*
Y233366D01*
X286417Y231201D02*
Y233366D01*
Y231201D02*
X293012D01*
Y233366D01*
X299311Y210728D02*
Y211221D01*
X220866Y210728D02*
X299311D01*
X220866D02*
Y233662D01*
X299311D01*
Y211221D02*
Y233662D01*
D33*
X400227Y118753D02*
Y122553D01*
X360627D02*
X400227D01*
X360627Y118653D02*
Y122553D01*
X346968Y141339D02*
X414685D01*
X346968Y118504D02*
Y141339D01*
Y118504D02*
X414685D01*
Y141339D01*
X346968Y137008D02*
Y137402D01*
M02*
