G04*
G04 #@! TF.GenerationSoftware,Altium Limited,Altium Designer,20.2.6 (244)*
G04*
G04 Layer_Physical_Order=1*
G04 Layer_Color=255*
%FSLAX25Y25*%
%MOIN*%
G70*
G04*
G04 #@! TF.SameCoordinates,84CE4F0F-00B1-48B8-8D41-A7CC789AE08E*
G04*
G04*
G04 #@! TF.FilePolarity,Positive*
G04*
G01*
G75*
%ADD22C,0.01575*%
%ADD23O,0.09843X0.04724*%
%ADD24R,0.09843X0.04724*%
%ADD25O,0.04724X0.09843*%
%ADD26R,0.04724X0.09843*%
%ADD27R,0.06299X0.09843*%
%ADD28O,0.06299X0.09843*%
%ADD29O,0.06299X0.07874*%
%ADD30R,0.06299X0.07874*%
%ADD31C,0.06000*%
%ADD32C,0.05000*%
G36*
X850394Y253937D02*
Y3937D01*
X801181D01*
X800713Y4405D01*
X799978Y5506D01*
X799471Y6729D01*
X799213Y8027D01*
Y8689D01*
Y29528D01*
X799213D01*
X799213Y29528D01*
X799167Y30459D01*
X798804Y32287D01*
X798090Y34008D01*
X797055Y35557D01*
X796429Y36248D01*
X768677Y64000D01*
X768677Y64000D01*
X767950Y64659D01*
X766320Y65748D01*
X764509Y66499D01*
X762586Y66881D01*
X761606Y66929D01*
X726583Y66929D01*
X726583Y66929D01*
X725603Y66881D01*
X723680Y66499D01*
X721869Y65748D01*
X720239Y64659D01*
X719512Y64000D01*
X687968Y32456D01*
X687309Y31729D01*
X686220Y30099D01*
X685470Y28288D01*
X685088Y26366D01*
X685040Y25385D01*
Y3937D01*
X535591Y2016D01*
X535591Y2016D01*
X534900Y2300D01*
X533657Y3128D01*
X532601Y4185D01*
X531775Y5429D01*
X531210Y6812D01*
X530928Y8279D01*
X530941Y9772D01*
X531248Y11234D01*
X531542Y11920D01*
X525533Y67793D01*
X525533Y67793D01*
X525533Y67794D01*
X525407Y68632D01*
X524944Y70261D01*
X524213Y71788D01*
X523235Y73171D01*
X522662Y73795D01*
X502784Y93673D01*
X502784Y93673D01*
X502784Y93673D01*
X502207Y94222D01*
X500977Y95232D01*
X499652Y96117D01*
X498248Y96867D01*
X496777Y97477D01*
X495253Y97939D01*
X493692Y98250D01*
X492107Y98406D01*
X491311Y98425D01*
X103178Y98425D01*
X103178Y98425D01*
X102519Y98393D01*
X101227Y98136D01*
X100010Y97632D01*
X98925Y96907D01*
X98712Y96947D01*
X98425Y97074D01*
Y257520D01*
X98780Y257872D01*
X850394Y253937D01*
D02*
G37*
%LPC*%
G36*
X807087Y243555D02*
X805656Y243414D01*
X804280Y242997D01*
X803012Y242319D01*
X801900Y241407D01*
X800988Y240295D01*
X800310Y239027D01*
X799893Y237651D01*
X799752Y236220D01*
X799893Y234789D01*
X800310Y233414D01*
X800988Y232146D01*
X801900Y231034D01*
X803012Y230122D01*
X804280Y229444D01*
X805656Y229027D01*
X807087Y228886D01*
X808517Y229027D01*
X809893Y229444D01*
X811161Y230122D01*
X812273Y231034D01*
X813185Y232146D01*
X813863Y233414D01*
X814280Y234789D01*
X814421Y236220D01*
X814280Y237651D01*
X813863Y239027D01*
X813185Y240295D01*
X812273Y241407D01*
X811161Y242319D01*
X809893Y242997D01*
X808517Y243414D01*
X807087Y243555D01*
D02*
G37*
G36*
X118110D02*
X116679Y243414D01*
X115303Y242997D01*
X114035Y242319D01*
X112924Y241407D01*
X112012Y240295D01*
X111334Y239027D01*
X110917Y237651D01*
X110776Y236220D01*
X110917Y234789D01*
X111334Y233414D01*
X112012Y232146D01*
X112924Y231034D01*
X114035Y230122D01*
X115303Y229444D01*
X116679Y229027D01*
X118110Y228886D01*
X119541Y229027D01*
X120917Y229444D01*
X122185Y230122D01*
X123296Y231034D01*
X124209Y232146D01*
X124886Y233414D01*
X125304Y234789D01*
X125445Y236220D01*
X125304Y237651D01*
X124886Y239027D01*
X124209Y240295D01*
X123296Y241407D01*
X122185Y242319D01*
X120917Y242997D01*
X119541Y243414D01*
X118110Y243555D01*
D02*
G37*
G36*
X659449Y232335D02*
X658365Y232192D01*
X657356Y231774D01*
X656489Y231109D01*
X655824Y230242D01*
X655406Y229233D01*
X655263Y228150D01*
Y224606D01*
X655406Y223523D01*
X655824Y222513D01*
X656489Y221647D01*
X657356Y220982D01*
X658365Y220563D01*
X659449Y220421D01*
X660532Y220563D01*
X661542Y220982D01*
X662408Y221647D01*
X663073Y222513D01*
X663492Y223523D01*
X663634Y224606D01*
Y228150D01*
X663492Y229233D01*
X663073Y230242D01*
X662408Y231109D01*
X661542Y231774D01*
X660532Y232192D01*
X659449Y232335D01*
D02*
G37*
G36*
X293520Y230331D02*
X285221D01*
Y218488D01*
X293520D01*
Y230331D01*
D02*
G37*
G36*
X279528Y230367D02*
X278444Y230224D01*
X277435Y229806D01*
X276568Y229141D01*
X275903Y228274D01*
X275485Y227264D01*
X275342Y226181D01*
Y222638D01*
X275485Y221555D01*
X275903Y220545D01*
X276568Y219678D01*
X277435Y219013D01*
X278444Y218595D01*
X279528Y218453D01*
X280611Y218595D01*
X281620Y219013D01*
X282487Y219678D01*
X283152Y220545D01*
X283570Y221555D01*
X283713Y222638D01*
Y226181D01*
X283570Y227264D01*
X283152Y228274D01*
X282487Y229141D01*
X281620Y229806D01*
X280611Y230224D01*
X279528Y230367D01*
D02*
G37*
G36*
X269685D02*
X268602Y230224D01*
X267592Y229806D01*
X266725Y229141D01*
X266060Y228274D01*
X265642Y227264D01*
X265500Y226181D01*
Y222638D01*
X265642Y221555D01*
X266060Y220545D01*
X266725Y219678D01*
X267592Y219013D01*
X268602Y218595D01*
X269685Y218453D01*
X270768Y218595D01*
X271778Y219013D01*
X272644Y219678D01*
X273310Y220545D01*
X273728Y221555D01*
X273870Y222638D01*
Y226181D01*
X273728Y227264D01*
X273310Y228274D01*
X272644Y229141D01*
X271778Y229806D01*
X270768Y230224D01*
X269685Y230367D01*
D02*
G37*
G36*
X250000D02*
X248917Y230224D01*
X247907Y229806D01*
X247041Y229141D01*
X246375Y228274D01*
X245957Y227264D01*
X245815Y226181D01*
Y222638D01*
X245957Y221555D01*
X246375Y220545D01*
X247041Y219678D01*
X247907Y219013D01*
X248917Y218595D01*
X250000Y218453D01*
X251083Y218595D01*
X252093Y219013D01*
X252959Y219678D01*
X253625Y220545D01*
X254043Y221555D01*
X254185Y222638D01*
Y226181D01*
X254043Y227264D01*
X253625Y228274D01*
X252959Y229141D01*
X252093Y229806D01*
X251083Y230224D01*
X250000Y230367D01*
D02*
G37*
G36*
X240158D02*
X239074Y230224D01*
X238065Y229806D01*
X237198Y229141D01*
X236533Y228274D01*
X236115Y227264D01*
X235972Y226181D01*
Y222638D01*
X236115Y221555D01*
X236533Y220545D01*
X237198Y219678D01*
X238065Y219013D01*
X239074Y218595D01*
X240158Y218453D01*
X241241Y218595D01*
X242250Y219013D01*
X243117Y219678D01*
X243782Y220545D01*
X244200Y221555D01*
X244343Y222638D01*
Y226181D01*
X244200Y227264D01*
X243782Y228274D01*
X243117Y229141D01*
X242250Y229806D01*
X241241Y230224D01*
X240158Y230367D01*
D02*
G37*
G36*
X452756Y231744D02*
X451325Y231603D01*
X449949Y231186D01*
X448681Y230508D01*
X447570Y229596D01*
X446658Y228484D01*
X445980Y227216D01*
X445562Y225840D01*
X445422Y224409D01*
X445562Y222978D01*
X445980Y221603D01*
X446658Y220335D01*
X447570Y219223D01*
X448681Y218311D01*
X449949Y217633D01*
X451325Y217216D01*
X452756Y217075D01*
X454187Y217216D01*
X455563Y217633D01*
X456831Y218311D01*
X457942Y219223D01*
X458854Y220335D01*
X459532Y221603D01*
X459950Y222978D01*
X460090Y224409D01*
X459950Y225840D01*
X459532Y227216D01*
X458854Y228484D01*
X457942Y229596D01*
X456831Y230508D01*
X455563Y231186D01*
X454187Y231603D01*
X452756Y231744D01*
D02*
G37*
G36*
X353400Y193122D02*
X353400Y193122D01*
X303505D01*
X302807Y192984D01*
X302216Y192589D01*
X302216Y192589D01*
X297924Y188296D01*
X297529Y187705D01*
X297390Y187008D01*
X297390Y187008D01*
Y173983D01*
X294129Y170722D01*
X289326D01*
X289105Y171171D01*
X289253Y171363D01*
X289592Y172181D01*
X289707Y173059D01*
X289592Y173937D01*
X289253Y174755D01*
X288714Y175457D01*
X288012Y175996D01*
X287194Y176335D01*
X286316Y176450D01*
X281198D01*
X280320Y176335D01*
X279502Y175996D01*
X278800Y175457D01*
X278261Y174755D01*
X277922Y173937D01*
X277806Y173059D01*
X277922Y172181D01*
X278261Y171363D01*
X278416Y171161D01*
X278366Y171058D01*
X278133Y170709D01*
X277503Y170584D01*
X276911Y170189D01*
X276911Y170189D01*
X254617Y147894D01*
X254222Y147303D01*
X254083Y146606D01*
X254083Y146606D01*
Y137398D01*
X253813Y137286D01*
X252946Y136621D01*
X252281Y135754D01*
X251863Y134745D01*
X251720Y133661D01*
Y130118D01*
X251863Y129035D01*
X252281Y128025D01*
X252946Y127159D01*
X253813Y126494D01*
X254822Y126075D01*
X255906Y125933D01*
X256989Y126075D01*
X257998Y126494D01*
X258865Y127159D01*
X259530Y128025D01*
X259948Y129035D01*
X260091Y130118D01*
Y133661D01*
X259948Y134745D01*
X259530Y135754D01*
X258865Y136621D01*
X257998Y137286D01*
X257728Y137398D01*
Y145851D01*
X278955Y167078D01*
X280937D01*
X280970Y166578D01*
X280320Y166492D01*
X279502Y166153D01*
X278800Y165614D01*
X278261Y164912D01*
X277922Y164094D01*
X277806Y163216D01*
X277922Y162339D01*
X278261Y161521D01*
X278800Y160819D01*
X279502Y160280D01*
X280320Y159941D01*
X281198Y159825D01*
X286316D01*
X287194Y159941D01*
X288012Y160280D01*
X288714Y160819D01*
X289253Y161521D01*
X289592Y162339D01*
X289707Y163216D01*
X289592Y164094D01*
X289253Y164912D01*
X288714Y165614D01*
X288012Y166153D01*
X287194Y166492D01*
X286544Y166578D01*
X286577Y167078D01*
X294884D01*
X294884Y167078D01*
X295582Y167216D01*
X296173Y167611D01*
X300501Y171940D01*
X300501Y171940D01*
X300896Y172531D01*
X301035Y173228D01*
X301035Y173228D01*
Y186253D01*
X304260Y189478D01*
X352645D01*
X365411Y176711D01*
X366003Y176316D01*
X366700Y176178D01*
X366700Y176178D01*
X373406D01*
X373575Y175678D01*
X373288Y175457D01*
X372846Y174881D01*
X371500D01*
X370803Y174743D01*
X370211Y174348D01*
X370211Y174348D01*
X354538Y158675D01*
X354143Y158083D01*
X354004Y157386D01*
X354004Y157386D01*
Y132890D01*
X351677D01*
Y123016D01*
X359976D01*
Y132890D01*
X357649D01*
Y156631D01*
X372255Y171237D01*
X372846D01*
X373288Y170661D01*
X373990Y170122D01*
X374808Y169783D01*
X375686Y169668D01*
X380804D01*
X381682Y169783D01*
X382500Y170122D01*
X383202Y170661D01*
X383741Y171363D01*
X384080Y172181D01*
X384195Y173059D01*
X384080Y173937D01*
X383741Y174755D01*
X383202Y175457D01*
X382914Y175678D01*
X383084Y176178D01*
X397028D01*
X397198Y175678D01*
X396910Y175457D01*
X396371Y174755D01*
X396032Y173937D01*
X395917Y173059D01*
X396032Y172181D01*
X396371Y171363D01*
X396910Y170661D01*
X397091Y170522D01*
X396921Y170022D01*
X396313D01*
X395796Y170696D01*
X395065Y171257D01*
X394214Y171610D01*
X393300Y171730D01*
X392386Y171610D01*
X391535Y171257D01*
X390804Y170696D01*
X390243Y169965D01*
X389890Y169114D01*
X389770Y168200D01*
X389890Y167286D01*
X390243Y166435D01*
X390804Y165704D01*
X391535Y165143D01*
X392386Y164790D01*
X393300Y164670D01*
X394214Y164790D01*
X395065Y165143D01*
X395796Y165704D01*
X396313Y166378D01*
X397083D01*
X397253Y165878D01*
X396910Y165614D01*
X396371Y164912D01*
X396032Y164094D01*
X395917Y163216D01*
X396032Y162339D01*
X396371Y161521D01*
X396910Y160819D01*
X397612Y160280D01*
X398430Y159941D01*
X399308Y159825D01*
X404426D01*
X405304Y159941D01*
X406122Y160280D01*
X406824Y160819D01*
X407363Y161521D01*
X407702Y162339D01*
X407817Y163216D01*
X407702Y164094D01*
X407363Y164912D01*
X406824Y165614D01*
X406481Y165878D01*
X406651Y166378D01*
X413400D01*
X413400Y166378D01*
X414097Y166516D01*
X414689Y166911D01*
X425955Y178178D01*
X432502D01*
X432672Y177678D01*
X432343Y177425D01*
X431804Y176723D01*
X431465Y175905D01*
X431350Y175027D01*
X431465Y174150D01*
X431804Y173332D01*
X432343Y172629D01*
X433045Y172090D01*
X433863Y171752D01*
X434741Y171636D01*
X439859D01*
X440737Y171752D01*
X441555Y172090D01*
X442257Y172629D01*
X442796Y173332D01*
X443135Y174150D01*
X443251Y175027D01*
X443135Y175905D01*
X442796Y176723D01*
X442257Y177425D01*
X441928Y177678D01*
X442098Y178178D01*
X450700D01*
X450700Y178178D01*
X451397Y178316D01*
X451989Y178711D01*
X455763Y182485D01*
X455965Y182472D01*
X456668Y181933D01*
X457485Y181594D01*
X458363Y181479D01*
X463481D01*
X464359Y181594D01*
X465177Y181933D01*
X465879Y182472D01*
X466418Y183174D01*
X466757Y183992D01*
X466873Y184870D01*
X466757Y185748D01*
X466418Y186566D01*
X465879Y187268D01*
X465177Y187807D01*
X464359Y188146D01*
X463481Y188261D01*
X458363D01*
X457485Y188146D01*
X456668Y187807D01*
X455965Y187268D01*
X455515Y186681D01*
X454873Y186554D01*
X454281Y186159D01*
X449945Y181822D01*
X443222D01*
Y188232D01*
X431379D01*
Y181822D01*
X425200D01*
X425200Y181822D01*
X424503Y181684D01*
X423911Y181289D01*
X412645Y170022D01*
X406813D01*
X406643Y170522D01*
X406824Y170661D01*
X407363Y171363D01*
X407702Y172181D01*
X407817Y173059D01*
X407702Y173937D01*
X407363Y174755D01*
X406824Y175457D01*
X406122Y175996D01*
X405304Y176335D01*
X404426Y176450D01*
X401016D01*
X400748Y176950D01*
X400984Y177303D01*
X401122Y178000D01*
Y179510D01*
X404426D01*
X405304Y179626D01*
X406122Y179965D01*
X406824Y180504D01*
X407363Y181206D01*
X407702Y182024D01*
X407817Y182902D01*
X407702Y183779D01*
X407363Y184597D01*
X406824Y185300D01*
X406122Y185838D01*
X405304Y186177D01*
X404426Y186293D01*
X399308D01*
X398430Y186177D01*
X397612Y185838D01*
X396910Y185300D01*
X396371Y184597D01*
X396032Y183779D01*
X395917Y182902D01*
X396032Y182024D01*
X396371Y181206D01*
X396910Y180504D01*
X397146Y180322D01*
X396976Y179822D01*
X384166D01*
Y186264D01*
X372324D01*
Y179822D01*
X367455D01*
X354689Y192589D01*
X354097Y192984D01*
X353400Y193122D01*
D02*
G37*
G36*
X669291Y232335D02*
X668208Y232192D01*
X667199Y231774D01*
X666332Y231109D01*
X665666Y230242D01*
X665248Y229233D01*
X665106Y228150D01*
Y224606D01*
X665248Y223523D01*
X665666Y222513D01*
X666332Y221647D01*
X667199Y220982D01*
X667469Y220869D01*
Y190945D01*
X667469Y190945D01*
X667607Y190248D01*
X668003Y189656D01*
X671244Y186415D01*
Y180722D01*
X670280D01*
X651429Y199574D01*
Y220869D01*
X651699Y220982D01*
X652566Y221647D01*
X653231Y222513D01*
X653649Y223523D01*
X653792Y224606D01*
Y228150D01*
X653649Y229233D01*
X653231Y230242D01*
X652566Y231109D01*
X651699Y231774D01*
X650690Y232192D01*
X649606Y232335D01*
X648523Y232192D01*
X647513Y231774D01*
X646647Y231109D01*
X645982Y230242D01*
X645563Y229233D01*
X645421Y228150D01*
Y224606D01*
X645563Y223523D01*
X645982Y222513D01*
X646647Y221647D01*
X647513Y220982D01*
X647784Y220869D01*
Y198819D01*
X647784Y198819D01*
X647923Y198122D01*
X648318Y197530D01*
X668236Y177611D01*
X668236Y177611D01*
X668828Y177216D01*
X669525Y177078D01*
X669525Y177078D01*
X674254D01*
X674287Y176578D01*
X673729Y176504D01*
X672911Y176165D01*
X672208Y175626D01*
X671767Y175051D01*
X660204D01*
X655366Y179889D01*
Y187008D01*
X655366Y187008D01*
X655227Y187705D01*
X654832Y188296D01*
X641586Y201542D01*
Y220869D01*
X641856Y220982D01*
X642723Y221647D01*
X643389Y222513D01*
X643807Y223523D01*
X643949Y224606D01*
Y228150D01*
X643807Y229233D01*
X643389Y230242D01*
X642723Y231109D01*
X641856Y231774D01*
X640847Y232192D01*
X639764Y232335D01*
X638681Y232192D01*
X637671Y231774D01*
X636804Y231109D01*
X636139Y230242D01*
X635721Y229233D01*
X635578Y228150D01*
Y224606D01*
X635721Y223523D01*
X636139Y222513D01*
X636804Y221647D01*
X637671Y220982D01*
X637941Y220869D01*
Y200787D01*
X637941Y200787D01*
X638080Y200090D01*
X638475Y199499D01*
X651721Y186253D01*
Y179134D01*
X651721Y179134D01*
X651860Y178436D01*
X652255Y177845D01*
X658160Y171940D01*
X658160Y171940D01*
X658751Y171545D01*
X659449Y171406D01*
X659449Y171406D01*
X671767D01*
X672208Y170830D01*
X672911Y170291D01*
X673729Y169953D01*
X674606Y169837D01*
X679725D01*
X680602Y169953D01*
X681420Y170291D01*
X682122Y170830D01*
X682661Y171533D01*
X683000Y172351D01*
X683116Y173228D01*
X683000Y174106D01*
X682661Y174924D01*
X682122Y175626D01*
X681420Y176165D01*
X680602Y176504D01*
X680044Y176578D01*
X680077Y177078D01*
X697876D01*
X697909Y176578D01*
X697351Y176504D01*
X696533Y176165D01*
X695830Y175626D01*
X695292Y174924D01*
X694953Y174106D01*
X694837Y173228D01*
X694953Y172351D01*
X695292Y171533D01*
X695830Y170830D01*
X696533Y170291D01*
X697351Y169953D01*
X698228Y169837D01*
X703346D01*
X704224Y169953D01*
X705042Y170291D01*
X705744Y170830D01*
X706283Y171533D01*
X706622Y172351D01*
X706738Y173228D01*
X706622Y174106D01*
X706283Y174924D01*
X705744Y175626D01*
X705042Y176165D01*
X704224Y176504D01*
X703666Y176578D01*
X703698Y177078D01*
X727274D01*
X730369Y173982D01*
X730270Y173228D01*
X730386Y172351D01*
X730724Y171533D01*
X731263Y170830D01*
X731966Y170291D01*
X732784Y169953D01*
X733661Y169837D01*
X738779D01*
X739657Y169953D01*
X740475Y170291D01*
X741177Y170830D01*
X741716Y171533D01*
X742055Y172351D01*
X742171Y173228D01*
X742055Y174106D01*
X741716Y174924D01*
X741177Y175626D01*
X740475Y176165D01*
X739657Y176504D01*
X738779Y176620D01*
X733661D01*
X732976Y176529D01*
X730296Y179210D01*
X730504Y179709D01*
X730714Y179709D01*
X742142D01*
Y186433D01*
X730299D01*
Y180156D01*
X730299Y179914D01*
X729801Y179705D01*
X729317Y180189D01*
X728726Y180584D01*
X728028Y180722D01*
X728028Y180722D01*
X706348D01*
X706126Y181171D01*
X706283Y181375D01*
X706622Y182193D01*
X706738Y183071D01*
X706622Y183949D01*
X706283Y184766D01*
X705744Y185469D01*
X705042Y186008D01*
X704224Y186346D01*
X703346Y186462D01*
X698228D01*
X697351Y186346D01*
X696533Y186008D01*
X695830Y185469D01*
X695292Y184766D01*
X694953Y183949D01*
X694837Y183071D01*
X694953Y182193D01*
X695292Y181375D01*
X695448Y181171D01*
X695227Y180722D01*
X683087D01*
Y186433D01*
X676380D01*
X671114Y191700D01*
Y220869D01*
X671384Y220982D01*
X672251Y221647D01*
X672916Y222513D01*
X673334Y223523D01*
X673477Y224606D01*
Y228150D01*
X673334Y229233D01*
X672916Y230242D01*
X672251Y231109D01*
X671384Y231774D01*
X670374Y232192D01*
X669291Y232335D01*
D02*
G37*
G36*
X801197Y186433D02*
X789354D01*
Y179709D01*
X801197D01*
Y186433D01*
D02*
G37*
G36*
X564977D02*
X553134D01*
Y179709D01*
X564977D01*
Y186433D01*
D02*
G37*
G36*
X821457Y186462D02*
X816339D01*
X815461Y186346D01*
X814643Y186008D01*
X813941Y185469D01*
X813402Y184766D01*
X813063Y183949D01*
X812947Y183071D01*
X813063Y182193D01*
X813402Y181375D01*
X813941Y180673D01*
X814643Y180134D01*
X815461Y179795D01*
X816339Y179680D01*
X821457D01*
X822334Y179795D01*
X823152Y180134D01*
X823855Y180673D01*
X824393Y181375D01*
X824732Y182193D01*
X824848Y183071D01*
X824732Y183949D01*
X824393Y184766D01*
X823855Y185469D01*
X823152Y186008D01*
X822334Y186346D01*
X821457Y186462D01*
D02*
G37*
G36*
X585236D02*
X580118D01*
X579240Y186346D01*
X578422Y186008D01*
X577720Y185469D01*
X577181Y184766D01*
X576842Y183949D01*
X576727Y183071D01*
X576842Y182193D01*
X577181Y181375D01*
X577720Y180673D01*
X578422Y180134D01*
X579240Y179795D01*
X580118Y179680D01*
X585236D01*
X586114Y179795D01*
X586932Y180134D01*
X587634Y180673D01*
X588173Y181375D01*
X588512Y182193D01*
X588627Y183071D01*
X588512Y183949D01*
X588173Y184766D01*
X587634Y185469D01*
X586932Y186008D01*
X586114Y186346D01*
X585236Y186462D01*
D02*
G37*
G36*
X207001Y186264D02*
X195158D01*
Y179539D01*
X207001D01*
Y186264D01*
D02*
G37*
G36*
X147946D02*
X136103D01*
Y179539D01*
X147946D01*
Y186264D01*
D02*
G37*
G36*
X259843Y230367D02*
X258759Y230224D01*
X257750Y229806D01*
X256883Y229141D01*
X256218Y228274D01*
X255800Y227264D01*
X255657Y226181D01*
Y222638D01*
X255800Y221555D01*
X256218Y220545D01*
X256883Y219678D01*
X257750Y219013D01*
X258312Y218780D01*
Y186264D01*
X254214D01*
Y179722D01*
X252703D01*
X252703Y179722D01*
X252006Y179584D01*
X251414Y179189D01*
X251414Y179189D01*
X240837Y168612D01*
X240442Y168020D01*
X240303Y167323D01*
X240304Y167323D01*
Y138550D01*
X238724Y136971D01*
X238313Y137286D01*
X237304Y137704D01*
X236221Y137847D01*
X235137Y137704D01*
X234128Y137286D01*
X233261Y136621D01*
X232596Y135754D01*
X232178Y134745D01*
X232035Y133661D01*
Y130118D01*
X232178Y129035D01*
X232596Y128025D01*
X233261Y127159D01*
X234128Y126494D01*
X235137Y126075D01*
X236221Y125933D01*
X237304Y126075D01*
X238313Y126494D01*
X239180Y127159D01*
X239845Y128025D01*
X240263Y129035D01*
X240406Y130118D01*
Y133601D01*
X240718Y133810D01*
X241495Y134587D01*
X241969Y134353D01*
X241878Y133661D01*
Y130118D01*
X242020Y129035D01*
X242438Y128025D01*
X243104Y127159D01*
X243970Y126494D01*
X244296Y126359D01*
X244379Y125940D01*
X244774Y125348D01*
X248711Y121411D01*
X248711Y121411D01*
X249303Y121016D01*
X250000Y120878D01*
X250000Y120878D01*
X288054D01*
X288054Y120878D01*
X288752Y121016D01*
X289343Y121411D01*
X306407Y138475D01*
X306407Y138475D01*
X306802Y139066D01*
X306941Y139764D01*
X306941Y139764D01*
Y179063D01*
X312769Y184891D01*
X313269Y184684D01*
Y179539D01*
X325111D01*
Y185278D01*
X336499D01*
X337276Y184500D01*
X336977Y183779D01*
X336862Y182902D01*
X336977Y182024D01*
X337316Y181206D01*
X337855Y180504D01*
X338557Y179965D01*
X339375Y179626D01*
X340253Y179510D01*
X345371D01*
X346249Y179626D01*
X347067Y179965D01*
X347769Y180504D01*
X348308Y181206D01*
X348647Y182024D01*
X348762Y182902D01*
X348647Y183779D01*
X348308Y184597D01*
X347769Y185300D01*
X347067Y185838D01*
X346249Y186177D01*
X345371Y186293D01*
X340551D01*
X340375Y186556D01*
X340375Y186556D01*
X338542Y188389D01*
X337951Y188784D01*
X337254Y188922D01*
X337254Y188922D01*
X312400D01*
X312400Y188922D01*
X311703Y188784D01*
X311111Y188389D01*
X311111Y188389D01*
X303830Y181107D01*
X303434Y180516D01*
X303296Y179818D01*
X303296Y179818D01*
Y140519D01*
X287299Y124522D01*
X250755D01*
X248779Y126498D01*
X248812Y126997D01*
X249023Y127159D01*
X249688Y128025D01*
X250106Y129035D01*
X250248Y130118D01*
Y133661D01*
X250106Y134745D01*
X249688Y135754D01*
X249023Y136621D01*
X248156Y137286D01*
X247146Y137704D01*
X246063Y137847D01*
X244980Y137704D01*
X244392Y137461D01*
X243948Y137795D01*
X243948Y137795D01*
Y166568D01*
X253458Y176078D01*
X255165D01*
X255335Y175578D01*
X255178Y175457D01*
X254639Y174755D01*
X254300Y173937D01*
X254185Y173059D01*
X254300Y172181D01*
X254639Y171363D01*
X255178Y170661D01*
X255880Y170122D01*
X256698Y169783D01*
X257576Y169668D01*
X262694D01*
X263572Y169783D01*
X264389Y170122D01*
X265092Y170661D01*
X265631Y171363D01*
X265969Y172181D01*
X266085Y173059D01*
X265969Y173937D01*
X265631Y174755D01*
X265092Y175457D01*
X264935Y175578D01*
X265104Y176078D01*
X266898D01*
X266898Y176078D01*
X267596Y176216D01*
X268187Y176611D01*
X272655Y181079D01*
X278358D01*
X278800Y180504D01*
X279502Y179965D01*
X280320Y179626D01*
X281198Y179510D01*
X286316D01*
X287194Y179626D01*
X288012Y179965D01*
X288714Y180504D01*
X289253Y181206D01*
X289592Y182024D01*
X289707Y182902D01*
X289592Y183779D01*
X289253Y184597D01*
X288714Y185300D01*
X288012Y185838D01*
X287194Y186177D01*
X286316Y186293D01*
X281198D01*
X280320Y186177D01*
X279502Y185838D01*
X278800Y185300D01*
X278358Y184724D01*
X271900D01*
X271900Y184724D01*
X271203Y184585D01*
X270611Y184190D01*
X266556Y180135D01*
X266056Y180342D01*
Y186264D01*
X261957D01*
Y219030D01*
X262802Y219678D01*
X263467Y220545D01*
X263885Y221555D01*
X264028Y222638D01*
Y226181D01*
X263885Y227264D01*
X263467Y228274D01*
X262802Y229141D01*
X261935Y229806D01*
X260926Y230224D01*
X259843Y230367D01*
D02*
G37*
G36*
X624228Y232299D02*
X615929D01*
Y220457D01*
X618256D01*
Y197062D01*
X596245Y175051D01*
X588076D01*
X587634Y175626D01*
X586932Y176165D01*
X586114Y176504D01*
X585236Y176620D01*
X580118D01*
X579240Y176504D01*
X578422Y176165D01*
X577720Y175626D01*
X577181Y174924D01*
X576842Y174106D01*
X576727Y173228D01*
X576842Y172351D01*
X577181Y171533D01*
X577720Y170830D01*
X578422Y170291D01*
X579240Y169953D01*
X580118Y169837D01*
X585236D01*
X586114Y169953D01*
X586932Y170291D01*
X587634Y170830D01*
X588076Y171406D01*
X597000D01*
X597000Y171406D01*
X597697Y171545D01*
X598289Y171940D01*
X611727Y185378D01*
X612189Y185187D01*
Y179315D01*
X624031D01*
Y186039D01*
X613042D01*
X612850Y186501D01*
X621367Y195018D01*
X621367Y195018D01*
X621762Y195610D01*
X621901Y196307D01*
X621901Y196307D01*
Y220457D01*
X624228D01*
Y232299D01*
D02*
G37*
G36*
X644291Y186068D02*
X639173D01*
X638295Y185953D01*
X637477Y185614D01*
X636775Y185075D01*
X636236Y184373D01*
X635897Y183555D01*
X635782Y182677D01*
X635897Y181799D01*
X636236Y180982D01*
X636775Y180279D01*
X637477Y179740D01*
X638295Y179402D01*
X639173Y179286D01*
X644291D01*
X645169Y179402D01*
X645987Y179740D01*
X646689Y180279D01*
X647228Y180982D01*
X647567Y181799D01*
X647683Y182677D01*
X647567Y183555D01*
X647228Y184373D01*
X646689Y185075D01*
X645987Y185614D01*
X645169Y185953D01*
X644291Y186068D01*
D02*
G37*
G36*
X230315Y230367D02*
X229232Y230224D01*
X228222Y229806D01*
X227356Y229141D01*
X226690Y228274D01*
X226272Y227264D01*
X226130Y226181D01*
Y222638D01*
X226272Y221555D01*
X226690Y220545D01*
X227356Y219678D01*
X228222Y219013D01*
X228493Y218901D01*
Y216670D01*
X211611Y199789D01*
X211216Y199197D01*
X211078Y198500D01*
X211078Y198500D01*
Y176714D01*
X209245Y174881D01*
X206478D01*
X206037Y175457D01*
X205334Y175996D01*
X204516Y176335D01*
X203639Y176450D01*
X198521D01*
X197643Y176335D01*
X196825Y175996D01*
X196123Y175457D01*
X195584Y174755D01*
X195245Y173937D01*
X195129Y173059D01*
X195245Y172181D01*
X195584Y171363D01*
X196123Y170661D01*
X196825Y170122D01*
X197643Y169783D01*
X198521Y169668D01*
X203639D01*
X204516Y169783D01*
X205334Y170122D01*
X206037Y170661D01*
X206478Y171237D01*
X210000D01*
X210000Y171237D01*
X210697Y171375D01*
X211289Y171770D01*
X214189Y174670D01*
X214584Y175262D01*
X214722Y175959D01*
X214722Y175959D01*
Y197745D01*
X231604Y214626D01*
X231604Y214626D01*
X231999Y215218D01*
X232137Y215915D01*
X232137Y215915D01*
Y218901D01*
X232408Y219013D01*
X233275Y219678D01*
X233940Y220545D01*
X234358Y221555D01*
X234500Y222638D01*
Y226181D01*
X234358Y227264D01*
X233940Y228274D01*
X233275Y229141D01*
X232408Y229806D01*
X231398Y230224D01*
X230315Y230367D01*
D02*
G37*
G36*
X463481Y178419D02*
X458363D01*
X457485Y178303D01*
X456668Y177964D01*
X455965Y177425D01*
X455426Y176723D01*
X455088Y175905D01*
X454972Y175027D01*
X455088Y174150D01*
X455426Y173332D01*
X455965Y172629D01*
X456668Y172090D01*
X457485Y171752D01*
X458363Y171636D01*
X463481D01*
X464359Y171752D01*
X465177Y172090D01*
X465879Y172629D01*
X466418Y173332D01*
X466757Y174150D01*
X466873Y175027D01*
X466757Y175905D01*
X466418Y176723D01*
X465879Y177425D01*
X465177Y177964D01*
X464359Y178303D01*
X463481Y178419D01*
D02*
G37*
G36*
X821457Y176620D02*
X816339D01*
X815461Y176504D01*
X814643Y176165D01*
X813941Y175626D01*
X813402Y174924D01*
X813063Y174106D01*
X812947Y173228D01*
X813063Y172351D01*
X813402Y171533D01*
X813941Y170830D01*
X814643Y170291D01*
X815461Y169953D01*
X816339Y169837D01*
X821457D01*
X822334Y169953D01*
X823152Y170291D01*
X823855Y170830D01*
X824393Y171533D01*
X824732Y172351D01*
X824848Y173228D01*
X824732Y174106D01*
X824393Y174924D01*
X823855Y175626D01*
X823152Y176165D01*
X822334Y176504D01*
X821457Y176620D01*
D02*
G37*
G36*
X797835D02*
X792717D01*
X791839Y176504D01*
X791021Y176165D01*
X790319Y175626D01*
X789780Y174924D01*
X789441Y174106D01*
X789325Y173228D01*
X789441Y172351D01*
X789780Y171533D01*
X790319Y170830D01*
X791021Y170291D01*
X791839Y169953D01*
X792717Y169837D01*
X797835D01*
X798712Y169953D01*
X799530Y170291D01*
X800233Y170830D01*
X800772Y171533D01*
X801110Y172351D01*
X801226Y173228D01*
X801110Y174106D01*
X800772Y174924D01*
X800233Y175626D01*
X799530Y176165D01*
X798712Y176504D01*
X797835Y176620D01*
D02*
G37*
G36*
X762402D02*
X757283D01*
X756406Y176504D01*
X755588Y176165D01*
X754886Y175626D01*
X754347Y174924D01*
X754008Y174106D01*
X753892Y173228D01*
X754008Y172351D01*
X754347Y171533D01*
X754886Y170830D01*
X755588Y170291D01*
X756406Y169953D01*
X757283Y169837D01*
X762402D01*
X763279Y169953D01*
X764097Y170291D01*
X764800Y170830D01*
X765339Y171533D01*
X765677Y172351D01*
X765793Y173228D01*
X765677Y174106D01*
X765339Y174924D01*
X764800Y175626D01*
X764097Y176165D01*
X763279Y176504D01*
X762402Y176620D01*
D02*
G37*
G36*
X561614D02*
X556496D01*
X555618Y176504D01*
X554801Y176165D01*
X554098Y175626D01*
X553559Y174924D01*
X553221Y174106D01*
X553105Y173228D01*
X553221Y172351D01*
X553559Y171533D01*
X554098Y170830D01*
X554801Y170291D01*
X555618Y169953D01*
X556496Y169837D01*
X561614D01*
X562492Y169953D01*
X563310Y170291D01*
X564012Y170830D01*
X564551Y171533D01*
X564890Y172351D01*
X565005Y173228D01*
X564890Y174106D01*
X564551Y174924D01*
X564012Y175626D01*
X563310Y176165D01*
X562492Y176504D01*
X561614Y176620D01*
D02*
G37*
G36*
X345371Y176450D02*
X340253D01*
X339375Y176335D01*
X338557Y175996D01*
X337855Y175457D01*
X337316Y174755D01*
X336977Y173937D01*
X336862Y173059D01*
X336977Y172181D01*
X337316Y171363D01*
X337855Y170661D01*
X338557Y170122D01*
X339375Y169783D01*
X340253Y169668D01*
X345371D01*
X346249Y169783D01*
X347067Y170122D01*
X347769Y170661D01*
X348308Y171363D01*
X348647Y172181D01*
X348762Y173059D01*
X348647Y173937D01*
X348308Y174755D01*
X347769Y175457D01*
X347067Y175996D01*
X346249Y176335D01*
X345371Y176450D01*
D02*
G37*
G36*
X321749D02*
X316631D01*
X315753Y176335D01*
X314935Y175996D01*
X314233Y175457D01*
X313694Y174755D01*
X313355Y173937D01*
X313240Y173059D01*
X313355Y172181D01*
X313694Y171363D01*
X314233Y170661D01*
X314935Y170122D01*
X315753Y169783D01*
X316631Y169668D01*
X321749D01*
X322627Y169783D01*
X323445Y170122D01*
X324147Y170661D01*
X324686Y171363D01*
X325025Y172181D01*
X325140Y173059D01*
X325025Y173937D01*
X324686Y174755D01*
X324147Y175457D01*
X323445Y175996D01*
X322627Y176335D01*
X321749Y176450D01*
D02*
G37*
G36*
X168206Y186293D02*
X163087D01*
X162210Y186177D01*
X161392Y185838D01*
X160690Y185300D01*
X160151Y184597D01*
X159812Y183779D01*
X159696Y182902D01*
X159812Y182024D01*
X160151Y181206D01*
X160690Y180504D01*
X161392Y179965D01*
X162210Y179626D01*
X163087Y179510D01*
X168206D01*
X169083Y179626D01*
X169901Y179965D01*
X170604Y180504D01*
X171045Y181079D01*
X179545D01*
X181478Y179147D01*
Y127724D01*
X181478Y127724D01*
X181616Y127026D01*
X182011Y126435D01*
X187688Y120759D01*
X187688Y120759D01*
X188279Y120363D01*
X188976Y120225D01*
X206693D01*
X206693Y120225D01*
X207390Y120363D01*
X207981Y120759D01*
X214032Y126809D01*
X214443Y126494D01*
X215452Y126075D01*
X216535Y125933D01*
X217619Y126075D01*
X218628Y126494D01*
X219495Y127159D01*
X220160Y128025D01*
X220578Y129035D01*
X220721Y130118D01*
Y133661D01*
X220578Y134745D01*
X220160Y135754D01*
X219495Y136621D01*
X218628Y137286D01*
X217619Y137704D01*
X216535Y137847D01*
X215452Y137704D01*
X214443Y137286D01*
X213576Y136621D01*
X212911Y135754D01*
X212493Y134745D01*
X212350Y133661D01*
Y130178D01*
X212038Y129970D01*
X212038Y129970D01*
X211261Y129193D01*
X210787Y129426D01*
X210878Y130118D01*
Y133661D01*
X210736Y134745D01*
X210318Y135754D01*
X209652Y136621D01*
X208786Y137286D01*
X208515Y137398D01*
Y138138D01*
X216489Y146111D01*
X216489Y146111D01*
X216884Y146703D01*
X217022Y147400D01*
Y169245D01*
X218865Y171088D01*
X219440Y171058D01*
X219745Y170661D01*
X220447Y170122D01*
X221265Y169783D01*
X222143Y169668D01*
X227261D01*
X228139Y169783D01*
X228957Y170122D01*
X229659Y170661D01*
X230198Y171363D01*
X230537Y172181D01*
X230652Y173059D01*
X230537Y173937D01*
X230198Y174755D01*
X229659Y175457D01*
X228957Y175996D01*
X228139Y176335D01*
X227261Y176450D01*
X222143D01*
X221265Y176335D01*
X220447Y175996D01*
X219745Y175457D01*
X219303Y174881D01*
X218259D01*
X218259Y174881D01*
X217562Y174743D01*
X216970Y174348D01*
X213911Y171289D01*
X213516Y170697D01*
X213378Y170000D01*
X213378Y170000D01*
Y148155D01*
X205404Y140182D01*
X205009Y139590D01*
X204871Y138893D01*
X204871Y138893D01*
Y137398D01*
X204600Y137286D01*
X203733Y136621D01*
X203068Y135754D01*
X202650Y134745D01*
X202508Y133661D01*
Y130118D01*
X202650Y129035D01*
X203068Y128025D01*
X203733Y127159D01*
X204600Y126494D01*
X205610Y126075D01*
X206693Y125933D01*
X207385Y126024D01*
X207619Y125550D01*
X205938Y123870D01*
X189731D01*
X185122Y128479D01*
Y179902D01*
X185122Y179902D01*
X184984Y180599D01*
X184589Y181190D01*
X181589Y184190D01*
X180997Y184585D01*
X180300Y184724D01*
X180300Y184724D01*
X171045D01*
X170604Y185300D01*
X169901Y185838D01*
X169083Y186177D01*
X168206Y186293D01*
D02*
G37*
G36*
Y176450D02*
X163087D01*
X162210Y176335D01*
X161392Y175996D01*
X160690Y175457D01*
X160151Y174755D01*
X159812Y173937D01*
X159696Y173059D01*
X159812Y172181D01*
X160151Y171363D01*
X160690Y170661D01*
X161392Y170122D01*
X162210Y169783D01*
X163087Y169668D01*
X168206D01*
X169083Y169783D01*
X169901Y170122D01*
X170604Y170661D01*
X171142Y171363D01*
X171481Y172181D01*
X171597Y173059D01*
X171481Y173937D01*
X171142Y174755D01*
X170604Y175457D01*
X169901Y175996D01*
X169083Y176335D01*
X168206Y176450D01*
D02*
G37*
G36*
X144584D02*
X139465D01*
X138588Y176335D01*
X137770Y175996D01*
X137068Y175457D01*
X136529Y174755D01*
X136190Y173937D01*
X136074Y173059D01*
X136190Y172181D01*
X136529Y171363D01*
X137068Y170661D01*
X137770Y170122D01*
X138588Y169783D01*
X139465Y169668D01*
X144584D01*
X145461Y169783D01*
X146279Y170122D01*
X146982Y170661D01*
X147520Y171363D01*
X147859Y172181D01*
X147975Y173059D01*
X147859Y173937D01*
X147520Y174755D01*
X146982Y175457D01*
X146279Y175996D01*
X145461Y176335D01*
X144584Y176450D01*
D02*
G37*
G36*
X629921Y232335D02*
X628838Y232192D01*
X627829Y231774D01*
X626962Y231109D01*
X626297Y230242D01*
X625878Y229233D01*
X625736Y228150D01*
Y224606D01*
X625878Y223523D01*
X626297Y222513D01*
X626962Y221647D01*
X627829Y220982D01*
X628099Y220869D01*
Y177913D01*
X628099Y177913D01*
X628237Y177216D01*
X628632Y176625D01*
X633711Y171546D01*
X633711Y171546D01*
X634303Y171151D01*
X635000Y171012D01*
X635000Y171012D01*
X636334D01*
X636775Y170437D01*
X637477Y169898D01*
X638295Y169559D01*
X639173Y169443D01*
X644291D01*
X645169Y169559D01*
X645987Y169898D01*
X646689Y170437D01*
X647228Y171139D01*
X647567Y171957D01*
X647683Y172835D01*
X647567Y173712D01*
X647228Y174530D01*
X646689Y175233D01*
X645987Y175771D01*
X645169Y176110D01*
X644291Y176226D01*
X639173D01*
X638295Y176110D01*
X637477Y175771D01*
X636775Y175233D01*
X636334Y174657D01*
X635755D01*
X631744Y178668D01*
Y220869D01*
X632014Y220982D01*
X632881Y221647D01*
X633546Y222513D01*
X633964Y223523D01*
X634107Y224606D01*
Y228150D01*
X633964Y229233D01*
X633546Y230242D01*
X632881Y231109D01*
X632014Y231774D01*
X631004Y232192D01*
X629921Y232335D01*
D02*
G37*
G36*
X620669Y176226D02*
X615551D01*
X614673Y176110D01*
X613856Y175771D01*
X613153Y175233D01*
X612614Y174530D01*
X612276Y173712D01*
X612160Y172835D01*
X612276Y171957D01*
X612614Y171139D01*
X613153Y170437D01*
X613856Y169898D01*
X614673Y169559D01*
X615551Y169443D01*
X620669D01*
X621547Y169559D01*
X622365Y169898D01*
X623067Y170437D01*
X623606Y171139D01*
X623945Y171957D01*
X624060Y172835D01*
X623945Y173712D01*
X623606Y174530D01*
X623067Y175233D01*
X622365Y175771D01*
X621547Y176110D01*
X620669Y176226D01*
D02*
G37*
G36*
X463481Y168576D02*
X458363D01*
X457485Y168461D01*
X456668Y168122D01*
X455965Y167583D01*
X455426Y166881D01*
X455088Y166063D01*
X454972Y165185D01*
X455088Y164307D01*
X455426Y163489D01*
X455965Y162787D01*
X456668Y162248D01*
X457485Y161909D01*
X458363Y161794D01*
X463481D01*
X464359Y161909D01*
X465177Y162248D01*
X465879Y162787D01*
X466418Y163489D01*
X466757Y164307D01*
X466873Y165185D01*
X466757Y166063D01*
X466418Y166881D01*
X465879Y167583D01*
X465177Y168122D01*
X464359Y168461D01*
X463481Y168576D01*
D02*
G37*
G36*
X439859D02*
X434741D01*
X433863Y168461D01*
X433045Y168122D01*
X432343Y167583D01*
X431804Y166881D01*
X431465Y166063D01*
X431350Y165185D01*
X431465Y164307D01*
X431804Y163489D01*
X432343Y162787D01*
X433045Y162248D01*
X433863Y161909D01*
X434741Y161794D01*
X439859D01*
X440737Y161909D01*
X441555Y162248D01*
X442257Y162787D01*
X442796Y163489D01*
X443135Y164307D01*
X443251Y165185D01*
X443135Y166063D01*
X442796Y166881D01*
X442257Y167583D01*
X441555Y168122D01*
X440737Y168461D01*
X439859Y168576D01*
D02*
G37*
G36*
X821457Y166777D02*
X816339D01*
X815461Y166662D01*
X814643Y166323D01*
X813941Y165784D01*
X813402Y165081D01*
X813063Y164263D01*
X812947Y163386D01*
X813063Y162508D01*
X813402Y161690D01*
X813941Y160988D01*
X814643Y160449D01*
X815461Y160110D01*
X816339Y159995D01*
X821457D01*
X822334Y160110D01*
X823152Y160449D01*
X823855Y160988D01*
X824393Y161690D01*
X824732Y162508D01*
X824848Y163386D01*
X824732Y164263D01*
X824393Y165081D01*
X823855Y165784D01*
X823152Y166323D01*
X822334Y166662D01*
X821457Y166777D01*
D02*
G37*
G36*
X797835D02*
X792717D01*
X791839Y166662D01*
X791021Y166323D01*
X790319Y165784D01*
X789780Y165081D01*
X789441Y164263D01*
X789325Y163386D01*
X789441Y162508D01*
X789780Y161690D01*
X790319Y160988D01*
X791021Y160449D01*
X791839Y160110D01*
X792717Y159995D01*
X797835D01*
X798712Y160110D01*
X799530Y160449D01*
X800233Y160988D01*
X800772Y161690D01*
X801110Y162508D01*
X801226Y163386D01*
X801110Y164263D01*
X800772Y165081D01*
X800233Y165784D01*
X799530Y166323D01*
X798712Y166662D01*
X797835Y166777D01*
D02*
G37*
G36*
X762402D02*
X757283D01*
X756406Y166662D01*
X755588Y166323D01*
X754886Y165784D01*
X754347Y165081D01*
X754008Y164263D01*
X753892Y163386D01*
X754008Y162508D01*
X754347Y161690D01*
X754886Y160988D01*
X755588Y160449D01*
X756406Y160110D01*
X757283Y159995D01*
X762402D01*
X763279Y160110D01*
X764097Y160449D01*
X764800Y160988D01*
X765339Y161690D01*
X765677Y162508D01*
X765793Y163386D01*
X765677Y164263D01*
X765339Y165081D01*
X764800Y165784D01*
X764097Y166323D01*
X763279Y166662D01*
X762402Y166777D01*
D02*
G37*
G36*
X738779D02*
X733661D01*
X732784Y166662D01*
X731966Y166323D01*
X731263Y165784D01*
X730724Y165081D01*
X730386Y164263D01*
X730270Y163386D01*
X730386Y162508D01*
X730724Y161690D01*
X731263Y160988D01*
X731966Y160449D01*
X732784Y160110D01*
X733661Y159995D01*
X738779D01*
X739657Y160110D01*
X740475Y160449D01*
X741177Y160988D01*
X741716Y161690D01*
X742055Y162508D01*
X742171Y163386D01*
X742055Y164263D01*
X741716Y165081D01*
X741177Y165784D01*
X740475Y166323D01*
X739657Y166662D01*
X738779Y166777D01*
D02*
G37*
G36*
X703346D02*
X698228D01*
X697351Y166662D01*
X696533Y166323D01*
X695830Y165784D01*
X695292Y165081D01*
X694953Y164263D01*
X694837Y163386D01*
X694953Y162508D01*
X695292Y161690D01*
X695830Y160988D01*
X696533Y160449D01*
X697351Y160110D01*
X698228Y159995D01*
X703346D01*
X704224Y160110D01*
X705042Y160449D01*
X705744Y160988D01*
X706283Y161690D01*
X706622Y162508D01*
X706738Y163386D01*
X706622Y164263D01*
X706283Y165081D01*
X705744Y165784D01*
X705042Y166323D01*
X704224Y166662D01*
X703346Y166777D01*
D02*
G37*
G36*
X679725D02*
X674606D01*
X673729Y166662D01*
X672911Y166323D01*
X672208Y165784D01*
X671669Y165081D01*
X671331Y164263D01*
X671215Y163386D01*
X671331Y162508D01*
X671669Y161690D01*
X672208Y160988D01*
X672911Y160449D01*
X673729Y160110D01*
X674606Y159995D01*
X679725D01*
X680602Y160110D01*
X681420Y160449D01*
X682122Y160988D01*
X682661Y161690D01*
X683000Y162508D01*
X683116Y163386D01*
X683000Y164263D01*
X682661Y165081D01*
X682122Y165784D01*
X681420Y166323D01*
X680602Y166662D01*
X679725Y166777D01*
D02*
G37*
G36*
X585236D02*
X580118D01*
X579240Y166662D01*
X578422Y166323D01*
X577720Y165784D01*
X577181Y165081D01*
X576842Y164263D01*
X576727Y163386D01*
X576842Y162508D01*
X577181Y161690D01*
X577720Y160988D01*
X578422Y160449D01*
X579240Y160110D01*
X580118Y159995D01*
X585236D01*
X586114Y160110D01*
X586932Y160449D01*
X587634Y160988D01*
X588173Y161690D01*
X588512Y162508D01*
X588627Y163386D01*
X588512Y164263D01*
X588173Y165081D01*
X587634Y165784D01*
X586932Y166323D01*
X586114Y166662D01*
X585236Y166777D01*
D02*
G37*
G36*
X561614D02*
X556496D01*
X555618Y166662D01*
X554801Y166323D01*
X554098Y165784D01*
X553559Y165081D01*
X553221Y164263D01*
X553105Y163386D01*
X553221Y162508D01*
X553559Y161690D01*
X554098Y160988D01*
X554801Y160449D01*
X555618Y160110D01*
X556496Y159995D01*
X561614D01*
X562492Y160110D01*
X563310Y160449D01*
X564012Y160988D01*
X564551Y161690D01*
X564890Y162508D01*
X565005Y163386D01*
X564890Y164263D01*
X564551Y165081D01*
X564012Y165784D01*
X563310Y166323D01*
X562492Y166662D01*
X561614Y166777D01*
D02*
G37*
G36*
X380804Y166608D02*
X375686D01*
X374808Y166492D01*
X373990Y166153D01*
X373288Y165614D01*
X372749Y164912D01*
X372410Y164094D01*
X372295Y163216D01*
X372410Y162339D01*
X372749Y161521D01*
X373288Y160819D01*
X373990Y160280D01*
X374808Y159941D01*
X375686Y159825D01*
X380804D01*
X381682Y159941D01*
X382500Y160280D01*
X383202Y160819D01*
X383741Y161521D01*
X384080Y162339D01*
X384195Y163216D01*
X384080Y164094D01*
X383741Y164912D01*
X383202Y165614D01*
X382500Y166153D01*
X381682Y166492D01*
X380804Y166608D01*
D02*
G37*
G36*
X345371D02*
X340253D01*
X339375Y166492D01*
X338557Y166153D01*
X337855Y165614D01*
X337316Y164912D01*
X336977Y164094D01*
X336862Y163216D01*
X336977Y162339D01*
X337316Y161521D01*
X337855Y160819D01*
X338557Y160280D01*
X339375Y159941D01*
X340253Y159825D01*
X345371D01*
X346249Y159941D01*
X347067Y160280D01*
X347769Y160819D01*
X348308Y161521D01*
X348647Y162339D01*
X348762Y163216D01*
X348647Y164094D01*
X348308Y164912D01*
X347769Y165614D01*
X347067Y166153D01*
X346249Y166492D01*
X345371Y166608D01*
D02*
G37*
G36*
X321749D02*
X316631D01*
X315753Y166492D01*
X314935Y166153D01*
X314233Y165614D01*
X313694Y164912D01*
X313355Y164094D01*
X313240Y163216D01*
X313355Y162339D01*
X313694Y161521D01*
X314233Y160819D01*
X314935Y160280D01*
X315753Y159941D01*
X316631Y159825D01*
X321749D01*
X322627Y159941D01*
X323445Y160280D01*
X324147Y160819D01*
X324686Y161521D01*
X325025Y162339D01*
X325140Y163216D01*
X325025Y164094D01*
X324686Y164912D01*
X324147Y165614D01*
X323445Y166153D01*
X322627Y166492D01*
X321749Y166608D01*
D02*
G37*
G36*
X262694D02*
X257576D01*
X256698Y166492D01*
X255880Y166153D01*
X255178Y165614D01*
X254639Y164912D01*
X254300Y164094D01*
X254185Y163216D01*
X254300Y162339D01*
X254639Y161521D01*
X255178Y160819D01*
X255880Y160280D01*
X256698Y159941D01*
X257576Y159825D01*
X262694D01*
X263572Y159941D01*
X264389Y160280D01*
X265092Y160819D01*
X265631Y161521D01*
X265969Y162339D01*
X266085Y163216D01*
X265969Y164094D01*
X265631Y164912D01*
X265092Y165614D01*
X264389Y166153D01*
X263572Y166492D01*
X262694Y166608D01*
D02*
G37*
G36*
X227261D02*
X222143D01*
X221265Y166492D01*
X220447Y166153D01*
X219745Y165614D01*
X219206Y164912D01*
X218867Y164094D01*
X218752Y163216D01*
X218867Y162339D01*
X219206Y161521D01*
X219745Y160819D01*
X220447Y160280D01*
X221265Y159941D01*
X222143Y159825D01*
X227261D01*
X228139Y159941D01*
X228957Y160280D01*
X229659Y160819D01*
X230198Y161521D01*
X230537Y162339D01*
X230652Y163216D01*
X230537Y164094D01*
X230198Y164912D01*
X229659Y165614D01*
X228957Y166153D01*
X228139Y166492D01*
X227261Y166608D01*
D02*
G37*
G36*
X203639D02*
X198521D01*
X197643Y166492D01*
X196825Y166153D01*
X196123Y165614D01*
X195584Y164912D01*
X195245Y164094D01*
X195129Y163216D01*
X195245Y162339D01*
X195584Y161521D01*
X196123Y160819D01*
X196825Y160280D01*
X197643Y159941D01*
X198521Y159825D01*
X203639D01*
X204516Y159941D01*
X205334Y160280D01*
X206037Y160819D01*
X206575Y161521D01*
X206914Y162339D01*
X207030Y163216D01*
X206914Y164094D01*
X206575Y164912D01*
X206037Y165614D01*
X205334Y166153D01*
X204516Y166492D01*
X203639Y166608D01*
D02*
G37*
G36*
X168206D02*
X163087D01*
X162210Y166492D01*
X161392Y166153D01*
X160690Y165614D01*
X160151Y164912D01*
X159812Y164094D01*
X159696Y163216D01*
X159812Y162339D01*
X160151Y161521D01*
X160690Y160819D01*
X161392Y160280D01*
X162210Y159941D01*
X163087Y159825D01*
X168206D01*
X169083Y159941D01*
X169901Y160280D01*
X170604Y160819D01*
X171142Y161521D01*
X171481Y162339D01*
X171597Y163216D01*
X171481Y164094D01*
X171142Y164912D01*
X170604Y165614D01*
X169901Y166153D01*
X169083Y166492D01*
X168206Y166608D01*
D02*
G37*
G36*
X144584D02*
X139465D01*
X138588Y166492D01*
X137770Y166153D01*
X137068Y165614D01*
X136529Y164912D01*
X136190Y164094D01*
X136074Y163216D01*
X136190Y162339D01*
X136529Y161521D01*
X137068Y160819D01*
X137770Y160280D01*
X138588Y159941D01*
X139465Y159825D01*
X144584D01*
X145461Y159941D01*
X146279Y160280D01*
X146982Y160819D01*
X147520Y161521D01*
X147859Y162339D01*
X147975Y163216D01*
X147859Y164094D01*
X147520Y164912D01*
X146982Y165614D01*
X146279Y166153D01*
X145461Y166492D01*
X144584Y166608D01*
D02*
G37*
G36*
X644291Y166383D02*
X639173D01*
X638295Y166268D01*
X637477Y165929D01*
X636775Y165390D01*
X636236Y164688D01*
X635897Y163870D01*
X635782Y162992D01*
X635897Y162115D01*
X636236Y161297D01*
X636775Y160594D01*
X637477Y160055D01*
X638295Y159716D01*
X639173Y159601D01*
X644291D01*
X645169Y159716D01*
X645987Y160055D01*
X646689Y160594D01*
X647228Y161297D01*
X647567Y162115D01*
X647683Y162992D01*
X647567Y163870D01*
X647228Y164688D01*
X646689Y165390D01*
X645987Y165929D01*
X645169Y166268D01*
X644291Y166383D01*
D02*
G37*
G36*
X620669D02*
X615551D01*
X614673Y166268D01*
X613856Y165929D01*
X613153Y165390D01*
X612614Y164688D01*
X612276Y163870D01*
X612160Y162992D01*
X612276Y162115D01*
X612614Y161297D01*
X613153Y160594D01*
X613856Y160055D01*
X614673Y159716D01*
X615551Y159601D01*
X620669D01*
X621547Y159716D01*
X622365Y160055D01*
X623067Y160594D01*
X623606Y161297D01*
X623945Y162115D01*
X624060Y162992D01*
X623945Y163870D01*
X623606Y164688D01*
X623067Y165390D01*
X622365Y165929D01*
X621547Y166268D01*
X620669Y166383D01*
D02*
G37*
G36*
X559536Y141586D02*
X559536Y141586D01*
X518639D01*
X518639Y141586D01*
X517942Y141447D01*
X517350Y141052D01*
X511239Y134941D01*
X510844Y134350D01*
X510728Y133767D01*
X510728Y133767D01*
X509718Y133349D01*
X508851Y132684D01*
X508186Y131817D01*
X507768Y130808D01*
X507626Y129725D01*
Y126181D01*
X507768Y125098D01*
X508186Y124088D01*
X508851Y123222D01*
X509718Y122556D01*
X510728Y122138D01*
X511811Y121996D01*
X512894Y122138D01*
X513904Y122556D01*
X514771Y123222D01*
X515436Y124088D01*
X515854Y125098D01*
X515996Y126181D01*
Y129725D01*
X515854Y130808D01*
X515436Y131817D01*
X514771Y132684D01*
X514713Y132728D01*
X514680Y133227D01*
X519394Y137941D01*
X558781D01*
X562632Y134091D01*
X562348Y133667D01*
X562107Y133767D01*
X561024Y133910D01*
X559940Y133767D01*
X558931Y133349D01*
X558064Y132684D01*
X557399Y131817D01*
X556981Y130808D01*
X556838Y129725D01*
Y126181D01*
X556981Y125098D01*
X557399Y124088D01*
X558064Y123222D01*
X558931Y122556D01*
X559201Y122444D01*
Y93504D01*
X559201Y93504D01*
X559340Y92807D01*
X559735Y92215D01*
X623711Y28239D01*
X623711Y28239D01*
X624303Y27844D01*
X625000Y27705D01*
X628460D01*
X628901Y27130D01*
X629603Y26591D01*
X630421Y26252D01*
X631299Y26136D01*
X636417D01*
X637148Y26233D01*
X637404Y25782D01*
X635114Y23492D01*
X634694Y23076D01*
X631299D01*
X630421Y22961D01*
X629603Y22622D01*
X628901Y22083D01*
X628362Y21381D01*
X628023Y20563D01*
X627908Y19685D01*
X628023Y18807D01*
X628362Y17989D01*
X628530Y17771D01*
X628309Y17322D01*
X624755D01*
X553004Y89074D01*
Y122444D01*
X553274Y122556D01*
X554141Y123222D01*
X554806Y124088D01*
X555224Y125098D01*
X555367Y126181D01*
Y129725D01*
X555224Y130808D01*
X554806Y131817D01*
X554141Y132684D01*
X553274Y133349D01*
X552264Y133767D01*
X551181Y133910D01*
X550098Y133767D01*
X549088Y133349D01*
X548222Y132684D01*
X547556Y131817D01*
X547138Y130808D01*
X546996Y129725D01*
Y126181D01*
X547138Y125098D01*
X547556Y124088D01*
X548222Y123222D01*
X549088Y122556D01*
X549359Y122444D01*
Y88319D01*
X549359Y88319D01*
X549498Y87621D01*
X549893Y87030D01*
X621738Y15184D01*
X621547Y14722D01*
X613855D01*
X543161Y85416D01*
Y122444D01*
X543431Y122556D01*
X544298Y123222D01*
X544963Y124088D01*
X545381Y125098D01*
X545524Y126181D01*
Y129725D01*
X545381Y130808D01*
X544963Y131817D01*
X544298Y132684D01*
X543431Y133349D01*
X542422Y133767D01*
X541339Y133910D01*
X540255Y133767D01*
X539246Y133349D01*
X538379Y132684D01*
X537714Y131817D01*
X537296Y130808D01*
X537153Y129725D01*
Y126181D01*
X537296Y125098D01*
X537714Y124088D01*
X538379Y123222D01*
X539246Y122556D01*
X539516Y122444D01*
Y84662D01*
X539516Y84661D01*
X539655Y83964D01*
X540050Y83373D01*
X611296Y12127D01*
X611104Y11665D01*
X597312D01*
X533318Y75659D01*
Y122444D01*
X533589Y122556D01*
X534455Y123222D01*
X535121Y124088D01*
X535539Y125098D01*
X535681Y126181D01*
Y129725D01*
X535539Y130808D01*
X535121Y131817D01*
X534455Y132684D01*
X533589Y133349D01*
X532579Y133767D01*
X531496Y133910D01*
X530413Y133767D01*
X529403Y133349D01*
X528537Y132684D01*
X527871Y131817D01*
X527453Y130808D01*
X527311Y129725D01*
Y126181D01*
X527453Y125098D01*
X527871Y124088D01*
X528537Y123222D01*
X529403Y122556D01*
X529674Y122444D01*
Y74904D01*
X529674Y74904D01*
X529812Y74207D01*
X530207Y73615D01*
X595269Y8554D01*
X595269Y8554D01*
X595860Y8159D01*
X596558Y8020D01*
X596558Y8020D01*
X656558D01*
X656558Y8020D01*
X657255Y8159D01*
X657847Y8554D01*
X658769Y9476D01*
X658769Y9476D01*
X659164Y10068D01*
X659303Y10765D01*
Y16294D01*
X660040D01*
X660917Y16409D01*
X661735Y16748D01*
X662437Y17287D01*
X662976Y17989D01*
X663315Y18807D01*
X663431Y19685D01*
X663315Y20563D01*
X662976Y21381D01*
X662437Y22083D01*
X662221Y22249D01*
X662184Y22907D01*
X665489Y26211D01*
X665489Y26211D01*
X665884Y26803D01*
X666022Y27500D01*
X666022Y27500D01*
Y39370D01*
X665884Y40067D01*
X665489Y40659D01*
X664897Y41054D01*
X664200Y41192D01*
X662879D01*
X662437Y41768D01*
X661735Y42307D01*
X660917Y42646D01*
X660040Y42761D01*
X654921D01*
X654044Y42646D01*
X653226Y42307D01*
X652523Y41768D01*
X651985Y41066D01*
X651646Y40248D01*
X651530Y39370D01*
X651646Y38492D01*
X651985Y37674D01*
X652523Y36972D01*
X653226Y36433D01*
X654044Y36094D01*
X654921Y35979D01*
X660040D01*
X660917Y36094D01*
X661735Y36433D01*
X661929Y36582D01*
X662378Y36361D01*
Y32537D01*
X661929Y32316D01*
X661735Y32465D01*
X660917Y32803D01*
X660040Y32919D01*
X654921D01*
X654044Y32803D01*
X653226Y32465D01*
X652523Y31925D01*
X652082Y31350D01*
X649500D01*
X648803Y31211D01*
X648211Y30816D01*
X648211Y30816D01*
X643557Y26162D01*
X643168Y26480D01*
X643384Y26803D01*
X643522Y27500D01*
Y57600D01*
X643384Y58297D01*
X642989Y58889D01*
X642989Y58889D01*
X560825Y141052D01*
X560234Y141447D01*
X559536Y141586D01*
D02*
G37*
G36*
X269898Y137811D02*
X261598D01*
Y125969D01*
X269898D01*
Y137811D01*
D02*
G37*
G36*
X227261Y186293D02*
X222143D01*
X221265Y186177D01*
X220447Y185838D01*
X219745Y185300D01*
X219206Y184597D01*
X218867Y183779D01*
X218752Y182902D01*
X218867Y182024D01*
X219206Y181206D01*
X219745Y180504D01*
X220447Y179965D01*
X221265Y179626D01*
X222143Y179510D01*
X227155D01*
X227254Y179363D01*
X234398Y172219D01*
Y151597D01*
X225089Y142289D01*
X224694Y141697D01*
X224556Y141000D01*
X224556Y141000D01*
Y137398D01*
X224285Y137286D01*
X223418Y136621D01*
X222753Y135754D01*
X222335Y134745D01*
X222193Y133661D01*
Y130118D01*
X222335Y129035D01*
X222753Y128025D01*
X223418Y127159D01*
X224285Y126494D01*
X225295Y126075D01*
X226378Y125933D01*
X227461Y126075D01*
X228471Y126494D01*
X229338Y127159D01*
X230003Y128025D01*
X230421Y129035D01*
X230563Y130118D01*
Y133661D01*
X230421Y134745D01*
X230003Y135754D01*
X229338Y136621D01*
X228471Y137286D01*
X228200Y137398D01*
Y140245D01*
X237509Y149554D01*
X237509Y149554D01*
X237904Y150145D01*
X238043Y150842D01*
Y172973D01*
X238043Y172973D01*
X237904Y173671D01*
X237509Y174262D01*
X237509Y174262D01*
X230305Y181466D01*
X230537Y182024D01*
X230652Y182902D01*
X230537Y183779D01*
X230198Y184597D01*
X229659Y185300D01*
X228957Y185838D01*
X228139Y186177D01*
X227261Y186293D01*
D02*
G37*
G36*
X405827Y132926D02*
X404743Y132783D01*
X403734Y132365D01*
X402867Y131700D01*
X402202Y130833D01*
X401784Y129824D01*
X401641Y128740D01*
Y127165D01*
X401784Y126082D01*
X402202Y125073D01*
X402867Y124206D01*
X403734Y123541D01*
X404743Y123123D01*
X405827Y122980D01*
X406910Y123123D01*
X407920Y123541D01*
X408786Y124206D01*
X409451Y125073D01*
X409870Y126082D01*
X410012Y127165D01*
Y128740D01*
X409870Y129824D01*
X409451Y130833D01*
X408786Y131700D01*
X407920Y132365D01*
X406910Y132783D01*
X405827Y132926D01*
D02*
G37*
G36*
X395827D02*
X394743Y132783D01*
X393734Y132365D01*
X392867Y131700D01*
X392202Y130833D01*
X391784Y129824D01*
X391641Y128740D01*
Y127165D01*
X391784Y126082D01*
X392202Y125073D01*
X392867Y124206D01*
X393734Y123541D01*
X394743Y123123D01*
X395827Y122980D01*
X396910Y123123D01*
X397920Y123541D01*
X398786Y124206D01*
X399451Y125073D01*
X399870Y126082D01*
X400012Y127165D01*
Y128740D01*
X399870Y129824D01*
X399451Y130833D01*
X398786Y131700D01*
X397920Y132365D01*
X396910Y132783D01*
X395827Y132926D01*
D02*
G37*
G36*
X385827D02*
X384743Y132783D01*
X383734Y132365D01*
X382867Y131700D01*
X382202Y130833D01*
X381784Y129824D01*
X381641Y128740D01*
Y127165D01*
X381784Y126082D01*
X382202Y125073D01*
X382867Y124206D01*
X383734Y123541D01*
X384743Y123123D01*
X385827Y122980D01*
X386910Y123123D01*
X387919Y123541D01*
X388786Y124206D01*
X389452Y125073D01*
X389870Y126082D01*
X390012Y127165D01*
Y128740D01*
X389870Y129824D01*
X389452Y130833D01*
X388786Y131700D01*
X387919Y132365D01*
X386910Y132783D01*
X385827Y132926D01*
D02*
G37*
G36*
X375827D02*
X374744Y132783D01*
X373734Y132365D01*
X372867Y131700D01*
X372202Y130833D01*
X371784Y129824D01*
X371641Y128740D01*
Y127165D01*
X371784Y126082D01*
X372202Y125073D01*
X372867Y124206D01*
X373734Y123541D01*
X374744Y123123D01*
X375827Y122980D01*
X376910Y123123D01*
X377920Y123541D01*
X378786Y124206D01*
X379451Y125073D01*
X379870Y126082D01*
X380012Y127165D01*
Y128740D01*
X379870Y129824D01*
X379451Y130833D01*
X378786Y131700D01*
X377920Y132365D01*
X376910Y132783D01*
X375827Y132926D01*
D02*
G37*
G36*
X365827D02*
X364743Y132783D01*
X363734Y132365D01*
X362867Y131700D01*
X362202Y130833D01*
X361784Y129824D01*
X361641Y128740D01*
Y127165D01*
X361784Y126082D01*
X362202Y125073D01*
X362867Y124206D01*
X363734Y123541D01*
X364743Y123123D01*
X365827Y122980D01*
X366910Y123123D01*
X367919Y123541D01*
X368786Y124206D01*
X369451Y125073D01*
X369870Y126082D01*
X370012Y127165D01*
Y128740D01*
X369870Y129824D01*
X369451Y130833D01*
X368786Y131700D01*
X367919Y132365D01*
X366910Y132783D01*
X365827Y132926D01*
D02*
G37*
G36*
X506118Y133874D02*
X497819D01*
Y122031D01*
X506118D01*
Y133874D01*
D02*
G37*
G36*
X521654Y133910D02*
X520570Y133767D01*
X519561Y133349D01*
X518694Y132684D01*
X518029Y131817D01*
X517611Y130808D01*
X517468Y129725D01*
Y126181D01*
X517611Y125098D01*
X518029Y124088D01*
X518694Y123222D01*
X519561Y122556D01*
X520570Y122138D01*
X521654Y121996D01*
X522737Y122138D01*
X523746Y122556D01*
X524613Y123222D01*
X525278Y124088D01*
X525696Y125098D01*
X525839Y126181D01*
Y129725D01*
X525696Y130808D01*
X525278Y131817D01*
X524613Y132684D01*
X523746Y133349D01*
X522737Y133767D01*
X521654Y133910D01*
D02*
G37*
G36*
X452756Y125445D02*
X451325Y125304D01*
X449949Y124886D01*
X448681Y124209D01*
X447570Y123296D01*
X446658Y122185D01*
X445980Y120917D01*
X445562Y119541D01*
X445422Y118110D01*
X445562Y116679D01*
X445980Y115303D01*
X446658Y114035D01*
X447570Y112924D01*
X448681Y112012D01*
X449949Y111334D01*
X451325Y110917D01*
X452756Y110776D01*
X454187Y110917D01*
X455563Y111334D01*
X456831Y112012D01*
X457942Y112924D01*
X458854Y114035D01*
X459532Y115303D01*
X459950Y116679D01*
X460090Y118110D01*
X459950Y119541D01*
X459532Y120917D01*
X458854Y122185D01*
X457942Y123296D01*
X456831Y124209D01*
X455563Y124886D01*
X454187Y125304D01*
X452756Y125445D01*
D02*
G37*
G36*
X118110D02*
X116679Y125304D01*
X115303Y124886D01*
X114035Y124209D01*
X112924Y123296D01*
X112012Y122185D01*
X111334Y120917D01*
X110917Y119541D01*
X110776Y118110D01*
X110917Y116679D01*
X111334Y115303D01*
X112012Y114035D01*
X112924Y112924D01*
X114035Y112012D01*
X115303Y111334D01*
X116679Y110917D01*
X118110Y110776D01*
X119541Y110917D01*
X120917Y111334D01*
X122185Y112012D01*
X123296Y112924D01*
X124209Y114035D01*
X124886Y115303D01*
X125304Y116679D01*
X125445Y118110D01*
X125304Y119541D01*
X124886Y120917D01*
X124209Y122185D01*
X123296Y123296D01*
X122185Y124209D01*
X120917Y124886D01*
X119541Y125304D01*
X118110Y125445D01*
D02*
G37*
G36*
X639780Y99819D02*
X627937D01*
Y93095D01*
X639780D01*
Y99819D01*
D02*
G37*
G36*
X660040Y99848D02*
X654921D01*
X654044Y99733D01*
X653226Y99394D01*
X652523Y98855D01*
X651985Y98152D01*
X651646Y97334D01*
X651530Y96457D01*
X651646Y95579D01*
X651985Y94761D01*
X652523Y94059D01*
X653226Y93520D01*
X654044Y93181D01*
X654921Y93066D01*
X660040D01*
X660917Y93181D01*
X661735Y93520D01*
X662437Y94059D01*
X662976Y94761D01*
X663315Y95579D01*
X663431Y96457D01*
X663315Y97334D01*
X662976Y98152D01*
X662437Y98855D01*
X661735Y99394D01*
X660917Y99733D01*
X660040Y99848D01*
D02*
G37*
G36*
X679134Y232335D02*
X678051Y232192D01*
X677041Y231774D01*
X676174Y231109D01*
X675509Y230242D01*
X675091Y229233D01*
X674948Y228150D01*
Y224606D01*
X675091Y223523D01*
X675509Y222513D01*
X676174Y221647D01*
X677041Y220982D01*
X677311Y220869D01*
Y220100D01*
X677450Y219403D01*
X677845Y218811D01*
X678436Y218416D01*
X679134Y218278D01*
X726345D01*
X748178Y196445D01*
Y127446D01*
X747602Y127004D01*
X747063Y126302D01*
X746724Y125484D01*
X746609Y124606D01*
Y119488D01*
X746724Y118610D01*
X747063Y117792D01*
X747602Y117090D01*
X748178Y116649D01*
Y104347D01*
X746638D01*
Y92504D01*
X753362D01*
Y104347D01*
X751822D01*
Y116649D01*
X752398Y117090D01*
X752937Y117792D01*
X753276Y118610D01*
X753391Y119488D01*
Y124606D01*
X753276Y125484D01*
X752937Y126302D01*
X752398Y127004D01*
X751822Y127446D01*
Y197200D01*
X751822Y197200D01*
X751684Y197897D01*
X751289Y198489D01*
X728389Y221389D01*
X727797Y221784D01*
X727100Y221922D01*
X727100Y221922D01*
X682870D01*
X682649Y222371D01*
X682759Y222513D01*
X683177Y223523D01*
X683319Y224606D01*
Y228150D01*
X683177Y229233D01*
X682759Y230242D01*
X682093Y231109D01*
X681226Y231774D01*
X680217Y232192D01*
X679134Y232335D01*
D02*
G37*
G36*
X769685Y127998D02*
X768807Y127882D01*
X767989Y127543D01*
X767287Y127004D01*
X766748Y126302D01*
X766409Y125484D01*
X766294Y124606D01*
Y119488D01*
X766409Y118610D01*
X766748Y117792D01*
X767287Y117090D01*
X767863Y116649D01*
Y103824D01*
X767287Y103382D01*
X766748Y102680D01*
X766409Y101862D01*
X766294Y100984D01*
Y95866D01*
X766409Y94988D01*
X766748Y94170D01*
X767287Y93468D01*
X767989Y92929D01*
X768807Y92590D01*
X769685Y92475D01*
X770563Y92590D01*
X771381Y92929D01*
X772083Y93468D01*
X772622Y94170D01*
X772961Y94988D01*
X773076Y95866D01*
Y100984D01*
X772961Y101862D01*
X772622Y102680D01*
X772083Y103382D01*
X771507Y103824D01*
Y116649D01*
X772083Y117090D01*
X772622Y117792D01*
X772961Y118610D01*
X773076Y119488D01*
Y124606D01*
X772961Y125484D01*
X772622Y126302D01*
X772083Y127004D01*
X771381Y127543D01*
X770563Y127882D01*
X769685Y127998D01*
D02*
G37*
G36*
X762402Y186462D02*
X757283D01*
X756406Y186346D01*
X755588Y186008D01*
X754886Y185469D01*
X754347Y184766D01*
X754008Y183949D01*
X753892Y183071D01*
X754008Y182193D01*
X754347Y181375D01*
X754886Y180673D01*
X755588Y180134D01*
X756406Y179795D01*
X757283Y179680D01*
X762402D01*
X763279Y179795D01*
X764097Y180134D01*
X764800Y180673D01*
X765241Y181248D01*
X766962D01*
X771800Y176410D01*
Y151792D01*
X758554Y138546D01*
X758159Y137955D01*
X758020Y137257D01*
X758020Y137257D01*
Y127446D01*
X757445Y127004D01*
X756906Y126302D01*
X756567Y125484D01*
X756451Y124606D01*
Y119488D01*
X756567Y118610D01*
X756906Y117792D01*
X757445Y117090D01*
X758020Y116649D01*
Y103824D01*
X757445Y103382D01*
X756906Y102680D01*
X756567Y101862D01*
X756451Y100984D01*
Y95866D01*
X756567Y94988D01*
X756906Y94170D01*
X757445Y93468D01*
X758147Y92929D01*
X758965Y92590D01*
X759843Y92475D01*
X760720Y92590D01*
X761538Y92929D01*
X762241Y93468D01*
X762780Y94170D01*
X763118Y94988D01*
X763234Y95866D01*
Y100984D01*
X763118Y101862D01*
X762780Y102680D01*
X762241Y103382D01*
X761665Y103824D01*
Y116649D01*
X762241Y117090D01*
X762780Y117792D01*
X763118Y118610D01*
X763234Y119488D01*
Y124606D01*
X763118Y125484D01*
X762780Y126302D01*
X762241Y127004D01*
X761665Y127446D01*
Y136503D01*
X774911Y149748D01*
X774911Y149748D01*
X775306Y150339D01*
X775445Y151037D01*
X775445Y151037D01*
Y177165D01*
X775445Y177165D01*
X775306Y177863D01*
X774911Y178454D01*
X774911Y178454D01*
X769005Y184359D01*
X768414Y184755D01*
X767717Y184893D01*
X767717Y184893D01*
X765241D01*
X764800Y185469D01*
X764097Y186008D01*
X763279Y186346D01*
X762402Y186462D01*
D02*
G37*
G36*
X660040Y90005D02*
X654921D01*
X654044Y89890D01*
X653226Y89551D01*
X652523Y89012D01*
X651985Y88310D01*
X651646Y87492D01*
X651530Y86614D01*
X651646Y85737D01*
X651985Y84919D01*
X652523Y84216D01*
X653226Y83677D01*
X654044Y83338D01*
X654921Y83223D01*
X660040D01*
X660917Y83338D01*
X661735Y83677D01*
X662437Y84216D01*
X662976Y84919D01*
X663315Y85737D01*
X663431Y86614D01*
X663315Y87492D01*
X662976Y88310D01*
X662437Y89012D01*
X661735Y89551D01*
X660917Y89890D01*
X660040Y90005D01*
D02*
G37*
G36*
X636417D02*
X631299D01*
X630421Y89890D01*
X629603Y89551D01*
X628901Y89012D01*
X628362Y88310D01*
X628023Y87492D01*
X627908Y86614D01*
X628023Y85737D01*
X628362Y84919D01*
X628901Y84216D01*
X629603Y83677D01*
X630421Y83338D01*
X631299Y83223D01*
X636417D01*
X637295Y83338D01*
X638113Y83677D01*
X638815Y84216D01*
X639354Y84919D01*
X639693Y85737D01*
X639809Y86614D01*
X639693Y87492D01*
X639354Y88310D01*
X638815Y89012D01*
X638113Y89551D01*
X637295Y89890D01*
X636417Y90005D01*
D02*
G37*
G36*
X660040Y80163D02*
X654921D01*
X654044Y80047D01*
X653226Y79708D01*
X652523Y79170D01*
X651985Y78467D01*
X651646Y77649D01*
X651530Y76772D01*
X651646Y75894D01*
X651985Y75076D01*
X652523Y74374D01*
X653226Y73835D01*
X654044Y73496D01*
X654921Y73380D01*
X660040D01*
X660917Y73496D01*
X661735Y73835D01*
X662437Y74374D01*
X662976Y75076D01*
X663315Y75894D01*
X663431Y76772D01*
X663315Y77649D01*
X662976Y78467D01*
X662437Y79170D01*
X661735Y79708D01*
X660917Y80047D01*
X660040Y80163D01*
D02*
G37*
G36*
X636417D02*
X631299D01*
X630421Y80047D01*
X629603Y79708D01*
X628901Y79170D01*
X628362Y78467D01*
X628023Y77649D01*
X627908Y76772D01*
X628023Y75894D01*
X628362Y75076D01*
X628901Y74374D01*
X629603Y73835D01*
X630421Y73496D01*
X631299Y73380D01*
X636417D01*
X637295Y73496D01*
X638113Y73835D01*
X638815Y74374D01*
X639354Y75076D01*
X639693Y75894D01*
X639809Y76772D01*
X639693Y77649D01*
X639354Y78467D01*
X638815Y79170D01*
X638113Y79708D01*
X637295Y80047D01*
X636417Y80163D01*
D02*
G37*
G36*
X822835Y27020D02*
X821404Y26879D01*
X820028Y26461D01*
X818760Y25783D01*
X817648Y24871D01*
X816736Y23760D01*
X816058Y22492D01*
X815641Y21116D01*
X815500Y19685D01*
X815641Y18254D01*
X816058Y16878D01*
X816736Y15610D01*
X817648Y14499D01*
X818760Y13587D01*
X820028Y12909D01*
X821404Y12491D01*
X822835Y12350D01*
X824265Y12491D01*
X825641Y12909D01*
X826909Y13587D01*
X828021Y14499D01*
X828933Y15610D01*
X829611Y16878D01*
X830028Y18254D01*
X830169Y19685D01*
X830028Y21116D01*
X829611Y22492D01*
X828933Y23760D01*
X828021Y24871D01*
X826909Y25783D01*
X825641Y26461D01*
X824265Y26879D01*
X822835Y27020D01*
D02*
G37*
G36*
X551181D02*
X549750Y26879D01*
X548374Y26461D01*
X547106Y25783D01*
X545995Y24871D01*
X545083Y23760D01*
X544405Y22492D01*
X543988Y21116D01*
X543847Y19685D01*
X543988Y18254D01*
X544405Y16878D01*
X545083Y15610D01*
X545995Y14499D01*
X547106Y13587D01*
X548374Y12909D01*
X549750Y12491D01*
X551181Y12350D01*
X552612Y12491D01*
X553988Y12909D01*
X555256Y13587D01*
X556367Y14499D01*
X557280Y15610D01*
X557957Y16878D01*
X558375Y18254D01*
X558516Y19685D01*
X558375Y21116D01*
X557957Y22492D01*
X557280Y23760D01*
X556367Y24871D01*
X555256Y25783D01*
X553988Y26461D01*
X552612Y26879D01*
X551181Y27020D01*
D02*
G37*
%LPD*%
G36*
X639878Y56845D02*
Y43192D01*
X639779Y42732D01*
X639378Y42732D01*
X627937D01*
Y36008D01*
X639378D01*
X639779Y36008D01*
X639878Y35548D01*
Y31266D01*
X639378Y31167D01*
X639354Y31223D01*
X638815Y31925D01*
X638113Y32465D01*
X637295Y32803D01*
X636417Y32919D01*
X631299D01*
X630421Y32803D01*
X629603Y32465D01*
X628901Y31925D01*
X628460Y31350D01*
X625755D01*
X562846Y94259D01*
Y122444D01*
X563116Y122556D01*
X563983Y123222D01*
X564648Y124088D01*
X565066Y125098D01*
X565209Y126181D01*
Y129725D01*
X565066Y130808D01*
X564966Y131049D01*
X565390Y131333D01*
X639878Y56845D01*
D02*
G37*
G36*
X652175Y21629D02*
X651985Y21381D01*
X651646Y20563D01*
X651530Y19685D01*
X651646Y18807D01*
X651985Y17989D01*
X652523Y17287D01*
X653226Y16748D01*
X654044Y16409D01*
X654921Y16294D01*
X655658D01*
Y11665D01*
X648711D01*
X648520Y12127D01*
X648926Y12534D01*
X648926Y12534D01*
X649322Y13125D01*
X649460Y13823D01*
Y22078D01*
X651954D01*
X652175Y21629D01*
D02*
G37*
D22*
X669525Y178900D02*
X728028D01*
X649606Y198819D02*
Y226378D01*
Y198819D02*
X669525Y178900D01*
X639764Y200787D02*
X653543Y187008D01*
Y179134D02*
X659449Y173228D01*
X653543Y179134D02*
Y187008D01*
X639764Y200787D02*
Y226378D01*
X659449Y173228D02*
X677165D01*
X647638Y13823D02*
Y22977D01*
X648560Y23900D02*
X660600D01*
X647638Y22977D02*
X648560Y23900D01*
X613100Y12900D02*
X646715D01*
X647638Y13823D01*
X657480Y10765D02*
Y19685D01*
X656558Y9843D02*
X657480Y10765D01*
X596558Y9843D02*
X656558D01*
X759843Y183071D02*
X767717D01*
X773622Y177165D01*
Y151037D02*
Y177165D01*
X759843Y137257D02*
X773622Y151037D01*
X641732Y21760D02*
X649500Y29528D01*
X624000Y15500D02*
X640810D01*
X641732Y16422D02*
Y21760D01*
X640810Y15500D02*
X641732Y16422D01*
X531496Y74904D02*
X596558Y9843D01*
X512528Y133653D02*
X518639Y139764D01*
X559536D02*
X641700Y57600D01*
X518639Y139764D02*
X559536D01*
X512528Y128670D02*
Y133653D01*
X511811Y127953D02*
X512528Y128670D01*
X188976Y122047D02*
X206693D01*
X216535Y131397D02*
Y131890D01*
X206693Y122047D02*
X213327Y128681D01*
X213820D02*
X216535Y131397D01*
X213327Y128681D02*
X213820D01*
X183300Y127724D02*
X188976Y122047D01*
X183300Y127724D02*
Y179902D01*
X288054Y122700D02*
X305118Y139764D01*
Y179818D01*
X250000Y122700D02*
X288054D01*
X312400Y187100D02*
X337254D01*
X341105Y182902D02*
X342812D01*
X339087Y184920D02*
X341105Y182902D01*
X339087Y184920D02*
Y185267D01*
X337254Y187100D02*
X339087Y185267D01*
X305118Y179818D02*
X312400Y187100D01*
X299213Y173228D02*
Y187008D01*
X294884Y168900D02*
X299213Y173228D01*
X278200Y168900D02*
X294884D01*
X299213Y187008D02*
X303505Y191300D01*
X353400D01*
X224702Y182902D02*
X226409D01*
X228542Y180651D02*
Y180768D01*
X236221Y150842D02*
Y172973D01*
X226409Y182902D02*
X228542Y180768D01*
Y180651D02*
X236221Y172973D01*
X226378Y141000D02*
X236221Y150842D01*
X242126Y137795D02*
Y167323D01*
X252703Y177900D01*
X266898D01*
X236221Y131890D02*
Y132383D01*
X238936Y135098D01*
X239429D01*
X242126Y137795D01*
X260135Y182902D02*
Y224117D01*
X259843Y224410D02*
X260135Y224117D01*
X399300Y178000D02*
Y182902D01*
X679134Y220100D02*
Y226378D01*
Y220100D02*
X727100D01*
X750000Y197200D01*
Y122047D02*
Y197200D01*
X625000Y29528D02*
X633858D01*
X561024Y93504D02*
X625000Y29528D01*
X561024Y93504D02*
Y127953D01*
X669291Y190945D02*
Y226378D01*
Y190945D02*
X677165Y183071D01*
X246063Y126637D02*
Y131890D01*
Y126637D02*
X250000Y122700D01*
X393300Y168200D02*
X413400D01*
X425200Y180000D01*
X450700D01*
X455570Y184870D01*
X460922D01*
X641700Y27500D02*
Y57600D01*
X636400Y22200D02*
X641700Y27500D01*
X633858Y19685D02*
X636400Y22200D01*
X657480Y39370D02*
X664200D01*
Y27500D02*
Y39370D01*
X660600Y23900D02*
X664200Y27500D01*
X541339Y84661D02*
X613100Y12900D01*
X541339Y84661D02*
Y127953D01*
X399300Y182902D02*
X401867D01*
X366700Y178000D02*
X399300D01*
X353400Y191300D02*
X366700Y178000D01*
X255906Y146606D02*
X278200Y168900D01*
X255906Y131890D02*
Y146606D01*
X180300Y182902D02*
X183300Y179902D01*
X165647Y182902D02*
X180300D01*
X728028Y178900D02*
X733700Y173228D01*
X736220D01*
X551181Y88319D02*
Y127953D01*
Y88319D02*
X624000Y15500D01*
X649500Y29528D02*
X657480D01*
X531496Y74904D02*
Y127953D01*
X266898Y177900D02*
X271900Y182902D01*
X283757D01*
X226378Y131890D02*
Y141000D01*
X620079Y196307D02*
Y226378D01*
X597000Y173228D02*
X620079Y196307D01*
X582677Y173228D02*
X597000D01*
X230315Y215915D02*
Y224410D01*
X212900Y198500D02*
X230315Y215915D01*
X212900Y175959D02*
Y198500D01*
X210000Y173059D02*
X212900Y175959D01*
X201080Y173059D02*
X210000D01*
X355827Y127953D02*
Y157386D01*
X371500Y173059D01*
X378245D01*
X206693Y131890D02*
Y138893D01*
X215200Y147400D01*
Y170000D01*
X218259Y173059D01*
X224702D01*
X629921Y177913D02*
Y226378D01*
Y177913D02*
X635000Y172835D01*
X641732D01*
X759843Y122047D02*
Y137257D01*
X769685Y98425D02*
Y122047D01*
X750000Y98425D02*
Y122047D01*
X759843Y98425D02*
Y122047D01*
D23*
X657480Y76772D02*
D03*
Y86614D02*
D03*
Y96457D02*
D03*
X633858Y76772D02*
D03*
Y86614D02*
D03*
X657480Y19685D02*
D03*
Y29528D02*
D03*
Y39370D02*
D03*
X633858Y19685D02*
D03*
Y29528D02*
D03*
X818898Y163386D02*
D03*
Y173228D02*
D03*
Y183071D02*
D03*
X795276Y163386D02*
D03*
Y173228D02*
D03*
X759843Y163386D02*
D03*
Y173228D02*
D03*
Y183071D02*
D03*
X736220Y163386D02*
D03*
Y173228D02*
D03*
X700787Y163386D02*
D03*
Y173228D02*
D03*
Y183071D02*
D03*
X677165Y163386D02*
D03*
Y173228D02*
D03*
X641732Y162992D02*
D03*
Y172835D02*
D03*
Y182677D02*
D03*
X618110Y162992D02*
D03*
Y172835D02*
D03*
X582677Y163386D02*
D03*
Y173228D02*
D03*
Y183071D02*
D03*
X559055Y163386D02*
D03*
Y173228D02*
D03*
X165647Y163216D02*
D03*
Y173059D02*
D03*
Y182902D02*
D03*
X142025Y163216D02*
D03*
Y173059D02*
D03*
X224702Y163216D02*
D03*
Y173059D02*
D03*
Y182902D02*
D03*
X201080Y163216D02*
D03*
Y173059D02*
D03*
X283757Y163216D02*
D03*
Y173059D02*
D03*
Y182902D02*
D03*
X260135Y163216D02*
D03*
Y173059D02*
D03*
X342812Y163216D02*
D03*
Y173059D02*
D03*
Y182902D02*
D03*
X319190Y163216D02*
D03*
Y173059D02*
D03*
X401867Y163216D02*
D03*
Y173059D02*
D03*
Y182902D02*
D03*
X378245Y163216D02*
D03*
Y173059D02*
D03*
X460922Y165185D02*
D03*
Y175027D02*
D03*
Y184870D02*
D03*
X437300Y165185D02*
D03*
Y175027D02*
D03*
D24*
X633858Y96457D02*
D03*
Y39370D02*
D03*
X795276Y183071D02*
D03*
X736220D02*
D03*
X677165D02*
D03*
X618110Y182677D02*
D03*
X559055Y183071D02*
D03*
X142025Y182902D02*
D03*
X201080D02*
D03*
X260135D02*
D03*
X319190D02*
D03*
X378245D02*
D03*
X437300Y184870D02*
D03*
D25*
X769685Y122047D02*
D03*
X759843D02*
D03*
X750000D02*
D03*
X769685Y98425D02*
D03*
X759843D02*
D03*
D26*
X750000D02*
D03*
D27*
X501969Y127953D02*
D03*
X620079Y226378D02*
D03*
X265748Y131890D02*
D03*
X289370Y224410D02*
D03*
D28*
X511811Y127953D02*
D03*
X521654D02*
D03*
X531496D02*
D03*
X541339D02*
D03*
X551181D02*
D03*
X561024D02*
D03*
X629921Y226378D02*
D03*
X639764D02*
D03*
X649606D02*
D03*
X659449D02*
D03*
X669291D02*
D03*
X679134D02*
D03*
X255906Y131890D02*
D03*
X246063D02*
D03*
X236221D02*
D03*
X226378D02*
D03*
X216535D02*
D03*
X206693D02*
D03*
X279528Y224410D02*
D03*
X269685D02*
D03*
X259843D02*
D03*
X250000D02*
D03*
X240158D02*
D03*
X230315D02*
D03*
D29*
X405827Y127953D02*
D03*
X395827D02*
D03*
X385827D02*
D03*
X375827D02*
D03*
X365827D02*
D03*
D30*
X355827D02*
D03*
D31*
X118110Y118110D02*
D03*
X452756D02*
D03*
Y224409D02*
D03*
X118110Y236220D02*
D03*
X807087D02*
D03*
X822835Y19685D02*
D03*
X551181D02*
D03*
D32*
X393300Y168200D02*
D03*
M02*
