M48
;Layer_Color=9474304
;FILE_FORMAT=2:5
INCH,TZ
;TYPE=PLATED
T1F00S00C0.02362
T2F00S00C0.02800
T3F00S00C0.03543
T4F00S00C0.04724
T5F00S00C0.12598
%
T01
X633858Y19685
Y29528
Y39370
X657480
Y29528
Y19685
Y76772
Y86614
Y96457
X633858
Y86614
Y76772
X750000Y98425
X759843
X769685
Y122047
X759843
X750000
X795276Y163386
Y173228
Y183071
X818898
Y173228
Y163386
X759843
Y173228
Y183071
X736220
Y173228
Y163386
X700787
Y173228
Y183071
X677165
Y173228
Y163386
X641732Y162992
Y172835
Y182677
X618110
Y172835
Y162992
X582677Y163386
Y173228
Y183071
X559055
Y173228
Y163386
X460922Y165185
Y175027
Y184870
X437300
Y175027
Y165185
X401867Y163216
Y173059
Y182902
X378245
Y173059
Y163216
X342812
Y173059
Y182902
X319190
Y173059
Y163216
X283757
Y173059
Y182902
X260135
Y173059
Y163216
X224702
Y173059
Y182902
X201080
Y173059
Y163216
X165647
Y173059
Y182902
X142025
Y173059
Y163216
T02
X393300Y168200
T03
X355827Y127953
X365827
X375827
X385827
X395827
X405827
T04
X206693Y131890
X216535
X226378
X236221
X246063
X255906
X265748
X501969Y127953
X511811
X521654
X531496
X541339
X551181
X561024
X629921Y226378
X639764
X649606
X659449
X669291
X679134
X620079
X289370Y224410
X279528
X269685
X259843
X250000
X240158
X230315
T05
X118110Y118110
X452756
X551181Y19685
X822835
X807087Y236220
X452756Y224409
X118110Y236220
M30
