M48
;Layer_Color=9474304
;FILE_FORMAT=2:5
INCH,TZ
;TYPE=PLATED
T1F00S00C0.02362
T2F00S00C0.02756
T3F00S00C0.02800
T4F00S00C0.03000
T5F00S00C0.03150
T6F00S00C0.03543
T7F00S00C0.03937
T8F00S00C0.04724
T9F00S00C0.06299
T10F00S00C0.07874
T11F00S00C0.12598
%
T01
X782087Y570866
Y590551
Y610236
X832087
Y590551
Y570866
X733661
Y551181
Y590551
Y610236
X683661
Y590551
Y570866
Y551181
X683662Y629921
X683661Y649606
X733661
X733662Y629921
X782087
Y649606
X782087Y669291
X782087Y688976
X832087
X832087Y669291
X832087Y649606
Y629921
T02
X677164Y372522
Y386301
X677559Y420472
Y434252
X720472Y434252
Y420472
X720471Y386301
Y372522
X763778
Y386301
X763780Y420472
Y434252
T03
X740200Y312400
X595865Y160236
X717200Y315600
X762700Y340400
X735700Y391900
X806400Y372522
X867717Y503937
X877953Y538976
X873800Y618000
X670866Y505512
X566000Y633800
X699213Y639764
X896850Y666535
T04
X632000Y456000
Y484000
X922933Y710728
X922835Y720669
T05
X633465Y816535
X643307
X691339Y818898
X701181
X711024
X623622Y816535
T06
X946693Y527559
X956693
X966693
X936693
X926693
X916693
T07
X913385Y132480
X944881
X944881Y238779
X913385
X898326Y266240
Y159941
X913385Y349016
X898326Y376476
X913385Y455315
X944881
Y349016
X898326Y482775
X584646Y766929
Y776772
Y786614
T08
X598425Y94488
X608268
X618110
X611516Y127264
X591732Y126772
X601575Y147244
X661024
X670965Y127264
X651181Y126772
X647638Y94488
X657480
X637795
X627953
X703150Y126772
X722933Y127264
X712992Y147244
X766929
X776870Y127264
X757087Y126772
X810236Y126378
X830020Y126870
X820079Y146850
X857480Y304724
X768504Y303937
X769684Y254331
Y224803
X690944Y225787
Y255315
X691731Y304134
X614567Y305709
X615354Y254724
Y225197
X614567Y335236
Y375197
Y404724
Y455315
X691731Y333661
X768504Y333464
X857480Y334252
Y344094
Y353937
Y363780
Y324409
Y314567
X813386Y398425
Y408268
Y418110
Y427953
Y437795
Y447638
Y457480
X614567Y484843
X613386Y531890
Y561417
X613386Y608268
Y637795
X614961Y687795
X624803
X634646
X644488
X654331
X664173
X674016
T09
X787717Y503504
X797717
X807717
X817717
X827717
X837717
X847717
Y533504
X837717
X827717
X817717
X807717
X797717
X787717
X731181Y518150
X721181
X711181
X701181
X691181
X681181
X671181
Y488150
X681181
X691181
X701181
X711181
X721181
X731181
X696929Y742874
X686929
X676929
X666929
X656929
X646929
X636929
Y772874
X646929
X656929
X666929
X676929
X686929
X696929
T10
X942913Y690551
Y730315
T11
X570866Y98425
X862205
X961811Y819685
X584252Y816929
M30
