G04*
G04 #@! TF.GenerationSoftware,Altium Limited,Altium Designer,20.2.6 (244)*
G04*
G04 Layer_Color=16711935*
%FSLAX25Y25*%
%MOIN*%
G70*
G04*
G04 #@! TF.SameCoordinates,D0101EB9-F9F5-49BF-87CF-733DA2BBE2A4*
G04*
G04*
G04 #@! TF.FilePolarity,Negative*
G04*
G01*
G75*
%ADD14C,0.06800*%
%ADD15O,0.05524X0.10200*%
%ADD16C,0.07099*%
%ADD17R,0.07099X0.08674*%
%ADD18O,0.07099X0.08674*%
%ADD19R,0.10642X0.07493*%
%ADD20O,0.10642X0.07493*%
%ADD21C,0.10249*%
%ADD22O,0.07099X0.10642*%
%ADD23R,0.07099X0.10642*%
%ADD24R,0.10642X0.07099*%
%ADD25O,0.10642X0.07099*%
%ADD26O,0.10200X0.05524*%
%ADD27C,0.05524*%
%ADD28C,0.05800*%
D14*
X632000Y456000D02*
D03*
Y484000D02*
D03*
X922835Y720669D02*
D03*
X922933Y710728D02*
D03*
X584252Y816929D02*
D03*
X570866Y98425D02*
D03*
X961811Y819685D02*
D03*
X862205Y98425D02*
D03*
D15*
X613386Y561417D02*
D03*
Y531890D02*
D03*
X614567Y404724D02*
D03*
Y375197D02*
D03*
X613386Y608268D02*
D03*
Y637795D02*
D03*
X614567Y305709D02*
D03*
Y335236D02*
D03*
Y484843D02*
D03*
Y455315D02*
D03*
X615354Y225197D02*
D03*
Y254724D02*
D03*
X691731Y304134D02*
D03*
Y333661D02*
D03*
X769684Y224803D02*
D03*
Y254331D02*
D03*
X690944Y225787D02*
D03*
Y255315D02*
D03*
X768504Y303937D02*
D03*
Y333464D02*
D03*
D16*
X591732Y126772D02*
D03*
X611516Y127264D02*
D03*
X601575Y147244D02*
D03*
X661024D02*
D03*
X670965Y127264D02*
D03*
X651181Y126772D02*
D03*
X712992Y147244D02*
D03*
X722933Y127264D02*
D03*
X703150Y126772D02*
D03*
X766929Y147244D02*
D03*
X776870Y127264D02*
D03*
X757087Y126772D02*
D03*
X820079Y146850D02*
D03*
X830020Y126870D02*
D03*
X810236Y126378D02*
D03*
X898326Y159941D02*
D03*
X913385Y132480D02*
D03*
X944881D02*
D03*
X898326Y266240D02*
D03*
X913385Y238779D02*
D03*
X944881D02*
D03*
X898326Y482775D02*
D03*
X913385Y455315D02*
D03*
X944881D02*
D03*
X898326Y376476D02*
D03*
X913385Y349016D02*
D03*
X944881D02*
D03*
D17*
X636929Y742874D02*
D03*
X731181Y518150D02*
D03*
X787717Y503504D02*
D03*
X916693Y527559D02*
D03*
D18*
X646929Y742874D02*
D03*
X656929D02*
D03*
X666929D02*
D03*
X676929D02*
D03*
X686929D02*
D03*
X696929D02*
D03*
X636929Y772874D02*
D03*
X646929D02*
D03*
X656929D02*
D03*
X666929D02*
D03*
X676929D02*
D03*
X686929D02*
D03*
X696929D02*
D03*
X671181Y488150D02*
D03*
X681181D02*
D03*
X691181D02*
D03*
X701181D02*
D03*
X711181D02*
D03*
X721181D02*
D03*
X731181D02*
D03*
X671181Y518150D02*
D03*
X681181D02*
D03*
X691181D02*
D03*
X701181D02*
D03*
X711181D02*
D03*
X721181D02*
D03*
X847717Y533504D02*
D03*
X837717D02*
D03*
X827717D02*
D03*
X817717D02*
D03*
X807717D02*
D03*
X797717D02*
D03*
X787717D02*
D03*
X847717Y503504D02*
D03*
X837717D02*
D03*
X827717D02*
D03*
X817717D02*
D03*
X807717D02*
D03*
X797717D02*
D03*
X966693Y527559D02*
D03*
X956693D02*
D03*
X946693D02*
D03*
X936693D02*
D03*
X926693D02*
D03*
D19*
X584646Y786614D02*
D03*
D20*
Y776772D02*
D03*
Y766929D02*
D03*
D21*
X942913Y730315D02*
D03*
Y690551D02*
D03*
D22*
X691339Y818898D02*
D03*
X701181D02*
D03*
X623622Y816535D02*
D03*
X633465D02*
D03*
X624803Y687795D02*
D03*
X634646D02*
D03*
X644488D02*
D03*
X654331D02*
D03*
X664173D02*
D03*
X674016D02*
D03*
X647638Y94488D02*
D03*
X637795D02*
D03*
X627953D02*
D03*
X618110D02*
D03*
X608268D02*
D03*
X598425D02*
D03*
D23*
X711024Y818898D02*
D03*
X643307Y816535D02*
D03*
X614961Y687795D02*
D03*
X657480Y94488D02*
D03*
D24*
X813386Y457480D02*
D03*
X857480Y304724D02*
D03*
D25*
X813386Y447638D02*
D03*
Y437795D02*
D03*
Y427953D02*
D03*
Y418110D02*
D03*
Y408268D02*
D03*
Y398425D02*
D03*
X857480Y314567D02*
D03*
Y324409D02*
D03*
Y334252D02*
D03*
Y344094D02*
D03*
Y353937D02*
D03*
Y363780D02*
D03*
D26*
X720472Y434252D02*
D03*
Y420472D02*
D03*
X677559Y434252D02*
D03*
Y420472D02*
D03*
X763780Y434252D02*
D03*
Y420472D02*
D03*
X677164Y386301D02*
D03*
Y372522D02*
D03*
X720471Y386301D02*
D03*
Y372522D02*
D03*
X763778Y386301D02*
D03*
Y372522D02*
D03*
D27*
X733661Y551181D02*
D03*
X683661D02*
D03*
X733661Y570866D02*
D03*
X683661D02*
D03*
Y590551D02*
D03*
X733661D02*
D03*
Y610236D02*
D03*
X683661D02*
D03*
X832087Y649606D02*
D03*
X782087D02*
D03*
Y629921D02*
D03*
X832087D02*
D03*
X683661Y649606D02*
D03*
X733661D02*
D03*
X832087Y610236D02*
D03*
X782087D02*
D03*
Y590551D02*
D03*
X832087D02*
D03*
Y570866D02*
D03*
X782087D02*
D03*
X733662Y629921D02*
D03*
X683662D02*
D03*
X832087Y688976D02*
D03*
X782087D02*
D03*
X832087Y669291D02*
D03*
X782087D02*
D03*
D28*
X896850Y666535D02*
D03*
X867717Y503937D02*
D03*
X877953Y538976D02*
D03*
X699213Y639764D02*
D03*
X670866Y505512D02*
D03*
X595865Y160236D02*
D03*
X873800Y618000D02*
D03*
X762700Y340400D02*
D03*
X717200Y315600D02*
D03*
X566000Y633800D02*
D03*
X806400Y372522D02*
D03*
X740200Y312400D02*
D03*
X735700Y391900D02*
D03*
M02*
