G04*
G04 #@! TF.GenerationSoftware,Altium Limited,Altium Designer,20.2.6 (244)*
G04*
G04 Layer_Color=16711935*
%FSLAX25Y25*%
%MOIN*%
G70*
G04*
G04 #@! TF.SameCoordinates,D0101EB9-F9F5-49BF-87CF-733DA2BBE2A4*
G04*
G04*
G04 #@! TF.FilePolarity,Positive*
G04*
G01*
G75*
%ADD10C,0.01000*%
%ADD11C,0.00787*%
%ADD12C,0.01968*%
D10*
X638039Y546555D02*
X638019Y547554D01*
X637958Y548552D01*
X637857Y549546D01*
X637716Y550535D01*
X637535Y551518D01*
X637314Y552492D01*
X637053Y553457D01*
X636754Y554411D01*
X636417Y555351D01*
X636041Y556277D01*
X635629Y557188D01*
X635180Y558080D01*
X634695Y558954D01*
X634175Y559807D01*
X633621Y560639D01*
X633033Y561447D01*
X632413Y562231D01*
X631763Y562990D01*
X631081Y563721D01*
X630371Y564424D01*
X629633Y565097D01*
X628868Y565741D01*
X628078Y566352D01*
X627264Y566931D01*
X626427Y567477D01*
X625568Y567988D01*
X624689Y568465D01*
X623792Y568905D01*
X622878Y569308D01*
X621948Y569674D01*
X621004Y570002D01*
X620048Y570291D01*
X619080Y570542D01*
X618104Y570753D01*
X617119Y570924D01*
X616128Y571056D01*
X615133Y571147D01*
X614135Y571197D01*
X613136Y571207D01*
X612137Y571177D01*
X611140Y571106D01*
X610147Y570995D01*
X609160Y570844D01*
X608179Y570652D01*
X607206Y570422D01*
X606244Y570152D01*
X605294Y569843D01*
X604357Y569496D01*
X603435Y569111D01*
X602529Y568689D01*
X601641Y568231D01*
X600772Y567737D01*
X599924Y567208D01*
X599098Y566646D01*
X598295Y566050D01*
X597518Y565423D01*
X596766Y564764D01*
X596042Y564076D01*
X595346Y563359D01*
X594680Y562614D01*
X594044Y561842D01*
X593441Y561046D01*
X592870Y560226D01*
X592333Y559383D01*
X591830Y558519D01*
X591363Y557636D01*
X590932Y556735D01*
X590538Y555816D01*
X590181Y554883D01*
X589863Y553935D01*
X589583Y552976D01*
X589342Y552006D01*
X589141Y551027D01*
X588980Y550041D01*
X588859Y549049D01*
X588778Y548053D01*
X588737Y547055D01*
Y546055D01*
X588778Y545057D01*
X588859Y544061D01*
X588980Y543069D01*
X589141Y542083D01*
X589343Y541104D01*
X589583Y540134D01*
X589863Y539175D01*
X590181Y538228D01*
X590538Y537294D01*
X590932Y536376D01*
X591363Y535474D01*
X591830Y534591D01*
X592333Y533727D01*
X592870Y532884D01*
X593441Y532064D01*
X594044Y531268D01*
X594680Y530496D01*
X595346Y529751D01*
X596042Y529034D01*
X596766Y528346D01*
X597518Y527687D01*
X598295Y527060D01*
X599098Y526464D01*
X599924Y525902D01*
X600772Y525373D01*
X601641Y524879D01*
X602529Y524421D01*
X603435Y523999D01*
X604357Y523615D01*
X605294Y523267D01*
X606244Y522959D01*
X607206Y522689D01*
X608179Y522458D01*
X609160Y522266D01*
X610147Y522115D01*
X611140Y522004D01*
X612137Y521933D01*
X613136Y521903D01*
X614135Y521913D01*
X615133Y521964D01*
X616128Y522055D01*
X617119Y522186D01*
X618104Y522357D01*
X619080Y522568D01*
X620048Y522819D01*
X621004Y523108D01*
X621948Y523436D01*
X622878Y523802D01*
X623792Y524206D01*
X624689Y524646D01*
X625568Y525122D01*
X626427Y525633D01*
X627264Y526179D01*
X628078Y526758D01*
X628868Y527369D01*
X629633Y528013D01*
X630371Y528686D01*
X631081Y529389D01*
X631763Y530121D01*
X632413Y530879D01*
X633033Y531663D01*
X633621Y532471D01*
X634175Y533303D01*
X634695Y534156D01*
X635180Y535030D01*
X635629Y535923D01*
X636041Y536833D01*
X636417Y537759D01*
X636754Y538699D01*
X637053Y539653D01*
X637314Y540618D01*
X637535Y541592D01*
X637716Y542575D01*
X637857Y543564D01*
X637958Y544558D01*
X638019Y545556D01*
X638039Y546555D01*
X639220Y389862D02*
X639200Y390861D01*
X639139Y391859D01*
X639038Y392853D01*
X638897Y393842D01*
X638716Y394825D01*
X638495Y395799D01*
X638235Y396764D01*
X637935Y397718D01*
X637598Y398658D01*
X637222Y399585D01*
X636810Y400495D01*
X636361Y401387D01*
X635876Y402261D01*
X635356Y403114D01*
X634802Y403946D01*
X634214Y404754D01*
X633595Y405538D01*
X632944Y406297D01*
X632263Y407028D01*
X631552Y407731D01*
X630814Y408405D01*
X630050Y409048D01*
X629259Y409659D01*
X628445Y410239D01*
X627608Y410784D01*
X626749Y411296D01*
X625871Y411772D01*
X624973Y412212D01*
X624059Y412615D01*
X623129Y412981D01*
X622185Y413309D01*
X621229Y413598D01*
X620261Y413849D01*
X619285Y414060D01*
X618300Y414231D01*
X617310Y414363D01*
X616314Y414454D01*
X615316Y414504D01*
X614317Y414514D01*
X613318Y414484D01*
X612322Y414413D01*
X611328Y414302D01*
X610341Y414151D01*
X609360Y413960D01*
X608388Y413729D01*
X607425Y413459D01*
X606475Y413150D01*
X605538Y412803D01*
X604616Y412418D01*
X603710Y411996D01*
X602822Y411538D01*
X601953Y411044D01*
X601105Y410516D01*
X600279Y409953D01*
X599476Y409358D01*
X598699Y408730D01*
X597947Y408072D01*
X597223Y407383D01*
X596527Y406666D01*
X595861Y405921D01*
X595225Y405150D01*
X594622Y404353D01*
X594051Y403533D01*
X593514Y402690D01*
X593011Y401827D01*
X592544Y400943D01*
X592113Y400042D01*
X591719Y399123D01*
X591362Y398190D01*
X591044Y397242D01*
X590764Y396283D01*
X590524Y395313D01*
X590322Y394335D01*
X590161Y393348D01*
X590040Y392356D01*
X589959Y391360D01*
X589919Y390362D01*
Y389363D01*
X589959Y388364D01*
X590040Y387368D01*
X590161Y386376D01*
X590322Y385390D01*
X590524Y384411D01*
X590764Y383441D01*
X591044Y382482D01*
X591362Y381535D01*
X591719Y380601D01*
X592113Y379683D01*
X592544Y378781D01*
X593011Y377898D01*
X593514Y377034D01*
X594051Y376191D01*
X594622Y375371D01*
X595225Y374575D01*
X595861Y373803D01*
X596527Y373059D01*
X597223Y372341D01*
X597947Y371653D01*
X598699Y370994D01*
X599476Y370367D01*
X600279Y369771D01*
X601105Y369209D01*
X601953Y368680D01*
X602822Y368186D01*
X603710Y367728D01*
X604616Y367306D01*
X605538Y366922D01*
X606475Y366575D01*
X607425Y366266D01*
X608388Y365996D01*
X609360Y365765D01*
X610341Y365574D01*
X611328Y365422D01*
X612322Y365311D01*
X613318Y365240D01*
X614317Y365210D01*
X615316Y365220D01*
X616314Y365271D01*
X617310Y365362D01*
X618300Y365493D01*
X619285Y365664D01*
X620261Y365875D01*
X621229Y366126D01*
X622185Y366415D01*
X623129Y366743D01*
X624059Y367109D01*
X624973Y367513D01*
X625871Y367953D01*
X626749Y368429D01*
X627608Y368940D01*
X628445Y369486D01*
X629259Y370065D01*
X630050Y370677D01*
X630814Y371320D01*
X631552Y371993D01*
X632263Y372697D01*
X632944Y373428D01*
X633595Y374186D01*
X634214Y374970D01*
X634802Y375778D01*
X635356Y376610D01*
X635876Y377463D01*
X636361Y378337D01*
X636810Y379230D01*
X637222Y380140D01*
X637598Y381066D01*
X637935Y382007D01*
X638235Y382960D01*
X638495Y383925D01*
X638716Y384899D01*
X638897Y385882D01*
X639038Y386871D01*
X639139Y387866D01*
X639200Y388863D01*
X639220Y389862D01*
X638039Y623130D02*
X638019Y624129D01*
X637958Y625127D01*
X637857Y626121D01*
X637716Y627110D01*
X637535Y628093D01*
X637314Y629067D01*
X637053Y630032D01*
X636754Y630985D01*
X636417Y631926D01*
X636041Y632852D01*
X635629Y633762D01*
X635180Y634655D01*
X634695Y635529D01*
X634175Y636382D01*
X633620Y637214D01*
X633033Y638022D01*
X632413Y638806D01*
X631763Y639564D01*
X631081Y640296D01*
X630371Y640999D01*
X629633Y641672D01*
X628868Y642315D01*
X628078Y642927D01*
X627264Y643506D01*
X626427Y644052D01*
X625568Y644563D01*
X624689Y645039D01*
X623792Y645479D01*
X622878Y645883D01*
X621948Y646249D01*
X621004Y646577D01*
X620048Y646866D01*
X619080Y647117D01*
X618104Y647328D01*
X617119Y647499D01*
X616128Y647630D01*
X615133Y647721D01*
X614135Y647772D01*
X613136Y647782D01*
X612137Y647752D01*
X611140Y647681D01*
X610147Y647570D01*
X609159Y647418D01*
X608179Y647227D01*
X607206Y646996D01*
X606244Y646726D01*
X605294Y646418D01*
X604357Y646070D01*
X603434Y645686D01*
X602528Y645264D01*
X601640Y644806D01*
X600772Y644312D01*
X599924Y643783D01*
X599098Y643221D01*
X598295Y642625D01*
X597518Y641998D01*
X596766Y641339D01*
X596042Y640651D01*
X595346Y639933D01*
X594680Y639188D01*
X594044Y638417D01*
X593441Y637621D01*
X592870Y636801D01*
X592333Y635958D01*
X591830Y635094D01*
X591363Y634211D01*
X590932Y633309D01*
X590538Y632391D01*
X590181Y631458D01*
X589863Y630510D01*
X589583Y629551D01*
X589342Y628581D01*
X589141Y627602D01*
X588980Y626616D01*
X588859Y625624D01*
X588778Y624628D01*
X588737Y623630D01*
Y622630D01*
X588778Y621632D01*
X588859Y620636D01*
X588980Y619644D01*
X589141Y618658D01*
X589342Y617679D01*
X589583Y616709D01*
X589863Y615750D01*
X590181Y614802D01*
X590538Y613869D01*
X590932Y612951D01*
X591363Y612049D01*
X591830Y611166D01*
X592333Y610302D01*
X592870Y609459D01*
X593441Y608639D01*
X594044Y607842D01*
X594680Y607071D01*
X595346Y606326D01*
X596042Y605609D01*
X596766Y604921D01*
X597518Y604262D01*
X598295Y603635D01*
X599098Y603039D01*
X599924Y602476D01*
X600772Y601948D01*
X601641Y601454D01*
X602529Y600996D01*
X603435Y600574D01*
X604357Y600189D01*
X605294Y599842D01*
X606244Y599533D01*
X607206Y599263D01*
X608179Y599033D01*
X609160Y598841D01*
X610147Y598690D01*
X611140Y598579D01*
X612137Y598508D01*
X613136Y598478D01*
X614135Y598488D01*
X615133Y598538D01*
X616128Y598630D01*
X617119Y598761D01*
X618104Y598932D01*
X619080Y599143D01*
X620048Y599394D01*
X621004Y599683D01*
X621948Y600011D01*
X622878Y600377D01*
X623792Y600780D01*
X624689Y601221D01*
X625568Y601697D01*
X626427Y602208D01*
X627264Y602754D01*
X628078Y603333D01*
X628868Y603944D01*
X629633Y604588D01*
X630371Y605261D01*
X631081Y605964D01*
X631763Y606696D01*
X632413Y607454D01*
X633033Y608238D01*
X633620Y609046D01*
X634175Y609878D01*
X634694Y610731D01*
X635180Y611605D01*
X635629Y612498D01*
X636041Y613408D01*
X636417Y614334D01*
X636754Y615274D01*
X637053Y616228D01*
X637314Y617193D01*
X637535Y618167D01*
X637716Y619150D01*
X637857Y620139D01*
X637958Y621133D01*
X638019Y622131D01*
X638039Y623130D01*
X639220Y320571D02*
X639200Y321570D01*
X639139Y322567D01*
X639038Y323562D01*
X638897Y324551D01*
X638716Y325534D01*
X638495Y326508D01*
X638235Y327473D01*
X637935Y328426D01*
X637598Y329367D01*
X637222Y330293D01*
X636810Y331203D01*
X636361Y332096D01*
X635876Y332970D01*
X635356Y333823D01*
X634802Y334655D01*
X634214Y335463D01*
X633595Y336247D01*
X632944Y337005D01*
X632263Y337737D01*
X631552Y338439D01*
X630814Y339113D01*
X630050Y339756D01*
X629259Y340368D01*
X628445Y340947D01*
X627608Y341493D01*
X626749Y342004D01*
X625871Y342480D01*
X624973Y342920D01*
X624059Y343324D01*
X623129Y343690D01*
X622185Y344018D01*
X621229Y344307D01*
X620261Y344558D01*
X619285Y344769D01*
X618300Y344940D01*
X617310Y345071D01*
X616314Y345162D01*
X615316Y345213D01*
X614317Y345223D01*
X613318Y345193D01*
X612322Y345122D01*
X611328Y345011D01*
X610341Y344859D01*
X609360Y344668D01*
X608388Y344437D01*
X607425Y344167D01*
X606475Y343859D01*
X605538Y343512D01*
X604616Y343127D01*
X603710Y342705D01*
X602822Y342247D01*
X601953Y341753D01*
X601105Y341224D01*
X600279Y340662D01*
X599476Y340066D01*
X598699Y339439D01*
X597947Y338780D01*
X597223Y338092D01*
X596527Y337374D01*
X595861Y336630D01*
X595225Y335858D01*
X594622Y335062D01*
X594051Y334242D01*
X593514Y333399D01*
X593011Y332535D01*
X592544Y331652D01*
X592113Y330750D01*
X591719Y329832D01*
X591362Y328898D01*
X591044Y327951D01*
X590764Y326992D01*
X590524Y326022D01*
X590322Y325043D01*
X590161Y324057D01*
X590040Y323065D01*
X589959Y322069D01*
X589919Y321071D01*
Y320071D01*
X589959Y319073D01*
X590040Y318077D01*
X590161Y317085D01*
X590322Y316098D01*
X590524Y315120D01*
X590764Y314150D01*
X591044Y313191D01*
X591362Y312243D01*
X591719Y311310D01*
X592113Y310391D01*
X592544Y309490D01*
X593011Y308606D01*
X593514Y307743D01*
X594051Y306900D01*
X594622Y306080D01*
X595225Y305283D01*
X595861Y304512D01*
X596527Y303767D01*
X597223Y303050D01*
X597947Y302362D01*
X598699Y301703D01*
X599476Y301075D01*
X600279Y300480D01*
X601105Y299917D01*
X601953Y299389D01*
X602822Y298895D01*
X603710Y298437D01*
X604616Y298015D01*
X605538Y297630D01*
X606475Y297283D01*
X607425Y296974D01*
X608388Y296704D01*
X609360Y296474D01*
X610341Y296282D01*
X611329Y296131D01*
X612322Y296020D01*
X613318Y295949D01*
X614317Y295919D01*
X615316Y295929D01*
X616314Y295979D01*
X617310Y296070D01*
X618300Y296202D01*
X619285Y296373D01*
X620261Y296584D01*
X621229Y296834D01*
X622185Y297124D01*
X623129Y297452D01*
X624059Y297818D01*
X624973Y298221D01*
X625871Y298661D01*
X626749Y299137D01*
X627608Y299649D01*
X628445Y300195D01*
X629259Y300774D01*
X630050Y301385D01*
X630814Y302028D01*
X631552Y302702D01*
X632263Y303405D01*
X632944Y304136D01*
X633595Y304895D01*
X634214Y305679D01*
X634802Y306487D01*
X635356Y307319D01*
X635876Y308172D01*
X636361Y309046D01*
X636810Y309938D01*
X637222Y310849D01*
X637598Y311775D01*
X637935Y312715D01*
X638235Y313669D01*
X638495Y314633D01*
X638716Y315608D01*
X638897Y316591D01*
X639038Y317580D01*
X639139Y318574D01*
X639200Y319572D01*
X639220Y320571D01*
Y470177D02*
X639200Y471176D01*
X639139Y472174D01*
X639038Y473168D01*
X638897Y474157D01*
X638716Y475140D01*
X638495Y476114D01*
X638235Y477079D01*
X637935Y478033D01*
X637598Y478973D01*
X637222Y479899D01*
X636810Y480810D01*
X636361Y481702D01*
X635876Y482576D01*
X635356Y483429D01*
X634802Y484261D01*
X634214Y485069D01*
X633595Y485853D01*
X632944Y486612D01*
X632263Y487343D01*
X631552Y488046D01*
X630814Y488720D01*
X630050Y489363D01*
X629259Y489974D01*
X628445Y490554D01*
X627608Y491099D01*
X626749Y491610D01*
X625871Y492087D01*
X624973Y492527D01*
X624059Y492930D01*
X623129Y493296D01*
X622185Y493624D01*
X621229Y493914D01*
X620261Y494164D01*
X619285Y494375D01*
X618300Y494546D01*
X617310Y494678D01*
X616314Y494769D01*
X615316Y494819D01*
X614317Y494829D01*
X613318Y494799D01*
X612322Y494728D01*
X611328Y494617D01*
X610341Y494466D01*
X609360Y494275D01*
X608388Y494044D01*
X607425Y493774D01*
X606475Y493465D01*
X605538Y493118D01*
X604616Y492733D01*
X603710Y492311D01*
X602822Y491853D01*
X601953Y491359D01*
X601105Y490831D01*
X600279Y490268D01*
X599476Y489673D01*
X598699Y489045D01*
X597947Y488386D01*
X597223Y487698D01*
X596527Y486981D01*
X595861Y486236D01*
X595225Y485464D01*
X594622Y484668D01*
X594051Y483848D01*
X593514Y483005D01*
X593011Y482141D01*
X592544Y481258D01*
X592113Y480357D01*
X591719Y479438D01*
X591362Y478505D01*
X591044Y477558D01*
X590764Y476598D01*
X590524Y475628D01*
X590322Y474649D01*
X590161Y473663D01*
X590040Y472671D01*
X589959Y471675D01*
X589919Y470677D01*
Y469677D01*
X589959Y468679D01*
X590040Y467683D01*
X590161Y466691D01*
X590322Y465705D01*
X590524Y464726D01*
X590764Y463756D01*
X591044Y462797D01*
X591362Y461849D01*
X591719Y460916D01*
X592113Y459998D01*
X592544Y459096D01*
X593011Y458213D01*
X593514Y457349D01*
X594051Y456506D01*
X594622Y455686D01*
X595225Y454890D01*
X595861Y454118D01*
X596527Y453374D01*
X597223Y452656D01*
X597947Y451968D01*
X598699Y451309D01*
X599476Y450682D01*
X600279Y450086D01*
X601105Y449524D01*
X601953Y448995D01*
X602822Y448501D01*
X603710Y448043D01*
X604616Y447621D01*
X605538Y447236D01*
X606475Y446889D01*
X607425Y446581D01*
X608388Y446311D01*
X609360Y446080D01*
X610341Y445889D01*
X611329Y445737D01*
X612322Y445626D01*
X613318Y445555D01*
X614317Y445525D01*
X615316Y445535D01*
X616314Y445586D01*
X617310Y445677D01*
X618300Y445808D01*
X619285Y445979D01*
X620261Y446190D01*
X621229Y446441D01*
X622185Y446730D01*
X623129Y447058D01*
X624059Y447424D01*
X624973Y447828D01*
X625871Y448268D01*
X626749Y448744D01*
X627608Y449255D01*
X628445Y449801D01*
X629259Y450380D01*
X630050Y450992D01*
X630814Y451635D01*
X631552Y452309D01*
X632263Y453012D01*
X632944Y453743D01*
X633595Y454501D01*
X634214Y455285D01*
X634802Y456093D01*
X635356Y456925D01*
X635876Y457778D01*
X636361Y458652D01*
X636810Y459545D01*
X637222Y460455D01*
X637598Y461381D01*
X637935Y462322D01*
X638235Y463275D01*
X638495Y464240D01*
X638716Y465214D01*
X638897Y466197D01*
X639038Y467186D01*
X639139Y468181D01*
X639200Y469178D01*
X639220Y470177D01*
X640008Y239862D02*
X639988Y240861D01*
X639927Y241859D01*
X639826Y242853D01*
X639684Y243842D01*
X639503Y244825D01*
X639282Y245799D01*
X639022Y246764D01*
X638723Y247718D01*
X638385Y248658D01*
X638010Y249585D01*
X637597Y250495D01*
X637148Y251387D01*
X636663Y252261D01*
X636143Y253114D01*
X635589Y253946D01*
X635002Y254754D01*
X634382Y255538D01*
X633731Y256297D01*
X633050Y257028D01*
X632340Y257731D01*
X631602Y258405D01*
X630837Y259048D01*
X630047Y259660D01*
X629232Y260239D01*
X628395Y260784D01*
X627537Y261296D01*
X626658Y261772D01*
X625761Y262212D01*
X624847Y262615D01*
X623917Y262981D01*
X622973Y263309D01*
X622016Y263599D01*
X621049Y263849D01*
X620072Y264060D01*
X619088Y264231D01*
X618097Y264363D01*
X617102Y264454D01*
X616104Y264504D01*
X615104Y264514D01*
X614106Y264484D01*
X613109Y264413D01*
X612116Y264302D01*
X611128Y264151D01*
X610147Y263960D01*
X609175Y263729D01*
X608213Y263459D01*
X607262Y263150D01*
X606325Y262803D01*
X605403Y262418D01*
X604497Y261996D01*
X603609Y261538D01*
X602740Y261044D01*
X601892Y260516D01*
X601066Y259953D01*
X600264Y259358D01*
X599486Y258730D01*
X598735Y258071D01*
X598010Y257383D01*
X597315Y256666D01*
X596648Y255921D01*
X596013Y255150D01*
X595409Y254353D01*
X594838Y253533D01*
X594301Y252690D01*
X593799Y251827D01*
X593331Y250943D01*
X592901Y250042D01*
X592507Y249123D01*
X592150Y248190D01*
X591831Y247243D01*
X591552Y246283D01*
X591311Y245313D01*
X591110Y244335D01*
X590949Y243348D01*
X590827Y242356D01*
X590746Y241360D01*
X590706Y240362D01*
Y239363D01*
X590746Y238364D01*
X590827Y237368D01*
X590949Y236376D01*
X591110Y235390D01*
X591311Y234411D01*
X591552Y233441D01*
X591831Y232482D01*
X592150Y231535D01*
X592507Y230601D01*
X592901Y229683D01*
X593332Y228781D01*
X593799Y227898D01*
X594301Y227034D01*
X594838Y226191D01*
X595409Y225371D01*
X596013Y224575D01*
X596648Y223804D01*
X597315Y223059D01*
X598010Y222341D01*
X598735Y221653D01*
X599486Y220994D01*
X600264Y220367D01*
X601066Y219771D01*
X601892Y219209D01*
X602740Y218680D01*
X603609Y218186D01*
X604497Y217728D01*
X605403Y217306D01*
X606325Y216922D01*
X607263Y216575D01*
X608213Y216266D01*
X609175Y215996D01*
X610147Y215765D01*
X611128Y215574D01*
X612116Y215422D01*
X613109Y215311D01*
X614106Y215240D01*
X615105Y215210D01*
X616104Y215220D01*
X617102Y215271D01*
X618097Y215362D01*
X619088Y215493D01*
X620072Y215664D01*
X621049Y215875D01*
X622016Y216126D01*
X622973Y216415D01*
X623917Y216743D01*
X624847Y217109D01*
X625761Y217513D01*
X626658Y217953D01*
X627537Y218429D01*
X628395Y218940D01*
X629232Y219486D01*
X630047Y220065D01*
X630837Y220677D01*
X631602Y221320D01*
X632340Y221994D01*
X633050Y222697D01*
X633731Y223428D01*
X634382Y224186D01*
X635002Y224970D01*
X635589Y225779D01*
X636143Y226610D01*
X636663Y227463D01*
X637148Y228337D01*
X637597Y229230D01*
X638010Y230140D01*
X638385Y231066D01*
X638723Y232007D01*
X639022Y232960D01*
X639282Y233925D01*
X639503Y234899D01*
X639684Y235882D01*
X639826Y236871D01*
X639927Y237866D01*
X639988Y238863D01*
X640008Y239862D01*
X716385Y318799D02*
X716364Y319798D01*
X716303Y320796D01*
X716202Y321790D01*
X716061Y322779D01*
X715880Y323762D01*
X715659Y324736D01*
X715399Y325701D01*
X715099Y326655D01*
X714762Y327595D01*
X714387Y328521D01*
X713974Y329431D01*
X713525Y330324D01*
X713040Y331198D01*
X712520Y332051D01*
X711966Y332883D01*
X711378Y333691D01*
X710759Y334475D01*
X710108Y335233D01*
X709427Y335965D01*
X708716Y336668D01*
X707978Y337341D01*
X707214Y337984D01*
X706423Y338596D01*
X705609Y339175D01*
X704772Y339721D01*
X703913Y340232D01*
X703035Y340708D01*
X702137Y341148D01*
X701223Y341552D01*
X700293Y341918D01*
X699349Y342246D01*
X698393Y342535D01*
X697426Y342786D01*
X696449Y342997D01*
X695464Y343168D01*
X694474Y343300D01*
X693478Y343390D01*
X692480Y343441D01*
X691481Y343451D01*
X690482Y343421D01*
X689486Y343350D01*
X688492Y343239D01*
X687505Y343088D01*
X686524Y342896D01*
X685552Y342666D01*
X684589Y342395D01*
X683639Y342087D01*
X682702Y341740D01*
X681780Y341355D01*
X680874Y340933D01*
X679986Y340475D01*
X679117Y339981D01*
X678269Y339453D01*
X677443Y338890D01*
X676641Y338294D01*
X675863Y337667D01*
X675111Y337008D01*
X674387Y336320D01*
X673691Y335602D01*
X673025Y334858D01*
X672390Y334086D01*
X671786Y333290D01*
X671215Y332470D01*
X670678Y331627D01*
X670175Y330763D01*
X669708Y329880D01*
X669277Y328978D01*
X668883Y328060D01*
X668527Y327127D01*
X668208Y326179D01*
X667928Y325220D01*
X667688Y324250D01*
X667487Y323271D01*
X667325Y322285D01*
X667204Y321293D01*
X667123Y320297D01*
X667083Y319299D01*
Y318299D01*
X667123Y317301D01*
X667204Y316305D01*
X667325Y315313D01*
X667487Y314327D01*
X667688Y313348D01*
X667928Y312378D01*
X668208Y311419D01*
X668527Y310471D01*
X668883Y309538D01*
X669277Y308619D01*
X669708Y307718D01*
X670175Y306835D01*
X670678Y305971D01*
X671215Y305128D01*
X671786Y304308D01*
X672390Y303512D01*
X673025Y302740D01*
X673691Y301995D01*
X674387Y301278D01*
X675111Y300590D01*
X675863Y299931D01*
X676641Y299304D01*
X677443Y298708D01*
X678269Y298146D01*
X679117Y297617D01*
X679986Y297123D01*
X680874Y296665D01*
X681780Y296243D01*
X682702Y295858D01*
X683639Y295511D01*
X684589Y295202D01*
X685552Y294933D01*
X686524Y294702D01*
X687505Y294510D01*
X688493Y294359D01*
X689486Y294248D01*
X690482Y294177D01*
X691481Y294147D01*
X692481Y294157D01*
X693478Y294208D01*
X694474Y294299D01*
X695464Y294430D01*
X696449Y294601D01*
X697426Y294812D01*
X698393Y295063D01*
X699349Y295352D01*
X700293Y295680D01*
X701223Y296046D01*
X702138Y296449D01*
X703035Y296890D01*
X703913Y297366D01*
X704772Y297877D01*
X705609Y298423D01*
X706423Y299002D01*
X707214Y299613D01*
X707978Y300257D01*
X708716Y300930D01*
X709427Y301633D01*
X710108Y302365D01*
X710759Y303123D01*
X711378Y303907D01*
X711966Y304715D01*
X712520Y305547D01*
X713040Y306400D01*
X713525Y307274D01*
X713974Y308167D01*
X714387Y309077D01*
X714762Y310003D01*
X715099Y310943D01*
X715399Y311897D01*
X715659Y312862D01*
X715880Y313836D01*
X716061Y314819D01*
X716202Y315808D01*
X716303Y316802D01*
X716364Y317800D01*
X716385Y318799D01*
X794337Y239468D02*
X794317Y240468D01*
X794256Y241465D01*
X794155Y242459D01*
X794014Y243448D01*
X793833Y244431D01*
X793612Y245406D01*
X793352Y246370D01*
X793052Y247324D01*
X792715Y248265D01*
X792339Y249191D01*
X791927Y250101D01*
X791478Y250993D01*
X790993Y251867D01*
X790473Y252720D01*
X789919Y253552D01*
X789331Y254361D01*
X788712Y255145D01*
X788061Y255903D01*
X787380Y256634D01*
X786669Y257337D01*
X785931Y258011D01*
X785166Y258654D01*
X784376Y259266D01*
X783562Y259845D01*
X782725Y260390D01*
X781866Y260902D01*
X780987Y261378D01*
X780090Y261818D01*
X779176Y262221D01*
X778246Y262587D01*
X777302Y262915D01*
X776346Y263205D01*
X775378Y263455D01*
X774402Y263666D01*
X773417Y263838D01*
X772426Y263969D01*
X771431Y264060D01*
X770433Y264110D01*
X769434Y264121D01*
X768435Y264090D01*
X767438Y264019D01*
X766445Y263908D01*
X765457Y263757D01*
X764477Y263566D01*
X763504Y263335D01*
X762542Y263065D01*
X761592Y262756D01*
X760655Y262409D01*
X759732Y262024D01*
X758827Y261602D01*
X757938Y261144D01*
X757070Y260650D01*
X756222Y260122D01*
X755396Y259559D01*
X754593Y258964D01*
X753816Y258336D01*
X753064Y257678D01*
X752340Y256989D01*
X751644Y256272D01*
X750978Y255527D01*
X750342Y254756D01*
X749739Y253959D01*
X749168Y253139D01*
X748631Y252296D01*
X748128Y251433D01*
X747661Y250549D01*
X747230Y249648D01*
X746836Y248729D01*
X746479Y247796D01*
X746161Y246849D01*
X745881Y245889D01*
X745641Y244919D01*
X745439Y243941D01*
X745278Y242954D01*
X745157Y241963D01*
X745076Y240966D01*
X745035Y239968D01*
Y238969D01*
X745076Y237970D01*
X745157Y236974D01*
X745278Y235982D01*
X745439Y234996D01*
X745641Y234017D01*
X745881Y233047D01*
X746161Y232088D01*
X746479Y231141D01*
X746836Y230207D01*
X747230Y229289D01*
X747661Y228387D01*
X748128Y227504D01*
X748631Y226640D01*
X749168Y225798D01*
X749739Y224977D01*
X750342Y224181D01*
X750978Y223410D01*
X751644Y222665D01*
X752340Y221948D01*
X753064Y221259D01*
X753816Y220601D01*
X754593Y219973D01*
X755396Y219377D01*
X756222Y218815D01*
X757070Y218286D01*
X757939Y217793D01*
X758827Y217334D01*
X759733Y216913D01*
X760655Y216528D01*
X761592Y216181D01*
X762542Y215872D01*
X763505Y215602D01*
X764477Y215371D01*
X765458Y215180D01*
X766445Y215029D01*
X767439Y214917D01*
X768435Y214846D01*
X769434Y214816D01*
X770433Y214826D01*
X771431Y214877D01*
X772427Y214968D01*
X773417Y215099D01*
X774402Y215270D01*
X775378Y215482D01*
X776346Y215732D01*
X777302Y216021D01*
X778246Y216350D01*
X779176Y216716D01*
X780090Y217119D01*
X780988Y217559D01*
X781866Y218035D01*
X782725Y218546D01*
X783562Y219092D01*
X784376Y219671D01*
X785166Y220283D01*
X785931Y220926D01*
X786669Y221600D01*
X787380Y222303D01*
X788061Y223034D01*
X788712Y223792D01*
X789331Y224576D01*
X789919Y225385D01*
X790473Y226216D01*
X790993Y227069D01*
X791478Y227943D01*
X791927Y228836D01*
X792339Y229746D01*
X792715Y230672D01*
X793052Y231613D01*
X793351Y232566D01*
X793612Y233531D01*
X793833Y234506D01*
X794014Y235488D01*
X794155Y236478D01*
X794256Y237472D01*
X794317Y238469D01*
X794337Y239468D01*
X715597Y240453D02*
X715577Y241452D01*
X715516Y242449D01*
X715415Y243443D01*
X715274Y244433D01*
X715093Y245415D01*
X714872Y246390D01*
X714611Y247355D01*
X714312Y248308D01*
X713975Y249249D01*
X713599Y250175D01*
X713187Y251085D01*
X712737Y251978D01*
X712253Y252852D01*
X711732Y253705D01*
X711178Y254537D01*
X710591Y255345D01*
X709971Y256129D01*
X709320Y256887D01*
X708639Y257618D01*
X707929Y258321D01*
X707191Y258995D01*
X706426Y259638D01*
X705636Y260250D01*
X704822Y260829D01*
X703984Y261375D01*
X703126Y261886D01*
X702247Y262362D01*
X701350Y262802D01*
X700436Y263206D01*
X699506Y263572D01*
X698562Y263899D01*
X697606Y264189D01*
X696638Y264440D01*
X695661Y264651D01*
X694677Y264822D01*
X693686Y264953D01*
X692691Y265044D01*
X691693Y265095D01*
X690694Y265105D01*
X689695Y265074D01*
X688698Y265004D01*
X687705Y264893D01*
X686717Y264741D01*
X685737Y264550D01*
X684764Y264319D01*
X683802Y264049D01*
X682852Y263740D01*
X681915Y263393D01*
X680992Y263008D01*
X680086Y262587D01*
X679198Y262128D01*
X678330Y261635D01*
X677482Y261106D01*
X676656Y260544D01*
X675853Y259948D01*
X675075Y259320D01*
X674324Y258662D01*
X673600Y257974D01*
X672904Y257256D01*
X672238Y256511D01*
X671602Y255740D01*
X670999Y254944D01*
X670428Y254123D01*
X669890Y253281D01*
X669388Y252417D01*
X668921Y251534D01*
X668490Y250632D01*
X668096Y249714D01*
X667739Y248780D01*
X667421Y247833D01*
X667141Y246874D01*
X666900Y245904D01*
X666699Y244925D01*
X666538Y243939D01*
X666417Y242947D01*
X666336Y241951D01*
X666295Y240952D01*
Y239953D01*
X666336Y238954D01*
X666417Y237959D01*
X666538Y236967D01*
X666699Y235980D01*
X666900Y235001D01*
X667141Y234032D01*
X667421Y233072D01*
X667739Y232125D01*
X668096Y231191D01*
X668490Y230273D01*
X668921Y229372D01*
X669388Y228488D01*
X669891Y227625D01*
X670428Y226782D01*
X670999Y225962D01*
X671602Y225165D01*
X672238Y224394D01*
X672904Y223649D01*
X673600Y222932D01*
X674324Y222243D01*
X675075Y221585D01*
X675853Y220957D01*
X676656Y220362D01*
X677482Y219799D01*
X678330Y219271D01*
X679198Y218777D01*
X680087Y218319D01*
X680992Y217897D01*
X681915Y217512D01*
X682852Y217165D01*
X683802Y216856D01*
X684764Y216586D01*
X685737Y216355D01*
X686717Y216164D01*
X687705Y216013D01*
X688698Y215902D01*
X689695Y215831D01*
X690694Y215800D01*
X691693Y215811D01*
X692691Y215861D01*
X693686Y215952D01*
X694677Y216084D01*
X695661Y216255D01*
X696638Y216466D01*
X697606Y216716D01*
X698562Y217006D01*
X699506Y217334D01*
X700436Y217700D01*
X701350Y218103D01*
X702247Y218543D01*
X703126Y219019D01*
X703984Y219531D01*
X704822Y220076D01*
X705636Y220655D01*
X706426Y221267D01*
X707191Y221910D01*
X707929Y222584D01*
X708639Y223287D01*
X709320Y224018D01*
X709971Y224777D01*
X710591Y225560D01*
X711178Y226369D01*
X711732Y227201D01*
X712252Y228054D01*
X712737Y228928D01*
X713187Y229820D01*
X713599Y230730D01*
X713975Y231657D01*
X714312Y232597D01*
X714611Y233551D01*
X714872Y234515D01*
X715093Y235490D01*
X715274Y236473D01*
X715415Y237462D01*
X715516Y238456D01*
X715577Y239454D01*
X715597Y240453D01*
X793157Y318602D02*
X793137Y319601D01*
X793077Y320599D01*
X792975Y321593D01*
X792834Y322582D01*
X792653Y323565D01*
X792432Y324540D01*
X792172Y325504D01*
X791873Y326458D01*
X791535Y327398D01*
X791159Y328325D01*
X790747Y329235D01*
X790298Y330127D01*
X789813Y331001D01*
X789293Y331854D01*
X788739Y332686D01*
X788151Y333494D01*
X787532Y334278D01*
X786881Y335037D01*
X786200Y335768D01*
X785490Y336471D01*
X784751Y337145D01*
X783987Y337788D01*
X783196Y338400D01*
X782382Y338979D01*
X781545Y339524D01*
X780686Y340036D01*
X779808Y340512D01*
X778910Y340952D01*
X777996Y341355D01*
X777066Y341721D01*
X776122Y342049D01*
X775166Y342339D01*
X774198Y342589D01*
X773222Y342800D01*
X772237Y342971D01*
X771247Y343103D01*
X770251Y343194D01*
X769253Y343244D01*
X768254Y343254D01*
X767255Y343224D01*
X766259Y343153D01*
X765265Y343042D01*
X764278Y342891D01*
X763297Y342700D01*
X762325Y342469D01*
X761362Y342199D01*
X760412Y341890D01*
X759475Y341543D01*
X758553Y341158D01*
X757647Y340736D01*
X756759Y340278D01*
X755890Y339784D01*
X755042Y339256D01*
X754216Y338693D01*
X753413Y338098D01*
X752636Y337470D01*
X751884Y336811D01*
X751160Y336123D01*
X750464Y335406D01*
X749798Y334661D01*
X749163Y333890D01*
X748559Y333093D01*
X747988Y332273D01*
X747451Y331430D01*
X746948Y330567D01*
X746481Y329683D01*
X746050Y328782D01*
X745656Y327863D01*
X745300Y326930D01*
X744981Y325983D01*
X744701Y325023D01*
X744461Y324053D01*
X744260Y323075D01*
X744098Y322088D01*
X743977Y321096D01*
X743896Y320100D01*
X743856Y319102D01*
Y318103D01*
X743896Y317104D01*
X743977Y316108D01*
X744098Y315116D01*
X744260Y314130D01*
X744461Y313151D01*
X744701Y312181D01*
X744981Y311222D01*
X745300Y310275D01*
X745656Y309341D01*
X746050Y308423D01*
X746481Y307521D01*
X746948Y306638D01*
X747451Y305774D01*
X747988Y304931D01*
X748559Y304111D01*
X749163Y303315D01*
X749798Y302544D01*
X750464Y301799D01*
X751160Y301081D01*
X751884Y300393D01*
X752636Y299734D01*
X753413Y299107D01*
X754216Y298511D01*
X755042Y297949D01*
X755890Y297420D01*
X756759Y296926D01*
X757647Y296468D01*
X758553Y296046D01*
X759475Y295662D01*
X760412Y295315D01*
X761363Y295006D01*
X762325Y294736D01*
X763297Y294505D01*
X764278Y294314D01*
X765266Y294162D01*
X766259Y294051D01*
X767255Y293980D01*
X768254Y293950D01*
X769253Y293960D01*
X770252Y294011D01*
X771247Y294102D01*
X772237Y294233D01*
X773222Y294404D01*
X774199Y294616D01*
X775166Y294866D01*
X776122Y295155D01*
X777066Y295483D01*
X777996Y295849D01*
X778910Y296253D01*
X779808Y296693D01*
X780686Y297169D01*
X781545Y297680D01*
X782382Y298226D01*
X783196Y298805D01*
X783987Y299417D01*
X784751Y300060D01*
X785490Y300734D01*
X786200Y301437D01*
X786881Y302168D01*
X787532Y302926D01*
X788151Y303710D01*
X788739Y304519D01*
X789293Y305350D01*
X789813Y306204D01*
X790298Y307077D01*
X790747Y307970D01*
X791159Y308880D01*
X791535Y309806D01*
X791873Y310747D01*
X792172Y311700D01*
X792432Y312665D01*
X792653Y313639D01*
X792834Y314622D01*
X792975Y315612D01*
X793077Y316606D01*
X793137Y317603D01*
X793157Y318602D01*
D11*
X631929Y755374D02*
X632886Y755564D01*
X633697Y756106D01*
X634239Y756917D01*
X634429Y757874D01*
X634239Y758831D01*
X633697Y759642D01*
X632886Y760184D01*
X631929Y760374D01*
X735472Y427559D02*
X735439Y428561D01*
X735339Y429558D01*
X735172Y430547D01*
X734939Y431522D01*
X734643Y432479D01*
X734282Y433415D01*
X733860Y434324D01*
X733379Y435203D01*
X732839Y436048D01*
X732244Y436855D01*
X731597Y437621D01*
X730900Y438342D01*
X730157Y439014D01*
X729370Y439635D01*
X728544Y440203D01*
X727681Y440713D01*
X726787Y441165D01*
X725864Y441557D01*
X724917Y441886D01*
X723950Y442150D01*
X722967Y442350D01*
X721974Y442484D01*
X720974Y442551D01*
X719971D01*
X718971Y442484D01*
X717978Y442350D01*
X716995Y442150D01*
X716028Y441886D01*
X715081Y441557D01*
X714158Y441165D01*
X713264Y440713D01*
X712401Y440203D01*
X711575Y439635D01*
X710788Y439014D01*
X710045Y438342D01*
X709348Y437621D01*
X708701Y436855D01*
X708106Y436048D01*
X707566Y435203D01*
X707085Y434324D01*
X706663Y433415D01*
X706302Y432479D01*
X706005Y431522D01*
X705773Y430547D01*
X705606Y429558D01*
X705506Y428561D01*
X705473Y427559D01*
X705506Y426557D01*
X705606Y425560D01*
X705773Y424571D01*
X706005Y423596D01*
X706302Y422639D01*
X706663Y421703D01*
X707085Y420794D01*
X707566Y419915D01*
X708106Y419070D01*
X708701Y418263D01*
X709348Y417497D01*
X710045Y416777D01*
X710788Y416104D01*
X711575Y415483D01*
X712401Y414916D01*
X713264Y414405D01*
X714158Y413953D01*
X715081Y413561D01*
X716028Y413233D01*
X716995Y412968D01*
X717978Y412768D01*
X718971Y412635D01*
X719971Y412568D01*
X720974D01*
X721974Y412635D01*
X722967Y412768D01*
X723950Y412968D01*
X724917Y413233D01*
X725864Y413561D01*
X726786Y413953D01*
X727681Y414405D01*
X728544Y414916D01*
X729370Y415483D01*
X730157Y416104D01*
X730900Y416777D01*
X731597Y417497D01*
X732244Y418263D01*
X732839Y419070D01*
X733378Y419915D01*
X733860Y420794D01*
X734282Y421703D01*
X734643Y422639D01*
X734939Y423596D01*
X735172Y424571D01*
X735339Y425560D01*
X735439Y426557D01*
X735472Y427559D01*
X692559Y427559D02*
X692525Y428561D01*
X692425Y429558D01*
X692259Y430547D01*
X692026Y431522D01*
X691729Y432479D01*
X691369Y433415D01*
X690947Y434324D01*
X690465Y435203D01*
X689926Y436048D01*
X689331Y436855D01*
X688684Y437621D01*
X687987Y438342D01*
X687244Y439014D01*
X686457Y439635D01*
X685630Y440203D01*
X684768Y440713D01*
X683873Y441165D01*
X682950Y441557D01*
X682003Y441886D01*
X681036Y442150D01*
X680054Y442350D01*
X679061Y442484D01*
X678060Y442551D01*
X677058D01*
X676058Y442484D01*
X675064Y442350D01*
X674082Y442150D01*
X673115Y441886D01*
X672168Y441557D01*
X671245Y441165D01*
X670350Y440713D01*
X669488Y440203D01*
X668661Y439635D01*
X667875Y439014D01*
X667131Y438342D01*
X666434Y437621D01*
X665787Y436855D01*
X665192Y436048D01*
X664653Y435203D01*
X664171Y434324D01*
X663749Y433415D01*
X663389Y432479D01*
X663092Y431522D01*
X662860Y430547D01*
X662693Y429558D01*
X662593Y428561D01*
X662559Y427559D01*
X662593Y426557D01*
X662693Y425560D01*
X662860Y424571D01*
X663092Y423596D01*
X663389Y422639D01*
X663749Y421703D01*
X664171Y420794D01*
X664653Y419915D01*
X665192Y419070D01*
X665787Y418263D01*
X666434Y417497D01*
X667131Y416777D01*
X667875Y416104D01*
X668661Y415483D01*
X669488Y414916D01*
X670350Y414405D01*
X671245Y413953D01*
X672168Y413561D01*
X673115Y413233D01*
X674082Y412968D01*
X675064Y412768D01*
X676058Y412635D01*
X677058Y412568D01*
X678060D01*
X679061Y412635D01*
X680054Y412768D01*
X681036Y412968D01*
X682003Y413233D01*
X682950Y413561D01*
X683873Y413953D01*
X684768Y414405D01*
X685630Y414916D01*
X686457Y415483D01*
X687243Y416104D01*
X687987Y416777D01*
X688684Y417497D01*
X689331Y418263D01*
X689926Y419070D01*
X690465Y419915D01*
X690947Y420794D01*
X691369Y421703D01*
X691729Y422639D01*
X692026Y423596D01*
X692258Y424571D01*
X692425Y425560D01*
X692525Y426557D01*
X692559Y427559D01*
X778780Y427559D02*
X778746Y428561D01*
X778646Y429559D01*
X778479Y430547D01*
X778246Y431522D01*
X777949Y432480D01*
X777589Y433415D01*
X777167Y434324D01*
X776685Y435204D01*
X776146Y436048D01*
X775552Y436856D01*
X774904Y437621D01*
X774207Y438342D01*
X773464Y439014D01*
X772677Y439635D01*
X771851Y440203D01*
X770988Y440714D01*
X770093Y441166D01*
X769171Y441557D01*
X768224Y441886D01*
X767257Y442151D01*
X766274Y442350D01*
X765281Y442484D01*
X764281Y442551D01*
X763278D01*
X762278Y442484D01*
X761285Y442350D01*
X760302Y442151D01*
X759335Y441886D01*
X758388Y441557D01*
X757466Y441166D01*
X756571Y440714D01*
X755708Y440203D01*
X754882Y439635D01*
X754095Y439014D01*
X753352Y438342D01*
X752655Y437621D01*
X752007Y436856D01*
X751413Y436048D01*
X750874Y435204D01*
X750392Y434324D01*
X749970Y433415D01*
X749610Y432480D01*
X749312Y431522D01*
X749080Y430547D01*
X748913Y429559D01*
X748813Y428561D01*
X748779Y427559D01*
X748813Y426557D01*
X748913Y425560D01*
X749080Y424571D01*
X749312Y423596D01*
X749610Y422639D01*
X749970Y421703D01*
X750392Y420794D01*
X750874Y419915D01*
X751413Y419070D01*
X752007Y418263D01*
X752655Y417497D01*
X753352Y416777D01*
X754095Y416104D01*
X754882Y415483D01*
X755708Y414916D01*
X756571Y414405D01*
X757466Y413953D01*
X758388Y413561D01*
X759335Y413233D01*
X760302Y412968D01*
X761285Y412768D01*
X762278Y412635D01*
X763278Y412568D01*
X764281D01*
X765281Y412635D01*
X766274Y412768D01*
X767257Y412968D01*
X768224Y413233D01*
X769171Y413561D01*
X770093Y413953D01*
X770988Y414405D01*
X771851Y414916D01*
X772677Y415483D01*
X773464Y416104D01*
X774207Y416777D01*
X774904Y417497D01*
X775552Y418263D01*
X776146Y419070D01*
X776685Y419915D01*
X777167Y420794D01*
X777589Y421703D01*
X777949Y422639D01*
X778246Y423596D01*
X778479Y424571D01*
X778646Y425560D01*
X778746Y426557D01*
X778780Y427559D01*
X692164Y379608D02*
X692131Y380610D01*
X692030Y381608D01*
X691864Y382596D01*
X691631Y383571D01*
X691334Y384529D01*
X690974Y385464D01*
X690552Y386374D01*
X690070Y387253D01*
X689531Y388098D01*
X688936Y388905D01*
X688289Y389670D01*
X687592Y390391D01*
X686849Y391063D01*
X686062Y391685D01*
X685235Y392252D01*
X684373Y392763D01*
X683478Y393215D01*
X682555Y393606D01*
X681608Y393935D01*
X680642Y394200D01*
X679659Y394399D01*
X678666Y394533D01*
X677665Y394600D01*
X676663D01*
X675663Y394533D01*
X674669Y394399D01*
X673687Y394200D01*
X672720Y393935D01*
X671773Y393606D01*
X670850Y393215D01*
X669955Y392763D01*
X669093Y392252D01*
X668266Y391685D01*
X667480Y391063D01*
X666736Y390391D01*
X666039Y389670D01*
X665392Y388905D01*
X664797Y388098D01*
X664258Y387253D01*
X663776Y386374D01*
X663354Y385464D01*
X662994Y384529D01*
X662697Y383571D01*
X662465Y382596D01*
X662298Y381608D01*
X662198Y380610D01*
X662164Y379608D01*
X662198Y378607D01*
X662298Y377609D01*
X662465Y376621D01*
X662697Y375645D01*
X662994Y374688D01*
X663354Y373753D01*
X663776Y372843D01*
X664258Y371964D01*
X664798Y371119D01*
X665392Y370312D01*
X666039Y369547D01*
X666736Y368826D01*
X667480Y368154D01*
X668266Y367532D01*
X669093Y366965D01*
X669955Y366454D01*
X670850Y366002D01*
X671773Y365611D01*
X672720Y365282D01*
X673687Y365017D01*
X674669Y364817D01*
X675663Y364684D01*
X676663Y364617D01*
X677665D01*
X678666Y364684D01*
X679659Y364817D01*
X680642Y365017D01*
X681608Y365282D01*
X682555Y365611D01*
X683478Y366002D01*
X684373Y366454D01*
X685235Y366965D01*
X686062Y367532D01*
X686849Y368154D01*
X687592Y368826D01*
X688289Y369547D01*
X688936Y370312D01*
X689531Y371119D01*
X690070Y371964D01*
X690552Y372843D01*
X690974Y373753D01*
X691334Y374688D01*
X691631Y375645D01*
X691864Y376621D01*
X692030Y377609D01*
X692131Y378607D01*
X692164Y379608D01*
X735471Y379608D02*
X735438Y380610D01*
X735337Y381608D01*
X735171Y382596D01*
X734938Y383571D01*
X734641Y384529D01*
X734281Y385464D01*
X733859Y386374D01*
X733377Y387253D01*
X732838Y388098D01*
X732243Y388905D01*
X731596Y389670D01*
X730899Y390391D01*
X730156Y391063D01*
X729369Y391685D01*
X728543Y392252D01*
X727680Y392763D01*
X726785Y393215D01*
X725862Y393606D01*
X724915Y393935D01*
X723949Y394200D01*
X722966Y394399D01*
X721973Y394533D01*
X720972Y394600D01*
X719970D01*
X718970Y394533D01*
X717976Y394399D01*
X716994Y394200D01*
X716027Y393935D01*
X715080Y393606D01*
X714157Y393215D01*
X713263Y392763D01*
X712400Y392252D01*
X711574Y391685D01*
X710787Y391063D01*
X710043Y390391D01*
X709346Y389670D01*
X708699Y388905D01*
X708105Y388098D01*
X707565Y387253D01*
X707084Y386374D01*
X706662Y385464D01*
X706301Y384529D01*
X706004Y383571D01*
X705772Y382596D01*
X705605Y381608D01*
X705505Y380610D01*
X705471Y379608D01*
X705505Y378607D01*
X705605Y377609D01*
X705772Y376621D01*
X706004Y375645D01*
X706301Y374688D01*
X706662Y373753D01*
X707084Y372843D01*
X707565Y371964D01*
X708105Y371119D01*
X708699Y370312D01*
X709346Y369547D01*
X710043Y368826D01*
X710787Y368154D01*
X711574Y367532D01*
X712400Y366965D01*
X713263Y366454D01*
X714157Y366002D01*
X715080Y365611D01*
X716027Y365282D01*
X716994Y365017D01*
X717976Y364817D01*
X718970Y364684D01*
X719970Y364617D01*
X720972D01*
X721973Y364684D01*
X722966Y364817D01*
X723949Y365017D01*
X724915Y365282D01*
X725862Y365611D01*
X726785Y366002D01*
X727680Y366454D01*
X728543Y366965D01*
X729369Y367532D01*
X730156Y368154D01*
X730899Y368826D01*
X731596Y369547D01*
X732243Y370312D01*
X732838Y371119D01*
X733377Y371964D01*
X733859Y372843D01*
X734281Y373753D01*
X734641Y374688D01*
X734938Y375645D01*
X735171Y376621D01*
X735337Y377609D01*
X735438Y378607D01*
X735471Y379608D01*
X778778Y379608D02*
X778745Y380610D01*
X778645Y381608D01*
X778478Y382596D01*
X778245Y383571D01*
X777948Y384529D01*
X777588Y385464D01*
X777166Y386374D01*
X776684Y387253D01*
X776145Y388098D01*
X775550Y388905D01*
X774903Y389670D01*
X774206Y390391D01*
X773463Y391063D01*
X772676Y391685D01*
X771850Y392252D01*
X770987Y392763D01*
X770092Y393215D01*
X769170Y393606D01*
X768223Y393935D01*
X767256Y394200D01*
X766273Y394399D01*
X765280Y394533D01*
X764280Y394600D01*
X763277D01*
X762277Y394533D01*
X761283Y394399D01*
X760301Y394200D01*
X759334Y393935D01*
X758387Y393606D01*
X757464Y393215D01*
X756570Y392763D01*
X755707Y392252D01*
X754881Y391685D01*
X754094Y391063D01*
X753350Y390391D01*
X752654Y389670D01*
X752006Y388905D01*
X751412Y388098D01*
X750872Y387253D01*
X750391Y386374D01*
X749969Y385464D01*
X749608Y384529D01*
X749311Y383571D01*
X749079Y382596D01*
X748912Y381608D01*
X748812Y380610D01*
X748778Y379608D01*
X748812Y378607D01*
X748912Y377609D01*
X749079Y376621D01*
X749311Y375645D01*
X749608Y374688D01*
X749969Y373753D01*
X750391Y372843D01*
X750872Y371964D01*
X751412Y371119D01*
X752006Y370312D01*
X752654Y369547D01*
X753350Y368826D01*
X754094Y368154D01*
X754881Y367532D01*
X755707Y366965D01*
X756570Y366454D01*
X757464Y366002D01*
X758387Y365611D01*
X759334Y365282D01*
X760301Y365017D01*
X761283Y364817D01*
X762277Y364684D01*
X763277Y364617D01*
X764280D01*
X765280Y364684D01*
X766273Y364817D01*
X767256Y365017D01*
X768223Y365282D01*
X769170Y365611D01*
X770092Y366002D01*
X770987Y366454D01*
X771850Y366965D01*
X772676Y367532D01*
X773463Y368154D01*
X774206Y368826D01*
X774903Y369547D01*
X775550Y370312D01*
X776145Y371119D01*
X776684Y371964D01*
X777166Y372843D01*
X777588Y373753D01*
X777948Y374688D01*
X778245Y375645D01*
X778478Y376621D01*
X778645Y377609D01*
X778745Y378607D01*
X778778Y379608D01*
X736181Y505650D02*
X735224Y505459D01*
X734413Y504917D01*
X733871Y504106D01*
X733681Y503150D01*
X733871Y502193D01*
X734413Y501382D01*
X735224Y500840D01*
X736181Y500650D01*
X782717Y516004D02*
X783673Y516194D01*
X784484Y516736D01*
X785026Y517547D01*
X785217Y518504D01*
X785026Y519461D01*
X784484Y520272D01*
X783673Y520814D01*
X782717Y521004D01*
X613583Y565323D02*
Y569323D01*
X611583Y567323D02*
X615583D01*
X621063Y118898D02*
Y152362D01*
X582579D02*
X621063D01*
X582579Y118898D02*
Y152362D01*
Y118898D02*
X621161D01*
X614764Y408630D02*
Y412630D01*
X612764Y410630D02*
X616764D01*
X631929Y750098D02*
X701929D01*
Y765650D01*
X631929D02*
X701929D01*
X631929Y760374D02*
Y765650D01*
Y750098D02*
Y755374D01*
X613189Y600362D02*
Y604362D01*
X611189Y602362D02*
X615189D01*
X909842Y678937D02*
Y722244D01*
Y678937D02*
X961024D01*
Y743898D01*
X909842D02*
X961024D01*
X909842Y722244D02*
Y743898D01*
X918701Y710433D02*
Y717323D01*
X909842D02*
X918701D01*
X909842Y705512D02*
Y717323D01*
Y705512D02*
X918701D01*
Y710433D01*
X680020Y826673D02*
X722047D01*
X680020Y806496D02*
Y826673D01*
Y806496D02*
X722047D01*
Y826673D01*
X612303Y824311D02*
X654331D01*
X612303Y804134D02*
Y824311D01*
Y804134D02*
X654331D01*
Y824311D01*
X614370Y297803D02*
Y301803D01*
X612370Y299803D02*
X616370D01*
X612370Y449409D02*
X616370D01*
X614370Y447409D02*
Y451409D01*
X613551Y260630D02*
X617551D01*
X615551Y258630D02*
Y262630D01*
X689928Y339567D02*
X693928D01*
X691928Y337567D02*
Y341567D01*
X767881Y260236D02*
X771881D01*
X769881Y258236D02*
Y262236D01*
X689141Y261220D02*
X693141D01*
X691141Y259220D02*
Y263220D01*
X766701Y339370D02*
X770701D01*
X768701Y337370D02*
Y341370D01*
X642028Y118898D02*
X680610D01*
X642028D02*
Y152362D01*
X680512D01*
Y118898D02*
Y152362D01*
X693996Y118898D02*
X732579D01*
X693996D02*
Y152362D01*
X732480D01*
Y118898D02*
Y152362D01*
X747933Y118898D02*
X786516D01*
X747933D02*
Y152362D01*
X786417D01*
Y118898D02*
Y152362D01*
X801083Y118504D02*
X839665D01*
X801083D02*
Y151969D01*
X839567D01*
Y118504D02*
Y151969D01*
X966928Y93257D02*
Y173326D01*
X892322D02*
X966928D01*
X892322Y93110D02*
Y173326D01*
Y93110D02*
X966780D01*
X966928Y93257D01*
Y199557D02*
Y279626D01*
X892322D02*
X966928D01*
X892322Y199409D02*
Y279626D01*
Y199409D02*
X966780D01*
X966928Y199557D01*
Y416092D02*
Y496161D01*
X892322D02*
X966928D01*
X892322Y415945D02*
Y496161D01*
Y415945D02*
X966780D01*
X966928Y416092D01*
Y309793D02*
Y389862D01*
X892322D02*
X966928D01*
X892322Y309645D02*
Y389862D01*
Y309645D02*
X966780D01*
X966928Y309793D01*
X670669Y695079D02*
Y696949D01*
Y695079D02*
X676575D01*
Y696752D01*
X617913Y694586D02*
Y696752D01*
X611319Y694586D02*
X617913D01*
X611319D02*
Y696752D01*
X605020Y674114D02*
Y674606D01*
Y674114D02*
X683465D01*
Y697047D01*
X605020D02*
X683465D01*
X605020Y674606D02*
Y697047D01*
X820669Y401772D02*
X822539D01*
X820669Y395866D02*
Y401772D01*
Y395866D02*
X822343D01*
X820177Y454528D02*
X822343D01*
X820177D02*
Y461122D01*
X822343D01*
X799705Y467421D02*
X800197D01*
X799705Y388976D02*
Y467421D01*
Y388976D02*
X822638D01*
Y467421D01*
X800197D02*
X822638D01*
X848327Y360433D02*
X850197D01*
Y366339D01*
X848524D02*
X850197D01*
X848524Y307677D02*
X850689D01*
Y301083D02*
Y307677D01*
X848524Y301083D02*
X850689D01*
X870669Y294783D02*
X871161D01*
Y373228D01*
X848228D02*
X871161D01*
X848228Y294783D02*
Y373228D01*
Y294783D02*
X870669D01*
X601772Y85335D02*
Y87205D01*
X595866D02*
X601772D01*
X595866Y85532D02*
Y87205D01*
X654528Y85532D02*
Y87697D01*
X661122D01*
Y85532D02*
Y87697D01*
X667421Y107677D02*
Y108169D01*
X588976D02*
X667421D01*
X588976Y85236D02*
Y108169D01*
Y85236D02*
X667421D01*
Y107677D01*
X736181Y505650D02*
Y510925D01*
Y495374D02*
Y500650D01*
X666181Y495374D02*
X736181D01*
X666181D02*
Y510925D01*
X736181D01*
X782717Y510728D02*
Y516004D01*
Y521004D02*
Y526280D01*
X852717D01*
Y510728D02*
Y526280D01*
X782717Y510728D02*
X852717D01*
X697244Y555118D02*
X720866D01*
Y550394D02*
Y555118D01*
X721059Y551181D02*
X728346D01*
X689370D02*
X697244D01*
Y547244D02*
Y555118D01*
Y547244D02*
X720866D01*
Y550394D01*
X697244Y574803D02*
X720866D01*
Y570079D02*
Y574803D01*
X721059Y570866D02*
X728346D01*
X689370D02*
X697244D01*
Y566929D02*
Y574803D01*
Y566929D02*
X720866D01*
Y570079D01*
X696457Y586614D02*
X720079D01*
X696457D02*
Y591339D01*
X688976Y590551D02*
X696264D01*
X720079D02*
X727953D01*
X720079Y586614D02*
Y594488D01*
X696457D02*
X720079D01*
X696457Y591339D02*
Y594488D01*
X697244Y614173D02*
X720866D01*
Y609449D02*
Y614173D01*
X721059Y610236D02*
X728346D01*
X689370D02*
X697244D01*
Y606299D02*
Y614173D01*
Y606299D02*
X720866D01*
Y609449D01*
X795669Y653543D02*
X819291D01*
Y648819D02*
Y653543D01*
X819484Y649606D02*
X826772D01*
X787795D02*
X795669D01*
Y645669D02*
Y653543D01*
Y645669D02*
X819291D01*
Y648819D01*
X794882Y625984D02*
X818504D01*
X794882D02*
Y630709D01*
X787402Y629921D02*
X794689D01*
X818504D02*
X826378D01*
X818504Y625984D02*
Y633858D01*
X794882D02*
X818504D01*
X794882Y630709D02*
Y633858D01*
X696457Y645669D02*
X720079D01*
X696457D02*
Y650394D01*
X688976Y649606D02*
X696264D01*
X720079D02*
X727953D01*
X720079Y645669D02*
Y653543D01*
X696457D02*
X720079D01*
X696457Y650394D02*
Y653543D01*
X795669Y614173D02*
X819291D01*
Y609449D02*
Y614173D01*
X819484Y610236D02*
X826772D01*
X787795D02*
X795669D01*
Y606299D02*
Y614173D01*
Y606299D02*
X819291D01*
Y609449D01*
X794882Y586614D02*
X818504D01*
X794882D02*
Y591339D01*
X787401Y590551D02*
X794689D01*
X818504D02*
X826378D01*
X818504Y586614D02*
Y594488D01*
X794882D02*
X818504D01*
X794882Y591339D02*
Y594488D01*
X795669Y574803D02*
X819291D01*
Y570079D02*
Y574803D01*
X819484Y570866D02*
X826772D01*
X787795D02*
X795669D01*
Y566929D02*
Y574803D01*
Y566929D02*
X819291D01*
Y570079D01*
X697244Y633858D02*
X720866D01*
Y629134D02*
Y633858D01*
X721059Y629921D02*
X728347D01*
X689370D02*
X697244D01*
Y625984D02*
Y633858D01*
Y625984D02*
X720866D01*
Y629134D01*
X795669Y692913D02*
X819291D01*
Y688189D02*
Y692913D01*
X819484Y688976D02*
X826772D01*
X787795D02*
X795669D01*
Y685039D02*
Y692913D01*
Y685039D02*
X819291D01*
Y688189D01*
X795669Y673228D02*
X819291D01*
Y668504D02*
Y673228D01*
X819484Y669291D02*
X826772D01*
X787795D02*
X795669D01*
Y665354D02*
Y673228D01*
Y665354D02*
X819291D01*
Y668504D01*
D12*
X593602Y767126D02*
Y767520D01*
X591043Y767126D02*
X593602D01*
X591043D02*
Y783858D01*
X593799D01*
X571161Y796358D02*
X593898D01*
Y757382D02*
Y796358D01*
X570964Y757382D02*
X593898D01*
X570964D02*
Y796358D01*
X571161D01*
M02*
