G04*
G04 #@! TF.GenerationSoftware,Altium Limited,Altium Designer,20.2.6 (244)*
G04*
G04 Layer_Color=16711935*
%FSLAX25Y25*%
%MOIN*%
G70*
G04*
G04 #@! TF.SameCoordinates,E07979D3-0FA8-472C-B39E-0A4441D90CF7*
G04*
G04*
G04 #@! TF.FilePolarity,Positive*
G04*
G01*
G75*
%ADD10C,0.00787*%
%ADD11C,0.01000*%
%ADD12C,0.01968*%
D10*
X331142Y336614D02*
X331108Y337616D01*
X331008Y338614D01*
X330841Y339602D01*
X330609Y340577D01*
X330312Y341535D01*
X329952Y342470D01*
X329530Y343379D01*
X329048Y344258D01*
X328508Y345104D01*
X327914Y345911D01*
X327267Y346676D01*
X326570Y347397D01*
X325826Y348069D01*
X325039Y348690D01*
X324213Y349258D01*
X323351Y349768D01*
X322456Y350221D01*
X321533Y350612D01*
X320586Y350941D01*
X319619Y351206D01*
X318637Y351405D01*
X317643Y351539D01*
X316643Y351606D01*
X315640D01*
X314640Y351539D01*
X313647Y351405D01*
X312664Y351206D01*
X311698Y350941D01*
X310751Y350612D01*
X309828Y350221D01*
X308933Y349768D01*
X308070Y349258D01*
X307244Y348690D01*
X306457Y348069D01*
X305714Y347397D01*
X305017Y346676D01*
X304370Y345911D01*
X303775Y345104D01*
X303236Y344258D01*
X302754Y343379D01*
X302332Y342470D01*
X301972Y341535D01*
X301675Y340577D01*
X301442Y339602D01*
X301276Y338614D01*
X301175Y337616D01*
X301142Y336614D01*
X301175Y335612D01*
X301276Y334615D01*
X301442Y333627D01*
X301675Y332651D01*
X301972Y331694D01*
X302332Y330758D01*
X302754Y329849D01*
X303236Y328970D01*
X303775Y328125D01*
X304370Y327318D01*
X305017Y326553D01*
X305714Y325832D01*
X306457Y325160D01*
X307244Y324538D01*
X308070Y323971D01*
X308933Y323460D01*
X309828Y323008D01*
X310751Y322617D01*
X311698Y322288D01*
X312664Y322023D01*
X313647Y321823D01*
X314640Y321690D01*
X315640Y321623D01*
X316643D01*
X317643Y321690D01*
X318637Y321823D01*
X319619Y322023D01*
X320586Y322288D01*
X321533Y322617D01*
X322456Y323008D01*
X323350Y323460D01*
X324213Y323971D01*
X325039Y324538D01*
X325826Y325160D01*
X326570Y325832D01*
X327267Y326553D01*
X327914Y327318D01*
X328508Y328125D01*
X329048Y328970D01*
X329530Y329849D01*
X329952Y330758D01*
X330312Y331694D01*
X330609Y332651D01*
X330841Y333626D01*
X331008Y334615D01*
X331108Y335612D01*
X331142Y336614D01*
X281535Y337795D02*
X281502Y338797D01*
X281402Y339795D01*
X281235Y340783D01*
X281002Y341758D01*
X280705Y342716D01*
X280345Y343651D01*
X279923Y344561D01*
X279441Y345440D01*
X278902Y346285D01*
X278307Y347092D01*
X277660Y347857D01*
X276963Y348578D01*
X276220Y349250D01*
X275433Y349871D01*
X274607Y350439D01*
X273744Y350950D01*
X272849Y351402D01*
X271926Y351793D01*
X270980Y352122D01*
X270013Y352387D01*
X269030Y352586D01*
X268037Y352720D01*
X267037Y352787D01*
X266034D01*
X265034Y352720D01*
X264040Y352586D01*
X263058Y352387D01*
X262091Y352122D01*
X261144Y351793D01*
X260221Y351402D01*
X259327Y350950D01*
X258464Y350439D01*
X257638Y349871D01*
X256851Y349250D01*
X256107Y348578D01*
X255411Y347857D01*
X254763Y347092D01*
X254169Y346285D01*
X253629Y345440D01*
X253148Y344561D01*
X252726Y343651D01*
X252365Y342716D01*
X252068Y341758D01*
X251836Y340783D01*
X251669Y339795D01*
X251569Y338797D01*
X251535Y337795D01*
X251569Y336793D01*
X251669Y335796D01*
X251836Y334808D01*
X252068Y333832D01*
X252365Y332875D01*
X252726Y331940D01*
X253148Y331030D01*
X253629Y330151D01*
X254169Y329306D01*
X254764Y328499D01*
X255411Y327734D01*
X256107Y327013D01*
X256851Y326341D01*
X257638Y325719D01*
X258464Y325152D01*
X259327Y324641D01*
X260221Y324189D01*
X261144Y323798D01*
X262091Y323469D01*
X263058Y323204D01*
X264040Y323004D01*
X265034Y322871D01*
X266034Y322804D01*
X267037D01*
X268037Y322871D01*
X269030Y323004D01*
X270013Y323204D01*
X270980Y323469D01*
X271926Y323798D01*
X272849Y324189D01*
X273744Y324641D01*
X274607Y325152D01*
X275433Y325719D01*
X276220Y326341D01*
X276963Y327013D01*
X277660Y327734D01*
X278307Y328499D01*
X278902Y329306D01*
X279441Y330151D01*
X279923Y331030D01*
X280345Y331940D01*
X280705Y332875D01*
X281002Y333832D01*
X281235Y334807D01*
X281402Y335796D01*
X281502Y336793D01*
X281535Y337795D01*
X232716Y338189D02*
X232683Y339191D01*
X232583Y340188D01*
X232416Y341177D01*
X232184Y342152D01*
X231887Y343109D01*
X231526Y344045D01*
X231104Y344954D01*
X230623Y345833D01*
X230083Y346678D01*
X229488Y347485D01*
X228841Y348251D01*
X228144Y348971D01*
X227401Y349644D01*
X226614Y350265D01*
X225788Y350833D01*
X224925Y351343D01*
X224031Y351795D01*
X223108Y352187D01*
X222161Y352516D01*
X221194Y352781D01*
X220212Y352980D01*
X219218Y353114D01*
X218218Y353181D01*
X217215D01*
X216215Y353114D01*
X215222Y352980D01*
X214239Y352781D01*
X213272Y352516D01*
X212325Y352187D01*
X211403Y351795D01*
X210508Y351343D01*
X209645Y350833D01*
X208819Y350265D01*
X208032Y349644D01*
X207289Y348971D01*
X206592Y348251D01*
X205944Y347485D01*
X205350Y346678D01*
X204811Y345833D01*
X204329Y344954D01*
X203907Y344045D01*
X203547Y343109D01*
X203250Y342152D01*
X203017Y341177D01*
X202850Y340188D01*
X202750Y339191D01*
X202716Y338189D01*
X202750Y337187D01*
X202850Y336190D01*
X203017Y335201D01*
X203250Y334226D01*
X203547Y333269D01*
X203907Y332333D01*
X204329Y331424D01*
X204811Y330545D01*
X205350Y329700D01*
X205945Y328893D01*
X206592Y328127D01*
X207289Y327407D01*
X208032Y326734D01*
X208819Y326113D01*
X209645Y325546D01*
X210508Y325035D01*
X211403Y324583D01*
X212325Y324191D01*
X213272Y323863D01*
X214239Y323598D01*
X215222Y323398D01*
X216215Y323264D01*
X217215Y323198D01*
X218218D01*
X219218Y323264D01*
X220212Y323398D01*
X221194Y323598D01*
X222161Y323863D01*
X223108Y324191D01*
X224030Y324583D01*
X224925Y325035D01*
X225788Y325546D01*
X226614Y326113D01*
X227401Y326734D01*
X228144Y327407D01*
X228841Y328127D01*
X229488Y328893D01*
X230083Y329700D01*
X230623Y330545D01*
X231104Y331424D01*
X231526Y332333D01*
X231887Y333269D01*
X232184Y334226D01*
X232416Y335201D01*
X232583Y336190D01*
X232683Y337187D01*
X232716Y338189D01*
X332323Y383071D02*
X332289Y384073D01*
X332189Y385070D01*
X332022Y386059D01*
X331790Y387034D01*
X331493Y387991D01*
X331133Y388927D01*
X330711Y389836D01*
X330229Y390715D01*
X329689Y391560D01*
X329095Y392367D01*
X328448Y393133D01*
X327751Y393853D01*
X327007Y394526D01*
X326220Y395147D01*
X325394Y395714D01*
X324532Y396225D01*
X323637Y396677D01*
X322714Y397069D01*
X321767Y397397D01*
X320800Y397662D01*
X319818Y397862D01*
X318824Y397996D01*
X317824Y398063D01*
X316822D01*
X315821Y397996D01*
X314828Y397862D01*
X313845Y397662D01*
X312879Y397397D01*
X311932Y397069D01*
X311009Y396677D01*
X310114Y396225D01*
X309252Y395714D01*
X308425Y395147D01*
X307638Y394526D01*
X306895Y393853D01*
X306198Y393133D01*
X305551Y392367D01*
X304956Y391560D01*
X304417Y390715D01*
X303935Y389836D01*
X303513Y388927D01*
X303153Y387991D01*
X302856Y387034D01*
X302623Y386059D01*
X302457Y385070D01*
X302356Y384073D01*
X302323Y383071D01*
X302356Y382069D01*
X302457Y381072D01*
X302623Y380083D01*
X302856Y379108D01*
X303153Y378151D01*
X303513Y377215D01*
X303935Y376306D01*
X304417Y375427D01*
X304956Y374582D01*
X305551Y373775D01*
X306198Y373009D01*
X306895Y372289D01*
X307638Y371616D01*
X308425Y370995D01*
X309252Y370428D01*
X310114Y369917D01*
X311009Y369465D01*
X311932Y369073D01*
X312879Y368744D01*
X313845Y368480D01*
X314828Y368280D01*
X315821Y368146D01*
X316822Y368079D01*
X317824D01*
X318824Y368146D01*
X319818Y368280D01*
X320800Y368480D01*
X321767Y368744D01*
X322714Y369073D01*
X323637Y369465D01*
X324532Y369917D01*
X325394Y370428D01*
X326220Y370995D01*
X327007Y371616D01*
X327751Y372289D01*
X328448Y373009D01*
X329095Y373775D01*
X329689Y374582D01*
X330229Y375427D01*
X330711Y376306D01*
X331133Y377215D01*
X331493Y378151D01*
X331790Y379108D01*
X332022Y380083D01*
X332189Y381072D01*
X332289Y382069D01*
X332323Y383071D01*
X281500Y386587D02*
X281467Y387589D01*
X281366Y388586D01*
X281199Y389575D01*
X280967Y390550D01*
X280670Y391507D01*
X280310Y392443D01*
X279888Y393352D01*
X279406Y394231D01*
X278867Y395076D01*
X278272Y395883D01*
X277625Y396649D01*
X276928Y397369D01*
X276184Y398042D01*
X275398Y398663D01*
X274571Y399230D01*
X273709Y399741D01*
X272814Y400193D01*
X271891Y400584D01*
X270944Y400913D01*
X269977Y401178D01*
X268995Y401378D01*
X268001Y401511D01*
X267001Y401578D01*
X265999D01*
X264999Y401511D01*
X264005Y401378D01*
X263023Y401178D01*
X262056Y400913D01*
X261109Y400584D01*
X260186Y400193D01*
X259291Y399741D01*
X258429Y399230D01*
X257602Y398663D01*
X256816Y398042D01*
X256072Y397369D01*
X255375Y396649D01*
X254728Y395883D01*
X254133Y395076D01*
X253594Y394231D01*
X253112Y393352D01*
X252690Y392442D01*
X252330Y391507D01*
X252033Y390550D01*
X251801Y389575D01*
X251634Y388586D01*
X251534Y387589D01*
X251500Y386587D01*
X251534Y385585D01*
X251634Y384587D01*
X251801Y383599D01*
X252033Y382624D01*
X252330Y381666D01*
X252690Y380731D01*
X253112Y379822D01*
X253594Y378942D01*
X254133Y378098D01*
X254728Y377291D01*
X255375Y376525D01*
X256072Y375804D01*
X256816Y375132D01*
X257602Y374511D01*
X258429Y373943D01*
X259291Y373432D01*
X260186Y372980D01*
X261109Y372589D01*
X262056Y372260D01*
X263023Y371995D01*
X264005Y371796D01*
X264999Y371662D01*
X265999Y371595D01*
X267001D01*
X268001Y371662D01*
X268995Y371796D01*
X269977Y371995D01*
X270944Y372260D01*
X271891Y372589D01*
X272814Y372980D01*
X273709Y373432D01*
X274571Y373943D01*
X275398Y374511D01*
X276184Y375132D01*
X276928Y375804D01*
X277625Y376525D01*
X278272Y377290D01*
X278867Y378098D01*
X279406Y378942D01*
X279888Y379821D01*
X280310Y380731D01*
X280670Y381666D01*
X280967Y382624D01*
X281199Y383599D01*
X281366Y384587D01*
X281467Y385585D01*
X281500Y386587D01*
X232000Y387193D02*
X231966Y388195D01*
X231866Y389192D01*
X231699Y390181D01*
X231467Y391156D01*
X231170Y392113D01*
X230810Y393049D01*
X230388Y393958D01*
X229906Y394837D01*
X229367Y395682D01*
X228772Y396489D01*
X228125Y397255D01*
X227428Y397975D01*
X226684Y398648D01*
X225898Y399269D01*
X225071Y399836D01*
X224209Y400347D01*
X223314Y400799D01*
X222391Y401191D01*
X221444Y401519D01*
X220477Y401784D01*
X219495Y401984D01*
X218501Y402117D01*
X217501Y402184D01*
X216499D01*
X215499Y402117D01*
X214505Y401984D01*
X213523Y401784D01*
X212556Y401519D01*
X211609Y401191D01*
X210686Y400799D01*
X209791Y400347D01*
X208929Y399836D01*
X208102Y399269D01*
X207316Y398648D01*
X206572Y397975D01*
X205875Y397255D01*
X205228Y396489D01*
X204633Y395682D01*
X204094Y394837D01*
X203612Y393958D01*
X203190Y393049D01*
X202830Y392113D01*
X202533Y391156D01*
X202301Y390181D01*
X202134Y389192D01*
X202033Y388195D01*
X202000Y387193D01*
X202033Y386191D01*
X202134Y385193D01*
X202301Y384205D01*
X202533Y383230D01*
X202830Y382272D01*
X203190Y381337D01*
X203612Y380428D01*
X204094Y379549D01*
X204633Y378704D01*
X205228Y377896D01*
X205875Y377131D01*
X206572Y376410D01*
X207316Y375738D01*
X208102Y375117D01*
X208929Y374549D01*
X209791Y374039D01*
X210686Y373586D01*
X211609Y373195D01*
X212556Y372866D01*
X213523Y372601D01*
X214505Y372402D01*
X215499Y372268D01*
X216499Y372201D01*
X217501D01*
X218501Y372268D01*
X219495Y372402D01*
X220477Y372601D01*
X221444Y372866D01*
X222391Y373195D01*
X223314Y373586D01*
X224209Y374039D01*
X225071Y374549D01*
X225898Y375117D01*
X226684Y375738D01*
X227428Y376410D01*
X228125Y377131D01*
X228772Y377896D01*
X229367Y378704D01*
X229906Y379549D01*
X230388Y380428D01*
X230810Y381337D01*
X231170Y382272D01*
X231467Y383230D01*
X231699Y384205D01*
X231866Y385193D01*
X231966Y386191D01*
X232000Y387193D01*
X291732Y413878D02*
Y434055D01*
X333760D01*
Y413878D02*
Y434055D01*
X291732Y413878D02*
X333760D01*
X200291Y414224D02*
Y434402D01*
X242319D01*
Y414224D02*
Y434402D01*
X200291Y414224D02*
X242319D01*
D11*
X168701Y318504D02*
Y410630D01*
X164862Y414468D02*
X168701Y410630D01*
X148819Y414468D02*
X164862D01*
X144587Y318504D02*
Y410236D01*
X148819Y414468D01*
X144587Y318504D02*
X168701D01*
D12*
X295768Y267028D02*
Y267224D01*
Y267028D02*
X334744D01*
Y289961D01*
X295768D02*
X334744D01*
X295768Y267224D02*
Y289961D01*
X308268Y287106D02*
Y289862D01*
Y287106D02*
X325000D01*
Y289665D01*
X324606D02*
X325000D01*
X190354Y290846D02*
X190748D01*
Y288287D02*
Y290846D01*
X174016Y288287D02*
X190748D01*
X174016D02*
Y291043D01*
X161516Y268406D02*
Y291142D01*
X200492D01*
Y268209D02*
Y291142D01*
X161516Y268209D02*
X200492D01*
X161516D02*
Y268406D01*
M02*
