G04*
G04 #@! TF.GenerationSoftware,Altium Limited,Altium Designer,20.2.6 (244)*
G04*
G04 Layer_Physical_Order=2*
G04 Layer_Color=16711680*
%FSLAX25Y25*%
%MOIN*%
G70*
G04*
G04 #@! TF.SameCoordinates,E07979D3-0FA8-472C-B39E-0A4441D90CF7*
G04*
G04*
G04 #@! TF.FilePolarity,Positive*
G04*
G01*
G75*
%ADD21C,0.03937*%
%ADD22O,0.09843X0.06299*%
%ADD23R,0.09843X0.06299*%
%ADD24R,0.06299X0.09843*%
%ADD25O,0.06299X0.09843*%
%ADD26O,0.06693X0.09843*%
%ADD27R,0.06693X0.09843*%
%ADD28O,0.09400X0.04724*%
%ADD29C,0.06000*%
G36*
X387402Y243960D02*
X386940Y243769D01*
X386614Y244094D01*
X382351D01*
X382172Y244595D01*
X383040Y245307D01*
X384073Y246566D01*
X384841Y248002D01*
X385314Y249560D01*
X385473Y251181D01*
X385314Y252802D01*
X384841Y254360D01*
X384073Y255797D01*
X383040Y257056D01*
X381781Y258089D01*
X380345Y258857D01*
X378786Y259329D01*
X377165Y259489D01*
X375545Y259329D01*
X373986Y258857D01*
X372550Y258089D01*
X371291Y257056D01*
X370258Y255797D01*
X369490Y254360D01*
X369017Y252802D01*
X368858Y251181D01*
X369017Y249560D01*
X369490Y248002D01*
X370258Y246566D01*
X371291Y245307D01*
X372159Y244595D01*
X371980Y244094D01*
X122835D01*
X122441Y451181D01*
X122835Y451575D01*
X387402D01*
Y243960D01*
D02*
G37*
%LPC*%
G36*
X135039Y447678D02*
X133419Y447518D01*
X131860Y447045D01*
X130424Y446278D01*
X129165Y445244D01*
X128132Y443986D01*
X127364Y442549D01*
X126891Y440991D01*
X126732Y439370D01*
X126891Y437749D01*
X127364Y436191D01*
X128132Y434755D01*
X129165Y433496D01*
X130424Y432462D01*
X131860Y431695D01*
X133419Y431222D01*
X135039Y431062D01*
X136660Y431222D01*
X138219Y431695D01*
X139655Y432462D01*
X140914Y433496D01*
X141947Y434755D01*
X142715Y436191D01*
X143187Y437749D01*
X143347Y439370D01*
X143187Y440991D01*
X142715Y442549D01*
X141947Y443986D01*
X140914Y445244D01*
X139655Y446278D01*
X138219Y447045D01*
X136660Y447518D01*
X135039Y447678D01*
D02*
G37*
G36*
X378346Y446890D02*
X376726Y446731D01*
X375167Y446258D01*
X373731Y445490D01*
X372472Y444457D01*
X371439Y443198D01*
X370671Y441762D01*
X370198Y440203D01*
X370039Y438583D01*
X370198Y436962D01*
X370671Y435403D01*
X371439Y433967D01*
X372472Y432708D01*
X373731Y431675D01*
X375167Y430907D01*
X376726Y430435D01*
X378346Y430275D01*
X379967Y430435D01*
X381526Y430907D01*
X382962Y431675D01*
X384221Y432708D01*
X385254Y433967D01*
X386022Y435403D01*
X386494Y436962D01*
X386654Y438583D01*
X386494Y440203D01*
X386022Y441762D01*
X385254Y443198D01*
X384221Y444457D01*
X382962Y445490D01*
X381526Y446258D01*
X379967Y446731D01*
X378346Y446890D01*
D02*
G37*
G36*
X231000Y428934D02*
X229664Y428758D01*
X228419Y428242D01*
X227350Y427422D01*
X226529Y426353D01*
X226329Y425868D01*
X225829D01*
X225628Y426353D01*
X224808Y427422D01*
X223739Y428242D01*
X222494Y428758D01*
X221157Y428934D01*
X219821Y428758D01*
X218576Y428242D01*
X217507Y427422D01*
X216933Y426674D01*
X216433Y426844D01*
Y428890D01*
X206197D01*
Y422498D01*
X186095Y402396D01*
X164370D01*
Y403543D01*
X150591D01*
Y393307D01*
X164370D01*
Y394454D01*
X187740D01*
X188768Y394589D01*
X189726Y394986D01*
X190548Y395617D01*
X210041Y415110D01*
X216433D01*
Y416988D01*
X216927Y417171D01*
X217186Y416934D01*
Y398648D01*
X214662D01*
X213532Y398499D01*
X212478Y398062D01*
X211574Y397368D01*
X210879Y396464D01*
X210443Y395410D01*
X210294Y394280D01*
X210443Y393149D01*
X210879Y392096D01*
X211574Y391191D01*
X212478Y390497D01*
X213532Y390060D01*
X214662Y389912D01*
X219338D01*
X220468Y390060D01*
X221068Y390309D01*
X221157D01*
X222185Y390444D01*
X223143Y390841D01*
X223965Y391472D01*
X224596Y392294D01*
X224993Y393252D01*
X225128Y394280D01*
Y416996D01*
X225628Y417647D01*
X225829Y418132D01*
X226329D01*
X226529Y417647D01*
X227029Y416996D01*
Y410000D01*
X227164Y408972D01*
X227561Y408014D01*
X228192Y407192D01*
X244913Y390472D01*
X245735Y389841D01*
X246693Y389444D01*
X247720Y389309D01*
X262432D01*
X263032Y389060D01*
X264162Y388912D01*
X268838D01*
X269968Y389060D01*
X270568Y389309D01*
X310640D01*
X310682Y389266D01*
X310766Y388633D01*
X311202Y387580D01*
X311896Y386675D01*
X312801Y385981D01*
X313855Y385545D01*
X314985Y385396D01*
X319661D01*
X320791Y385545D01*
X321845Y385981D01*
X322749Y386675D01*
X323444Y387580D01*
X323880Y388633D01*
X324029Y389764D01*
X323880Y390894D01*
X323444Y391948D01*
X322749Y392852D01*
X321845Y393547D01*
X320791Y393983D01*
X319661Y394132D01*
X317049D01*
X315093Y396088D01*
X314271Y396719D01*
X313313Y397115D01*
X312285Y397251D01*
X270568D01*
X269968Y397499D01*
X268838Y397648D01*
X264162D01*
X263032Y397499D01*
X262432Y397251D01*
X249365D01*
X234971Y411645D01*
Y416996D01*
X235471Y417647D01*
X235986Y418892D01*
X236162Y420228D01*
Y423772D01*
X235986Y425108D01*
X235471Y426353D01*
X234650Y427422D01*
X233581Y428242D01*
X232336Y428758D01*
X231000Y428934D01*
D02*
G37*
G36*
X322441Y428587D02*
X321105Y428412D01*
X319860Y427896D01*
X318791Y427075D01*
X317970Y426006D01*
X317770Y425522D01*
X317270D01*
X317069Y426006D01*
X316249Y427075D01*
X315179Y427896D01*
X313934Y428412D01*
X312598Y428587D01*
X311262Y428412D01*
X310017Y427896D01*
X308948Y427075D01*
X308374Y426327D01*
X307874Y426497D01*
Y428543D01*
X297638D01*
Y414764D01*
X307874D01*
Y416641D01*
X308368Y416825D01*
X308627Y416587D01*
Y415602D01*
X308763Y414574D01*
X309159Y413616D01*
X309790Y412794D01*
X328312Y394272D01*
Y316963D01*
X261853D01*
X244905Y333910D01*
X244083Y334541D01*
X243125Y334938D01*
X242098Y335073D01*
X221784D01*
X221185Y335322D01*
X220054Y335471D01*
X215379D01*
X214248Y335322D01*
X213649Y335073D01*
X193312D01*
X186208Y342178D01*
X185386Y342809D01*
X184428Y343206D01*
X183400Y343341D01*
X162484D01*
X161833Y343841D01*
X160588Y344356D01*
X159252Y344532D01*
X155709D01*
X154373Y344356D01*
X153128Y343841D01*
X153019Y343758D01*
X152571Y343979D01*
Y353510D01*
X153494Y354433D01*
X154373Y354069D01*
X155709Y353893D01*
X159252D01*
X160588Y354069D01*
X161833Y354585D01*
X162902Y355405D01*
X163723Y356474D01*
X164238Y357719D01*
X164414Y359055D01*
X164238Y360391D01*
X163723Y361636D01*
X162902Y362705D01*
X161833Y363526D01*
X160588Y364042D01*
X159252Y364217D01*
X155709D01*
X154373Y364042D01*
X153128Y363526D01*
X152471Y363022D01*
X151472Y362891D01*
X150514Y362494D01*
X149692Y361863D01*
X145792Y357963D01*
X145161Y357141D01*
X144764Y356183D01*
X144629Y355155D01*
Y322400D01*
X144764Y321372D01*
X145161Y320414D01*
X145792Y319592D01*
X157192Y308192D01*
X158015Y307561D01*
X158972Y307164D01*
X160000Y307029D01*
X178355D01*
X186974Y298410D01*
Y287020D01*
X186302Y286145D01*
X186274Y286076D01*
X185774D01*
X185745Y286145D01*
X184893Y287255D01*
X183783Y288107D01*
X182490Y288643D01*
X181102Y288825D01*
X179715Y288643D01*
X178422Y288107D01*
X177312Y287255D01*
X177048Y286912D01*
X176575Y287073D01*
Y288780D01*
X165945D01*
Y275000D01*
X176575D01*
Y276707D01*
X177048Y276868D01*
X177312Y276524D01*
X178422Y275672D01*
X179715Y275137D01*
X181102Y274954D01*
X182490Y275137D01*
X183783Y275672D01*
X184893Y276524D01*
X185745Y277635D01*
X185774Y277704D01*
X186274D01*
X186302Y277635D01*
X187154Y276524D01*
X188264Y275672D01*
X189557Y275137D01*
X190945Y274954D01*
X192332Y275137D01*
X193625Y275672D01*
X194736Y276524D01*
X195587Y277635D01*
X196123Y278927D01*
X196306Y280315D01*
Y283465D01*
X196123Y284852D01*
X195587Y286145D01*
X194916Y287020D01*
Y300055D01*
X194781Y301083D01*
X194384Y302041D01*
X193753Y302863D01*
X182808Y313808D01*
X181985Y314439D01*
X181028Y314836D01*
X180000Y314971D01*
X161645D01*
X152571Y324045D01*
Y334761D01*
X153019Y334982D01*
X153128Y334899D01*
X154373Y334384D01*
X155709Y334208D01*
X159252D01*
X160588Y334384D01*
X161833Y334899D01*
X162484Y335399D01*
X181755D01*
X188860Y328294D01*
X189682Y327663D01*
X190640Y327267D01*
X191668Y327131D01*
X213649D01*
X214248Y326883D01*
X215379Y326734D01*
X220054D01*
X221185Y326883D01*
X221784Y327131D01*
X240453D01*
X257400Y310184D01*
X258222Y309553D01*
X259180Y309156D01*
X260208Y309021D01*
X329977D01*
X331005Y309156D01*
X331963Y309553D01*
X332785Y310184D01*
X335091Y312491D01*
X335722Y313313D01*
X336119Y314271D01*
X336254Y315298D01*
Y395917D01*
X336119Y396944D01*
X335722Y397902D01*
X335091Y398724D01*
X316828Y416987D01*
X317069Y417301D01*
X317270Y417785D01*
X317770D01*
X317970Y417301D01*
X318791Y416232D01*
X319860Y415411D01*
X321105Y414896D01*
X322441Y414720D01*
X323777Y414896D01*
X325022Y415411D01*
X326091Y416232D01*
X326912Y417301D01*
X327427Y418546D01*
X327603Y419882D01*
Y423425D01*
X327427Y424761D01*
X326912Y426006D01*
X326091Y427075D01*
X325022Y427896D01*
X323777Y428412D01*
X322441Y428587D01*
D02*
G37*
G36*
X219338Y384868D02*
X214662D01*
X213532Y384719D01*
X212478Y384283D01*
X211574Y383589D01*
X210879Y382684D01*
X210443Y381630D01*
X210294Y380500D01*
X210443Y379369D01*
X210879Y378316D01*
X211574Y377411D01*
X212478Y376717D01*
X213532Y376281D01*
X214662Y376132D01*
X219338D01*
X220468Y376281D01*
X221522Y376717D01*
X222427Y377411D01*
X223121Y378316D01*
X223557Y379369D01*
X223706Y380500D01*
X223557Y381630D01*
X223121Y382684D01*
X222427Y383589D01*
X221522Y384283D01*
X220468Y384719D01*
X219338Y384868D01*
D02*
G37*
G36*
X268838Y383868D02*
X264162D01*
X263032Y383719D01*
X261978Y383283D01*
X261073Y382589D01*
X260379Y381684D01*
X259943Y380630D01*
X259794Y379500D01*
X259943Y378369D01*
X260379Y377316D01*
X261073Y376411D01*
X261978Y375717D01*
X263032Y375281D01*
X264162Y375132D01*
X268838D01*
X269968Y375281D01*
X271022Y375717D01*
X271926Y376411D01*
X272621Y377316D01*
X273057Y378369D01*
X273206Y379500D01*
X273057Y380630D01*
X272621Y381684D01*
X271926Y382589D01*
X271022Y383283D01*
X269968Y383719D01*
X268838Y383868D01*
D02*
G37*
G36*
X159252Y383903D02*
X155709D01*
X154373Y383727D01*
X153128Y383211D01*
X152058Y382390D01*
X151238Y381321D01*
X150722Y380076D01*
X150547Y378740D01*
X150722Y377404D01*
X151238Y376159D01*
X152058Y375090D01*
X153128Y374270D01*
X154373Y373754D01*
X155709Y373578D01*
X159252D01*
X160588Y373754D01*
X161833Y374270D01*
X162902Y375090D01*
X163723Y376159D01*
X164238Y377404D01*
X164414Y378740D01*
X164238Y380076D01*
X163723Y381321D01*
X162902Y382390D01*
X161833Y383211D01*
X160588Y383727D01*
X159252Y383903D01*
D02*
G37*
G36*
X319661Y380352D02*
X314985D01*
X313855Y380203D01*
X312801Y379767D01*
X311896Y379073D01*
X311202Y378168D01*
X310766Y377115D01*
X310617Y375984D01*
X310766Y374854D01*
X311202Y373800D01*
X311896Y372896D01*
X312801Y372201D01*
X313855Y371765D01*
X314985Y371616D01*
X319661D01*
X320791Y371765D01*
X321845Y372201D01*
X322749Y372896D01*
X323444Y373800D01*
X323880Y374854D01*
X324029Y375984D01*
X323880Y377115D01*
X323444Y378168D01*
X322749Y379073D01*
X321845Y379767D01*
X320791Y380203D01*
X319661Y380352D01*
D02*
G37*
G36*
X220054Y349250D02*
X215379D01*
X214248Y349101D01*
X213195Y348665D01*
X212290Y347971D01*
X211596Y347066D01*
X211160Y346012D01*
X211011Y344882D01*
X211160Y343751D01*
X211596Y342698D01*
X212290Y341793D01*
X213195Y341099D01*
X214248Y340663D01*
X215379Y340514D01*
X220054D01*
X221185Y340663D01*
X221784Y340911D01*
X240642D01*
X241266Y340652D01*
X242294Y340517D01*
X262468D01*
X263067Y340269D01*
X264198Y340120D01*
X267953D01*
X268282Y339868D01*
X269240Y339471D01*
X270268Y339336D01*
X312074D01*
X312673Y339088D01*
X313804Y338939D01*
X318480D01*
X319610Y339088D01*
X320664Y339524D01*
X321568Y340218D01*
X322263Y341123D01*
X322699Y342177D01*
X322848Y343307D01*
X322699Y344438D01*
X322263Y345491D01*
X321568Y346396D01*
X320664Y347090D01*
X319610Y347526D01*
X318480Y347675D01*
X313804D01*
X312673Y347526D01*
X312074Y347278D01*
X272191D01*
X271962Y347577D01*
X271057Y348271D01*
X270004Y348707D01*
X268873Y348856D01*
X264198D01*
X263067Y348707D01*
X262468Y348459D01*
X243551D01*
X242928Y348717D01*
X241900Y348853D01*
X221784D01*
X221185Y349101D01*
X220054Y349250D01*
D02*
G37*
G36*
X268873Y335077D02*
X264198D01*
X263067Y334928D01*
X262014Y334491D01*
X261109Y333797D01*
X260415Y332893D01*
X259978Y331839D01*
X259829Y330709D01*
X259978Y329578D01*
X260415Y328525D01*
X261109Y327620D01*
X262014Y326926D01*
X263067Y326489D01*
X264198Y326341D01*
X267839D01*
X268247Y325932D01*
X269069Y325301D01*
X270027Y324904D01*
X271055Y324769D01*
X312804D01*
X313831Y324904D01*
X314447Y325160D01*
X318480D01*
X319610Y325308D01*
X320664Y325745D01*
X321568Y326439D01*
X322263Y327344D01*
X322699Y328397D01*
X322848Y329528D01*
X322699Y330658D01*
X322263Y331712D01*
X321568Y332616D01*
X320664Y333311D01*
X319610Y333747D01*
X318480Y333896D01*
X313804D01*
X312673Y333747D01*
X311620Y333311D01*
X310839Y332711D01*
X272731D01*
X272656Y332893D01*
X271962Y333797D01*
X271057Y334491D01*
X270004Y334928D01*
X268873Y335077D01*
D02*
G37*
G36*
X325197Y287644D02*
X323809Y287461D01*
X322516Y286926D01*
X321406Y286074D01*
X320554Y284964D01*
X320526Y284895D01*
X320026D01*
X319997Y284964D01*
X319145Y286074D01*
X318035Y286926D01*
X316742Y287461D01*
X315354Y287644D01*
X313967Y287461D01*
X312674Y286926D01*
X311564Y286074D01*
X311300Y285731D01*
X310827Y285891D01*
Y287598D01*
X300197D01*
Y273819D01*
X310827D01*
Y275526D01*
X311300Y275687D01*
X311564Y275343D01*
X312674Y274491D01*
X313967Y273956D01*
X315354Y273773D01*
X316742Y273956D01*
X318035Y274491D01*
X319145Y275343D01*
X319997Y276453D01*
X320026Y276522D01*
X320526D01*
X320554Y276453D01*
X321406Y275343D01*
X322516Y274491D01*
X323809Y273956D01*
X325197Y273773D01*
X326584Y273956D01*
X327877Y274491D01*
X328988Y275343D01*
X329839Y276453D01*
X330375Y277746D01*
X330558Y279134D01*
Y282283D01*
X330375Y283671D01*
X329839Y284964D01*
X328988Y286074D01*
X327877Y286926D01*
X326584Y287461D01*
X325197Y287644D01*
D02*
G37*
G36*
X134252Y262245D02*
X132631Y262085D01*
X131073Y261612D01*
X129637Y260845D01*
X128378Y259811D01*
X127344Y258553D01*
X126577Y257116D01*
X126104Y255558D01*
X125944Y253937D01*
X126104Y252316D01*
X126577Y250758D01*
X127344Y249322D01*
X128378Y248063D01*
X129637Y247029D01*
X131073Y246262D01*
X132631Y245789D01*
X134252Y245629D01*
X135873Y245789D01*
X137431Y246262D01*
X138867Y247029D01*
X140126Y248063D01*
X141160Y249322D01*
X141927Y250758D01*
X142400Y252316D01*
X142560Y253937D01*
X142400Y255558D01*
X141927Y257116D01*
X141160Y258553D01*
X140126Y259811D01*
X138867Y260845D01*
X137431Y261612D01*
X135873Y262085D01*
X134252Y262245D01*
D02*
G37*
%LPD*%
D21*
X315198Y389764D02*
X317323D01*
X314834Y390127D02*
X315198Y389764D01*
X266500Y393280D02*
X312285D01*
X314834Y390127D02*
Y390730D01*
X312285Y393280D02*
X314834Y390730D01*
X270268Y343307D02*
X316142D01*
X269086Y344488D02*
X270268Y343307D01*
X242294Y344488D02*
X269086D01*
Y330709D02*
X271055Y328740D01*
X312804D01*
X313591Y329528D01*
X316142D01*
X266535Y330709D02*
X269086D01*
X312598Y415602D02*
X332283Y395917D01*
X260208Y312992D02*
X329977D01*
X332283Y315298D01*
Y395917D01*
X242098Y331102D02*
X260208Y312992D01*
X221157Y394280D02*
Y422000D01*
X217717Y331102D02*
X242098D01*
X312598Y415602D02*
Y421654D01*
X152500Y359055D02*
X157480D01*
X148600Y355155D02*
X152500Y359055D01*
X148600Y322400D02*
Y355155D01*
Y322400D02*
X160000Y311000D01*
X180000D01*
X190945Y300055D01*
Y281890D02*
Y300055D01*
X217000Y394280D02*
X221157D01*
X231000Y410000D02*
Y422000D01*
Y410000D02*
X247720Y393280D01*
X266500D01*
X157480Y398425D02*
X187740D01*
X211315Y422000D01*
X241900Y344882D02*
X242294Y344488D01*
X217717Y344882D02*
X241900D01*
X191668Y331102D02*
X217717D01*
X183400Y339370D02*
X191668Y331102D01*
X157480Y339370D02*
X183400D01*
D22*
X157480Y378740D02*
D03*
Y339370D02*
D03*
Y359055D02*
D03*
D23*
Y398425D02*
D03*
D24*
X302756Y421654D02*
D03*
X211315Y422000D02*
D03*
D25*
X312598Y421654D02*
D03*
X322441D02*
D03*
X221157Y422000D02*
D03*
X231000D02*
D03*
D26*
X325197Y280709D02*
D03*
X315354D02*
D03*
X181102Y281890D02*
D03*
X190945D02*
D03*
D27*
X305512Y280709D02*
D03*
X171260Y281890D02*
D03*
D28*
X316142Y343307D02*
D03*
Y329528D02*
D03*
X266535Y344488D02*
D03*
Y330709D02*
D03*
X217717Y344882D02*
D03*
Y331102D02*
D03*
X317323Y389764D02*
D03*
Y375984D02*
D03*
X266500Y393280D02*
D03*
Y379500D02*
D03*
X217000Y380500D02*
D03*
Y394280D02*
D03*
D29*
X378346Y438583D02*
D03*
X377165Y251181D02*
D03*
X134252Y253937D02*
D03*
X135039Y439370D02*
D03*
M02*
