G04*
G04 #@! TF.GenerationSoftware,Altium Limited,Altium Designer,20.2.6 (244)*
G04*
G04 Layer_Color=16711935*
%FSLAX25Y25*%
%MOIN*%
G70*
G04*
G04 #@! TF.SameCoordinates,E07979D3-0FA8-472C-B39E-0A4441D90CF7*
G04*
G04*
G04 #@! TF.FilePolarity,Negative*
G04*
G01*
G75*
%ADD13O,0.10642X0.07099*%
%ADD14R,0.10642X0.07099*%
%ADD15R,0.07099X0.10642*%
%ADD16O,0.07099X0.10642*%
%ADD17O,0.07493X0.10642*%
%ADD18R,0.07493X0.10642*%
%ADD19O,0.10200X0.05524*%
%ADD20C,0.06800*%
D13*
X157480Y378740D02*
D03*
Y339370D02*
D03*
Y359055D02*
D03*
D14*
Y398425D02*
D03*
D15*
X302756Y421654D02*
D03*
X211315Y422000D02*
D03*
D16*
X312598Y421654D02*
D03*
X322441D02*
D03*
X221157Y422000D02*
D03*
X231000D02*
D03*
D17*
X325197Y280709D02*
D03*
X315354D02*
D03*
X181102Y281890D02*
D03*
X190945D02*
D03*
D18*
X305512Y280709D02*
D03*
X171260Y281890D02*
D03*
D19*
X316142Y343307D02*
D03*
Y329528D02*
D03*
X266535Y344488D02*
D03*
Y330709D02*
D03*
X217717Y344882D02*
D03*
Y331102D02*
D03*
X317323Y389764D02*
D03*
Y375984D02*
D03*
X266500Y393280D02*
D03*
Y379500D02*
D03*
X217000Y380500D02*
D03*
Y394280D02*
D03*
D20*
X378346Y438583D02*
D03*
X377165Y251181D02*
D03*
X134252Y253937D02*
D03*
X135039Y439370D02*
D03*
M02*
