M48
;Layer_Color=9474304
;FILE_FORMAT=2:5
INCH,TZ
;TYPE=PLATED
T1F00S00C0.02756
T2F00S00C0.03150
T3F00S00C0.03937
T4F00S00C0.05118
T5F00S00C0.12598
%
T01
X217717Y331102
Y344882
X217000Y380500
Y394280
X266500Y393280
Y379500
X266535Y344488
Y330709
X316142Y329528
Y343307
X317323Y375984
Y389764
T02
X211315Y422000
X221157
X231000
X302756Y421654
X312598
X322441
T03
X315354Y280709
X325197
X305512
X190945Y281890
X181102
X171260
T04
X157480Y339370
Y359055
Y378740
Y398425
T05
X377165Y251181
X134252Y253937
X135039Y439370
X378346Y438583
M30
