G04*
G04 #@! TF.GenerationSoftware,Altium Limited,Altium Designer,20.2.6 (244)*
G04*
G04 Layer_Physical_Order=1*
G04 Layer_Color=255*
%FSLAX25Y25*%
%MOIN*%
G70*
G04*
G04 #@! TF.SameCoordinates,E07979D3-0FA8-472C-B39E-0A4441D90CF7*
G04*
G04*
G04 #@! TF.FilePolarity,Positive*
G04*
G01*
G75*
%ADD21C,0.03937*%
%ADD22O,0.09843X0.06299*%
%ADD23R,0.09843X0.06299*%
%ADD24R,0.06299X0.09843*%
%ADD25O,0.06299X0.09843*%
%ADD26O,0.06693X0.09843*%
%ADD27R,0.06693X0.09843*%
%ADD28O,0.09400X0.04724*%
%ADD29C,0.06000*%
G36*
X387402Y243960D02*
X386940Y243769D01*
X386614Y244094D01*
X382351D01*
X382172Y244595D01*
X383040Y245307D01*
X384073Y246566D01*
X384841Y248002D01*
X385314Y249560D01*
X385473Y251181D01*
X385314Y252802D01*
X384841Y254360D01*
X384073Y255797D01*
X383040Y257056D01*
X381781Y258089D01*
X380345Y258857D01*
X378786Y259329D01*
X377165Y259489D01*
X375545Y259329D01*
X373986Y258857D01*
X372550Y258089D01*
X371291Y257056D01*
X370258Y255797D01*
X369490Y254360D01*
X369017Y252802D01*
X368858Y251181D01*
X369017Y249560D01*
X369490Y248002D01*
X370258Y246566D01*
X371291Y245307D01*
X372159Y244595D01*
X371980Y244094D01*
X122835D01*
X122441Y451181D01*
X122835Y451575D01*
X387402D01*
Y243960D01*
D02*
G37*
%LPC*%
G36*
X135039Y447678D02*
X133419Y447518D01*
X131860Y447045D01*
X130424Y446278D01*
X129165Y445244D01*
X128132Y443986D01*
X127364Y442549D01*
X126891Y440991D01*
X126732Y439370D01*
X126891Y437749D01*
X127364Y436191D01*
X128132Y434755D01*
X129165Y433496D01*
X130424Y432462D01*
X131860Y431695D01*
X133419Y431222D01*
X135039Y431062D01*
X136660Y431222D01*
X138219Y431695D01*
X139655Y432462D01*
X140914Y433496D01*
X141947Y434755D01*
X142715Y436191D01*
X143187Y437749D01*
X143347Y439370D01*
X143187Y440991D01*
X142715Y442549D01*
X141947Y443986D01*
X140914Y445244D01*
X139655Y446278D01*
X138219Y447045D01*
X136660Y447518D01*
X135039Y447678D01*
D02*
G37*
G36*
X378346Y446890D02*
X376726Y446731D01*
X375167Y446258D01*
X373731Y445490D01*
X372472Y444457D01*
X371439Y443198D01*
X370671Y441762D01*
X370198Y440203D01*
X370039Y438583D01*
X370198Y436962D01*
X370671Y435403D01*
X371439Y433967D01*
X372472Y432708D01*
X373731Y431675D01*
X375167Y430907D01*
X376726Y430435D01*
X378346Y430275D01*
X379967Y430435D01*
X381526Y430907D01*
X382962Y431675D01*
X384221Y432708D01*
X385254Y433967D01*
X386022Y435403D01*
X386494Y436962D01*
X386654Y438583D01*
X386494Y440203D01*
X386022Y441762D01*
X385254Y443198D01*
X384221Y444457D01*
X382962Y445490D01*
X381526Y446258D01*
X379967Y446731D01*
X378346Y446890D01*
D02*
G37*
G36*
X231000Y428934D02*
X229664Y428758D01*
X228419Y428242D01*
X227350Y427422D01*
X226529Y426353D01*
X226329Y425868D01*
X225829D01*
X225628Y426353D01*
X224808Y427422D01*
X223739Y428242D01*
X222494Y428758D01*
X221157Y428934D01*
X219821Y428758D01*
X218576Y428242D01*
X217507Y427422D01*
X216933Y426674D01*
X216433Y426844D01*
Y428890D01*
X206197D01*
Y415110D01*
X207393D01*
X207479Y414457D01*
X207876Y413499D01*
X208507Y412677D01*
X222129Y399055D01*
Y398162D01*
X221681Y397941D01*
X221522Y398062D01*
X220468Y398499D01*
X219338Y398648D01*
X214662D01*
X213532Y398499D01*
X212569Y398100D01*
X194432D01*
X193404Y397965D01*
X192447Y397568D01*
X191624Y396937D01*
X189318Y394631D01*
X188687Y393808D01*
X188290Y392850D01*
X188155Y391823D01*
Y344094D01*
Y331158D01*
X178295Y321297D01*
X177663Y320475D01*
X177267Y319517D01*
X177131Y318489D01*
Y287412D01*
X177075Y287371D01*
X176575Y287628D01*
Y288780D01*
X175231D01*
Y372480D01*
X175095Y373508D01*
X174699Y374466D01*
X174068Y375288D01*
X167808Y381548D01*
X166985Y382179D01*
X166028Y382576D01*
X165000Y382711D01*
X162484D01*
X161833Y383211D01*
X160588Y383727D01*
X159252Y383903D01*
X155709D01*
X154373Y383727D01*
X153128Y383211D01*
X152058Y382390D01*
X151238Y381321D01*
X150722Y380076D01*
X150547Y378740D01*
X150722Y377404D01*
X151238Y376159D01*
X152058Y375090D01*
X153128Y374270D01*
X154373Y373754D01*
X155709Y373578D01*
X159252D01*
X160588Y373754D01*
X161833Y374270D01*
X162484Y374769D01*
X163355D01*
X167289Y370836D01*
Y288780D01*
X165945D01*
Y275000D01*
X176575D01*
Y276707D01*
X177048Y276868D01*
X177312Y276524D01*
X178422Y275672D01*
X179715Y275137D01*
X181102Y274954D01*
X182490Y275137D01*
X183783Y275672D01*
X184893Y276524D01*
X185745Y277635D01*
X185774Y277704D01*
X186274D01*
X186302Y277635D01*
X187154Y276524D01*
X188264Y275672D01*
X189557Y275137D01*
X190945Y274954D01*
X192332Y275137D01*
X193625Y275672D01*
X194736Y276524D01*
X195587Y277635D01*
X196123Y278927D01*
X196306Y280315D01*
Y283465D01*
X196123Y284852D01*
X195587Y286145D01*
X194736Y287255D01*
X193625Y288107D01*
X192332Y288643D01*
X190945Y288825D01*
X189557Y288643D01*
X188264Y288107D01*
X187154Y287255D01*
X186302Y286145D01*
X186274Y286076D01*
X185774D01*
X185745Y286145D01*
X185073Y287020D01*
Y316845D01*
X194934Y326705D01*
X195565Y327527D01*
X195962Y328485D01*
X196097Y329513D01*
Y340124D01*
X214378D01*
X215406Y340259D01*
X216022Y340514D01*
X220054D01*
X221185Y340663D01*
X222238Y341099D01*
X223143Y341793D01*
X223837Y342698D01*
X224274Y343751D01*
X224423Y344882D01*
X224274Y346012D01*
X223837Y347066D01*
X223143Y347971D01*
X222238Y348665D01*
X221185Y349101D01*
X220054Y349250D01*
X215379D01*
X214248Y349101D01*
X213195Y348665D01*
X212414Y348065D01*
X196097D01*
Y390158D01*
X213296D01*
X213532Y390060D01*
X214662Y389912D01*
X219338D01*
X220468Y390060D01*
X221522Y390497D01*
X221681Y390619D01*
X222129Y390397D01*
Y386800D01*
X217247Y384868D01*
X214662D01*
X213532Y384719D01*
X212478Y384283D01*
X211574Y383589D01*
X210879Y382684D01*
X210443Y381630D01*
X210294Y380500D01*
X210443Y379369D01*
X210879Y378316D01*
X211574Y377411D01*
X212478Y376717D01*
X213532Y376281D01*
X214662Y376132D01*
X219338D01*
X220468Y376281D01*
X221522Y376717D01*
X222427Y377411D01*
X223121Y378316D01*
X223287Y378717D01*
X227561Y380408D01*
X227816Y380549D01*
X228085Y380661D01*
X228267Y380800D01*
X228467Y380911D01*
X228676Y381114D01*
X228908Y381292D01*
X229047Y381473D01*
X229211Y381633D01*
X229361Y381883D01*
X229539Y382115D01*
X229626Y382326D01*
X229744Y382522D01*
X229824Y382803D01*
X229936Y383072D01*
X229965Y383299D01*
X230028Y383519D01*
X230033Y383811D01*
X230071Y384100D01*
Y400700D01*
X229936Y401728D01*
X229539Y402685D01*
X228908Y403508D01*
X216433Y415983D01*
Y417156D01*
X216933Y417326D01*
X217507Y416578D01*
X218576Y415758D01*
X219821Y415242D01*
X221157Y415066D01*
X222494Y415242D01*
X223739Y415758D01*
X224808Y416578D01*
X225628Y417647D01*
X225829Y418132D01*
X226329D01*
X226529Y417647D01*
X227350Y416578D01*
X228419Y415758D01*
X229664Y415242D01*
X231000Y415066D01*
X232336Y415242D01*
X233581Y415758D01*
X234650Y416578D01*
X235471Y417647D01*
X235986Y418892D01*
X236162Y420228D01*
Y423772D01*
X235986Y425108D01*
X235471Y426353D01*
X234650Y427422D01*
X233581Y428242D01*
X232336Y428758D01*
X231000Y428934D01*
D02*
G37*
G36*
X322441Y428587D02*
X321105Y428412D01*
X319860Y427896D01*
X318791Y427075D01*
X317970Y426006D01*
X317770Y425522D01*
X317270D01*
X317069Y426006D01*
X316249Y427075D01*
X315179Y427896D01*
X313934Y428412D01*
X312598Y428587D01*
X311262Y428412D01*
X310017Y427896D01*
X308948Y427075D01*
X308374Y426327D01*
X307874Y426497D01*
Y428543D01*
X297638D01*
Y414764D01*
X298901D01*
X298920Y414616D01*
X299317Y413659D01*
X299948Y412836D01*
X318190Y394594D01*
X317999Y394132D01*
X314985D01*
X313855Y393983D01*
X313255Y393735D01*
X295276D01*
X294248Y393600D01*
X293290Y393203D01*
X292468Y392572D01*
X279476Y379580D01*
X278844Y378757D01*
X278448Y377799D01*
X278312Y376772D01*
Y290945D01*
X278448Y289917D01*
X278844Y288959D01*
X279476Y288137D01*
X289318Y278294D01*
X290141Y277663D01*
X291098Y277267D01*
X292126Y277131D01*
X300197D01*
Y273819D01*
X310827D01*
Y275526D01*
X311300Y275687D01*
X311564Y275343D01*
X312674Y274491D01*
X313967Y273956D01*
X315354Y273773D01*
X316742Y273956D01*
X318035Y274491D01*
X319145Y275343D01*
X319997Y276453D01*
X320026Y276522D01*
X320526D01*
X320554Y276453D01*
X321406Y275343D01*
X322516Y274491D01*
X323809Y273956D01*
X325197Y273773D01*
X326584Y273956D01*
X327877Y274491D01*
X328988Y275343D01*
X329839Y276453D01*
X330375Y277746D01*
X330558Y279134D01*
Y282283D01*
X330375Y283671D01*
X329839Y284964D01*
X329168Y285839D01*
Y300500D01*
X329032Y301528D01*
X328636Y302485D01*
X328005Y303308D01*
X320113Y311200D01*
Y325517D01*
X320210Y325557D01*
X328740D01*
X329768Y325692D01*
X330726Y326089D01*
X331548Y326720D01*
X342572Y337743D01*
X343203Y338566D01*
X343599Y339523D01*
X343735Y340551D01*
Y404331D01*
X343599Y405359D01*
X343203Y406316D01*
X342572Y407139D01*
X327603Y422107D01*
Y423425D01*
X327427Y424761D01*
X326912Y426006D01*
X326091Y427075D01*
X325022Y427896D01*
X323777Y428412D01*
X322441Y428587D01*
D02*
G37*
G36*
X164370Y403543D02*
X150591D01*
Y393307D01*
X164370D01*
Y403543D01*
D02*
G37*
G36*
X268838Y397648D02*
X264162D01*
X263032Y397499D01*
X261978Y397062D01*
X261073Y396368D01*
X260379Y395464D01*
X259943Y394410D01*
X259794Y393280D01*
X259943Y392149D01*
X260379Y391096D01*
X261073Y390191D01*
X261978Y389497D01*
X263032Y389060D01*
X264162Y388912D01*
X268838D01*
X269968Y389060D01*
X271022Y389497D01*
X271926Y390191D01*
X272621Y391096D01*
X273057Y392149D01*
X273206Y393280D01*
X273057Y394410D01*
X272621Y395464D01*
X271926Y396368D01*
X271022Y397062D01*
X269968Y397499D01*
X268838Y397648D01*
D02*
G37*
G36*
X159252Y364217D02*
X155709D01*
X154373Y364042D01*
X153128Y363526D01*
X152058Y362705D01*
X151238Y361636D01*
X150722Y360391D01*
X150547Y359055D01*
X150722Y357719D01*
X151238Y356474D01*
X152058Y355405D01*
X153128Y354585D01*
X154373Y354069D01*
X155709Y353893D01*
X159252D01*
X160588Y354069D01*
X161833Y354585D01*
X162902Y355405D01*
X163723Y356474D01*
X164238Y357719D01*
X164414Y359055D01*
X164238Y360391D01*
X163723Y361636D01*
X162902Y362705D01*
X161833Y363526D01*
X160588Y364042D01*
X159252Y364217D01*
D02*
G37*
G36*
X268838Y383868D02*
X264162D01*
X263032Y383719D01*
X261978Y383283D01*
X261073Y382589D01*
X260379Y381684D01*
X259943Y380630D01*
X259794Y379500D01*
X259943Y378369D01*
X260379Y377316D01*
X261073Y376411D01*
X261978Y375717D01*
X262529Y375489D01*
Y361935D01*
X262564Y361666D01*
Y348499D01*
X262014Y348271D01*
X261109Y347577D01*
X260415Y346672D01*
X259978Y345619D01*
X259829Y344488D01*
X259978Y343358D01*
X260415Y342304D01*
X261109Y341400D01*
X262014Y340705D01*
X263067Y340269D01*
X264198Y340120D01*
X268873D01*
X270004Y340269D01*
X271057Y340705D01*
X271962Y341400D01*
X272656Y342304D01*
X273092Y343358D01*
X273241Y344488D01*
X273092Y345619D01*
X272656Y346672D01*
X271962Y347577D01*
X271057Y348271D01*
X270506Y348499D01*
Y361900D01*
X270471Y362169D01*
Y375489D01*
X271022Y375717D01*
X271926Y376411D01*
X272621Y377316D01*
X273057Y378369D01*
X273206Y379500D01*
X273057Y380630D01*
X272621Y381684D01*
X271926Y382589D01*
X271022Y383283D01*
X269968Y383719D01*
X268838Y383868D01*
D02*
G37*
G36*
X159252Y344532D02*
X155709D01*
X154373Y344356D01*
X153128Y343841D01*
X152058Y343020D01*
X151238Y341951D01*
X150722Y340706D01*
X150547Y339370D01*
X150722Y338034D01*
X151238Y336789D01*
X152058Y335720D01*
X153128Y334899D01*
X154373Y334384D01*
X155709Y334208D01*
X159252D01*
X160588Y334384D01*
X161833Y334899D01*
X162902Y335720D01*
X163723Y336789D01*
X164238Y338034D01*
X164414Y339370D01*
X164238Y340706D01*
X163723Y341951D01*
X162902Y343020D01*
X161833Y343841D01*
X160588Y344356D01*
X159252Y344532D01*
D02*
G37*
G36*
X220054Y335471D02*
X215379D01*
X214248Y335322D01*
X213195Y334885D01*
X212290Y334191D01*
X211596Y333286D01*
X211160Y332233D01*
X211011Y331102D01*
X211160Y329972D01*
X211596Y328918D01*
X212290Y328014D01*
X213195Y327320D01*
X214248Y326883D01*
X215379Y326734D01*
X220054D01*
X221185Y326883D01*
X222238Y327320D01*
X223143Y328014D01*
X223837Y328918D01*
X224274Y329972D01*
X224423Y331102D01*
X224274Y332233D01*
X223837Y333286D01*
X223143Y334191D01*
X222238Y334885D01*
X221185Y335322D01*
X220054Y335471D01*
D02*
G37*
G36*
X268873Y335077D02*
X264198D01*
X263067Y334928D01*
X262014Y334491D01*
X261109Y333797D01*
X260415Y332893D01*
X259978Y331839D01*
X259829Y330709D01*
X259978Y329578D01*
X260415Y328525D01*
X261109Y327620D01*
X262014Y326926D01*
X263067Y326489D01*
X264198Y326341D01*
X268873D01*
X270004Y326489D01*
X271057Y326926D01*
X271962Y327620D01*
X272656Y328525D01*
X273092Y329578D01*
X273241Y330709D01*
X273092Y331839D01*
X272656Y332893D01*
X271962Y333797D01*
X271057Y334491D01*
X270004Y334928D01*
X268873Y335077D01*
D02*
G37*
G36*
X134252Y262245D02*
X132631Y262085D01*
X131073Y261612D01*
X129637Y260845D01*
X128378Y259811D01*
X127344Y258553D01*
X126577Y257116D01*
X126104Y255558D01*
X125944Y253937D01*
X126104Y252316D01*
X126577Y250758D01*
X127344Y249322D01*
X128378Y248063D01*
X129637Y247029D01*
X131073Y246262D01*
X132631Y245789D01*
X134252Y245629D01*
X135873Y245789D01*
X137431Y246262D01*
X138867Y247029D01*
X140126Y248063D01*
X141160Y249322D01*
X141927Y250758D01*
X142400Y252316D01*
X142560Y253937D01*
X142400Y255558D01*
X141927Y257116D01*
X141160Y258553D01*
X140126Y259811D01*
X138867Y260845D01*
X137431Y261612D01*
X135873Y262085D01*
X134252Y262245D01*
D02*
G37*
%LPD*%
G36*
X317970Y417301D02*
X318791Y416232D01*
X319860Y415411D01*
X321105Y414896D01*
X322441Y414720D01*
X323606Y414873D01*
X335793Y402686D01*
Y342196D01*
X327095Y333499D01*
X320210D01*
X319610Y333747D01*
X318480Y333896D01*
X313804D01*
X312940Y333782D01*
X312706Y334255D01*
X317389Y338939D01*
X318480D01*
X319610Y339088D01*
X320664Y339524D01*
X321568Y340218D01*
X322263Y341123D01*
X322699Y342177D01*
X322848Y343307D01*
X322699Y344438D01*
X322263Y345491D01*
X321568Y346396D01*
X321294Y346606D01*
Y371973D01*
X321845Y372201D01*
X322749Y372896D01*
X323444Y373800D01*
X323664Y374332D01*
X328768Y379436D01*
X329399Y380258D01*
X329796Y381216D01*
X329931Y382244D01*
Y392440D01*
X329796Y393468D01*
X329399Y394426D01*
X328768Y395248D01*
X307874Y416142D01*
Y416810D01*
X308374Y416980D01*
X308948Y416232D01*
X310017Y415411D01*
X311262Y414896D01*
X312598Y414720D01*
X313934Y414896D01*
X315179Y415411D01*
X316249Y416232D01*
X317069Y417301D01*
X317270Y417785D01*
X317770D01*
X317970Y417301D01*
D02*
G37*
G36*
X321989Y385500D02*
Y383889D01*
X318452Y380352D01*
X314985D01*
X313855Y380203D01*
X312801Y379767D01*
X311896Y379073D01*
X311202Y378168D01*
X310766Y377115D01*
X310617Y375984D01*
X310766Y374854D01*
X311202Y373800D01*
X311896Y372896D01*
X312801Y372201D01*
X313352Y371973D01*
Y347616D01*
X312673Y347526D01*
X311620Y347090D01*
X310715Y346396D01*
X310021Y345491D01*
X309585Y344438D01*
X309436Y343307D01*
X309563Y342344D01*
X304292Y337073D01*
X303661Y336251D01*
X303264Y335293D01*
X303129Y334265D01*
Y309200D01*
X303264Y308172D01*
X303661Y307214D01*
X304292Y306392D01*
X311383Y299301D01*
Y286230D01*
X311327Y286190D01*
X310827Y286447D01*
Y287598D01*
X300197D01*
Y285073D01*
X293771D01*
X286254Y292590D01*
Y375127D01*
X296920Y385793D01*
X313255D01*
X313855Y385545D01*
X314985Y385396D01*
X319661D01*
X320791Y385545D01*
X321489Y385834D01*
X321989Y385500D01*
D02*
G37*
G36*
X321226Y298855D02*
Y285839D01*
X320554Y284964D01*
X320526Y284895D01*
X320026D01*
X319997Y284964D01*
X319325Y285839D01*
Y300102D01*
X319787Y300294D01*
X321226Y298855D01*
D02*
G37*
D21*
X292126Y281102D02*
X304134D01*
X282283Y290945D02*
Y376772D01*
Y290945D02*
X292126Y281102D01*
X339764Y340551D02*
Y404331D01*
X316142Y329528D02*
X328740D01*
X339764Y340551D01*
X322441Y420521D02*
Y421654D01*
Y420521D02*
X323532Y419430D01*
X324665D01*
X339764Y404331D01*
X192126Y329513D02*
Y344094D01*
Y391823D01*
X215166Y344882D02*
X217717D01*
X214378Y344094D02*
X215166Y344882D01*
X192126Y344094D02*
X214378D01*
X181102Y318489D02*
X192126Y329513D01*
X181102Y281890D02*
Y318489D01*
X192126Y391823D02*
X194432Y394129D01*
X216849D01*
X217000Y394280D01*
X304528Y280709D02*
X305512D01*
X304134Y281102D02*
X304528Y280709D01*
X282283Y376772D02*
X295276Y389764D01*
X317323D01*
Y343307D02*
Y375984D01*
X211315Y415485D02*
Y422000D01*
Y415485D02*
X226100Y400700D01*
Y384100D02*
Y400700D01*
X217000Y380500D02*
X226100Y384100D01*
X302756Y415644D02*
Y421654D01*
Y415644D02*
X325960Y392440D01*
Y382244D02*
Y392440D01*
X319700Y375984D02*
X325960Y382244D01*
X317323Y375984D02*
X319700D01*
X171260Y281890D02*
Y372480D01*
X165000Y378740D02*
X171260Y372480D01*
X157480Y378740D02*
X165000D01*
X316142Y343307D02*
X317323D01*
X315354Y280709D02*
Y300946D01*
X307100Y309200D02*
X315354Y300946D01*
X307100Y309200D02*
Y334265D01*
X316142Y343307D01*
X266500Y361935D02*
Y379500D01*
Y361935D02*
X266535Y361900D01*
Y344488D02*
Y361900D01*
X316142Y309555D02*
Y329528D01*
Y309555D02*
X325197Y300500D01*
Y280709D02*
Y300500D01*
D22*
X157480Y378740D02*
D03*
Y339370D02*
D03*
Y359055D02*
D03*
D23*
Y398425D02*
D03*
D24*
X302756Y421654D02*
D03*
X211315Y422000D02*
D03*
D25*
X312598Y421654D02*
D03*
X322441D02*
D03*
X221157Y422000D02*
D03*
X231000D02*
D03*
D26*
X325197Y280709D02*
D03*
X315354D02*
D03*
X181102Y281890D02*
D03*
X190945D02*
D03*
D27*
X305512Y280709D02*
D03*
X171260Y281890D02*
D03*
D28*
X316142Y343307D02*
D03*
Y329528D02*
D03*
X266535Y344488D02*
D03*
Y330709D02*
D03*
X217717Y344882D02*
D03*
Y331102D02*
D03*
X317323Y389764D02*
D03*
Y375984D02*
D03*
X266500Y393280D02*
D03*
Y379500D02*
D03*
X217000Y380500D02*
D03*
Y394280D02*
D03*
D29*
X378346Y438583D02*
D03*
X377165Y251181D02*
D03*
X134252Y253937D02*
D03*
X135039Y439370D02*
D03*
M02*
