%FSTAX23Y23*%
%MOIN*%
%SFA1B1*%

%IPPOS*%
%ADD22C,0.015750*%
%ADD23O,0.098430X0.047240*%
%ADD24R,0.098430X0.047240*%
%ADD25O,0.047240X0.098430*%
%ADD26R,0.047240X0.098430*%
%ADD27R,0.062990X0.098430*%
%ADD28O,0.062990X0.098430*%
%ADD29O,0.062990X0.078740*%
%ADD30R,0.062990X0.078740*%
%ADD31C,0.060000*%
%ADD32C,0.050000*%
%LNbutton_pad-1*%
%LPD*%
G36*
X08503Y02539D02*
Y00039D01*
X08011*
X08007Y00044*
X07999Y00055*
X07994Y00067*
X07992Y0008*
Y00086*
Y00295*
X07991Y00304*
X07988Y00322*
X0798Y0034*
X0797Y00355*
X07964Y00362*
X07686Y0064*
X07679Y00646*
X07663Y00657*
X07645Y00664*
X07625Y00668*
X07616Y00669*
X07265*
X07256Y00668*
X07236Y00664*
X07218Y00657*
X07202Y00646*
X07195Y0064*
X06879Y00324*
X06873Y00317*
X06862Y003*
X06854Y00282*
X0685Y00263*
X0685Y00253*
Y00039*
X05355Y0002*
X05349Y00023*
X05336Y00031*
X05326Y00041*
X05317Y00054*
X05312Y00068*
X05309Y00082*
X05309Y00097*
X05312Y00112*
X05315Y00119*
X05255Y00677*
Y00677*
X05254Y00686*
X05249Y00702*
X05242Y00717*
X05232Y00731*
X05226Y00737*
X05027Y00936*
X05022Y00942*
X05009Y00952*
X04996Y00961*
X04982Y00968*
X04967Y00974*
X04952Y00979*
X04936Y00982*
X04921Y00984*
X04913Y00984*
X01031*
X01025Y00983*
X01012Y00981*
X01Y00976*
X00989Y00969*
X00987Y00969*
X00984Y0097*
Y02575*
X00987Y02578*
X08503Y02539*
G37*
%LNbutton_pad-2*%
%LPC*%
G36*
X0807Y02435D02*
X08056Y02434D01*
X08042Y02429*
X0803Y02423*
X08019Y02414*
X08009Y02402*
X08003Y0239*
X07998Y02376*
X07997Y02362*
X07998Y02347*
X08003Y02334*
X08009Y02321*
X08019Y0231*
X0803Y02301*
X08042Y02294*
X08056Y0229*
X0807Y02288*
X08085Y0229*
X08098Y02294*
X08111Y02301*
X08122Y0231*
X08131Y02321*
X08138Y02334*
X08142Y02347*
X08144Y02362*
X08142Y02376*
X08138Y0239*
X08131Y02402*
X08122Y02414*
X08111Y02423*
X08098Y02429*
X08085Y02434*
X0807Y02435*
G37*
G36*
X01181D02*
X01166Y02434D01*
X01153Y02429*
X0114Y02423*
X01129Y02414*
X0112Y02402*
X01113Y0239*
X01109Y02376*
X01107Y02362*
X01109Y02347*
X01113Y02334*
X0112Y02321*
X01129Y0231*
X0114Y02301*
X01153Y02294*
X01166Y0229*
X01181Y02288*
X01195Y0229*
X01209Y02294*
X01221Y02301*
X01232Y0231*
X01242Y02321*
X01248Y02334*
X01253Y02347*
X01254Y02362*
X01253Y02376*
X01248Y0239*
X01242Y02402*
X01232Y02414*
X01221Y02423*
X01209Y02429*
X01195Y02434*
X01181Y02435*
G37*
G36*
X06594Y02323D02*
X06583Y02321D01*
X06573Y02317*
X06564Y02311*
X06558Y02302*
X06554Y02292*
X06552Y02281*
Y02246*
X06554Y02235*
X06558Y02225*
X06564Y02216*
X06573Y02209*
X06583Y02205*
X06594Y02204*
X06605Y02205*
X06615Y02209*
X06624Y02216*
X0663Y02225*
X06634Y02235*
X06636Y02246*
Y02281*
X06634Y02292*
X0663Y02302*
X06624Y02311*
X06615Y02317*
X06605Y02321*
X06594Y02323*
G37*
G36*
X02935Y02303D02*
X02852D01*
Y02184*
X02935*
Y02303*
G37*
G36*
X02795Y02303D02*
X02784Y02302D01*
X02774Y02298*
X02765Y02291*
X02759Y02282*
X02754Y02272*
X02753Y02261*
Y02226*
X02754Y02215*
X02759Y02205*
X02765Y02196*
X02774Y0219*
X02784Y02185*
X02795Y02184*
X02806Y02185*
X02816Y0219*
X02824Y02196*
X02831Y02205*
X02835Y02215*
X02837Y02226*
Y02261*
X02835Y02272*
X02831Y02282*
X02824Y02291*
X02816Y02298*
X02806Y02302*
X02795Y02303*
G37*
G36*
X02696D02*
X02686Y02302D01*
X02675Y02298*
X02667Y02291*
X0266Y02282*
X02656Y02272*
X02655Y02261*
Y02226*
X02656Y02215*
X0266Y02205*
X02667Y02196*
X02675Y0219*
X02686Y02185*
X02696Y02184*
X02707Y02185*
X02717Y0219*
X02726Y02196*
X02733Y02205*
X02737Y02215*
X02738Y02226*
Y02261*
X02737Y02272*
X02733Y02282*
X02726Y02291*
X02717Y02298*
X02707Y02302*
X02696Y02303*
G37*
G36*
X025D02*
X02489Y02302D01*
X02479Y02298*
X0247Y02291*
X02463Y02282*
X02459Y02272*
X02458Y02261*
Y02226*
X02459Y02215*
X02463Y02205*
X0247Y02196*
X02479Y0219*
X02489Y02185*
X025Y02184*
X0251Y02185*
X0252Y0219*
X02529Y02196*
X02536Y02205*
X0254Y02215*
X02541Y02226*
Y02261*
X0254Y02272*
X02536Y02282*
X02529Y02291*
X0252Y02298*
X0251Y02302*
X025Y02303*
G37*
G36*
X02401D02*
X0239Y02302D01*
X0238Y02298*
X02371Y02291*
X02365Y02282*
X02361Y02272*
X02359Y02261*
Y02226*
X02361Y02215*
X02365Y02205*
X02371Y02196*
X0238Y0219*
X0239Y02185*
X02401Y02184*
X02412Y02185*
X02422Y0219*
X02431Y02196*
X02437Y02205*
X02442Y02215*
X02443Y02226*
Y02261*
X02442Y02272*
X02437Y02282*
X02431Y02291*
X02422Y02298*
X02412Y02302*
X02401Y02303*
G37*
G36*
X04527Y02317D02*
X04513Y02316D01*
X04499Y02311*
X04486Y02305*
X04475Y02295*
X04466Y02284*
X04459Y02272*
X04455Y02258*
X04454Y02244*
X04455Y02229*
X04459Y02216*
X04466Y02203*
X04475Y02192*
X04486Y02183*
X04499Y02176*
X04513Y02172*
X04527Y0217*
X04541Y02172*
X04555Y02176*
X04568Y02183*
X04579Y02192*
X04588Y02203*
X04595Y02216*
X04599Y02229*
X046Y02244*
X04599Y02258*
X04595Y02272*
X04588Y02284*
X04579Y02295*
X04568Y02305*
X04555Y02311*
X04541Y02316*
X04527Y02317*
G37*
G36*
X03534Y01931D02*
D01*
X03035*
X03028Y01929*
X03022Y01925*
X02979Y01882*
X02975Y01877*
X02973Y0187*
Y01739*
X02941Y01707*
X02893*
X02891Y01711*
X02892Y01713*
X02895Y01721*
X02897Y0173*
X02895Y01739*
X02892Y01747*
X02887Y01754*
X0288Y01759*
X02871Y01763*
X02863Y01764*
X02811*
X02803Y01763*
X02795Y01759*
X02788Y01754*
X02782Y01747*
X02779Y01739*
X02778Y0173*
X02779Y01721*
X02782Y01713*
X02784Y01711*
X02783Y0171*
X02781Y01707*
X02775Y01705*
X02769Y01701*
X02546Y01478*
X02542Y01473*
X0254Y01466*
Y01373*
X02538Y01372*
X02529Y01366*
X02522Y01357*
X02518Y01347*
X02517Y01336*
Y01301*
X02518Y0129*
X02522Y0128*
X02529Y01271*
X02538Y01264*
X02548Y0126*
X02559Y01259*
X02569Y0126*
X02579Y01264*
X02588Y01271*
X02595Y0128*
X02599Y0129*
X026Y01301*
Y01336*
X02599Y01347*
X02595Y01357*
X02588Y01366*
X02579Y01372*
X02577Y01373*
Y01458*
X02789Y0167*
X02809*
X02809Y01665*
X02803Y01664*
X02795Y01661*
X02788Y01656*
X02782Y01649*
X02779Y0164*
X02778Y01632*
X02779Y01623*
X02782Y01615*
X02788Y01608*
X02795Y01602*
X02803Y01599*
X02811Y01598*
X02863*
X02871Y01599*
X0288Y01602*
X02887Y01608*
X02892Y01615*
X02895Y01623*
X02897Y01632*
X02895Y0164*
X02892Y01649*
X02887Y01656*
X0288Y01661*
X02871Y01664*
X02865Y01665*
X02865Y0167*
X02948*
X02955Y01672*
X02961Y01676*
X03005Y01719*
X03008Y01725*
X0301Y01732*
Y01862*
X03042Y01894*
X03526*
X03654Y01767*
X0366Y01763*
X03667Y01761*
X03734*
X03735Y01756*
X03732Y01754*
X03728Y01748*
X03715*
X03708Y01747*
X03702Y01743*
X03545Y01586*
X03541Y0158*
X0354Y01573*
Y01328*
X03516*
Y0123*
X03599*
Y01328*
X03576*
Y01566*
X03722Y01712*
X03728*
X03732Y01706*
X03739Y01701*
X03748Y01697*
X03756Y01696*
X03808*
X03816Y01697*
X03825Y01701*
X03832Y01706*
X03837Y01713*
X0384Y01721*
X03841Y0173*
X0384Y01739*
X03837Y01747*
X03832Y01754*
X03829Y01756*
X0383Y01761*
X0397*
X03971Y01756*
X03969Y01754*
X03963Y01747*
X0396Y01739*
X03959Y0173*
X0396Y01721*
X03963Y01713*
X03969Y01706*
X0397Y01705*
X03969Y017*
X03963*
X03957Y01706*
X0395Y01712*
X03942Y01716*
X03933Y01717*
X03923Y01716*
X03915Y01712*
X03908Y01706*
X03902Y01699*
X03898Y01691*
X03897Y01682*
X03898Y01672*
X03902Y01664*
X03908Y01657*
X03915Y01651*
X03923Y01647*
X03933Y01646*
X03942Y01647*
X0395Y01651*
X03957Y01657*
X03963Y01663*
X0397*
X03972Y01658*
X03969Y01656*
X03963Y01649*
X0396Y0164*
X03959Y01632*
X0396Y01623*
X03963Y01615*
X03969Y01608*
X03976Y01602*
X03984Y01599*
X03993Y01598*
X04044*
X04053Y01599*
X04061Y01602*
X04068Y01608*
X04073Y01615*
X04077Y01623*
X04078Y01632*
X04077Y0164*
X04073Y01649*
X04068Y01656*
X04064Y01658*
X04066Y01663*
X04134*
X0414Y01665*
X04146Y01669*
X04259Y01781*
X04325*
X04326Y01776*
X04323Y01774*
X04318Y01767*
X04314Y01759*
X04313Y0175*
X04314Y01741*
X04318Y01733*
X04323Y01726*
X0433Y0172*
X04338Y01717*
X04347Y01716*
X04398*
X04407Y01717*
X04415Y0172*
X04422Y01726*
X04427Y01733*
X04431Y01741*
X04432Y0175*
X04431Y01759*
X04427Y01767*
X04422Y01774*
X04419Y01776*
X0442Y01781*
X04507*
X04513Y01783*
X04519Y01787*
X04557Y01824*
X04559Y01824*
X04566Y01819*
X04574Y01815*
X04583Y01814*
X04634*
X04643Y01815*
X04651Y01819*
X04658Y01824*
X04664Y01831*
X04667Y01839*
X04668Y01848*
X04667Y01857*
X04664Y01865*
X04658Y01872*
X04651Y01878*
X04643Y01881*
X04634Y01882*
X04583*
X04574Y01881*
X04566Y01878*
X04559Y01872*
X04555Y01866*
X04548Y01865*
X04542Y01861*
X04499Y01818*
X04432*
Y01882*
X04313*
Y01818*
X04252*
X04245Y01816*
X04239Y01812*
X04126Y017*
X04068*
X04066Y01705*
X04068Y01706*
X04073Y01713*
X04077Y01721*
X04078Y0173*
X04077Y01739*
X04073Y01747*
X04068Y01754*
X04061Y01759*
X04053Y01763*
X04044Y01764*
X0401*
X04007Y01769*
X04009Y01773*
X04011Y0178*
Y01795*
X04044*
X04053Y01796*
X04061Y01799*
X04068Y01805*
X04073Y01812*
X04077Y0182*
X04078Y01829*
X04077Y01837*
X04073Y01845*
X04068Y01853*
X04061Y01858*
X04053Y01861*
X04044Y01862*
X03993*
X03984Y01861*
X03976Y01858*
X03969Y01853*
X03963Y01845*
X0396Y01837*
X03959Y01829*
X0396Y0182*
X03963Y01812*
X03969Y01805*
X03971Y01803*
X03969Y01798*
X03841*
Y01862*
X03723*
Y01798*
X03674*
X03546Y01925*
X0354Y01929*
X03534Y01931*
G37*
G36*
X06692Y02323D02*
X06682Y02321D01*
X06671Y02317*
X06663Y02311*
X06656Y02302*
X06652Y02292*
X06651Y02281*
Y02246*
X06652Y02235*
X06656Y02225*
X06663Y02216*
X06671Y02209*
X06674Y02208*
Y01909*
X06676Y01902*
X0668Y01896*
X06712Y01864*
Y01807*
X06702*
X06514Y01995*
Y02208*
X06516Y02209*
X06525Y02216*
X06532Y02225*
X06536Y02235*
X06537Y02246*
Y02281*
X06536Y02292*
X06532Y02302*
X06525Y02311*
X06516Y02317*
X06506Y02321*
X06496Y02323*
X06485Y02321*
X06475Y02317*
X06466Y02311*
X06459Y02302*
X06455Y02292*
X06454Y02281*
Y02246*
X06455Y02235*
X06459Y02225*
X06466Y02216*
X06475Y02209*
X06477Y02208*
Y01988*
X06479Y01981*
X06483Y01975*
X06682Y01776*
X06688Y01772*
X06695Y0177*
X06742*
X06742Y01765*
X06737Y01765*
X06729Y01761*
X06722Y01756*
X06717Y0175*
X06602*
X06553Y01798*
Y0187*
X06552Y01877*
X06548Y01882*
X06415Y02015*
Y02208*
X06418Y02209*
X06427Y02216*
X06433Y02225*
X06438Y02235*
X06439Y02246*
Y02281*
X06438Y02292*
X06433Y02302*
X06427Y02311*
X06418Y02317*
X06408Y02321*
X06397Y02323*
X06386Y02321*
X06376Y02317*
X06368Y02311*
X06361Y02302*
X06357Y02292*
X06355Y02281*
Y02246*
X06357Y02235*
X06361Y02225*
X06368Y02216*
X06376Y02209*
X06379Y02208*
Y02007*
X0638Y02*
X06384Y01994*
X06517Y01862*
Y01791*
X06518Y01784*
X06522Y01778*
X06581Y01719*
X06587Y01715*
X06594Y01714*
X06717*
X06722Y01708*
X06729Y01702*
X06737Y01699*
X06746Y01698*
X06797*
X06806Y01699*
X06814Y01702*
X06821Y01708*
X06826Y01715*
X0683Y01723*
X06831Y01732*
X0683Y01741*
X06826Y01749*
X06821Y01756*
X06814Y01761*
X06806Y01765*
X068Y01765*
X068Y0177*
X06978*
X06979Y01765*
X06973Y01765*
X06965Y01761*
X06958Y01756*
X06952Y01749*
X06949Y01741*
X06948Y01732*
X06949Y01723*
X06952Y01715*
X06958Y01708*
X06965Y01702*
X06973Y01699*
X06982Y01698*
X07033*
X07042Y01699*
X0705Y01702*
X07057Y01708*
X07062Y01715*
X07066Y01723*
X07067Y01732*
X07066Y01741*
X07062Y01749*
X07057Y01756*
X0705Y01761*
X07042Y01765*
X07036Y01765*
X07036Y0177*
X07272*
X07303Y01739*
X07302Y01732*
X07303Y01723*
X07307Y01715*
X07312Y01708*
X07319Y01702*
X07327Y01699*
X07336Y01698*
X07387*
X07396Y01699*
X07404Y01702*
X07411Y01708*
X07417Y01715*
X0742Y01723*
X07421Y01732*
X0742Y01741*
X07417Y01749*
X07411Y01756*
X07404Y01761*
X07396Y01765*
X07387Y01766*
X07336*
X07329Y01765*
X07302Y01792*
X07305Y01797*
X07307*
X07421*
Y01864*
X07302*
Y01801*
Y01799*
X07298Y01797*
X07293Y01801*
X07287Y01805*
X0728Y01807*
X07063*
X07061Y01811*
X07062Y01813*
X07066Y01821*
X07067Y0183*
X07066Y01839*
X07062Y01847*
X07057Y01854*
X0705Y0186*
X07042Y01863*
X07033Y01864*
X06982*
X06973Y01863*
X06965Y0186*
X06958Y01854*
X06952Y01847*
X06949Y01839*
X06948Y0183*
X06949Y01821*
X06952Y01813*
X06954Y01811*
X06952Y01807*
X0683*
Y01864*
X06763*
X06711Y01917*
Y02208*
X06713Y02209*
X06722Y02216*
X06729Y02225*
X06733Y02235*
X06734Y02246*
Y02281*
X06733Y02292*
X06729Y02302*
X06722Y02311*
X06713Y02317*
X06703Y02321*
X06692Y02323*
G37*
G36*
X08011Y01864D02*
X07893D01*
Y01797*
X08011*
Y01864*
G37*
G36*
X05649D02*
X05531D01*
Y01797*
X05649*
Y01864*
G37*
G36*
X08214Y01864D02*
X08163D01*
X08154Y01863*
X08146Y0186*
X08139Y01854*
X08134Y01847*
X0813Y01839*
X08129Y0183*
X0813Y01821*
X08134Y01813*
X08139Y01806*
X08146Y01801*
X08154Y01797*
X08163Y01796*
X08214*
X08223Y01797*
X08231Y01801*
X08238Y01806*
X08243Y01813*
X08247Y01821*
X08248Y0183*
X08247Y01839*
X08243Y01847*
X08238Y01854*
X08231Y0186*
X08223Y01863*
X08214Y01864*
G37*
G36*
X05852D02*
X05801D01*
X05792Y01863*
X05784Y0186*
X05777Y01854*
X05771Y01847*
X05768Y01839*
X05767Y0183*
X05768Y01821*
X05771Y01813*
X05777Y01806*
X05784Y01801*
X05792Y01797*
X05801Y01796*
X05852*
X05861Y01797*
X05869Y01801*
X05876Y01806*
X05881Y01813*
X05885Y01821*
X05886Y0183*
X05885Y01839*
X05881Y01847*
X05876Y01854*
X05869Y0186*
X05861Y01863*
X05852Y01864*
G37*
G36*
X0207Y01862D02*
X01951D01*
Y01795*
X0207*
Y01862*
G37*
G36*
X01479D02*
X01361D01*
Y01795*
X01479*
Y01862*
G37*
G36*
X02598Y02303D02*
X02587Y02302D01*
X02577Y02298*
X02568Y02291*
X02562Y02282*
X02558Y02272*
X02556Y02261*
Y02226*
X02558Y02215*
X02562Y02205*
X02568Y02196*
X02577Y0219*
X02583Y02187*
Y01862*
X02542*
Y01797*
X02527*
X0252Y01795*
X02514Y01791*
X02408Y01686*
X02404Y0168*
X02403Y01673*
X02403*
Y01385*
X02387Y01369*
X02383Y01372*
X02373Y01377*
X02362Y01378*
X02351Y01377*
X02341Y01372*
X02332Y01366*
X02325Y01357*
X02321Y01347*
X0232Y01336*
Y01301*
X02321Y0129*
X02325Y0128*
X02332Y01271*
X02341Y01264*
X02351Y0126*
X02362Y01259*
X02373Y0126*
X02383Y01264*
X02391Y01271*
X02398Y0128*
X02402Y0129*
X02404Y01301*
Y01336*
X02407Y01338*
X02414Y01345*
X02419Y01343*
X02418Y01336*
Y01301*
X0242Y0129*
X02424Y0128*
X02431Y01271*
X02439Y01264*
X02442Y01263*
X02443Y01259*
X02447Y01253*
X02487Y01214*
X02493Y0121*
X025Y01208*
X0288*
X02887Y0121*
X02893Y01214*
X03064Y01384*
X03068Y0139*
X03069Y01397*
Y0179*
X03127Y01848*
X03132Y01846*
Y01795*
X03251*
Y01852*
X03364*
X03372Y01845*
X03369Y01837*
X03368Y01829*
X03369Y0182*
X03373Y01812*
X03378Y01805*
X03385Y01799*
X03393Y01796*
X03402Y01795*
X03453*
X03462Y01796*
X0347Y01799*
X03477Y01805*
X03483Y01812*
X03486Y0182*
X03487Y01829*
X03486Y01837*
X03483Y01845*
X03477Y01853*
X0347Y01858*
X03462Y01861*
X03453Y01862*
X03405*
X03403Y01865*
X03385Y01883*
X03379Y01887*
X03372Y01889*
X03124*
X03117Y01887*
X03111Y01883*
X03038Y01811*
X03034Y01805*
X03032Y01798*
Y01405*
X02872Y01245*
X02507*
X02487Y01264*
X02488Y01269*
X0249Y01271*
X02496Y0128*
X02501Y0129*
X02502Y01301*
Y01336*
X02501Y01347*
X02496Y01357*
X0249Y01366*
X02481Y01372*
X02471Y01377*
X0246Y01378*
X02449Y01377*
X02443Y01374*
X02439Y01377*
Y01665*
X02534Y0176*
X02551*
X02553Y01755*
X02551Y01754*
X02546Y01747*
X02543Y01739*
X02541Y0173*
X02543Y01721*
X02546Y01713*
X02551Y01706*
X02558Y01701*
X02566Y01697*
X02575Y01696*
X02626*
X02635Y01697*
X02643Y01701*
X0265Y01706*
X02656Y01713*
X02659Y01721*
X0266Y0173*
X02659Y01739*
X02656Y01747*
X0265Y01754*
X02649Y01755*
X02651Y0176*
X02668*
X02675Y01762*
X02681Y01766*
X02726Y0181*
X02783*
X02788Y01805*
X02795Y01799*
X02803Y01796*
X02811Y01795*
X02863*
X02871Y01796*
X0288Y01799*
X02887Y01805*
X02892Y01812*
X02895Y0182*
X02897Y01829*
X02895Y01837*
X02892Y01845*
X02887Y01853*
X0288Y01858*
X02871Y01861*
X02863Y01862*
X02811*
X02803Y01861*
X02795Y01858*
X02788Y01853*
X02783Y01847*
X02719*
X02712Y01845*
X02706Y01841*
X02665Y01801*
X0266Y01803*
Y01862*
X02619*
Y0219*
X02628Y02196*
X02634Y02205*
X02638Y02215*
X0264Y02226*
Y02261*
X02638Y02272*
X02634Y02282*
X02628Y02291*
X02619Y02298*
X02609Y02302*
X02598Y02303*
G37*
G36*
X06242Y02322D02*
X06159D01*
Y02204*
X06182*
Y0197*
X05962Y0175*
X0588*
X05876Y01756*
X05869Y01761*
X05861Y01765*
X05852Y01766*
X05801*
X05792Y01765*
X05784Y01761*
X05777Y01756*
X05771Y01749*
X05768Y01741*
X05767Y01732*
X05768Y01723*
X05771Y01715*
X05777Y01708*
X05784Y01702*
X05792Y01699*
X05801Y01698*
X05852*
X05861Y01699*
X05869Y01702*
X05876Y01708*
X0588Y01714*
X0597*
X05976Y01715*
X05982Y01719*
X06117Y01853*
X06121Y01851*
Y01793*
X0624*
Y0186*
X0613*
X06128Y01865*
X06213Y0195*
X06217Y01956*
X06219Y01963*
Y02204*
X06242*
Y02322*
G37*
G36*
X06442Y0186D02*
X06391D01*
X06382Y01859*
X06374Y01856*
X06367Y0185*
X06362Y01843*
X06358Y01835*
X06357Y01826*
X06358Y01817*
X06362Y01809*
X06367Y01802*
X06374Y01797*
X06382Y01794*
X06391Y01792*
X06442*
X06451Y01794*
X06459Y01797*
X06466Y01802*
X06472Y01809*
X06475Y01817*
X06476Y01826*
X06475Y01835*
X06472Y01843*
X06466Y0185*
X06459Y01856*
X06451Y01859*
X06442Y0186*
G37*
G36*
X02303Y02303D02*
X02292Y02302D01*
X02282Y02298*
X02273Y02291*
X02266Y02282*
X02262Y02272*
X02261Y02261*
Y02226*
X02262Y02215*
X02266Y02205*
X02273Y02196*
X02282Y0219*
X02284Y02189*
Y02166*
X02116Y01997*
X02112Y01991*
X0211Y01985*
Y01767*
X02092Y01748*
X02064*
X0206Y01754*
X02053Y01759*
X02045Y01763*
X02036Y01764*
X01985*
X01976Y01763*
X01968Y01759*
X01961Y01754*
X01955Y01747*
X01952Y01739*
X01951Y0173*
X01952Y01721*
X01955Y01713*
X01961Y01706*
X01968Y01701*
X01976Y01697*
X01985Y01696*
X02036*
X02045Y01697*
X02053Y01701*
X0206Y01706*
X02064Y01712*
X021*
X02106Y01713*
X02112Y01717*
X02141Y01746*
X02145Y01752*
X02147Y01759*
Y01977*
X02316Y02146*
X02319Y02152*
X02321Y02159*
Y02189*
X02324Y0219*
X02332Y02196*
X02339Y02205*
X02343Y02215*
X02345Y02226*
Y02261*
X02343Y02272*
X02339Y02282*
X02332Y02291*
X02324Y02298*
X02313Y02302*
X02303Y02303*
G37*
G36*
X04634Y01784D02*
X04583D01*
X04574Y01783*
X04566Y01779*
X04559Y01774*
X04554Y01767*
X0455Y01759*
X04549Y0175*
X0455Y01741*
X04554Y01733*
X04559Y01726*
X04566Y0172*
X04574Y01717*
X04583Y01716*
X04634*
X04643Y01717*
X04651Y0172*
X04658Y01726*
X04664Y01733*
X04667Y01741*
X04668Y0175*
X04667Y01759*
X04664Y01767*
X04658Y01774*
X04651Y01779*
X04643Y01783*
X04634Y01784*
G37*
G36*
X08214Y01766D02*
X08163D01*
X08154Y01765*
X08146Y01761*
X08139Y01756*
X08134Y01749*
X0813Y01741*
X08129Y01732*
X0813Y01723*
X08134Y01715*
X08139Y01708*
X08146Y01702*
X08154Y01699*
X08163Y01698*
X08214*
X08223Y01699*
X08231Y01702*
X08238Y01708*
X08243Y01715*
X08247Y01723*
X08248Y01732*
X08247Y01741*
X08243Y01749*
X08238Y01756*
X08231Y01761*
X08223Y01765*
X08214Y01766*
G37*
G36*
X07978D02*
X07927D01*
X07918Y01765*
X0791Y01761*
X07903Y01756*
X07897Y01749*
X07894Y01741*
X07893Y01732*
X07894Y01723*
X07897Y01715*
X07903Y01708*
X0791Y01702*
X07918Y01699*
X07927Y01698*
X07978*
X07987Y01699*
X07995Y01702*
X08002Y01708*
X08007Y01715*
X08011Y01723*
X08012Y01732*
X08011Y01741*
X08007Y01749*
X08002Y01756*
X07995Y01761*
X07987Y01765*
X07978Y01766*
G37*
G36*
X07624D02*
X07572D01*
X07564Y01765*
X07555Y01761*
X07548Y01756*
X07543Y01749*
X0754Y01741*
X07538Y01732*
X0754Y01723*
X07543Y01715*
X07548Y01708*
X07555Y01702*
X07564Y01699*
X07572Y01698*
X07624*
X07632Y01699*
X0764Y01702*
X07648Y01708*
X07653Y01715*
X07656Y01723*
X07657Y01732*
X07656Y01741*
X07653Y01749*
X07648Y01756*
X0764Y01761*
X07632Y01765*
X07624Y01766*
G37*
G36*
X05616D02*
X05564D01*
X05556Y01765*
X05548Y01761*
X0554Y01756*
X05535Y01749*
X05532Y01741*
X05531Y01732*
X05532Y01723*
X05535Y01715*
X0554Y01708*
X05548Y01702*
X05556Y01699*
X05564Y01698*
X05616*
X05624Y01699*
X05633Y01702*
X0564Y01708*
X05645Y01715*
X05648Y01723*
X0565Y01732*
X05648Y01741*
X05645Y01749*
X0564Y01756*
X05633Y01761*
X05624Y01765*
X05616Y01766*
G37*
G36*
X03453Y01764D02*
X03402D01*
X03393Y01763*
X03385Y01759*
X03378Y01754*
X03373Y01747*
X03369Y01739*
X03368Y0173*
X03369Y01721*
X03373Y01713*
X03378Y01706*
X03385Y01701*
X03393Y01697*
X03402Y01696*
X03453*
X03462Y01697*
X0347Y01701*
X03477Y01706*
X03483Y01713*
X03486Y01721*
X03487Y0173*
X03486Y01739*
X03483Y01747*
X03477Y01754*
X0347Y01759*
X03462Y01763*
X03453Y01764*
G37*
G36*
X03217D02*
X03166D01*
X03157Y01763*
X03149Y01759*
X03142Y01754*
X03136Y01747*
X03133Y01739*
X03132Y0173*
X03133Y01721*
X03136Y01713*
X03142Y01706*
X03149Y01701*
X03157Y01697*
X03166Y01696*
X03217*
X03226Y01697*
X03234Y01701*
X03241Y01706*
X03246Y01713*
X0325Y01721*
X03251Y0173*
X0325Y01739*
X03246Y01747*
X03241Y01754*
X03234Y01759*
X03226Y01763*
X03217Y01764*
G37*
G36*
X01682Y01862D02*
X0163D01*
X01622Y01861*
X01613Y01858*
X01606Y01853*
X01601Y01845*
X01598Y01837*
X01596Y01829*
X01598Y0182*
X01601Y01812*
X01606Y01805*
X01613Y01799*
X01622Y01796*
X0163Y01795*
X01682*
X0169Y01796*
X01699Y01799*
X01706Y01805*
X0171Y0181*
X01795*
X01814Y01791*
Y01277*
X01816Y0127*
X0182Y01264*
X01876Y01207*
X01882Y01203*
X01889Y01202*
X02066*
X02073Y01203*
X02079Y01207*
X0214Y01268*
X02144Y01264*
X02154Y0126*
X02165Y01259*
X02176Y0126*
X02186Y01264*
X02194Y01271*
X02201Y0128*
X02205Y0129*
X02207Y01301*
Y01336*
X02205Y01347*
X02201Y01357*
X02194Y01366*
X02186Y01372*
X02176Y01377*
X02165Y01378*
X02154Y01377*
X02144Y01372*
X02135Y01366*
X02129Y01357*
X02124Y01347*
X02123Y01336*
Y01301*
X0212Y01299*
X02112Y01291*
X02107Y01294*
X02108Y01301*
Y01336*
X02107Y01347*
X02103Y01357*
X02096Y01366*
X02087Y01372*
X02085Y01373*
Y01381*
X02164Y01461*
X02168Y01467*
X0217Y01474*
Y01692*
X02188Y0171*
X02194Y0171*
X02197Y01706*
X02204Y01701*
X02212Y01697*
X02221Y01696*
X02272*
X02281Y01697*
X02289Y01701*
X02296Y01706*
X02301Y01713*
X02305Y01721*
X02306Y0173*
X02305Y01739*
X02301Y01747*
X02296Y01754*
X02289Y01759*
X02281Y01763*
X02272Y01764*
X02221*
X02212Y01763*
X02204Y01759*
X02197Y01754*
X02193Y01748*
X02182*
X02175Y01747*
X02169Y01743*
X02139Y01712*
X02135Y01706*
X02133Y017*
Y01481*
X02054Y01401*
X0205Y01395*
X02048Y01388*
Y01373*
X02046Y01372*
X02037Y01366*
X0203Y01357*
X02026Y01347*
X02025Y01336*
Y01301*
X02026Y0129*
X0203Y0128*
X02037Y01271*
X02046Y01264*
X02056Y0126*
X02066Y01259*
X02073Y0126*
X02076Y01255*
X02059Y01238*
X01897*
X01851Y01284*
Y01799*
X01849Y01805*
X01845Y01811*
X01815Y01841*
X01809Y01845*
X01803Y01847*
X0171*
X01706Y01853*
X01699Y01858*
X0169Y01861*
X01682Y01862*
G37*
G36*
Y01764D02*
X0163D01*
X01622Y01763*
X01613Y01759*
X01606Y01754*
X01601Y01747*
X01598Y01739*
X01596Y0173*
X01598Y01721*
X01601Y01713*
X01606Y01706*
X01613Y01701*
X01622Y01697*
X0163Y01696*
X01682*
X0169Y01697*
X01699Y01701*
X01706Y01706*
X01711Y01713*
X01714Y01721*
X01715Y0173*
X01714Y01739*
X01711Y01747*
X01706Y01754*
X01699Y01759*
X0169Y01763*
X01682Y01764*
G37*
G36*
X01445D02*
X01394D01*
X01385Y01763*
X01377Y01759*
X0137Y01754*
X01365Y01747*
X01361Y01739*
X0136Y0173*
X01361Y01721*
X01365Y01713*
X0137Y01706*
X01377Y01701*
X01385Y01697*
X01394Y01696*
X01445*
X01454Y01697*
X01462Y01701*
X01469Y01706*
X01475Y01713*
X01478Y01721*
X01479Y0173*
X01478Y01739*
X01475Y01747*
X01469Y01754*
X01462Y01759*
X01454Y01763*
X01445Y01764*
G37*
G36*
X06299Y02323D02*
X06288Y02321D01*
X06278Y02317*
X06269Y02311*
X06262Y02302*
X06258Y02292*
X06257Y02281*
Y02246*
X06258Y02235*
X06262Y02225*
X06269Y02216*
X06278Y02209*
X0628Y02208*
Y01779*
X06282Y01772*
X06286Y01766*
X06337Y01715*
X06343Y01711*
X0635Y0171*
X06363*
X06367Y01704*
X06374Y01698*
X06382Y01695*
X06391Y01694*
X06442*
X06451Y01695*
X06459Y01698*
X06466Y01704*
X06472Y01711*
X06475Y01719*
X06476Y01728*
X06475Y01737*
X06472Y01745*
X06466Y01752*
X06459Y01757*
X06451Y01761*
X06442Y01762*
X06391*
X06382Y01761*
X06374Y01757*
X06367Y01752*
X06363Y01746*
X06357*
X06317Y01786*
Y02208*
X0632Y02209*
X06328Y02216*
X06335Y02225*
X06339Y02235*
X06341Y02246*
Y02281*
X06339Y02292*
X06335Y02302*
X06328Y02311*
X0632Y02317*
X0631Y02321*
X06299Y02323*
G37*
G36*
X06206Y01762D02*
X06155D01*
X06146Y01761*
X06138Y01757*
X06131Y01752*
X06126Y01745*
X06122Y01737*
X06121Y01728*
X06122Y01719*
X06126Y01711*
X06131Y01704*
X06138Y01698*
X06146Y01695*
X06155Y01694*
X06206*
X06215Y01695*
X06223Y01698*
X0623Y01704*
X06236Y01711*
X06239Y01719*
X0624Y01728*
X06239Y01737*
X06236Y01745*
X0623Y01752*
X06223Y01757*
X06215Y01761*
X06206Y01762*
G37*
G36*
X04634Y01685D02*
X04583D01*
X04574Y01684*
X04566Y01681*
X04559Y01675*
X04554Y01668*
X0455Y0166*
X04549Y01651*
X0455Y01643*
X04554Y01634*
X04559Y01627*
X04566Y01622*
X04574Y01619*
X04583Y01617*
X04634*
X04643Y01619*
X04651Y01622*
X04658Y01627*
X04664Y01634*
X04667Y01643*
X04668Y01651*
X04667Y0166*
X04664Y01668*
X04658Y01675*
X04651Y01681*
X04643Y01684*
X04634Y01685*
G37*
G36*
X04398D02*
X04347D01*
X04338Y01684*
X0433Y01681*
X04323Y01675*
X04318Y01668*
X04314Y0166*
X04313Y01651*
X04314Y01643*
X04318Y01634*
X04323Y01627*
X0433Y01622*
X04338Y01619*
X04347Y01617*
X04398*
X04407Y01619*
X04415Y01622*
X04422Y01627*
X04427Y01634*
X04431Y01643*
X04432Y01651*
X04431Y0166*
X04427Y01668*
X04422Y01675*
X04415Y01681*
X04407Y01684*
X04398Y01685*
G37*
G36*
X08214Y01667D02*
X08163D01*
X08154Y01666*
X08146Y01663*
X08139Y01657*
X08134Y0165*
X0813Y01642*
X08129Y01633*
X0813Y01625*
X08134Y01616*
X08139Y01609*
X08146Y01604*
X08154Y01601*
X08163Y01599*
X08214*
X08223Y01601*
X08231Y01604*
X08238Y01609*
X08243Y01616*
X08247Y01625*
X08248Y01633*
X08247Y01642*
X08243Y0165*
X08238Y01657*
X08231Y01663*
X08223Y01666*
X08214Y01667*
G37*
G36*
X07978D02*
X07927D01*
X07918Y01666*
X0791Y01663*
X07903Y01657*
X07897Y0165*
X07894Y01642*
X07893Y01633*
X07894Y01625*
X07897Y01616*
X07903Y01609*
X0791Y01604*
X07918Y01601*
X07927Y01599*
X07978*
X07987Y01601*
X07995Y01604*
X08002Y01609*
X08007Y01616*
X08011Y01625*
X08012Y01633*
X08011Y01642*
X08007Y0165*
X08002Y01657*
X07995Y01663*
X07987Y01666*
X07978Y01667*
G37*
G36*
X07624D02*
X07572D01*
X07564Y01666*
X07555Y01663*
X07548Y01657*
X07543Y0165*
X0754Y01642*
X07538Y01633*
X0754Y01625*
X07543Y01616*
X07548Y01609*
X07555Y01604*
X07564Y01601*
X07572Y01599*
X07624*
X07632Y01601*
X0764Y01604*
X07648Y01609*
X07653Y01616*
X07656Y01625*
X07657Y01633*
X07656Y01642*
X07653Y0165*
X07648Y01657*
X0764Y01663*
X07632Y01666*
X07624Y01667*
G37*
G36*
X07387D02*
X07336D01*
X07327Y01666*
X07319Y01663*
X07312Y01657*
X07307Y0165*
X07303Y01642*
X07302Y01633*
X07303Y01625*
X07307Y01616*
X07312Y01609*
X07319Y01604*
X07327Y01601*
X07336Y01599*
X07387*
X07396Y01601*
X07404Y01604*
X07411Y01609*
X07417Y01616*
X0742Y01625*
X07421Y01633*
X0742Y01642*
X07417Y0165*
X07411Y01657*
X07404Y01663*
X07396Y01666*
X07387Y01667*
G37*
G36*
X07033D02*
X06982D01*
X06973Y01666*
X06965Y01663*
X06958Y01657*
X06952Y0165*
X06949Y01642*
X06948Y01633*
X06949Y01625*
X06952Y01616*
X06958Y01609*
X06965Y01604*
X06973Y01601*
X06982Y01599*
X07033*
X07042Y01601*
X0705Y01604*
X07057Y01609*
X07062Y01616*
X07066Y01625*
X07067Y01633*
X07066Y01642*
X07062Y0165*
X07057Y01657*
X0705Y01663*
X07042Y01666*
X07033Y01667*
G37*
G36*
X06797D02*
X06746D01*
X06737Y01666*
X06729Y01663*
X06722Y01657*
X06716Y0165*
X06713Y01642*
X06712Y01633*
X06713Y01625*
X06716Y01616*
X06722Y01609*
X06729Y01604*
X06737Y01601*
X06746Y01599*
X06797*
X06806Y01601*
X06814Y01604*
X06821Y01609*
X06826Y01616*
X0683Y01625*
X06831Y01633*
X0683Y01642*
X06826Y0165*
X06821Y01657*
X06814Y01663*
X06806Y01666*
X06797Y01667*
G37*
G36*
X05852D02*
X05801D01*
X05792Y01666*
X05784Y01663*
X05777Y01657*
X05771Y0165*
X05768Y01642*
X05767Y01633*
X05768Y01625*
X05771Y01616*
X05777Y01609*
X05784Y01604*
X05792Y01601*
X05801Y01599*
X05852*
X05861Y01601*
X05869Y01604*
X05876Y01609*
X05881Y01616*
X05885Y01625*
X05886Y01633*
X05885Y01642*
X05881Y0165*
X05876Y01657*
X05869Y01663*
X05861Y01666*
X05852Y01667*
G37*
G36*
X05616D02*
X05564D01*
X05556Y01666*
X05548Y01663*
X0554Y01657*
X05535Y0165*
X05532Y01642*
X05531Y01633*
X05532Y01625*
X05535Y01616*
X0554Y01609*
X05548Y01604*
X05556Y01601*
X05564Y01599*
X05616*
X05624Y01601*
X05633Y01604*
X0564Y01609*
X05645Y01616*
X05648Y01625*
X0565Y01633*
X05648Y01642*
X05645Y0165*
X0564Y01657*
X05633Y01663*
X05624Y01666*
X05616Y01667*
G37*
G36*
X03808Y01666D02*
X03756D01*
X03748Y01664*
X03739Y01661*
X03732Y01656*
X03727Y01649*
X03724Y0164*
X03722Y01632*
X03724Y01623*
X03727Y01615*
X03732Y01608*
X03739Y01602*
X03748Y01599*
X03756Y01598*
X03808*
X03816Y01599*
X03825Y01602*
X03832Y01608*
X03837Y01615*
X0384Y01623*
X03841Y01632*
X0384Y0164*
X03837Y01649*
X03832Y01656*
X03825Y01661*
X03816Y01664*
X03808Y01666*
G37*
G36*
X03453D02*
X03402D01*
X03393Y01664*
X03385Y01661*
X03378Y01656*
X03373Y01649*
X03369Y0164*
X03368Y01632*
X03369Y01623*
X03373Y01615*
X03378Y01608*
X03385Y01602*
X03393Y01599*
X03402Y01598*
X03453*
X03462Y01599*
X0347Y01602*
X03477Y01608*
X03483Y01615*
X03486Y01623*
X03487Y01632*
X03486Y0164*
X03483Y01649*
X03477Y01656*
X0347Y01661*
X03462Y01664*
X03453Y01666*
G37*
G36*
X03217D02*
X03166D01*
X03157Y01664*
X03149Y01661*
X03142Y01656*
X03136Y01649*
X03133Y0164*
X03132Y01632*
X03133Y01623*
X03136Y01615*
X03142Y01608*
X03149Y01602*
X03157Y01599*
X03166Y01598*
X03217*
X03226Y01599*
X03234Y01602*
X03241Y01608*
X03246Y01615*
X0325Y01623*
X03251Y01632*
X0325Y0164*
X03246Y01649*
X03241Y01656*
X03234Y01661*
X03226Y01664*
X03217Y01666*
G37*
G36*
X02626D02*
X02575D01*
X02566Y01664*
X02558Y01661*
X02551Y01656*
X02546Y01649*
X02543Y0164*
X02541Y01632*
X02543Y01623*
X02546Y01615*
X02551Y01608*
X02558Y01602*
X02566Y01599*
X02575Y01598*
X02626*
X02635Y01599*
X02643Y01602*
X0265Y01608*
X02656Y01615*
X02659Y01623*
X0266Y01632*
X02659Y0164*
X02656Y01649*
X0265Y01656*
X02643Y01661*
X02635Y01664*
X02626Y01666*
G37*
G36*
X02272D02*
X02221D01*
X02212Y01664*
X02204Y01661*
X02197Y01656*
X02192Y01649*
X02188Y0164*
X02187Y01632*
X02188Y01623*
X02192Y01615*
X02197Y01608*
X02204Y01602*
X02212Y01599*
X02221Y01598*
X02272*
X02281Y01599*
X02289Y01602*
X02296Y01608*
X02301Y01615*
X02305Y01623*
X02306Y01632*
X02305Y0164*
X02301Y01649*
X02296Y01656*
X02289Y01661*
X02281Y01664*
X02272Y01666*
G37*
G36*
X02036D02*
X01985D01*
X01976Y01664*
X01968Y01661*
X01961Y01656*
X01955Y01649*
X01952Y0164*
X01951Y01632*
X01952Y01623*
X01955Y01615*
X01961Y01608*
X01968Y01602*
X01976Y01599*
X01985Y01598*
X02036*
X02045Y01599*
X02053Y01602*
X0206Y01608*
X02065Y01615*
X02069Y01623*
X0207Y01632*
X02069Y0164*
X02065Y01649*
X0206Y01656*
X02053Y01661*
X02045Y01664*
X02036Y01666*
G37*
G36*
X01682D02*
X0163D01*
X01622Y01664*
X01613Y01661*
X01606Y01656*
X01601Y01649*
X01598Y0164*
X01596Y01632*
X01598Y01623*
X01601Y01615*
X01606Y01608*
X01613Y01602*
X01622Y01599*
X0163Y01598*
X01682*
X0169Y01599*
X01699Y01602*
X01706Y01608*
X01711Y01615*
X01714Y01623*
X01715Y01632*
X01714Y0164*
X01711Y01649*
X01706Y01656*
X01699Y01661*
X0169Y01664*
X01682Y01666*
G37*
G36*
X01445D02*
X01394D01*
X01385Y01664*
X01377Y01661*
X0137Y01656*
X01365Y01649*
X01361Y0164*
X0136Y01632*
X01361Y01623*
X01365Y01615*
X0137Y01608*
X01377Y01602*
X01385Y01599*
X01394Y01598*
X01445*
X01454Y01599*
X01462Y01602*
X01469Y01608*
X01475Y01615*
X01478Y01623*
X01479Y01632*
X01478Y0164*
X01475Y01649*
X01469Y01656*
X01462Y01661*
X01454Y01664*
X01445Y01666*
G37*
G36*
X06442Y01663D02*
X06391D01*
X06382Y01662*
X06374Y01659*
X06367Y01653*
X06362Y01646*
X06358Y01638*
X06357Y01629*
X06358Y01621*
X06362Y01612*
X06367Y01605*
X06374Y016*
X06382Y01597*
X06391Y01596*
X06442*
X06451Y01597*
X06459Y016*
X06466Y01605*
X06472Y01612*
X06475Y01621*
X06476Y01629*
X06475Y01638*
X06472Y01646*
X06466Y01653*
X06459Y01659*
X06451Y01662*
X06442Y01663*
G37*
G36*
X06206D02*
X06155D01*
X06146Y01662*
X06138Y01659*
X06131Y01653*
X06126Y01646*
X06122Y01638*
X06121Y01629*
X06122Y01621*
X06126Y01612*
X06131Y01605*
X06138Y016*
X06146Y01597*
X06155Y01596*
X06206*
X06215Y01597*
X06223Y016*
X0623Y01605*
X06236Y01612*
X06239Y01621*
X0624Y01629*
X06239Y01638*
X06236Y01646*
X0623Y01653*
X06223Y01659*
X06215Y01662*
X06206Y01663*
G37*
G36*
X05595Y01415D02*
D01*
X05186*
X05179Y01414*
X05173Y0141*
X05112Y01349*
X05108Y01343*
X05107Y01337*
X05097Y01333*
X05088Y01326*
X05081Y01318*
X05077Y01308*
X05076Y01297*
Y01261*
X05077Y0125*
X05081Y0124*
X05088Y01232*
X05097Y01225*
X05107Y01221*
X05118Y01219*
X05128Y01221*
X05139Y01225*
X05147Y01232*
X05154Y0124*
X05158Y0125*
X05159Y01261*
Y01297*
X05158Y01308*
X05154Y01318*
X05147Y01326*
X05147Y01327*
X05146Y01332*
X05193Y01379*
X05587*
X05626Y0134*
X05623Y01336*
X05621Y01337*
X0561Y01339*
X05599Y01337*
X05589Y01333*
X0558Y01326*
X05573Y01318*
X05569Y01308*
X05568Y01297*
Y01261*
X05569Y0125*
X05573Y0124*
X0558Y01232*
X05589Y01225*
X05592Y01224*
Y00935*
X05593Y00928*
X05597Y00922*
X06237Y00282*
X06243Y00278*
X0625Y00277*
X06284*
X06289Y00271*
X06296Y00265*
X06304Y00262*
X06312Y00261*
X06364*
X06371Y00262*
X06374Y00257*
X06351Y00234*
X06346Y0023*
X06312*
X06304Y00229*
X06296Y00226*
X06289Y0022*
X06283Y00213*
X0628Y00205*
X06279Y00196*
X0628Y00188*
X06283Y00179*
X06285Y00177*
X06283Y00173*
X06247*
X0553Y0089*
Y01224*
X05532Y01225*
X05541Y01232*
X05548Y0124*
X05552Y0125*
X05553Y01261*
Y01297*
X05552Y01308*
X05548Y01318*
X05541Y01326*
X05532Y01333*
X05522Y01337*
X05511Y01339*
X055Y01337*
X0549Y01333*
X05482Y01326*
X05475Y01318*
X05471Y01308*
X05469Y01297*
Y01261*
X05471Y0125*
X05475Y0124*
X05482Y01232*
X0549Y01225*
X05493Y01224*
Y00883*
X05494Y00876*
X05498Y0087*
X06217Y00151*
X06215Y00147*
X06138*
X05431Y00854*
Y01224*
X05434Y01225*
X05442Y01232*
X05449Y0124*
X05453Y0125*
X05455Y01261*
Y01297*
X05453Y01308*
X05449Y01318*
X05442Y01326*
X05434Y01333*
X05424Y01337*
X05413Y01339*
X05402Y01337*
X05392Y01333*
X05383Y01326*
X05377Y01318*
X05372Y01308*
X05371Y01297*
Y01261*
X05372Y0125*
X05377Y0124*
X05383Y01232*
X05392Y01225*
X05395Y01224*
Y00846*
Y00846*
X05396Y00839*
X054Y00833*
X06112Y00121*
X06111Y00116*
X05973*
X05333Y00756*
Y01224*
X05335Y01225*
X05344Y01232*
X05351Y0124*
X05355Y0125*
X05356Y01261*
Y01297*
X05355Y01308*
X05351Y01318*
X05344Y01326*
X05335Y01333*
X05325Y01337*
X05314Y01339*
X05304Y01337*
X05294Y01333*
X05285Y01326*
X05278Y01318*
X05274Y01308*
X05273Y01297*
Y01261*
X05274Y0125*
X05278Y0124*
X05285Y01232*
X05294Y01225*
X05296Y01224*
Y00749*
X05298Y00742*
X05302Y00736*
X05952Y00085*
X05958Y00081*
X05965Y0008*
X06565*
X06572Y00081*
X06578Y00085*
X06587Y00094*
X06591Y001*
X06593Y00107*
Y00162*
X066*
X06609Y00164*
X06617Y00167*
X06624Y00172*
X06629Y00179*
X06633Y00188*
X06634Y00196*
X06633Y00205*
X06629Y00213*
X06624Y0022*
X06622Y00222*
X06621Y00229*
X06654Y00262*
X06658Y00268*
X0666Y00275*
Y00393*
X06658Y004*
X06654Y00406*
X06648Y0041*
X06642Y00411*
X06628*
X06624Y00417*
X06617Y00423*
X06609Y00426*
X066Y00427*
X06549*
X0654Y00426*
X06532Y00423*
X06525Y00417*
X06519Y0041*
X06516Y00402*
X06515Y00393*
X06516Y00384*
X06519Y00376*
X06525Y00369*
X06532Y00364*
X0654Y0036*
X06549Y00359*
X066*
X06609Y0036*
X06617Y00364*
X06619Y00365*
X06623Y00363*
Y00325*
X06619Y00323*
X06617Y00324*
X06609Y00328*
X066Y00329*
X06549*
X0654Y00328*
X06532Y00324*
X06525Y00319*
X0652Y00313*
X06495*
X06488Y00312*
X06482Y00308*
X06435Y00261*
X06431Y00264*
X06433Y00268*
X06435Y00275*
Y00576*
X06433Y00582*
X06429Y00588*
X05608Y0141*
X05602Y01414*
X05595Y01415*
G37*
G36*
X02698Y01378D02*
X02615D01*
Y01259*
X02698*
Y01378*
G37*
G36*
X02272Y01862D02*
X02221D01*
X02212Y01861*
X02204Y01858*
X02197Y01853*
X02192Y01845*
X02188Y01837*
X02187Y01829*
X02188Y0182*
X02192Y01812*
X02197Y01805*
X02204Y01799*
X02212Y01796*
X02221Y01795*
X02271*
X02272Y01793*
X02343Y01722*
Y01515*
X0225Y01422*
X02246Y01416*
X02245Y0141*
Y01373*
X02242Y01372*
X02234Y01366*
X02227Y01357*
X02223Y01347*
X02221Y01336*
Y01301*
X02223Y0129*
X02227Y0128*
X02234Y01271*
X02242Y01264*
X02252Y0126*
X02263Y01259*
X02274Y0126*
X02284Y01264*
X02293Y01271*
X023Y0128*
X02304Y0129*
X02305Y01301*
Y01336*
X02304Y01347*
X023Y01357*
X02293Y01366*
X02284Y01372*
X02282Y01373*
Y01402*
X02375Y01495*
X02379Y01501*
X0238Y01508*
Y01729*
X02379Y01736*
X02375Y01742*
X02303Y01814*
X02305Y0182*
X02306Y01829*
X02305Y01837*
X02301Y01845*
X02296Y01853*
X02289Y01858*
X02281Y01861*
X02272Y01862*
G37*
G36*
X04058Y01329D02*
X04047Y01327D01*
X04037Y01323*
X04028Y01317*
X04022Y01308*
X04017Y01298*
X04016Y01287*
Y01271*
X04017Y0126*
X04022Y0125*
X04028Y01242*
X04037Y01235*
X04047Y01231*
X04058Y01229*
X04069Y01231*
X04079Y01235*
X04087Y01242*
X04094Y0125*
X04098Y0126*
X041Y01271*
Y01287*
X04098Y01298*
X04094Y01308*
X04087Y01317*
X04079Y01323*
X04069Y01327*
X04058Y01329*
G37*
G36*
X03958D02*
X03947Y01327D01*
X03937Y01323*
X03928Y01317*
X03922Y01308*
X03917Y01298*
X03916Y01287*
Y01271*
X03917Y0126*
X03922Y0125*
X03928Y01242*
X03937Y01235*
X03947Y01231*
X03958Y01229*
X03969Y01231*
X03979Y01235*
X03987Y01242*
X03994Y0125*
X03998Y0126*
X04Y01271*
Y01287*
X03998Y01298*
X03994Y01308*
X03987Y01317*
X03979Y01323*
X03969Y01327*
X03958Y01329*
G37*
G36*
X03858D02*
X03847Y01327D01*
X03837Y01323*
X03828Y01317*
X03822Y01308*
X03817Y01298*
X03816Y01287*
Y01271*
X03817Y0126*
X03822Y0125*
X03828Y01242*
X03837Y01235*
X03847Y01231*
X03858Y01229*
X03869Y01231*
X03879Y01235*
X03887Y01242*
X03894Y0125*
X03898Y0126*
X039Y01271*
Y01287*
X03898Y01298*
X03894Y01308*
X03887Y01317*
X03879Y01323*
X03869Y01327*
X03858Y01329*
G37*
G36*
X03758D02*
X03747Y01327D01*
X03737Y01323*
X03728Y01317*
X03722Y01308*
X03717Y01298*
X03716Y01287*
Y01271*
X03717Y0126*
X03722Y0125*
X03728Y01242*
X03737Y01235*
X03747Y01231*
X03758Y01229*
X03769Y01231*
X03779Y01235*
X03787Y01242*
X03794Y0125*
X03798Y0126*
X038Y01271*
Y01287*
X03798Y01298*
X03794Y01308*
X03787Y01317*
X03779Y01323*
X03769Y01327*
X03758Y01329*
G37*
G36*
X03658D02*
X03647Y01327D01*
X03637Y01323*
X03628Y01317*
X03622Y01308*
X03617Y01298*
X03616Y01287*
Y01271*
X03617Y0126*
X03622Y0125*
X03628Y01242*
X03637Y01235*
X03647Y01231*
X03658Y01229*
X03669Y01231*
X03679Y01235*
X03687Y01242*
X03694Y0125*
X03698Y0126*
X037Y01271*
Y01287*
X03698Y01298*
X03694Y01308*
X03687Y01317*
X03679Y01323*
X03669Y01327*
X03658Y01329*
G37*
G36*
X05061Y01338D02*
X04978D01*
Y0122*
X05061*
Y01338*
G37*
G36*
X05216Y01339D02*
X05205Y01337D01*
X05195Y01333*
X05186Y01326*
X0518Y01318*
X05176Y01308*
X05174Y01297*
Y01261*
X05176Y0125*
X0518Y0124*
X05186Y01232*
X05195Y01225*
X05205Y01221*
X05216Y01219*
X05227Y01221*
X05237Y01225*
X05246Y01232*
X05252Y0124*
X05256Y0125*
X05258Y01261*
Y01297*
X05256Y01308*
X05252Y01318*
X05246Y01326*
X05237Y01333*
X05227Y01337*
X05216Y01339*
G37*
G36*
X04527Y01254D02*
X04513Y01253D01*
X04499Y01248*
X04486Y01242*
X04475Y01232*
X04466Y01221*
X04459Y01209*
X04455Y01195*
X04454Y01181*
X04455Y01166*
X04459Y01153*
X04466Y0114*
X04475Y01129*
X04486Y0112*
X04499Y01113*
X04513Y01109*
X04527Y01107*
X04541Y01109*
X04555Y01113*
X04568Y0112*
X04579Y01129*
X04588Y0114*
X04595Y01153*
X04599Y01166*
X046Y01181*
X04599Y01195*
X04595Y01209*
X04588Y01221*
X04579Y01232*
X04568Y01242*
X04555Y01248*
X04541Y01253*
X04527Y01254*
G37*
G36*
X01181D02*
X01166Y01253D01*
X01153Y01248*
X0114Y01242*
X01129Y01232*
X0112Y01221*
X01113Y01209*
X01109Y01195*
X01107Y01181*
X01109Y01166*
X01113Y01153*
X0112Y0114*
X01129Y01129*
X0114Y0112*
X01153Y01113*
X01166Y01109*
X01181Y01107*
X01195Y01109*
X01209Y01113*
X01221Y0112*
X01232Y01129*
X01242Y0114*
X01248Y01153*
X01253Y01166*
X01254Y01181*
X01253Y01195*
X01248Y01209*
X01242Y01221*
X01232Y01232*
X01221Y01242*
X01209Y01248*
X01195Y01253*
X01181Y01254*
G37*
G36*
X06397Y00998D02*
X06279D01*
Y0093*
X06397*
Y00998*
G37*
G36*
X066Y00998D02*
X06549D01*
X0654Y00997*
X06532Y00993*
X06525Y00988*
X06519Y00981*
X06516Y00973*
X06515Y00964*
X06516Y00955*
X06519Y00947*
X06525Y0094*
X06532Y00935*
X0654Y00931*
X06549Y0093*
X066*
X06609Y00931*
X06617Y00935*
X06624Y0094*
X06629Y00947*
X06633Y00955*
X06634Y00964*
X06633Y00973*
X06629Y00981*
X06624Y00988*
X06617Y00993*
X06609Y00997*
X066Y00998*
G37*
G36*
X06791Y02323D02*
X0678Y02321D01*
X0677Y02317*
X06761Y02311*
X06755Y02302*
X0675Y02292*
X06749Y02281*
Y02246*
X0675Y02235*
X06755Y02225*
X06761Y02216*
X0677Y02209*
X06773Y02208*
Y02201*
X06774Y02194*
X06778Y02188*
X06784Y02184*
X06791Y02182*
X07263*
X07481Y01964*
Y01274*
X07476Y0127*
X0747Y01263*
X07467Y01254*
X07466Y01246*
Y01194*
X07467Y01186*
X0747Y01177*
X07476Y0117*
X07481Y01166*
Y01043*
X07466*
Y00925*
X07533*
Y01043*
X07518*
Y01166*
X07523Y0117*
X07529Y01177*
X07532Y01186*
X07533Y01194*
Y01246*
X07532Y01254*
X07529Y01263*
X07523Y0127*
X07518Y01274*
Y01972*
X07516Y01978*
X07512Y01984*
X07283Y02213*
X07277Y02217*
X07271Y02219*
X06828*
X06826Y02223*
X06827Y02225*
X06831Y02235*
X06833Y02246*
Y02281*
X06831Y02292*
X06827Y02302*
X0682Y02311*
X06812Y02317*
X06802Y02321*
X06791Y02323*
G37*
G36*
X07696Y01279D02*
X07688Y01278D01*
X07679Y01275*
X07672Y0127*
X07667Y01263*
X07664Y01254*
X07662Y01246*
Y01194*
X07664Y01186*
X07667Y01177*
X07672Y0117*
X07678Y01166*
Y01038*
X07672Y01033*
X07667Y01026*
X07664Y01018*
X07662Y01009*
Y00958*
X07664Y00949*
X07667Y00941*
X07672Y00934*
X07679Y00929*
X07688Y00925*
X07696Y00924*
X07705Y00925*
X07713Y00929*
X0772Y00934*
X07726Y00941*
X07729Y00949*
X0773Y00958*
Y01009*
X07729Y01018*
X07726Y01026*
X0772Y01033*
X07715Y01038*
Y01166*
X0772Y0117*
X07726Y01177*
X07729Y01186*
X0773Y01194*
Y01246*
X07729Y01254*
X07726Y01263*
X0772Y0127*
X07713Y01275*
X07705Y01278*
X07696Y01279*
G37*
G36*
X07624Y01864D02*
X07572D01*
X07564Y01863*
X07555Y0186*
X07548Y01854*
X07543Y01847*
X0754Y01839*
X07538Y0183*
X0754Y01821*
X07543Y01813*
X07548Y01806*
X07555Y01801*
X07564Y01797*
X07572Y01796*
X07624*
X07632Y01797*
X0764Y01801*
X07648Y01806*
X07652Y01812*
X07669*
X07718Y01764*
Y01517*
X07585Y01385*
X07581Y01379*
X0758Y01372*
Y01274*
X07574Y0127*
X07569Y01263*
X07565Y01254*
X07564Y01246*
Y01194*
X07565Y01186*
X07569Y01177*
X07574Y0117*
X0758Y01166*
Y01038*
X07574Y01033*
X07569Y01026*
X07565Y01018*
X07564Y01009*
Y00958*
X07565Y00949*
X07569Y00941*
X07574Y00934*
X07581Y00929*
X07589Y00925*
X07598Y00924*
X07607Y00925*
X07615Y00929*
X07622Y00934*
X07627Y00941*
X07631Y00949*
X07632Y00958*
Y01009*
X07631Y01018*
X07627Y01026*
X07622Y01033*
X07616Y01038*
Y01166*
X07622Y0117*
X07627Y01177*
X07631Y01186*
X07632Y01194*
Y01246*
X07631Y01254*
X07627Y01263*
X07622Y0127*
X07616Y01274*
Y01365*
X07749Y01497*
X07753Y01503*
X07754Y0151*
Y01771*
X07753Y01778*
X07749Y01784*
X0769Y01843*
X07684Y01847*
X07677Y01848*
X07652*
X07648Y01854*
X0764Y0186*
X07632Y01863*
X07624Y01864*
G37*
G36*
X066Y009D02*
X06549D01*
X0654Y00898*
X06532Y00895*
X06525Y0089*
X06519Y00883*
X06516Y00874*
X06515Y00866*
X06516Y00857*
X06519Y00849*
X06525Y00842*
X06532Y00836*
X0654Y00833*
X06549Y00832*
X066*
X06609Y00833*
X06617Y00836*
X06624Y00842*
X06629Y00849*
X06633Y00857*
X06634Y00866*
X06633Y00874*
X06629Y00883*
X06624Y0089*
X06617Y00895*
X06609Y00898*
X066Y009*
G37*
G36*
X06364D02*
X06312D01*
X06304Y00898*
X06296Y00895*
X06289Y0089*
X06283Y00883*
X0628Y00874*
X06279Y00866*
X0628Y00857*
X06283Y00849*
X06289Y00842*
X06296Y00836*
X06304Y00833*
X06312Y00832*
X06364*
X06372Y00833*
X06381Y00836*
X06388Y00842*
X06393Y00849*
X06396Y00857*
X06398Y00866*
X06396Y00874*
X06393Y00883*
X06388Y0089*
X06381Y00895*
X06372Y00898*
X06364Y009*
G37*
G36*
X066Y00801D02*
X06549D01*
X0654Y008*
X06532Y00797*
X06525Y00791*
X06519Y00784*
X06516Y00776*
X06515Y00767*
X06516Y00758*
X06519Y0075*
X06525Y00743*
X06532Y00738*
X0654Y00734*
X06549Y00733*
X066*
X06609Y00734*
X06617Y00738*
X06624Y00743*
X06629Y0075*
X06633Y00758*
X06634Y00767*
X06633Y00776*
X06629Y00784*
X06624Y00791*
X06617Y00797*
X06609Y008*
X066Y00801*
G37*
G36*
X06364D02*
X06312D01*
X06304Y008*
X06296Y00797*
X06289Y00791*
X06283Y00784*
X0628Y00776*
X06279Y00767*
X0628Y00758*
X06283Y0075*
X06289Y00743*
X06296Y00738*
X06304Y00734*
X06312Y00733*
X06364*
X06372Y00734*
X06381Y00738*
X06388Y00743*
X06393Y0075*
X06396Y00758*
X06398Y00767*
X06396Y00776*
X06393Y00784*
X06388Y00791*
X06381Y00797*
X06372Y008*
X06364Y00801*
G37*
G36*
X08228Y0027D02*
X08214Y00268D01*
X082Y00264*
X08187Y00257*
X08176Y00248*
X08167Y00237*
X0816Y00224*
X08156Y00211*
X08155Y00196*
X08156Y00182*
X0816Y00168*
X08167Y00156*
X08176Y00144*
X08187Y00135*
X082Y00129*
X08214Y00124*
X08228Y00123*
X08242Y00124*
X08256Y00129*
X08269Y00135*
X0828Y00144*
X08289Y00156*
X08296Y00168*
X083Y00182*
X08301Y00196*
X083Y00211*
X08296Y00224*
X08289Y00237*
X0828Y00248*
X08269Y00257*
X08256Y00264*
X08242Y00268*
X08228Y0027*
G37*
G36*
X05511D02*
X05497Y00268D01*
X05483Y00264*
X05471Y00257*
X05459Y00248*
X0545Y00237*
X05444Y00224*
X05439Y00211*
X05438Y00196*
X05439Y00182*
X05444Y00168*
X0545Y00156*
X05459Y00144*
X05471Y00135*
X05483Y00129*
X05497Y00124*
X05511Y00123*
X05526Y00124*
X05539Y00129*
X05552Y00135*
X05563Y00144*
X05572Y00156*
X05579Y00168*
X05583Y00182*
X05585Y00196*
X05583Y00211*
X05579Y00224*
X05572Y00237*
X05563Y00248*
X05552Y00257*
X05539Y00264*
X05526Y00268*
X05511Y0027*
G37*
%LNbutton_pad-3*%
%LPD*%
G36*
X06398Y00568D02*
Y00431D01*
X06397Y00427*
X06393*
X06279*
Y0036*
X06393*
X06397*
X06398Y00355*
Y00312*
X06393Y00311*
X06393Y00312*
X06388Y00319*
X06381Y00324*
X06372Y00328*
X06364Y00329*
X06312*
X06304Y00328*
X06296Y00324*
X06289Y00319*
X06284Y00313*
X06257*
X05628Y00942*
Y01224*
X05631Y01225*
X05639Y01232*
X05646Y0124*
X0565Y0125*
X05652Y01261*
Y01297*
X0565Y01308*
X05649Y0131*
X05653Y01313*
X06398Y00568*
G37*
G36*
X06521Y00216D02*
X06519Y00213D01*
X06516Y00205*
X06515Y00196*
X06516Y00188*
X06519Y00179*
X06525Y00172*
X06532Y00167*
X0654Y00164*
X06549Y00162*
X06556*
Y00116*
X06487*
X06485Y00121*
X06489Y00125*
X06493Y00131*
X06494Y00138*
Y0022*
X06519*
X06521Y00216*
G37*
G54D22*
X06695Y01789D02*
X0728D01*
X06496Y01988D02*
Y02263D01*
Y01988D02*
X06695Y01789D01*
X06397Y02007D02*
X06535Y0187D01*
Y01791D02*
X06594Y01732D01*
X06535Y01791D02*
Y0187D01*
X06397Y02007D02*
Y02263D01*
X06594Y01732D02*
X06771D01*
X06476Y00138D02*
Y00229D01*
X06485Y00239D02*
X06606D01*
X06476Y00229D02*
X06485Y00239D01*
X06131Y00129D02*
X06467D01*
X06476Y00138*
X06574Y00107D02*
Y00196D01*
X06565Y00098D02*
X06574Y00107D01*
X05965Y00098D02*
X06565D01*
X07598Y0183D02*
X07677D01*
X07736Y01771*
Y0151D02*
Y01771D01*
X07598Y01372D02*
X07736Y0151D01*
X06417Y00217D02*
X06495Y00295D01*
X0624Y00155D02*
X06408D01*
X06417Y00164D02*
Y00217D01*
X06408Y00155D02*
X06417Y00164D01*
X05314Y00749D02*
X05965Y00098D01*
X05125Y01336D02*
X05186Y01397D01*
X05595D02*
X06417Y00576D01*
X05186Y01397D02*
X05595D01*
X05125Y01286D02*
Y01336D01*
X05118Y01279D02*
X05125Y01286D01*
X01889Y0122D02*
X02066D01*
X02165Y01313D02*
Y01318D01*
X02066Y0122D02*
X02133Y01286D01*
X02138D02*
X02165Y01313D01*
X02133Y01286D02*
X02138D01*
X01833Y01277D02*
X01889Y0122D01*
X01833Y01277D02*
Y01799D01*
X0288Y01227D02*
X03051Y01397D01*
Y01798*
X025Y01227D02*
X0288D01*
X03124Y01871D02*
X03372D01*
X03411Y01829D02*
X03428D01*
X0339Y01849D02*
X03411Y01829D01*
X0339Y01849D02*
Y01852D01*
X03372Y01871D02*
X0339Y01852D01*
X03051Y01798D02*
X03124Y01871D01*
X02992Y01732D02*
Y0187D01*
X02948Y01689D02*
X02992Y01732D01*
X02782Y01689D02*
X02948D01*
X02992Y0187D02*
X03035Y01913D01*
X03534*
X02247Y01829D02*
X02264D01*
X02285Y01806D02*
Y01807D01*
X02362Y01508D02*
Y01729D01*
X02264Y01829D02*
X02285Y01807D01*
Y01806D02*
X02362Y01729D01*
X02263Y0141D02*
X02362Y01508D01*
X02421Y01377D02*
Y01673D01*
X02527Y01779*
X02668*
X02362Y01318D02*
Y01323D01*
X02389Y0135*
X02394*
X02421Y01377*
X02601Y01829D02*
Y02241D01*
X02598Y02244D02*
X02601Y02241D01*
X03993Y0178D02*
Y01829D01*
X06791Y02201D02*
Y02263D01*
Y02201D02*
X07271D01*
X075Y01972*
Y0122D02*
Y01972D01*
X0625Y00295D02*
X06338D01*
X0561Y00935D02*
X0625Y00295D01*
X0561Y00935D02*
Y01279D01*
X06692Y01909D02*
Y02263D01*
Y01909D02*
X06771Y0183D01*
X0246Y01266D02*
Y01318D01*
Y01266D02*
X025Y01227D01*
X03933Y01682D02*
X04134D01*
X04252Y018*
X04507*
X04555Y01848*
X04609*
X06417Y00275D02*
Y00576D01*
X06364Y00222D02*
X06417Y00275D01*
X06338Y00196D02*
X06364Y00222D01*
X06574Y00393D02*
X06642D01*
Y00275D02*
Y00393D01*
X06606Y00239D02*
X06642Y00275D01*
X05413Y00846D02*
X06131Y00129D01*
X05413Y00846D02*
Y01279D01*
X03993Y01829D02*
X04018D01*
X03667Y0178D02*
X03993D01*
X03534Y01913D02*
X03667Y0178D01*
X02559Y01466D02*
X02782Y01689D01*
X02559Y01318D02*
Y01466D01*
X01803Y01829D02*
X01833Y01799D01*
X01656Y01829D02*
X01803D01*
X0728Y01789D02*
X07337Y01732D01*
X07362*
X05511Y00883D02*
Y01279D01*
Y00883D02*
X0624Y00155D01*
X06495Y00295D02*
X06574D01*
X05314Y00749D02*
Y01279D01*
X02668Y01779D02*
X02719Y01829D01*
X02837*
X02263Y01318D02*
Y0141D01*
X062Y01963D02*
Y02263D01*
X0597Y01732D02*
X062Y01963D01*
X05826Y01732D02*
X0597D01*
X02303Y02159D02*
Y02244D01*
X02129Y01985D02*
X02303Y02159D01*
X02129Y01759D02*
Y01985D01*
X021Y0173D02*
X02129Y01759D01*
X0201Y0173D02*
X021D01*
X03558Y01279D02*
Y01573D01*
X03715Y0173*
X03782*
X02066Y01318D02*
Y01388D01*
X02152Y01474*
Y017*
X02182Y0173*
X02247*
X06299Y01779D02*
Y02263D01*
Y01779D02*
X0635Y01728D01*
X06417*
X07598Y0122D02*
Y01372D01*
X07696Y00984D02*
Y0122D01*
X075Y00984D02*
Y0122D01*
X07598Y00984D02*
Y0122D01*
G54D23*
X06574Y00767D03*
Y00866D03*
Y00964D03*
X06338Y00767D03*
Y00866D03*
X06574Y00196D03*
Y00295D03*
Y00393D03*
X06338Y00196D03*
Y00295D03*
X08188Y01633D03*
Y01732D03*
Y0183D03*
X07952Y01633D03*
Y01732D03*
X07598Y01633D03*
Y01732D03*
Y0183D03*
X07362Y01633D03*
Y01732D03*
X07007Y01633D03*
Y01732D03*
Y0183D03*
X06771Y01633D03*
Y01732D03*
X06417Y01629D03*
Y01728D03*
Y01826D03*
X06181Y01629D03*
Y01728D03*
X05826Y01633D03*
Y01732D03*
Y0183D03*
X0559Y01633D03*
Y01732D03*
X01656Y01632D03*
Y0173D03*
Y01829D03*
X0142Y01632D03*
Y0173D03*
X02247Y01632D03*
Y0173D03*
Y01829D03*
X0201Y01632D03*
Y0173D03*
X02837Y01632D03*
Y0173D03*
Y01829D03*
X02601Y01632D03*
Y0173D03*
X03428Y01632D03*
Y0173D03*
Y01829D03*
X03191Y01632D03*
Y0173D03*
X04018Y01632D03*
Y0173D03*
Y01829D03*
X03782Y01632D03*
Y0173D03*
X04609Y01651D03*
Y0175D03*
Y01848D03*
X04373Y01651D03*
Y0175D03*
G54D24*
X06338Y00964D03*
Y00393D03*
X07952Y0183D03*
X07362D03*
X06771D03*
X06181Y01826D03*
X0559Y0183D03*
X0142Y01829D03*
X0201D03*
X02601D03*
X03191D03*
X03782D03*
X04373Y01848D03*
G54D25*
X07696Y0122D03*
X07598D03*
X075D03*
X07696Y00984D03*
X07598D03*
G54D26*
X075Y00984D03*
G54D27*
X05019Y01279D03*
X062Y02263D03*
X02657Y01318D03*
X02893Y02244D03*
G54D28*
X05118Y01279D03*
X05216D03*
X05314D03*
X05413D03*
X05511D03*
X0561D03*
X06299Y02263D03*
X06397D03*
X06496D03*
X06594D03*
X06692D03*
X06791D03*
X02559Y01318D03*
X0246D03*
X02362D03*
X02263D03*
X02165D03*
X02066D03*
X02795Y02244D03*
X02696D03*
X02598D03*
X025D03*
X02401D03*
X02303D03*
G54D29*
X04058Y01279D03*
X03958D03*
X03858D03*
X03758D03*
X03658D03*
G54D30*
X03558Y01279D03*
G54D31*
X01181Y01181D03*
X04527D03*
Y02244D03*
X01181Y02362D03*
X0807D03*
X08228Y00196D03*
X05511D03*
G54D32*
X03933Y01682D03*
M02*