%FSTAX23Y23*%
%MOIN*%
%SFA1B1*%

%IPPOS*%
%ADD9500C,0.023620*%
%ADD9501C,0.028000*%
%ADD9502C,0.035430*%
%ADD9503C,0.047240*%
%ADD9504C,0.125980*%
%LNbutton_pad-1*%
%LPD*%
G54D9500*
X06338Y00196D03*
Y00295D03*
Y00393D03*
X06574D03*
Y00295D03*
Y00196D03*
Y00767D03*
Y00866D03*
Y00964D03*
X06338D03*
Y00866D03*
Y00767D03*
X075Y00984D03*
X07598D03*
X07696D03*
Y0122D03*
X07598D03*
X075D03*
X07952Y01633D03*
Y01732D03*
Y0183D03*
X08188D03*
Y01732D03*
Y01633D03*
X07598D03*
Y01732D03*
Y0183D03*
X07362D03*
Y01732D03*
Y01633D03*
X07007D03*
Y01732D03*
Y0183D03*
X06771D03*
Y01732D03*
Y01633D03*
X06417Y01629D03*
Y01728D03*
Y01826D03*
X06181D03*
Y01728D03*
Y01629D03*
X05826Y01633D03*
Y01732D03*
Y0183D03*
X0559D03*
Y01732D03*
Y01633D03*
X04609Y01651D03*
Y0175D03*
Y01848D03*
X04373D03*
Y0175D03*
Y01651D03*
X04018Y01632D03*
Y0173D03*
Y01829D03*
X03782D03*
Y0173D03*
Y01632D03*
X03428D03*
Y0173D03*
Y01829D03*
X03191D03*
Y0173D03*
Y01632D03*
X02837D03*
Y0173D03*
Y01829D03*
X02601D03*
Y0173D03*
Y01632D03*
X02247D03*
Y0173D03*
Y01829D03*
X0201D03*
Y0173D03*
Y01632D03*
X01656D03*
Y0173D03*
Y01829D03*
X0142D03*
Y0173D03*
Y01632D03*
G54D9501*
X03933Y01682D03*
G54D9502*
X03558Y01279D03*
X03658D03*
X03758D03*
X03858D03*
X03958D03*
X04058D03*
G54D9503*
X02066Y01318D03*
X02165D03*
X02263D03*
X02362D03*
X0246D03*
X02559D03*
X02657D03*
X05019Y01279D03*
X05118D03*
X05216D03*
X05314D03*
X05413D03*
X05511D03*
X0561D03*
X06299Y02263D03*
X06397D03*
X06496D03*
X06594D03*
X06692D03*
X06791D03*
X062D03*
X02893Y02244D03*
X02795D03*
X02696D03*
X02598D03*
X025D03*
X02401D03*
X02303D03*
G54D9504*
X01181Y01181D03*
X04527D03*
X05511Y00196D03*
X08228D03*
X0807Y02362D03*
X04527Y02244D03*
X01181Y02362D03*
M02*