%FSTAX23Y23*%
%MOIN*%
%SFA1B1*%

%IPPOS*%
%ADD10C,0.010000*%
%ADD11C,0.007870*%
%LNbutton_pad-1*%
%LPD*%
G54D10*
X06333Y01004D02*
X06328Y01013D01*
X06318*
X06313Y01004*
X06318Y00996*
X06328*
X06333Y01004*
X07469Y00969D02*
X07464Y00978D01*
X07454*
X07449Y00969*
X07454Y0096*
X07464*
X07469Y00969*
X06333Y00434D02*
X06328Y00442D01*
X06318*
X06313Y00434*
X06318Y00425*
X06328*
X06333Y00434*
X07948Y01871D02*
X07943Y01879D01*
X07932*
X07927Y01871*
X07932Y01862*
X07943*
X07948Y01871*
X07357D02*
X07352Y01879D01*
X07342*
X07337Y01871*
X07342Y01862*
X07352*
X07357Y01871*
X06767D02*
X06761Y01879D01*
X06751*
X06746Y01871*
X06751Y01862*
X06761*
X06767Y01871*
X06176Y01867D02*
X06171Y01875D01*
X06161*
X06156Y01867*
X06161Y01858*
X06171*
X06176Y01867*
X05585Y01871D02*
X0558Y01879D01*
X0557*
X05565Y01871*
X0557Y01862*
X0558*
X05585Y01871*
X01415Y01869D02*
X0141Y01878D01*
X014*
X01395Y01869*
X014Y0186*
X0141*
X01415Y01869*
X02006D02*
X02001Y01878D01*
X0199*
X01985Y01869*
X0199Y0186*
X02001*
X02006Y01869*
X02596D02*
X02591Y01878D01*
X02581*
X02576Y01869*
X02581Y0186*
X02591*
X02596Y01869*
X03187D02*
X03182Y01878D01*
X03172*
X03167Y01869*
X03172Y0186*
X03182*
X03187Y01869*
X03777D02*
X03772Y01878D01*
X03762*
X03757Y01869*
X03762Y0186*
X03772*
X03777Y01869*
X04368Y01889D02*
X04363Y01897D01*
X04353*
X04348Y01889*
X04353Y0188*
X04363*
X04368Y01889*
X01488Y01137D02*
Y01037D01*
Y01137D02*
X0155D01*
X01488Y01089D02*
X01526D01*
X01562Y01137D02*
Y01037D01*
Y01137D02*
X01605D01*
X01619Y01132*
X01624Y01127*
X01628Y01118*
Y01108*
X01624Y01099*
X01619Y01094*
X01605Y01089*
X01562*
X01595D02*
X01628Y01037D01*
X01713Y01137D02*
X01651D01*
Y01037*
X01713*
X01651Y01089D02*
X01689D01*
X01758Y01137D02*
X01748Y01132D01*
X01739Y01123*
X01734Y01113*
X01729Y01099*
Y01075*
X01734Y01061*
X01739Y01051*
X01748Y01042*
X01758Y01037*
X01777*
X01786Y01042*
X01796Y01051*
X01801Y01061*
X01805Y01075*
Y01099*
X01801Y01113*
X01796Y01123*
X01786Y01132*
X01777Y01137*
X01758*
X01772Y01056D02*
X01801Y01027D01*
X01829Y01137D02*
Y01066D01*
X01834Y01051*
X01843Y01042*
X01857Y01037*
X01867*
X01881Y01042*
X01891Y01051*
X01895Y01066*
Y01137*
X01985D02*
X01923D01*
Y01037*
X01985*
X01923Y01089D02*
X01961D01*
X02002Y01137D02*
Y01037D01*
Y01137D02*
X02068Y01037D01*
Y01137D02*
Y01037D01*
X02167Y01113D02*
X02163Y01123D01*
X02153Y01132*
X02144Y01137*
X02124*
X02115Y01132*
X02105Y01123*
X02101Y01113*
X02096Y01099*
Y01075*
X02101Y01061*
X02105Y01051*
X02115Y01042*
X02124Y01037*
X02144*
X02153Y01042*
X02163Y01051*
X02167Y01061*
X02195Y01137D02*
X02233Y01089D01*
Y01037*
X02272Y01137D02*
X02233Y01089D01*
X02363Y01137D02*
Y01037D01*
Y01137D02*
X02406D01*
X0242Y01132*
X02425Y01127*
X0243Y01118*
Y01108*
X02425Y01099*
X0242Y01094*
X02406Y01089*
X02363*
X02396D02*
X0243Y01037D01*
X02528D02*
X0249Y01137D01*
X02452Y01037*
X02466Y0107D02*
X02514D01*
X02552Y01137D02*
Y01037D01*
Y01137D02*
X02618Y01037D01*
Y01137D02*
Y01037D01*
X02717Y01113D02*
X02712Y01123D01*
X02703Y01132*
X02693Y01137*
X02674*
X02665Y01132*
X02655Y01123*
X02651Y01113*
X02646Y01099*
Y01075*
X02651Y01061*
X02655Y01051*
X02665Y01042*
X02674Y01037*
X02693*
X02703Y01042*
X02712Y01051*
X02717Y01061*
Y01075*
X02693D02*
X02717D01*
X02802Y01137D02*
X0274D01*
Y01037*
X02802*
X0274Y01089D02*
X02778D01*
X07559Y02206D02*
X07582Y02106D01*
X07606Y02206D02*
X07582Y02106D01*
X07606Y02206D02*
X0763Y02106D01*
X07654Y02206D02*
X0763Y02106D01*
X0775D02*
X07712Y02206D01*
X07674Y02106*
X07688Y02139D02*
X07736D01*
X07773Y02206D02*
X07811Y02106D01*
X07849Y02206D02*
X07811Y02106D01*
X07924Y02206D02*
X07862D01*
Y02106*
X07924*
X07862Y02158D02*
X079D01*
X08019Y02206D02*
Y02106D01*
Y02206D02*
X08081D01*
X08019Y02158D02*
X08058D01*
X08121Y02206D02*
X08112Y02201D01*
X08102Y02191*
X08097Y02182*
X08093Y02168*
Y02144*
X08097Y0213*
X08102Y0212*
X08112Y02111*
X08121Y02106*
X0814*
X0815Y02111*
X08159Y0212*
X08164Y0213*
X08169Y02144*
Y02168*
X08164Y02182*
X08159Y02191*
X0815Y02201*
X0814Y02206*
X08121*
X08192D02*
Y02106D01*
Y02206D02*
X08235D01*
X08249Y02201*
X08254Y02196*
X08259Y02187*
Y02177*
X08254Y02168*
X08249Y02163*
X08235Y02158*
X08192*
X08226D02*
X08259Y02106D01*
X08281Y02206D02*
Y02106D01*
Y02206D02*
X08319Y02106D01*
X08357Y02206D02*
X08319Y02106D01*
X08357Y02206D02*
Y02106D01*
X0559Y01427D02*
X0558Y01436D01*
X05561*
X05551Y01427*
Y01417*
X05561Y01407*
X0558*
X0559Y01397*
Y01387*
X0558Y01377*
X05561*
X05551Y01387*
X05649D02*
Y01427D01*
X05639Y01436*
X0562*
X0561Y01427*
Y01387*
X0562Y01377*
X05639*
X05629Y01397D02*
X05649Y01377D01*
X05639D02*
X05649Y01387D01*
X05669Y01436D02*
Y01387D01*
X05679Y01377*
X05698*
X05708Y01387*
Y01436*
X05728Y01377D02*
Y01436D01*
X05757*
X05767Y01427*
Y01407*
X05757Y01397*
X05728*
X05747D02*
X05767Y01377D01*
X05826Y01436D02*
X05787D01*
Y01377*
X05826*
X05787Y01407D02*
X05807D01*
X06141Y01436D02*
X06181D01*
X06161*
Y01377*
X062D02*
Y01436D01*
X0623*
X0624Y01427*
Y01407*
X0623Y01397*
X062*
X0622D02*
X0624Y01377D01*
X06259Y01436D02*
X06279D01*
X06269*
Y01377*
X06259*
X06279*
X06771Y01427D02*
X06761Y01436D01*
X06742*
X06732Y01427*
Y01417*
X06742Y01407*
X06761*
X06771Y01397*
Y01387*
X06761Y01377*
X06742*
X06732Y01387*
X06791Y01377D02*
Y01417D01*
X06811Y01436*
X0683Y01417*
Y01377*
Y01407*
X06791*
X0685Y01436D02*
Y01377D01*
X0687Y01397*
X06889Y01377*
Y01436*
X07322Y01397D02*
Y01456D01*
X07352*
X07362Y01446*
Y01427*
X07352Y01417*
X07322*
X07381Y01456D02*
Y01397D01*
X07401Y01417*
X07421Y01397*
Y01456*
X0744Y01397D02*
Y01456D01*
X0746Y01437*
X0748Y01456*
Y01397*
X07952Y01446D02*
X07942Y01456D01*
X07923*
X07913Y01446*
Y01437*
X07923Y01427*
X07942*
X07952Y01417*
Y01407*
X07942Y01397*
X07923*
X07913Y01407*
X07972Y01456D02*
X07992D01*
X07982*
Y01397*
X07972*
X07992*
X08021D02*
Y01456D01*
X0806Y01397*
Y01456*
X0812D02*
X0808D01*
Y01397*
X0812*
X0808Y01427D02*
X081D01*
X05748Y00393D02*
X05767D01*
X05757*
Y00452*
X05748Y00442*
X05895D02*
X05885Y00452D01*
X05866*
X05856Y00442*
Y00433*
X05866Y00423*
X05885*
X05895Y00413*
Y00403*
X05885Y00393*
X05866*
X05856Y00403*
X05915Y00452D02*
X05934D01*
X05925*
Y00393*
X05915*
X05934*
X05964D02*
Y00452D01*
X06003Y00393*
Y00452*
X06062D02*
X06023D01*
Y00393*
X06062*
X06023Y00423D02*
X06043D01*
X05748Y00246D02*
X05757Y00255D01*
X05777*
X05787Y00246*
Y00206*
X05777Y00196*
X05757*
X05748Y00206*
Y00246*
X05905D02*
X05895Y00255D01*
X05875*
X05866Y00246*
Y00236*
X05875Y00226*
X05895*
X05905Y00216*
Y00206*
X05895Y00196*
X05875*
X05866Y00206*
X05925Y00196D02*
Y00236D01*
X05944Y00255*
X05964Y00236*
Y00196*
Y00226*
X05925*
X05984Y00255D02*
Y00196D01*
X06003Y00216*
X06023Y00196*
Y00255*
X07047Y01033D02*
X07057Y01043D01*
X07076*
X07086Y01033*
Y00994*
X07076Y00984*
X07057*
X07047Y00994*
Y01033*
X07165Y00984D02*
X07185D01*
X07175*
Y01043*
X07165Y01033*
X07214Y01043D02*
X07253Y00984D01*
Y01043D02*
X07214Y00984D01*
X07047Y01181D02*
X07066D01*
X07057*
Y0124*
X07047Y0123*
X07155Y0124D02*
X07194Y01181D01*
Y0124D02*
X07155Y01181D01*
X07214D02*
X07234D01*
X07224*
Y0124*
X07214Y0123*
X07263D02*
X07273Y0124D01*
X07293*
X07303Y0123*
Y0119*
X07293Y01181*
X07273*
X07263Y0119*
Y0123*
X05708Y00944D02*
X05728D01*
X05718*
Y01003*
X05708Y00994*
X05846Y01003D02*
X05826D01*
X05816Y00994*
Y00954*
X05826Y00944*
X05846*
X05856Y00954*
Y00994*
X05846Y01003*
X05915D02*
X05875D01*
Y00974*
X05895*
X05875*
Y00944*
X05974Y01003D02*
X05934D01*
Y00974*
X05954*
X05934*
Y00944*
X06033Y00994D02*
X06023Y01003D01*
X06003*
X05994Y00994*
Y00984*
X06003Y00974*
X06023*
X06033Y00964*
Y00954*
X06023Y00944*
X06003*
X05994Y00954*
X06092Y01003D02*
X06053D01*
Y00944*
X06092*
X06053Y00974D02*
X06072D01*
X06112Y01003D02*
X06151D01*
X06131*
Y00944*
X05708Y00797D02*
X05718Y00807D01*
X05738*
X05748Y00797*
Y00757*
X05738Y00748*
X05718*
X05708Y00757*
Y00797*
X05866D02*
X05856Y00807D01*
X05836*
X05826Y00797*
Y00757*
X05836Y00748*
X05856*
X05866Y00757*
Y00777*
X05846*
X05885Y00748D02*
Y00807D01*
X05925Y00748*
Y00807*
X05944D02*
Y00748D01*
X05974*
X05984Y00757*
Y00797*
X05974Y00807*
X05944*
X05836Y0122D02*
X05816D01*
X05807Y0121*
Y01171*
X05816Y01161*
X05836*
X05846Y01171*
Y0121*
X05836Y0122*
X05905D02*
X05866D01*
Y0119*
X05885*
X05866*
Y01161*
X05964Y0122D02*
X05925D01*
Y0119*
X05944*
X05925*
Y01161*
X06023Y0121D02*
X06013Y0122D01*
X05994*
X05984Y0121*
Y012*
X05994Y0119*
X06013*
X06023Y01181*
Y01171*
X06013Y01161*
X05994*
X05984Y01171*
X06082Y0122D02*
X06043D01*
Y01161*
X06082*
X06043Y0119D02*
X06062D01*
X06102Y0122D02*
X06141D01*
X06121*
Y01161*
X07854Y01043D02*
Y01082D01*
X07874Y01102*
X07893Y01082*
Y01043*
Y01072*
X07854*
X07913Y01043D02*
Y01102D01*
X07933Y01082*
X07952Y01102*
Y01043*
X07972D02*
Y01102D01*
X08001*
X08011Y01092*
Y01072*
X08001Y01062*
X07972*
X08031Y01102D02*
Y01043D01*
X0807*
X0809Y01102D02*
X0811D01*
X081*
Y01043*
X0809*
X0811*
X08139Y01102D02*
X08179D01*
X08159*
Y01043*
X08198Y01102D02*
Y01053D01*
X08208Y01043*
X08228*
X08238Y01053*
Y01102*
X08257D02*
Y01043D01*
X08287*
X08297Y01053*
Y01092*
X08287Y01102*
X08257*
X08356D02*
X08316D01*
Y01043*
X08356*
X08316Y01072D02*
X08336D01*
X0559Y0058D02*
X0558Y0059D01*
X05561*
X05551Y0058*
Y00541*
X05561Y00531*
X0558*
X0559Y00541*
Y00561*
X0557*
X0561Y00531D02*
Y0057D01*
X05629Y0059*
X05649Y0057*
Y00531*
Y00561*
X0561*
X05669Y0059D02*
X05688D01*
X05679*
Y00531*
X05669*
X05688*
X05718D02*
Y0059D01*
X05757Y00531*
Y0059*
X05875Y0058D02*
X05866Y0059D01*
X05846*
X05836Y0058*
Y0057*
X05846Y00561*
X05866*
X05875Y00551*
Y00541*
X05866Y00531*
X05846*
X05836Y00541*
X05934Y0059D02*
X05895D01*
Y00531*
X05934*
X05895Y00561D02*
X05915D01*
X05954Y0059D02*
Y00531D01*
X05993*
X06052Y0059D02*
X06013D01*
Y00531*
X06052*
X06013Y00561D02*
X06033D01*
X06112Y0058D02*
X06102Y0059D01*
X06082*
X06072Y0058*
Y00541*
X06082Y00531*
X06102*
X06112Y00541*
X06131Y0059D02*
X06171D01*
X06151*
Y00531*
X04369Y01996D02*
X04359Y02006D01*
X04339*
X04329Y01996*
Y01986*
X04339Y01976*
X04359*
X04369Y01966*
Y01956*
X04359Y01946*
X04339*
X04329Y01956*
X04389Y01946D02*
X04409D01*
X04399*
Y02006*
X04389Y01996*
X03778Y01976D02*
X03768Y01986D01*
X03748*
X03738Y01976*
Y01966*
X03748Y01956*
X03768*
X03778Y01946*
Y01936*
X03768Y01926*
X03748*
X03738Y01936*
X03828Y01926D02*
Y01986D01*
X03798Y01956*
X03838*
X03188Y01976D02*
X03178Y01986D01*
X03158*
X03148Y01976*
Y01966*
X03158Y01956*
X03178*
X03188Y01946*
Y01936*
X03178Y01926*
X03158*
X03148Y01936*
X03208Y01986D02*
X03248D01*
Y01976*
X03208Y01936*
Y01926*
X02597Y01976D02*
X02587Y01986D01*
X02567*
X02557Y01976*
Y01966*
X02567Y01956*
X02587*
X02597Y01946*
Y01936*
X02587Y01926*
X02567*
X02557Y01936*
X02617D02*
X02627Y01926D01*
X02647*
X02657Y01936*
Y01976*
X02647Y01986*
X02627*
X02617Y01976*
Y01966*
X02627Y01956*
X02657*
X02007Y01976D02*
X01997Y01986D01*
X01977*
X01967Y01976*
Y01966*
X01977Y01956*
X01997*
X02007Y01946*
Y01936*
X01997Y01926*
X01977*
X01967Y01936*
X02027Y01926D02*
X02047D01*
X02037*
Y01986*
X02027Y01976*
X02117Y01926D02*
X02077D01*
X02117Y01966*
Y01976*
X02107Y01986*
X02087*
X02077Y01976*
X01416D02*
X01406Y01986D01*
X01386*
X01376Y01976*
Y01966*
X01386Y01956*
X01406*
X01416Y01946*
Y01936*
X01406Y01926*
X01386*
X01376Y01936*
X01436Y01926D02*
X01456D01*
X01446*
Y01986*
X01436Y01976*
X01516Y01926D02*
Y01986D01*
X01486Y01956*
X01526*
X05587Y01978D02*
X05577Y01988D01*
X05557*
X05547Y01978*
Y01968*
X05557Y01958*
X05577*
X05587Y01948*
Y01938*
X05577Y01928*
X05557*
X05547Y01938*
X05607Y01978D02*
X05617Y01988D01*
X05637*
X05647Y01978*
Y01968*
X05637Y01958*
X05627*
X05637*
X05647Y01948*
Y01938*
X05637Y01928*
X05617*
X05607Y01938*
X06177Y01974D02*
X06167Y01984D01*
X06147*
X06137Y01974*
Y01964*
X06147Y01954*
X06167*
X06177Y01944*
Y01934*
X06167Y01924*
X06147*
X06137Y01934*
X06237Y01984D02*
X06197D01*
Y01954*
X06217Y01964*
X06227*
X06237Y01954*
Y01934*
X06227Y01924*
X06207*
X06197Y01934*
X06768Y01978D02*
X06758Y01988D01*
X06738*
X06728Y01978*
Y01968*
X06738Y01958*
X06758*
X06768Y01948*
Y01938*
X06758Y01928*
X06738*
X06728Y01938*
X06788Y01978D02*
X06798Y01988D01*
X06818*
X06828Y01978*
Y01968*
X06818Y01958*
X06828Y01948*
Y01938*
X06818Y01928*
X06798*
X06788Y01938*
Y01948*
X06798Y01958*
X06788Y01968*
Y01978*
X06798Y01958D02*
X06818D01*
X07358Y01978D02*
X07348Y01988D01*
X07328*
X07318Y01978*
Y01968*
X07328Y01958*
X07348*
X07358Y01948*
Y01938*
X07348Y01928*
X07328*
X07318Y01938*
X07378Y01928D02*
X07398D01*
X07388*
Y01988*
X07378Y01978*
X07428Y01928D02*
X07448D01*
X07438*
Y01988*
X07428Y01978*
X07949D02*
X07939Y01988D01*
X07919*
X07909Y01978*
Y01968*
X07919Y01958*
X07939*
X07949Y01948*
Y01938*
X07939Y01928*
X07919*
X07909Y01938*
X07969Y01928D02*
X07989D01*
X07979*
Y01988*
X07969Y01978*
X08019D02*
X08029Y01988D01*
X08049*
X08059Y01978*
Y01968*
X08049Y01958*
X08039*
X08049*
X08059Y01948*
Y01938*
X08049Y01928*
X08029*
X08019Y01938*
X06335Y00541D02*
X06325Y00551D01*
X06305*
X06295Y00541*
Y00531*
X06305Y00521*
X06325*
X06335Y00511*
Y00501*
X06325Y00491*
X06305*
X06295Y00501*
X06395Y00491D02*
X06355D01*
X06395Y00531*
Y00541*
X06385Y00551*
X06365*
X06355Y00541*
X0748Y01349D02*
X0747Y01359D01*
X0745*
X0744Y01349*
Y01339*
X0745Y01329*
X0747*
X0748Y01319*
Y01309*
X0747Y01299*
X0745*
X0744Y01309*
X0754Y01359D02*
X0752Y01349D01*
X075Y01329*
Y01309*
X0751Y01299*
X0753*
X0754Y01309*
Y01319*
X0753Y01329*
X075*
X06335Y01112D02*
X06325Y01122D01*
X06305*
X06295Y01112*
Y01102*
X06305Y01092*
X06325*
X06335Y01082*
Y01072*
X06325Y01062*
X06305*
X06295Y01072*
X06355Y01062D02*
X06375D01*
X06365*
Y01122*
X06355Y01112*
X06405D02*
X06415Y01122D01*
X06435*
X06445Y01112*
Y01072*
X06435Y01062*
X06415*
X06405Y01072*
Y01112*
G54D11*
X06297Y00711D02*
Y01027D01*
X06298Y01028*
X06612*
X06297Y00711D02*
X06612D01*
Y01028*
X07437Y00942D02*
X07752D01*
X07436Y00943D02*
X07437Y00942D01*
X07436Y00943D02*
Y01257D01*
X07752Y00942D02*
Y01257D01*
X07436D02*
X07752D01*
X06297Y0014D02*
Y00456D01*
X06298Y00457*
X06612*
X06297Y0014D02*
X06612D01*
Y00457*
X07911Y01577D02*
Y01893D01*
X07912Y01894*
X08226*
X07911Y01577D02*
X08226D01*
Y01894*
X0732Y01577D02*
Y01893D01*
X07321Y01894*
X07635*
X0732Y01577D02*
X07635D01*
Y01894*
X0673Y01577D02*
Y01893D01*
X06731Y01894*
X07045*
X0673Y01577D02*
X07045D01*
Y01894*
X06139Y01573D02*
Y01889D01*
X0614Y0189*
X06454*
X06139Y01573D02*
X06454D01*
Y0189*
X05549Y01577D02*
Y01893D01*
X0555Y01894*
X05864*
X05549Y01577D02*
X05864D01*
Y01894*
X01378Y01576D02*
Y01892D01*
X01379Y01892*
X01693*
X01378Y01576D02*
X01693D01*
Y01892*
X01969Y01576D02*
Y01892D01*
X0197Y01892*
X02284*
X01969Y01576D02*
X02284D01*
Y01892*
X0256Y01576D02*
Y01892D01*
X0256Y01892*
X02874*
X0256Y01576D02*
X02874D01*
Y01892*
X0315Y01576D02*
Y01892D01*
X03151Y01892*
X03465*
X0315Y01576D02*
X03465D01*
Y01892*
X03741Y01576D02*
Y01892D01*
X03742Y01892*
X04056*
X03741Y01576D02*
X04056D01*
Y01892*
X04331Y01595D02*
Y01911D01*
X04332Y01912*
X04646*
X04331Y01595D02*
X04646D01*
Y01912*
M02*