%FSTAX23Y23*%
%MOIN*%
%SFA1B1*%

%IPPOS*%
%ADD22C,0.015750*%
%ADD23O,0.098430X0.047240*%
%ADD24R,0.098430X0.047240*%
%ADD25O,0.047240X0.098430*%
%ADD26R,0.047240X0.098430*%
%ADD27R,0.062990X0.098430*%
%ADD28O,0.062990X0.098430*%
%ADD29O,0.062990X0.078740*%
%ADD30R,0.062990X0.078740*%
%ADD31C,0.060000*%
%ADD32C,0.050000*%
%LNbutton_pad-1*%
%LPD*%
G36*
X08503Y02539D02*
Y00039D01*
X08011*
X08007Y00044*
X07999Y00055*
X07994Y00067*
X07992Y0008*
Y00086*
Y00295*
X07991Y00304*
X07988Y00322*
X0798Y0034*
X0797Y00355*
X07964Y00362*
X07686Y0064*
X07679Y00646*
X07663Y00657*
X07645Y00664*
X07625Y00668*
X07616Y00669*
X07265*
X07256Y00668*
X07236Y00664*
X07218Y00657*
X07202Y00646*
X07195Y0064*
X06879Y00324*
X06873Y00317*
X06862Y003*
X06854Y00282*
X0685Y00263*
X0685Y00253*
Y00039*
X05355Y0002*
X05349Y00023*
X05336Y00031*
X05326Y00041*
X05317Y00054*
X05312Y00068*
X05309Y00082*
X05309Y00097*
X05312Y00112*
X05315Y00119*
X05255Y00677*
X05254Y00686*
X05249Y00702*
X05242Y00717*
X05232Y00731*
X05226Y00737*
X05027Y00936*
X05022Y00942*
X05015Y00947*
X05017Y00952*
X05018Y00952*
X05039Y00947*
X05061Y00946*
Y00946*
X06096*
X06189Y00853*
Y00853*
X06195Y00849*
X06202Y00847*
X06284*
X06289Y00842*
X06296Y00836*
X06304Y00833*
X06312Y00832*
X06364*
X06372Y00833*
X06381Y00836*
X06388Y00842*
X06392Y00847*
X0652*
X06525Y00842*
X06532Y00836*
X0654Y00833*
X06549Y00832*
X066*
X06609Y00833*
X06617Y00836*
X06624Y00842*
X06629Y00849*
X06633Y00857*
X06634Y00866*
X06633Y00874*
X06629Y00883*
X06624Y0089*
X06617Y00895*
X06609Y00898*
X066Y009*
X06549*
X0654Y00898*
X06532Y00895*
X06525Y0089*
X0652Y00884*
X06392*
X06388Y0089*
X06381Y00895*
X06372Y00898*
X06364Y009*
X06312*
X06304Y00898*
X06296Y00895*
X06289Y0089*
X06284Y00884*
X06209*
X06116Y00977*
X06111Y0098*
X06112Y00985*
X06266*
X06279Y00972*
Y0093*
X06397*
Y00946*
X0652*
X06525Y0094*
X06532Y00935*
X0654Y00931*
X06549Y0093*
X066*
X06609Y00931*
X06617Y00935*
X06624Y0094*
X06629Y00947*
X06633Y00955*
X06634Y00964*
X06633Y00971*
X06638Y00973*
X06655Y00957*
Y00835*
X06616Y00797*
X06609Y008*
X066Y00801*
X06549*
X0654Y008*
X06532Y00797*
X06525Y00791*
X0652Y00785*
X06392*
X06388Y00791*
X06381Y00797*
X06372Y008*
X06364Y00801*
X06312*
X06304Y008*
X06296Y00797*
X06289Y00791*
X06283Y00784*
X0628Y00776*
X06279Y00767*
X0628Y00758*
X06283Y0075*
X06289Y00743*
X06296Y00738*
X06304Y00734*
X06312Y00733*
X06364*
X06372Y00734*
X06381Y00738*
X06388Y00743*
X06392Y00749*
X0652*
X06525Y00743*
X06532Y00738*
X0654Y00734*
X06549Y00733*
X066*
X06609Y00734*
X06617Y00738*
X06624Y00743*
X06629Y0075*
X06633Y00758*
X06633Y00762*
X06686Y00815*
X0669Y0082*
X06691Y00827*
Y00964*
X0669Y00971*
X06686Y00977*
X06607Y01056*
X06602Y01059*
X06603Y01064*
X06626*
X06733Y00957*
Y00753*
X06402Y00421*
X06397Y00423*
Y00427*
X06279*
Y0036*
X06397*
Y00371*
X064Y00375*
X06406Y00376*
X06412Y0038*
X06764Y00732*
X06768Y00738*
X0677Y00745*
Y00964*
X06768Y00971*
X06764Y00977*
X06646Y01095*
X06641Y01098*
X06642Y01103*
X07007*
X07014Y01105*
X0702Y01109*
X07181Y01269*
X0747*
X07472Y01265*
X0747Y01263*
X07467Y01254*
X07466Y01246*
Y01194*
X07467Y01186*
X0747Y01177*
X07476Y0117*
X07483Y01165*
X07491Y01162*
X075Y0116*
X07508Y01162*
X07516Y01165*
X07523Y0117*
X07529Y01177*
X07532Y01186*
X07533Y01194*
Y01246*
X07532Y01254*
X07529Y01263*
X07527Y01265*
X07529Y01269*
X07568*
X0757Y01265*
X07569Y01263*
X07565Y01254*
X07564Y01246*
Y01194*
X07565Y01186*
X07569Y01177*
X07574Y0117*
X07581Y01165*
X07589Y01162*
X07598Y0116*
X07607Y01162*
X07615Y01165*
X07622Y0117*
X07627Y01177*
X07631Y01186*
X07632Y01194*
Y01246*
X07631Y01254*
X07627Y01263*
X07626Y01265*
X07628Y01269*
X07667*
X07669Y01265*
X07667Y01263*
X07664Y01254*
X07662Y01246*
Y01194*
X07664Y01186*
X07667Y01177*
X07672Y0117*
X07679Y01165*
X07688Y01162*
X07696Y0116*
X07705Y01162*
X07713Y01165*
X0772Y0117*
X07726Y01177*
X07729Y01186*
X0773Y01194*
Y01246*
X07729Y01254*
X07726Y01263*
X0772Y0127*
X07715Y01274*
Y01288*
X07713Y01294*
X07709Y013*
X07703Y01304*
X07696Y01306*
X07173*
X07166Y01304*
X0716Y013*
X07Y0114*
X05088*
X05037Y01191*
Y0122*
X05061*
Y01335*
Y01338*
X05065Y0134*
X05099*
X051Y01335*
X05097Y01333*
X05088Y01326*
X05081Y01318*
X05077Y01308*
X05076Y01297*
Y01261*
X05077Y0125*
X05081Y0124*
X05088Y01232*
X05097Y01225*
X05107Y01221*
X05118Y01219*
X05128Y01221*
X05139Y01225*
X05147Y01232*
X05154Y0124*
X05158Y0125*
X05159Y01261*
Y01297*
X05158Y01308*
X05154Y01318*
X05147Y01326*
X05139Y01333*
X05135Y01335*
X05136Y0134*
X05169*
X05185Y01324*
X0518Y01318*
X05176Y01308*
X05174Y01297*
Y01261*
X05176Y0125*
X0518Y0124*
X05186Y01232*
X05195Y01225*
X05205Y01221*
X05216Y01219*
X05227Y01221*
X05237Y01225*
X05246Y01232*
X05252Y0124*
X05256Y0125*
X05258Y01261*
Y01297*
X05256Y01308*
X05252Y01318*
X05246Y01326*
X05237Y01333*
X05227Y01337*
X05222Y01338*
X0522Y0134*
X0519Y01371*
X05184Y01375*
X05177Y01376*
X0496*
X04953Y01375*
X04947Y01371*
X04908Y01331*
X04904Y01325*
X04903Y01318*
Y012*
X04903Y01197*
X04899Y01194*
X04722Y01371*
X04716Y01375*
X04709Y01376*
X03622*
X03615Y01375*
X03609Y01371*
X03569Y01331*
X03567Y01328*
X03516*
Y0123*
X03599*
Y01301*
X036Y01303*
Y0131*
X03629Y0134*
X04702*
X04983Y01058*
X04987Y01054*
X05002Y01042*
X0502Y01032*
X05038Y01027*
X05037Y01022*
X05025Y01023*
X0501Y01028*
X04995Y01035*
X04987Y01042*
X04983Y01046*
X0498Y01049*
X04744Y01284*
X04738Y01288*
X04731Y0129*
X04099*
X04098Y01298*
X04094Y01308*
X04087Y01317*
X04079Y01323*
X04069Y01327*
X04058Y01329*
X04047Y01327*
X04037Y01323*
X04028Y01317*
X04022Y01308*
X04017Y01298*
X04016Y01287*
Y01271*
X04017Y0126*
X04022Y0125*
X04028Y01242*
X04037Y01235*
X04047Y01231*
X04058Y01229*
X04069Y01231*
X04079Y01235*
X04087Y01242*
X04094Y0125*
X04095Y01253*
X04498*
X04499Y01248*
X04486Y01242*
X04475Y01232*
X04466Y01221*
X04459Y01209*
X04455Y01195*
X04454Y01181*
X04455Y01166*
X04459Y01153*
X04466Y0114*
X04475Y01129*
X04486Y0112*
X04499Y01113*
X04513Y01109*
X04527Y01107*
X04541Y01109*
X04555Y01113*
X04568Y0112*
X04579Y01129*
X04588Y0114*
X04595Y01153*
X04599Y01166*
X046Y01181*
X04599Y01195*
X04595Y01209*
X04588Y01221*
X04579Y01232*
X04568Y01242*
X04555Y01248*
X04556Y01253*
X04724*
X0492Y01057*
X04917Y01053*
X04911Y01055*
X04884Y01063*
X04856Y01068*
X04828Y01069*
Y01069*
X04054*
X03976Y01147*
Y01234*
X03979Y01235*
X03987Y01242*
X03994Y0125*
X03998Y0126*
X04Y01271*
Y01287*
X03998Y01298*
X03994Y01308*
X03987Y01317*
X03979Y01323*
X03969Y01327*
X03958Y01329*
X03947Y01327*
X03937Y01323*
X03928Y01317*
X03922Y01308*
X03917Y01298*
X03916Y01287*
Y01271*
X03917Y0126*
X03922Y0125*
X03928Y01242*
X03937Y01235*
X0394Y01234*
Y0114*
X03941Y01133*
X03945Y01127*
X04033Y01038*
X04039Y01034*
X04046Y01033*
X04828*
X04829Y01033*
X04856Y01031*
X04884Y01026*
X04906Y01018*
X0491Y01017*
X04915Y01015*
X04927Y01008*
X04939Y00999*
X04942Y00995*
X04956Y00983*
X04954Y00978*
X04952Y00979*
X04936Y00982*
X04921Y00984*
X04913Y00984*
X01031*
X01031*
X01025Y00983*
X01012Y00981*
X01Y00976*
X00989Y00969*
X00987Y00969*
X00984Y0097*
Y02575*
X00987Y02578*
X08503Y02539*
G37*
G36*
X04978Y01338D02*
Y01335D01*
Y0122*
X05001*
Y01183*
X05002Y01176*
X05006Y0117*
X05068Y01109*
X05073Y01105*
X05072Y011*
X05046*
X04939Y01208*
Y01311*
X04968Y0134*
X04973*
X04978Y01338*
G37*
G36*
X06609Y01002D02*
X06607Y00997D01*
X066Y00998*
X06549*
X0654Y00997*
X06532Y00993*
X06525Y00988*
X0652Y00982*
X06397*
Y00998*
X06305*
X06286Y01016*
X06281Y0102*
X06282Y01025*
X06586*
X06609Y01002*
G37*
%LNbutton_pad-2*%
%LPC*%
G36*
X0807Y02435D02*
X08056Y02434D01*
X08042Y02429*
X0803Y02423*
X08019Y02414*
X08009Y02402*
X08003Y0239*
X07998Y02376*
X07997Y02362*
X07998Y02347*
X08003Y02334*
X08009Y02321*
X08019Y0231*
X0803Y02301*
X08042Y02294*
X08056Y0229*
X0807Y02288*
X08085Y0229*
X08098Y02294*
X08111Y02301*
X08122Y0231*
X08131Y02321*
X08138Y02334*
X08142Y02347*
X08144Y02362*
X08142Y02376*
X08138Y0239*
X08131Y02402*
X08122Y02414*
X08111Y02423*
X08098Y02429*
X08085Y02434*
X0807Y02435*
G37*
G36*
X01181D02*
X01166Y02434D01*
X01153Y02429*
X0114Y02423*
X01129Y02414*
X0112Y02402*
X01113Y0239*
X01109Y02376*
X01107Y02362*
X01109Y02347*
X01113Y02334*
X0112Y02321*
X01129Y0231*
X0114Y02301*
X01153Y02294*
X01166Y0229*
X01181Y02288*
X01195Y0229*
X01209Y02294*
X01221Y02301*
X01232Y0231*
X01242Y02321*
X01248Y02334*
X01253Y02347*
X01254Y02362*
X01253Y02376*
X01248Y0239*
X01242Y02402*
X01232Y02414*
X01221Y02423*
X01209Y02429*
X01195Y02434*
X01181Y02435*
G37*
G36*
X06692Y02323D02*
X06682Y02321D01*
X06671Y02317*
X06663Y02311*
X06656Y02302*
X06652Y02292*
X06651Y02281*
Y02246*
X06651Y02239*
X06647Y02236*
X06636Y02247*
Y02281*
X06634Y02292*
X0663Y02302*
X06624Y02311*
X06615Y02317*
X06605Y02321*
X06594Y02323*
X06583Y02321*
X06573Y02317*
X06564Y02311*
X06558Y02302*
X06554Y02292*
X06552Y02281*
Y02246*
X06554Y02235*
X06558Y02225*
X06564Y02216*
X06573Y02209*
X06583Y02205*
X06594Y02204*
X06605Y02205*
X06615Y02209*
X06619Y02212*
X06843Y01989*
X06843Y01989*
X06853Y01981*
X06864Y01975*
X06876Y01971*
X06889Y0197*
X06889Y01969*
X08186*
X08187Y0197*
X08202Y01968*
X08217Y01963*
X08231Y01956*
X08243Y01946*
X08244Y01946*
X08288Y01901*
Y01798*
X08244Y01754*
X08239Y01754*
X08238Y01756*
X08231Y01761*
X08223Y01765*
X08214Y01766*
X08163*
X08154Y01765*
X08146Y01761*
X08139Y01756*
X08134Y0175*
X08006*
X08002Y01756*
X07995Y01761*
X07987Y01765*
X07978Y01766*
X07927*
X07918Y01765*
X0791Y01761*
X07903Y01756*
X07897Y01749*
X07894Y01741*
X07893Y01732*
X07894Y01723*
X07897Y01715*
X07903Y01708*
X0791Y01702*
X07918Y01699*
X07927Y01698*
X07978*
X07987Y01699*
X07995Y01702*
X08002Y01708*
X08006Y01714*
X08134*
X08139Y01708*
X08146Y01702*
X08154Y01699*
X08163Y01698*
X08214*
X08223Y01699*
X08231Y01702*
X08238Y01708*
X08243Y01714*
X08248*
X08255Y01716*
X08261Y0172*
X08319Y01778*
X08323Y01784*
X08325Y01791*
Y01908*
X08323Y01915*
X08319Y01921*
X08269Y01971*
X0827Y01971*
X08255Y01983*
X0824Y01993*
X08222Y02*
X08204Y02004*
X08186Y02006*
Y02006*
X06889*
X06889Y02006*
X06882Y02007*
X06875Y0201*
X06872Y02011*
X06869Y02015*
X06865Y02018*
X06683Y022*
X06685Y02205*
X06692Y02204*
X06703Y02205*
X06713Y02209*
X06722Y02216*
X06729Y02225*
X06733Y02235*
X06734Y02246*
Y02281*
X06733Y02292*
X06729Y02302*
X06722Y02311*
X06713Y02317*
X06703Y02321*
X06692Y02323*
G37*
G36*
X06242Y02322D02*
X06159D01*
Y02204*
X06242*
Y02322*
G37*
G36*
X06791Y02323D02*
X0678Y02321D01*
X0677Y02317*
X06761Y02311*
X06755Y02302*
X0675Y02292*
X06749Y02281*
Y02246*
X0675Y02235*
X06755Y02225*
X06761Y02216*
X0677Y02209*
X0678Y02205*
X06791Y02204*
X06802Y02205*
X06812Y02209*
X0682Y02216*
X06827Y02225*
X06831Y02235*
X06833Y02246*
Y02281*
X06831Y02292*
X06827Y02302*
X0682Y02311*
X06812Y02317*
X06802Y02321*
X06791Y02323*
G37*
G36*
X06496D02*
X06485Y02321D01*
X06475Y02317*
X06466Y02311*
X06459Y02302*
X06455Y02292*
X06454Y02281*
Y02246*
X06455Y02235*
X06459Y02225*
X06466Y02216*
X06475Y02209*
X06485Y02205*
X06496Y02204*
X06506Y02205*
X06516Y02209*
X06525Y02216*
X06532Y02225*
X06536Y02235*
X06537Y02246*
Y02281*
X06536Y02292*
X06532Y02302*
X06525Y02311*
X06516Y02317*
X06506Y02321*
X06496Y02323*
G37*
G36*
X06397D02*
X06386Y02321D01*
X06376Y02317*
X06368Y02311*
X06361Y02302*
X06357Y02292*
X06355Y02281*
Y02246*
X06357Y02235*
X06361Y02225*
X06368Y02216*
X06376Y02209*
X06386Y02205*
X06397Y02204*
X06408Y02205*
X06418Y02209*
X06427Y02216*
X06433Y02225*
X06438Y02235*
X06439Y02246*
Y02281*
X06438Y02292*
X06433Y02302*
X06427Y02311*
X06418Y02317*
X06408Y02321*
X06397Y02323*
G37*
G36*
X06299D02*
X06288Y02321D01*
X06278Y02317*
X06269Y02311*
X06262Y02302*
X06258Y02292*
X06257Y02281*
Y02246*
X06258Y02235*
X06262Y02225*
X06269Y02216*
X06278Y02209*
X06288Y02205*
X06299Y02204*
X0631Y02205*
X0632Y02209*
X06328Y02216*
X06335Y02225*
X06339Y02235*
X06341Y02246*
Y02281*
X06339Y02292*
X06335Y02302*
X06328Y02311*
X0632Y02317*
X0631Y02321*
X06299Y02323*
G37*
G36*
X02598Y02303D02*
X02587Y02302D01*
X02577Y02298*
X02568Y02291*
X02562Y02282*
X02558Y02272*
X02556Y02261*
Y02226*
X02558Y02215*
X02562Y02205*
X02568Y02196*
X02577Y0219*
X02587Y02185*
X02598Y02184*
X02609Y02185*
X02619Y0219*
X02628Y02196*
X02634Y02205*
X02638Y02215*
X0264Y02226*
Y02261*
X02638Y02272*
X02634Y02282*
X02628Y02291*
X02619Y02298*
X02609Y02302*
X02598Y02303*
G37*
G36*
X02303D02*
X02292Y02302D01*
X02282Y02298*
X02273Y02291*
X02266Y02282*
X02262Y02272*
X02261Y02261*
Y02226*
X02262Y02215*
X02266Y02205*
X02273Y02196*
X02282Y0219*
X02292Y02185*
X02303Y02184*
X02313Y02185*
X02324Y0219*
X02332Y02196*
X02339Y02205*
X02343Y02215*
X02345Y02226*
Y02261*
X02343Y02272*
X02339Y02282*
X02332Y02291*
X02324Y02298*
X02313Y02302*
X02303Y02303*
G37*
G36*
X04527Y02317D02*
X04513Y02316D01*
X04499Y02311*
X04486Y02305*
X04475Y02295*
X04466Y02284*
X04459Y02272*
X04455Y02258*
X04454Y02244*
X04455Y02229*
X04459Y02216*
X04466Y02203*
X04475Y02192*
X04486Y02183*
X04499Y02176*
X04513Y02172*
X04527Y0217*
X04541Y02172*
X04555Y02176*
X04568Y02183*
X04579Y02192*
X04588Y02203*
X04595Y02216*
X04599Y02229*
X046Y02244*
X04599Y02258*
X04595Y02272*
X04588Y02284*
X04579Y02295*
X04568Y02305*
X04555Y02311*
X04541Y02316*
X04527Y02317*
G37*
G36*
X02401Y02303D02*
X0239Y02302D01*
X0238Y02298*
X02371Y02291*
X02365Y02282*
X02361Y02272*
X02359Y02261*
Y02226*
X02361Y02215*
X02365Y02205*
X02371Y02196*
X0238Y0219*
X02383Y02189*
Y02094*
X02315Y02026*
X01564*
X01557Y02024*
X01551Y0202*
X01542Y02011*
X01538Y02005*
X01536Y01998*
Y01897*
X01486Y01847*
X01479*
Y01862*
X01361*
Y01795*
X01479*
Y0181*
X01494*
X01501Y01812*
X01507Y01816*
X01568Y01876*
X01571Y01882*
X01573Y01889*
Y01989*
X02322*
X02329Y01991*
X02335Y01994*
X02414Y02073*
X02418Y02079*
X02419Y02086*
Y02189*
X02422Y0219*
X02431Y02196*
X02437Y02205*
X02442Y02215*
X02443Y02226*
Y02261*
X02442Y02272*
X02437Y02282*
X02431Y02291*
X02422Y02298*
X02412Y02302*
X02401Y02303*
G37*
G36*
X08214Y01864D02*
X08163D01*
X08154Y01863*
X08146Y0186*
X08139Y01854*
X08134Y01848*
X08011*
Y01864*
X07893*
Y01848*
X07652*
X07648Y01854*
X0764Y0186*
X07632Y01863*
X07624Y01864*
X07572*
X07564Y01863*
X07555Y0186*
X07548Y01854*
X07544Y01848*
X07421*
Y01864*
X07302*
Y01848*
X07061*
X07057Y01854*
X0705Y0186*
X07042Y01863*
X07033Y01864*
X06982*
X06973Y01863*
X06965Y0186*
X06958Y01854*
X06953Y01848*
X0683*
Y01864*
X06712*
Y01845*
X06471*
X06466Y0185*
X06459Y01856*
X06451Y01859*
X06442Y0186*
X06391*
X06382Y01859*
X06374Y01856*
X06367Y0185*
X06363Y01845*
X0624*
Y0186*
X06121*
Y01848*
X0588*
X05876Y01854*
X05869Y0186*
X05861Y01863*
X05852Y01864*
X05801*
X05792Y01863*
X05784Y0186*
X05777Y01854*
X05772Y01848*
X05649*
Y01864*
X05531*
Y01797*
X05649*
Y01812*
X05772*
X05777Y01806*
X05784Y01801*
X05792Y01797*
X05801Y01796*
X05852*
X05861Y01797*
X05869Y01801*
X05876Y01806*
X0588Y01812*
X06121*
Y01793*
X0624*
Y01808*
X06363*
X06367Y01802*
X06374Y01797*
X06382Y01794*
X06391Y01792*
X06442*
X06451Y01794*
X06459Y01797*
X06466Y01802*
X06471Y01808*
X06712*
Y01797*
X0683*
Y01812*
X06953*
X06958Y01806*
X06965Y01801*
X06973Y01797*
X06982Y01796*
X07033*
X07042Y01797*
X0705Y01801*
X07057Y01806*
X07061Y01812*
X07302*
Y01797*
X07421*
Y01812*
X07544*
X07548Y01806*
X07555Y01801*
X07564Y01797*
X07572Y01796*
X07624*
X07632Y01797*
X0764Y01801*
X07648Y01806*
X07652Y01812*
X07893*
Y01797*
X08011*
Y01812*
X08134*
X08139Y01806*
X08146Y01801*
X08154Y01797*
X08163Y01796*
X08214*
X08223Y01797*
X08231Y01801*
X08238Y01806*
X08243Y01813*
X08247Y01821*
X08248Y0183*
X08247Y01839*
X08243Y01847*
X08238Y01854*
X08231Y0186*
X08223Y01863*
X08214Y01864*
G37*
G36*
X04634Y01882D02*
X04583D01*
X04574Y01881*
X04566Y01878*
X04559Y01872*
X04554Y01865*
X0455Y01857*
X04549Y01848*
X0455Y01839*
X04554Y01831*
X04559Y01824*
X04566Y01819*
X04574Y01815*
X04583Y01814*
X04634*
X04643Y01815*
X04651Y01819*
X04658Y01824*
X04664Y01831*
X04667Y01839*
X04668Y01848*
X04667Y01857*
X04664Y01865*
X04658Y01872*
X04651Y01878*
X04643Y01881*
X04634Y01882*
G37*
G36*
X04044Y01862D02*
X03993D01*
X03984Y01861*
X03976Y01858*
X03969Y01853*
X03963Y01845*
X0396Y01837*
X03959Y01829*
X0396Y0182*
X03963Y01812*
X03969Y01805*
X03976Y01799*
X03984Y01796*
X03993Y01795*
X04044*
X04053Y01796*
X04061Y01799*
X04068Y01805*
X04073Y01812*
X04077Y0182*
X04078Y01829*
X04077Y01837*
X04073Y01845*
X04068Y01853*
X04061Y01858*
X04053Y01861*
X04044Y01862*
G37*
G36*
X03453D02*
X03402D01*
X03393Y01861*
X03385Y01858*
X03378Y01853*
X03373Y01845*
X03369Y01837*
X03368Y01829*
X03369Y0182*
X03373Y01812*
X03378Y01805*
X03385Y01799*
X03393Y01796*
X03402Y01795*
X03453*
X03462Y01796*
X0347Y01799*
X03477Y01805*
X03483Y01812*
X03486Y0182*
X03487Y01829*
X03486Y01837*
X03483Y01845*
X03477Y01853*
X0347Y01858*
X03462Y01861*
X03453Y01862*
G37*
G36*
X02863D02*
X02811D01*
X02803Y01861*
X02795Y01858*
X02788Y01853*
X02782Y01845*
X02779Y01837*
X02778Y01829*
X02779Y0182*
X02782Y01812*
X02788Y01805*
X02795Y01799*
X02803Y01796*
X02811Y01795*
X02863*
X02871Y01796*
X0288Y01799*
X02887Y01805*
X02892Y01812*
X02895Y0182*
X02897Y01829*
X02895Y01837*
X02892Y01845*
X02887Y01853*
X0288Y01858*
X02871Y01861*
X02863Y01862*
G37*
G36*
X02272D02*
X02221D01*
X02212Y01861*
X02204Y01858*
X02197Y01853*
X02192Y01845*
X02188Y01837*
X02187Y01829*
X02188Y0182*
X02192Y01812*
X02197Y01805*
X02204Y01799*
X02212Y01796*
X02221Y01795*
X02272*
X02281Y01796*
X02289Y01799*
X02296Y01805*
X02301Y01812*
X02305Y0182*
X02306Y01829*
X02305Y01837*
X02301Y01845*
X02296Y01853*
X02289Y01858*
X02281Y01861*
X02272Y01862*
G37*
G36*
X01682D02*
X0163D01*
X01622Y01861*
X01613Y01858*
X01606Y01853*
X01601Y01845*
X01598Y01837*
X01596Y01829*
X01598Y0182*
X01601Y01812*
X01606Y01805*
X01613Y01799*
X01622Y01796*
X0163Y01795*
X01682*
X0169Y01796*
X01699Y01799*
X01706Y01805*
X01711Y01812*
X01714Y0182*
X01715Y01829*
X01714Y01837*
X01711Y01845*
X01706Y01853*
X01699Y01858*
X0169Y01861*
X01682Y01862*
G37*
G36*
X02795Y02303D02*
X02784Y02302D01*
X02774Y02298*
X02765Y02291*
X02759Y02282*
X02754Y02272*
X02753Y02261*
Y02226*
X02754Y02215*
X02759Y02205*
X02765Y02196*
X02774Y0219*
X02777Y02189*
Y02125*
X02778Y02119*
X02782Y02113*
X02959Y01935*
X02965Y01931*
X02972Y0193*
X03527*
X03642Y01816*
X03648Y01812*
X03654Y0181*
X03723*
Y01796*
Y01795*
X03721Y01791*
X03626*
X03619Y01789*
X03613Y01785*
X03576Y01748*
X03482*
X03477Y01754*
X0347Y01759*
X03462Y01763*
X03453Y01764*
X03402*
X03393Y01763*
X03385Y01759*
X03378Y01754*
X03374Y01748*
X03338*
X03301Y01785*
X03295Y01789*
X03289Y01791*
X03253*
X03251Y01795*
Y01796*
Y01862*
X03132*
Y01847*
X02985*
X02715Y02117*
Y02189*
X02717Y0219*
X02726Y02196*
X02733Y02205*
X02737Y02215*
X02738Y02226*
Y02261*
X02737Y02272*
X02733Y02282*
X02726Y02291*
X02717Y02298*
X02707Y02302*
X02696Y02303*
X02686Y02302*
X02675Y02298*
X02667Y02291*
X0266Y02282*
X02656Y02272*
X02655Y02261*
Y02226*
X02656Y02215*
X0266Y02205*
X02667Y02196*
X02675Y0219*
X02678Y02189*
Y0211*
X0268Y02103*
X02683Y02097*
X02965Y01816*
X02971Y01812*
X02977Y0181*
X03132*
Y01796*
Y01795*
X0313Y01791*
X03035*
X03028Y01789*
X03022Y01785*
X02985Y01748*
X02891*
X02887Y01754*
X0288Y01759*
X02871Y01763*
X02863Y01764*
X02811*
X02803Y01763*
X02795Y01759*
X02788Y01754*
X02783Y01748*
X02748*
X02711Y01785*
X02705Y01789*
X02699Y01791*
X02662*
X0266Y01795*
Y01796*
Y01862*
X02542*
Y01796*
Y01795*
X0254Y01791*
X02444*
X02437Y01789*
X02431Y01785*
X02394Y01748*
X02301*
X02296Y01754*
X02289Y01759*
X02281Y01763*
X02272Y01764*
X02221*
X02212Y01763*
X02204Y01759*
X02197Y01754*
X02193Y01748*
X02157*
X0212Y01785*
X02114Y01789*
X02107Y01791*
X02072*
X0207Y01795*
Y01796*
Y0181*
X02113*
X02119Y01812*
X02125Y01816*
X0224Y0193*
X02362*
X02362*
X02369Y01931*
X02375Y01935*
X02512Y02073*
X02516Y02079*
X02518Y02086*
Y02086*
Y02189*
X0252Y0219*
X02529Y02196*
X02536Y02205*
X0254Y02215*
X02541Y02226*
Y02261*
X0254Y02272*
X02536Y02282*
X02529Y02291*
X0252Y02298*
X0251Y02302*
X025Y02303*
X02489Y02302*
X02479Y02298*
X0247Y02291*
X02463Y02282*
X02459Y02272*
X02458Y02261*
Y02226*
X02459Y02215*
X02463Y02205*
X0247Y02196*
X02479Y0219*
X02481Y02189*
Y02094*
X02354Y01967*
X02232*
X02225Y01965*
X02219Y01961*
X02105Y01847*
X0207*
Y01862*
X01951*
Y01796*
Y01795*
X01949Y01791*
X01855*
X01848Y01789*
X01842Y01785*
X01805Y01748*
X0171*
X01706Y01754*
X01699Y01759*
X0169Y01763*
X01682Y01764*
X0163*
X01622Y01763*
X01613Y01759*
X01606Y01754*
X01601Y01747*
X01598Y01739*
X01596Y0173*
X01598Y01721*
X01601Y01713*
X01602Y01711*
X016Y01707*
X01567*
X01531Y01743*
X01525Y01747*
X01518Y01748*
X01474*
X01469Y01754*
X01462Y01759*
X01454Y01763*
X01445Y01764*
X01394*
X01385Y01763*
X01377Y01759*
X0137Y01754*
X01365Y01747*
X01361Y01739*
X0136Y0173*
X01361Y01721*
X01365Y01713*
X0137Y01706*
X01377Y01701*
X01385Y01697*
X01394Y01696*
X01445*
X01454Y01697*
X01462Y01701*
X01469Y01706*
X01474Y01712*
X0151*
X01547Y01676*
X01553Y01672*
X0156Y0167*
X01628*
X01628Y01665*
X01622Y01664*
X01613Y01661*
X01606Y01656*
X01601Y01649*
X01598Y0164*
X01596Y01632*
X01598Y01623*
X01601Y01615*
X01606Y01608*
X01613Y01602*
X01622Y01599*
X0163Y01598*
X01682*
X0169Y01599*
X01699Y01602*
X01706Y01608*
X01711Y01615*
X01714Y01623*
X01715Y01632*
X01714Y0164*
X01711Y01649*
X01706Y01656*
X01699Y01661*
X0169Y01664*
X01684Y01665*
X01684Y0167*
X01812*
X01819Y01672*
X01825Y01676*
X01861Y01712*
X01956*
X01961Y01706*
X01968Y01701*
X01976Y01697*
X01985Y01696*
X02036*
X02045Y01697*
X02053Y01701*
X0206Y01706*
X02064Y01712*
X021*
X02136Y01676*
X02142Y01672*
X02149Y0167*
X02218*
X02219Y01665*
X02212Y01664*
X02204Y01661*
X02197Y01656*
X02192Y01649*
X02188Y0164*
X02187Y01632*
X02188Y01623*
X02192Y01615*
X02197Y01608*
X02204Y01602*
X02212Y01599*
X02221Y01598*
X02272*
X02281Y01599*
X02289Y01602*
X02296Y01608*
X02301Y01615*
X02305Y01623*
X02306Y01632*
X02305Y0164*
X02301Y01649*
X02296Y01656*
X02289Y01661*
X02281Y01664*
X02274Y01665*
X02275Y0167*
X02404*
X0241Y01672*
X02416Y01676*
X02453Y01712*
X02547*
X02551Y01706*
X02558Y01701*
X02566Y01697*
X02575Y01696*
X02626*
X02635Y01697*
X02643Y01701*
X0265Y01706*
X02655Y01712*
X0269*
X02726Y01676*
X02732Y01672*
X02739Y0167*
X02809*
X02809Y01665*
X02803Y01664*
X02795Y01661*
X02788Y01656*
X02782Y01649*
X02779Y0164*
X02778Y01632*
X02779Y01623*
X02782Y01615*
X02788Y01608*
X02795Y01602*
X02803Y01599*
X02811Y01598*
X02863*
X02871Y01599*
X0288Y01602*
X02887Y01608*
X02892Y01615*
X02895Y01623*
X02897Y01632*
X02895Y0164*
X02892Y01649*
X02887Y01656*
X0288Y01661*
X02871Y01664*
X02865Y01665*
X02865Y0167*
X02994*
X03Y01672*
X03006Y01676*
X03043Y01712*
X03137*
X03142Y01706*
X03149Y01701*
X03157Y01697*
X03166Y01696*
X03217*
X03226Y01697*
X03234Y01701*
X03241Y01706*
X03245Y01712*
X03281*
X03318Y01676*
X03324Y01672*
X03331Y0167*
X03399*
X034Y01665*
X03393Y01664*
X03385Y01661*
X03378Y01656*
X03373Y01649*
X03369Y0164*
X03368Y01632*
X03369Y01623*
X03373Y01615*
X03378Y01608*
X03385Y01602*
X03393Y01599*
X03402Y01598*
X03453*
X03462Y01599*
X0347Y01602*
X03477Y01608*
X03483Y01615*
X03486Y01623*
X03487Y01632*
X03486Y0164*
X03483Y01649*
X03477Y01656*
X0347Y01661*
X03462Y01664*
X03455Y01665*
X03456Y0167*
X03584*
X03591Y01672*
X03597Y01676*
X03633Y01712*
X03728*
X03732Y01706*
X03739Y01701*
X03748Y01697*
X03756Y01696*
X03808*
X03816Y01697*
X03825Y01701*
X03832Y01706*
X03837Y01713*
X0384Y01721*
X03841Y0173*
X0384Y01739*
X03837Y01747*
X03835Y01749*
X03838Y01754*
X03872*
X03909Y01717*
X03911Y01716*
X03912Y0171*
X03908Y01706*
X03902Y01699*
X03898Y01691*
X03897Y01682*
X03898Y01673*
X03844Y01619*
X0384Y01622*
X0384Y01623*
X03841Y01632*
X0384Y0164*
X03837Y01649*
X03832Y01656*
X03825Y01661*
X03816Y01664*
X03808Y01666*
X03756*
X03748Y01664*
X03739Y01661*
X03732Y01656*
X03727Y01649*
X03724Y0164*
X03722Y01632*
X03724Y01623*
X03727Y01615*
X03732Y01608*
X03739Y01602*
X03748Y01599*
X03756Y01598*
X03808*
X03816Y01599*
X03818Y01599*
X0382Y01595*
X03643Y01418*
X02682*
X02675Y01416*
X02669Y01412*
X02644Y01387*
X0264Y01381*
X02639Y01378*
X02615*
Y01259*
X02698*
Y01378*
X02702Y01381*
X03651*
X03657Y01383*
X03663Y01387*
X03924Y01647*
X03933Y01646*
X03942Y01647*
X0395Y01651*
X03957Y01657*
X03963Y01664*
X03967Y01672*
X03968Y01682*
X03967Y01691*
X03963Y01699*
X03957Y01706*
X03957Y01707*
X03958Y01712*
X03964*
X03969Y01706*
X03976Y01701*
X03984Y01697*
X03993Y01696*
X04044*
X04053Y01697*
X04061Y01701*
X04068Y01706*
X04072Y01712*
X04163*
X04169Y01713*
X04175Y01717*
X04235Y01777*
X0432*
X04322Y01772*
X04318Y01767*
X04314Y01759*
X04313Y0175*
X04314Y01741*
X04318Y01733*
X04323Y01726*
X0433Y0172*
X04338Y01717*
X04347Y01716*
X04398*
X04407Y01717*
X04415Y0172*
X04422Y01726*
X04427Y01733*
X04431Y01741*
X04432Y0175*
X04431Y01759*
X04427Y01767*
X04423Y01772*
X04425Y01777*
X0446*
X045Y01737*
X04506Y01733*
X04513Y01732*
X04555*
X04559Y01726*
X04566Y0172*
X04574Y01717*
X04583Y01716*
X04634*
X04643Y01717*
X04651Y0172*
X04658Y01726*
X04663Y01732*
X0523*
X05493Y01469*
Y01334*
X0549Y01333*
X05482Y01326*
X05475Y01318*
X05471Y01308*
X05469Y01297*
Y01261*
X05471Y0125*
X05475Y0124*
X05482Y01232*
X0549Y01225*
X055Y01221*
X05511Y01219*
X05522Y01221*
X05532Y01225*
X05541Y01232*
X05548Y0124*
X05552Y0125*
X05553Y01261*
Y01297*
X05552Y01308*
X05548Y01318*
X05541Y01326*
X05532Y01333*
X0553Y01334*
Y01477*
X05528Y01483*
X05524Y01489*
X05251Y01763*
X05245Y01767*
X05238Y01768*
X04663*
X04658Y01774*
X04651Y01779*
X04643Y01783*
X04634Y01784*
X04583*
X04574Y01783*
X04566Y01779*
X04559Y01774*
X04555Y01768*
X04521*
X0448Y01808*
X04474Y01812*
X04468Y01814*
X04436*
X04432Y01815*
Y01819*
Y01882*
X04313*
Y01866*
X04287*
X04114Y0204*
X04108Y02044*
X04101Y02045*
X03058*
X02924Y0218*
X02926Y02184*
X02935*
Y02303*
X02852*
Y02184*
X02878*
X0288Y0218*
X02881Y02173*
X02885Y02167*
X03038Y02014*
X03038*
X03044Y0201*
X03051Y02009*
X04093*
X04267Y01835*
X04273Y01831*
X0428Y0183*
X0431*
X04313Y01826*
Y01815*
X04309Y01814*
X04228*
X04221Y01812*
X04215Y01808*
X04155Y01748*
X04072*
X04068Y01754*
X04061Y01759*
X04053Y01763*
X04044Y01764*
X03993*
X03984Y01763*
X03976Y01759*
X03969Y01754*
X03964Y01748*
X03929*
X03892Y01785*
X03886Y01789*
X0388Y01791*
X03843*
X03841Y01795*
Y01796*
Y01862*
X03723*
Y01847*
X03662*
X03548Y01961*
X03542Y01965*
X03535Y01967*
X02979*
X02813Y02133*
Y02189*
X02816Y0219*
X02824Y02196*
X02831Y02205*
X02835Y02215*
X02837Y02226*
Y02261*
X02835Y02272*
X02831Y02282*
X02824Y02291*
X02816Y02298*
X02806Y02302*
X02795Y02303*
G37*
G36*
X07624Y01766D02*
X07572D01*
X07564Y01765*
X07555Y01761*
X07548Y01756*
X07544Y0175*
X07416*
X07411Y01756*
X07404Y01761*
X07396Y01765*
X07387Y01766*
X07336*
X07327Y01765*
X07319Y01761*
X07312Y01756*
X07307Y01749*
X07303Y01741*
X07302Y01732*
X07303Y01723*
X07307Y01715*
X07312Y01708*
X07319Y01702*
X07327Y01699*
X07336Y01698*
X07387*
X07396Y01699*
X07404Y01702*
X07411Y01708*
X07416Y01714*
X07544*
X07548Y01708*
X07555Y01702*
X07564Y01699*
X07572Y01698*
X07624*
X07632Y01699*
X0764Y01702*
X07648Y01708*
X07653Y01715*
X07656Y01723*
X07657Y01732*
X07656Y01741*
X07653Y01749*
X07648Y01756*
X0764Y01761*
X07632Y01765*
X07624Y01766*
G37*
G36*
X07033D02*
X06982D01*
X06973Y01765*
X06965Y01761*
X06958Y01756*
X06953Y0175*
X06825*
X06821Y01756*
X06814Y01761*
X06806Y01765*
X06797Y01766*
X06746*
X06737Y01765*
X06729Y01761*
X06722Y01756*
X06716Y01749*
X06713Y01741*
X06712Y01732*
X06713Y01723*
X06716Y01715*
X06722Y01708*
X06729Y01702*
X06737Y01699*
X06746Y01698*
X06797*
X06806Y01699*
X06814Y01702*
X06821Y01708*
X06825Y01714*
X06953*
X06958Y01708*
X06965Y01702*
X06973Y01699*
X06982Y01698*
X07033*
X07042Y01699*
X0705Y01702*
X07057Y01708*
X07062Y01715*
X07066Y01723*
X07067Y01732*
X07066Y01741*
X07062Y01749*
X07057Y01756*
X0705Y01761*
X07042Y01765*
X07033Y01766*
G37*
G36*
X05852D02*
X05801D01*
X05792Y01765*
X05784Y01761*
X05777Y01756*
X05772Y0175*
X05644*
X0564Y01756*
X05633Y01761*
X05624Y01765*
X05616Y01766*
X05564*
X05556Y01765*
X05548Y01761*
X0554Y01756*
X05535Y01749*
X05532Y01741*
X05531Y01732*
X05532Y01723*
X05535Y01715*
X0554Y01708*
X05548Y01702*
X05556Y01699*
X05564Y01698*
X05616*
X05624Y01699*
X05633Y01702*
X0564Y01708*
X05644Y01714*
X05772*
X05777Y01708*
X05784Y01702*
X05792Y01699*
X05801Y01698*
X05852*
X05861Y01699*
X05869Y01702*
X05876Y01708*
X05881Y01715*
X05885Y01723*
X05886Y01732*
X05885Y01741*
X05881Y01749*
X05876Y01756*
X05869Y01761*
X05861Y01765*
X05852Y01766*
G37*
G36*
X06442Y01762D02*
X06391D01*
X06382Y01761*
X06374Y01757*
X06367Y01752*
X06363Y01746*
X06235*
X0623Y01752*
X06223Y01757*
X06215Y01761*
X06206Y01762*
X06155*
X06146Y01761*
X06138Y01757*
X06131Y01752*
X06126Y01745*
X06122Y01737*
X06121Y01728*
X06122Y01719*
X06126Y01711*
X06131Y01704*
X06138Y01698*
X06146Y01695*
X06155Y01694*
X06206*
X06215Y01695*
X06223Y01698*
X0623Y01704*
X06235Y0171*
X06363*
X06367Y01704*
X06374Y01698*
X06382Y01695*
X06391Y01694*
X06442*
X06451Y01695*
X06459Y01698*
X06466Y01704*
X06472Y01711*
X06475Y01719*
X06476Y01728*
X06475Y01737*
X06472Y01745*
X06466Y01752*
X06459Y01757*
X06451Y01761*
X06442Y01762*
G37*
G36*
X04634Y01685D02*
X04583D01*
X04574Y01684*
X04566Y01681*
X04559Y01675*
X04554Y01668*
X0455Y0166*
X04549Y01651*
X0455Y01643*
X04554Y01634*
X04559Y01627*
X04566Y01622*
X04574Y01619*
X04583Y01617*
X04634*
X04643Y01619*
X04651Y01622*
X04658Y01627*
X04664Y01634*
X04667Y01643*
X04668Y01651*
X04667Y0166*
X04664Y01668*
X04658Y01675*
X04651Y01681*
X04643Y01684*
X04634Y01685*
G37*
G36*
X04398D02*
X04347D01*
X04338Y01684*
X0433Y01681*
X04323Y01675*
X04318Y01668*
X04314Y0166*
X04313Y01651*
X04314Y01643*
X04318Y01634*
X04323Y01627*
X0433Y01622*
X04338Y01619*
X04347Y01617*
X04398*
X04407Y01619*
X04415Y01622*
X04422Y01627*
X04427Y01634*
X04431Y01643*
X04432Y01651*
X04431Y0166*
X04427Y01668*
X04422Y01675*
X04415Y01681*
X04407Y01684*
X04398Y01685*
G37*
G36*
X08214Y01667D02*
X08163D01*
X08154Y01666*
X08146Y01663*
X08139Y01657*
X08134Y0165*
X0813Y01642*
X08129Y01633*
X0813Y01625*
X08134Y01616*
X08139Y01609*
X08146Y01604*
X08154Y01601*
X08163Y01599*
X08214*
X08223Y01601*
X08231Y01604*
X08238Y01609*
X08243Y01616*
X08247Y01625*
X08248Y01633*
X08247Y01642*
X08243Y0165*
X08238Y01657*
X08231Y01663*
X08223Y01666*
X08214Y01667*
G37*
G36*
X07978D02*
X07927D01*
X07918Y01666*
X0791Y01663*
X07903Y01657*
X07897Y0165*
X07894Y01642*
X07893Y01633*
X07894Y01625*
X07897Y01616*
X07903Y01609*
X0791Y01604*
X07918Y01601*
X07927Y01599*
X07978*
X07987Y01601*
X07995Y01604*
X08002Y01609*
X08007Y01616*
X08011Y01625*
X08012Y01633*
X08011Y01642*
X08007Y0165*
X08002Y01657*
X07995Y01663*
X07987Y01666*
X07978Y01667*
G37*
G36*
X07624D02*
X07572D01*
X07564Y01666*
X07555Y01663*
X07548Y01657*
X07543Y0165*
X0754Y01642*
X07538Y01633*
X0754Y01625*
X07543Y01616*
X07548Y01609*
X07555Y01604*
X07564Y01601*
X07572Y01599*
X07624*
X07632Y01601*
X0764Y01604*
X07648Y01609*
X07653Y01616*
X07656Y01625*
X07657Y01633*
X07656Y01642*
X07653Y0165*
X07648Y01657*
X0764Y01663*
X07632Y01666*
X07624Y01667*
G37*
G36*
X07387D02*
X07336D01*
X07327Y01666*
X07319Y01663*
X07312Y01657*
X07307Y0165*
X07303Y01642*
X07302Y01633*
X07303Y01625*
X07307Y01616*
X07312Y01609*
X07319Y01604*
X07327Y01601*
X07336Y01599*
X07387*
X07396Y01601*
X07404Y01604*
X07411Y01609*
X07417Y01616*
X0742Y01625*
X07421Y01633*
X0742Y01642*
X07417Y0165*
X07411Y01657*
X07404Y01663*
X07396Y01666*
X07387Y01667*
G37*
G36*
X07033D02*
X06982D01*
X06973Y01666*
X06965Y01663*
X06958Y01657*
X06952Y0165*
X06949Y01642*
X06948Y01633*
X06949Y01625*
X06952Y01616*
X06958Y01609*
X06965Y01604*
X06973Y01601*
X06982Y01599*
X07033*
X07042Y01601*
X0705Y01604*
X07057Y01609*
X07062Y01616*
X07066Y01625*
X07067Y01633*
X07066Y01642*
X07062Y0165*
X07057Y01657*
X0705Y01663*
X07042Y01666*
X07033Y01667*
G37*
G36*
X06797D02*
X06746D01*
X06737Y01666*
X06729Y01663*
X06722Y01657*
X06716Y0165*
X06713Y01642*
X06712Y01633*
X06713Y01625*
X06716Y01616*
X06722Y01609*
X06729Y01604*
X06737Y01601*
X06746Y01599*
X06797*
X06806Y01601*
X06814Y01604*
X06821Y01609*
X06826Y01616*
X0683Y01625*
X06831Y01633*
X0683Y01642*
X06826Y0165*
X06821Y01657*
X06814Y01663*
X06806Y01666*
X06797Y01667*
G37*
G36*
X05852D02*
X05801D01*
X05792Y01666*
X05784Y01663*
X05777Y01657*
X05771Y0165*
X05768Y01642*
X05767Y01633*
X05768Y01625*
X05771Y01616*
X05777Y01609*
X05784Y01604*
X05792Y01601*
X05801Y01599*
X05852*
X05861Y01601*
X05869Y01604*
X05876Y01609*
X05881Y01616*
X05885Y01625*
X05886Y01633*
X05885Y01642*
X05881Y0165*
X05876Y01657*
X05869Y01663*
X05861Y01666*
X05852Y01667*
G37*
G36*
X05616D02*
X05564D01*
X05556Y01666*
X05548Y01663*
X0554Y01657*
X05535Y0165*
X05532Y01642*
X05531Y01633*
X05532Y01625*
X05535Y01616*
X0554Y01609*
X05548Y01604*
X05556Y01601*
X05564Y01599*
X05616*
X05624Y01601*
X05633Y01604*
X0564Y01609*
X05645Y01616*
X05648Y01625*
X0565Y01633*
X05648Y01642*
X05645Y0165*
X0564Y01657*
X05633Y01663*
X05624Y01666*
X05616Y01667*
G37*
G36*
X04044Y01666D02*
X03993D01*
X03984Y01664*
X03976Y01661*
X03969Y01656*
X03963Y01649*
X0396Y0164*
X03959Y01632*
X0396Y01623*
X03963Y01615*
X03969Y01608*
X03976Y01602*
X03984Y01599*
X03993Y01598*
X04044*
X04053Y01599*
X04061Y01602*
X04068Y01608*
X04073Y01615*
X04077Y01623*
X04078Y01632*
X04077Y0164*
X04073Y01649*
X04068Y01656*
X04061Y01661*
X04053Y01664*
X04044Y01666*
G37*
G36*
X03217D02*
X03166D01*
X03157Y01664*
X03149Y01661*
X03142Y01656*
X03136Y01649*
X03133Y0164*
X03132Y01632*
X03133Y01623*
X03136Y01615*
X03142Y01608*
X03149Y01602*
X03157Y01599*
X03166Y01598*
X03217*
X03226Y01599*
X03234Y01602*
X03241Y01608*
X03246Y01615*
X0325Y01623*
X03251Y01632*
X0325Y0164*
X03246Y01649*
X03241Y01656*
X03234Y01661*
X03226Y01664*
X03217Y01666*
G37*
G36*
X02626D02*
X02575D01*
X02566Y01664*
X02558Y01661*
X02551Y01656*
X02546Y01649*
X02543Y0164*
X02541Y01632*
X02543Y01623*
X02546Y01615*
X02551Y01608*
X02558Y01602*
X02566Y01599*
X02575Y01598*
X02626*
X02635Y01599*
X02643Y01602*
X0265Y01608*
X02656Y01615*
X02659Y01623*
X0266Y01632*
X02659Y0164*
X02656Y01649*
X0265Y01656*
X02643Y01661*
X02635Y01664*
X02626Y01666*
G37*
G36*
X02036D02*
X01985D01*
X01976Y01664*
X01968Y01661*
X01961Y01656*
X01955Y01649*
X01952Y0164*
X01951Y01632*
X01952Y01623*
X01955Y01615*
X01961Y01608*
X01968Y01602*
X01976Y01599*
X01985Y01598*
X02036*
X02045Y01599*
X02053Y01602*
X0206Y01608*
X02065Y01615*
X02069Y01623*
X0207Y01632*
X02069Y0164*
X02065Y01649*
X0206Y01656*
X02053Y01661*
X02045Y01664*
X02036Y01666*
G37*
G36*
X01445D02*
X01394D01*
X01385Y01664*
X01377Y01661*
X0137Y01656*
X01365Y01649*
X01361Y0164*
X0136Y01632*
X01361Y01623*
X01365Y01615*
X0137Y01608*
X01377Y01602*
X01385Y01599*
X01394Y01598*
X01445*
X01454Y01599*
X01462Y01602*
X01469Y01608*
X01475Y01615*
X01478Y01623*
X01479Y01632*
X01478Y0164*
X01475Y01649*
X01469Y01656*
X01462Y01661*
X01454Y01664*
X01445Y01666*
G37*
G36*
X06442Y01663D02*
X06391D01*
X06382Y01662*
X06374Y01659*
X06367Y01653*
X06362Y01646*
X06358Y01638*
X06357Y01629*
X06358Y01621*
X06362Y01612*
X06367Y01605*
X06374Y016*
X06382Y01597*
X06391Y01596*
X06442*
X06451Y01597*
X06459Y016*
X06466Y01605*
X06472Y01612*
X06475Y01621*
X06476Y01629*
X06475Y01638*
X06472Y01646*
X06466Y01653*
X06459Y01659*
X06451Y01662*
X06442Y01663*
G37*
G36*
X06206D02*
X06155D01*
X06146Y01662*
X06138Y01659*
X06131Y01653*
X06126Y01646*
X06122Y01638*
X06121Y01629*
X06122Y01621*
X06126Y01612*
X06131Y01605*
X06138Y016*
X06146Y01597*
X06155Y01596*
X06206*
X06215Y01597*
X06223Y016*
X0623Y01605*
X06236Y01612*
X06239Y01621*
X0624Y01629*
X06239Y01638*
X06236Y01646*
X0623Y01653*
X06223Y01659*
X06215Y01662*
X06206Y01663*
G37*
G36*
X02559Y01378D02*
X02548Y01377D01*
X02538Y01372*
X02529Y01366*
X02522Y01357*
X02518Y01347*
X02517Y01336*
Y01301*
X02518Y0129*
X02522Y0128*
X02529Y01271*
X02538Y01264*
X02548Y0126*
X02559Y01259*
X02569Y0126*
X02579Y01264*
X02588Y01271*
X02595Y0128*
X02599Y0129*
X026Y01301*
Y01336*
X02599Y01347*
X02595Y01357*
X02588Y01366*
X02579Y01372*
X02569Y01377*
X02559Y01378*
G37*
G36*
X0246D02*
X02449Y01377D01*
X02439Y01372*
X02431Y01366*
X02424Y01357*
X0242Y01347*
X02418Y01336*
Y01301*
X0242Y0129*
X02424Y0128*
X02431Y01271*
X02439Y01264*
X02449Y0126*
X0246Y01259*
X02471Y0126*
X02481Y01264*
X0249Y01271*
X02496Y0128*
X02501Y0129*
X02502Y01301*
Y01336*
X02501Y01347*
X02496Y01357*
X0249Y01366*
X02481Y01372*
X02471Y01377*
X0246Y01378*
G37*
G36*
X02362D02*
X02351Y01377D01*
X02341Y01372*
X02332Y01366*
X02325Y01357*
X02321Y01347*
X0232Y01336*
Y01301*
X02321Y0129*
X02325Y0128*
X02332Y01271*
X02341Y01264*
X02351Y0126*
X02362Y01259*
X02373Y0126*
X02383Y01264*
X02391Y01271*
X02398Y0128*
X02402Y0129*
X02404Y01301*
Y01336*
X02402Y01347*
X02398Y01357*
X02391Y01366*
X02383Y01372*
X02373Y01377*
X02362Y01378*
G37*
G36*
X02263D02*
X02252Y01377D01*
X02242Y01372*
X02234Y01366*
X02227Y01357*
X02223Y01347*
X02221Y01336*
Y01301*
X02223Y0129*
X02227Y0128*
X02234Y01271*
X02242Y01264*
X02252Y0126*
X02263Y01259*
X02274Y0126*
X02284Y01264*
X02293Y01271*
X023Y0128*
X02304Y0129*
X02305Y01301*
Y01336*
X02304Y01347*
X023Y01357*
X02293Y01366*
X02284Y01372*
X02274Y01377*
X02263Y01378*
G37*
G36*
X02165D02*
X02154Y01377D01*
X02144Y01372*
X02135Y01366*
X02129Y01357*
X02124Y01347*
X02123Y01336*
Y01301*
X02124Y0129*
X02129Y0128*
X02135Y01271*
X02144Y01264*
X02154Y0126*
X02165Y01259*
X02176Y0126*
X02186Y01264*
X02194Y01271*
X02201Y0128*
X02205Y0129*
X02207Y01301*
Y01336*
X02205Y01347*
X02201Y01357*
X02194Y01366*
X02186Y01372*
X02176Y01377*
X02165Y01378*
G37*
G36*
X02066D02*
X02056Y01377D01*
X02046Y01372*
X02037Y01366*
X0203Y01357*
X02026Y01347*
X02025Y01336*
Y01301*
X02026Y0129*
X0203Y0128*
X02037Y01271*
X02046Y01264*
X02056Y0126*
X02066Y01259*
X02077Y0126*
X02087Y01264*
X02096Y01271*
X02103Y0128*
X02107Y0129*
X02108Y01301*
Y01336*
X02107Y01347*
X02103Y01357*
X02096Y01366*
X02087Y01372*
X02077Y01377*
X02066Y01378*
G37*
G36*
X03858Y01329D02*
X03847Y01327D01*
X03837Y01323*
X03828Y01317*
X03822Y01308*
X03817Y01298*
X03816Y01287*
Y01271*
X03817Y0126*
X03822Y0125*
X03828Y01242*
X03837Y01235*
X03847Y01231*
X03858Y01229*
X03869Y01231*
X03879Y01235*
X03887Y01242*
X03894Y0125*
X03898Y0126*
X039Y01271*
Y01287*
X03898Y01298*
X03894Y01308*
X03887Y01317*
X03879Y01323*
X03869Y01327*
X03858Y01329*
G37*
G36*
X03758D02*
X03747Y01327D01*
X03737Y01323*
X03728Y01317*
X03722Y01308*
X03717Y01298*
X03716Y01287*
Y01271*
X03717Y0126*
X03722Y0125*
X03728Y01242*
X03737Y01235*
X03747Y01231*
X03758Y01229*
X03769Y01231*
X03779Y01235*
X03787Y01242*
X03794Y0125*
X03798Y0126*
X038Y01271*
Y01287*
X03798Y01298*
X03794Y01308*
X03787Y01317*
X03779Y01323*
X03769Y01327*
X03758Y01329*
G37*
G36*
X03658D02*
X03647Y01327D01*
X03637Y01323*
X03628Y01317*
X03622Y01308*
X03617Y01298*
X03616Y01287*
Y01271*
X03617Y0126*
X03622Y0125*
X03628Y01242*
X03637Y01235*
X03647Y01231*
X03658Y01229*
X03669Y01231*
X03679Y01235*
X03687Y01242*
X03694Y0125*
X03698Y0126*
X037Y01271*
Y01287*
X03698Y01298*
X03694Y01308*
X03687Y01317*
X03679Y01323*
X03669Y01327*
X03658Y01329*
G37*
G36*
X0561Y01339D02*
X05599Y01337D01*
X05589Y01333*
X0558Y01326*
X05573Y01318*
X05569Y01308*
X05568Y01297*
Y01261*
X05569Y0125*
X05573Y0124*
X0558Y01232*
X05589Y01225*
X05599Y01221*
X0561Y01219*
X05621Y01221*
X05631Y01225*
X05639Y01232*
X05646Y0124*
X0565Y0125*
X05652Y01261*
Y01297*
X0565Y01308*
X05646Y01318*
X05639Y01326*
X05631Y01333*
X05621Y01337*
X0561Y01339*
G37*
G36*
X05413D02*
X05402Y01337D01*
X05392Y01333*
X05383Y01326*
X05377Y01318*
X05372Y01308*
X05371Y01297*
Y01261*
X05372Y0125*
X05377Y0124*
X05383Y01232*
X05392Y01225*
X05402Y01221*
X05413Y01219*
X05424Y01221*
X05434Y01225*
X05442Y01232*
X05449Y0124*
X05453Y0125*
X05455Y01261*
Y01297*
X05453Y01308*
X05449Y01318*
X05442Y01326*
X05434Y01333*
X05424Y01337*
X05413Y01339*
G37*
G36*
X05314D02*
X05304Y01337D01*
X05294Y01333*
X05285Y01326*
X05278Y01318*
X05274Y01308*
X05273Y01297*
Y01261*
X05274Y0125*
X05278Y0124*
X05285Y01232*
X05294Y01225*
X05304Y01221*
X05314Y01219*
X05325Y01221*
X05335Y01225*
X05344Y01232*
X05351Y0124*
X05355Y0125*
X05356Y01261*
Y01297*
X05355Y01308*
X05351Y01318*
X05344Y01326*
X05335Y01333*
X05325Y01337*
X05314Y01339*
G37*
G36*
X01181Y01254D02*
X01166Y01253D01*
X01153Y01248*
X0114Y01242*
X01129Y01232*
X0112Y01221*
X01113Y01209*
X01109Y01195*
X01107Y01181*
X01109Y01166*
X01113Y01153*
X0112Y0114*
X01129Y01129*
X0114Y0112*
X01153Y01113*
X01166Y01109*
X01181Y01107*
X01195Y01109*
X01209Y01113*
X01221Y0112*
X01232Y01129*
X01242Y0114*
X01248Y01153*
X01253Y01166*
X01254Y01181*
X01253Y01195*
X01248Y01209*
X01242Y01221*
X01232Y01232*
X01221Y01242*
X01209Y01248*
X01195Y01253*
X01181Y01254*
G37*
G36*
X07533Y01043D02*
X07466D01*
Y00925*
X07533*
Y01043*
G37*
G36*
X07696Y01043D02*
X07688Y01042D01*
X07679Y01039*
X07672Y01033*
X07667Y01026*
X07664Y01018*
X07662Y01009*
Y00958*
X07664Y00949*
X07667Y00941*
X07672Y00934*
X07679Y00929*
X07688Y00925*
X07696Y00924*
X07705Y00925*
X07713Y00929*
X0772Y00934*
X07726Y00941*
X07729Y00949*
X0773Y00958*
Y01009*
X07729Y01018*
X07726Y01026*
X0772Y01033*
X07713Y01039*
X07705Y01042*
X07696Y01043*
G37*
G36*
X07598D02*
X07589Y01042D01*
X07581Y01039*
X07574Y01033*
X07569Y01026*
X07565Y01018*
X07564Y01009*
Y00958*
X07565Y00949*
X07569Y00941*
X07574Y00934*
X07581Y00929*
X07589Y00925*
X07598Y00924*
X07607Y00925*
X07615Y00929*
X07622Y00934*
X07627Y00941*
X07631Y00949*
X07632Y00958*
Y01009*
X07631Y01018*
X07627Y01026*
X07622Y01033*
X07615Y01039*
X07607Y01042*
X07598Y01043*
G37*
G36*
X066Y00427D02*
X06549D01*
X0654Y00426*
X06532Y00423*
X06525Y00417*
X06519Y0041*
X06516Y00402*
X06515Y00393*
X06516Y00384*
X06519Y00376*
X06525Y00369*
X06532Y00364*
X0654Y0036*
X06549Y00359*
X066*
X06609Y0036*
X06617Y00364*
X06624Y00369*
X06629Y00376*
X06633Y00384*
X06634Y00393*
X06633Y00402*
X06629Y0041*
X06624Y00417*
X06617Y00423*
X06609Y00426*
X066Y00427*
G37*
G36*
Y00329D02*
X06549D01*
X0654Y00328*
X06532Y00324*
X06525Y00319*
X06519Y00312*
X06516Y00304*
X06515Y00295*
X06516Y00286*
X06519Y00278*
X06525Y00271*
X06532Y00265*
X0654Y00262*
X06549Y00261*
X066*
X06609Y00262*
X06617Y00265*
X06624Y00271*
X06629Y00278*
X06633Y00286*
X06634Y00295*
X06633Y00304*
X06629Y00312*
X06624Y00319*
X06617Y00324*
X06609Y00328*
X066Y00329*
G37*
G36*
X06364D02*
X06312D01*
X06304Y00328*
X06296Y00324*
X06289Y00319*
X06283Y00312*
X0628Y00304*
X06279Y00295*
X0628Y00286*
X06283Y00278*
X06289Y00271*
X06296Y00265*
X06304Y00262*
X06312Y00261*
X06364*
X06372Y00262*
X06381Y00265*
X06388Y00271*
X06393Y00278*
X06396Y00286*
X06398Y00295*
X06396Y00304*
X06393Y00312*
X06388Y00319*
X06381Y00324*
X06372Y00328*
X06364Y00329*
G37*
G36*
X066Y0023D02*
X06549D01*
X0654Y00229*
X06532Y00226*
X06525Y0022*
X06519Y00213*
X06516Y00205*
X06515Y00196*
X06516Y00188*
X06519Y00179*
X06525Y00172*
X06532Y00167*
X0654Y00164*
X06549Y00162*
X066*
X06609Y00164*
X06617Y00167*
X06624Y00172*
X06629Y00179*
X06633Y00188*
X06634Y00196*
X06633Y00205*
X06629Y00213*
X06624Y0022*
X06617Y00226*
X06609Y00229*
X066Y0023*
G37*
G36*
X06364D02*
X06312D01*
X06304Y00229*
X06296Y00226*
X06289Y0022*
X06283Y00213*
X0628Y00205*
X06279Y00196*
X0628Y00188*
X06283Y00179*
X06289Y00172*
X06296Y00167*
X06304Y00164*
X06312Y00162*
X06364*
X06372Y00164*
X06381Y00167*
X06388Y00172*
X06393Y00179*
X06396Y00188*
X06398Y00196*
X06396Y00205*
X06393Y00213*
X06388Y0022*
X06381Y00226*
X06372Y00229*
X06364Y0023*
G37*
G36*
X08228Y0027D02*
X08214Y00268D01*
X082Y00264*
X08187Y00257*
X08176Y00248*
X08167Y00237*
X0816Y00224*
X08156Y00211*
X08155Y00196*
X08156Y00182*
X0816Y00168*
X08167Y00156*
X08176Y00144*
X08187Y00135*
X082Y00129*
X08214Y00124*
X08228Y00123*
X08242Y00124*
X08256Y00129*
X08269Y00135*
X0828Y00144*
X08289Y00156*
X08296Y00168*
X083Y00182*
X08301Y00196*
X083Y00211*
X08296Y00224*
X08289Y00237*
X0828Y00248*
X08269Y00257*
X08256Y00264*
X08242Y00268*
X08228Y0027*
G37*
G36*
X05511D02*
X05497Y00268D01*
X05483Y00264*
X05471Y00257*
X05459Y00248*
X0545Y00237*
X05444Y00224*
X05439Y00211*
X05438Y00196*
X05439Y00182*
X05444Y00168*
X0545Y00156*
X05459Y00144*
X05471Y00135*
X05483Y00129*
X05497Y00124*
X05511Y00123*
X05526Y00124*
X05539Y00129*
X05552Y00135*
X05563Y00144*
X05572Y00156*
X05579Y00168*
X05583Y00182*
X05585Y00196*
X05583Y00211*
X05579Y00224*
X05572Y00237*
X05563Y00248*
X05552Y00257*
X05539Y00264*
X05526Y00268*
X05511Y0027*
G37*
%LNbutton_pad-3*%
%LPD*%
G54D22*
X08257Y01958D02*
X08249Y01965D01*
X08241Y01971*
X08233Y01976*
X08224Y0198*
X08215Y01983*
X08205Y01986*
X08196Y01987*
X08186Y01988*
X06856Y02002D02*
X06863Y01996D01*
X06871Y01991*
X0688Y01989*
X06889Y01988*
X04955Y01008D02*
X04962Y01001D01*
X0497Y00995*
X04978Y00989*
X04986Y00984*
X04995Y0098*
X05004Y00976*
X05013Y00972*
X05022Y00969*
X05032Y00967*
X05042Y00965*
X05052Y00964*
X05061Y00964*
X04955Y01008D02*
X04948Y01014D01*
X04941Y0102*
X04934Y01025*
X04926Y0103*
X04917Y01033*
X04908Y01037D01*
X04898Y0104*
X04888Y01043*
X04878Y01046*
X04869Y01048*
X04858Y01049*
X04848Y0105*
X04838Y01051*
X04828Y01051*
X05Y01067D02*
X05007Y01061D01*
X05014Y01056*
X05023Y01051*
X05031Y01047*
X0504Y01045*
X05049Y01043*
X05059Y01043*
X0497Y01033D02*
X04977Y01026D01*
X04985Y0102*
X04994Y01015*
X05003Y01011*
X05012Y01008*
X05021Y01005*
X05031Y01004*
X05041Y01003*
X0142Y01829D02*
X01494D01*
X01555Y01889D02*
Y01998D01*
X01494Y01829D02*
X01555Y01889D01*
X01564Y02007D02*
X02322D01*
X01555Y01998D02*
X01564Y02007D01*
X08257Y01958D02*
X08307Y01908D01*
X06889Y01988D02*
X08186D01*
X06594Y02263D02*
X06856Y02002D01*
X08307Y01791D02*
Y01908D01*
X08188Y01732D02*
X08189Y01733D01*
X08248*
X08307Y01791*
X07952Y01732D02*
X08188D01*
X07598Y0183D02*
D01*
X07952D02*
X07952D01*
X07598D02*
X07952D01*
X06417Y01826D02*
X06767D01*
X06771Y0183*
X06177D02*
X06181Y01826D01*
X05826Y0183D02*
X06177D01*
X05177Y01358D02*
X05207Y01327D01*
X04921Y01318D02*
X0496Y01358D01*
X05177*
X03622D02*
X04709D01*
X03558Y01279D02*
X03581Y01303D01*
Y01318*
X03622Y01358*
X04709D02*
X05Y01067D01*
X04921Y012D02*
Y01318D01*
Y012D02*
X05039Y01082D01*
X05081Y01122D02*
X07007D01*
X07173Y01288D02*
X07696D01*
X07007Y01122D02*
X07173Y01288D01*
X05019Y01183D02*
X05081Y01122D01*
X06633Y01082D02*
X06751Y00964D01*
X05039Y01082D02*
X06633D01*
X06751Y00745D02*
Y00964D01*
X064Y00393D02*
X06751Y00745D01*
X05059Y01043D02*
X06594D01*
X06673Y00827D02*
Y00964D01*
X06594Y01043D02*
X06673Y00964D01*
X06613Y00767D02*
X06673Y00827D01*
X06574Y00767D02*
X06613D01*
X06338D02*
X06574D01*
X03958Y0114D02*
Y01279D01*
X04046Y01051D02*
X04828D01*
X03958Y0114D02*
X04046Y01051D01*
X05061Y00964D02*
X06103D01*
X06202Y00866*
X04058Y01272D02*
X04731D01*
X0497Y01033*
X05041Y01003D02*
X05098D01*
X06338Y00964D02*
X06574D01*
X06312D02*
X06338D01*
X05098Y01003D02*
X06273D01*
X06312Y00964*
X05207Y01288D02*
X05216Y01279D01*
X05207Y01288D02*
Y01327D01*
X03051Y02027D02*
X04101D01*
X02898Y0218D02*
X03051Y02027D01*
X04101D02*
X0428Y01848D01*
X03535Y01948D02*
X03654Y01829D01*
X02795Y02125D02*
X02972Y01948D01*
X03535*
X02893Y02244D02*
X02898Y02239D01*
Y0218D02*
Y02239D01*
X02795Y02125D02*
Y02244D01*
X02232Y01948D02*
X02362D01*
X025Y02086D02*
Y02244D01*
X02362Y01948D02*
X025Y02086D01*
X02113Y01829D02*
X02232Y01948D01*
X02401Y02086D02*
Y02244D01*
X02322Y02007D02*
X02401Y02086D01*
X04058Y01272D02*
Y01279D01*
X02657Y01318D02*
Y01375D01*
X02682Y014*
X03651*
X03933Y01682*
X0428Y01848D02*
X04373D01*
X05019Y01183D02*
Y01279D01*
X07696Y0122D02*
Y01288D01*
X06338Y00393D02*
X064D01*
X04609Y0175D02*
X05238D01*
X05511Y01477*
Y01279D02*
Y01477D01*
X0201Y01829D02*
X02113D01*
X02977D02*
X03191D01*
X02696Y0211D02*
X02977Y01829D01*
X02696Y0211D02*
Y02244D01*
X03654Y01829D02*
X03782D01*
X06202Y00866D02*
X06338D01*
X06574*
X07952Y0183D02*
X08188D01*
X07362D02*
X07598D01*
X07007D02*
X07362D01*
X06771D02*
X07007D01*
X0559D02*
X05826D01*
X06181Y01826D02*
X06417D01*
X07362Y01732D02*
X07598D01*
X04513Y0175D02*
X04609D01*
X04468Y01796D02*
X04513Y0175D01*
X04228Y01796D02*
X04468D01*
X04163Y0173D02*
X04228Y01796D01*
X04018Y0173D02*
X04163D01*
X06771Y01732D02*
X07007D01*
X0559D02*
X05826D01*
X06181Y01728D02*
X06417D01*
X03922Y0173D02*
X04018D01*
X0388Y01773D02*
X03922Y0173D01*
X03626Y01773D02*
X0388D01*
X03584Y0173D02*
X03626Y01773D01*
X03428Y0173D02*
X03584D01*
X03331D02*
X03428D01*
X03289Y01773D02*
X03331Y0173D01*
X03035Y01773D02*
X03289D01*
X02993Y0173D02*
X03035Y01773D01*
X02837Y0173D02*
X02993D01*
X01656D02*
X01812D01*
X01855Y01773*
X02107*
X0215Y0173*
X02247*
X02741D02*
X02837D01*
X02699Y01773D02*
X02741Y0173D01*
X02444Y01773D02*
X02699D01*
X02402Y0173D02*
X02444Y01773D01*
X02247Y0173D02*
X02402D01*
X03191D02*
X03289D01*
X03331Y01689*
X03584*
X03626Y0173*
X03782*
X03035D02*
X03191D01*
X02994Y01689D02*
X03035Y0173D01*
X02739Y01689D02*
X02994D01*
X02698Y0173D02*
X02739Y01689D01*
X02601Y0173D02*
X02698D01*
X02445D02*
X02601D01*
X02404Y01689D02*
X02445Y0173D01*
X02149Y01689D02*
X02404D01*
X02108Y0173D02*
X02149Y01689D01*
X0201Y0173D02*
X02108D01*
X0142D02*
X01518D01*
X0156Y01689*
X01812*
X01854Y0173*
X0201*
G54D23*
X06574Y00767D03*
Y00866D03*
Y00964D03*
X06338Y00767D03*
Y00866D03*
X06574Y00196D03*
Y00295D03*
Y00393D03*
X06338Y00196D03*
Y00295D03*
X08188Y01633D03*
Y01732D03*
Y0183D03*
X07952Y01633D03*
Y01732D03*
X07598Y01633D03*
Y01732D03*
Y0183D03*
X07362Y01633D03*
Y01732D03*
X07007Y01633D03*
Y01732D03*
Y0183D03*
X06771Y01633D03*
Y01732D03*
X06417Y01629D03*
Y01728D03*
Y01826D03*
X06181Y01629D03*
Y01728D03*
X05826Y01633D03*
Y01732D03*
Y0183D03*
X0559Y01633D03*
Y01732D03*
X01656Y01632D03*
Y0173D03*
Y01829D03*
X0142Y01632D03*
Y0173D03*
X02247Y01632D03*
Y0173D03*
Y01829D03*
X0201Y01632D03*
Y0173D03*
X02837Y01632D03*
Y0173D03*
Y01829D03*
X02601Y01632D03*
Y0173D03*
X03428Y01632D03*
Y0173D03*
Y01829D03*
X03191Y01632D03*
Y0173D03*
X04018Y01632D03*
Y0173D03*
Y01829D03*
X03782Y01632D03*
Y0173D03*
X04609Y01651D03*
Y0175D03*
Y01848D03*
X04373Y01651D03*
Y0175D03*
G54D24*
X06338Y00964D03*
Y00393D03*
X07952Y0183D03*
X07362D03*
X06771D03*
X06181Y01826D03*
X0559Y0183D03*
X0142Y01829D03*
X0201D03*
X02601D03*
X03191D03*
X03782D03*
X04373Y01848D03*
G54D25*
X07696Y0122D03*
X07598D03*
X075D03*
X07696Y00984D03*
X07598D03*
G54D26*
X075Y00984D03*
G54D27*
X05019Y01279D03*
X062Y02263D03*
X02657Y01318D03*
X02893Y02244D03*
G54D28*
X05118Y01279D03*
X05216D03*
X05314D03*
X05413D03*
X05511D03*
X0561D03*
X06299Y02263D03*
X06397D03*
X06496D03*
X06594D03*
X06692D03*
X06791D03*
X02559Y01318D03*
X0246D03*
X02362D03*
X02263D03*
X02165D03*
X02066D03*
X02795Y02244D03*
X02696D03*
X02598D03*
X025D03*
X02401D03*
X02303D03*
G54D29*
X04058Y01279D03*
X03958D03*
X03858D03*
X03758D03*
X03658D03*
G54D30*
X03558Y01279D03*
G54D31*
X01181Y01181D03*
X04527D03*
Y02244D03*
X01181Y02362D03*
X0807D03*
X08228Y00196D03*
X05511D03*
G54D32*
X03933Y01682D03*
M02*