%FSTAX23Y23*%
%MOIN*%
%SFA1B1*%

%IPPOS*%
%ADD29C,0.020000*%
%ADD30C,0.050000*%
%ADD31C,0.060000*%
%ADD32O,0.047240X0.094000*%
%ADD33C,0.062990*%
%ADD34R,0.062990X0.078740*%
%ADD35O,0.062990X0.078740*%
%ADD36R,0.098430X0.066930*%
%ADD37O,0.098430X0.066930*%
%ADD38C,0.094490*%
%ADD39O,0.062990X0.098430*%
%ADD40R,0.062990X0.098430*%
%ADD41R,0.098430X0.062990*%
%ADD42O,0.098430X0.062990*%
%ADD43O,0.094000X0.047240*%
%ADD44C,0.047240*%
%ADD45C,0.050000*%
%LNfuncgen-1*%
%LPD*%
G36*
X098Y0074D02*
X09835Y00704D01*
X09833Y007*
X05523*
X0552Y00703*
X0554Y0844*
X0558Y0848*
X098*
Y0074*
G37*
%LNfuncgen-2*%
%LPC*%
G36*
X06496Y08319D02*
X06488Y08318D01*
X06481Y08313*
X06418Y0825*
X06414Y08244*
X06412Y08236*
Y08224*
X06391*
Y08106*
X06474*
Y08224*
X06457*
X06455Y08229*
X06504Y08278*
X07042*
X0707Y08251*
X07068Y08248*
Y08129*
X07151*
Y08248*
X07114*
Y08256*
X07113Y08263*
X07108Y0827*
X07065Y08313*
X07058Y08318*
X07051Y08319*
X06496*
G37*
G36*
X06913Y08248D02*
X06902Y08247D01*
X06892Y08242*
X06883Y08236*
X06877Y08227*
X06872Y08217*
X06871Y08206*
Y08171*
X06872Y0816*
X06877Y0815*
X06883Y08141*
X06892Y08135*
X06902Y0813*
X06913Y08129*
X06924Y0813*
X06934Y08135*
X06942Y08141*
X06949Y0815*
X06953Y0816*
X06955Y08171*
Y08206*
X06953Y08217*
X06949Y08227*
X06942Y08236*
X06934Y08242*
X06924Y08247*
X06913Y08248*
G37*
G36*
X09618Y0827D02*
X09603Y08268D01*
X0959Y08264*
X09577Y08257*
X09566Y08248*
X09557Y08237*
X0955Y08224*
X09546Y08211*
X09544Y08196*
X09546Y08182*
X0955Y08168*
X09557Y08156*
X09566Y08144*
X09577Y08135*
X0959Y08129*
X09603Y08124*
X09618Y08123*
X09632Y08124*
X09646Y08129*
X09658Y08135*
X09669Y08144*
X09679Y08156*
X09685Y08168*
X0969Y08182*
X09691Y08196*
X0969Y08211*
X09685Y08224*
X09679Y08237*
X09669Y08248*
X09658Y08257*
X09646Y08264*
X09632Y08268*
X09618Y0827*
G37*
G36*
X06334Y08224D02*
X06323Y08223D01*
X06313Y08219*
X06305Y08212*
X06298Y08204*
X06294Y08193*
X06292Y08183*
Y08147*
X06294Y08136*
X06298Y08126*
X06305Y08118*
X06313Y08111*
X06323Y08107*
X06334Y08105*
X06345Y08107*
X06355Y08111*
X06364Y08118*
X0637Y08126*
X06375Y08136*
X06376Y08147*
Y08183*
X06375Y08193*
X0637Y08204*
X06364Y08212*
X06355Y08219*
X06345Y08223*
X06334Y08224*
G37*
G36*
X05842Y08242D02*
X05828Y08241D01*
X05814Y08237*
X05801Y0823*
X0579Y08221*
X05781Y0821*
X05774Y08197*
X0577Y08183*
X05769Y08169*
X0577Y08154*
X05774Y08141*
X05781Y08128*
X0579Y08117*
X05801Y08108*
X05814Y08101*
X05828Y08097*
X05842Y08095*
X05856Y08097*
X0587Y08101*
X05883Y08108*
X05894Y08117*
X05903Y08128*
X0591Y08141*
X05914Y08154*
X05915Y08169*
X05914Y08183*
X0591Y08197*
X05903Y0821*
X05894Y08221*
X05883Y0823*
X0587Y08237*
X05856Y08241*
X05842Y08242*
G37*
G36*
X07011Y08248D02*
X07Y08247D01*
X0699Y08242*
X06982Y08236*
X06975Y08227*
X06971Y08217*
X06969Y08206*
Y08171*
X06971Y0816*
X06975Y0815*
X06982Y08141*
X0699Y08135*
X06991Y08134*
Y08108*
X06966Y08083*
X06281*
X06258Y08106*
X06258Y08107*
X06258Y08112*
X06265Y08118*
X06272Y08126*
X06276Y08136*
X06278Y08147*
Y08183*
X06276Y08193*
X06272Y08204*
X06265Y08212*
X06257Y08219*
X06247Y08223*
X06236Y08224*
X06225Y08223*
X06215Y08219*
X06206Y08212*
X06199Y08204*
X06195Y08193*
X06194Y08183*
Y08147*
X06195Y08136*
X06199Y08126*
X06206Y08118*
X06215Y08111*
X06215Y08111*
Y081*
X06217Y08092*
X06221Y08085*
X06258Y08048*
X06265Y08044*
X06273Y08042*
X06974*
X06982Y08044*
X06989Y08048*
X07026Y08085*
X0703Y08092*
X07032Y08099*
Y08134*
X07032Y08135*
X07041Y08141*
X07048Y0815*
X07052Y0816*
X07053Y08171*
Y08206*
X07052Y08217*
X07048Y08227*
X07041Y08236*
X07032Y08242*
X07022Y08247*
X07011Y08248*
G37*
G36*
X05862Y07811D02*
X0583D01*
X05819Y0781*
X05808Y07805*
X05799Y07798*
X05792Y07789*
X05788Y07779*
X05786Y07767*
X05788Y07756*
X05792Y07745*
X05799Y07736*
X05808Y07729*
X05819Y07725*
X0583Y07723*
X05862*
X05873Y07725*
X05884Y07729*
X05893Y07736*
X059Y07745*
X05904Y07756*
X05906Y07767*
X05904Y07779*
X059Y07789*
X05893Y07798*
X05884Y07805*
X05873Y0781*
X05862Y07811*
G37*
G36*
X06669Y07778D02*
X06658Y07777D01*
X06648Y07772*
X06639Y07766*
X06633Y07757*
X06628Y07747*
X06627Y07736*
Y0772*
X06628Y0771*
X06633Y07699*
X06633Y07698*
Y07689*
X06627Y07683*
X06597*
X06595Y07688*
X06598Y07691*
X06605Y07699*
X06609Y0771*
X06611Y0772*
Y07736*
X06609Y07747*
X06605Y07757*
X06598Y07766*
X0659Y07772*
X0658Y07777*
X06569Y07778*
X06558Y07777*
X06548Y07772*
X06539Y07766*
X06533Y07757*
X06528Y07747*
X06527Y07736*
Y0772*
X06528Y0771*
X06533Y07699*
X06539Y07691*
X06543Y07688*
X06541Y07683*
X06497*
X06495Y07688*
X06498Y07691*
X06505Y07699*
X06509Y0771*
X06511Y0772*
Y07736*
X06509Y07747*
X06505Y07757*
X06498Y07766*
X0649Y07772*
X0648Y07777*
X06469Y07778*
X06458Y07777*
X06448Y07772*
X06439Y07766*
X06433Y07757*
X06428Y07747*
X06427Y07736*
Y0772*
X06428Y0771*
X06433Y07699*
X06439Y07691*
X06443Y07688*
X06441Y07683*
X06397*
X06395Y07688*
X06398Y07691*
X06405Y07699*
X06409Y0771*
X06411Y0772*
Y07736*
X06409Y07747*
X06405Y07757*
X06398Y07766*
X0639Y07772*
X0638Y07777*
X06369Y07778*
X06358Y07777*
X06348Y07772*
X06339Y07766*
X06333Y07757*
X06328Y07747*
X06327Y07736*
Y0772*
X06328Y0771*
X06333Y07699*
X06339Y07691*
X06343Y07688*
X06341Y07683*
X05903*
X059Y07691*
X05893Y077*
X05884Y07707*
X05873Y07711*
X05862Y07713*
X0583*
X05819Y07711*
X05808Y07707*
X05799Y077*
X05792Y07691*
X05788Y0768*
X05786Y07669*
X05788Y07657*
X05792Y07647*
X05799Y07638*
X05808Y07631*
X05819Y07626*
X0583Y07625*
X0586*
X05862Y07623*
X0587Y07617*
X05878Y07614*
X05887Y07612*
X06642*
X06651Y07614*
X0666Y07617*
X06667Y07623*
X06694Y0765*
X06699Y07657*
X06703Y07665*
X06704Y07675*
Y07698*
X06705Y07699*
X06709Y0771*
X06711Y0772*
Y07736*
X06709Y07747*
X06705Y07757*
X06698Y07766*
X0669Y07772*
X0668Y07777*
X06669Y07778*
G37*
G36*
X06969D02*
X06958Y07777D01*
X06948Y07772*
X06939Y07766*
X06933Y07757*
X06928Y07747*
X06927Y07736*
Y0772*
X06928Y0771*
X06933Y07699*
X06939Y07691*
X06948Y07684*
X06958Y0768*
X06969Y07679*
X0698Y0768*
X0699Y07684*
X06998Y07691*
X07005Y07699*
X07009Y0771*
X07011Y0772*
Y07736*
X07009Y07747*
X07005Y07757*
X06998Y07766*
X0699Y07772*
X0698Y07777*
X06969Y07778*
G37*
G36*
X06869D02*
X06858Y07777D01*
X06848Y07772*
X06839Y07766*
X06833Y07757*
X06828Y07747*
X06827Y07736*
Y0772*
X06828Y0771*
X06833Y07699*
X06839Y07691*
X06848Y07684*
X06858Y0768*
X06869Y07679*
X0688Y0768*
X0689Y07684*
X06898Y07691*
X06905Y07699*
X06909Y0771*
X06911Y0772*
Y07736*
X06909Y07747*
X06905Y07757*
X06898Y07766*
X0689Y07772*
X0688Y07777*
X06869Y07778*
G37*
G36*
X06769D02*
X06758Y07777D01*
X06748Y07772*
X06739Y07766*
X06733Y07757*
X06728Y07747*
X06727Y07736*
Y0772*
X06728Y0771*
X06733Y07699*
X06739Y07691*
X06748Y07684*
X06758Y0768*
X06769Y07679*
X0678Y0768*
X0679Y07684*
X06798Y07691*
X06805Y07699*
X06809Y0771*
X06811Y0772*
Y07736*
X06809Y07747*
X06805Y07757*
X06798Y07766*
X0679Y07772*
X0678Y07777*
X06769Y07778*
G37*
G36*
X06969Y07478D02*
X06958Y07477D01*
X06948Y07472*
X06939Y07466*
X06933Y07457*
X06928Y07447*
X06927Y07436*
Y0742*
X06928Y0741*
X06933Y07399*
X06939Y07391*
X06948Y07384*
X06958Y0738*
X06969Y07379*
X0698Y0738*
X0699Y07384*
X06998Y07391*
X07005Y07399*
X07009Y0741*
X07011Y0742*
Y07436*
X07009Y07447*
X07005Y07457*
X06998Y07466*
X0699Y07472*
X0698Y07477*
X06969Y07478*
G37*
G36*
X05905Y07909D02*
X05787D01*
Y07892*
X05771*
X05761Y07891*
X05753Y07888*
X05746Y07882*
X05707Y07843*
X05701Y07836*
X05698Y07828*
X05696Y07818*
Y07606*
X05698Y07597*
X05701Y07588*
X05707Y07581*
X0575Y07538*
X05757Y07532*
X05766Y07528*
X05775Y07527*
X06625*
X06633Y07519*
Y07458*
X06633Y07457*
X06628Y07447*
X06627Y07436*
Y0742*
X06628Y0741*
X06633Y07399*
X06639Y07391*
X06648Y07384*
X06658Y0738*
X06669Y07379*
X0668Y0738*
X0669Y07384*
X06698Y07391*
X06705Y07399*
X06709Y0741*
X06711Y0742*
Y07436*
X06709Y07447*
X06705Y07457*
X06704Y07458*
Y07533*
X06703Y07542*
X06699Y07551*
X06694Y07558*
X06664Y07587*
X06657Y07593*
X06649Y07597*
X0664Y07598*
X0579*
X05767Y0762*
Y07804*
X05785Y07822*
X05837*
X0584Y07822*
X05905*
Y07909*
G37*
G36*
X06569Y07478D02*
X06558Y07477D01*
X06548Y07472*
X06539Y07466*
X06533Y07457*
X06528Y07447*
X06527Y07436*
Y0742*
X06528Y0741*
X06533Y07399*
X06539Y07391*
X06548Y07384*
X06558Y0738*
X06569Y07379*
X0658Y0738*
X0659Y07384*
X06598Y07391*
X06605Y07399*
X06609Y0741*
X06611Y0742*
Y07436*
X06609Y07447*
X06605Y07457*
X06598Y07466*
X0659Y07472*
X0658Y07477*
X06569Y07478*
G37*
G36*
X09429Y0736D02*
X09414Y07358D01*
X094Y07353*
X09388Y07343*
X09379Y07332*
X09373Y07318*
X09371Y07303*
X09373Y07288*
X09379Y07274*
X09388Y07262*
X094Y07253*
X09414Y07247*
X09429Y07245*
X09444Y07247*
X09458Y07253*
X09469Y07262*
X09479Y07274*
X09484Y07288*
X09486Y07303*
X09484Y07318*
X09479Y07332*
X09469Y07343*
X09458Y07353*
X09444Y07358*
X09429Y0736*
G37*
G36*
X06869Y07478D02*
X06858Y07477D01*
X06848Y07472*
X06839Y07466*
X06833Y07457*
X06828Y07447*
X06827Y07436*
Y0742*
X06828Y0741*
X06833Y07399*
X06839Y07391*
X06848Y07384*
X06858Y0738*
X06868Y07379*
X06871Y07375*
X06958Y07288*
X06964Y07284*
X06972Y07282*
X09123*
X09189Y07216*
X09188Y07206*
X09189Y07196*
X09193Y07186*
X09199Y07178*
X09208Y07171*
X09217Y07167*
X09228Y07166*
X09238Y07167*
X09248Y07171*
X09256Y07178*
X09263Y07186*
X09267Y07196*
X09268Y07206*
X09267Y07217*
X09263Y07226*
X09256Y07235*
X09248Y07241*
X09238Y07245*
X09228Y07247*
X09218Y07245*
X09146Y07317*
X09139Y07321*
X09131Y07323*
X0698*
X06905Y07399*
X06905Y07399*
X06909Y0741*
X06911Y0742*
Y07436*
X06909Y07447*
X06905Y07457*
X06898Y07466*
X0689Y07472*
X0688Y07477*
X06869Y07478*
G37*
G36*
X09229Y07147D02*
X09218Y07146D01*
X09209Y07142*
X092Y07135*
X09194Y07127*
X0919Y07117*
X09188Y07107*
X0919Y07096*
X09194Y07087*
X092Y07078*
X09209Y07072*
X09218Y07068*
X09229Y07066*
X09239Y07068*
X09249Y07072*
X09257Y07078*
X09264Y07087*
X09268Y07096*
X09269Y07107*
X09268Y07117*
X09264Y07127*
X09257Y07135*
X09249Y07142*
X09239Y07146*
X09229Y07147*
G37*
G36*
X0832Y06923D02*
X08312Y06922D01*
X08303Y06919*
X08296Y06913*
X08291Y06906*
X08288Y06898*
X08286Y06889*
X08288Y0688*
X08291Y06872*
X08296Y06865*
X08303Y0686*
X08312Y06857*
X0832Y06855*
X08329Y06857*
X08337Y0686*
X08344Y06865*
X0835Y06872*
X08353Y0688*
X08354Y06889*
X08353Y06898*
X0835Y06906*
X08344Y06913*
X08337Y06919*
X08329Y06922*
X0832Y06923*
G37*
G36*
X09429Y06963D02*
X09414Y06961D01*
X094Y06955*
X09388Y06946*
X09379Y06934*
X09373Y0692*
X09371Y06905*
X09373Y0689*
X09379Y06876*
X09388Y06864*
X094Y06855*
X09414Y06849*
X09429Y06847*
X09444Y06849*
X09458Y06855*
X09469Y06864*
X09479Y06876*
X09484Y0689*
X09486Y06905*
X09484Y0692*
X09479Y06934*
X09469Y06946*
X09458Y06955*
X09444Y06961*
X09429Y06963*
G37*
G36*
X06191Y06937D02*
X06108D01*
Y06818*
X06191*
Y06937*
G37*
G36*
X0674Y06937D02*
X06729Y06936D01*
X06719Y06931*
X0671Y06925*
X06703Y06916*
X06699Y06906*
X06698Y06895*
Y0686*
X06699Y06849*
X06703Y06839*
X0671Y0683*
X06719Y06823*
X06729Y06819*
X0674Y06818*
X0675Y06819*
X06761Y06823*
X06769Y0683*
X06776Y06839*
X0678Y06849*
X06782Y0686*
Y06895*
X0678Y06906*
X06776Y06916*
X06769Y06925*
X06761Y06931*
X0675Y06936*
X0674Y06937*
G37*
G36*
X06641D02*
X0663Y06936D01*
X0662Y06931*
X06612Y06925*
X06605Y06916*
X06601Y06906*
X06599Y06895*
Y0686*
X06601Y06849*
X06605Y06839*
X06612Y0683*
X0662Y06823*
X0663Y06819*
X06641Y06818*
X06652Y06819*
X06662Y06823*
X06671Y0683*
X06677Y06839*
X06682Y06849*
X06683Y0686*
Y06895*
X06682Y06906*
X06677Y06916*
X06671Y06925*
X06662Y06931*
X06652Y06936*
X06641Y06937*
G37*
G36*
X06543D02*
X06532Y06936D01*
X06522Y06931*
X06513Y06925*
X06507Y06916*
X06502Y06906*
X06501Y06895*
Y0686*
X06502Y06849*
X06507Y06839*
X06513Y0683*
X06522Y06823*
X06532Y06819*
X06543Y06818*
X06554Y06819*
X06564Y06823*
X06572Y0683*
X06579Y06839*
X06583Y06849*
X06585Y0686*
Y06895*
X06583Y06906*
X06579Y06916*
X06572Y06925*
X06564Y06931*
X06554Y06936*
X06543Y06937*
G37*
G36*
X06444D02*
X06434Y06936D01*
X06423Y06931*
X06415Y06925*
X06408Y06916*
X06404Y06906*
X06403Y06895*
Y0686*
X06404Y06849*
X06408Y06839*
X06415Y0683*
X06423Y06823*
X06434Y06819*
X06444Y06818*
X06455Y06819*
X06465Y06823*
X06474Y0683*
X06481Y06839*
X06485Y06849*
X06486Y0686*
Y06895*
X06485Y06906*
X06481Y06916*
X06474Y06925*
X06465Y06931*
X06455Y06936*
X06444Y06937*
G37*
G36*
X06346D02*
X06335Y06936D01*
X06325Y06931*
X06316Y06925*
X0631Y06916*
X06306Y06906*
X06304Y06895*
Y0686*
X06306Y06849*
X0631Y06839*
X06316Y0683*
X06325Y06823*
X06335Y06819*
X06346Y06818*
X06357Y06819*
X06367Y06823*
X06376Y0683*
X06382Y06839*
X06386Y06849*
X06388Y0686*
Y06895*
X06386Y06906*
X06382Y06916*
X06376Y06925*
X06367Y06931*
X06357Y06936*
X06346Y06937*
G37*
G36*
X06248D02*
X06237Y06936D01*
X06227Y06931*
X06218Y06925*
X06211Y06916*
X06207Y06906*
X06206Y06895*
Y0686*
X06207Y06849*
X06211Y06839*
X06218Y0683*
X06227Y06823*
X06237Y06819*
X06248Y06818*
X06258Y06819*
X06268Y06823*
X06277Y0683*
X06284Y06839*
X06288Y06849*
X06289Y0686*
Y06895*
X06288Y06906*
X06284Y06916*
X06277Y06925*
X06268Y06931*
X06258Y06936*
X06248Y06937*
G37*
G36*
X08271Y06762D02*
X06064D01*
X06056Y0676*
X06049Y06756*
X05665Y06372*
X0566Y06373*
X0565Y06372*
X05642Y06368*
X05635Y06362*
X05629Y06355*
X05625Y06347*
X05624Y06338*
X05625Y06328*
X05629Y0632*
X05635Y06313*
X05642Y06307*
X0565Y06303*
X0566Y06302*
X05669Y06303*
X05677Y06307*
X05684Y06313*
X0569Y0632*
X05694Y06328*
X05695Y06338*
X05694Y06343*
X06072Y06721*
X07795*
X07796Y06718*
X07796Y06716*
X07791Y06709*
X07788Y06701*
X07786Y06692*
X07788Y06684*
X07791Y06675*
X07796Y06668*
X07803Y06663*
X07812Y0666*
X0782Y06659*
X07825Y06659*
X07893Y06591*
X07899Y06587*
X07907Y06585*
X08692*
X09698Y05579*
Y05317*
X09693Y05315*
X09687Y05319*
X09677Y05323*
X09666Y05325*
X09656Y05323*
X09646Y05319*
X09637Y05313*
X0963Y05304*
X09626Y05294*
X09625Y05283*
Y05267*
X09626Y05256*
X0963Y05246*
X09637Y05238*
X09646Y05231*
X09656Y05227*
X09666Y05225*
X09677Y05227*
X09687Y05231*
X09693Y05235*
X09698Y05233*
Y05115*
X09431Y04848*
X09019*
X09019Y04848*
X09012Y04857*
X09004Y04864*
X08994Y04868*
X08983Y04869*
X08972Y04868*
X08962Y04864*
X08953Y04857*
X08947Y04848*
X08942Y04838*
X08941Y04827*
X08942Y04816*
X08947Y04806*
X08953Y04798*
X08962Y04791*
X08972Y04787*
X08983Y04785*
X08994Y04787*
X08994Y04787*
X09243Y04538*
X0925Y04534*
X09257Y04532*
X09412*
X09412Y04532*
X09419Y04523*
X09427Y04516*
X09437Y04512*
X09448Y04511*
X09459Y04512*
X09469Y04516*
X09478Y04523*
X09485Y04532*
X09489Y04542*
X0949Y04553*
X09489Y04563*
X09485Y04574*
X09478Y04582*
X09469Y04589*
X09459Y04593*
X09448Y04595*
X09437Y04593*
X09427Y04589*
X09419Y04582*
X09412Y04574*
X09412Y04573*
X09266*
X09037Y04802*
X09039Y04807*
X09439*
X09447Y04808*
X09454Y04813*
X09733Y05092*
X09737Y05099*
X09739Y05107*
Y05588*
X09737Y05595*
X09733Y05602*
X08715Y0662*
X08708Y06625*
X087Y06626*
X07915*
X07854Y06688*
X07854Y06692*
X07853Y06701*
X0785Y06709*
X07845Y06716*
X07845Y06718*
X07846Y06721*
X08263*
X08287Y06697*
X08286Y06692*
X08288Y06684*
X08291Y06675*
X08296Y06668*
X08303Y06663*
X08312Y0666*
X0832Y06659*
X08329Y0666*
X08337Y06663*
X08344Y06668*
X0835Y06675*
X08353Y06684*
X08354Y06692*
X08353Y06701*
X0835Y06709*
X08344Y06716*
X08337Y06722*
X08329Y06725*
X0832Y06726*
X08316Y06726*
X08286Y06756*
X08279Y0676*
X08271Y06762*
G37*
G36*
X06397Y07521D02*
X06276D01*
X06268Y07519*
X06261Y07515*
X06213Y07467*
X06209Y0746*
X06207Y07452*
Y07169*
X06209Y07161*
X06213Y07154*
X06292Y07076*
X06299Y07071*
X06307Y0707*
X07554*
X07748Y06875*
X07755Y0687*
X07763Y06869*
X07794*
X07796Y06865*
X07803Y0686*
X07812Y06857*
X0782Y06855*
X07829Y06857*
X07837Y0686*
X07844Y06865*
X0785Y06872*
X07853Y0688*
X07854Y06889*
X07853Y06898*
X0785Y06906*
X07844Y06913*
X07837Y06919*
X07829Y06922*
X0782Y06923*
X07812Y06922*
X07803Y06919*
X07796Y06913*
X07794Y0691*
X07771*
X07576Y07104*
X0757Y07109*
X07562Y0711*
X06315*
X06248Y07177*
Y07444*
X06284Y0748*
X06323*
X06327Y07478*
Y07431*
X06327Y07428*
X06327Y07426*
Y07379*
X06353*
Y07311*
X06355Y07303*
X06359Y07296*
X06469Y07186*
X06476Y07181*
X06484Y0718*
X08424*
X08933Y06671*
X08933Y06665*
X08934Y06656*
X08937Y06647*
X08943Y0664*
X0895Y06634*
X08959Y06631*
X08968Y0663*
X08977Y06631*
X08986Y06634*
X08993Y0664*
X08999Y06647*
X09002Y06656*
X09003Y06665*
X09002Y06674*
X08999Y06683*
X08993Y0669*
X08986Y06695*
X08977Y06699*
X08968Y067*
X08962Y06699*
X08447Y07215*
X0844Y07219*
X08433Y07221*
X06941*
X06789Y07373*
Y07384*
X0679Y07384*
X06798Y07391*
X06805Y07399*
X06809Y0741*
X06811Y0742*
Y07436*
X06809Y07447*
X06805Y07457*
X06798Y07466*
X0679Y07472*
X0678Y07477*
X06769Y07478*
X06758Y07477*
X06748Y07472*
X06739Y07466*
X06733Y07457*
X06728Y07447*
X06727Y07436*
Y0742*
X06728Y0741*
X06733Y07399*
X06739Y07391*
X06748Y07384*
X06748Y07384*
Y07364*
X0675Y07356*
X06754Y0735*
X06879Y07225*
X06877Y07221*
X06492*
X06394Y07319*
Y07379*
X0641*
Y07426*
X06411Y07428*
X0641Y07431*
Y07451*
X06415Y07453*
X06428Y07441*
X06427Y07436*
Y0742*
X06428Y0741*
X06433Y07399*
X06439Y07391*
X06448Y07384*
X06458Y0738*
X06469Y07379*
X0648Y0738*
X0649Y07384*
X06498Y07391*
X06505Y07399*
X06509Y0741*
X06511Y0742*
Y07436*
X06509Y07447*
X06505Y07457*
X06498Y07466*
X0649Y07472*
X0648Y07477*
X06469Y07478*
X06458Y07477*
X06452Y07474*
X06411Y07515*
X06405Y07519*
X06397Y07521*
G37*
G36*
X08276Y0656D02*
X0738D01*
X07372Y06558*
X07366Y06554*
X07341Y06529*
X07336Y06529*
X07327Y06528*
X07319Y06525*
X07312Y0652*
X07307Y06513*
X07303Y06504*
X07302Y06496*
X07303Y06487*
X07307Y06479*
X07312Y06472*
X07319Y06466*
X07327Y06463*
X07336Y06462*
X07345Y06463*
X07353Y06466*
X0736Y06472*
X07365Y06479*
X07369Y06487*
X0737Y06496*
X07369Y065*
X07389Y06519*
X0779*
X07793Y06515*
X07791Y06513*
X07788Y06504*
X07786Y06496*
X07788Y06487*
X07791Y06479*
X07796Y06472*
X07803Y06466*
X07812Y06463*
X0782Y06462*
X07829Y06463*
X07837Y06466*
X07844Y06472*
X0785Y06479*
X07853Y06487*
X07854Y06496*
X07853Y06504*
X0785Y06513*
X07848Y06515*
X0785Y06519*
X08268*
X08287Y065*
X08286Y06496*
X08288Y06487*
X08291Y06479*
X08296Y06472*
X08303Y06466*
X08312Y06463*
X0832Y06462*
X08329Y06463*
X08337Y06466*
X08344Y06472*
X0835Y06479*
X08353Y06487*
X08354Y06496*
X08353Y06504*
X0835Y06513*
X08344Y0652*
X08337Y06525*
X08329Y06528*
X0832Y06529*
X08316Y06529*
X08291Y06554*
X08284Y06558*
X08276Y0656*
G37*
G36*
X06836Y06529D02*
X06827Y06528D01*
X06819Y06525*
X06812Y0652*
X06807Y06513*
X06803Y06504*
X06802Y06496*
X06803Y06491*
X06021Y05709*
X06016Y05702*
X06015Y05694*
Y04804*
X06016Y04796*
X06021Y0479*
X06149Y04661*
X06156Y04657*
X06164Y04655*
X06756*
X06763Y04657*
X0677Y04661*
X06868Y04759*
X07018*
X07026Y04761*
X07033Y04765*
X07093Y04825*
X071Y04833*
X071Y04833*
X07111Y04831*
X07122Y04833*
X07132Y04837*
X07141Y04844*
X07148Y04852*
X07152Y04862*
X07153Y04873*
Y04889*
X07152Y049*
X07148Y0491*
X07143Y04915*
X07146Y0492*
X07177*
X07179Y04915*
X07175Y0491*
X07171Y049*
X07169Y04889*
Y04873*
X07171Y04862*
X07175Y04852*
X07182Y04844*
X0719Y04837*
X07191Y04837*
Y0474*
X06871Y0442*
X06725*
X06717Y04418*
X0671Y04414*
X0666Y04364*
X06655Y04357*
X06654Y04349*
Y0369*
X06655Y03682*
X0666Y03675*
X07148Y03188*
X07148Y03182*
X07147Y0318*
X07141Y03173*
X07137Y03165*
X07136Y03156*
X07137Y03146*
X07141Y03138*
X07147Y03131*
X07154Y03125*
X07162Y03121*
X07172Y0312*
X07181Y03121*
X07189Y03125*
X07196Y03131*
X07202Y03138*
X07206Y03146*
X07206Y03148*
X07371*
X07373Y03144*
X07371Y03141*
X07367Y03133*
X07366Y03124*
X07367Y03118*
X06895Y02645*
X0689Y02639*
X06889Y02631*
Y02603*
X06885Y026*
X0688Y02593*
X06876Y02585*
X06875Y02576*
Y02529*
X06876Y0252*
X0688Y02512*
X06885Y02505*
X06892Y025*
X069Y02497*
X06909Y02495*
X06918Y02497*
X06926Y025*
X06933Y02505*
X06938Y02512*
X06942Y0252*
X06943Y02529*
Y02576*
X06942Y02585*
X06938Y02593*
X06933Y026*
X06929Y02603*
Y02622*
X07396Y03089*
X07402Y03088*
X07411Y03089*
X07419Y03093*
X07426Y03099*
X07432Y03106*
X07436Y03114*
X07437Y03124*
X07436Y03133*
X07432Y03141*
X0743Y03144*
X07432Y03148*
X07636*
X07683Y03101*
X07681Y03096*
X07676Y03095*
X07668Y03092*
X07661Y03086*
X07655Y03079*
X07652Y03071*
X07651Y03062*
Y03015*
X07652Y03007*
X07655Y02999*
X07661Y02992*
X07664Y02989*
Y02788*
X06595Y01719*
X06591Y01713*
X06589Y01705*
Y01508*
X06589Y01508*
X0658Y01502*
X06573Y01493*
X06569Y01483*
X06568Y01472*
X06569Y01461*
X06573Y01451*
X0658Y01442*
X06581Y01442*
X06579Y01437*
X06558*
X06506Y01489*
Y0203*
X06504Y02037*
X065Y02044*
X06173Y0237*
Y02497*
X06177Y02499*
X06182Y02506*
X06186Y02515*
X06187Y02523*
Y0257*
X06186Y02579*
X06182Y02587*
X06177Y02594*
X0617Y02599*
X06162Y02603*
X06153Y02604*
X06144Y02603*
X06136Y02599*
X06134Y02598*
X06129Y026*
Y02629*
X06792Y03292*
X0689*
X06893Y03289*
X069Y03283*
X06908Y0328*
X06917Y03279*
X06926Y0328*
X06934Y03283*
X06941Y03289*
X06946Y03296*
X0695Y03304*
X06951Y03313*
Y03359*
X0695Y03368*
X06946Y03376*
X06941Y03383*
X06934Y03389*
X06926Y03392*
X06917Y03393*
X06908Y03392*
X069Y03389*
X06893Y03383*
X06887Y03376*
X06884Y03368*
X06883Y03359*
Y03333*
X06784*
X06776Y03331*
X06769Y03327*
X06094Y02652*
X0609Y02645*
X06088Y02638*
Y015*
X0609Y01492*
X06094Y01485*
X06217Y01362*
X06224Y01358*
X06232Y01356*
X07278*
X07279Y01351*
X07279Y01351*
X0724Y01312*
X0724Y01313*
X07229Y01314*
X07218Y01313*
X07208Y01308*
X07199Y01302*
X07193Y01293*
X07188Y01283*
X07187Y01272*
X07188Y01261*
X07193Y01251*
X07199Y01243*
X07208Y01236*
X07218Y01232*
X07229Y0123*
X0724Y01232*
X0725Y01236*
X07258Y01243*
X07265Y01251*
X07269Y01261*
X07271Y01272*
X07269Y01283*
X07269Y01284*
X07302Y01316*
X07577*
X0758Y01313*
X07578Y01308*
X0757Y01309*
X0756Y01308*
X07549Y01303*
X07541Y01297*
X07534Y01288*
X0753Y01278*
X07529Y01267*
X0753Y01256*
X0753Y01256*
X07481Y01207*
X063*
X06292Y01205*
X06285Y01201*
X06166Y01082*
X06162Y01075*
X0616Y01068*
Y00999*
X0616Y00998*
X06151Y00992*
X06144Y00983*
X0614Y00973*
X06139Y00962*
Y00927*
X0614Y00916*
X06144Y00906*
X06148Y00901*
X06146Y00896*
X06117*
X06114Y00901*
X06118Y00906*
X06123Y00916*
X06124Y00927*
Y00962*
X06123Y00973*
X06118Y00983*
X06112Y00992*
X06103Y00998*
X06093Y01003*
X06082Y01004*
X06071Y01003*
X06061Y00998*
X06053Y00992*
X06046Y00983*
X06042Y00973*
X0604Y00962*
Y00927*
X06042Y00916*
X06046Y00906*
X0605Y00901*
X06047Y00896*
X06018*
X06016Y00901*
X0602Y00906*
X06024Y00916*
X06026Y00927*
Y00962*
X06024Y00973*
X0602Y00983*
X06013Y00992*
X06005Y00998*
X05995Y01003*
X05984Y01004*
X05973Y01003*
X05963Y00998*
X05958Y00994*
X05953Y00997*
Y01005*
X06194Y01247*
X06475*
X06475Y01246*
X06482Y01238*
X0649Y01231*
X065Y01227*
X06511Y01225*
X06522Y01227*
X06532Y01231*
X06541Y01238*
X06548Y01246*
X06552Y01256*
X06553Y01267*
X06552Y01278*
X06548Y01288*
X06541Y01297*
X06532Y01303*
X06522Y01308*
X06511Y01309*
X065Y01308*
X0649Y01303*
X06482Y01297*
X06475Y01288*
X06475Y01288*
X06186*
X06178Y01286*
X06172Y01282*
X06161Y01271*
X06156Y01273*
X06155Y01283*
X06151Y01293*
X06144Y01302*
X06136Y01308*
X06125Y01313*
X06115Y01314*
X06104Y01313*
X06094Y01308*
X06085Y01302*
X06078Y01293*
X06074Y01283*
X06073Y01272*
X06074Y01261*
X06078Y01251*
X06085Y01243*
X06094Y01236*
X06104Y01232*
X06113Y0123*
X06116Y01226*
X05941Y01051*
X05936Y01053*
X05937Y01058*
Y01058*
Y01231*
X05938Y01231*
X05946Y01238*
X05953Y01246*
X05957Y01256*
X05959Y01267*
X05957Y01278*
X05953Y01288*
X05946Y01297*
X05938Y01303*
X05928Y01308*
X05917Y01309*
X05906Y01308*
X05896Y01303*
X05887Y01297*
X05881Y01288*
X05876Y01278*
X05875Y01267*
X05876Y01256*
X05881Y01246*
X05887Y01238*
X05896Y01231*
X05896Y01231*
Y01067*
X05888Y01058*
X05883Y01051*
X05882Y01044*
Y00845*
X05883Y00837*
X05888Y00831*
X05924Y00795*
X0593Y00791*
X05938Y00789*
X065*
X06507Y00791*
X06514Y00795*
X06589Y0087*
X06593Y00877*
X06595Y00884*
Y00885*
X06616*
Y01004*
X06533*
Y00885*
X0654*
X06542Y00881*
X06491Y0083*
X05946*
X05925Y00851*
X05928Y00856*
X05928*
X05932Y00855*
X06279*
X06287Y00856*
X06293Y00861*
X06298Y00867*
X06299Y00875*
Y0089*
X063Y0089*
X06309Y00897*
X06315Y00906*
X06319Y00916*
X06321Y00927*
Y00962*
X06319Y00973*
X06315Y00983*
X06309Y00992*
X063Y00998*
X0629Y01003*
X06279Y01004*
X06268Y01003*
X06258Y00998*
X06249Y00992*
X06243Y00983*
X06239Y00973*
X06237Y00962*
Y00927*
X06239Y00916*
X06243Y00906*
X06247Y00901*
X06244Y00896*
X06215*
X06213Y00901*
X06217Y00906*
X06221Y00916*
X06222Y00927*
Y00962*
X06221Y00973*
X06217Y00983*
X0621Y00992*
X06202Y00998*
X06201Y00999*
Y01059*
X06308Y01166*
X0749*
X07497Y01168*
X07504Y01172*
X07559Y01227*
X0756Y01227*
X0757Y01225*
X07581Y01227*
X07591Y01231*
X07597Y01235*
X07602Y01233*
Y01207*
X07541Y01146*
X06595*
X06587Y01144*
X0658Y0114*
X06461Y01021*
X06457Y01014*
X06455Y01007*
Y00999*
X06455Y00998*
X06446Y00992*
X0644Y00983*
X06435Y00973*
X06434Y00962*
Y00927*
X06435Y00916*
X0644Y00906*
X06446Y00897*
X06455Y0089*
X06465Y00886*
X06476Y00885*
X06487Y00886*
X06497Y0089*
X06505Y00897*
X06512Y00906*
X06516Y00916*
X06518Y00927*
Y00962*
X06516Y00973*
X06512Y00983*
X06505Y00992*
X06501Y00995*
X065Y01002*
X06603Y01105*
X0755*
X07557Y01107*
X07564Y01111*
X07637Y01184*
X07641Y01191*
X07643Y01199*
Y013*
X07641Y01307*
X07637Y01314*
X076Y01351*
X076Y01351*
X07601Y01356*
X08183*
X08259Y0128*
X08259Y01279*
X08258Y01268*
X08259Y01257*
X08263Y01247*
X0827Y01239*
X08279Y01232*
X08289Y01228*
X083Y01226*
X08311Y01228*
X08321Y01232*
X08329Y01239*
X08336Y01247*
X0834Y01257*
X08342Y01268*
X0834Y01279*
X08336Y01289*
X08329Y01298*
X08321Y01304*
X08311Y01309*
X083Y0131*
X08289Y01309*
X08288Y01308*
X08206Y01391*
X08206Y01391*
X08207Y01396*
X09348*
X09408Y01336*
X09408Y01335*
X09406Y01324*
X09408Y01313*
X09412Y01303*
X09419Y01295*
X09427Y01288*
X09437Y01284*
X09448Y01282*
X09459Y01284*
X09469Y01288*
X09478Y01295*
X09485Y01303*
X09489Y01313*
X0949Y01324*
X09489Y01335*
X09485Y01345*
X09478Y01354*
X09469Y01361*
X09459Y01365*
X09448Y01366*
X09437Y01365*
X09437Y01365*
X09371Y01431*
X09364Y01435*
X09356Y01437*
X08235*
X08233Y01442*
X08237Y01447*
X08241Y01457*
X08242Y01468*
X08241Y01479*
X08237Y01489*
X0823Y01498*
X08221Y01504*
X08221Y01504*
Y01889*
X08219Y01896*
X08215Y01903*
X07717Y02401*
Y02493*
X0772Y02495*
X07726Y02502*
X07729Y02511*
X0773Y02519*
Y02566*
X07729Y02575*
X07726Y02583*
X0772Y0259*
X07713Y02596*
X07705Y02599*
X07696Y026*
X07688Y02599*
X07679Y02596*
X07672Y0259*
X07667Y02583*
X07664Y02575*
X07662Y02566*
Y02519*
X07664Y02511*
X07667Y02502*
X07672Y02495*
X07676Y02493*
Y02393*
X07678Y02385*
X07682Y02378*
X0818Y0188*
Y01504*
X08179Y01504*
X08171Y01498*
X08164Y01489*
X0816Y01479*
X08158Y01468*
X0816Y01457*
X08164Y01447*
X08168Y01442*
X08166Y01437*
X07699*
X07697Y01442*
X07698Y01442*
X07705Y01451*
X07709Y01461*
X07711Y01472*
X07709Y01483*
X07705Y01493*
X07698Y01502*
X0769Y01508*
X0768Y01512*
X07669Y01514*
X07658Y01512*
X07648Y01508*
X07639Y01502*
X07633Y01493*
X07628Y01483*
X07627Y01472*
X07628Y01461*
X07633Y01451*
X07639Y01442*
X0764Y01442*
X07639Y01437*
X0716*
X07158Y01442*
X07159Y01442*
X07166Y01451*
X0717Y01461*
X07171Y01472*
X0717Y01483*
X07166Y01493*
X07159Y01502*
X0715Y01508*
X0714Y01512*
X07129Y01514*
X07119Y01512*
X07108Y01508*
X071Y01502*
X07093Y01493*
X07089Y01483*
X07088Y01472*
X07089Y01461*
X07093Y01451*
X071Y01442*
X07101Y01442*
X07099Y01437*
X0664*
X06638Y01442*
X06639Y01442*
X06646Y01451*
X0665Y01461*
X06652Y01472*
X0665Y01483*
X06646Y01493*
X06639Y01502*
X06631Y01508*
X0663Y01508*
Y01696*
X07699Y02765*
X07703Y02772*
X07705Y0278*
Y02989*
X07709Y02992*
X07714Y02999*
X07717Y03007*
X07718Y03015*
Y03059*
X07723Y03061*
X08962Y01822*
Y01635*
X08962Y01635*
X08953Y01629*
X08947Y0162*
X08942Y0161*
X08941Y01599*
X08942Y01588*
X08947Y01578*
X08953Y01569*
X08962Y01563*
X08972Y01558*
X08983Y01557*
X08994Y01558*
X09004Y01563*
X09012Y01569*
X09019Y01578*
X09023Y01588*
X09025Y01599*
X09023Y0161*
X09019Y0162*
X09012Y01629*
X09004Y01635*
X09003Y01635*
Y0183*
X09002Y01838*
X08997Y01845*
X07666Y03176*
X07668Y03181*
X07701*
X08085Y02797*
X08092Y02793*
X081Y02791*
X08825*
X08943Y02673*
X08942Y02673*
X08941Y02662*
X08942Y02651*
X08947Y02641*
X08953Y02632*
X08962Y02626*
X08972Y02621*
X08983Y0262*
X08994Y02621*
X09004Y02626*
X09012Y02632*
X09019Y02641*
X09023Y02651*
X09025Y02662*
X09023Y02673*
X09019Y02683*
X09012Y02691*
X09004Y02698*
X08994Y02702*
X08983Y02704*
X08972Y02702*
X08971Y02702*
X08848Y02826*
X08841Y0283*
X08833Y02832*
X08108*
X07724Y03216*
X07718Y0322*
X0771Y03222*
X07171*
X06695Y03698*
Y03719*
X06696Y0372*
X06698Y03722*
X067Y03722*
X06715Y03718*
X06715Y03716*
X06718Y03708*
X06724Y03701*
X06731Y03695*
X06739Y03692*
X06748Y03691*
X06795*
X06803Y03692*
X06811Y03695*
X06819Y03701*
X06824Y03708*
X06827Y03716*
X06828Y03725*
X06827Y03733*
X06824Y03742*
X06819Y03749*
X06811Y03754*
X06803Y03757*
X06795Y03759*
X06748*
X06739Y03757*
X06734Y03755*
X06725Y03758*
Y03832*
X06729Y03835*
X06731Y03833*
X06739Y0383*
X06748Y03829*
X06795*
X06803Y0383*
X06811Y03833*
X06819Y03839*
X06821Y03842*
X07154*
X07157Y03839*
X07164Y03833*
X07172Y0383*
X07181Y03829*
X07228*
X07236Y0383*
X07245Y03833*
X07252Y03839*
X07254Y03842*
X07587*
X0759Y03839*
X07597Y03833*
X07605Y0383*
X07614Y03829*
X07661*
X07669Y0383*
X07678Y03833*
X07685Y03839*
X07687Y03842*
X08245*
X08464Y03623*
X08471Y03618*
X08479Y03617*
X0852*
X0852Y03616*
X08527Y03608*
X08536Y03601*
X08546Y03597*
X08557Y03595*
X08592*
X08603Y03597*
X08613Y03601*
X08619Y03606*
X08624Y03603*
Y03573*
X08619Y0357*
X08613Y03575*
X08603Y03579*
X08592Y03581*
X08557*
X08546Y03579*
X08536Y03575*
X08527Y03568*
X0852Y0356*
X08516Y0355*
X08515Y03539*
X08516Y03528*
X0852Y03518*
X08527Y03509*
X08536Y03503*
X08546Y03498*
X08557Y03497*
X08592*
X08603Y03498*
X08613Y03503*
X08622Y03509*
X08628Y03518*
X08628Y03518*
X08645*
X08652Y0352*
X08659Y03524*
X08663Y03531*
X08665Y03539*
Y03839*
X08663Y03847*
X08659Y03853*
X08514Y03998*
X08507Y04003*
X085Y04004*
X08188*
X08187Y04005*
X08181Y04013*
X08172Y0402*
X08162Y04024*
X08151Y04026*
X08116*
X08105Y04024*
X08095Y0402*
X08086Y04013*
X08079Y04005*
X08075Y03995*
X08074Y03984*
X08075Y03973*
X08079Y03963*
X08086Y03954*
X08095Y03948*
X08105Y03943*
X08116Y03942*
X08151*
X08162Y03943*
X08172Y03948*
X08181Y03954*
X08187Y03963*
X08188Y03963*
X08491*
X08624Y0383*
Y03671*
X08619Y03669*
X08613Y03674*
X08603Y03678*
X08592Y03679*
X08557*
X08546Y03678*
X08536Y03674*
X08527Y03667*
X0852Y03658*
X0852Y03658*
X08487*
X08268Y03877*
X08261Y03881*
X08253Y03883*
X07687*
X07685Y03886*
X07678Y03892*
X07675Y03893*
X07676Y03898*
X07766*
X07773Y039*
X0778Y03904*
X08036Y0416*
X08079*
X08079Y0416*
X08086Y04151*
X08095Y04144*
X08105Y0414*
X08116Y04139*
X08151*
X08162Y0414*
X08172Y04144*
X08181Y04151*
X08187Y0416*
X08192Y0417*
X08193Y04181*
X08192Y04191*
X08187Y04202*
X08181Y0421*
X08172Y04217*
X08162Y04221*
X08151Y04222*
X08116*
X08105Y04221*
X08095Y04217*
X08086Y0421*
X08079Y04202*
X08079Y04201*
X08028*
X0802Y04199*
X08013Y04195*
X07757Y03939*
X07385*
X07381Y03943*
X07374Y03949*
X07366Y03953*
X07357Y03954*
X07347Y03953*
X07339Y03949*
X07332Y03943*
X07326Y03936*
X07322Y03928*
X07321Y03919*
X07322Y03909*
X07326Y03901*
X07332Y03894*
X07339Y03888*
X07339Y03888*
X07338Y03883*
X07254*
X07252Y03886*
X07245Y03892*
X07236Y03895*
X07228Y03896*
X07181*
X07172Y03895*
X07164Y03892*
X07157Y03886*
X07154Y03883*
X06821*
X06819Y03886*
X06811Y03892*
X06803Y03895*
X06795Y03896*
X06748*
X06739Y03895*
X06731Y03892*
X06729Y03891*
X06725Y03893*
Y03898*
X06933Y04106*
X07847*
X07854Y04108*
X07861Y04112*
X08007Y04259*
X08079*
X08079Y04258*
X08086Y04249*
X08095Y04243*
X08105Y04239*
X08116Y04237*
X08151*
X08162Y04239*
X08172Y04243*
X08181Y04249*
X08187Y04258*
X08192Y04268*
X08193Y04279*
X08192Y0429*
X08187Y043*
X08181Y04309*
X08172Y04315*
X08162Y04319*
X08151Y04321*
X08116*
X08105Y04319*
X08095Y04315*
X08086Y04309*
X08079Y043*
X08079Y04299*
X07999*
X07991Y04298*
X07985Y04293*
X07838Y04147*
X06924*
X06916Y04145*
X0691Y04141*
X06699Y0393*
X06695Y03932*
Y04341*
X06733Y04379*
X0674*
X06741Y04374*
X06735Y04371*
X06728Y04366*
X06722Y04359*
X06719Y04351*
X06718Y04342*
X06719Y04333*
X06722Y04325*
X06728Y04318*
X06735Y04313*
X06743Y04309*
X06752Y04308*
X06798*
X06807Y04309*
X06815Y04313*
X06822Y04318*
X06825Y04322*
X0699*
X0699*
X07154*
X07157Y04318*
X07164Y04313*
X07172Y04309*
X07181Y04308*
X07228*
X07236Y04309*
X07245Y04313*
X07252Y04318*
X07254Y04322*
X07587*
X0759Y04318*
X07597Y04313*
X07605Y04309*
X07614Y04308*
X07661*
X07669Y04309*
X07678Y04313*
X07685Y04318*
X0769Y04325*
X07693Y04333*
X07695Y04342*
X07693Y04351*
X0769Y04359*
X07685Y04366*
X07678Y04371*
X07669Y04375*
X07661Y04376*
X07614*
X07605Y04375*
X07597Y04371*
X0759Y04366*
X07587Y04362*
X07254*
X07252Y04366*
X07245Y04371*
X07236Y04375*
X07228Y04376*
X07181*
X07172Y04375*
X07164Y04371*
X07157Y04366*
X07154Y04362*
X0699*
X06989*
X06825*
X06822Y04366*
X06815Y04371*
X06809Y04374*
X0681Y04379*
X0688*
X06887Y04381*
X06894Y04385*
X07226Y04717*
X0723Y04724*
X07232Y04731*
Y04837*
X07232Y04837*
X07241Y04844*
X07248Y04852*
X07252Y04862*
X07253Y04873*
Y04889*
X07252Y049*
X07248Y0491*
X07243Y04915*
X07246Y0492*
X07277*
X07279Y04915*
X07275Y0491*
X07271Y049*
X07269Y04889*
Y04873*
X07271Y04862*
X07275Y04852*
X07282Y04844*
X0729Y04837*
X073Y04833*
X07311Y04831*
X07322Y04833*
X07332Y04837*
X07341Y04844*
X07348Y04852*
X07352Y04862*
X07353Y04873*
Y04889*
X07352Y049*
X07348Y0491*
X07343Y04915*
X07346Y0492*
X07395*
X07601Y04715*
X07608Y04709*
X07616Y04705*
X07626Y04704*
X08184*
X09408Y0348*
X09408Y03479*
X09412Y03469*
X09419Y0346*
X09427Y03453*
X09437Y03449*
X09448Y03448*
X09457Y03449*
X0946Y03444*
X0945Y03435*
X09238*
X09174Y03499*
X09174Y035*
X0917Y03511*
X09163Y03519*
X09154Y03526*
X09144Y0353*
X09133Y03532*
X09123Y0353*
X09112Y03526*
X09104Y03519*
X09097Y03511*
X09093Y035*
X09091Y0349*
X09093Y03479*
X09097Y03469*
X09104Y0346*
X09112Y03453*
X09123Y03449*
X09124Y03449*
X09199Y03375*
X09206Y03369*
X09214Y03365*
X09224Y03364*
X09465*
X09474Y03365*
X09482Y03369*
X0949Y03375*
X09535Y0342*
X0954Y03418*
Y03264*
X08628*
X08628Y03265*
X08622Y03273*
X08613Y0328*
X08603Y03284*
X08592Y03285*
X08557*
X08546Y03284*
X08536Y0328*
X08527Y03273*
X0852Y03265*
X08516Y03254*
X08515Y03244*
X08516Y03233*
X0852Y03223*
X08527Y03214*
X08536Y03207*
X08546Y03203*
X08557Y03202*
X08592*
X08603Y03203*
X08613Y03207*
X08622Y03214*
X08628Y03223*
X08628Y03223*
X09557*
X09564Y03225*
X09571Y03229*
X09575Y03233*
X09579Y0324*
X09581Y03248*
Y03691*
X09579Y03698*
X09575Y03705*
X08887Y04393*
Y05018*
X08885Y05026*
X08881Y05033*
X08711Y05203*
X08704Y05207*
X08696Y05209*
X07948*
X0794Y05207*
X07933Y05203*
X07862Y05132*
X07858Y05125*
X07856Y05118*
Y05084*
X07835*
Y05037*
X07835Y05035*
X07835Y05032*
Y04985*
X07918*
Y05032*
X07919Y05035*
X07918Y05037*
Y05084*
X07897*
Y05109*
X07956Y05168*
X08034*
X08035Y05163*
X08035Y05163*
X07962Y0509*
X07958Y05083*
X07957Y05079*
X07956Y05079*
X07947Y05072*
X0794Y05063*
X07936Y05053*
X07935Y05042*
Y05027*
X07936Y05016*
X0794Y05006*
X07947Y04997*
X07956Y0499*
X07966Y04986*
X07977Y04985*
X07988Y04986*
X07998Y0499*
X08006Y04997*
X08013Y05006*
X08017Y05016*
X08019Y05027*
Y05042*
X08017Y05053*
X08013Y05063*
X08006Y05072*
X08006Y05076*
X08058Y05128*
X08556*
X08642Y05042*
X08641Y05039*
X08643Y0503*
X08646Y05021*
X08652Y05014*
X08659Y05008*
X08668Y05005*
X08677Y05004*
X08686Y05005*
X08694Y05008*
X08702Y05014*
X08707Y05021*
X08711Y0503*
X08712Y05039*
X08711Y05048*
X08707Y05057*
X08702Y05064*
X08694Y05069*
X08686Y05073*
X08677Y05074*
X08669Y05073*
X08579Y05163*
X08579Y05163*
X0858Y05168*
X08688*
X08846Y0501*
Y04385*
X08848Y04377*
X08852Y0437*
X0954Y03682*
Y03638*
X09535Y03636*
X08272Y04898*
X08212Y04959*
Y05005*
X08213Y05006*
X08217Y05016*
X08219Y05027*
Y05042*
X08217Y05053*
X08214Y05062*
X08218Y05065*
X08235Y05047*
X08235Y05042*
Y05027*
X08236Y05016*
X0824Y05006*
X08247Y04997*
X08256Y0499*
X08266Y04986*
X08277Y04985*
X08288Y04986*
X08298Y0499*
X08306Y04997*
X08313Y05006*
X08317Y05016*
X08319Y05027*
Y05042*
X08317Y05053*
X08313Y05063*
X08306Y05072*
X08298Y05079*
X08288Y05083*
X08277Y05084*
X08266Y05083*
X0826Y0508*
X08227Y05113*
X08221Y05117*
X08213Y05119*
X08141*
X08133Y05117*
X08126Y05113*
X08094Y0508*
X08088Y05083*
X08077Y05084*
X08066Y05083*
X08056Y05079*
X08047Y05072*
X0804Y05063*
X08036Y05053*
X08035Y05042*
Y05027*
X08036Y05016*
X0804Y05006*
X08047Y04997*
X08056Y0499*
X08066Y04986*
X08077Y04985*
X08088Y04986*
X08098Y0499*
X08106Y04997*
X08113Y05006*
X08117Y05016*
X08119Y05027*
Y05042*
X08118Y05047*
X08136Y05065*
X0814Y05062*
X08136Y05053*
X08135Y05042*
Y05027*
X08136Y05016*
X0814Y05006*
X08141Y05005*
Y04944*
X08143Y04935*
X08146Y04927*
X08152Y04919*
X08158Y04913*
X08156Y04909*
X07691*
X07544Y05056*
X07536Y05062*
X07528Y05066*
X07519Y05067*
X07094*
X07047Y05114*
Y05151*
X07048Y05152*
X07052Y05162*
X07053Y05173*
Y05189*
X07052Y052*
X07048Y0521*
X07041Y05218*
X07032Y05225*
X07022Y05229*
X07011Y05231*
X07Y05229*
X0699Y05225*
X06982Y05218*
X06975Y0521*
X06971Y052*
X06969Y05189*
Y05173*
X06971Y05162*
X06975Y05152*
X06976Y05151*
Y051*
X06977Y0509*
X06981Y05082*
X06986Y05075*
X07054Y05007*
X07062Y05001*
X0707Y04997*
X07079Y04996*
X07504*
X07652Y04849*
X07659Y04843*
X07668Y04839*
X07677Y04838*
X08233*
X0948Y03592*
Y03524*
X09475Y03522*
X09469Y03526*
X09459Y0353*
X09458Y0353*
X08223Y04764*
X08216Y0477*
X08208Y04774*
X08198Y04775*
X0764*
X07434Y0498*
X07427Y04986*
X07419Y0499*
X0741Y04991*
X07042*
X07033Y0499*
X07025Y04986*
X07017Y0498*
X06986Y04949*
X06981Y04942*
X06977Y04934*
X06976Y04925*
Y04911*
X06975Y0491*
X06971Y049*
X06969Y04889*
Y04873*
X06971Y04862*
X06975Y04852*
X06982Y04844*
X0699Y04837*
X07Y04833*
X07011Y04831*
X07022Y04833*
X07032Y04837*
X07041Y04844*
X07048Y04852*
X07052Y04862*
X07053Y04873*
Y04889*
X07052Y049*
X07048Y0491*
X07047Y0491*
X07057Y0492*
X07077*
X07079Y04915*
X07075Y0491*
X07071Y049*
X07069Y04889*
Y04873*
X07071Y04862*
X07071Y04861*
X07064Y04854*
X0701Y048*
X0686*
X06852Y04798*
X06845Y04794*
X06747Y04696*
X06691*
X06689Y04701*
X06726Y04737*
X0673Y04744*
X06732Y04751*
Y04837*
X06732Y04837*
X06741Y04844*
X06748Y04852*
X06752Y04862*
X06753Y04873*
Y04889*
X06752Y049*
X06748Y0491*
X06741Y04918*
X06732Y04925*
X06722Y04929*
X06711Y04931*
X06702Y0493*
X067Y04934*
X06826Y0506*
X0683Y05067*
X06832Y05074*
Y05137*
X06832Y05137*
X06841Y05144*
X06848Y05152*
X06852Y05162*
X06853Y05173*
Y05189*
X06852Y052*
X06848Y0521*
X06841Y05218*
X06832Y05225*
X06832Y05225*
Y05366*
X0683Y05373*
X06826Y0538*
X06812Y05394*
Y05481*
X06817Y05484*
X06819Y05482*
X06827Y05479*
X06836Y05477*
X06845Y05479*
X06853Y05482*
X0686Y05487*
X06865Y05494*
X06869Y05503*
X0687Y05511*
X06869Y05516*
X07041Y05688*
X07309*
X07312Y05684*
X07319Y05679*
X07327Y05675*
X07336Y05674*
X07345Y05675*
X07353Y05679*
X0736Y05684*
X07365Y05691*
X07369Y05699*
X0737Y05708*
X07369Y05717*
X07365Y05725*
X0736Y05732*
X07353Y05738*
X07345Y05741*
X07336Y05742*
X07327Y05741*
X07319Y05738*
X07312Y05732*
X07309Y05729*
X07033*
X07025Y05727*
X07019Y05723*
X06841Y05545*
X06836Y05545*
X06827Y05544*
X06819Y05541*
X06817Y05539*
X06812Y05541*
Y05555*
X07141Y05885*
X07309*
X07312Y05881*
X07319Y05876*
X07327Y05872*
X07336Y05871*
X07345Y05872*
X07353Y05876*
X0736Y05881*
X07365Y05888*
X07369Y05896*
X0737Y05905*
X07369Y05914*
X07365Y05922*
X0736Y05929*
X07353Y05934*
X07345Y05938*
X07336Y05939*
X07327Y05938*
X07319Y05934*
X07312Y05929*
X07309Y05925*
X07133*
X07125Y05924*
X07119Y05919*
X06777Y05578*
X06773Y05571*
X06771Y05564*
Y05386*
X06773Y05378*
X06777Y05371*
X06791Y05357*
Y05225*
X0679Y05225*
X06782Y05218*
X06775Y0521*
X06771Y052*
X06769Y05189*
Y05173*
X06771Y05162*
X06775Y05152*
X06782Y05144*
X0679Y05137*
X06791Y05137*
Y05083*
X06743Y05035*
X06739Y05038*
X06742Y05045*
X06743Y05055*
X06742Y05064*
X06739Y05072*
X06733Y0508*
X06726Y05085*
X06717Y05089*
X06708Y0509*
X06699Y05089*
X06691Y05085*
X06683Y0508*
X0668Y05075*
X06532*
X06154Y05453*
Y05564*
X06157Y05566*
X06163Y05573*
X06166Y05582*
X06167Y0559*
Y05637*
X06166Y05646*
X06163Y05654*
X06157Y05661*
X0615Y05666*
X06142Y0567*
X06133Y05671*
X06125Y0567*
X06116Y05666*
X06109Y05661*
X06104Y05654*
X06101Y05646*
X06099Y05637*
Y0559*
X06101Y05582*
X06104Y05573*
X06109Y05566*
X06113Y05564*
Y05445*
X06115Y05437*
X06119Y0543*
X06509Y0504*
X06516Y05036*
X06523Y05034*
X0668*
X06683Y0503*
X06691Y05024*
X06699Y05021*
X06708Y05019*
X06717Y05021*
X06725Y05024*
X06727Y05019*
X06568Y0486*
X06354*
X06348Y04868*
X0634Y04874*
X0633Y04878*
X0632Y0488*
X06309Y04878*
X06299Y04874*
X06291Y04868*
X06285Y0486*
X06281Y0485*
X06279Y0484*
X06281Y04829*
X06285Y04819*
X06291Y04811*
X06299Y04805*
X06309Y04801*
X0632Y04799*
X0633Y04801*
X0634Y04805*
X06348Y04811*
X06354Y04819*
X06577*
X06584Y04821*
X06591Y04825*
X06666Y049*
X06671Y04898*
X06669Y04889*
Y04873*
X06671Y04862*
X06675Y04852*
X06682Y04844*
X0669Y04837*
X06691Y04837*
Y0476*
X06627Y04696*
X06172*
X06055Y04813*
Y05686*
X06832Y06462*
X06836Y06462*
X06845Y06463*
X06853Y06466*
X0686Y06472*
X06865Y06479*
X06869Y06487*
X0687Y06496*
X06869Y06504*
X06865Y06513*
X0686Y0652*
X06853Y06525*
X06845Y06528*
X06836Y06529*
G37*
G36*
X06133Y06435D02*
X06125Y06434D01*
X06116Y0643*
X06109Y06425*
X06104Y06418*
X06101Y0641*
X06099Y06401*
Y06354*
X06101Y06345*
X06104Y06337*
X06109Y0633*
X06116Y06325*
X06125Y06321*
X06133Y0632*
X06142Y06321*
X0615Y06325*
X06157Y0633*
X06163Y06337*
X06166Y06345*
X06167Y06354*
Y06401*
X06166Y0641*
X06163Y06418*
X06157Y06425*
X0615Y0643*
X06142Y06434*
X06133Y06435*
G37*
G36*
X0832Y06333D02*
X08312Y06331D01*
X08303Y06328*
X08296Y06323*
X08291Y06316*
X08288Y06307*
X08286Y06299*
X08288Y0629*
X08291Y06282*
X08296Y06275*
X08303Y06269*
X08312Y06266*
X0832Y06265*
X08329Y06266*
X08337Y06269*
X08344Y06275*
X0835Y06282*
X08353Y0629*
X08354Y06299*
X08353Y06307*
X0835Y06316*
X08344Y06323*
X08337Y06328*
X08329Y06331*
X0832Y06333*
G37*
G36*
X0782D02*
X07812Y06331D01*
X07803Y06328*
X07796Y06323*
X07791Y06316*
X07788Y06307*
X07786Y06299*
X07788Y0629*
X07791Y06282*
X07796Y06275*
X07803Y06269*
X07812Y06266*
X0782Y06265*
X07829Y06266*
X07837Y06269*
X07844Y06275*
X0785Y06282*
X07853Y0629*
X07854Y06299*
X07853Y06307*
X0785Y06316*
X07844Y06323*
X07837Y06328*
X07829Y06331*
X0782Y06333*
G37*
G36*
X07336D02*
X07327Y06331D01*
X07319Y06328*
X07312Y06323*
X07307Y06316*
X07303Y06307*
X07302Y06299*
X07303Y0629*
X07307Y06282*
X07312Y06275*
X07319Y06269*
X07327Y06266*
X07336Y06265*
X07345Y06266*
X07353Y06269*
X0736Y06275*
X07365Y06282*
X07369Y0629*
X0737Y06299*
X07369Y06307*
X07365Y06316*
X0736Y06323*
X07353Y06328*
X07345Y06331*
X07336Y06333*
G37*
G36*
X06992Y06432D02*
X06982Y06431D01*
X06974Y06428*
X06967Y06422*
X06961Y06415*
X06958Y06406*
X06956Y06397*
X06958Y06388*
X06961Y06379*
X06967Y06372*
X06974Y06367*
X06982Y06363*
X06992Y06362*
X07001Y06363*
X07009Y06367*
X07017Y06372*
X0702Y06377*
X07081*
X07197Y06261*
Y0614*
X07199Y06132*
X07203Y06125*
X07285Y06043*
X07292Y06039*
X073Y06037*
X09019*
X09546Y0551*
Y05319*
X09546Y05319*
X09537Y05313*
X0953Y05304*
X09526Y05294*
X09525Y05283*
Y05267*
X09526Y05256*
X0953Y05246*
X09537Y05238*
X09546Y05231*
X09556Y05227*
X09566Y05225*
X09577Y05227*
X09587Y05231*
X09596Y05238*
X09603Y05246*
X09607Y05256*
X09608Y05267*
Y05283*
X09607Y05294*
X09603Y05304*
X09596Y05313*
X09587Y05319*
X09587Y05319*
Y05519*
X09585Y05526*
X09581Y05533*
X09042Y06072*
X09035Y06076*
X09027Y06078*
X0835*
X08348Y06082*
X0835Y06085*
X08353Y06093*
X08354Y06102*
X08353Y06111*
X0835Y06119*
X08344Y06126*
X08337Y06131*
X08329Y06135*
X0832Y06136*
X08312Y06135*
X08303Y06131*
X08296Y06126*
X08291Y06119*
X08288Y06111*
X08286Y06102*
X08288Y06093*
X08291Y06085*
X08293Y06082*
X08291Y06078*
X0785*
X07848Y06082*
X0785Y06085*
X07853Y06093*
X07854Y06102*
X07853Y06111*
X0785Y06119*
X07844Y06126*
X07837Y06131*
X07829Y06135*
X0782Y06136*
X07812Y06135*
X07803Y06131*
X07796Y06126*
X07791Y06119*
X07788Y06111*
X07786Y06102*
X07788Y06093*
X07791Y06085*
X07793Y06082*
X07791Y06078*
X07366*
X07364Y06082*
X07365Y06085*
X07369Y06093*
X0737Y06102*
X07369Y06106*
X07422Y06159*
X08709*
X08713Y06155*
X0872Y06149*
X08728Y06145*
X08738Y06144*
X08747Y06145*
X08755Y06149*
X08762Y06155*
X08768Y06162*
X08772Y0617*
X08773Y0618*
X08772Y06189*
X08768Y06197*
X08762Y06204*
X08755Y0621*
X08747Y06214*
X08738Y06215*
X08728Y06214*
X0872Y0621*
X08713Y06204*
X08709Y062*
X07414*
X07406Y06198*
X07399Y06194*
X07341Y06135*
X07336Y06136*
X07327Y06135*
X07319Y06131*
X07312Y06126*
X07307Y06119*
X07303Y06111*
X07302Y06102*
X07303Y06093*
X07306Y06087*
X07302Y06084*
X07238Y06148*
Y0627*
X07236Y06277*
X07232Y06284*
X07104Y06412*
X07098Y06416*
X0709Y06418*
X0702*
X07017Y06422*
X07009Y06428*
X07001Y06431*
X06992Y06432*
G37*
G36*
X06836Y06136D02*
X06827Y06135D01*
X06819Y06131*
X06812Y06126*
X06807Y06119*
X06803Y06111*
X06802Y06102*
X06803Y06093*
X06807Y06085*
X06812Y06078*
X06819Y06073*
X06827Y06069*
X06836Y06068*
X06845Y06069*
X06853Y06073*
X0686Y06078*
X06865Y06085*
X06869Y06093*
X0687Y06102*
X06869Y06111*
X06865Y06119*
X0686Y06126*
X06853Y06131*
X06845Y06135*
X06836Y06136*
G37*
G36*
X06133Y06139D02*
X06125Y06138D01*
X06116Y06135*
X06109Y0613*
X06104Y06123*
X06101Y06114*
X06099Y06106*
Y06059*
X06101Y0605*
X06104Y06042*
X06109Y06035*
X06116Y06029*
X06125Y06026*
X06133Y06025*
X06142Y06026*
X0615Y06029*
X06157Y06035*
X06163Y06042*
X06166Y0605*
X06167Y06059*
Y06106*
X06166Y06114*
X06163Y06123*
X06157Y0613*
X0615Y06135*
X06142Y06138*
X06133Y06139*
G37*
G36*
X06836Y06333D02*
X06827Y06331D01*
X06819Y06328*
X06812Y06323*
X06807Y06316*
X06803Y06307*
X06802Y06299*
X06803Y0629*
X06807Y06282*
X06812Y06275*
X06819Y06269*
X06827Y06266*
X06836Y06265*
X06841Y06265*
X07118Y05988*
X07125Y05984*
X07132Y05982*
X08214*
X08287Y0591*
X08286Y05905*
X08288Y05896*
X08291Y05888*
X08296Y05881*
X08303Y05876*
X08312Y05872*
X0832Y05871*
X08329Y05872*
X08337Y05876*
X08344Y05881*
X0835Y05888*
X08353Y05896*
X08354Y05905*
X08353Y05914*
X0835Y05922*
X08344Y05929*
X08337Y05934*
X08329Y05938*
X0832Y05939*
X08316Y05938*
X08237Y06017*
X08231Y06021*
X08223Y06023*
X07141*
X06869Y06294*
X0687Y06299*
X06869Y06307*
X06865Y06316*
X0686Y06323*
X06853Y06328*
X06845Y06331*
X06836Y06333*
G37*
G36*
X06836Y05939D02*
X06827Y05938D01*
X06819Y05934*
X06812Y05929*
X06807Y05922*
X06803Y05914*
X06802Y05905*
X06803Y05896*
X06807Y05888*
X06812Y05881*
X06819Y05876*
X06827Y05872*
X06836Y05871*
X06845Y05872*
X06853Y05876*
X0686Y05881*
X06865Y05888*
X06869Y05896*
X0687Y05905*
X06869Y05914*
X06865Y05922*
X0686Y05929*
X06853Y05934*
X06845Y05938*
X06836Y05939*
G37*
G36*
X0832Y05742D02*
X08312Y05741D01*
X08303Y05738*
X08296Y05732*
X08291Y05725*
X08288Y05717*
X08286Y05708*
X08288Y05699*
X08291Y05691*
X08296Y05684*
X08303Y05679*
X08312Y05675*
X0832Y05674*
X08329Y05675*
X08337Y05679*
X08344Y05684*
X0835Y05691*
X08353Y05699*
X08354Y05708*
X08353Y05717*
X0835Y05725*
X08344Y05732*
X08337Y05738*
X08329Y05741*
X0832Y05742*
G37*
G36*
X0782D02*
X07812Y05741D01*
X07803Y05738*
X07796Y05732*
X07791Y05725*
X07788Y05717*
X07786Y05708*
X07788Y05699*
X07791Y05691*
X07796Y05684*
X07803Y05679*
X07812Y05675*
X0782Y05674*
X07829Y05675*
X07837Y05679*
X07844Y05684*
X0785Y05691*
X07853Y05699*
X07854Y05708*
X07853Y05717*
X0785Y05725*
X07844Y05732*
X07837Y05738*
X07829Y05741*
X0782Y05742*
G37*
G36*
X06836D02*
X06827Y05741D01*
X06819Y05738*
X06812Y05732*
X06807Y05725*
X06803Y05717*
X06802Y05708*
X06803Y05699*
X06807Y05691*
X06812Y05684*
X06819Y05679*
X06827Y05675*
X06836Y05674*
X06845Y05675*
X06853Y05679*
X0686Y05684*
X06865Y05691*
X06869Y05699*
X0687Y05708*
X06869Y05717*
X06865Y05725*
X0686Y05732*
X06853Y05738*
X06845Y05741*
X06836Y05742*
G37*
G36*
X0782Y05939D02*
X07812Y05938D01*
X07803Y05934*
X07796Y05929*
X07791Y05922*
X07788Y05914*
X07786Y05905*
X07788Y05896*
X07791Y05888*
X07796Y05881*
X07803Y05876*
X07812Y05872*
X0782Y05871*
X07829Y05872*
X07837Y05876*
X07844Y05881*
X07847Y05885*
X07863*
X08356Y05391*
Y05379*
X08356Y05379*
X08347Y05372*
X0834Y05363*
X08336Y05353*
X08335Y05342*
Y05327*
X08336Y05316*
X0834Y05306*
X08345Y053*
X08342Y05295*
X08311*
X08308Y053*
X08313Y05306*
X08317Y05316*
X08319Y05327*
Y05342*
X08317Y05353*
X08313Y05363*
X08306Y05372*
X08298Y05379*
X08288Y05383*
X08277Y05384*
X08266Y05383*
X08256Y05379*
X08247Y05372*
X0824Y05363*
X08236Y05353*
X08235Y05342*
Y05327*
X08236Y05316*
X0824Y05306*
X08245Y053*
X08242Y05295*
X08211*
X08208Y053*
X08213Y05306*
X08217Y05316*
X08219Y05327*
Y05342*
X08217Y05353*
X08213Y05363*
X08206Y05372*
X08198Y05379*
X08188Y05383*
X08177Y05384*
X08166Y05383*
X08156Y05379*
X08147Y05372*
X0814Y05363*
X08136Y05353*
X08135Y05342*
Y05327*
X08136Y05316*
X0814Y05306*
X08145Y053*
X08142Y05295*
X08111*
X08108Y053*
X08113Y05306*
X08117Y05316*
X08119Y05327*
Y05342*
X08117Y05353*
X08113Y05363*
X08106Y05372*
X08098Y05379*
X08088Y05383*
X08077Y05384*
X08066Y05383*
X08056Y05379*
X08047Y05372*
X0804Y05363*
X08036Y05353*
X08035Y05342*
Y05327*
X08036Y05316*
X0804Y05306*
X08045Y053*
X08042Y05295*
X08011*
X08008Y053*
X08013Y05306*
X08017Y05316*
X08019Y05327*
Y05342*
X08017Y05353*
X08013Y05363*
X08006Y05372*
X07998Y05379*
X07988Y05383*
X07977Y05384*
X07966Y05383*
X07956Y05379*
X07947Y05372*
X0794Y05363*
X07936Y05353*
X07935Y05342*
Y05327*
X07936Y05316*
X0794Y05306*
X07945Y053*
X07942Y05295*
X07911*
X07908Y053*
X07913Y05306*
X07917Y05316*
X07919Y05327*
Y05342*
X07917Y05353*
X07913Y05363*
X07906Y05372*
X07898Y05379*
X07888Y05383*
X07877Y05384*
X07866Y05383*
X07856Y05379*
X07847Y05372*
X0784Y05363*
X07836Y05353*
X07835Y05342*
Y05327*
X07836Y05316*
X0784Y05306*
X07845Y053*
X07842Y05295*
X07581*
X07369Y05507*
X0737Y05511*
X07369Y0552*
X07365Y05528*
X0736Y05535*
X07353Y05541*
X07345Y05544*
X07336Y05545*
X07327Y05544*
X07319Y05541*
X07312Y05535*
X07309Y05532*
X07198*
X0719Y0553*
X07184Y05526*
X06897Y05239*
X06892Y05232*
X06891Y05225*
X0689Y05225*
X06882Y05218*
X06875Y0521*
X06871Y052*
X06869Y05189*
Y05173*
X06871Y05162*
X06875Y05152*
X06882Y05144*
X0689Y05137*
X069Y05133*
X06911Y05131*
X06922Y05133*
X06932Y05137*
X06941Y05144*
X06948Y05152*
X06952Y05162*
X06953Y05173*
Y05189*
X06952Y052*
X06948Y0521*
X06941Y05218*
X0694Y05219*
X0694Y05224*
X07207Y05491*
X07309*
X07312Y05487*
X07319Y05482*
X07327Y05479*
X07336Y05477*
X07341Y05478*
X07559Y0526*
X07565Y05256*
X07573Y05254*
X08276*
X08276Y05254*
X08277Y05254*
X09125*
Y05226*
X09208*
Y05324*
X09125*
Y05295*
X08511*
X08508Y053*
X08513Y05306*
X08517Y05316*
X08519Y05327*
Y05342*
X08517Y05353*
X08513Y05363*
X08512Y05364*
X08514Y05369*
X08751*
X08754Y05364*
X08761Y05359*
X0877Y05355*
X08779Y05354*
X08788Y05355*
X08797Y05359*
X08804Y05364*
X0881Y05372*
X08813Y0538*
X08814Y05389*
X08813Y05398*
X0881Y05407*
X08804Y05414*
X08797Y0542*
X08788Y05423*
X08779Y05425*
X0877Y05423*
X08761Y0542*
X08754Y05414*
X08751Y0541*
X08477*
X08469Y05408*
X08462Y05404*
X08458Y05397*
X08456Y05389*
Y05379*
X08456Y05379*
X08447Y05372*
X0844Y05363*
X08436Y05353*
X08435Y05342*
Y05327*
X08436Y05316*
X0844Y05306*
X08445Y053*
X08442Y05295*
X08411*
X08408Y053*
X08413Y05306*
X08417Y05316*
X08419Y05327*
Y05342*
X08417Y05353*
X08413Y05363*
X08406Y05372*
X08398Y05379*
X08397Y05379*
Y054*
X08396Y05407*
X08391Y05414*
X07886Y05919*
X07879Y05924*
X07871Y05925*
X07847*
X07844Y05929*
X07837Y05934*
X07829Y05938*
X0782Y05939*
G37*
G36*
X06133Y05376D02*
X06125Y05375D01*
X06116Y05371*
X06109Y05366*
X06104Y05359*
X06101Y05351*
X06099Y05342*
Y05295*
X06101Y05286*
X06104Y05278*
X06109Y05271*
X06116Y05266*
X06125Y05262*
X06133Y05261*
X06142Y05262*
X0615Y05266*
X06157Y05271*
X06163Y05278*
X06166Y05286*
X06167Y05295*
Y05342*
X06166Y05351*
X06163Y05359*
X06157Y05366*
X0615Y05371*
X06142Y05375*
X06133Y05376*
G37*
G36*
X09466Y05325D02*
X09456Y05323D01*
X09446Y05319*
X09437Y05313*
X0943Y05304*
X09426Y05294*
X09425Y05283*
Y05267*
X09426Y05256*
X0943Y05246*
X09437Y05238*
X09446Y05231*
X09456Y05227*
X09466Y05225*
X09477Y05227*
X09487Y05231*
X09496Y05238*
X09503Y05246*
X09507Y05256*
X09508Y05267*
Y05283*
X09507Y05294*
X09503Y05304*
X09496Y05313*
X09487Y05319*
X09477Y05323*
X09466Y05325*
G37*
G36*
X09366D02*
X09356Y05323D01*
X09346Y05319*
X09337Y05313*
X0933Y05304*
X09326Y05294*
X09325Y05283*
Y05267*
X09326Y05256*
X0933Y05246*
X09337Y05238*
X09346Y05231*
X09356Y05227*
X09366Y05225*
X09377Y05227*
X09387Y05231*
X09396Y05238*
X09403Y05246*
X09407Y05256*
X09408Y05267*
Y05283*
X09407Y05294*
X09403Y05304*
X09396Y05313*
X09387Y05319*
X09377Y05323*
X09366Y05325*
G37*
G36*
X09266D02*
X09256Y05323D01*
X09246Y05319*
X09237Y05313*
X0923Y05304*
X09226Y05294*
X09225Y05283*
Y05267*
X09226Y05256*
X0923Y05246*
X09237Y05238*
X09246Y05231*
X09256Y05227*
X09266Y05225*
X09277Y05227*
X09287Y05231*
X09296Y05238*
X09303Y05246*
X09307Y05256*
X09308Y05267*
Y05283*
X09307Y05294*
X09303Y05304*
X09296Y05313*
X09287Y05319*
X09277Y05323*
X09266Y05325*
G37*
G36*
X07353Y0523D02*
X0727D01*
Y05184*
X07269Y05181*
X0727Y05178*
Y05132*
X07353*
Y05178*
X07353Y05181*
X07353Y05184*
Y0523*
G37*
G36*
X07211Y05231D02*
X072Y05229D01*
X0719Y05225*
X07182Y05218*
X07175Y0521*
X07171Y052*
X07169Y05189*
Y05173*
X07171Y05162*
X07175Y05152*
X07182Y05144*
X0719Y05137*
X072Y05133*
X07211Y05131*
X07222Y05133*
X07232Y05137*
X07241Y05144*
X07248Y05152*
X07252Y05162*
X07253Y05173*
Y05189*
X07252Y052*
X07248Y0521*
X07241Y05218*
X07232Y05225*
X07222Y05229*
X07211Y05231*
G37*
G36*
X07111D02*
X071Y05229D01*
X0709Y05225*
X07082Y05218*
X07075Y0521*
X07071Y052*
X07069Y05189*
Y05173*
X07071Y05162*
X07075Y05152*
X07082Y05144*
X0709Y05137*
X071Y05133*
X07111Y05131*
X07122Y05133*
X07132Y05137*
X07141Y05144*
X07148Y05152*
X07152Y05162*
X07153Y05173*
Y05189*
X07152Y052*
X07148Y0521*
X07141Y05218*
X07132Y05225*
X07122Y05229*
X07111Y05231*
G37*
G36*
X06711D02*
X067Y05229D01*
X0669Y05225*
X06682Y05218*
X06675Y0521*
X06671Y052*
X06669Y05189*
Y05173*
X06671Y05162*
X06675Y05152*
X06682Y05144*
X0669Y05137*
X067Y05133*
X06711Y05131*
X06722Y05133*
X06732Y05137*
X06741Y05144*
X06748Y05152*
X06752Y05162*
X06753Y05173*
Y05189*
X06752Y052*
X06748Y0521*
X06741Y05218*
X06732Y05225*
X06722Y05229*
X06711Y05231*
G37*
G36*
X08477Y05084D02*
X08466Y05083D01*
X08456Y05079*
X08447Y05072*
X0844Y05063*
X08436Y05053*
X08435Y05042*
Y05027*
X08436Y05016*
X0844Y05006*
X08447Y04997*
X08456Y0499*
X08466Y04986*
X08477Y04985*
X08488Y04986*
X08498Y0499*
X08506Y04997*
X08513Y05006*
X08517Y05016*
X08519Y05027*
Y05042*
X08517Y05053*
X08513Y05063*
X08506Y05072*
X08498Y05079*
X08488Y05083*
X08477Y05084*
G37*
G36*
X08377D02*
X08366Y05083D01*
X08356Y05079*
X08347Y05072*
X0834Y05063*
X08336Y05053*
X08335Y05042*
Y05027*
X08336Y05016*
X0834Y05006*
X08347Y04997*
X08356Y0499*
X08366Y04986*
X08377Y04985*
X08388Y04986*
X08398Y0499*
X08406Y04997*
X08413Y05006*
X08417Y05016*
X08419Y05027*
Y05042*
X08417Y05053*
X08413Y05063*
X08406Y05072*
X08398Y05079*
X08388Y05083*
X08377Y05084*
G37*
G36*
X06911Y04931D02*
X069Y04929D01*
X0689Y04925*
X06882Y04918*
X06875Y0491*
X06871Y049*
X06869Y04889*
Y04873*
X06871Y04862*
X06875Y04852*
X06882Y04844*
X0689Y04837*
X069Y04833*
X06911Y04831*
X06922Y04833*
X06932Y04837*
X06941Y04844*
X06948Y04852*
X06952Y04862*
X06953Y04873*
Y04889*
X06952Y049*
X06948Y0491*
X06941Y04918*
X06932Y04925*
X06922Y04929*
X06911Y04931*
G37*
G36*
X06811D02*
X068Y04929D01*
X0679Y04925*
X06782Y04918*
X06775Y0491*
X06771Y049*
X06769Y04889*
Y04873*
X06771Y04862*
X06775Y04852*
X06782Y04844*
X0679Y04837*
X068Y04833*
X06811Y04831*
X06822Y04833*
X06832Y04837*
X06841Y04844*
X06848Y04852*
X06852Y04862*
X06853Y04873*
Y04889*
X06852Y049*
X06848Y0491*
X06841Y04918*
X06832Y04925*
X06822Y04929*
X06811Y04931*
G37*
G36*
X06145Y04905D02*
X06136Y04904D01*
X06128Y04901*
X06121Y04895*
X06116Y04888*
X06112Y0488*
X06111Y04871*
Y04825*
X06112Y04816*
X06116Y04808*
X06121Y04801*
X06128Y04795*
X06136Y04792*
X06145Y04791*
X06154Y04792*
X06162Y04795*
X06169Y04801*
X06175Y04808*
X06178Y04816*
X06179Y04825*
Y04871*
X06178Y0488*
X06175Y04888*
X06169Y04895*
X06162Y04901*
X06154Y04904*
X06145Y04905*
G37*
G36*
X08193Y04616D02*
X08074D01*
Y04595*
X07994*
X07987Y04593*
X0798Y04589*
X07689Y04298*
X07153*
X07145Y04297*
X07138Y04292*
X07071Y04225*
X06825*
X06822Y04228*
X06815Y04234*
X06807Y04237*
X06798Y04238*
X06752*
X06743Y04237*
X06735Y04234*
X06728Y04228*
X06722Y04221*
X06719Y04213*
X06718Y04204*
X06719Y04195*
X06722Y04187*
X06728Y0418*
X06735Y04175*
X06743Y04171*
X06752Y0417*
X06798*
X06807Y04171*
X06815Y04175*
X06822Y0418*
X06825Y04184*
X07079*
X07087Y04185*
X07094Y0419*
X07161Y04257*
X07558*
X0756Y04253*
X07532Y04225*
X07254*
X07252Y04228*
X07245Y04234*
X07236Y04237*
X07228Y04238*
X07181*
X07172Y04237*
X07164Y04234*
X07157Y04228*
X07151Y04221*
X07148Y04213*
X07147Y04204*
X07148Y04195*
X07151Y04187*
X07157Y0418*
X07164Y04175*
X07172Y04171*
X07181Y0417*
X07228*
X07236Y04171*
X07245Y04175*
X07252Y0418*
X07254Y04184*
X0754*
X07548Y04185*
X07555Y0419*
X07576Y04211*
X07581Y04209*
X0758Y04204*
X07581Y04195*
X07585Y04187*
X0759Y0418*
X07597Y04175*
X07605Y04171*
X07614Y0417*
X07661*
X07669Y04171*
X07678Y04175*
X07685Y0418*
X07687Y04184*
X07824*
X07832Y04185*
X07839Y0419*
X08006Y04357*
X08079*
X08079Y04357*
X08086Y04348*
X08095Y04341*
X08105Y04337*
X08116Y04336*
X08151*
X08162Y04337*
X08172Y04341*
X08181Y04348*
X08187Y04357*
X08192Y04367*
X08193Y04377*
X08192Y04388*
X08187Y04398*
X08181Y04407*
X08172Y04414*
X08162Y04418*
X08151Y04419*
X08116*
X08105Y04418*
X08095Y04414*
X08086Y04407*
X08079Y04398*
X08079Y04398*
X07997*
X0799Y04396*
X07983Y04392*
X07816Y04225*
X07777*
X07777Y04225*
X07777Y0423*
X07782Y04233*
X08004Y04455*
X08079*
X08079Y04455*
X08086Y04446*
X08095Y0444*
X08105Y04435*
X08116Y04434*
X08151*
X08162Y04435*
X08172Y0444*
X08181Y04446*
X08187Y04455*
X08192Y04465*
X08193Y04476*
X08192Y04487*
X08187Y04497*
X08181Y04505*
X08172Y04512*
X08162Y04516*
X08151Y04518*
X08116*
X08105Y04516*
X08095Y04512*
X08086Y04505*
X08079Y04497*
X08079Y04496*
X07996*
X07988Y04495*
X07981Y0449*
X07759Y04268*
X07724*
X07722Y04273*
X08003Y04554*
X08074*
Y04533*
X08193*
Y04616*
G37*
G36*
X0632Y046D02*
X06309Y04598D01*
X06299Y04594*
X06291Y04588*
X06285Y0458*
X06281Y0457*
X06279Y0456*
X0628Y04549*
X05905Y04174*
X05901Y04167*
X05899Y0416*
Y01641*
X05901Y01633*
X05905Y01627*
X05924Y01608*
X05923Y01602*
X05924Y01593*
X05928Y01584*
X05933Y01577*
X05941Y01571*
X05949Y01568*
X05958Y01567*
X05967Y01568*
X05976Y01571*
X05983Y01577*
X05989Y01584*
X05992Y01593*
X05993Y01602*
X05992Y01611*
X05989Y0162*
X05983Y01627*
X05976Y01632*
X05967Y01636*
X05958Y01637*
X05953Y01636*
X0594Y01649*
Y04151*
X06309Y0452*
X0632Y04519*
X0633Y04521*
X0634Y04525*
X06348Y04531*
X06354Y04539*
X06358Y04549*
X0636Y0456*
X06358Y0457*
X06354Y0458*
X06348Y04588*
X0634Y04594*
X0633Y04598*
X0632Y046*
G37*
G36*
X09133Y04595D02*
X09123Y04593D01*
X09112Y04589*
X09104Y04582*
X09097Y04574*
X09093Y04563*
X09091Y04553*
X09093Y04542*
X09097Y04532*
X09104Y04523*
X09112Y04516*
X09123Y04512*
X09133Y04511*
X09144Y04512*
X09154Y04516*
X09163Y04523*
X0917Y04532*
X09174Y04542*
X09175Y04553*
X09174Y04563*
X0917Y04574*
X09163Y04582*
X09154Y04589*
X09144Y04593*
X09133Y04595*
G37*
G36*
X06145Y0461D02*
X06136Y04609D01*
X06128Y04605*
X06121Y046*
X06116Y04593*
X06112Y04585*
X06111Y04576*
Y04529*
X06112Y04521*
X06116Y04512*
X06121Y04505*
X06128Y045*
X06136Y04497*
X06145Y04495*
X06154Y04497*
X06162Y045*
X06169Y04505*
X06175Y04512*
X06178Y04521*
X06179Y04529*
Y04576*
X06178Y04585*
X06175Y04593*
X06169Y046*
X06162Y04605*
X06154Y04609*
X06145Y0461*
G37*
G36*
X08151Y04124D02*
X08116D01*
X08105Y04123*
X08095Y04118*
X08086Y04112*
X08079Y04103*
X08075Y04093*
X08074Y04082*
X08075Y04071*
X08079Y04061*
X08086Y04053*
X08095Y04046*
X08105Y04042*
X08116Y0404*
X08151*
X08162Y04042*
X08172Y04046*
X08181Y04053*
X08187Y04061*
X08192Y04071*
X08193Y04082*
X08192Y04093*
X08187Y04103*
X08181Y04112*
X08172Y04118*
X08162Y04123*
X08151Y04124*
G37*
G36*
X06145Y04104D02*
X06136Y04103D01*
X06128Y04099*
X06121Y04094*
X06116Y04087*
X06112Y04079*
X06111Y0407*
Y04023*
X06112Y04015*
X06116Y04006*
X06121Y03999*
X06128Y03994*
X06136Y03991*
X06145Y03989*
X06154Y03991*
X06162Y03994*
X06169Y03999*
X06175Y04006*
X06178Y04015*
X06179Y04023*
Y0407*
X06178Y04079*
X06175Y04087*
X06169Y04094*
X06162Y04099*
X06154Y04103*
X06145Y04104*
G37*
G36*
X08064Y0376D02*
X08054Y03759D01*
X08046Y03755*
X08039Y0375*
X08035Y03745*
X07687*
X07685Y03749*
X07678Y03754*
X07669Y03757*
X07661Y03759*
X07614*
X07605Y03757*
X07597Y03754*
X0759Y03749*
X07585Y03742*
X07581Y03733*
X0758Y03725*
X07581Y03716*
X07585Y03708*
X0759Y03701*
X07597Y03695*
X07605Y03692*
X07614Y03691*
X07661*
X07669Y03692*
X07678Y03695*
X07685Y03701*
X07687Y03704*
X08035*
X08039Y037*
X08046Y03694*
X08054Y03691*
X08064Y03689*
X08073Y03691*
X08081Y03694*
X08088Y037*
X08094Y03707*
X08098Y03716*
X08099Y03725*
X08098Y03734*
X08094Y03742*
X08088Y0375*
X08081Y03755*
X08073Y03759*
X08064Y0376*
G37*
G36*
X08983Y03806D02*
X08972Y03805D01*
X08962Y03801*
X08953Y03794*
X08947Y03785*
X08942Y03775*
X08941Y03764*
X08942Y03753*
X08947Y03743*
X08953Y03735*
X08962Y03728*
X08972Y03724*
X08983Y03722*
X08994Y03724*
X09004Y03728*
X09012Y03735*
X09019Y03743*
X09023Y03753*
X09025Y03764*
X09023Y03775*
X09019Y03785*
X09012Y03794*
X09004Y03801*
X08994Y03805*
X08983Y03806*
G37*
G36*
X06145Y03809D02*
X06136Y03808D01*
X06128Y03804*
X06121Y03799*
X06116Y03792*
X06112Y03784*
X06111Y03775*
Y03728*
X06112Y03719*
X06116Y03711*
X06121Y03704*
X06128Y03699*
X06136Y03695*
X06145Y03694*
X06154Y03695*
X06162Y03699*
X06169Y03704*
X06175Y03711*
X06178Y03719*
X06179Y03728*
Y03775*
X06178Y03784*
X06175Y03792*
X06169Y03799*
X06162Y03804*
X06154Y03808*
X06145Y03809*
G37*
G36*
X07228Y03759D02*
X07181D01*
X07172Y03757*
X07164Y03754*
X07157Y03749*
X07151Y03742*
X07148Y03733*
X07147Y03725*
X07148Y03716*
X07151Y03708*
X07157Y03701*
X07164Y03695*
X07172Y03692*
X07181Y03691*
X07228*
X07236Y03692*
X07245Y03695*
X07252Y03701*
X07257Y03708*
X0726Y03716*
X07262Y03725*
X0726Y03733*
X07257Y03742*
X07252Y03749*
X07245Y03754*
X07236Y03757*
X07228Y03759*
G37*
G36*
X08592Y03482D02*
X08557D01*
X08546Y03481*
X08536Y03477*
X08527Y0347*
X0852Y03461*
X08516Y03451*
X08515Y0344*
X08516Y0343*
X0852Y0342*
X08527Y03411*
X08536Y03404*
X08546Y034*
X08557Y03399*
X08592*
X08603Y034*
X08613Y03404*
X08622Y03411*
X08628Y0342*
X08632Y0343*
X08634Y0344*
X08632Y03451*
X08628Y03461*
X08622Y0347*
X08613Y03477*
X08603Y03481*
X08592Y03482*
G37*
G36*
X07627Y03439D02*
X07617Y03438D01*
X07609Y03434*
X07602Y03428*
X07596Y03421*
X07592Y03413*
X07591Y03404*
X07592Y03394*
X07596Y03386*
X07602Y03379*
X07609Y03373*
X07617Y03369*
X07627Y03368*
X07636Y03369*
X07644Y03373*
X07651Y03379*
X07652Y03379*
X07652Y03379*
X07654Y03376*
X07655Y03374*
X07652Y03366*
X07651Y03358*
Y03311*
X07652Y03302*
X07655Y03294*
X07661Y03287*
X07668Y03281*
X07676Y03278*
X07685Y03277*
X07693Y03278*
X07702Y03281*
X07709Y03287*
X07714Y03294*
X07717Y03302*
X07718Y03311*
Y03358*
X07717Y03366*
X07714Y03374*
X07711Y03378*
X07714Y03383*
X0839*
X08445Y03328*
X08452Y03323*
X0846Y03322*
X0852*
X0852Y03321*
X08527Y03312*
X08536Y03306*
X08546Y03302*
X08557Y033*
X08592*
X08603Y03302*
X08613Y03306*
X08622Y03312*
X08628Y03321*
X08632Y03331*
X08634Y03342*
X08632Y03353*
X08628Y03363*
X08622Y03372*
X08613Y03378*
X08603Y03382*
X08592Y03384*
X08557*
X08546Y03382*
X08536Y03378*
X08527Y03372*
X0852Y03363*
X0852Y03362*
X08468*
X08412Y03418*
X08406Y03422*
X08398Y03424*
X07655*
X07651Y03428*
X07644Y03434*
X07636Y03438*
X07627Y03439*
G37*
G36*
X06145Y03409D02*
X06136Y03408D01*
X06128Y03405*
X06121Y03399*
X06116Y03392*
X06112Y03384*
X06111Y03375*
Y03328*
X06112Y0332*
X06116Y03312*
X06121Y03305*
X06128Y03299*
X06136Y03296*
X06145Y03295*
X06154Y03296*
X06162Y03299*
X06169Y03305*
X06175Y03312*
X06178Y0332*
X06179Y03328*
Y03375*
X06178Y03384*
X06175Y03392*
X06169Y03399*
X06162Y03405*
X06154Y03408*
X06145Y03409*
G37*
G36*
X08592Y03187D02*
X08557D01*
X08546Y03186*
X08536Y03181*
X08527Y03175*
X0852Y03166*
X08516Y03156*
X08515Y03145*
X08516Y03134*
X0852Y03124*
X08527Y03116*
X08536Y03109*
X08546Y03105*
X08557Y03103*
X08592*
X08603Y03105*
X08613Y03109*
X08622Y03116*
X08628Y03124*
X08632Y03134*
X08634Y03145*
X08632Y03156*
X08628Y03166*
X08622Y03175*
X08613Y03181*
X08603Y03186*
X08592Y03187*
G37*
G36*
X08634Y03088D02*
X08515D01*
Y03005*
X08634*
Y03088*
G37*
G36*
X06145Y03114D02*
X06136Y03113D01*
X06128Y03109*
X06121Y03104*
X06116Y03097*
X06112Y03089*
X06111Y0308*
Y03033*
X06112Y03024*
X06116Y03016*
X06121Y03009*
X06128Y03004*
X06136Y03*
X06145Y02999*
X06154Y03*
X06162Y03004*
X06169Y03009*
X06175Y03016*
X06178Y03024*
X06179Y03033*
Y0308*
X06178Y03089*
X06175Y03097*
X06169Y03104*
X06162Y03109*
X06154Y03113*
X06145Y03114*
G37*
G36*
X06917Y03098D02*
X06908Y03097D01*
X069Y03094*
X06893Y03088*
X06887Y03081*
X06884Y03073*
X06883Y03064*
Y03017*
X06884Y03009*
X06887Y03001*
X06893Y02993*
X069Y02988*
X06908Y02985*
X06917Y02984*
X06926Y02985*
X06934Y02988*
X06941Y02993*
X06946Y03001*
X0695Y03009*
X06951Y03017*
Y03064*
X0695Y03073*
X06946Y03081*
X06941Y03088*
X06934Y03094*
X06926Y03097*
X06917Y03098*
G37*
G36*
X09448Y02429D02*
X09437Y02428D01*
X09427Y02424*
X09419Y02417*
X09412Y02408*
X09408Y02398*
X09406Y02387*
X09408Y02376*
X09412Y02366*
X09419Y02358*
X09427Y02351*
X09437Y02347*
X09448Y02345*
X09459Y02347*
X09469Y02351*
X09478Y02358*
X09485Y02366*
X09489Y02376*
X0949Y02387*
X09489Y02398*
X09485Y02408*
X09478Y02417*
X09469Y02424*
X09459Y02428*
X09448Y02429*
G37*
G36*
X09133D02*
X09123Y02428D01*
X09112Y02424*
X09104Y02417*
X09097Y02408*
X09093Y02398*
X09091Y02387*
X09093Y02376*
X09097Y02366*
X09104Y02358*
X09112Y02351*
X09123Y02347*
X09133Y02345*
X09144Y02347*
X09154Y02351*
X09163Y02358*
X0917Y02366*
X09174Y02376*
X09175Y02387*
X09174Y02398*
X0917Y02408*
X09163Y02417*
X09154Y02424*
X09144Y02428*
X09133Y02429*
G37*
G36*
X06909Y02315D02*
X069Y02314D01*
X06892Y0231*
X06885Y02305*
X0688Y02298*
X06876Y0229*
X06875Y02281*
Y02234*
X06876Y02225*
X0688Y02217*
X06885Y0221*
X06892Y02205*
X069Y02201*
X06909Y022*
X06918Y02201*
X06926Y02205*
X06933Y0221*
X06938Y02217*
X06942Y02225*
X06943Y02234*
Y02281*
X06942Y0229*
X06938Y02298*
X06933Y02305*
X06926Y0231*
X06918Y02314*
X06909Y02315*
G37*
G36*
X07696Y02305D02*
X07688Y02304D01*
X07679Y023*
X07672Y02295*
X07667Y02288*
X07664Y0228*
X07662Y02271*
Y02224*
X07664Y02215*
X07667Y02207*
X07672Y022*
X07679Y02195*
X07688Y02191*
X07696Y0219*
X07705Y02191*
X07713Y02195*
X0772Y022*
X07726Y02207*
X07729Y02215*
X0773Y02224*
Y02271*
X07729Y0228*
X07726Y02288*
X0772Y02295*
X07713Y023*
X07705Y02304*
X07696Y02305*
G37*
G36*
X06015Y01514D02*
X06004Y01512D01*
X05994Y01508*
X05986Y01502*
X05979Y01493*
X05975Y01483*
X05973Y01472*
X05975Y01461*
X05979Y01451*
X05986Y01442*
X05994Y01436*
X06004Y01432*
X06015Y0143*
X06026Y01432*
X06036Y01436*
X06045Y01442*
X06051Y01451*
X06056Y01461*
X06057Y01472*
X06056Y01483*
X06051Y01493*
X06045Y01502*
X06036Y01508*
X06026Y01512*
X06015Y01514*
G37*
G36*
X09133Y01366D02*
X09123Y01365D01*
X09112Y01361*
X09104Y01354*
X09097Y01345*
X09093Y01335*
X09091Y01324*
X09093Y01313*
X09097Y01303*
X09104Y01295*
X09112Y01288*
X09123Y01284*
X09133Y01282*
X09144Y01284*
X09154Y01288*
X09163Y01295*
X0917Y01303*
X09174Y01313*
X09175Y01324*
X09174Y01335*
X0917Y01345*
X09163Y01354*
X09154Y01361*
X09144Y01365*
X09133Y01366*
G37*
G36*
X07768Y01314D02*
X07757Y01313D01*
X07747Y01308*
X07739Y01302*
X07732Y01293*
X07728Y01283*
X07726Y01272*
X07728Y01261*
X07732Y01251*
X07739Y01243*
X07747Y01236*
X07757Y01232*
X07768Y0123*
X07779Y01232*
X07789Y01236*
X07798Y01243*
X07804Y01251*
X07809Y01261*
X0781Y01272*
X07809Y01283*
X07804Y01293*
X07798Y01302*
X07789Y01308*
X07779Y01313*
X07768Y01314*
G37*
G36*
X06709D02*
X06698Y01313D01*
X06688Y01308*
X0668Y01302*
X06673Y01293*
X06669Y01283*
X06667Y01272*
X06669Y01261*
X06673Y01251*
X0668Y01243*
X06688Y01236*
X06698Y01232*
X06709Y0123*
X0672Y01232*
X0673Y01236*
X06739Y01243*
X06745Y01251*
X06746Y01252*
X0686*
X06865Y01248*
X06872Y01247*
X06995*
X06995Y01246*
X07001Y01238*
X0701Y01231*
X0702Y01227*
X07031Y01225*
X07042Y01227*
X07052Y01231*
X07061Y01238*
X07067Y01246*
X07071Y01256*
X07073Y01267*
X07071Y01278*
X07067Y01288*
X07061Y01297*
X07052Y01303*
X07042Y01308*
X07031Y01309*
X0702Y01308*
X0701Y01303*
X07001Y01297*
X06995Y01288*
X06995Y01288*
X0688*
X06875Y01291*
X06868Y01293*
X06746*
X06745Y01293*
X06739Y01302*
X0673Y01308*
X0672Y01313*
X06709Y01314*
G37*
G36*
X08102Y01305D02*
X08091Y01304D01*
X08081Y013*
X08072Y01293*
X08066Y01284*
X08061Y01274*
X0806Y01263*
X08061Y01252*
X08066Y01242*
X08072Y01234*
X08081Y01227*
X08091Y01223*
X08102Y01221*
X08113Y01223*
X08123Y01227*
X08131Y01234*
X08138Y01242*
X08142Y01252*
X08144Y01263*
X08142Y01274*
X08138Y01284*
X08131Y01293*
X08123Y013*
X08113Y01304*
X08102Y01305*
G37*
G36*
X08622Y01057D02*
X08607Y01056D01*
X08593Y01052*
X08581Y01045*
X0857Y01036*
X08561Y01025*
X08554Y01012*
X0855Y00998*
X08548Y00984*
X0855Y00969*
X08554Y00956*
X08561Y00943*
X0857Y00932*
X08581Y00923*
X08593Y00916*
X08607Y00912*
X08622Y0091*
X08636Y00912*
X0865Y00916*
X08662Y00923*
X08673Y00932*
X08683Y00943*
X08689Y00956*
X08693Y00969*
X08695Y00984*
X08693Y00998*
X08689Y01012*
X08683Y01025*
X08673Y01036*
X08662Y01045*
X0865Y01052*
X08636Y01056*
X08622Y01057*
G37*
G36*
X05708D02*
X05694Y01056D01*
X0568Y01052*
X05667Y01045*
X05656Y01036*
X05647Y01025*
X0564Y01012*
X05636Y00998*
X05635Y00984*
X05636Y00969*
X0564Y00956*
X05647Y00943*
X05656Y00932*
X05667Y00923*
X0568Y00916*
X05694Y00912*
X05708Y0091*
X05722Y00912*
X05736Y00916*
X05749Y00923*
X0576Y00932*
X05769Y00943*
X05776Y00956*
X0578Y00969*
X05782Y00984*
X0578Y00998*
X05776Y01012*
X05769Y01025*
X0576Y01036*
X05749Y01045*
X05736Y01052*
X05722Y01056*
X05708Y01057*
G37*
G36*
X06377Y01004D02*
X06367Y01003D01*
X06357Y00998*
X06348Y00992*
X06341Y00983*
X06337Y00973*
X06336Y00962*
Y00927*
X06337Y00916*
X06341Y00906*
X06348Y00897*
X06357Y0089*
X06367Y00886*
X06377Y00885*
X06388Y00886*
X06398Y0089*
X06407Y00897*
X06414Y00906*
X06418Y00916*
X06419Y00927*
Y00962*
X06418Y00973*
X06414Y00983*
X06407Y00992*
X06398Y00998*
X06388Y01003*
X06377Y01004*
G37*
%LNfuncgen-3*%
%LPD*%
G36*
X076Y03893D02*
X07597Y03892D01*
X0759Y03886*
X07587Y03883*
X07375*
X07374Y03888*
X07374Y03888*
X07381Y03894*
X07385Y03898*
X07599*
X076Y03893*
G37*
G36*
X06134Y02354D02*
X06139Y02348D01*
X06465Y02021*
Y01481*
X06467Y01473*
X06471Y01466*
X06535Y01402*
X06535Y01402*
X06534Y01397*
X0624*
X06129Y01508*
Y02198*
X06134Y022*
X06136Y02199*
X06144Y02195*
X06153Y02194*
X06162Y02195*
X0617Y02199*
X06177Y02204*
X06182Y02211*
X06186Y02219*
X06187Y02228*
Y02275*
X06186Y02284*
X06182Y02292*
X06177Y02299*
X0617Y02304*
X06162Y02308*
X06153Y02309*
X06144Y02308*
X06136Y02304*
X06134Y02303*
X06129Y02305*
Y02355*
X06134Y02356*
X06134Y02354*
G37*
G54D29*
X05958Y01602D02*
Y01602D01*
X0592Y01641D02*
X05958Y01602D01*
X0592Y01641D02*
Y0416D01*
X0632Y0456*
Y0484D02*
X06577D01*
X06811Y05074*
X06924Y04127D02*
X07847D01*
X07999Y04279D02*
X08133D01*
X07847Y04127D02*
X07999Y04279D01*
X07637Y04204D02*
X07824D01*
X07997Y04377*
X08133*
X07584Y04248D02*
X07768D01*
X07996Y04476D02*
X08133D01*
X07768Y04248D02*
X07996Y04476D01*
X07153Y04278D02*
X07698D01*
X07994Y04574*
X08133*
X06725Y044D02*
X0688D01*
X07211Y04731D02*
Y04881D01*
X0688Y044D02*
X07211Y04731D01*
X0686Y0478D02*
X07018D01*
X07078Y0484*
X07111Y04873D02*
Y04881D01*
X07078Y0484D02*
X07111Y04873D01*
X06636Y04676D02*
X06756D01*
X0686Y0478*
X06711Y04751D02*
Y04881D01*
X06636Y04676D02*
X06711Y04751D01*
X06164Y04676D02*
X06636D01*
X06035Y04804D02*
X06164Y04676D01*
X06035Y04804D02*
Y05694D01*
X06836Y06496*
X07948Y05189D02*
X08696D01*
X08867Y04385D02*
Y05018D01*
X08696Y05189D02*
X08867Y05018D01*
X0782Y06692D02*
X07907Y06606D01*
X087D02*
X09719Y05588D01*
X07907Y06606D02*
X087D01*
X08433Y072D02*
X08968Y06665D01*
X06933Y072D02*
X08433D01*
X09131Y07303D02*
X09228Y07206D01*
X06972Y07303D02*
X09131D01*
X06885Y0739D02*
X06972Y07303D01*
X06869Y07409D02*
Y07428D01*
Y07409D02*
X06885Y07393D01*
Y0739D02*
Y07393D01*
X06484Y072D02*
X06933D01*
X06769Y07364D02*
Y07428D01*
Y07364D02*
X06933Y072D01*
X06374Y07311D02*
X06484Y072D01*
X06374Y07311D02*
Y07424D01*
X06369Y07428D02*
X06374Y07424D01*
X07562Y0709D02*
X07763Y06889D01*
X06228Y07169D02*
X06307Y0709D01*
X07562*
X06228Y07169D02*
Y07452D01*
X06276Y075*
X06397*
X06469Y07428*
X06974Y08062D02*
X07011Y08099D01*
X06236Y081D02*
X06273Y08062D01*
X06974*
X06496Y08299D02*
X07051D01*
X06433Y08236D02*
X06496Y08299D01*
X07051D02*
X07094Y08256D01*
X06433Y08165D02*
Y08236D01*
X07094Y08204D02*
X0711Y08188D01*
X07094Y08204D02*
Y08256D01*
X08565Y05149D02*
X08671Y05042D01*
X0805Y05149D02*
X08565D01*
X08477Y05389D02*
X08779D01*
X08477Y05335D02*
Y05389D01*
X06992Y06397D02*
X0709D01*
X07218Y0627*
Y0614D02*
Y0627D01*
X06133Y05445D02*
X06523Y05055D01*
X06708*
X08277Y05276D02*
Y05335D01*
Y05275D02*
Y05276D01*
Y05275D02*
X09166D01*
X06784Y03313D02*
X06917D01*
X07414Y0618D02*
X08738D01*
X07336Y06102D02*
X07414Y0618D01*
X06811Y05074D02*
Y05181D01*
Y05366*
X06792Y05386D02*
X06811Y05366D01*
X06792Y05386D02*
Y05564D01*
X07133Y05905*
X07336*
X08213Y05099D02*
X08277Y05035D01*
X08141Y05099D02*
X08213D01*
X08077Y05035D02*
X08141Y05099D01*
X06911Y05181D02*
Y05225D01*
X07198Y05511*
X07336*
X09356Y01417D02*
X09448Y01324D01*
X0655Y01417D02*
X09356D01*
X06486Y01481D02*
X0655Y01417D01*
X06486Y01481D02*
Y0203D01*
X06153Y02362D02*
X06486Y0203D01*
X06153Y02362D02*
Y02547D01*
X07033Y05708D02*
X07336D01*
X06836Y05511D02*
X07033Y05708D01*
X07336Y06496D02*
X0738Y0654D01*
X08276*
X0832Y06496*
X07696Y02393D02*
Y02543D01*
Y02393D02*
X082Y01889D01*
Y01468D02*
Y01889D01*
X07627Y03404D02*
X08398D01*
X0846Y03342*
X08574*
X08377Y05335D02*
Y054D01*
X07871Y05905D02*
X08377Y054D01*
X0782Y05905D02*
X07871D01*
X06917Y03313D02*
Y03336D01*
X06109Y02638D02*
X06784Y03313D01*
X06109Y015D02*
Y02638D01*
Y015D02*
X06232Y01377D01*
X08191*
X083Y01268*
X07685Y0278D02*
Y03039D01*
X0661Y01705D02*
X07685Y0278D01*
X0661Y01472D02*
Y01705D01*
X06186Y01267D02*
X06511D01*
X05932Y01014D02*
X06186Y01267D01*
X05932Y00875D02*
Y01014D01*
Y00875D02*
X06279D01*
Y00944*
X07172Y03156D02*
X07185Y03169D01*
X07645*
X08983Y0183*
Y01599D02*
Y0183D01*
X07637Y03863D02*
X08253D01*
X08479Y03637*
X08574*
X06704Y03907D02*
X06924Y04127D01*
X06704Y03742D02*
Y03907D01*
Y03742D02*
X06771Y03725D01*
X09257Y04553D02*
X09448D01*
X08983Y04827D02*
X09257Y04553D01*
X07763Y06889D02*
X0782D01*
X0566Y06338D02*
X06064Y06742D01*
X08271*
X0832Y06692*
X09566Y05275D02*
Y05519D01*
X09027Y06058D02*
X09566Y05519D01*
X073Y06058D02*
X09027D01*
X07218Y0614D02*
X073Y06058D01*
X08983Y04827D02*
X09439D01*
X09719Y05107*
Y05588*
X06574Y00884D02*
Y00944D01*
X065Y0081D02*
X06574Y00884D01*
X05938Y0081D02*
X065D01*
X05902Y00845D02*
X05938Y0081D01*
X05902Y00845D02*
Y01044D01*
X05917Y01058*
Y01267*
X06476Y00944D02*
Y01007D01*
X06595Y01126*
X0755*
X07623Y01199*
Y013*
X07586Y01337D02*
X07623Y013D01*
X07293Y01337D02*
X07586D01*
X07229Y01272D02*
X07293Y01337D01*
X07637Y03725D02*
X08064D01*
X06909Y02553D02*
Y02631D01*
X07402Y03124*
X08028Y04181D02*
X08133D01*
X07766Y03919D02*
X08028Y04181D01*
X07357Y03919D02*
X07766D01*
X06674Y04349D02*
X06725Y044D01*
X06674Y0369D02*
Y04349D01*
Y0369D02*
X07163Y03201D01*
X0771*
X081Y02812*
X08833*
X08983Y02662*
X08133Y03984D02*
X085D01*
X08645Y03839*
Y03539D02*
Y03839D01*
X08574Y03539D02*
X08645D01*
X08574Y03244D02*
X09557D01*
X09561Y03248*
Y03691*
X08867Y04385D02*
X09561Y03691D01*
X07877Y05118D02*
X07948Y05189D01*
X07877Y05035D02*
Y05118D01*
X07977Y05035D02*
Y05076D01*
X0805Y05149*
X06133Y05445D02*
Y05614D01*
X07204Y04204D02*
X0754D01*
X07584Y04248*
X06775Y04204D02*
X07079D01*
X07153Y04278*
X06836Y06299D02*
X07132Y06003D01*
X08223*
X0832Y05905*
X06181Y00944D02*
Y01068D01*
X063Y01187*
X0749*
X0757Y01267*
X08276Y05275D02*
X08277Y05276D01*
X07573Y05275D02*
X08276D01*
X07336Y05511D02*
X07573Y05275D01*
X09166D02*
Y05275D01*
X07011Y08099D02*
Y08188D01*
X06236Y081D02*
Y08165D01*
X06872Y01267D02*
X07031D01*
X06868Y01272D02*
X06872Y01267D01*
X06709Y01272D02*
X06868D01*
X07204Y04342D02*
X07637D01*
X0699D02*
X07204D01*
X0699D02*
D01*
X06775D02*
X0699D01*
X07204Y03863D02*
X07637D01*
X06771D02*
X07204D01*
G54D30*
X08248Y04874D02*
X09515Y03606D01*
X08177Y04944D02*
X08248Y04874D01*
X07677D02*
X08248D01*
X07079Y05032D02*
X07519D01*
X07677Y04874*
X08177Y04944D02*
Y05023D01*
X09515Y0345D02*
Y03606D01*
X05732Y07606D02*
Y07818D01*
X05771Y07857D02*
X05837D01*
X05732Y07818D02*
X05771Y07857D01*
X05732Y07606D02*
X05775Y07562D01*
X0664*
X06669Y07428D02*
Y07533D01*
X0664Y07562D02*
X06669Y07533D01*
X05837Y07857D02*
X05846Y07866D01*
Y07669D02*
X05866D01*
X05887Y07648D02*
X06642D01*
X05866Y07669D02*
X05887Y07648D01*
X09133Y0349D02*
X09224Y034D01*
X09465*
X09515Y0345*
X07011Y04881D02*
Y04925D01*
X07042Y04956*
X0741*
X07626Y0474*
X08198*
X09448Y0349*
X07011Y051D02*
Y05181D01*
Y051D02*
X07079Y05032D01*
X06642Y07648D02*
X06669Y07675D01*
Y07728*
G54D31*
X0632Y0456D03*
Y0484D03*
X09228Y07206D03*
X09229Y07107D03*
X05842Y08169D03*
X05708Y00984D03*
X09618Y08196D03*
X08622Y00984D03*
G54D32*
X06133Y05614D03*
Y05318D03*
X06145Y04047D03*
Y03751D03*
X06133Y06082D03*
Y06377D03*
X06145Y03057D03*
Y03352D03*
Y04848D03*
Y04553D03*
X06153Y02251D03*
Y02547D03*
X06917Y03041D03*
Y03336D03*
X07696Y02248D03*
Y02543D03*
X06909Y02257D03*
Y02553D03*
X07685Y03039D03*
Y03334D03*
G54D33*
X05917Y01267D03*
X06115Y01272D03*
X06015Y01472D03*
X0661D03*
X06709Y01272D03*
X06511Y01267D03*
X07129Y01472D03*
X07229Y01272D03*
X07031Y01267D03*
X07669Y01472D03*
X07768Y01272D03*
X0757Y01267D03*
X082Y01468D03*
X083Y01268D03*
X08102Y01263D03*
X08983Y01599D03*
X09133Y01324D03*
X09448D03*
X08983Y02662D03*
X09133Y02387D03*
X09448D03*
X08983Y04827D03*
X09133Y04553D03*
X09448D03*
X08983Y03764D03*
X09133Y0349D03*
X09448D03*
G54D34*
X06369Y07428D03*
X07311Y05181D03*
X07877Y05035D03*
X09166Y05275D03*
G54D35*
X06469Y07428D03*
X06569D03*
X06669D03*
X06769D03*
X06869D03*
X06969D03*
X06369Y07728D03*
X06469D03*
X06569D03*
X06669D03*
X06769D03*
X06869D03*
X06969D03*
X06711Y04881D03*
X06811D03*
X06911D03*
X07011D03*
X07111D03*
X07211D03*
X07311D03*
X06711Y05181D03*
X06811D03*
X06911D03*
X07011D03*
X07111D03*
X07211D03*
X08477Y05335D03*
X08377D03*
X08277D03*
X08177D03*
X08077D03*
X07977D03*
X07877D03*
X08477Y05035D03*
X08377D03*
X08277D03*
X08177D03*
X08077D03*
X07977D03*
X09666Y05275D03*
X09566D03*
X09466D03*
X09366D03*
X09266D03*
G54D36*
X05846Y07866D03*
G54D37*
X05846Y07767D03*
Y07669D03*
G54D38*
X09429Y07303D03*
Y06905D03*
G54D39*
X06913Y08188D03*
X07011D03*
X06236Y08165D03*
X06334D03*
X06248Y06877D03*
X06346D03*
X06444D03*
X06543D03*
X06641D03*
X0674D03*
X06476Y00944D03*
X06377D03*
X06279D03*
X06181D03*
X06082D03*
X05984D03*
G54D40*
X0711Y08188D03*
X06433Y08165D03*
X06149Y06877D03*
X06574Y00944D03*
G54D41*
X08133Y04574D03*
X08574Y03047D03*
G54D42*
X08133Y04476D03*
Y04377D03*
Y04279D03*
Y04181D03*
Y04082D03*
Y03984D03*
X08574Y03145D03*
Y03244D03*
Y03342D03*
Y0344D03*
Y03539D03*
Y03637D03*
G54D43*
X07204Y04342D03*
Y04204D03*
X06775Y04342D03*
Y04204D03*
X07637Y04342D03*
Y04204D03*
X06771Y03863D03*
Y03725D03*
X07204Y03863D03*
Y03725D03*
X07637Y03863D03*
Y03725D03*
G54D44*
X07336Y05511D03*
X06836D03*
X07336Y05708D03*
X06836D03*
Y05905D03*
X07336D03*
Y06102D03*
X06836D03*
X0832Y06496D03*
X0782D03*
Y06299D03*
X0832D03*
X06836Y06496D03*
X07336D03*
X0832Y06102D03*
X0782D03*
Y05905D03*
X0832D03*
Y05708D03*
X0782D03*
X07336Y06299D03*
X06836D03*
X0832Y06889D03*
X0782D03*
X0832Y06692D03*
X0782D03*
G54D45*
X08968Y06665D03*
X08677Y05039D03*
X08779Y05389D03*
X06992Y06397D03*
X06708Y05055D03*
X05958Y01602D03*
X08738Y0618D03*
X07627Y03404D03*
X07172Y03156D03*
X0566Y06338D03*
X08064Y03725D03*
X07402Y03124D03*
X07357Y03919D03*
M02*