%FSTAX23Y23*%
%MOIN*%
%SFA1B1*%

%IPPOS*%
%ADD10C,0.010000*%
%ADD11C,0.007870*%
%ADD12C,0.019680*%
%ADD13C,0.007000*%
%LNfuncgen-1*%
%LPD*%
G54D10*
X0638Y05466D02*
X0638Y05476D01*
X06379Y05486*
X06378Y05496*
X06377Y05506*
X06375Y05516*
X06373Y05525*
X0637Y05535*
X06367Y05545*
X06364Y05554*
X0636Y05563*
X06356Y05572*
X06351Y05581*
X06346Y0559*
X06341Y05599*
X06336Y05607*
X0633Y05615*
X06324Y05623*
X06317Y0563*
X0631Y05638*
X06303Y05645*
X06296Y05651*
X06288Y05658*
X0628Y05664*
X06272Y0567*
X06264Y05675*
X06255Y0568*
X06246Y05685*
X06237Y0569*
X06228Y05694*
X06219Y05697*
X0621Y05701*
X062Y05703*
X0619Y05706*
X06181Y05708*
X06171Y0571*
X06161Y05711*
X06151Y05712*
X06141Y05712*
X06131Y05713*
X06121Y05712*
X06111Y05712*
X06101Y0571*
X06091Y05709*
X06081Y05707*
X06072Y05705*
X06062Y05702*
X06052Y05699*
X06043Y05695*
X06034Y05692*
X06025Y05687*
X06016Y05683*
X06007Y05678*
X05999Y05673*
X0599Y05667*
X05982Y05661*
X05975Y05655*
X05967Y05648*
X0596Y05641*
X05953Y05634*
X05946Y05627*
X0594Y05619*
X05934Y05611*
X05928Y05603*
X05923Y05594*
X05918Y05586*
X05913Y05577*
X05909Y05568*
X05905Y05559*
X05901Y05549*
X05898Y0554*
X05895Y0553*
X05893Y05521*
X05891Y05511*
X05889Y05501*
X05888Y05491*
X05887Y05481*
X05887Y05471*
Y05461*
X05887Y05451*
X05888Y05441*
X05889Y05431*
X05891Y05421*
X05893Y05412*
X05895Y05402*
X05898Y05392*
X05901Y05383*
X05905Y05373*
X05909Y05364*
X05913Y05355*
X05918Y05346*
X05923Y05338*
X05928Y05329*
X05934Y05321*
X0594Y05313*
X05946Y05305*
X05953Y05298*
X0596Y05291*
X05967Y05284*
X05975Y05277*
X05982Y05271*
X0599Y05265*
X05999Y0526*
X06007Y05254*
X06016Y05249*
X06025Y05245*
X06034Y0524*
X06043Y05237*
X06052Y05233*
X06062Y0523*
X06072Y05227*
X06081Y05225*
X06091Y05223*
X06101Y05222*
X06111Y05221*
X06121Y0522*
X06131Y0522*
X06141Y0522*
X06151Y0522*
X06161Y05221*
X06171Y05222*
X06181Y05224*
X0619Y05226*
X062Y05229*
X0621Y05232*
X06219Y05235*
X06228Y05239*
X06237Y05243*
X06246Y05247*
X06255Y05252*
X06264Y05257*
X06272Y05262*
X0628Y05268*
X06288Y05274*
X06296Y05281*
X06303Y05287*
X0631Y05294*
X06317Y05302*
X06324Y05309*
X0633Y05317*
X06336Y05325*
X06341Y05334*
X06346Y05342*
X06351Y05351*
X06356Y0536*
X0636Y05369*
X06364Y05378*
X06367Y05387*
X0637Y05397*
X06373Y05407*
X06375Y05416*
X06377Y05426*
X06378Y05436*
X06379Y05446*
X0638Y05456*
X0638Y05466*
X06392Y03899D02*
X06392Y03909D01*
X06391Y03919*
X0639Y03929*
X06388Y03939*
X06387Y03949*
X06384Y03958*
X06382Y03968*
X06379Y03978*
X06375Y03987*
X06372Y03996*
X06368Y04005*
X06363Y04014*
X06358Y04023*
X06353Y04032*
X06348Y0404*
X06342Y04048*
X06335Y04056*
X06329Y04063*
X06322Y04071*
X06315Y04078*
X06308Y04085*
X063Y04091*
X06292Y04097*
X06284Y04103*
X06276Y04108*
X06267Y04113*
X06258Y04118*
X06249Y04123*
X0624Y04127*
X06231Y0413*
X06221Y04134*
X06212Y04136*
X06202Y04139*
X06192Y04141*
X06183Y04143*
X06173Y04144*
X06163Y04145*
X06153Y04146*
X06143Y04146*
X06133Y04145*
X06123Y04145*
X06113Y04144*
X06103Y04142*
X06093Y0414*
X06083Y04138*
X06074Y04135*
X06064Y04132*
X06055Y04129*
X06046Y04125*
X06037Y0412*
X06028Y04116*
X06019Y04111*
X06011Y04106*
X06002Y041*
X05994Y04094*
X05986Y04088*
X05979Y04081*
X05972Y04074*
X05965Y04067*
X05958Y0406*
X05952Y04052*
X05946Y04044*
X0594Y04036*
X05935Y04027*
X0593Y04019*
X05925Y0401*
X05921Y04001*
X05917Y03992*
X05913Y03982*
X0591Y03973*
X05907Y03963*
X05905Y03954*
X05903Y03944*
X05901Y03934*
X059Y03924*
X05899Y03914*
X05899Y03904*
Y03894*
X05899Y03884*
X059Y03874*
X05901Y03864*
X05903Y03854*
X05905Y03845*
X05907Y03835*
X0591Y03825*
X05913Y03816*
X05917Y03806*
X05921Y03797*
X05925Y03788*
X0593Y03779*
X05935Y03771*
X0594Y03762*
X05946Y03754*
X05952Y03746*
X05958Y03739*
X05965Y03731*
X05972Y03724*
X05979Y03717*
X05986Y0371*
X05994Y03704*
X06002Y03698*
X06011Y03693*
X06019Y03687*
X06028Y03682*
X06037Y03678*
X06046Y03674*
X06055Y0367*
X06064Y03666*
X06074Y03663*
X06083Y0366*
X06093Y03658*
X06103Y03656*
X06113Y03655*
X06123Y03654*
X06133Y03653*
X06143Y03653*
X06153Y03653*
X06163Y03653*
X06173Y03654*
X06183Y03655*
X06192Y03657*
X06202Y03659*
X06212Y03662*
X06221Y03665*
X06231Y03668*
X0624Y03672*
X06249Y03676*
X06258Y0368*
X06267Y03685*
X06276Y0369*
X06284Y03695*
X06292Y03701*
X063Y03707*
X06308Y03714*
X06315Y0372*
X06322Y03727*
X06329Y03735*
X06335Y03742*
X06342Y0375*
X06348Y03758*
X06353Y03767*
X06358Y03775*
X06363Y03784*
X06368Y03793*
X06372Y03802*
X06375Y03811*
X06379Y03821*
X06382Y0383*
X06384Y0384*
X06387Y03849*
X06388Y03859*
X0639Y03869*
X06391Y03879*
X06392Y03889*
X06392Y03899*
X0638Y0623D02*
X0638Y0624D01*
X06379Y0625*
X06378Y0626*
X06377Y0627*
X06375Y06279*
X06373Y06289*
X0637Y06299*
X06367Y06308*
X06364Y06318*
X0636Y06327*
X06356Y06336*
X06351Y06345*
X06346Y06354*
X06341Y06362*
X06336Y06371*
X0633Y06379*
X06324Y06387*
X06317Y06394*
X0631Y06401*
X06303Y06409*
X06296Y06415*
X06288Y06422*
X0628Y06428*
X06272Y06434*
X06264Y06439*
X06255Y06444*
X06246Y06449*
X06237Y06453*
X06228Y06457*
X06219Y06461*
X0621Y06464*
X062Y06467*
X0619Y0647*
X06181Y06472*
X06171Y06474*
X06161Y06475*
X06151Y06476*
X06141Y06476*
X06131Y06476*
X06121Y06476*
X06111Y06475*
X06101Y06474*
X06091Y06473*
X06081Y06471*
X06072Y06468*
X06062Y06466*
X06052Y06463*
X06043Y06459*
X06034Y06455*
X06025Y06451*
X06016Y06447*
X06007Y06442*
X05999Y06436*
X0599Y06431*
X05982Y06425*
X05975Y06418*
X05967Y06412*
X0596Y06405*
X05953Y06398*
X05946Y0639*
X0594Y06383*
X05934Y06375*
X05928Y06367*
X05923Y06358*
X05918Y06349*
X05913Y06341*
X05909Y06332*
X05905Y06322*
X05901Y06313*
X05898Y06304*
X05895Y06294*
X05893Y06284*
X05891Y06275*
X05889Y06265*
X05888Y06255*
X05887Y06245*
X05887Y06235*
Y06225*
X05887Y06215*
X05888Y06205*
X05889Y06195*
X05891Y06185*
X05893Y06175*
X05895Y06166*
X05898Y06156*
X05901Y06147*
X05905Y06137*
X05909Y06128*
X05913Y06119*
X05918Y0611*
X05923Y06102*
X05928Y06093*
X05934Y06085*
X0594Y06077*
X05946Y06069*
X05953Y06062*
X0596Y06055*
X05967Y06048*
X05975Y06041*
X05982Y06035*
X0599Y06029*
X05999Y06023*
X06007Y06018*
X06016Y06013*
X06025Y06008*
X06034Y06004*
X06043Y06*
X06052Y05997*
X06062Y05994*
X06072Y05991*
X06081Y05989*
X06091Y05987*
X06101Y05985*
X06111Y05984*
X06121Y05984*
X06131Y05983*
X06141Y05983*
X06151Y05984*
X06161Y05985*
X06171Y05986*
X06181Y05988*
X0619Y0599*
X062Y05992*
X0621Y05995*
X06219Y05999*
X06228Y06002*
X06237Y06006*
X06246Y06011*
X06255Y06015*
X06264Y06021*
X06272Y06026*
X0628Y06032*
X06288Y06038*
X06296Y06044*
X06303Y06051*
X0631Y06058*
X06317Y06065*
X06324Y06073*
X0633Y06081*
X06336Y06089*
X06341Y06097*
X06346Y06106*
X06351Y06115*
X06356Y06123*
X0636Y06133*
X06364Y06142*
X06367Y06151*
X0637Y06161*
X06373Y0617*
X06375Y0618*
X06377Y0619*
X06378Y062*
X06379Y0621*
X0638Y0622*
X0638Y0623*
X06392Y03204D02*
X06392Y03214D01*
X06391Y03224*
X0639Y03234*
X06388Y03244*
X06387Y03254*
X06384Y03264*
X06382Y03273*
X06379Y03283*
X06375Y03292*
X06372Y03301*
X06368Y03311*
X06363Y03319*
X06358Y03328*
X06353Y03337*
X06348Y03345*
X06342Y03353*
X06335Y03361*
X06329Y03369*
X06322Y03376*
X06315Y03383*
X06308Y0339*
X063Y03396*
X06292Y03402*
X06284Y03408*
X06276Y03413*
X06267Y03419*
X06258Y03423*
X06249Y03428*
X0624Y03432*
X06231Y03435*
X06221Y03439*
X06212Y03442*
X06202Y03444*
X06192Y03446*
X06183Y03448*
X06173Y03449*
X06163Y0345*
X06153Y03451*
X06143Y03451*
X06133Y0345*
X06123Y0345*
X06113Y03449*
X06103Y03447*
X06093Y03445*
X06083Y03443*
X06074Y0344*
X06064Y03437*
X06055Y03434*
X06046Y0343*
X06037Y03426*
X06028Y03421*
X06019Y03416*
X06011Y03411*
X06002Y03405*
X05994Y03399*
X05986Y03393*
X05979Y03386*
X05972Y03379*
X05965Y03372*
X05958Y03365*
X05952Y03357*
X05946Y03349*
X0594Y03341*
X05935Y03333*
X0593Y03324*
X05925Y03315*
X05921Y03306*
X05917Y03297*
X05913Y03288*
X0591Y03278*
X05907Y03268*
X05905Y03259*
X05903Y03249*
X05901Y03239*
X059Y03229*
X05899Y03219*
X05899Y03209*
Y03199*
X05899Y03189*
X059Y03179*
X05901Y03169*
X05903Y0316*
X05905Y0315*
X05907Y0314*
X0591Y0313*
X05913Y03121*
X05917Y03112*
X05921Y03102*
X05925Y03093*
X0593Y03085*
X05935Y03076*
X0594Y03068*
X05946Y03059*
X05952Y03051*
X05958Y03044*
X05965Y03036*
X05972Y03029*
X05979Y03022*
X05986Y03016*
X05994Y03009*
X06002Y03003*
X06011Y02998*
X06019Y02992*
X06028Y02987*
X06037Y02983*
X06046Y02979*
X06055Y02975*
X06064Y02971*
X06074Y02968*
X06083Y02966*
X06093Y02963*
X06103Y02961*
X06113Y0296*
X06123Y02959*
X06133Y02958*
X06143Y02958*
X06153Y02958*
X06163Y02958*
X06173Y02959*
X06183Y02961*
X06192Y02962*
X06202Y02964*
X06212Y02967*
X06221Y0297*
X06231Y02973*
X0624Y02977*
X06249Y02981*
X06258Y02985*
X06267Y0299*
X06276Y02995*
X06284Y03*
X06292Y03006*
X063Y03012*
X06308Y03019*
X06315Y03026*
X06322Y03033*
X06329Y0304*
X06335Y03047*
X06342Y03055*
X06348Y03063*
X06353Y03072*
X06358Y0308*
X06363Y03089*
X06368Y03098*
X06372Y03107*
X06375Y03116*
X06379Y03126*
X06382Y03135*
X06384Y03145*
X06387Y03155*
X06388Y03164*
X0639Y03174*
X06391Y03184*
X06392Y03194*
X06392Y03204*
Y047D02*
X06392Y0471D01*
X06391Y0472*
X0639Y0473*
X06388Y0474*
X06387Y0475*
X06384Y0476*
X06382Y04769*
X06379Y04779*
X06375Y04788*
X06372Y04798*
X06368Y04807*
X06363Y04816*
X06358Y04824*
X06353Y04833*
X06348Y04841*
X06342Y04849*
X06335Y04857*
X06329Y04865*
X06322Y04872*
X06315Y04879*
X06308Y04886*
X063Y04892*
X06292Y04898*
X06284Y04904*
X06276Y0491*
X06267Y04915*
X06258Y04919*
X06249Y04924*
X0624Y04928*
X06231Y04931*
X06221Y04935*
X06212Y04938*
X06202Y0494*
X06192Y04942*
X06183Y04944*
X06173Y04945*
X06163Y04946*
X06153Y04947*
X06143Y04947*
X06133Y04947*
X06123Y04946*
X06113Y04945*
X06103Y04943*
X06093Y04941*
X06083Y04939*
X06074Y04936*
X06064Y04933*
X06055Y0493*
X06046Y04926*
X06037Y04922*
X06028Y04917*
X06019Y04912*
X06011Y04907*
X06002Y04901*
X05994Y04895*
X05986Y04889*
X05979Y04882*
X05972Y04876*
X05965Y04868*
X05958Y04861*
X05952Y04853*
X05946Y04845*
X0594Y04837*
X05935Y04829*
X0593Y0482*
X05925Y04811*
X05921Y04802*
X05917Y04793*
X05913Y04784*
X0591Y04774*
X05907Y04765*
X05905Y04755*
X05903Y04745*
X05901Y04735*
X059Y04725*
X05899Y04715*
X05899Y04705*
Y04695*
X05899Y04685*
X059Y04675*
X05901Y04665*
X05903Y04656*
X05905Y04646*
X05907Y04636*
X0591Y04626*
X05913Y04617*
X05917Y04608*
X05921Y04598*
X05925Y04589*
X0593Y04581*
X05935Y04572*
X0594Y04564*
X05946Y04555*
X05952Y04547*
X05958Y0454*
X05965Y04532*
X05972Y04525*
X05979Y04518*
X05986Y04512*
X05994Y04505*
X06002Y04499*
X06011Y04494*
X06019Y04488*
X06028Y04484*
X06037Y04479*
X06046Y04475*
X06055Y04471*
X06064Y04467*
X06074Y04464*
X06083Y04462*
X06093Y04459*
X06103Y04457*
X06113Y04456*
X06123Y04455*
X06133Y04454*
X06143Y04454*
X06153Y04454*
X06163Y04454*
X06173Y04455*
X06183Y04457*
X06192Y04458*
X06202Y0446*
X06212Y04463*
X06221Y04466*
X06231Y04469*
X0624Y04473*
X06249Y04477*
X06258Y04481*
X06267Y04486*
X06276Y04491*
X06284Y04497*
X06292Y04502*
X063Y04508*
X06308Y04515*
X06315Y04522*
X06322Y04529*
X06329Y04536*
X06335Y04544*
X06342Y04551*
X06348Y04559*
X06353Y04568*
X06358Y04576*
X06363Y04585*
X06368Y04594*
X06372Y04603*
X06375Y04612*
X06379Y04622*
X06382Y04631*
X06384Y04641*
X06387Y04651*
X06388Y0466*
X0639Y0467*
X06391Y0468*
X06392Y0469*
X06392Y047*
X064Y02399D02*
X06399Y02409D01*
X06399Y02419*
X06398Y02429*
X06396Y02439*
X06395Y02449*
X06392Y02458*
X0639Y02468*
X06387Y02478*
X06383Y02487*
X0638Y02496*
X06375Y02505*
X06371Y02514*
X06366Y02523*
X06361Y02532*
X06355Y0254*
X0635Y02548*
X06343Y02556*
X06337Y02563*
X0633Y02571*
X06323Y02578*
X06316Y02585*
X06308Y02591*
X063Y02597*
X06292Y02603*
X06283Y02608*
X06275Y02613*
X06266Y02618*
X06257Y02623*
X06248Y02627*
X06239Y0263*
X06229Y02634*
X0622Y02636*
X0621Y02639*
X062Y02641*
X0619Y02643*
X0618Y02644*
X06171Y02645*
X06161Y02646*
X06151Y02646*
X06141Y02645*
X06131Y02645*
X06121Y02644*
X06111Y02642*
X06101Y0264*
X06091Y02638*
X06082Y02635*
X06072Y02632*
X06063Y02629*
X06054Y02625*
X06044Y0262*
X06036Y02616*
X06027Y02611*
X06018Y02606*
X0601Y026*
X06002Y02594*
X05994Y02588*
X05987Y02581*
X0598Y02574*
X05973Y02567*
X05966Y0256*
X0596Y02552*
X05954Y02544*
X05948Y02536*
X05943Y02527*
X05937Y02519*
X05933Y0251*
X05929Y02501*
X05925Y02492*
X05921Y02482*
X05918Y02473*
X05915Y02463*
X05913Y02454*
X05911Y02444*
X05909Y02434*
X05908Y02424*
X05907Y02414*
X05907Y02404*
Y02394*
X05907Y02384*
X05908Y02374*
X05909Y02364*
X05911Y02354*
X05913Y02345*
X05915Y02335*
X05918Y02325*
X05921Y02316*
X05925Y02306*
X05929Y02297*
X05933Y02288*
X05937Y02279*
X05943Y02271*
X05948Y02262*
X05954Y02254*
X0596Y02246*
X05966Y02239*
X05973Y02231*
X0598Y02224*
X05987Y02217*
X05994Y0221*
X06002Y02204*
X0601Y02198*
X06018Y02193*
X06027Y02187*
X06036Y02182*
X06044Y02178*
X06054Y02174*
X06063Y0217*
X06072Y02166*
X06082Y02163*
X06091Y0216*
X06101Y02158*
X06111Y02156*
X06121Y02155*
X06131Y02154*
X06141Y02153*
X06151Y02153*
X06161Y02153*
X06171Y02153*
X0618Y02154*
X0619Y02155*
X062Y02157*
X0621Y02159*
X0622Y02162*
X06229Y02165*
X06239Y02168*
X06248Y02172*
X06257Y02176*
X06266Y0218*
X06275Y02185*
X06283Y0219*
X06292Y02195*
X063Y02201*
X06308Y02207*
X06316Y02214*
X06323Y0222*
X0633Y02227*
X06337Y02235*
X06343Y02242*
X0635Y0225*
X06355Y02258*
X06361Y02267*
X06366Y02275*
X06371Y02284*
X06375Y02293*
X0638Y02302*
X06383Y02311*
X06387Y02321*
X0639Y0233*
X06392Y0234*
X06395Y02349*
X06396Y02359*
X06398Y02369*
X06399Y02379*
X06399Y02389*
X064Y02399*
X07163Y03188D02*
X07163Y03198D01*
X07163Y03208*
X07162Y03218*
X0716Y03228*
X07158Y03238*
X07156Y03248*
X07153Y03257*
X0715Y03267*
X07147Y03276*
X07143Y03286*
X07139Y03295*
X07135Y03304*
X0713Y03312*
X07125Y03321*
X07119Y03329*
X07113Y03337*
X07107Y03345*
X07101Y03353*
X07094Y0336*
X07087Y03367*
X07079Y03374*
X07072Y0338*
X07064Y03386*
X07056Y03392*
X07047Y03398*
X07039Y03403*
X0703Y03408*
X07021Y03412*
X07012Y03416*
X07002Y0342*
X06993Y03423*
X06983Y03426*
X06974Y03428*
X06964Y0343*
X06954Y03432*
X06944Y03433*
X06934Y03434*
X06924Y03435*
X06914Y03435*
X06904Y03435*
X06894Y03434*
X06884Y03433*
X06875Y03431*
X06865Y03429*
X06855Y03427*
X06845Y03424*
X06836Y03421*
X06827Y03418*
X06817Y03414*
X06808Y0341*
X06799Y03405*
X06791Y034*
X06782Y03395*
X06774Y03389*
X06766Y03383*
X06758Y03377*
X06751Y03371*
X06743Y03364*
X06736Y03357*
X0673Y03349*
X06723Y03341*
X06717Y03333*
X06712Y03325*
X06706Y03317*
X06701Y03308*
X06697Y03299*
X06692Y0329*
X06688Y03281*
X06685Y03272*
X06682Y03262*
X06679Y03253*
X06676Y03243*
X06674Y03233*
X06673Y03223*
X06672Y03213*
X06671Y03203*
X0667Y03193*
Y03183*
X06671Y03173*
X06672Y03164*
X06673Y03154*
X06674Y03144*
X06676Y03134*
X06679Y03124*
X06682Y03115*
X06685Y03105*
X06688Y03096*
X06692Y03087*
X06697Y03078*
X06701Y03069*
X06706Y0306*
X06712Y03052*
X06717Y03044*
X06723Y03036*
X0673Y03028*
X06736Y0302*
X06743Y03013*
X06751Y03006*
X06758Y03*
X06766Y02994*
X06774Y02988*
X06782Y02982*
X06791Y02977*
X06799Y02972*
X06808Y02967*
X06817Y02963*
X06827Y02959*
X06836Y02956*
X06845Y02953*
X06855Y0295*
X06865Y02948*
X06875Y02946*
X06884Y02944*
X06894Y02943*
X06904Y02942*
X06914Y02942*
X06924Y02942*
X06934Y02943*
X06944Y02943*
X06954Y02945*
X06964Y02947*
X06974Y02949*
X06983Y02951*
X06993Y02954*
X07002Y02957*
X07012Y02961*
X07021Y02965*
X0703Y02969*
X07039Y02974*
X07047Y02979*
X07056Y02985*
X07064Y02991*
X07072Y02997*
X07079Y03003*
X07087Y0301*
X07094Y03017*
X07101Y03024*
X07107Y03032*
X07113Y0304*
X07119Y03048*
X07125Y03056*
X0713Y03064*
X07135Y03073*
X07139Y03082*
X07143Y03091*
X07147Y03101*
X0715Y0311*
X07153Y03119*
X07156Y03129*
X07158Y03139*
X0716Y03149*
X07162Y03159*
X07163Y03169*
X07163Y03178*
X07163Y03188*
X07943Y02395D02*
X07943Y02405D01*
X07942Y02415*
X07941Y02425*
X0794Y02435*
X07938Y02445*
X07936Y02455*
X07933Y02464*
X0793Y02474*
X07927Y02483*
X07923Y02492*
X07919Y02501*
X07914Y0251*
X07909Y02519*
X07904Y02528*
X07899Y02536*
X07893Y02544*
X07887Y02552*
X0788Y0256*
X07873Y02567*
X07866Y02574*
X07859Y02581*
X07851Y02587*
X07843Y02593*
X07835Y02599*
X07827Y02604*
X07818Y0261*
X07809Y02614*
X078Y02619*
X07791Y02623*
X07782Y02626*
X07773Y0263*
X07763Y02633*
X07753Y02635*
X07744Y02637*
X07734Y02639*
X07724Y0264*
X07714Y02641*
X07704Y02642*
X07694Y02642*
X07684Y02641*
X07674Y02641*
X07664Y0264*
X07654Y02638*
X07644Y02636*
X07635Y02634*
X07625Y02631*
X07615Y02628*
X07606Y02625*
X07597Y02621*
X07588Y02617*
X07579Y02612*
X0757Y02607*
X07562Y02602*
X07553Y02596*
X07545Y0259*
X07538Y02584*
X0753Y02577*
X07523Y0257*
X07516Y02563*
X07509Y02556*
X07503Y02548*
X07497Y0254*
X07491Y02532*
X07486Y02523*
X07481Y02515*
X07476Y02506*
X07472Y02497*
X07468Y02488*
X07464Y02478*
X07461Y02469*
X07458Y02459*
X07456Y0245*
X07454Y0244*
X07452Y0243*
X07451Y0242*
X0745Y0241*
X0745Y024*
Y0239*
X0745Y0238*
X07451Y0237*
X07452Y0236*
X07454Y0235*
X07456Y02341*
X07458Y02331*
X07461Y02321*
X07464Y02312*
X07468Y02303*
X07472Y02293*
X07476Y02284*
X07481Y02276*
X07486Y02267*
X07491Y02258*
X07497Y0225*
X07503Y02242*
X07509Y02235*
X07516Y02227*
X07523Y0222*
X0753Y02213*
X07538Y02206*
X07545Y022*
X07553Y02194*
X07562Y02189*
X0757Y02183*
X07579Y02178*
X07588Y02174*
X07597Y0217*
X07606Y02166*
X07615Y02162*
X07625Y02159*
X07635Y02157*
X07644Y02154*
X07654Y02152*
X07664Y02151*
X07674Y0215*
X07684Y02149*
X07694Y02149*
X07704Y02149*
X07714Y02149*
X07724Y0215*
X07734Y02151*
X07744Y02153*
X07753Y02155*
X07763Y02158*
X07773Y02161*
X07782Y02164*
X07791Y02168*
X078Y02172*
X07809Y02176*
X07818Y02181*
X07827Y02186*
X07835Y02191*
X07843Y02197*
X07851Y02203*
X07859Y0221*
X07866Y02216*
X07873Y02224*
X0788Y02231*
X07887Y02238*
X07893Y02246*
X07899Y02254*
X07904Y02263*
X07909Y02271*
X07914Y0228*
X07919Y02289*
X07923Y02298*
X07927Y02307*
X0793Y02317*
X07933Y02326*
X07936Y02336*
X07938Y02346*
X0794Y02355*
X07941Y02365*
X07942Y02375*
X07943Y02385*
X07943Y02395*
X07155Y02405D02*
X07155Y02415D01*
X07155Y02425*
X07154Y02435*
X07152Y02445*
X0715Y02455*
X07148Y02464*
X07146Y02474*
X07143Y02484*
X07139Y02493*
X07135Y02502*
X07131Y02511*
X07127Y0252*
X07122Y02529*
X07117Y02538*
X07111Y02546*
X07105Y02554*
X07099Y02562*
X07093Y02569*
X07086Y02577*
X07079Y02584*
X07071Y0259*
X07064Y02597*
X07056Y02603*
X07048Y02609*
X07039Y02614*
X07031Y02619*
X07022Y02624*
X07013Y02629*
X07004Y02633*
X06995Y02636*
X06985Y02639*
X06976Y02642*
X06966Y02645*
X06956Y02647*
X06946Y02649*
X06936Y0265*
X06926Y02651*
X06916Y02651*
X06906Y02652*
X06896Y02651*
X06886Y02651*
X06877Y02649*
X06867Y02648*
X06857Y02646*
X06847Y02644*
X06838Y02641*
X06828Y02638*
X06819Y02634*
X06809Y02631*
X068Y02626*
X06791Y02622*
X06783Y02617*
X06774Y02612*
X06766Y02606*
X06758Y026*
X0675Y02594*
X06743Y02587*
X06736Y0258*
X06729Y02573*
X06722Y02566*
X06716Y02558*
X06709Y0255*
X06704Y02542*
X06698Y02533*
X06693Y02525*
X06689Y02516*
X06684Y02507*
X0668Y02498*
X06677Y02488*
X06674Y02479*
X06671Y02469*
X06669Y0246*
X06666Y0245*
X06665Y0244*
X06664Y0243*
X06663Y0242*
X06662Y0241*
Y024*
X06663Y0239*
X06664Y0238*
X06665Y0237*
X06666Y0236*
X06669Y02351*
X06671Y02341*
X06674Y02331*
X06677Y02322*
X0668Y02312*
X06684Y02303*
X06689Y02294*
X06693Y02285*
X06698Y02277*
X06704Y02268*
X06709Y0226*
X06716Y02252*
X06722Y02244*
X06729Y02237*
X06736Y0223*
X06743Y02223*
X0675Y02216*
X06758Y0221*
X06766Y02204*
X06774Y02198*
X06783Y02193*
X06791Y02188*
X068Y02184*
X06809Y02179*
X06819Y02176*
X06828Y02172*
X06838Y02169*
X06847Y02166*
X06857Y02164*
X06867Y02162*
X06877Y02161*
X06886Y0216*
X06896Y02159*
X06906Y02158*
X06916Y02159*
X06926Y02159*
X06936Y0216*
X06946Y02161*
X06956Y02163*
X06966Y02165*
X06976Y02168*
X06985Y02171*
X06995Y02174*
X07004Y02177*
X07013Y02182*
X07022Y02186*
X07031Y02191*
X07039Y02196*
X07048Y02201*
X07056Y02207*
X07064Y02213*
X07071Y0222*
X07079Y02226*
X07086Y02233*
X07093Y02241*
X07099Y02248*
X07105Y02256*
X07111Y02264*
X07117Y02272*
X07122Y02281*
X07127Y0229*
X07131Y02299*
X07135Y02308*
X07139Y02317*
X07143Y02326*
X07146Y02336*
X07148Y02346*
X0715Y02355*
X07152Y02365*
X07154Y02375*
X07155Y02385*
X07155Y02395*
X07155Y02405*
X07931Y03187D02*
X07931Y03197D01*
X0793Y03206*
X07929Y03216*
X07928Y03226*
X07926Y03236*
X07924Y03246*
X07921Y03256*
X07918Y03265*
X07915Y03274*
X07911Y03284*
X07907Y03293*
X07902Y03302*
X07898Y03311*
X07892Y03319*
X07887Y03327*
X07881Y03335*
X07875Y03343*
X07868Y03351*
X07862Y03358*
X07854Y03365*
X07847Y03372*
X07839Y03378*
X07831Y03384*
X07823Y0339*
X07815Y03396*
X07806Y03401*
X07798Y03406*
X07789Y0341*
X07779Y03414*
X0777Y03418*
X07761Y03421*
X07751Y03424*
X07741Y03426*
X07732Y03428*
X07722Y0343*
X07712Y03432*
X07702Y03432*
X07692Y03433*
X07682Y03433*
X07672Y03433*
X07662Y03432*
X07652Y03431*
X07642Y03429*
X07632Y03427*
X07623Y03425*
X07613Y03422*
X07604Y03419*
X07594Y03416*
X07585Y03412*
X07576Y03408*
X07567Y03403*
X07558Y03398*
X0755Y03393*
X07542Y03387*
X07534Y03381*
X07526Y03375*
X07518Y03369*
X07511Y03362*
X07504Y03355*
X07497Y03347*
X07491Y03339*
X07485Y03331*
X07479Y03323*
X07474Y03315*
X07469Y03306*
X07464Y03297*
X0746Y03288*
X07456Y03279*
X07453Y0327*
X07449Y0326*
X07447Y03251*
X07444Y03241*
X07442Y03231*
X0744Y03221*
X07439Y03211*
X07438Y03201*
X07438Y03192*
Y03182*
X07438Y03172*
X07439Y03162*
X0744Y03152*
X07442Y03142*
X07444Y03132*
X07447Y03122*
X07449Y03113*
X07453Y03103*
X07456Y03094*
X0746Y03085*
X07464Y03076*
X07469Y03067*
X07474Y03058*
X07479Y0305*
X07485Y03042*
X07491Y03034*
X07497Y03026*
X07504Y03018*
X07511Y03011*
X07518Y03004*
X07526Y02998*
X07534Y02992*
X07542Y02986*
X0755Y0298*
X07558Y02975*
X07567Y0297*
X07576Y02965*
X07585Y02961*
X07594Y02957*
X07604Y02954*
X07613Y02951*
X07623Y02948*
X07632Y02946*
X07642Y02944*
X07652Y02942*
X07662Y02941*
X07672Y0294*
X07682Y0294*
X07692Y0294*
X07702Y02941*
X07712Y02942*
X07722Y02943*
X07732Y02945*
X07741Y02947*
X07751Y02949*
X07761Y02952*
X0777Y02955*
X07779Y02959*
X07789Y02963*
X07798Y02967*
X07806Y02972*
X07815Y02977*
X07823Y02983*
X07831Y02989*
X07839Y02995*
X07847Y03001*
X07854Y03008*
X07862Y03015*
X07868Y03022*
X07875Y0303*
X07881Y03038*
X07887Y03046*
X07892Y03054*
X07898Y03063*
X07902Y03071*
X07907Y0308*
X07911Y03089*
X07915Y03099*
X07918Y03108*
X07921Y03117*
X07924Y03127*
X07926Y03137*
X07928Y03147*
X07929Y03157*
X0793Y03167*
X07931Y03177*
X07931Y03187*
X08984Y05188D02*
Y05168D01*
Y05178*
X09034*
X09044Y05168*
Y05158*
X09034Y05148*
X09044Y05238D02*
X08984D01*
X09014Y05208*
Y05248*
X08824Y03102D02*
X08864D01*
X08884Y03122*
X08864Y03142*
X08824*
X08884Y03162D02*
X08824D01*
Y03192*
X08834Y03202*
X08854*
X08864Y03192*
Y03162*
Y03182D02*
X08884Y03202D01*
Y03262D02*
Y03222D01*
X08844Y03262*
X08834*
X08824Y03252*
Y03232*
X08834Y03222*
X08824Y04165D02*
X08864D01*
X08884Y04185*
X08864Y04205*
X08824*
X08884Y04225D02*
X08824D01*
Y04255*
X08834Y04265*
X08854*
X08864Y04255*
Y04225*
Y04245D02*
X08884Y04265D01*
Y04285D02*
Y04305D01*
Y04295*
X08824*
X08834Y04285*
X06695Y0807D02*
X06745D01*
X06755Y0808*
Y081*
X06745Y0811*
X06695*
X06705Y0813D02*
X06695Y0814D01*
Y0816*
X06705Y0817*
X06715*
X06725Y0816*
Y0815*
Y0816*
X06735Y0817*
X06745*
X06755Y0816*
Y0814*
X06745Y0813*
X05999Y08047D02*
X06049D01*
X06059Y08057*
Y08077*
X06049Y08087*
X05999*
X06059Y08107D02*
Y08127D01*
Y08117*
X05999*
X06009Y08107*
X06187Y07395D02*
X06237D01*
X06247Y07405*
Y07425*
X06237Y07435*
X06187*
X06247Y07495D02*
Y07455D01*
X06207Y07495*
X06197*
X06187Y07485*
Y07465*
X06197Y07455*
X0846Y06649D02*
X084D01*
Y06679*
X0841Y06689*
X0843*
X0844Y06679*
Y06649*
Y06669D02*
X0846Y06689D01*
Y06749D02*
Y06709D01*
X0842Y06749*
X0841*
X084Y06739*
Y06719*
X0841Y06709*
X07704Y0683D02*
X07644D01*
Y0686*
X07654Y0687*
X07674*
X07684Y0686*
Y0683*
Y0685D02*
X07704Y0687D01*
Y0689D02*
Y0691D01*
Y069*
X07644*
X07654Y0689*
X09114Y07556D02*
X09094D01*
X09104*
Y07506*
X09094Y07496*
X09084*
X09074Y07506*
X09174Y07496D02*
X09134D01*
X09174Y07536*
Y07546*
X09164Y07556*
X09144*
X09134Y07546*
X06768Y01035D02*
Y01055D01*
Y01045*
X06718*
X06708Y01055*
Y01065*
X06718Y01075*
X06768Y00975D02*
Y01015D01*
X06738*
X06748Y00995*
Y00985*
X06738Y00975*
X06718*
X06708Y00985*
Y01005*
X06718Y01015*
X08665Y02853D02*
X08685D01*
X08675*
Y02903*
X08685Y02913*
X08695*
X08705Y02903*
X08645Y02863D02*
X08635Y02853D01*
X08615*
X08605Y02863*
Y02873*
X08615Y02883*
X08625*
X08615*
X08605Y02893*
Y02903*
X08615Y02913*
X08635*
X08645Y02903*
X08043Y04768D02*
X08023D01*
X08033*
Y04718*
X08023Y04708*
X08013*
X08003Y04718*
X08063Y04708D02*
X08083D01*
X08073*
Y04768*
X08063Y04758*
X07406Y03681D02*
X07396Y03671D01*
Y03651*
X07406Y03641*
X07446*
X07456Y03651*
Y03671*
X07446Y03681*
X07396Y03741D02*
X07406Y03721D01*
X07426Y03701*
X07446*
X07456Y03711*
Y03731*
X07446Y03741*
X07436*
X07426Y03731*
Y03701*
X06973Y03681D02*
X06963Y03671D01*
Y03651*
X06973Y03641*
X07013*
X07023Y03651*
Y03671*
X07013Y03681*
X06963Y03741D02*
Y03701D01*
X06993*
X06983Y03721*
Y03731*
X06993Y03741*
X07013*
X07023Y03731*
Y03711*
X07013Y03701*
X0654Y03681D02*
X0653Y03671D01*
Y03651*
X0654Y03641*
X0658*
X0659Y03651*
Y03671*
X0658Y03681*
X0659Y03731D02*
X0653D01*
X0656Y03701*
Y03741*
X07406Y04154D02*
X07396Y04144D01*
Y04124*
X07406Y04114*
X07446*
X07456Y04124*
Y04144*
X07446Y04154*
X07406Y04174D02*
X07396Y04184D01*
Y04204*
X07406Y04214*
X07416*
X07426Y04204*
Y04194*
Y04204*
X07436Y04214*
X07446*
X07456Y04204*
Y04184*
X07446Y04174*
X05956Y06787D02*
Y06767D01*
Y06777*
X06006*
X06016Y06767*
Y06757*
X06006Y06747*
X05956Y06847D02*
X05966Y06827D01*
X05986Y06807*
X06006*
X06016Y06817*
Y06837*
X06006Y06847*
X05996*
X05986Y06837*
Y06807*
X07695Y05001D02*
X07745D01*
X07755Y05011*
Y05031*
X07745Y05041*
X07695*
X07755Y05091D02*
X07695D01*
X07725Y05061*
Y05101*
X0748Y06251D02*
X0742D01*
Y06281*
X0743Y06291*
X0745*
X0746Y06281*
Y06251*
Y06271D02*
X0748Y06291D01*
X0747Y06311D02*
X0748Y06321D01*
Y06341*
X0747Y06351*
X0743*
X0742Y06341*
Y06321*
X0743Y06311*
X0744*
X0745Y06321*
Y06351*
X0772Y05677D02*
X0766D01*
Y05707*
X0767Y05717*
X0769*
X077Y05707*
Y05677*
Y05697D02*
X0772Y05717D01*
X0767Y05737D02*
X0766Y05747D01*
Y05767*
X0767Y05777*
X0768*
X0769Y05767*
X077Y05777*
X0771*
X0772Y05767*
Y05747*
X0771Y05737*
X077*
X0769Y05747*
X0768Y05737*
X0767*
X0769Y05747D02*
Y05767D01*
X08472Y05874D02*
X08412D01*
Y05904*
X08422Y05914*
X08442*
X08452Y05904*
Y05874*
Y05894D02*
X08472Y05914D01*
X08412Y05934D02*
Y05973D01*
X08422*
X08462Y05934*
X08472*
X07712Y06066D02*
X07652D01*
Y06096*
X07662Y06106*
X07682*
X07692Y06096*
Y06066*
Y06086D02*
X07712Y06106D01*
X07652Y06166D02*
X07662Y06146D01*
X07682Y06126*
X07702*
X07712Y06136*
Y06156*
X07702Y06166*
X07692*
X07682Y06156*
Y06126*
X06692Y06456D02*
X06632D01*
Y06486*
X06642Y06496*
X06662*
X06672Y06486*
Y06456*
Y06476D02*
X06692Y06496D01*
X06632Y06556D02*
Y06516D01*
X06662*
X06652Y06536*
Y06546*
X06662Y06556*
X06682*
X06692Y06546*
Y06526*
X06682Y06516*
X08464Y06259D02*
X08404D01*
Y06289*
X08414Y06299*
X08434*
X08444Y06289*
Y06259*
Y06279D02*
X08464Y06299D01*
Y06349D02*
X08404D01*
X08434Y06319*
Y06359*
X07708Y0646D02*
X07648D01*
Y0649*
X07658Y065*
X07678*
X07688Y0649*
Y0646*
Y0648D02*
X07708Y065D01*
X07658Y0652D02*
X07648Y0653D01*
Y0655*
X07658Y0656*
X07668*
X07678Y0655*
Y0654*
Y0655*
X07688Y0656*
X07698*
X07708Y0655*
Y0653*
X07698Y0652*
X0728Y02912D02*
X0727Y02902D01*
Y02882*
X0728Y02872*
X0732*
X0733Y02882*
Y02902*
X0732Y02912*
X0733Y02932D02*
Y02952D01*
Y02942*
X0727*
X0728Y02932*
Y02982D02*
X0727Y02992D01*
Y03012*
X0728Y03022*
X0732*
X0733Y03012*
Y02992*
X0732Y02982*
X0728*
X06505Y0212D02*
X06495Y0211D01*
Y0209*
X06505Y0208*
X06545*
X06555Y0209*
Y0211*
X06545Y0212*
Y0214D02*
X06555Y0215D01*
Y0217*
X06545Y0218*
X06505*
X06495Y0217*
Y0215*
X06505Y0214*
X06515*
X06525Y0215*
Y0218*
X07253Y02081D02*
X07243Y02071D01*
Y02051*
X07253Y02041*
X07293*
X07303Y02051*
Y02071*
X07293Y02081*
X07253Y02101D02*
X07243Y02111D01*
Y02131*
X07253Y02141*
X07263*
X07273Y02131*
X07283Y02141*
X07293*
X07303Y02131*
Y02111*
X07293Y02101*
X07283*
X07273Y02111*
X07263Y02101*
X07253*
X07273Y02111D02*
Y02131D01*
X06513Y02884D02*
X06503Y02874D01*
Y02854*
X06513Y02844*
X06552*
X06562Y02854*
Y02874*
X06552Y02884*
X06503Y02904D02*
Y02944D01*
X06513*
X06552Y02904*
X06562*
X06544Y04154D02*
X06534Y04144D01*
Y04124*
X06544Y04114*
X06584*
X06594Y04124*
Y04144*
X06584Y04154*
X06594Y04174D02*
Y04194D01*
Y04184*
X06534*
X06544Y04174*
X06973Y0415D02*
X06963Y0414D01*
Y0412*
X06973Y0411*
X07013*
X07023Y0412*
Y0414*
X07013Y0415*
X07023Y0421D02*
Y0417D01*
X06983Y0421*
X06973*
X06963Y042*
Y0418*
X06973Y0417*
X07493Y05215D02*
X07443D01*
X07433Y05205*
Y05185*
X07443Y05175*
X07493*
Y05115D02*
Y05155D01*
X07463*
X07473Y05135*
Y05125*
X07463Y05115*
X07443*
X07433Y05125*
Y05145*
X07443Y05155*
X05745Y02602D02*
X05735Y02592D01*
Y02572*
X05745Y02562*
X05785*
X05795Y02572*
Y02592*
X05785Y02602*
X05795Y02622D02*
Y02642D01*
Y02632*
X05735*
X05745Y02622*
X05735Y02712D02*
X05745Y02692D01*
X05765Y02672*
X05785*
X05795Y02682*
Y02702*
X05785Y02712*
X05775*
X05765Y02702*
Y02672*
X05741Y0293D02*
X05731Y0292D01*
Y029*
X05741Y0289*
X05781*
X05791Y029*
Y0292*
X05781Y0293*
X05791Y0295D02*
Y0297D01*
Y0296*
X05731*
X05741Y0295*
X05731Y0304D02*
Y03D01*
X05761*
X05751Y0302*
Y0303*
X05761Y0304*
X05781*
X05791Y0303*
Y0301*
X05781Y03*
X05745Y04106D02*
X05735Y04096D01*
Y04076*
X05745Y04066*
X05785*
X05795Y04076*
Y04096*
X05785Y04106*
X05795Y04126D02*
Y04146D01*
Y04136*
X05735*
X05745Y04126*
X05795Y04206D02*
X05735D01*
X05765Y04176*
Y04216*
X05741Y04426D02*
X05731Y04416D01*
Y04396*
X05741Y04386*
X05781*
X05791Y04396*
Y04416*
X05781Y04426*
X05791Y04446D02*
Y04466D01*
Y04456*
X05731*
X05741Y04446*
Y04496D02*
X05731Y04506D01*
Y04526*
X05741Y04536*
X05751*
X05761Y04526*
Y04516*
Y04526*
X05771Y04536*
X05781*
X05791Y04526*
Y04506*
X05781Y04496*
X05729Y05669D02*
X05719Y05659D01*
Y05639*
X05729Y05629*
X05769*
X05779Y05639*
Y05659*
X05769Y05669*
X05779Y05689D02*
Y05709D01*
Y05699*
X05719*
X05729Y05689*
X05779Y05779D02*
Y05739D01*
X05739Y05779*
X05729*
X05719Y05769*
Y05749*
X05729Y05739*
X05729Y05955D02*
X05719Y05945D01*
Y05925*
X05729Y05915*
X05769*
X05779Y05925*
Y05945*
X05769Y05955*
X05779Y05975D02*
Y05995D01*
Y05985*
X05719*
X05729Y05975*
X05779Y06025D02*
Y06045D01*
Y06035*
X05719*
X05729Y06025*
X06692Y06019D02*
X06632D01*
Y06049*
X06642Y06059*
X06662*
X06672Y06049*
Y06019*
Y06039D02*
X06692Y06059D01*
Y06079D02*
Y06099D01*
Y06089*
X06632*
X06642Y06079*
Y06129D02*
X06632Y06139D01*
Y06159*
X06642Y06169*
X06682*
X06692Y06159*
Y06139*
X06682Y06129*
X06642*
X0748Y05826D02*
X0742D01*
Y05856*
X0743Y05866*
X0745*
X0746Y05856*
Y05826*
Y05846D02*
X0748Y05866D01*
Y05886D02*
Y05906D01*
Y05896*
X0742*
X0743Y05886*
X0748Y05936D02*
Y05956D01*
Y05946*
X0742*
X0743Y05936*
X06692Y05645D02*
X06632D01*
Y05675*
X06642Y05685*
X06662*
X06672Y05675*
Y05645*
Y05665D02*
X06692Y05685D01*
Y05705D02*
Y05725D01*
Y05715*
X06632*
X06642Y05705*
X06692Y05795D02*
Y05755D01*
X06652Y05795*
X06642*
X06632Y05785*
Y05765*
X06642Y05755*
X0748Y0544D02*
X0742D01*
Y0547*
X0743Y0548*
X0745*
X0746Y0547*
Y0544*
Y0546D02*
X0748Y0548D01*
Y055D02*
Y0552D01*
Y0551*
X0742*
X0743Y055*
Y0555D02*
X0742Y0556D01*
Y0558*
X0743Y0559*
X0744*
X0745Y0558*
Y0557*
Y0558*
X0746Y0559*
X0747*
X0748Y0558*
Y0556*
X0747Y0555*
X08824Y02D02*
X08864D01*
X08884Y0202*
X08864Y0204*
X08824*
X08884Y0206D02*
X08824D01*
Y0209*
X08834Y021*
X08854*
X08864Y0209*
Y0206*
Y0208D02*
X08884Y021D01*
X08824Y0216D02*
X08834Y0214D01*
X08854Y0212*
X08874*
X08884Y0213*
Y0215*
X08874Y0216*
X08864*
X08854Y0215*
Y0212*
X08824Y00937D02*
X08864D01*
X08884Y00957*
X08864Y00977*
X08824*
X08884Y00997D02*
X08824D01*
Y01027*
X08834Y01037*
X08854*
X08864Y01027*
Y00997*
Y01017D02*
X08884Y01037D01*
X08834Y01057D02*
X08824Y01067D01*
Y01087*
X08834Y01097*
X08844*
X08854Y01087*
X08864Y01097*
X08874*
X08884Y01087*
Y01067*
X08874Y01057*
X08864*
X08854Y01067*
X08844Y01057*
X08834*
X08854Y01067D02*
Y01087D01*
X05749Y08064D02*
X05729D01*
X05739*
Y08014*
X05729Y08004*
X05719*
X05709Y08014*
X05769Y08004D02*
X05789D01*
X05779*
Y08064*
X05769Y08054*
X05849Y08004D02*
Y08064D01*
X05819Y08034*
X05859*
X08016Y01613D02*
Y01573D01*
X08036Y01553*
X08056Y01573*
Y01613*
X08076Y01553D02*
Y01613D01*
X08106*
X08116Y01603*
Y01583*
X08106Y01573*
X08076*
X08096D02*
X08116Y01553D01*
X08136Y01603D02*
X08146Y01613D01*
X08166*
X08176Y01603*
Y01593*
X08166Y01583*
X08156*
X08166*
X08176Y01573*
Y01563*
X08166Y01553*
X08146*
X08136Y01563*
X07485Y01617D02*
Y01577D01*
X07505Y01557*
X07525Y01577*
Y01617*
X07545Y01557D02*
Y01617D01*
X07575*
X07585Y01607*
Y01587*
X07575Y01577*
X07545*
X07565D02*
X07585Y01557D01*
X07635D02*
Y01617D01*
X07605Y01587*
X07645*
X06945Y01617D02*
Y01577D01*
X06965Y01557*
X06985Y01577*
Y01617*
X07005Y01557D02*
Y01617D01*
X07035*
X07045Y01607*
Y01587*
X07035Y01577*
X07005*
X07025D02*
X07045Y01557D01*
X07105Y01617D02*
X07065D01*
Y01587*
X07085Y01597*
X07095*
X07105Y01587*
Y01567*
X07095Y01557*
X07075*
X07065Y01567*
X06426Y01617D02*
Y01577D01*
X06446Y01557*
X06466Y01577*
Y01617*
X06486Y01557D02*
Y01617D01*
X06516*
X06526Y01607*
Y01587*
X06516Y01577*
X06486*
X06506D02*
X06526Y01557D01*
X06546Y01617D02*
X06586D01*
Y01607*
X06546Y01567*
Y01557*
X05831Y01617D02*
Y01577D01*
X05851Y01557*
X05871Y01577*
Y01617*
X05891Y01557D02*
Y01617D01*
X05921*
X05931Y01607*
Y01587*
X05921Y01577*
X05891*
X05911D02*
X05931Y01557D01*
X05951Y01567D02*
X05961Y01557D01*
X05981*
X05991Y01567*
Y01607*
X05981Y01617*
X05961*
X05951Y01607*
Y01597*
X05961Y01587*
X05991*
G54D11*
X06319Y07553D02*
X06328Y07555D01*
X06336Y07561*
X06342Y07569*
X06344Y07578*
X06342Y07588*
X06336Y07596*
X06328Y07601*
X06319Y07603*
X07354Y04273D02*
X07354Y04283D01*
X07353Y04293*
X07351Y04303*
X07349Y04313*
X07346Y04322*
X07342Y04332*
X07338Y04341*
X07333Y0435*
X07328Y04358*
X07322Y04366*
X07315Y04374*
X07309Y04381*
X07301Y04388*
X07293Y04394*
X07285Y044*
X07276Y04405*
X07267Y04409*
X07258Y04413*
X07249Y04416*
X07239Y04419*
X07229Y04421*
X07219Y04422*
X07209Y04423*
X07199*
X07189Y04422*
X07179Y04421*
X07169Y04419*
X0716Y04416*
X0715Y04413*
X07141Y04409*
X07132Y04405*
X07124Y044*
X07115Y04394*
X07107Y04388*
X071Y04381*
X07093Y04374*
X07087Y04366*
X07081Y04358*
X07075Y0435*
X0707Y04341*
X07066Y04332*
X07063Y04322*
X0706Y04313*
X07057Y04303*
X07056Y04293*
X07055Y04283*
X07054Y04273*
X07055Y04263*
X07056Y04253*
X07057Y04243*
X0706Y04233*
X07063Y04224*
X07066Y04215*
X0707Y04205*
X07075Y04197*
X07081Y04188*
X07087Y0418*
X07093Y04173*
X071Y04165*
X07107Y04159*
X07115Y04152*
X07124Y04147*
X07132Y04142*
X07141Y04137*
X0715Y04133*
X0716Y0413*
X07169Y04127*
X07179Y04125*
X07189Y04124*
X07199Y04123*
X07209*
X07219Y04124*
X07229Y04125*
X07239Y04127*
X07249Y0413*
X07258Y04133*
X07267Y04137*
X07276Y04142*
X07285Y04147*
X07293Y04152*
X07301Y04159*
X07309Y04165*
X07315Y04173*
X07322Y0418*
X07328Y04188*
X07333Y04197*
X07338Y04205*
X07342Y04215*
X07346Y04224*
X07349Y04233*
X07351Y04243*
X07353Y04253*
X07354Y04263*
X07354Y04273*
X06925D02*
X06925Y04283D01*
X06924Y04293*
X06922Y04303*
X0692Y04313*
X06917Y04322*
X06913Y04332*
X06909Y04341*
X06904Y0435*
X06899Y04358*
X06893Y04366*
X06886Y04374*
X06879Y04381*
X06872Y04388*
X06864Y04394*
X06856Y044*
X06847Y04405*
X06838Y04409*
X06829Y04413*
X0682Y04416*
X0681Y04419*
X068Y04421*
X0679Y04422*
X0678Y04423*
X0677*
X0676Y04422*
X0675Y04421*
X0674Y04419*
X06731Y04416*
X06721Y04413*
X06712Y04409*
X06703Y04405*
X06694Y044*
X06686Y04394*
X06678Y04388*
X06671Y04381*
X06664Y04374*
X06657Y04366*
X06651Y04358*
X06646Y0435*
X06641Y04341*
X06637Y04332*
X06633Y04322*
X0663Y04313*
X06628Y04303*
X06626Y04293*
X06625Y04283*
X06625Y04273*
X06625Y04263*
X06626Y04253*
X06628Y04243*
X0663Y04233*
X06633Y04224*
X06637Y04215*
X06641Y04205*
X06646Y04197*
X06651Y04188*
X06657Y0418*
X06664Y04173*
X06671Y04165*
X06678Y04159*
X06686Y04152*
X06694Y04147*
X06703Y04142*
X06712Y04137*
X06721Y04133*
X06731Y0413*
X0674Y04127*
X0675Y04125*
X0676Y04124*
X0677Y04123*
X0678*
X0679Y04124*
X068Y04125*
X0681Y04127*
X0682Y0413*
X06829Y04133*
X06838Y04137*
X06847Y04142*
X06856Y04147*
X06864Y04152*
X06872Y04159*
X06879Y04165*
X06886Y04173*
X06893Y0418*
X06899Y04188*
X06904Y04197*
X06909Y04205*
X06913Y04215*
X06917Y04224*
X0692Y04233*
X06922Y04243*
X06924Y04253*
X06925Y04263*
X06925Y04273*
X07787D02*
X07787Y04283D01*
X07786Y04293*
X07784Y04303*
X07782Y04313*
X07779Y04322*
X07775Y04332*
X07771Y04341*
X07766Y0435*
X07761Y04358*
X07755Y04366*
X07749Y04374*
X07742Y04381*
X07734Y04388*
X07726Y04394*
X07718Y044*
X07709Y04405*
X077Y04409*
X07691Y04413*
X07682Y04416*
X07672Y04419*
X07662Y04421*
X07652Y04422*
X07642Y04423*
X07632*
X07622Y04422*
X07612Y04421*
X07603Y04419*
X07593Y04416*
X07583Y04413*
X07574Y04409*
X07565Y04405*
X07557Y044*
X07548Y04394*
X0754Y04388*
X07533Y04381*
X07526Y04374*
X0752Y04366*
X07514Y04358*
X07508Y0435*
X07503Y04341*
X07499Y04332*
X07496Y04322*
X07493Y04313*
X0749Y04303*
X07489Y04293*
X07488Y04283*
X07487Y04273*
X07488Y04263*
X07489Y04253*
X0749Y04243*
X07493Y04233*
X07496Y04224*
X07499Y04215*
X07503Y04205*
X07508Y04197*
X07514Y04188*
X0752Y0418*
X07526Y04173*
X07533Y04165*
X0754Y04159*
X07548Y04152*
X07557Y04147*
X07565Y04142*
X07574Y04137*
X07583Y04133*
X07593Y0413*
X07603Y04127*
X07612Y04125*
X07622Y04124*
X07632Y04123*
X07642*
X07652Y04124*
X07662Y04125*
X07672Y04127*
X07682Y0413*
X07691Y04133*
X077Y04137*
X07709Y04142*
X07718Y04147*
X07726Y04152*
X07734Y04159*
X07742Y04165*
X07749Y04173*
X07755Y0418*
X07761Y04188*
X07766Y04197*
X07771Y04205*
X07775Y04215*
X07779Y04224*
X07782Y04233*
X07784Y04243*
X07786Y04253*
X07787Y04263*
X07787Y04273*
X06921Y03794D02*
X06921Y03804D01*
X0692Y03814*
X06918Y03823*
X06916Y03833*
X06913Y03843*
X06909Y03852*
X06905Y03861*
X069Y0387*
X06895Y03879*
X06889Y03887*
X06882Y03894*
X06875Y03901*
X06868Y03908*
X0686Y03914*
X06852Y0392*
X06843Y03925*
X06834Y0393*
X06825Y03934*
X06816Y03937*
X06806Y0394*
X06796Y03942*
X06786Y03943*
X06776Y03944*
X06766*
X06756Y03943*
X06746Y03942*
X06736Y0394*
X06727Y03937*
X06717Y03934*
X06708Y0393*
X06699Y03925*
X0669Y0392*
X06682Y03914*
X06674Y03908*
X06667Y03901*
X0666Y03894*
X06653Y03887*
X06647Y03879*
X06642Y0387*
X06637Y03861*
X06633Y03852*
X06629Y03843*
X06626Y03833*
X06624Y03823*
X06622Y03814*
X06621Y03804*
X06621Y03794*
X06621Y03784*
X06622Y03774*
X06624Y03764*
X06626Y03754*
X06629Y03744*
X06633Y03735*
X06637Y03726*
X06642Y03717*
X06647Y03709*
X06653Y03701*
X0666Y03693*
X06667Y03686*
X06674Y03679*
X06682Y03673*
X0669Y03667*
X06699Y03662*
X06708Y03658*
X06717Y03654*
X06727Y0365*
X06736Y03648*
X06746Y03646*
X06756Y03644*
X06766Y03644*
X06776*
X06786Y03644*
X06796Y03646*
X06806Y03648*
X06816Y0365*
X06825Y03654*
X06834Y03658*
X06843Y03662*
X06852Y03667*
X0686Y03673*
X06868Y03679*
X06875Y03686*
X06882Y03693*
X06889Y03701*
X06895Y03709*
X069Y03717*
X06905Y03726*
X06909Y03735*
X06913Y03744*
X06916Y03754*
X06918Y03764*
X0692Y03774*
X06921Y03784*
X06921Y03794*
X07354Y03794D02*
X07354Y03804D01*
X07353Y03814*
X07351Y03823*
X07349Y03833*
X07346Y03843*
X07342Y03852*
X07338Y03861*
X07333Y0387*
X07328Y03879*
X07322Y03887*
X07315Y03894*
X07308Y03901*
X07301Y03908*
X07293Y03914*
X07285Y0392*
X07276Y03925*
X07267Y0393*
X07258Y03934*
X07249Y03937*
X07239Y0394*
X07229Y03942*
X07219Y03943*
X07209Y03944*
X07199*
X07189Y03943*
X07179Y03942*
X07169Y0394*
X0716Y03937*
X0715Y03934*
X07141Y0393*
X07132Y03925*
X07124Y0392*
X07115Y03914*
X07107Y03908*
X071Y03901*
X07093Y03894*
X07086Y03887*
X07081Y03879*
X07075Y0387*
X0707Y03861*
X07066Y03852*
X07063Y03843*
X0706Y03833*
X07057Y03823*
X07056Y03814*
X07055Y03804*
X07054Y03794*
X07055Y03784*
X07056Y03774*
X07057Y03764*
X0706Y03754*
X07063Y03744*
X07066Y03735*
X0707Y03726*
X07075Y03717*
X07081Y03709*
X07086Y03701*
X07093Y03693*
X071Y03686*
X07107Y03679*
X07115Y03673*
X07124Y03667*
X07132Y03662*
X07141Y03658*
X0715Y03654*
X0716Y0365*
X07169Y03648*
X07179Y03646*
X07189Y03644*
X07199Y03644*
X07209*
X07219Y03644*
X07229Y03646*
X07239Y03648*
X07249Y0365*
X07258Y03654*
X07267Y03658*
X07276Y03662*
X07285Y03667*
X07293Y03673*
X07301Y03679*
X07308Y03686*
X07315Y03693*
X07322Y03701*
X07328Y03709*
X07333Y03717*
X07338Y03726*
X07342Y03735*
X07346Y03744*
X07349Y03754*
X07351Y03764*
X07353Y03774*
X07354Y03784*
X07354Y03794*
X07787Y03794D02*
X07787Y03804D01*
X07786Y03814*
X07784Y03823*
X07782Y03833*
X07779Y03843*
X07775Y03852*
X07771Y03861*
X07766Y0387*
X07761Y03879*
X07755Y03887*
X07749Y03894*
X07742Y03901*
X07734Y03908*
X07726Y03914*
X07718Y0392*
X07709Y03925*
X077Y0393*
X07691Y03934*
X07682Y03937*
X07672Y0394*
X07662Y03942*
X07652Y03943*
X07642Y03944*
X07632*
X07622Y03943*
X07612Y03942*
X07603Y0394*
X07593Y03937*
X07583Y03934*
X07574Y0393*
X07565Y03925*
X07557Y0392*
X07548Y03914*
X0754Y03908*
X07533Y03901*
X07526Y03894*
X0752Y03887*
X07514Y03879*
X07508Y0387*
X07503Y03861*
X07499Y03852*
X07496Y03843*
X07493Y03833*
X0749Y03823*
X07489Y03814*
X07488Y03804*
X07487Y03794*
X07488Y03784*
X07489Y03774*
X0749Y03764*
X07493Y03754*
X07496Y03744*
X07499Y03735*
X07503Y03726*
X07508Y03717*
X07514Y03709*
X0752Y03701*
X07526Y03693*
X07533Y03686*
X0754Y03679*
X07548Y03673*
X07557Y03667*
X07565Y03662*
X07574Y03658*
X07583Y03654*
X07593Y0365*
X07603Y03648*
X07612Y03646*
X07622Y03644*
X07632Y03644*
X07642*
X07652Y03644*
X07662Y03646*
X07672Y03648*
X07682Y0365*
X07691Y03654*
X077Y03658*
X07709Y03662*
X07718Y03667*
X07726Y03673*
X07734Y03679*
X07742Y03686*
X07749Y03693*
X07755Y03701*
X07761Y03709*
X07766Y03717*
X07771Y03726*
X07775Y03735*
X07779Y03744*
X07782Y03754*
X07784Y03764*
X07786Y03774*
X07787Y03784*
X07787Y03794*
X07361Y05056D02*
X07352Y05054D01*
X07344Y05049*
X07338Y05041*
X07336Y05031*
X07338Y05021*
X07344Y05013*
X07352Y05008*
X07361Y05006*
X07827Y0516D02*
X07836Y05161D01*
X07844Y05167*
X0785Y05175*
X07852Y05185*
X0785Y05194*
X07844Y05202*
X07836Y05208*
X07827Y0521*
X06115Y05674D02*
X06155D01*
X06135Y05654D02*
Y05694D01*
X05825Y01523D02*
X0621D01*
X05825Y01187D02*
X06211D01*
X05825D02*
Y01523D01*
X0621Y01187D02*
Y01523D01*
X06127Y04107D02*
X06167D01*
X06147Y04087D02*
Y04127D01*
X06319Y075D02*
Y07553D01*
Y07603D02*
Y07656D01*
X07019*
Y075D02*
Y07656D01*
X06319Y075D02*
X07019D01*
X06111Y06022D02*
X06151D01*
X06131Y06002D02*
Y06042D01*
X09187Y07055D02*
Y07094D01*
X09098Y07055D02*
X09187D01*
X09098D02*
Y07173D01*
X09187*
Y07094D02*
Y07173D01*
X09098Y07222D02*
Y07438D01*
X0961*
Y06789D02*
Y07438D01*
X09098Y06789D02*
X0961D01*
X09098D02*
Y07222D01*
X07219Y08064D02*
Y08266D01*
X06799Y08064D02*
X07219D01*
X06799D02*
Y08266D01*
X07219*
X06542Y08041D02*
Y08243D01*
X06122Y08041D02*
X06542D01*
X06122D02*
Y08243D01*
X06542*
X06123Y02997D02*
X06163D01*
X06143Y02977D02*
Y03017D01*
Y04473D02*
Y04513D01*
X06123Y04493D02*
X06163D01*
X06155Y02587D02*
Y02627D01*
X06135Y02607D02*
X06175D01*
X06919Y03376D02*
Y03416D01*
X06899Y03396D02*
X06939D01*
X07698Y02583D02*
Y02623D01*
X07678Y02603D02*
X07718D01*
X06911Y02593D02*
Y02633D01*
X06891Y02613D02*
X06931D01*
X07687Y03374D02*
Y03414D01*
X07667Y03394D02*
X07707D01*
X06805Y01187D02*
Y01523D01*
X0642Y01187D02*
Y01523D01*
Y01187D02*
X06806D01*
X0642Y01523D02*
X06805D01*
X07324Y01187D02*
Y01523D01*
X06939Y01187D02*
Y01523D01*
Y01187D02*
X07325D01*
X06939Y01523D02*
X07324D01*
X07864Y01187D02*
Y01523D01*
X07479Y01187D02*
Y01523D01*
Y01187D02*
X07865D01*
X07479Y01523D02*
X07864D01*
X08395Y01184D02*
Y01519D01*
X0801Y01184D02*
Y01519D01*
Y01184D02*
X08396D01*
X0801Y01519D02*
X08395D01*
X09662Y00939D02*
X09664Y00941D01*
X08918Y00939D02*
X09662D01*
X08918D02*
Y01742D01*
X09664*
Y00941D02*
Y01742D01*
X09662Y02002D02*
X09664Y02004D01*
X08918Y02002D02*
X09662D01*
X08918D02*
Y02805D01*
X09664*
Y02004D02*
Y02805D01*
X09662Y04168D02*
X09664Y04169D01*
X08918Y04168D02*
X09662D01*
X08918D02*
Y0497D01*
X09664*
Y04169D02*
Y0497D01*
X09662Y03105D02*
X09664Y03106D01*
X08918Y03105D02*
X09662D01*
X08918D02*
Y03907D01*
X09664*
Y03106D02*
Y03907D01*
X06051Y06746D02*
Y0697D01*
X06835*
Y06741D02*
Y0697D01*
X06051Y06741D02*
X06835D01*
X06051D02*
Y06746D01*
X06114Y06945D02*
Y06967D01*
Y06945D02*
X0618D01*
Y06967*
X06766Y0695D02*
Y06967D01*
X06707Y0695D02*
X06766D01*
X06707D02*
Y06969D01*
X08001Y04673D02*
X08226D01*
Y03888D02*
Y04673D01*
X07997Y03888D02*
X08226D01*
X07997D02*
Y04673D01*
X08001*
X08201Y0461D02*
X08223D01*
X08201Y04544D02*
Y0461D01*
Y04544D02*
X08223D01*
X08206Y03957D02*
X08223D01*
X08206D02*
Y04016D01*
X08225*
X08482Y02948D02*
X08706D01*
X08482D02*
Y03733D01*
X08711*
Y02948D02*
Y03733D01*
X08706Y02948D02*
X08711D01*
X08485Y03011D02*
X08506D01*
Y03077*
X08485D02*
X08506D01*
X08485Y03664D02*
X08501D01*
Y03605D02*
Y03664D01*
X08483Y03605D02*
X08501D01*
X06673Y00852D02*
Y01076D01*
X05888Y00852D02*
X06673D01*
X05888D02*
Y01081D01*
X06673*
Y01076D02*
Y01081D01*
X0661Y00855D02*
Y00876D01*
X06544D02*
X0661D01*
X06544Y00855D02*
Y00876D01*
X05957Y00855D02*
Y00872D01*
X06016*
Y00853D02*
Y00872D01*
X06661Y05109D02*
X07361D01*
X06661Y04953D02*
Y05109D01*
Y04953D02*
X07361D01*
Y05006*
Y05056D02*
Y05109D01*
X07827Y05107D02*
X08527D01*
Y05262*
X07827D02*
X08527D01*
X07827Y0521D02*
Y05262D01*
Y05107D02*
Y0516D01*
X07208Y05472D02*
Y05503D01*
X06972Y05472D02*
X07208D01*
X06972D02*
Y05551D01*
X06893Y05511D02*
X06972D01*
X0721D02*
X07283D01*
X07208Y05503D02*
Y05551D01*
X06972D02*
X07208D01*
Y05669D02*
Y057D01*
X06972Y05669D02*
X07208D01*
X06972D02*
Y05748D01*
X06893Y05708D02*
X06972D01*
X0721D02*
X07283D01*
X07208Y057D02*
Y05748D01*
X06972D02*
X07208D01*
X06964Y05913D02*
Y05944D01*
X072*
Y05866D02*
Y05944D01*
Y05905D02*
X07279D01*
X06889D02*
X06962D01*
X06964Y05866D02*
Y05913D01*
Y05866D02*
X072D01*
X07208Y06062D02*
Y06094D01*
X06972Y06062D02*
X07208D01*
X06972D02*
Y06141D01*
X06893Y06102D02*
X06972D01*
X0721D02*
X07283D01*
X07208Y06094D02*
Y06141D01*
X06972D02*
X07208D01*
X08192Y06456D02*
Y06488D01*
X07956Y06456D02*
X08192D01*
X07956D02*
Y06535D01*
X07877Y06496D02*
X07956D01*
X08194D02*
X08267D01*
X08192Y06488D02*
Y06535D01*
X07956D02*
X08192D01*
X07948Y06307D02*
Y06338D01*
X08185*
Y06259D02*
Y06338D01*
Y06299D02*
X08263D01*
X07874D02*
X07946D01*
X07948Y06259D02*
Y06307D01*
Y06259D02*
X08185D01*
X06964Y06503D02*
Y06535D01*
X072*
Y06456D02*
Y06535D01*
Y06496D02*
X07279D01*
X06889D02*
X06962D01*
X06964Y06456D02*
Y06503D01*
Y06456D02*
X072D01*
X08192Y06062D02*
Y06094D01*
X07956Y06062D02*
X08192D01*
X07956D02*
Y06141D01*
X07877Y06102D02*
X07956D01*
X08194D02*
X08267D01*
X08192Y06094D02*
Y06141D01*
X07956D02*
X08192D01*
X07948Y05913D02*
Y05944D01*
X08185*
Y05866D02*
Y05944D01*
Y05905D02*
X08263D01*
X07874D02*
X07946D01*
X07948Y05866D02*
Y05913D01*
Y05866D02*
X08185D01*
X08192Y05669D02*
Y057D01*
X07956Y05669D02*
X08192D01*
X07956D02*
Y05748D01*
X07877Y05708D02*
X07956D01*
X08194D02*
X08267D01*
X08192Y057D02*
Y05748D01*
X07956D02*
X08192D01*
X07208Y06259D02*
Y06291D01*
X06972Y06259D02*
X07208D01*
X06972D02*
Y06338D01*
X06893Y06299D02*
X06972D01*
X0721D02*
X07283D01*
X07208Y06291D02*
Y06338D01*
X06972D02*
X07208D01*
X08192Y0685D02*
Y06881D01*
X07956Y0685D02*
X08192D01*
X07956D02*
Y06929D01*
X07877Y06889D02*
X07956D01*
X08194D02*
X08267D01*
X08192Y06881D02*
Y06929D01*
X07956D02*
X08192D01*
Y06653D02*
Y06685D01*
X07956Y06653D02*
X08192D01*
X07956D02*
Y06732D01*
X07877Y06692D02*
X07956D01*
X08194D02*
X08267D01*
X08192Y06685D02*
Y06732D01*
X07956D02*
X08192D01*
G54D12*
X0571Y07964D02*
X05712D01*
X0571Y07574D02*
Y07964D01*
Y07574D02*
X05939D01*
Y07964*
X05712D02*
X05939D01*
X05911Y07839D02*
X05938D01*
X05911Y07672D02*
Y07839D01*
Y07672D02*
X05937D01*
Y07676*
G54D13*
X09078Y05181D02*
Y05185D01*
X09755Y05141D02*
Y0537D01*
X09078D02*
X09755D01*
X09078Y05141D02*
Y0537D01*
Y05141D02*
X09755D01*
X09214Y05329D02*
Y05368D01*
Y05329D02*
X0961D01*
Y05367*
M02*