%FSTAX23Y23*%
%MOIN*%
%SFA1B1*%

%IPPOS*%
%ADD10C,0.010000*%
%ADD11C,0.007870*%
%ADD12C,0.019680*%
%LNfuncgen-1*%
%LPD*%
G54D10*
X0638Y05465D02*
X0638Y05475D01*
X06379Y05485*
X06378Y05495*
X06377Y05505*
X06375Y05515*
X06373Y05524*
X0637Y05534*
X06367Y05544*
X06364Y05553*
X0636Y05562*
X06356Y05571*
X06351Y0558*
X06346Y05589*
X06341Y05598*
X06336Y05606*
X0633Y05614*
X06324Y05622*
X06317Y05629*
X0631Y05637*
X06303Y05644*
X06296Y0565*
X06288Y05657*
X0628Y05663*
X06272Y05669*
X06264Y05674*
X06255Y05679*
X06246Y05684*
X06237Y05689*
X06228Y05693*
X06219Y05696*
X0621Y057*
X062Y05702*
X0619Y05705*
X06181Y05707*
X06171Y05709*
X06161Y0571*
X06151Y05711*
X06141Y05711*
X06131Y05712*
X06121Y05711*
X06111Y05711*
X06101Y05709*
X06091Y05708*
X06081Y05706*
X06072Y05704*
X06062Y05701*
X06052Y05698*
X06043Y05694*
X06034Y05691*
X06025Y05686*
X06016Y05682*
X06007Y05677*
X05999Y05672*
X0599Y05666*
X05982Y0566*
X05975Y05654*
X05967Y05647*
X0596Y0564*
X05953Y05633*
X05946Y05626*
X0594Y05618*
X05934Y0561*
X05928Y05602*
X05923Y05593*
X05918Y05585*
X05913Y05576*
X05909Y05567*
X05905Y05558*
X05901Y05548*
X05898Y05539*
X05895Y05529*
X05893Y0552*
X05891Y0551*
X05889Y055*
X05888Y0549*
X05887Y0548*
X05887Y0547*
Y0546*
X05887Y0545*
X05888Y0544*
X05889Y0543*
X05891Y0542*
X05893Y05411*
X05895Y05401*
X05898Y05391*
X05901Y05382*
X05905Y05372*
X05909Y05363*
X05913Y05354*
X05918Y05345*
X05923Y05337*
X05928Y05328*
X05934Y0532*
X0594Y05312*
X05946Y05304*
X05953Y05297*
X0596Y0529*
X05967Y05283*
X05975Y05276*
X05982Y0527*
X0599Y05264*
X05999Y05259*
X06007Y05253*
X06016Y05248*
X06025Y05244*
X06034Y05239*
X06043Y05236*
X06052Y05232*
X06062Y05229*
X06072Y05226*
X06081Y05224*
X06091Y05222*
X06101Y05221*
X06111Y0522*
X06121Y05219*
X06131Y05219*
X06141Y05219*
X06151Y05219*
X06161Y0522*
X06171Y05221*
X06181Y05223*
X0619Y05225*
X062Y05228*
X0621Y05231*
X06219Y05234*
X06228Y05238*
X06237Y05242*
X06246Y05246*
X06255Y05251*
X06264Y05256*
X06272Y05261*
X0628Y05267*
X06288Y05273*
X06296Y0528*
X06303Y05286*
X0631Y05293*
X06317Y05301*
X06324Y05308*
X0633Y05316*
X06336Y05324*
X06341Y05333*
X06346Y05341*
X06351Y0535*
X06356Y05359*
X0636Y05368*
X06364Y05377*
X06367Y05386*
X0637Y05396*
X06373Y05406*
X06375Y05415*
X06377Y05425*
X06378Y05435*
X06379Y05445*
X0638Y05455*
X0638Y05465*
X06392Y03898D02*
X06392Y03908D01*
X06391Y03918*
X0639Y03928*
X06388Y03938*
X06387Y03948*
X06384Y03957*
X06382Y03967*
X06379Y03977*
X06375Y03986*
X06372Y03995*
X06368Y04004*
X06363Y04013*
X06358Y04022*
X06353Y04031*
X06348Y04039*
X06342Y04047*
X06335Y04055*
X06329Y04062*
X06322Y0407*
X06315Y04077*
X06308Y04084*
X063Y0409*
X06292Y04096*
X06284Y04102*
X06276Y04107*
X06267Y04112*
X06258Y04117*
X06249Y04122*
X0624Y04126*
X06231Y04129*
X06221Y04133*
X06212Y04135*
X06202Y04138*
X06192Y0414*
X06183Y04142*
X06173Y04143*
X06163Y04144*
X06153Y04145*
X06143Y04145*
X06133Y04144*
X06123Y04144*
X06113Y04143*
X06103Y04141*
X06093Y04139*
X06083Y04137*
X06074Y04134*
X06064Y04131*
X06055Y04128*
X06046Y04124*
X06037Y04119*
X06028Y04115*
X06019Y0411*
X06011Y04105*
X06002Y04099*
X05994Y04093*
X05986Y04087*
X05979Y0408*
X05972Y04073*
X05965Y04066*
X05958Y04059*
X05952Y04051*
X05946Y04043*
X0594Y04035*
X05935Y04026*
X0593Y04018*
X05925Y04009*
X05921Y04*
X05917Y03991*
X05913Y03981*
X0591Y03972*
X05907Y03962*
X05905Y03953*
X05903Y03943*
X05901Y03933*
X059Y03923*
X05899Y03913*
X05899Y03903*
Y03893*
X05899Y03883*
X059Y03873*
X05901Y03863*
X05903Y03853*
X05905Y03844*
X05907Y03834*
X0591Y03824*
X05913Y03815*
X05917Y03806*
X05921Y03796*
X05925Y03787*
X0593Y03778*
X05935Y0377*
X0594Y03761*
X05946Y03753*
X05952Y03745*
X05958Y03738*
X05965Y0373*
X05972Y03723*
X05979Y03716*
X05986Y03709*
X05994Y03703*
X06002Y03697*
X06011Y03692*
X06019Y03686*
X06028Y03681*
X06037Y03677*
X06046Y03673*
X06055Y03669*
X06064Y03665*
X06074Y03662*
X06083Y03659*
X06093Y03657*
X06103Y03655*
X06113Y03654*
X06123Y03653*
X06133Y03652*
X06143Y03652*
X06153Y03652*
X06163Y03652*
X06173Y03653*
X06183Y03654*
X06192Y03656*
X06202Y03658*
X06212Y03661*
X06221Y03664*
X06231Y03667*
X0624Y03671*
X06249Y03675*
X06258Y03679*
X06267Y03684*
X06276Y03689*
X06284Y03694*
X06292Y037*
X063Y03706*
X06308Y03713*
X06315Y03719*
X06322Y03726*
X06329Y03734*
X06335Y03741*
X06342Y03749*
X06348Y03757*
X06353Y03766*
X06358Y03774*
X06363Y03783*
X06368Y03792*
X06372Y03801*
X06375Y0381*
X06379Y0382*
X06382Y03829*
X06384Y03839*
X06387Y03848*
X06388Y03858*
X0639Y03868*
X06391Y03878*
X06392Y03888*
X06392Y03898*
X0638Y06231D02*
X0638Y06241D01*
X06379Y06251*
X06378Y06261*
X06377Y06271*
X06375Y0628*
X06373Y0629*
X0637Y063*
X06367Y06309*
X06364Y06319*
X0636Y06328*
X06356Y06337*
X06351Y06346*
X06346Y06355*
X06341Y06363*
X06336Y06372*
X0633Y0638*
X06324Y06388*
X06317Y06395*
X0631Y06402*
X06303Y06409*
X06296Y06416*
X06288Y06423*
X0628Y06429*
X06272Y06435*
X06264Y0644*
X06255Y06445*
X06246Y0645*
X06237Y06454*
X06228Y06458*
X06219Y06462*
X0621Y06465*
X062Y06468*
X0619Y06471*
X06181Y06473*
X06171Y06474*
X06161Y06476*
X06151Y06477*
X06141Y06477*
X06131Y06477*
X06121Y06477*
X06111Y06476*
X06101Y06475*
X06091Y06474*
X06081Y06472*
X06072Y06469*
X06062Y06467*
X06052Y06464*
X06043Y0646*
X06034Y06456*
X06025Y06452*
X06016Y06448*
X06007Y06443*
X05999Y06437*
X0599Y06432*
X05982Y06426*
X05975Y06419*
X05967Y06413*
X0596Y06406*
X05953Y06399*
X05946Y06391*
X0594Y06384*
X05934Y06376*
X05928Y06368*
X05923Y06359*
X05918Y0635*
X05913Y06342*
X05909Y06333*
X05905Y06323*
X05901Y06314*
X05898Y06305*
X05895Y06295*
X05893Y06285*
X05891Y06276*
X05889Y06266*
X05888Y06256*
X05887Y06246*
X05887Y06236*
Y06226*
X05887Y06216*
X05888Y06206*
X05889Y06196*
X05891Y06186*
X05893Y06176*
X05895Y06167*
X05898Y06157*
X05901Y06148*
X05905Y06138*
X05909Y06129*
X05913Y0612*
X05918Y06111*
X05923Y06103*
X05928Y06094*
X05934Y06086*
X0594Y06078*
X05946Y0607*
X05953Y06063*
X0596Y06056*
X05967Y06049*
X05975Y06042*
X05982Y06036*
X0599Y0603*
X05999Y06024*
X06007Y06019*
X06016Y06014*
X06025Y06009*
X06034Y06005*
X06043Y06001*
X06052Y05998*
X06062Y05995*
X06072Y05992*
X06081Y0599*
X06091Y05988*
X06101Y05986*
X06111Y05985*
X06121Y05985*
X06131Y05984*
X06141Y05984*
X06151Y05985*
X06161Y05986*
X06171Y05987*
X06181Y05989*
X0619Y05991*
X062Y05993*
X0621Y05996*
X06219Y06*
X06228Y06003*
X06237Y06007*
X06246Y06012*
X06255Y06016*
X06264Y06022*
X06272Y06027*
X0628Y06033*
X06288Y06039*
X06296Y06045*
X06303Y06052*
X0631Y06059*
X06317Y06066*
X06324Y06074*
X0633Y06082*
X06336Y0609*
X06341Y06098*
X06346Y06107*
X06351Y06116*
X06356Y06124*
X0636Y06134*
X06364Y06143*
X06367Y06152*
X0637Y06162*
X06373Y06171*
X06375Y06181*
X06377Y06191*
X06378Y06201*
X06379Y06211*
X0638Y06221*
X0638Y06231*
X06392Y03205D02*
X06392Y03215D01*
X06391Y03225*
X0639Y03235*
X06388Y03245*
X06387Y03255*
X06384Y03265*
X06382Y03274*
X06379Y03284*
X06375Y03293*
X06372Y03302*
X06368Y03312*
X06363Y0332*
X06358Y03329*
X06353Y03338*
X06348Y03346*
X06342Y03354*
X06335Y03362*
X06329Y0337*
X06322Y03377*
X06315Y03384*
X06308Y03391*
X063Y03397*
X06292Y03403*
X06284Y03409*
X06276Y03414*
X06267Y0342*
X06258Y03424*
X06249Y03429*
X0624Y03433*
X06231Y03436*
X06221Y0344*
X06212Y03443*
X06202Y03445*
X06192Y03447*
X06183Y03449*
X06173Y0345*
X06163Y03451*
X06153Y03452*
X06143Y03452*
X06133Y03451*
X06123Y03451*
X06113Y0345*
X06103Y03448*
X06093Y03446*
X06083Y03444*
X06074Y03441*
X06064Y03438*
X06055Y03435*
X06046Y03431*
X06037Y03427*
X06028Y03422*
X06019Y03417*
X06011Y03412*
X06002Y03406*
X05994Y034*
X05986Y03394*
X05979Y03387*
X05972Y0338*
X05965Y03373*
X05958Y03366*
X05952Y03358*
X05946Y0335*
X0594Y03342*
X05935Y03333*
X0593Y03325*
X05925Y03316*
X05921Y03307*
X05917Y03298*
X05913Y03288*
X0591Y03279*
X05907Y03269*
X05905Y0326*
X05903Y0325*
X05901Y0324*
X059Y0323*
X05899Y0322*
X05899Y0321*
Y032*
X05899Y0319*
X059Y0318*
X05901Y0317*
X05903Y0316*
X05905Y03151*
X05907Y03141*
X0591Y03131*
X05913Y03122*
X05917Y03113*
X05921Y03103*
X05925Y03094*
X0593Y03086*
X05935Y03077*
X0594Y03069*
X05946Y0306*
X05952Y03052*
X05958Y03045*
X05965Y03037*
X05972Y0303*
X05979Y03023*
X05986Y03017*
X05994Y0301*
X06002Y03004*
X06011Y02999*
X06019Y02993*
X06028Y02988*
X06037Y02984*
X06046Y0298*
X06055Y02976*
X06064Y02972*
X06074Y02969*
X06083Y02967*
X06093Y02964*
X06103Y02962*
X06113Y02961*
X06123Y0296*
X06133Y02959*
X06143Y02959*
X06153Y02959*
X06163Y02959*
X06173Y0296*
X06183Y02962*
X06192Y02963*
X06202Y02965*
X06212Y02968*
X06221Y02971*
X06231Y02974*
X0624Y02978*
X06249Y02982*
X06258Y02986*
X06267Y02991*
X06276Y02996*
X06284Y03001*
X06292Y03007*
X063Y03013*
X06308Y0302*
X06315Y03027*
X06322Y03034*
X06329Y03041*
X06335Y03048*
X06342Y03056*
X06348Y03064*
X06353Y03073*
X06358Y03081*
X06363Y0309*
X06368Y03099*
X06372Y03108*
X06375Y03117*
X06379Y03127*
X06382Y03136*
X06384Y03146*
X06387Y03156*
X06388Y03165*
X0639Y03175*
X06391Y03185*
X06392Y03195*
X06392Y03205*
Y04701D02*
X06392Y04711D01*
X06391Y04721*
X0639Y04731*
X06388Y04741*
X06387Y04751*
X06384Y04761*
X06382Y0477*
X06379Y0478*
X06375Y04789*
X06372Y04798*
X06368Y04808*
X06363Y04817*
X06358Y04825*
X06353Y04834*
X06348Y04842*
X06342Y0485*
X06335Y04858*
X06329Y04866*
X06322Y04873*
X06315Y0488*
X06308Y04887*
X063Y04893*
X06292Y04899*
X06284Y04905*
X06276Y0491*
X06267Y04916*
X06258Y0492*
X06249Y04925*
X0624Y04929*
X06231Y04932*
X06221Y04936*
X06212Y04939*
X06202Y04941*
X06192Y04943*
X06183Y04945*
X06173Y04946*
X06163Y04947*
X06153Y04948*
X06143Y04948*
X06133Y04947*
X06123Y04947*
X06113Y04946*
X06103Y04944*
X06093Y04942*
X06083Y0494*
X06074Y04937*
X06064Y04934*
X06055Y04931*
X06046Y04927*
X06037Y04923*
X06028Y04918*
X06019Y04913*
X06011Y04908*
X06002Y04902*
X05994Y04896*
X05986Y0489*
X05979Y04883*
X05972Y04876*
X05965Y04869*
X05958Y04862*
X05952Y04854*
X05946Y04846*
X0594Y04838*
X05935Y0483*
X0593Y04821*
X05925Y04812*
X05921Y04803*
X05917Y04794*
X05913Y04785*
X0591Y04775*
X05907Y04765*
X05905Y04756*
X05903Y04746*
X05901Y04736*
X059Y04726*
X05899Y04716*
X05899Y04706*
Y04696*
X05899Y04686*
X059Y04676*
X05901Y04666*
X05903Y04657*
X05905Y04647*
X05907Y04637*
X0591Y04627*
X05913Y04618*
X05917Y04609*
X05921Y04599*
X05925Y0459*
X0593Y04582*
X05935Y04573*
X0594Y04565*
X05946Y04556*
X05952Y04548*
X05958Y04541*
X05965Y04533*
X05972Y04526*
X05979Y04519*
X05986Y04513*
X05994Y04506*
X06002Y045*
X06011Y04495*
X06019Y04489*
X06028Y04485*
X06037Y0448*
X06046Y04476*
X06055Y04472*
X06064Y04468*
X06074Y04465*
X06083Y04463*
X06093Y0446*
X06103Y04458*
X06113Y04457*
X06123Y04456*
X06133Y04455*
X06143Y04455*
X06153Y04455*
X06163Y04455*
X06173Y04456*
X06183Y04458*
X06192Y04459*
X06202Y04461*
X06212Y04464*
X06221Y04467*
X06231Y0447*
X0624Y04474*
X06249Y04478*
X06258Y04482*
X06267Y04487*
X06276Y04492*
X06284Y04498*
X06292Y04503*
X063Y04509*
X06308Y04516*
X06315Y04523*
X06322Y0453*
X06329Y04537*
X06335Y04545*
X06342Y04552*
X06348Y0456*
X06353Y04569*
X06358Y04577*
X06363Y04586*
X06368Y04595*
X06372Y04604*
X06375Y04613*
X06379Y04623*
X06382Y04632*
X06384Y04642*
X06387Y04652*
X06388Y04661*
X0639Y04671*
X06391Y04681*
X06392Y04691*
X06392Y04701*
X064Y02398D02*
X06399Y02408D01*
X06399Y02418*
X06398Y02428*
X06396Y02438*
X06395Y02448*
X06392Y02457*
X0639Y02467*
X06387Y02477*
X06383Y02486*
X0638Y02495*
X06375Y02504*
X06371Y02513*
X06366Y02522*
X06361Y02531*
X06355Y02539*
X0635Y02547*
X06343Y02555*
X06337Y02562*
X0633Y0257*
X06323Y02577*
X06316Y02584*
X06308Y0259*
X063Y02596*
X06292Y02602*
X06283Y02607*
X06275Y02612*
X06266Y02617*
X06257Y02622*
X06248Y02626*
X06239Y02629*
X06229Y02633*
X0622Y02635*
X0621Y02638*
X062Y0264*
X0619Y02642*
X0618Y02643*
X06171Y02644*
X06161Y02645*
X06151Y02645*
X06141Y02644*
X06131Y02644*
X06121Y02643*
X06111Y02641*
X06101Y02639*
X06091Y02637*
X06082Y02634*
X06072Y02631*
X06063Y02628*
X06054Y02624*
X06044Y02619*
X06036Y02615*
X06027Y0261*
X06018Y02605*
X0601Y02599*
X06002Y02593*
X05994Y02587*
X05987Y0258*
X0598Y02573*
X05973Y02566*
X05966Y02559*
X0596Y02551*
X05954Y02543*
X05948Y02535*
X05943Y02526*
X05937Y02518*
X05933Y02509*
X05929Y025*
X05925Y02491*
X05921Y02481*
X05918Y02472*
X05915Y02462*
X05913Y02453*
X05911Y02443*
X05909Y02433*
X05908Y02423*
X05907Y02413*
X05907Y02403*
Y02393*
X05907Y02383*
X05908Y02373*
X05909Y02363*
X05911Y02353*
X05913Y02344*
X05915Y02334*
X05918Y02324*
X05921Y02315*
X05925Y02306*
X05929Y02296*
X05933Y02287*
X05937Y02278*
X05943Y0227*
X05948Y02261*
X05954Y02253*
X0596Y02245*
X05966Y02238*
X05973Y0223*
X0598Y02223*
X05987Y02216*
X05994Y02209*
X06002Y02203*
X0601Y02197*
X06018Y02192*
X06027Y02186*
X06036Y02181*
X06044Y02177*
X06054Y02173*
X06063Y02169*
X06072Y02165*
X06082Y02162*
X06091Y02159*
X06101Y02157*
X06111Y02155*
X06121Y02154*
X06131Y02153*
X06141Y02152*
X06151Y02152*
X06161Y02152*
X06171Y02152*
X0618Y02153*
X0619Y02154*
X062Y02156*
X0621Y02158*
X0622Y02161*
X06229Y02164*
X06239Y02167*
X06248Y02171*
X06257Y02175*
X06266Y02179*
X06275Y02184*
X06283Y02189*
X06292Y02194*
X063Y022*
X06308Y02206*
X06316Y02213*
X06323Y02219*
X0633Y02226*
X06337Y02234*
X06343Y02241*
X0635Y02249*
X06355Y02257*
X06361Y02266*
X06366Y02274*
X06371Y02283*
X06375Y02292*
X0638Y02301*
X06383Y0231*
X06387Y0232*
X0639Y02329*
X06392Y02339*
X06395Y02348*
X06396Y02358*
X06398Y02368*
X06399Y02378*
X06399Y02388*
X064Y02398*
X07163Y03187D02*
X07163Y03197D01*
X07163Y03207*
X07162Y03217*
X0716Y03227*
X07158Y03237*
X07156Y03247*
X07153Y03257*
X0715Y03266*
X07147Y03275*
X07143Y03285*
X07139Y03294*
X07135Y03303*
X0713Y03311*
X07125Y0332*
X07119Y03328*
X07113Y03336*
X07107Y03344*
X07101Y03352*
X07094Y03359*
X07087Y03366*
X07079Y03373*
X07072Y03379*
X07064Y03385*
X07056Y03391*
X07047Y03397*
X07039Y03402*
X0703Y03407*
X07021Y03411*
X07012Y03415*
X07002Y03419*
X06993Y03422*
X06983Y03425*
X06974Y03427*
X06964Y03429*
X06954Y03431*
X06944Y03433*
X06934Y03433*
X06924Y03434*
X06914Y03434*
X06904Y03434*
X06894Y03433*
X06884Y03432*
X06875Y0343*
X06865Y03428*
X06855Y03426*
X06845Y03423*
X06836Y0342*
X06827Y03417*
X06817Y03413*
X06808Y03409*
X06799Y03404*
X06791Y03399*
X06782Y03394*
X06774Y03388*
X06766Y03382*
X06758Y03376*
X06751Y0337*
X06743Y03363*
X06736Y03356*
X0673Y03348*
X06723Y0334*
X06717Y03332*
X06712Y03324*
X06706Y03316*
X06701Y03307*
X06697Y03298*
X06692Y03289*
X06688Y0328*
X06685Y03271*
X06682Y03261*
X06679Y03252*
X06676Y03242*
X06674Y03232*
X06673Y03222*
X06672Y03212*
X06671Y03202*
X0667Y03192*
Y03182*
X06671Y03173*
X06672Y03163*
X06673Y03153*
X06674Y03143*
X06676Y03133*
X06679Y03123*
X06682Y03114*
X06685Y03104*
X06688Y03095*
X06692Y03086*
X06697Y03077*
X06701Y03068*
X06706Y03059*
X06712Y03051*
X06717Y03043*
X06723Y03035*
X0673Y03027*
X06736Y03019*
X06743Y03012*
X06751Y03005*
X06758Y02999*
X06766Y02993*
X06774Y02987*
X06782Y02981*
X06791Y02976*
X06799Y02971*
X06808Y02966*
X06817Y02962*
X06827Y02958*
X06836Y02955*
X06845Y02952*
X06855Y02949*
X06865Y02947*
X06875Y02945*
X06884Y02943*
X06894Y02942*
X06904Y02941*
X06914Y02941*
X06924Y02941*
X06934Y02942*
X06944Y02942*
X06954Y02944*
X06964Y02946*
X06974Y02948*
X06983Y0295*
X06993Y02953*
X07002Y02956*
X07012Y0296*
X07021Y02964*
X0703Y02968*
X07039Y02973*
X07047Y02978*
X07056Y02984*
X07064Y0299*
X07072Y02996*
X07079Y03002*
X07087Y03009*
X07094Y03016*
X07101Y03023*
X07107Y03031*
X07113Y03039*
X07119Y03047*
X07125Y03055*
X0713Y03064*
X07135Y03072*
X07139Y03081*
X07143Y0309*
X07147Y031*
X0715Y03109*
X07153Y03118*
X07156Y03128*
X07158Y03138*
X0716Y03148*
X07162Y03158*
X07163Y03168*
X07163Y03178*
X07163Y03187*
X07943Y02394D02*
X07943Y02404D01*
X07942Y02414*
X07941Y02424*
X0794Y02434*
X07938Y02444*
X07936Y02454*
X07933Y02463*
X0793Y02473*
X07927Y02482*
X07923Y02491*
X07919Y02501*
X07914Y02509*
X07909Y02518*
X07904Y02527*
X07899Y02535*
X07893Y02543*
X07887Y02551*
X0788Y02559*
X07873Y02566*
X07866Y02573*
X07859Y0258*
X07851Y02586*
X07843Y02592*
X07835Y02598*
X07827Y02603*
X07818Y02609*
X07809Y02613*
X078Y02618*
X07791Y02622*
X07782Y02625*
X07773Y02629*
X07763Y02632*
X07753Y02634*
X07744Y02636*
X07734Y02638*
X07724Y02639*
X07714Y0264*
X07704Y02641*
X07694Y02641*
X07684Y0264*
X07674Y0264*
X07664Y02639*
X07654Y02637*
X07644Y02635*
X07635Y02633*
X07625Y0263*
X07615Y02627*
X07606Y02624*
X07597Y0262*
X07588Y02616*
X07579Y02611*
X0757Y02606*
X07562Y02601*
X07553Y02595*
X07545Y02589*
X07538Y02583*
X0753Y02576*
X07523Y02569*
X07516Y02562*
X07509Y02555*
X07503Y02547*
X07497Y02539*
X07491Y02531*
X07486Y02522*
X07481Y02514*
X07476Y02505*
X07472Y02496*
X07468Y02487*
X07464Y02477*
X07461Y02468*
X07458Y02458*
X07456Y02449*
X07454Y02439*
X07452Y02429*
X07451Y02419*
X0745Y02409*
X0745Y02399*
Y02389*
X0745Y02379*
X07451Y02369*
X07452Y02359*
X07454Y02349*
X07456Y0234*
X07458Y0233*
X07461Y0232*
X07464Y02311*
X07468Y02302*
X07472Y02292*
X07476Y02283*
X07481Y02275*
X07486Y02266*
X07491Y02257*
X07497Y02249*
X07503Y02241*
X07509Y02234*
X07516Y02226*
X07523Y02219*
X0753Y02212*
X07538Y02206*
X07545Y02199*
X07553Y02193*
X07562Y02188*
X0757Y02182*
X07579Y02177*
X07588Y02173*
X07597Y02169*
X07606Y02165*
X07615Y02161*
X07625Y02158*
X07635Y02156*
X07644Y02153*
X07654Y02151*
X07664Y0215*
X07674Y02149*
X07684Y02148*
X07694Y02148*
X07704Y02148*
X07714Y02148*
X07724Y02149*
X07734Y0215*
X07744Y02152*
X07753Y02154*
X07763Y02157*
X07773Y0216*
X07782Y02163*
X07791Y02167*
X078Y02171*
X07809Y02175*
X07818Y0218*
X07827Y02185*
X07835Y0219*
X07843Y02196*
X07851Y02202*
X07859Y02209*
X07866Y02216*
X07873Y02223*
X0788Y0223*
X07887Y02237*
X07893Y02245*
X07899Y02253*
X07904Y02262*
X07909Y0227*
X07914Y02279*
X07919Y02288*
X07923Y02297*
X07927Y02306*
X0793Y02316*
X07933Y02325*
X07936Y02335*
X07938Y02345*
X0794Y02354*
X07941Y02364*
X07942Y02374*
X07943Y02384*
X07943Y02394*
X07155Y02404D02*
X07155Y02414D01*
X07155Y02424*
X07154Y02434*
X07152Y02444*
X0715Y02454*
X07148Y02463*
X07146Y02473*
X07143Y02483*
X07139Y02492*
X07135Y02501*
X07131Y0251*
X07127Y02519*
X07122Y02528*
X07117Y02537*
X07111Y02545*
X07105Y02553*
X07099Y02561*
X07093Y02568*
X07086Y02576*
X07079Y02583*
X07071Y02589*
X07064Y02596*
X07056Y02602*
X07048Y02608*
X07039Y02613*
X07031Y02618*
X07022Y02623*
X07013Y02628*
X07004Y02632*
X06995Y02635*
X06985Y02638*
X06976Y02641*
X06966Y02644*
X06956Y02646*
X06946Y02648*
X06936Y02649*
X06926Y0265*
X06916Y0265*
X06906Y02651*
X06896Y0265*
X06886Y0265*
X06877Y02648*
X06867Y02647*
X06857Y02645*
X06847Y02643*
X06838Y0264*
X06828Y02637*
X06819Y02633*
X06809Y0263*
X068Y02625*
X06791Y02621*
X06783Y02616*
X06774Y02611*
X06766Y02605*
X06758Y02599*
X0675Y02593*
X06743Y02586*
X06736Y02579*
X06729Y02572*
X06722Y02565*
X06716Y02557*
X06709Y02549*
X06704Y02541*
X06698Y02532*
X06693Y02524*
X06689Y02515*
X06684Y02506*
X0668Y02497*
X06677Y02487*
X06674Y02478*
X06671Y02468*
X06669Y02459*
X06666Y02449*
X06665Y02439*
X06664Y02429*
X06663Y02419*
X06662Y02409*
Y02399*
X06663Y02389*
X06664Y02379*
X06665Y02369*
X06666Y02359*
X06669Y0235*
X06671Y0234*
X06674Y0233*
X06677Y02321*
X0668Y02311*
X06684Y02302*
X06689Y02293*
X06693Y02284*
X06698Y02276*
X06704Y02267*
X06709Y02259*
X06716Y02251*
X06722Y02243*
X06729Y02236*
X06736Y02229*
X06743Y02222*
X0675Y02215*
X06758Y02209*
X06766Y02203*
X06774Y02197*
X06783Y02192*
X06791Y02187*
X068Y02183*
X06809Y02178*
X06819Y02175*
X06828Y02171*
X06838Y02168*
X06847Y02165*
X06857Y02163*
X06867Y02161*
X06877Y0216*
X06886Y02159*
X06896Y02158*
X06906Y02158*
X06916Y02158*
X06926Y02158*
X06936Y02159*
X06946Y0216*
X06956Y02162*
X06966Y02164*
X06976Y02167*
X06985Y0217*
X06995Y02173*
X07004Y02177*
X07013Y02181*
X07022Y02185*
X07031Y0219*
X07039Y02195*
X07048Y022*
X07056Y02206*
X07064Y02212*
X07071Y02219*
X07079Y02225*
X07086Y02232*
X07093Y0224*
X07099Y02247*
X07105Y02255*
X07111Y02263*
X07117Y02272*
X07122Y0228*
X07127Y02289*
X07131Y02298*
X07135Y02307*
X07139Y02316*
X07143Y02325*
X07146Y02335*
X07148Y02345*
X0715Y02354*
X07152Y02364*
X07154Y02374*
X07155Y02384*
X07155Y02394*
X07155Y02404*
X07931Y03186D02*
X07931Y03196D01*
X0793Y03205*
X07929Y03215*
X07928Y03225*
X07926Y03235*
X07924Y03245*
X07921Y03255*
X07918Y03264*
X07915Y03273*
X07911Y03283*
X07907Y03292*
X07902Y03301*
X07898Y0331*
X07892Y03318*
X07887Y03326*
X07881Y03334*
X07875Y03342*
X07868Y0335*
X07862Y03357*
X07854Y03364*
X07847Y03371*
X07839Y03377*
X07831Y03384*
X07823Y03389*
X07815Y03395*
X07806Y034*
X07798Y03405*
X07789Y03409*
X07779Y03413*
X0777Y03417*
X07761Y0342*
X07751Y03423*
X07741Y03425*
X07732Y03428*
X07722Y03429*
X07712Y03431*
X07702Y03431*
X07692Y03432*
X07682Y03432*
X07672Y03432*
X07662Y03431*
X07652Y0343*
X07642Y03428*
X07632Y03427*
X07623Y03424*
X07613Y03421*
X07604Y03418*
X07594Y03415*
X07585Y03411*
X07576Y03407*
X07567Y03402*
X07558Y03397*
X0755Y03392*
X07542Y03386*
X07534Y0338*
X07526Y03374*
X07518Y03368*
X07511Y03361*
X07504Y03354*
X07497Y03346*
X07491Y03338*
X07485Y0333*
X07479Y03322*
X07474Y03314*
X07469Y03305*
X07464Y03296*
X0746Y03287*
X07456Y03278*
X07453Y03269*
X07449Y03259*
X07447Y0325*
X07444Y0324*
X07442Y0323*
X0744Y0322*
X07439Y0321*
X07438Y03201*
X07438Y03191*
Y03181*
X07438Y03171*
X07439Y03161*
X0744Y03151*
X07442Y03141*
X07444Y03131*
X07447Y03121*
X07449Y03112*
X07453Y03102*
X07456Y03093*
X0746Y03084*
X07464Y03075*
X07469Y03066*
X07474Y03057*
X07479Y03049*
X07485Y03041*
X07491Y03033*
X07497Y03025*
X07504Y03017*
X07511Y0301*
X07518Y03003*
X07526Y02997*
X07534Y02991*
X07542Y02985*
X0755Y02979*
X07558Y02974*
X07567Y02969*
X07576Y02964*
X07585Y0296*
X07594Y02956*
X07604Y02953*
X07613Y0295*
X07623Y02947*
X07632Y02945*
X07642Y02943*
X07652Y02941*
X07662Y0294*
X07672Y02939*
X07682Y02939*
X07692Y02939*
X07702Y0294*
X07712Y02941*
X07722Y02942*
X07732Y02944*
X07741Y02946*
X07751Y02948*
X07761Y02951*
X0777Y02954*
X07779Y02958*
X07789Y02962*
X07798Y02966*
X07806Y02971*
X07815Y02976*
X07823Y02982*
X07831Y02988*
X07839Y02994*
X07847Y03*
X07854Y03007*
X07862Y03014*
X07868Y03021*
X07875Y03029*
X07881Y03037*
X07887Y03045*
X07892Y03053*
X07898Y03062*
X07902Y0307*
X07907Y03079*
X07911Y03088*
X07915Y03098*
X07918Y03107*
X07921Y03117*
X07924Y03126*
X07926Y03136*
X07928Y03146*
X07929Y03156*
X0793Y03166*
X07931Y03176*
X07931Y03186*
G54D11*
X06319Y07553D02*
X06328Y07555D01*
X06336Y07561*
X06342Y07569*
X06344Y07578*
X06342Y07588*
X06336Y07596*
X06328Y07601*
X06319Y07603*
X07354Y04275D02*
X07354Y04285D01*
X07353Y04295*
X07351Y04305*
X07349Y04315*
X07346Y04324*
X07342Y04334*
X07338Y04343*
X07333Y04352*
X07328Y0436*
X07322Y04368*
X07315Y04376*
X07309Y04383*
X07301Y0439*
X07293Y04396*
X07285Y04402*
X07276Y04407*
X07267Y04411*
X07258Y04415*
X07249Y04418*
X07239Y04421*
X07229Y04423*
X07219Y04424*
X07209Y04425*
X07199*
X07189Y04424*
X07179Y04423*
X07169Y04421*
X0716Y04418*
X0715Y04415*
X07141Y04411*
X07132Y04407*
X07124Y04402*
X07115Y04396*
X07107Y0439*
X071Y04383*
X07093Y04376*
X07087Y04368*
X07081Y0436*
X07075Y04352*
X0707Y04343*
X07066Y04334*
X07063Y04324*
X0706Y04315*
X07057Y04305*
X07056Y04295*
X07055Y04285*
X07054Y04275*
X07055Y04265*
X07056Y04255*
X07057Y04245*
X0706Y04235*
X07063Y04226*
X07066Y04217*
X0707Y04207*
X07075Y04199*
X07081Y0419*
X07087Y04182*
X07093Y04174*
X071Y04167*
X07107Y04161*
X07115Y04154*
X07124Y04149*
X07132Y04144*
X07141Y04139*
X0715Y04135*
X0716Y04132*
X07169Y04129*
X07179Y04127*
X07189Y04126*
X07199Y04125*
X07209*
X07219Y04126*
X07229Y04127*
X07239Y04129*
X07249Y04132*
X07258Y04135*
X07267Y04139*
X07276Y04144*
X07285Y04149*
X07293Y04154*
X07301Y04161*
X07309Y04167*
X07315Y04174*
X07322Y04182*
X07328Y0419*
X07333Y04199*
X07338Y04207*
X07342Y04217*
X07346Y04226*
X07349Y04235*
X07351Y04245*
X07353Y04255*
X07354Y04265*
X07354Y04275*
X06925D02*
X06925Y04285D01*
X06924Y04295*
X06922Y04305*
X0692Y04315*
X06917Y04324*
X06913Y04334*
X06909Y04343*
X06904Y04352*
X06899Y0436*
X06893Y04368*
X06886Y04376*
X06879Y04383*
X06872Y0439*
X06864Y04396*
X06856Y04402*
X06847Y04407*
X06838Y04411*
X06829Y04415*
X0682Y04418*
X0681Y04421*
X068Y04423*
X0679Y04424*
X0678Y04425*
X0677*
X0676Y04424*
X0675Y04423*
X0674Y04421*
X06731Y04418*
X06721Y04415*
X06712Y04411*
X06703Y04407*
X06694Y04402*
X06686Y04396*
X06678Y0439*
X06671Y04383*
X06664Y04376*
X06657Y04368*
X06651Y0436*
X06646Y04352*
X06641Y04343*
X06637Y04334*
X06633Y04324*
X0663Y04315*
X06628Y04305*
X06626Y04295*
X06625Y04285*
X06625Y04275*
X06625Y04265*
X06626Y04255*
X06628Y04245*
X0663Y04235*
X06633Y04226*
X06637Y04217*
X06641Y04207*
X06646Y04199*
X06651Y0419*
X06657Y04182*
X06664Y04174*
X06671Y04167*
X06678Y04161*
X06686Y04154*
X06694Y04149*
X06703Y04144*
X06712Y04139*
X06721Y04135*
X06731Y04132*
X0674Y04129*
X0675Y04127*
X0676Y04126*
X0677Y04125*
X0678*
X0679Y04126*
X068Y04127*
X0681Y04129*
X0682Y04132*
X06829Y04135*
X06838Y04139*
X06847Y04144*
X06856Y04149*
X06864Y04154*
X06872Y04161*
X06879Y04167*
X06886Y04174*
X06893Y04182*
X06899Y0419*
X06904Y04199*
X06909Y04207*
X06913Y04217*
X06917Y04226*
X0692Y04235*
X06922Y04245*
X06924Y04255*
X06925Y04265*
X06925Y04275*
X07787D02*
X07787Y04285D01*
X07786Y04295*
X07784Y04305*
X07782Y04315*
X07779Y04324*
X07775Y04334*
X07771Y04343*
X07766Y04352*
X07761Y0436*
X07755Y04368*
X07749Y04376*
X07742Y04383*
X07734Y0439*
X07726Y04396*
X07718Y04402*
X07709Y04407*
X077Y04411*
X07691Y04415*
X07682Y04418*
X07672Y04421*
X07662Y04423*
X07652Y04424*
X07642Y04425*
X07632*
X07622Y04424*
X07612Y04423*
X07603Y04421*
X07593Y04418*
X07583Y04415*
X07574Y04411*
X07565Y04407*
X07557Y04402*
X07548Y04396*
X0754Y0439*
X07533Y04383*
X07526Y04376*
X0752Y04368*
X07514Y0436*
X07508Y04352*
X07503Y04343*
X07499Y04334*
X07496Y04324*
X07493Y04315*
X0749Y04305*
X07489Y04295*
X07488Y04285*
X07487Y04275*
X07488Y04265*
X07489Y04255*
X0749Y04245*
X07493Y04235*
X07496Y04226*
X07499Y04217*
X07503Y04207*
X07508Y04199*
X07514Y0419*
X0752Y04182*
X07526Y04174*
X07533Y04167*
X0754Y04161*
X07548Y04154*
X07557Y04149*
X07565Y04144*
X07574Y04139*
X07583Y04135*
X07593Y04132*
X07603Y04129*
X07612Y04127*
X07622Y04126*
X07632Y04125*
X07642*
X07652Y04126*
X07662Y04127*
X07672Y04129*
X07682Y04132*
X07691Y04135*
X077Y04139*
X07709Y04144*
X07718Y04149*
X07726Y04154*
X07734Y04161*
X07742Y04167*
X07749Y04174*
X07755Y04182*
X07761Y0419*
X07766Y04199*
X07771Y04207*
X07775Y04217*
X07779Y04226*
X07782Y04235*
X07784Y04245*
X07786Y04255*
X07787Y04265*
X07787Y04275*
X06921Y03796D02*
X06921Y03806D01*
X0692Y03816*
X06918Y03825*
X06916Y03835*
X06913Y03845*
X06909Y03854*
X06905Y03863*
X069Y03872*
X06895Y0388*
X06889Y03889*
X06882Y03896*
X06875Y03903*
X06868Y0391*
X0686Y03916*
X06852Y03922*
X06843Y03927*
X06834Y03932*
X06825Y03936*
X06816Y03939*
X06806Y03942*
X06796Y03943*
X06786Y03945*
X06776Y03946*
X06766*
X06756Y03945*
X06746Y03943*
X06736Y03942*
X06727Y03939*
X06717Y03936*
X06708Y03932*
X06699Y03927*
X0669Y03922*
X06682Y03916*
X06674Y0391*
X06667Y03903*
X0666Y03896*
X06653Y03889*
X06647Y0388*
X06642Y03872*
X06637Y03863*
X06633Y03854*
X06629Y03845*
X06626Y03835*
X06624Y03825*
X06622Y03816*
X06621Y03806*
X06621Y03796*
X06621Y03786*
X06622Y03776*
X06624Y03766*
X06626Y03756*
X06629Y03746*
X06633Y03737*
X06637Y03728*
X06642Y03719*
X06647Y03711*
X06653Y03703*
X0666Y03695*
X06667Y03688*
X06674Y03681*
X06682Y03675*
X0669Y03669*
X06699Y03664*
X06708Y0366*
X06717Y03656*
X06727Y03652*
X06736Y0365*
X06746Y03648*
X06756Y03646*
X06766Y03646*
X06776*
X06786Y03646*
X06796Y03648*
X06806Y0365*
X06816Y03652*
X06825Y03656*
X06834Y0366*
X06843Y03664*
X06852Y03669*
X0686Y03675*
X06868Y03681*
X06875Y03688*
X06882Y03695*
X06889Y03703*
X06895Y03711*
X069Y03719*
X06905Y03728*
X06909Y03737*
X06913Y03746*
X06916Y03756*
X06918Y03766*
X0692Y03776*
X06921Y03786*
X06921Y03796*
X07354D02*
X07354Y03806D01*
X07353Y03816*
X07351Y03825*
X07349Y03835*
X07346Y03845*
X07342Y03854*
X07338Y03863*
X07333Y03872*
X07328Y0388*
X07322Y03889*
X07315Y03896*
X07308Y03903*
X07301Y0391*
X07293Y03916*
X07285Y03922*
X07276Y03927*
X07267Y03932*
X07258Y03936*
X07249Y03939*
X07239Y03942*
X07229Y03943*
X07219Y03945*
X07209Y03946*
X07199*
X07189Y03945*
X07179Y03943*
X07169Y03942*
X0716Y03939*
X0715Y03936*
X07141Y03932*
X07132Y03927*
X07124Y03922*
X07115Y03916*
X07107Y0391*
X071Y03903*
X07093Y03896*
X07086Y03889*
X07081Y0388*
X07075Y03872*
X0707Y03863*
X07066Y03854*
X07063Y03845*
X0706Y03835*
X07057Y03825*
X07056Y03816*
X07055Y03806*
X07054Y03796*
X07055Y03786*
X07056Y03776*
X07057Y03766*
X0706Y03756*
X07063Y03746*
X07066Y03737*
X0707Y03728*
X07075Y03719*
X07081Y03711*
X07086Y03703*
X07093Y03695*
X071Y03688*
X07107Y03681*
X07115Y03675*
X07124Y03669*
X07132Y03664*
X07141Y0366*
X0715Y03656*
X0716Y03652*
X07169Y0365*
X07179Y03648*
X07189Y03646*
X07199Y03646*
X07209*
X07219Y03646*
X07229Y03648*
X07239Y0365*
X07249Y03652*
X07258Y03656*
X07267Y0366*
X07276Y03664*
X07285Y03669*
X07293Y03675*
X07301Y03681*
X07308Y03688*
X07315Y03695*
X07322Y03703*
X07328Y03711*
X07333Y03719*
X07338Y03728*
X07342Y03737*
X07346Y03746*
X07349Y03756*
X07351Y03766*
X07353Y03776*
X07354Y03786*
X07354Y03796*
X07787D02*
X07787Y03806D01*
X07786Y03816*
X07784Y03825*
X07782Y03835*
X07779Y03845*
X07775Y03854*
X07771Y03863*
X07766Y03872*
X07761Y0388*
X07755Y03889*
X07749Y03896*
X07742Y03903*
X07734Y0391*
X07726Y03916*
X07718Y03922*
X07709Y03927*
X077Y03932*
X07691Y03936*
X07682Y03939*
X07672Y03942*
X07662Y03943*
X07652Y03945*
X07642Y03946*
X07632*
X07622Y03945*
X07612Y03943*
X07603Y03942*
X07593Y03939*
X07583Y03936*
X07574Y03932*
X07565Y03927*
X07557Y03922*
X07548Y03916*
X0754Y0391*
X07533Y03903*
X07526Y03896*
X0752Y03889*
X07514Y0388*
X07508Y03872*
X07503Y03863*
X07499Y03854*
X07496Y03845*
X07493Y03835*
X0749Y03825*
X07489Y03816*
X07488Y03806*
X07487Y03796*
X07488Y03786*
X07489Y03776*
X0749Y03766*
X07493Y03756*
X07496Y03746*
X07499Y03737*
X07503Y03728*
X07508Y03719*
X07514Y03711*
X0752Y03703*
X07526Y03695*
X07533Y03688*
X0754Y03681*
X07548Y03675*
X07557Y03669*
X07565Y03664*
X07574Y0366*
X07583Y03656*
X07593Y03652*
X07603Y0365*
X07612Y03648*
X07622Y03646*
X07632Y03646*
X07642*
X07652Y03646*
X07662Y03648*
X07672Y0365*
X07682Y03652*
X07691Y03656*
X077Y0366*
X07709Y03664*
X07718Y03669*
X07726Y03675*
X07734Y03681*
X07742Y03688*
X07749Y03695*
X07755Y03703*
X07761Y03711*
X07766Y03719*
X07771Y03728*
X07775Y03737*
X07779Y03746*
X07782Y03756*
X07784Y03766*
X07786Y03776*
X07787Y03786*
X07787Y03796*
X07361Y05056D02*
X07352Y05054D01*
X07344Y05049*
X07338Y05041*
X07336Y05031*
X07338Y05021*
X07344Y05013*
X07352Y05008*
X07361Y05006*
X07827Y0516D02*
X07836Y05161D01*
X07844Y05167*
X0785Y05175*
X07852Y05185*
X0785Y05194*
X07844Y05202*
X07836Y05208*
X07827Y0521*
X06135Y05653D02*
Y05693D01*
X06115Y05673D02*
X06155D01*
X0621Y01188D02*
Y01523D01*
X05825D02*
X0621D01*
X05825Y01188D02*
Y01523D01*
Y01188D02*
X06211D01*
X06147Y04086D02*
Y04126D01*
X06127Y04106D02*
X06167D01*
X06319Y075D02*
X07019D01*
Y07656*
X06319D02*
X07019D01*
X06319Y07603D02*
Y07656D01*
Y075D02*
Y07553D01*
X06131Y06003D02*
Y06043D01*
X06111Y06023D02*
X06151D01*
X09098Y06789D02*
Y07222D01*
Y06789D02*
X0961D01*
Y07438*
X09098D02*
X0961D01*
X09098Y07222D02*
Y07438D01*
X09187Y07104D02*
Y07173D01*
X09098D02*
X09187D01*
X09098Y07055D02*
Y07173D01*
Y07055D02*
X09187D01*
Y07104*
X068Y08266D02*
X0722D01*
X068Y08064D02*
Y08266D01*
Y08064D02*
X0722D01*
Y08266*
X06123Y08243D02*
X06543D01*
X06123Y08041D02*
Y08243D01*
Y08041D02*
X06543D01*
Y08243*
X06143Y02978D02*
Y03018D01*
X06123Y02998D02*
X06163D01*
X06123Y04494D02*
X06163D01*
X06143Y04474D02*
Y04514D01*
X06135Y02606D02*
X06175D01*
X06155Y02586D02*
Y02626D01*
X06899Y03395D02*
X06939D01*
X06919Y03375D02*
Y03415D01*
X07678Y02602D02*
X07718D01*
X07698Y02582D02*
Y02622D01*
X06891Y02612D02*
X06931D01*
X06911Y02592D02*
Y02632D01*
X07667Y03393D02*
X07707D01*
X07687Y03373D02*
Y03413D01*
X0642Y01188D02*
X06806D01*
X0642D02*
Y01523D01*
X06805*
Y01188D02*
Y01523D01*
X06939Y01188D02*
X07325D01*
X06939D02*
Y01523D01*
X07324*
Y01188D02*
Y01523D01*
X07479Y01188D02*
X07865D01*
X07479D02*
Y01523D01*
X07864*
Y01188D02*
Y01523D01*
X0801Y01185D02*
X08396D01*
X0801D02*
Y01519D01*
X08395*
Y01185D02*
Y01519D01*
X09669Y00932D02*
Y01733D01*
X08923D02*
X09669D01*
X08923Y00931D02*
Y01733D01*
Y00931D02*
X09667D01*
X09669Y00932*
Y01995D02*
Y02796D01*
X08923D02*
X09669D01*
X08923Y01994D02*
Y02796D01*
Y01994D02*
X09667D01*
X09669Y01995*
Y0416D02*
Y04961D01*
X08923D02*
X09669D01*
X08923Y04159D02*
Y04961D01*
Y04159D02*
X09667D01*
X09669Y0416*
Y03097D02*
Y03898D01*
X08923D02*
X09669D01*
X08923Y03096D02*
Y03898D01*
Y03096D02*
X09667D01*
X09669Y03097*
X06706Y0695D02*
Y06969D01*
Y0695D02*
X06765D01*
Y06967*
X06179Y06945D02*
Y06967D01*
X06113Y06945D02*
X06179D01*
X06113D02*
Y06967D01*
X0605Y06741D02*
Y06746D01*
Y06741D02*
X06834D01*
Y0697*
X0605D02*
X06834D01*
X0605Y06746D02*
Y0697D01*
X08206Y04017D02*
X08225D01*
X08206Y03958D02*
Y04017D01*
Y03958D02*
X08223D01*
X08201Y04545D02*
X08223D01*
X08201D02*
Y04611D01*
X08223*
X07997Y04674D02*
X08001D01*
X07997Y03889D02*
Y04674D01*
Y03889D02*
X08226D01*
Y04674*
X08001D02*
X08226D01*
X08483Y03604D02*
X08501D01*
Y03663*
X08485D02*
X08501D01*
X08485Y03076D02*
X08506D01*
Y0301D02*
Y03076D01*
X08485Y0301D02*
X08506D01*
X08706Y02947D02*
X08711D01*
Y03732*
X08482D02*
X08711D01*
X08482Y02947D02*
Y03732D01*
Y02947D02*
X08706D01*
X06017Y00853D02*
Y00872D01*
X05958D02*
X06017D01*
X05958Y00855D02*
Y00872D01*
X06545Y00855D02*
Y00876D01*
X06611*
Y00855D02*
Y00876D01*
X06674Y01076D02*
Y01081D01*
X05889D02*
X06674D01*
X05889Y00852D02*
Y01081D01*
Y00852D02*
X06674D01*
Y01076*
X07361Y05056D02*
Y05109D01*
Y04953D02*
Y05006D01*
X06661Y04953D02*
X07361D01*
X06661D02*
Y05109D01*
X07361*
X07827Y05107D02*
Y0516D01*
Y0521D02*
Y05262D01*
X08527*
Y05107D02*
Y05262D01*
X07827Y05107D02*
X08527D01*
X06972Y05551D02*
X07208D01*
Y05503D02*
Y05551D01*
X0721Y05511D02*
X07283D01*
X06893D02*
X06972D01*
Y05472D02*
Y05551D01*
Y05472D02*
X07208D01*
Y05503*
X06972Y05748D02*
X07208D01*
Y057D02*
Y05748D01*
X0721Y05708D02*
X07283D01*
X06893D02*
X06972D01*
Y05669D02*
Y05748D01*
Y05669D02*
X07208D01*
Y057*
X06964Y05866D02*
X072D01*
X06964D02*
Y05913D01*
X06889Y05905D02*
X06962D01*
X072D02*
X07279D01*
X072Y05866D02*
Y05944D01*
X06964D02*
X072D01*
X06964Y05913D02*
Y05944D01*
X06972Y06141D02*
X07208D01*
Y06094D02*
Y06141D01*
X0721Y06102D02*
X07283D01*
X06893D02*
X06972D01*
Y06062D02*
Y06141D01*
Y06062D02*
X07208D01*
Y06094*
X07956Y06535D02*
X08192D01*
Y06488D02*
Y06535D01*
X08194Y06496D02*
X08267D01*
X07877D02*
X07956D01*
Y06456D02*
Y06535D01*
Y06456D02*
X08192D01*
Y06488*
X07948Y06259D02*
X08185D01*
X07948D02*
Y06307D01*
X07874Y06299D02*
X07946D01*
X08185D02*
X08263D01*
X08185Y06259D02*
Y06338D01*
X07948D02*
X08185D01*
X07948Y06307D02*
Y06338D01*
X06964Y06456D02*
X072D01*
X06964D02*
Y06503D01*
X06889Y06496D02*
X06962D01*
X072D02*
X07279D01*
X072Y06456D02*
Y06535D01*
X06964D02*
X072D01*
X06964Y06503D02*
Y06535D01*
X07956Y06141D02*
X08192D01*
Y06094D02*
Y06141D01*
X08194Y06102D02*
X08267D01*
X07877D02*
X07956D01*
Y06062D02*
Y06141D01*
Y06062D02*
X08192D01*
Y06094*
X07948Y05866D02*
X08185D01*
X07948D02*
Y05913D01*
X07874Y05905D02*
X07946D01*
X08185D02*
X08263D01*
X08185Y05866D02*
Y05944D01*
X07948D02*
X08185D01*
X07948Y05913D02*
Y05944D01*
X07956Y05748D02*
X08192D01*
Y057D02*
Y05748D01*
X08194Y05708D02*
X08267D01*
X07877D02*
X07956D01*
Y05669D02*
Y05748D01*
Y05669D02*
X08192D01*
Y057*
X06972Y06338D02*
X07208D01*
Y06291D02*
Y06338D01*
X0721Y06299D02*
X07283D01*
X06893D02*
X06972D01*
Y06259D02*
Y06338D01*
Y06259D02*
X07208D01*
Y06291*
X07956Y06929D02*
X08192D01*
Y06881D02*
Y06929D01*
X08194Y06889D02*
X08267D01*
X07877D02*
X07956D01*
Y0685D02*
Y06929D01*
Y0685D02*
X08192D01*
Y06881*
X07956Y06732D02*
X08192D01*
Y06685D02*
Y06732D01*
X08194Y06692D02*
X08267D01*
X07877D02*
X07956D01*
Y06653D02*
Y06732D01*
Y06653D02*
X08192D01*
Y06685*
G54D12*
X05936Y07671D02*
Y07675D01*
X0591Y07671D02*
X05936D01*
X0591D02*
Y07838D01*
X05937*
X05711Y07963D02*
X05938D01*
Y07573D02*
Y07963D01*
X05709Y07573D02*
X05938D01*
X05709D02*
Y07963D01*
X05711*
M02*