%FSTAX23Y23*%
%MOIN*%
%SFA1B1*%

%IPPOS*%
%ADD29C,0.020000*%
%ADD30C,0.050000*%
%ADD31C,0.060000*%
%ADD32O,0.047240X0.094000*%
%ADD33C,0.062990*%
%ADD34R,0.062990X0.078740*%
%ADD35O,0.062990X0.078740*%
%ADD36R,0.098430X0.066930*%
%ADD37O,0.098430X0.066930*%
%ADD38C,0.094490*%
%ADD39O,0.062990X0.098430*%
%ADD40R,0.062990X0.098430*%
%ADD41R,0.098430X0.062990*%
%ADD42O,0.098430X0.062990*%
%ADD43O,0.094000X0.047240*%
%ADD44C,0.047240*%
%ADD45C,0.050000*%
%LNfuncgen-1*%
%LPD*%
G36*
X0984Y08473D02*
Y0072D01*
X05503*
X055Y00723*
X0552Y0844*
X098*
X09835Y08475*
X0984Y08473*
G37*
%LNfuncgen-2*%
%LPC*%
G36*
X09618Y0827D02*
X09603Y08268D01*
X0959Y08264*
X09577Y08257*
X09566Y08248*
X09557Y08237*
X0955Y08224*
X09546Y08211*
X09544Y08196*
X09546Y08182*
X0955Y08168*
X09557Y08156*
X09566Y08144*
X09577Y08135*
X0959Y08129*
X09603Y08124*
X09618Y08123*
X09632Y08124*
X09646Y08129*
X09658Y08135*
X09669Y08144*
X09679Y08156*
X09685Y08168*
X0969Y08182*
X09691Y08196*
X0969Y08211*
X09685Y08224*
X09679Y08237*
X09669Y08248*
X09658Y08257*
X09646Y08264*
X09632Y08268*
X09618Y0827*
G37*
G36*
X06474Y08224D02*
X06391D01*
Y08106*
X06474*
Y08224*
G37*
G36*
X06236Y08224D02*
X06225Y08223D01*
X06215Y08219*
X06206Y08212*
X06199Y08204*
X06195Y08193*
X06194Y08183*
Y08147*
X06195Y08136*
X06199Y08126*
X06206Y08118*
X06215Y08111*
X06225Y08107*
X06236Y08105*
X06247Y08107*
X06257Y08111*
X06265Y08118*
X06272Y08126*
X06276Y08136*
X06278Y08147*
Y08183*
X06276Y08193*
X06272Y08204*
X06265Y08212*
X06257Y08219*
X06247Y08223*
X06236Y08224*
G37*
G36*
X05842Y08242D02*
X05828Y08241D01*
X05814Y08237*
X05801Y0823*
X0579Y08221*
X05781Y0821*
X05774Y08197*
X0577Y08183*
X05769Y08169*
X0577Y08154*
X05774Y08141*
X05781Y08128*
X0579Y08117*
X05801Y08108*
X05814Y08101*
X05828Y08097*
X05842Y08095*
X05856Y08097*
X0587Y08101*
X05883Y08108*
X05894Y08117*
X05903Y08128*
X0591Y08141*
X05914Y08154*
X05915Y08169*
X05914Y08183*
X0591Y08197*
X05903Y0821*
X05894Y08221*
X05883Y0823*
X0587Y08237*
X05856Y08241*
X05842Y08242*
G37*
G36*
X06334Y08224D02*
X06323Y08223D01*
X06313Y08219*
X06305Y08212*
X06298Y08204*
X06294Y08193*
X06292Y08183*
Y08147*
X06294Y08136*
X06298Y08126*
X06299Y08125*
Y07987*
X06213Y07901*
X05905*
Y07909*
X05787*
Y07822*
X05905*
Y0783*
X06228*
X06237Y07832*
X06246Y07835*
X06253Y07841*
X06359Y07947*
X06365Y07954*
X06368Y07963*
X06369Y07972*
Y08125*
X0637Y08126*
X06375Y08136*
X06376Y08147*
Y08183*
X06375Y08193*
X0637Y08204*
X06364Y08212*
X06355Y08219*
X06345Y08223*
X06334Y08224*
G37*
G36*
X06869Y07778D02*
X06858Y07777D01*
X06848Y07772*
X06839Y07766*
X06833Y07757*
X06828Y07747*
X06827Y07736*
Y0772*
X06828Y0771*
X06833Y07699*
X06839Y07691*
X06848Y07684*
X06858Y0768*
X06869Y07679*
X0688Y0768*
X0689Y07684*
X06898Y07691*
X06905Y07699*
X06909Y0771*
X06911Y0772*
Y07736*
X06909Y07747*
X06905Y07757*
X06898Y07766*
X0689Y07772*
X0688Y07777*
X06869Y07778*
G37*
G36*
X06769D02*
X06758Y07777D01*
X06748Y07772*
X06739Y07766*
X06733Y07757*
X06728Y07747*
X06727Y07736*
Y0772*
X06728Y0771*
X06733Y07699*
X06739Y07691*
X06748Y07684*
X06758Y0768*
X06769Y07679*
X0678Y0768*
X0679Y07684*
X06798Y07691*
X06805Y07699*
X06809Y0771*
X06811Y0772*
Y07736*
X06809Y07747*
X06805Y07757*
X06798Y07766*
X0679Y07772*
X0678Y07777*
X06769Y07778*
G37*
G36*
X06569D02*
X06558Y07777D01*
X06548Y07772*
X06539Y07766*
X06533Y07757*
X06528Y07747*
X06527Y07736*
Y0772*
X06528Y0771*
X06533Y07699*
X06539Y07691*
X06548Y07684*
X06558Y0768*
X06569Y07679*
X0658Y0768*
X0659Y07684*
X06598Y07691*
X06605Y07699*
X06609Y0771*
X06611Y0772*
Y07736*
X06609Y07747*
X06605Y07757*
X06598Y07766*
X0659Y07772*
X0658Y07777*
X06569Y07778*
G37*
G36*
X06469D02*
X06458Y07777D01*
X06448Y07772*
X06439Y07766*
X06433Y07757*
X06428Y07747*
X06427Y07736*
Y0772*
X06428Y0771*
X06433Y07699*
X06439Y07691*
X06448Y07684*
X06458Y0768*
X06469Y07679*
X0648Y0768*
X0649Y07684*
X06498Y07691*
X06505Y07699*
X06509Y0771*
X06511Y0772*
Y07736*
X06509Y07747*
X06505Y07757*
X06498Y07766*
X0649Y07772*
X0648Y07777*
X06469Y07778*
G37*
G36*
X06369D02*
X06358Y07777D01*
X06348Y07772*
X06339Y07766*
X06333Y07757*
X06328Y07747*
X06327Y07736*
Y0772*
X06328Y0771*
X06333Y07699*
X06339Y07691*
X06348Y07684*
X06358Y0768*
X06369Y07679*
X0638Y0768*
X0639Y07684*
X06398Y07691*
X06405Y07699*
X06409Y0771*
X06411Y0772*
Y07736*
X06409Y07747*
X06405Y07757*
X06398Y07766*
X0639Y07772*
X0638Y07777*
X06369Y07778*
G37*
G36*
X05862Y07713D02*
X0583D01*
X05819Y07711*
X05808Y07707*
X05799Y077*
X05792Y07691*
X05788Y0768*
X05786Y07669*
X05788Y07657*
X05792Y07647*
X05799Y07638*
X05808Y07631*
X05819Y07626*
X0583Y07625*
X05862*
X05873Y07626*
X05884Y07631*
X05893Y07638*
X059Y07647*
X05904Y07657*
X05906Y07669*
X05904Y0768*
X059Y07691*
X05893Y077*
X05884Y07707*
X05873Y07711*
X05862Y07713*
G37*
G36*
X0641Y07478D02*
X06327D01*
Y07431*
X06327Y07428*
X06327Y07426*
Y07379*
X0641*
Y07426*
X06411Y07428*
X0641Y07431*
Y07478*
G37*
G36*
X06769Y07478D02*
X06758Y07477D01*
X06748Y07472*
X06739Y07466*
X06733Y07457*
X06728Y07447*
X06727Y07436*
Y0742*
X06728Y0741*
X06733Y07399*
X06739Y07391*
X06748Y07384*
X06758Y0738*
X06769Y07379*
X0678Y0738*
X0679Y07384*
X06798Y07391*
X06805Y07399*
X06809Y0741*
X06811Y0742*
Y07436*
X06809Y07447*
X06805Y07457*
X06798Y07466*
X0679Y07472*
X0678Y07477*
X06769Y07478*
G37*
G36*
X06469D02*
X06458Y07477D01*
X06448Y07472*
X06439Y07466*
X06433Y07457*
X06428Y07447*
X06427Y07436*
Y0742*
X06428Y0741*
X06433Y07399*
X06439Y07391*
X06448Y07384*
X06458Y0738*
X06469Y07379*
X0648Y0738*
X0649Y07384*
X06498Y07391*
X06505Y07399*
X06509Y0741*
X06511Y0742*
Y07436*
X06509Y07447*
X06505Y07457*
X06498Y07466*
X0649Y07472*
X0648Y07477*
X06469Y07478*
G37*
G36*
X09429Y0736D02*
X09414Y07358D01*
X094Y07353*
X09388Y07343*
X09379Y07332*
X09373Y07318*
X09371Y07303*
X09373Y07288*
X09379Y07274*
X09388Y07262*
X094Y07253*
X09414Y07247*
X09429Y07245*
X09444Y07247*
X09458Y07253*
X09469Y07262*
X09479Y07274*
X09484Y07288*
X09486Y07303*
X09484Y07318*
X09479Y07332*
X09469Y07343*
X09458Y07353*
X09444Y07358*
X09429Y0736*
G37*
G36*
X09228Y07247D02*
X09217Y07245D01*
X09208Y07241*
X09199Y07235*
X09193Y07226*
X09189Y07217*
X09188Y07206*
X09189Y07196*
X09193Y07186*
X09199Y07178*
X09208Y07171*
X09217Y07167*
X09228Y07166*
X09238Y07167*
X09248Y07171*
X09256Y07178*
X09263Y07186*
X09267Y07196*
X09268Y07206*
X09267Y07217*
X09263Y07226*
X09256Y07235*
X09248Y07241*
X09238Y07245*
X09228Y07247*
G37*
G36*
X09229Y07147D02*
X09218Y07146D01*
X09209Y07142*
X092Y07135*
X09194Y07127*
X0919Y07117*
X09188Y07107*
X0919Y07096*
X09194Y07087*
X092Y07078*
X09209Y07072*
X09218Y07068*
X09229Y07066*
X09239Y07068*
X09249Y07072*
X09257Y07078*
X09264Y07087*
X09268Y07096*
X09269Y07107*
X09268Y07117*
X09264Y07127*
X09257Y07135*
X09249Y07142*
X09239Y07146*
X09229Y07147*
G37*
G36*
X09429Y06963D02*
X09414Y06961D01*
X094Y06955*
X09388Y06946*
X09379Y06934*
X09373Y0692*
X09371Y06905*
X09373Y0689*
X09379Y06876*
X09388Y06864*
X094Y06855*
X09414Y06849*
X09429Y06847*
X09444Y06849*
X09458Y06855*
X09469Y06864*
X09479Y06876*
X09484Y0689*
X09486Y06905*
X09484Y0692*
X09479Y06934*
X09469Y06946*
X09458Y06955*
X09444Y06961*
X09429Y06963*
G37*
G36*
X0832Y06726D02*
X08312Y06725D01*
X08303Y06722*
X08296Y06716*
X08291Y06709*
X08288Y06701*
X08286Y06692*
X08288Y06684*
X08291Y06675*
X08296Y06668*
X08303Y06663*
X08312Y0666*
X0832Y06659*
X08329Y0666*
X08337Y06663*
X08344Y06668*
X0835Y06675*
X08353Y06684*
X08354Y06692*
X08353Y06701*
X0835Y06709*
X08344Y06716*
X08337Y06722*
X08329Y06725*
X0832Y06726*
G37*
G36*
X0782Y06923D02*
X07812Y06922D01*
X07803Y06919*
X07796Y06913*
X07791Y06906*
X07788Y06898*
X07786Y06889*
X07788Y0688*
X07791Y06872*
X07796Y06865*
X078Y06863*
Y06791*
X078Y0679*
Y06719*
X07796Y06716*
X07791Y06709*
X07788Y06701*
X07786Y06692*
X07788Y06684*
X07791Y06675*
X07796Y06668*
X07803Y06663*
X07812Y0666*
X0782Y06659*
X07829Y0666*
X07837Y06663*
X07844Y06668*
X0785Y06675*
X07853Y06684*
X07854Y06692*
X07853Y06701*
X0785Y06709*
X07844Y06716*
X07841Y06719*
Y06791*
Y06791*
Y06863*
X07844Y06865*
X0785Y06872*
X07853Y0688*
X07854Y06889*
X07853Y06898*
X0785Y06906*
X07844Y06913*
X07837Y06919*
X07829Y06922*
X0782Y06923*
G37*
G36*
X07336Y06529D02*
X07327Y06528D01*
X07319Y06525*
X07312Y0652*
X07307Y06513*
X07303Y06504*
X07302Y06496*
X07303Y06487*
X07307Y06479*
X07312Y06472*
X07319Y06466*
X07327Y06463*
X07336Y06462*
X07345Y06463*
X07353Y06466*
X0736Y06472*
X07365Y06479*
X07369Y06487*
X0737Y06496*
X07369Y06504*
X07365Y06513*
X0736Y0652*
X07353Y06525*
X07345Y06528*
X07336Y06529*
G37*
G36*
X06836D02*
X06827Y06528D01*
X06819Y06525*
X06812Y0652*
X06807Y06513*
X06803Y06504*
X06802Y06496*
X06803Y06487*
X06807Y06479*
X06812Y06472*
X06819Y06466*
X06827Y06463*
X06836Y06462*
X06845Y06463*
X06853Y06466*
X0686Y06472*
X06865Y06479*
X06869Y06487*
X0687Y06496*
X06869Y06504*
X06865Y06513*
X0686Y0652*
X06853Y06525*
X06845Y06528*
X06836Y06529*
G37*
G36*
X06569Y07478D02*
X06558Y07477D01*
X06548Y07472*
X06539Y07466*
X06533Y07457*
X06528Y07447*
X06527Y07436*
Y0742*
X06528Y0741*
X06533Y07399*
X06539Y07391*
X06548Y07384*
X06548Y07384*
Y07276*
X0655Y07268*
X06554Y07261*
X06971Y06845*
Y06426*
X06967Y06422*
X06961Y06415*
X06958Y06406*
X06956Y06397*
X06958Y06388*
X06961Y06379*
X06967Y06372*
X06974Y06367*
X06982Y06363*
X06992Y06362*
X07001Y06363*
X07009Y06367*
X07017Y06372*
X07022Y06379*
X07026Y06388*
X07027Y06397*
X07026Y06406*
X07022Y06415*
X07017Y06422*
X07012Y06426*
Y06853*
X0701Y06861*
X07006Y06867*
X06589Y07284*
Y07384*
X0659Y07384*
X06598Y07391*
X06605Y07399*
X06609Y0741*
X06611Y0742*
Y07436*
X06609Y07447*
X06605Y07457*
X06598Y07466*
X0659Y07472*
X0658Y07477*
X06569Y07478*
G37*
G36*
X06191Y06937D02*
X06108D01*
Y06818*
X06129*
Y06636*
X06115Y06622*
X06111Y06616*
X06109Y06608*
Y06424*
X06104Y06418*
X06101Y0641*
X06099Y06401*
Y06354*
X06101Y06345*
X06104Y06337*
X06109Y0633*
X06116Y06325*
X06125Y06321*
X06133Y0632*
X06142Y06321*
X0615Y06325*
X06157Y0633*
X06163Y06337*
X06166Y06345*
X06167Y06354*
Y06401*
X06166Y0641*
X06163Y06418*
X06157Y06425*
X0615Y0643*
X0615Y0643*
Y06599*
X06164Y06613*
X06168Y0662*
X0617Y06627*
Y06818*
X06191*
Y06937*
G37*
G36*
X07336Y06333D02*
X07327Y06331D01*
X07319Y06328*
X07312Y06323*
X07307Y06316*
X07306Y06314*
X07305*
X07298Y06312*
X07291Y06308*
X07229Y06246*
X07225Y0624*
X07223Y06232*
Y05604*
X07225Y05596*
X07229Y05589*
X07303Y05516*
X07302Y05511*
X07303Y05503*
X07307Y05494*
X07312Y05487*
X07319Y05482*
X07327Y05479*
X07336Y05477*
X07345Y05479*
X07353Y05482*
X0736Y05487*
X07365Y05494*
X07369Y05503*
X0737Y05511*
X07369Y0552*
X07365Y05528*
X0736Y05535*
X07353Y05541*
X07345Y05544*
X07336Y05545*
X07332Y05545*
X07264Y05612*
Y06223*
X07314Y06273*
X07314*
X07319Y06269*
X07327Y06266*
X07336Y06265*
X07345Y06266*
X07353Y06269*
X0736Y06275*
X07365Y06282*
X07369Y0629*
X0737Y06299*
X07369Y06307*
X07365Y06316*
X0736Y06323*
X07353Y06328*
X07345Y06331*
X07336Y06333*
G37*
G36*
X0782Y06529D02*
X07812Y06528D01*
X07803Y06525*
X07796Y0652*
X07791Y06513*
X07788Y06504*
X07786Y06496*
X07788Y06487*
X07791Y06479*
X07796Y06472*
X078Y06469*
Y06325*
X07796Y06323*
X07791Y06316*
X07788Y06307*
X07786Y06299*
X07788Y0629*
X07791Y06282*
X07796Y06275*
X07803Y06269*
X07812Y06266*
X0782Y06265*
X07825Y06265*
X07844Y06246*
Y06132*
X0784Y06129*
X07837Y06131*
X07829Y06135*
X0782Y06136*
X07812Y06135*
X07803Y06131*
X07796Y06126*
X07791Y06119*
X07788Y06111*
X07786Y06102*
X07788Y06093*
X07791Y06085*
X07796Y06078*
X078Y06075*
Y05932*
X07796Y05929*
X07791Y05922*
X07788Y05914*
X07786Y05905*
X07787Y05901*
X07713Y05827*
X07709Y0582*
X07707Y05812*
Y03513*
X07632Y03438*
X07627Y03439*
X07617Y03438*
X07609Y03434*
X07602Y03428*
X07596Y03421*
X07592Y03413*
X07591Y03404*
X07592Y03394*
X07596Y03386*
X07602Y03379*
X07609Y03373*
X07617Y03369*
X07627Y03368*
X07636Y03369*
X07644Y03373*
X07651Y03379*
X07657Y03386*
X07661Y03394*
X07662Y03404*
X07661Y03409*
X07742Y0349*
X07747Y03497*
X07748Y03505*
Y05804*
X07816Y05872*
X0782Y05871*
X07829Y05872*
X07837Y05876*
X0784Y05877*
X07844Y05875*
Y05738*
X0784Y05736*
X07837Y05738*
X07829Y05741*
X0782Y05742*
X07812Y05741*
X07803Y05738*
X07796Y05732*
X07791Y05725*
X07788Y05717*
X07786Y05708*
X07788Y05699*
X07791Y05691*
X07796Y05684*
X078Y05681*
Y05657*
X07772Y05629*
X07768Y05623*
X07767Y05615*
Y03374*
X07746Y03354*
X07718*
Y03358*
X07717Y03366*
X07714Y03374*
X07709Y03382*
X07702Y03387*
X07693Y0339*
X07685Y03391*
X07676Y0339*
X07668Y03387*
X07661Y03382*
X07655Y03374*
X07652Y03366*
X07651Y03358*
Y03311*
X07652Y03302*
X07655Y03294*
X07661Y03287*
X07668Y03281*
X07676Y03278*
X07685Y03277*
X07693Y03278*
X07702Y03281*
X07709Y03287*
X07714Y03294*
X07717Y03302*
X07718Y03311*
Y03313*
X07755*
X07763Y03315*
X07769Y03319*
X07801Y03351*
X07806Y03358*
X07807Y03366*
Y05239*
X07812Y05241*
X07856Y05197*
Y05084*
X07835*
Y05037*
X07835Y05035*
X07835Y05032*
Y04985*
X07918*
Y05032*
X07919Y05035*
X07918Y05037*
Y05084*
X07897*
Y05205*
X07896Y05213*
X07891Y0522*
X07845Y05266*
Y05292*
X0785Y05295*
X07856Y0529*
X07866Y05286*
X07877Y05285*
X07888Y05286*
X07898Y0529*
X07906Y05297*
X07913Y05306*
X07917Y05316*
X07919Y05327*
Y05342*
X07917Y05353*
X07913Y05363*
X07906Y05372*
X07898Y05379*
X07888Y05383*
X07877Y05384*
X07866Y05383*
X07856Y05379*
X0785Y05374*
X07845Y05377*
Y05589*
X07879Y05623*
X07883Y0563*
X07885Y05638*
Y06255*
X07883Y06262*
X07879Y06269*
X07854Y06294*
X07854Y06299*
X07853Y06307*
X0785Y06316*
X07844Y06323*
X07841Y06325*
Y06469*
X07844Y06472*
X0785Y06479*
X07853Y06487*
X07854Y06496*
X07853Y06504*
X0785Y06513*
X07844Y0652*
X07837Y06525*
X07829Y06528*
X0782Y06529*
G37*
G36*
X0832Y06136D02*
X08312Y06135D01*
X08303Y06131*
X08296Y06126*
X08291Y06119*
X08288Y06111*
X08286Y06102*
X08287Y06097*
X08258Y06068*
X08254Y06062*
X08252Y06054*
Y05756*
X08254Y05748*
X08258Y05742*
X08287Y05713*
X08286Y05708*
X08288Y05699*
X08291Y05691*
X08296Y05684*
X08303Y05679*
X08312Y05675*
X0832Y05674*
X08325Y05675*
X08456Y05543*
Y05379*
X08456Y05379*
X08447Y05372*
X0844Y05363*
X08436Y05353*
X08435Y05342*
Y05327*
X08436Y05316*
X0844Y05306*
X08447Y05297*
X08456Y0529*
X08466Y05286*
X08477Y05285*
X08488Y05286*
X08498Y0529*
X08506Y05297*
X08513Y05306*
X08517Y05316*
X08519Y05327*
Y05342*
X08517Y05353*
X08513Y05363*
X08506Y05372*
X08498Y05379*
X08497Y05379*
Y05552*
X08496Y0556*
X08491Y05566*
X08354Y05704*
X08354Y05708*
X08353Y05717*
X0835Y05725*
X08344Y05732*
X08337Y05738*
X08329Y05741*
X0832Y05742*
X08316Y05741*
X08293Y05764*
Y05878*
X08298Y0588*
X08303Y05876*
X08312Y05872*
X0832Y05871*
X08329Y05872*
X08337Y05876*
X08344Y05881*
X0835Y05888*
X08353Y05896*
X08354Y05905*
X08353Y05914*
X0835Y05922*
X08344Y05929*
X08337Y05934*
X08329Y05938*
X0832Y05939*
X08312Y05938*
X08303Y05934*
X08298Y0593*
X08293Y05932*
Y06046*
X08316Y06069*
X0832Y06068*
X08329Y06069*
X08337Y06073*
X08344Y06078*
X0835Y06085*
X08353Y06093*
X08354Y06102*
X08353Y06111*
X0835Y06119*
X08344Y06126*
X08337Y06131*
X08329Y06135*
X0832Y06136*
G37*
G36*
X07336D02*
X07327Y06135D01*
X07319Y06131*
X07312Y06126*
X07307Y06119*
X07303Y06111*
X07302Y06102*
X07303Y06093*
X07307Y06085*
X07312Y06078*
X07319Y06073*
X07327Y06069*
X07336Y06068*
X07345Y06069*
X07353Y06073*
X0736Y06078*
X07365Y06085*
X07369Y06093*
X0737Y06102*
X07369Y06111*
X07365Y06119*
X0736Y06126*
X07353Y06131*
X07345Y06135*
X07336Y06136*
G37*
G36*
X0832Y06923D02*
X08312Y06922D01*
X08303Y06919*
X08296Y06913*
X08291Y06906*
X08288Y06898*
X08286Y06889*
X08288Y0688*
X08291Y06872*
X08296Y06865*
X08303Y0686*
X08312Y06857*
X0832Y06855*
X08325Y06856*
X08585Y06595*
Y06067*
X0858Y06066*
X08577Y06071*
X08354Y06294*
X08354Y06299*
X08353Y06307*
X0835Y06316*
X08344Y06323*
X08337Y06328*
X08329Y06331*
X0832Y06333*
X08312Y06331*
X08303Y06328*
X08296Y06323*
X08291Y06316*
X08288Y06307*
X08286Y06299*
X08288Y0629*
X08291Y06282*
X08296Y06275*
X08303Y06269*
X08312Y06266*
X0832Y06265*
X08325Y06265*
X08542Y06048*
Y05295*
X08362Y05115*
X08358Y05108*
X08356Y05101*
Y05079*
X08356Y05079*
X08347Y05072*
X0834Y05063*
X08336Y05053*
X08335Y05042*
Y05027*
X08336Y05016*
X0834Y05006*
X08347Y04997*
X08356Y0499*
X08356Y0499*
Y04984*
X08309Y04937*
X08305Y0493*
X08303Y04922*
Y016*
X08212Y01508*
X08211Y01508*
X082Y0151*
X08189Y01508*
X08179Y01504*
X08171Y01498*
X08164Y01489*
X0816Y01479*
X08158Y01468*
X0816Y01457*
X08164Y01447*
X08171Y01438*
X08179Y01432*
X0818Y01432*
Y0137*
X08113Y01303*
X08113Y01304*
X08102Y01305*
X08091Y01304*
X08081Y013*
X08072Y01293*
X08066Y01284*
X08061Y01274*
X0806Y01263*
X08061Y01252*
X08066Y01242*
X08072Y01234*
X08081Y01227*
X08091Y01223*
X08102Y01221*
X08113Y01223*
X08123Y01227*
X08131Y01234*
X08138Y01242*
X08142Y01252*
X08144Y01263*
X08142Y01274*
X08142Y01275*
X08215Y01347*
X08219Y01354*
X08221Y01362*
Y01432*
X08221Y01432*
X0823Y01438*
X08237Y01447*
X08241Y01457*
X08242Y01468*
X08241Y01479*
X0824Y01479*
X08338Y01577*
X08342Y01583*
X08344Y01591*
Y04914*
X08391Y04961*
X08396Y04968*
X08397Y04976*
Y0499*
X08398Y0499*
X08406Y04997*
X08413Y05006*
X08417Y05016*
X08419Y05027*
Y05042*
X08417Y05053*
X08413Y05063*
X08406Y05072*
X08398Y05079*
X08397Y05079*
Y05092*
X08577Y05272*
X0858Y05277*
X08585Y05276*
Y04724*
X08473Y04612*
X08469Y04606*
X08467Y04598*
Y03119*
X08469Y03112*
X08473Y03105*
X08515Y03063*
Y03005*
X08634*
Y03088*
X08548*
X08526Y0311*
X08529Y03114*
X08536Y03109*
X08546Y03105*
X08557Y03103*
X08592*
X08603Y03105*
X08613Y03109*
X08622Y03116*
X08628Y03124*
X08628Y03125*
X08638*
X08645Y03126*
X08652Y03131*
X08793Y03272*
X08798Y03279*
X08799Y03287*
Y05361*
X08804Y05364*
X0881Y05372*
X08813Y0538*
X08814Y05389*
X08813Y05398*
X0881Y05407*
X08804Y05414*
X08797Y0542*
X08788Y05423*
X08779Y05425*
X0877Y05423*
X08761Y0542*
X08754Y05414*
X08748Y05407*
X08745Y05398*
X08744Y05389*
X08745Y0538*
X08748Y05372*
X08754Y05364*
X08759Y05361*
Y03295*
X08632Y03169*
X08626Y03169*
X08622Y03175*
X08613Y03181*
X08603Y03186*
X08592Y03187*
X08557*
X08546Y03186*
X08536Y03181*
X08527Y03175*
X0852Y03166*
X08516Y03156*
X08515Y03145*
X08516Y03134*
X0852Y03124*
X08525Y03118*
X08522Y03115*
X08508Y03128*
Y04589*
X0862Y04702*
X08625Y04708*
X08626Y04716*
Y06604*
X08625Y06612*
X0862Y06618*
X08354Y06885*
X08354Y06889*
X08353Y06898*
X0835Y06906*
X08344Y06913*
X08337Y06919*
X08329Y06922*
X0832Y06923*
G37*
G36*
X07336Y05939D02*
X07327Y05938D01*
X07319Y05934*
X07312Y05929*
X07307Y05922*
X07303Y05914*
X07302Y05905*
X07303Y05896*
X07307Y05888*
X07312Y05881*
X07319Y05876*
X07327Y05872*
X07336Y05871*
X07345Y05872*
X07353Y05876*
X0736Y05881*
X07365Y05888*
X07369Y05896*
X0737Y05905*
X07369Y05914*
X07365Y05922*
X0736Y05929*
X07353Y05934*
X07345Y05938*
X07336Y05939*
G37*
G36*
Y05742D02*
X07327Y05741D01*
X07319Y05738*
X07312Y05732*
X07307Y05725*
X07303Y05717*
X07302Y05708*
X07303Y05699*
X07307Y05691*
X07312Y05684*
X07319Y05679*
X07327Y05675*
X07336Y05674*
X07345Y05675*
X07353Y05679*
X0736Y05684*
X07365Y05691*
X07369Y05699*
X0737Y05708*
X07369Y05717*
X07365Y05725*
X0736Y05732*
X07353Y05738*
X07345Y05741*
X07336Y05742*
G37*
G36*
X08377Y05384D02*
X08366Y05383D01*
X08356Y05379*
X08347Y05372*
X0834Y05363*
X08336Y05353*
X08335Y05342*
Y05327*
X08336Y05316*
X0834Y05306*
X08347Y05297*
X08356Y0529*
X08366Y05286*
X08377Y05285*
X08388Y05286*
X08398Y0529*
X08406Y05297*
X08413Y05306*
X08417Y05316*
X08419Y05327*
Y05342*
X08417Y05353*
X08413Y05363*
X08406Y05372*
X08398Y05379*
X08388Y05383*
X08377Y05384*
G37*
G36*
X07302Y08312D02*
X0694D01*
X06936Y08311*
X06932Y08311*
X06931Y08311*
X06931Y08311*
X06927Y08309*
X06923Y08308*
X06923Y08307*
X06922Y08307*
X06919Y08305*
X06916Y08302*
X06915Y08302*
X06915Y08301*
X06913Y08298*
X0691Y08295*
X0691Y08295*
X06909Y08294*
X06908Y0829*
X06906Y08287*
X06896Y08255*
X06893Y08243*
X06892Y08242*
X06883Y08236*
X06877Y08227*
X06872Y08217*
X06871Y08206*
Y08171*
X06872Y0816*
X06877Y0815*
X06878Y08149*
Y08101*
X06644Y07867*
X06638Y0786*
X06635Y07851*
X06633Y07842*
Y07758*
X06633Y07757*
X06628Y07747*
X06627Y07736*
Y0772*
X06628Y0771*
X06633Y07699*
X06639Y07691*
X06648Y07684*
X06658Y0768*
X06669Y07679*
X0668Y0768*
X0669Y07684*
X06698Y07691*
X06705Y07699*
X06709Y0771*
X06711Y0772*
Y07736*
X06709Y07747*
X06705Y07757*
X06704Y07758*
Y07827*
X06938Y08061*
X06943Y08068*
X06947Y08077*
X06948Y08086*
Y08149*
X06949Y0815*
X06953Y0816*
X06955Y08171*
Y08205*
X06964Y08234*
X06966Y08241*
X06981*
X06983Y08236*
X06982Y08236*
X06975Y08227*
X06971Y08217*
X06969Y08206*
Y08171*
X06971Y0816*
X06975Y0815*
X06982Y08141*
X0699Y08135*
X07Y0813*
Y07771*
X06995Y07768*
X0699Y07772*
X0698Y07777*
X06969Y07778*
X06958Y07777*
X06948Y07772*
X06939Y07766*
X06933Y07757*
X06928Y07747*
X06927Y07736*
Y0772*
X06928Y0771*
X06933Y07699*
X06939Y07691*
X06948Y07684*
X06958Y0768*
X06969Y07679*
X0698Y0768*
X0699Y07684*
X06995Y07688*
X07Y07686*
Y07647*
X06856Y07503*
X06852Y07497*
X0685Y07489*
Y07473*
X06848Y07472*
X06839Y07466*
X06833Y07457*
X06828Y07447*
X06827Y07436*
Y0742*
X06828Y0741*
X06833Y07399*
X06839Y07391*
X06848Y07384*
X06858Y0738*
X06869Y07379*
X0688Y0738*
X0689Y07384*
X06898Y07391*
X06905Y07399*
X06909Y0741*
X06911Y0742*
Y07436*
X06909Y07447*
X06905Y07457*
X06898Y07466*
X06891Y07471*
Y0748*
X07035Y07624*
X07039Y07631*
X07041Y07639*
Y08138*
X0704Y08141*
X07041Y08141*
X07048Y0815*
X07052Y0816*
X07053Y08171*
Y08206*
X07052Y08217*
X07048Y08227*
X07041Y08236*
X0704Y08236*
X07042Y08241*
X07068*
Y08129*
X07089*
Y07496*
X07041Y07448*
X07009*
X07005Y07457*
X06998Y07466*
X0699Y07472*
X0698Y07477*
X06969Y07478*
X06958Y07477*
X06948Y07472*
X06939Y07466*
X06933Y07457*
X06928Y07447*
X06927Y07436*
Y0742*
X06928Y0741*
X06933Y07399*
X06939Y07391*
X06948Y07384*
X06958Y0738*
X06969Y07379*
X0698Y0738*
X0699Y07384*
X06998Y07391*
X07005Y07399*
X07008Y07407*
X0705*
X07057Y07409*
X07064Y07413*
X07124Y07473*
X07129Y0748*
X0713Y07488*
Y08129*
X07151*
Y08241*
X07162*
X0739Y08013*
Y05179*
X07357Y05146*
X07353Y05148*
Y05178*
X07353Y05181*
X07353Y05184*
Y0523*
X07332*
Y05385*
X0733Y05392*
X07326Y05399*
X07002Y05723*
X06995Y05727*
X06988Y05729*
X06863*
X0686Y05732*
X06857Y05735*
Y05878*
X0686Y05881*
X06865Y05888*
X06869Y05896*
X0687Y05905*
X06869Y05914*
X06865Y05922*
X0686Y05929*
X06857Y05932*
Y06075*
X0686Y06078*
X06865Y06085*
X06869Y06093*
X0687Y06102*
X06869Y06111*
X06865Y06119*
X0686Y06126*
X06853Y06131*
X06845Y06135*
X06836Y06136*
X06827Y06135*
X06819Y06131*
X06819Y06131*
X06814Y06133*
X06813Y06136*
X06839Y06162*
X07061*
X0707Y06163*
X07078Y06167*
X07086Y06172*
X07115Y06201*
X07121Y06209*
X07124Y06217*
X07125Y06226*
Y06882*
X07124Y06891*
X07121Y069*
X07115Y06907*
X06704Y07318*
Y07398*
X06705Y07399*
X06709Y0741*
X06711Y0742*
Y07436*
X06709Y07447*
X06705Y07457*
X06698Y07466*
X0669Y07472*
X0668Y07477*
X06669Y07478*
X06658Y07477*
X06648Y07472*
X06639Y07466*
X06633Y07457*
X06628Y07447*
X06627Y07436*
Y0742*
X06628Y0741*
X06633Y07399*
X06633Y07398*
Y07304*
X06635Y07294*
X06638Y07286*
X06644Y07279*
X07055Y06868*
Y06241*
X07046Y06232*
X0691*
X06908Y06237*
X06939Y06269*
X06944Y06275*
X06945Y06283*
Y06692*
X06944Y067*
X06939Y06707*
X06782Y06864*
Y06895*
X0678Y06906*
X06776Y06916*
X06769Y06925*
X06761Y06931*
X0675Y06936*
X0674Y06937*
X06729Y06936*
X0672Y06932*
X0632Y07332*
Y07518*
X06318Y07526*
X06314Y07533*
X06065Y07782*
X06058Y07786*
X06051Y07788*
X059*
X059Y07789*
X05893Y07798*
X05884Y07805*
X05873Y0781*
X05862Y07811*
X0583*
X05819Y0781*
X05808Y07805*
X05799Y07798*
X05792Y07789*
X05788Y07779*
X05786Y07767*
X05788Y07756*
X05792Y07745*
X05799Y07736*
X05808Y07729*
X05819Y07725*
X0583Y07723*
X05862*
X05873Y07725*
X05884Y07729*
X05893Y07736*
X059Y07745*
X059Y07747*
X06042*
X06279Y0751*
Y07324*
X06281Y07316*
X06285Y07309*
X06653Y06941*
X06652Y06936*
X06652Y06936*
X06641Y06937*
X0663Y06936*
X0662Y06931*
X06612Y06925*
X06605Y06916*
X06601Y06906*
X06599Y06895*
Y0686*
X06601Y06849*
X06605Y06839*
X06612Y0683*
X0662Y06823*
X06621Y06823*
Y06768*
X0654Y06687*
X06536Y0668*
X06534Y06673*
Y0274*
X06139Y02344*
X06134Y02337*
X06133Y0233*
Y02302*
X06129Y02299*
X06124Y02292*
X0612Y02284*
X06119Y02275*
Y02228*
X0612Y02219*
X06124Y02211*
X06129Y02204*
X06136Y02199*
X06144Y02195*
X06153Y02194*
X06162Y02195*
X0617Y02199*
X06177Y02204*
X06182Y02211*
X06186Y02219*
X06187Y02228*
Y02275*
X06186Y02284*
X06182Y02292*
X06177Y02299*
X06173Y02302*
Y02321*
X06569Y02717*
X06573Y02723*
X06575Y02731*
Y06664*
X06656Y06745*
X0666Y06751*
X06662Y06759*
Y06823*
X06662Y06823*
X06671Y0683*
X06677Y06839*
X06682Y06849*
X06683Y0686*
Y06895*
X06682Y06906*
X06682Y06906*
X06687Y06907*
X06698Y06896*
X06698Y06895*
Y0686*
X06699Y06849*
X06703Y06839*
X0671Y0683*
X06719Y06823*
X06729Y06819*
X0674Y06818*
X0675Y06819*
X06761Y06823*
X06763Y06825*
X06904Y06684*
Y06291*
X06876Y06263*
X06851*
X0685Y06268*
X06853Y06269*
X0686Y06275*
X06865Y06282*
X06869Y0629*
X0687Y06299*
X06869Y06307*
X06865Y06316*
X0686Y06323*
X06853Y06328*
X06845Y06331*
X06836Y06333*
X06827Y06331*
X06819Y06328*
X06812Y06323*
X06809Y06319*
X06696*
X06688Y06318*
X06682Y06313*
X06592Y06223*
X06587Y06216*
X06586Y06209*
Y0256*
X06587Y02552*
X06592Y02546*
X06866Y02272*
X06873Y02267*
X06875Y02267*
Y02234*
X06876Y02225*
X0688Y02217*
X06885Y0221*
X06892Y02205*
X069Y02201*
X06909Y022*
X06918Y02201*
X06926Y02205*
X06933Y0221*
X06938Y02217*
X06942Y02225*
X06943Y02234*
Y02281*
X06942Y0229*
X06938Y02298*
X06933Y02305*
X06926Y0231*
X06918Y02314*
X06909Y02315*
X069Y02314*
X06892Y0231*
X06888Y02307*
X06627Y02569*
Y062*
X06705Y06278*
X06809*
X06812Y06275*
X06819Y06269*
X06823Y06268*
X06822Y06263*
X06762*
X06754Y06261*
X06748Y06257*
X0665Y0616*
X06646Y06153*
X06644Y06145*
Y05342*
X06646Y05334*
X0665Y05328*
X06735Y05243*
X06742Y05239*
X06749Y05237*
X0687*
X06883Y05224*
X06883Y05219*
X06882Y05218*
X06875Y0521*
X06871Y052*
X06869Y05189*
Y05173*
X06871Y05162*
X06875Y05152*
X06882Y05144*
X0689Y05137*
X069Y05133*
X06911Y05131*
X06922Y05133*
X06932Y05137*
X06941Y05144*
X06948Y05152*
X06952Y05162*
X06953Y05173*
Y05189*
X06952Y052*
X06948Y0521*
X06941Y05218*
X06932Y05225*
X06932Y05225*
X0693Y05232*
X06926Y05239*
X06893Y05272*
X06886Y05276*
X06878Y05278*
X06758*
X06685Y0535*
Y06137*
X06771Y06222*
X06792*
X06794Y06217*
X06752Y06174*
X06746Y06167*
X06742Y06159*
X06741Y0615*
Y05398*
X06742Y05388*
X06746Y0538*
X06752Y05373*
X06753Y05372*
X0676Y05366*
X06768Y05362*
X06778Y05361*
X06913*
X06976Y05298*
Y05211*
X06975Y0521*
X06971Y052*
X06969Y05189*
Y05173*
X06971Y05162*
X06975Y05152*
X06982Y05144*
X0699Y05137*
X07Y05133*
X07011Y05131*
X07022Y05133*
X07032Y05137*
X07041Y05144*
X07048Y05152*
X07052Y05162*
X07053Y05173*
Y05189*
X07052Y052*
X07048Y0521*
X07047Y05211*
Y05313*
X07045Y05322*
X07042Y05331*
X07036Y05338*
X06953Y05421*
X06945Y05427*
X06937Y05431*
X06928Y05432*
X06812*
Y05481*
X06817Y05484*
X06819Y05482*
X06827Y05479*
X06836Y05477*
X06845Y05479*
X06853Y05482*
X0686Y05487*
X06863Y05491*
X06956*
X07091Y05356*
Y05225*
X0709Y05225*
X07082Y05218*
X07075Y0521*
X07071Y052*
X07069Y05189*
Y05173*
X07071Y05162*
X07075Y05152*
X07082Y05144*
X0709Y05137*
X071Y05133*
X07111Y05131*
X07122Y05133*
X07132Y05137*
X07141Y05144*
X07148Y05152*
X07152Y05162*
X07153Y05173*
Y05189*
X07152Y052*
X07148Y0521*
X07141Y05218*
X07132Y05225*
X07132Y05225*
Y05365*
X0713Y05372*
X07126Y05379*
X06979Y05526*
X06972Y0553*
X06965Y05532*
X06863*
X0686Y05535*
X06853Y05541*
X06845Y05544*
X06836Y05545*
X06827Y05544*
X06819Y05541*
X06817Y05539*
X06812Y05541*
Y05678*
X06817Y05681*
X06819Y05679*
X06827Y05675*
X06836Y05674*
X06845Y05675*
X06853Y05679*
X0686Y05684*
X06863Y05688*
X06979*
X07291Y05376*
Y0523*
X0727*
Y05184*
X07269Y05181*
X0727Y05178*
Y05132*
X07336*
X07338Y05127*
X07222Y05011*
X07041*
X07031Y0501*
X07023Y05006*
X07016Y05001*
X06986Y04972*
X06981Y04964*
X06977Y04956*
X06976Y04947*
Y04911*
X06975Y0491*
X06971Y049*
X06969Y04889*
Y04873*
X06971Y04862*
X06975Y04852*
X06982Y04844*
X0699Y04837*
X07Y04833*
X07011Y04831*
X07022Y04833*
X07032Y04837*
X07041Y04844*
X07048Y04852*
X07052Y04862*
X07053Y04873*
Y04889*
X07052Y049*
X07048Y0491*
X07047Y04911*
Y04932*
X07055Y04941*
X07237*
X07246Y04942*
X07255Y04945*
X07262Y04951*
X0745Y0514*
X07456Y05147*
X0746Y05155*
X07461Y05165*
Y08028*
X0746Y08037*
X07456Y08045*
X0745Y08052*
X07266Y08237*
X07268Y08241*
X07287*
X08141Y07387*
Y05365*
X0814Y05363*
X08136Y05353*
X08135Y05342*
Y05327*
X08136Y05316*
X0814Y05306*
X08147Y05297*
X08156Y0529*
X08166Y05286*
X08177Y05285*
X08188Y05286*
X08198Y0529*
X08206Y05297*
X08213Y05306*
X08217Y05316*
X08219Y05327*
Y05342*
X08217Y05353*
X08213Y05363*
X08212Y05365*
Y07401*
X08211Y0741*
X08207Y07419*
X08202Y07426*
X07326Y08301*
X07319Y08307*
X07311Y08311*
X07302Y08312*
G37*
G36*
X08077Y05384D02*
X08066Y05383D01*
X08056Y05379*
X08047Y05372*
X0804Y05363*
X08036Y05353*
X08035Y05342*
Y05327*
X08036Y05316*
X0804Y05306*
X08047Y05297*
X08056Y0529*
X08066Y05286*
X08077Y05285*
X08088Y05286*
X08098Y0529*
X08106Y05297*
X08113Y05306*
X08117Y05316*
X08119Y05327*
Y05342*
X08117Y05353*
X08113Y05363*
X08106Y05372*
X08098Y05379*
X08088Y05383*
X08077Y05384*
G37*
G36*
X07977D02*
X07966Y05383D01*
X07956Y05379*
X07947Y05372*
X0794Y05363*
X07936Y05353*
X07935Y05342*
Y05327*
X07936Y05316*
X0794Y05306*
X07947Y05297*
X07956Y0529*
X07966Y05286*
X07977Y05285*
X07988Y05286*
X07998Y0529*
X08006Y05297*
X08013Y05306*
X08017Y05316*
X08019Y05327*
Y05342*
X08017Y05353*
X08013Y05363*
X08006Y05372*
X07998Y05379*
X07988Y05383*
X07977Y05384*
G37*
G36*
X06248Y06937D02*
X06237Y06936D01*
X06227Y06931*
X06218Y06925*
X06211Y06916*
X06207Y06906*
X06206Y06895*
Y0686*
X06207Y06849*
X06211Y06839*
X06218Y0683*
X06227Y06823*
X06227Y06823*
Y06392*
X06048Y06213*
X06044Y06206*
X06042Y06198*
Y0552*
X06044Y05513*
X06048Y05506*
X06113Y05441*
Y05369*
X06109Y05366*
X06104Y05359*
X06101Y05351*
X06099Y05342*
Y05295*
X06101Y05286*
X06104Y05278*
X06109Y05271*
X06116Y05266*
X06125Y05262*
X06133Y05261*
X06142Y05262*
X0615Y05266*
X06157Y05271*
X06163Y05278*
X06166Y05286*
X06167Y05295*
Y05342*
X06166Y05351*
X06163Y05359*
X06157Y05366*
X06154Y05369*
Y0545*
X06152Y05457*
X06148Y05464*
X06083Y05529*
Y0619*
X06262Y06369*
X06266Y06376*
X06268Y06384*
Y06823*
X06268Y06823*
X06277Y0683*
X06284Y06839*
X06288Y06849*
X06289Y0686*
Y06895*
X06288Y06906*
X06284Y06916*
X06277Y06925*
X06268Y06931*
X06258Y06936*
X06248Y06937*
G37*
G36*
X09208Y05324D02*
X09125D01*
Y05226*
X09208*
Y05324*
G37*
G36*
X09566Y05325D02*
X09556Y05323D01*
X09546Y05319*
X09537Y05313*
X0953Y05304*
X09526Y05294*
X09525Y05283*
Y05267*
X09526Y05256*
X0953Y05246*
X09537Y05238*
X09546Y05231*
X09556Y05227*
X09566Y05225*
X09577Y05227*
X09587Y05231*
X09596Y05238*
X09603Y05246*
X09607Y05256*
X09608Y05267*
Y05283*
X09607Y05294*
X09603Y05304*
X09596Y05313*
X09587Y05319*
X09577Y05323*
X09566Y05325*
G37*
G36*
X09466D02*
X09456Y05323D01*
X09446Y05319*
X09437Y05313*
X0943Y05304*
X09426Y05294*
X09425Y05283*
Y05267*
X09426Y05256*
X0943Y05246*
X09437Y05238*
X09446Y05231*
X09456Y05227*
X09466Y05225*
X09477Y05227*
X09487Y05231*
X09496Y05238*
X09503Y05246*
X09507Y05256*
X09508Y05267*
Y05283*
X09507Y05294*
X09503Y05304*
X09496Y05313*
X09487Y05319*
X09477Y05323*
X09466Y05325*
G37*
G36*
X09366D02*
X09356Y05323D01*
X09346Y05319*
X09337Y05313*
X0933Y05304*
X09326Y05294*
X09325Y05283*
Y05267*
X09326Y05256*
X0933Y05246*
X09337Y05238*
X09346Y05231*
X09356Y05227*
X09366Y05225*
X09377Y05227*
X09387Y05231*
X09396Y05238*
X09403Y05246*
X09407Y05256*
X09408Y05267*
Y05283*
X09407Y05294*
X09403Y05304*
X09396Y05313*
X09387Y05319*
X09377Y05323*
X09366Y05325*
G37*
G36*
X09266D02*
X09256Y05323D01*
X09246Y05319*
X09237Y05313*
X0923Y05304*
X09226Y05294*
X09225Y05283*
Y05267*
X09226Y05256*
X0923Y05246*
X09237Y05238*
X09246Y05231*
X09256Y05227*
X09266Y05225*
X09277Y05227*
X09287Y05231*
X09296Y05238*
X09303Y05246*
X09307Y05256*
X09308Y05267*
Y05283*
X09307Y05294*
X09303Y05304*
X09296Y05313*
X09287Y05319*
X09277Y05323*
X09266Y05325*
G37*
G36*
X06811Y05231D02*
X068Y05229D01*
X0679Y05225*
X06782Y05218*
X06775Y0521*
X06771Y052*
X06769Y05189*
Y05173*
X06771Y05162*
X06775Y05152*
X06782Y05144*
X0679Y05137*
X068Y05133*
X06811Y05131*
X06822Y05133*
X06832Y05137*
X06841Y05144*
X06848Y05152*
X06852Y05162*
X06853Y05173*
Y05189*
X06852Y052*
X06848Y0521*
X06841Y05218*
X06832Y05225*
X06822Y05229*
X06811Y05231*
G37*
G36*
X07211D02*
X072Y05229D01*
X0719Y05225*
X07182Y05218*
X07175Y0521*
X07171Y052*
X07169Y05189*
Y05173*
X07171Y05162*
X07175Y05152*
X07182Y05144*
X0719Y05137*
X07191Y05137*
Y05123*
X07143Y05075*
X06737*
X06733Y0508*
X06726Y05085*
X06717Y05089*
X06708Y0509*
X06699Y05089*
X06691Y05085*
X06683Y0508*
X06682Y05079*
X06677Y0508*
Y05105*
X06704Y05132*
X06711Y05131*
X06722Y05133*
X06732Y05137*
X06741Y05144*
X06748Y05152*
X06752Y05162*
X06753Y05173*
Y05189*
X06752Y052*
X06748Y0521*
X06741Y05218*
X06732Y05225*
X06722Y05229*
X06711Y05231*
X067Y05229*
X0669Y05225*
X06682Y05218*
X06675Y0521*
X06671Y052*
X06669Y05189*
Y05173*
X06671Y05162*
X06673Y05158*
X06643Y05128*
X06638Y05121*
X06637Y05114*
Y03496*
X06638Y03488*
X06643Y03482*
X07184Y0294*
Y01965*
X0656Y01341*
X06555Y01334*
X06554Y01326*
Y01286*
X06549Y01285*
X06548Y01288*
X06541Y01297*
X06532Y01303*
X06532Y01304*
Y01365*
X06598Y01432*
X06599Y01432*
X0661Y0143*
X06621Y01432*
X06631Y01436*
X06639Y01442*
X06646Y01451*
X0665Y01461*
X06652Y01472*
X0665Y01483*
X06646Y01493*
X06639Y01502*
X06631Y01508*
X06621Y01512*
X0661Y01514*
X06599Y01512*
X06593Y0151*
X0659Y01514*
X07077Y02001*
X07081Y02007*
X07083Y02015*
Y02389*
X07081Y02397*
X07077Y02404*
X06948Y02533*
X06943Y02536*
Y02576*
X06942Y02585*
X06938Y02593*
X06933Y026*
X06926Y02605*
X06918Y02609*
X06909Y0261*
X069Y02609*
X06892Y02605*
X06885Y026*
X0688Y02593*
X06876Y02585*
X06875Y02576*
Y02529*
X06876Y0252*
X0688Y02512*
X06885Y02505*
X06892Y025*
X069Y02497*
X06909Y02495*
X06918Y02497*
X06923Y02499*
X06925Y02498*
X07042Y02381*
Y02024*
X06347Y01329*
X06343Y01322*
X06341Y01314*
Y00989*
X06342Y00984*
X06341Y00983*
X06337Y00973*
X06336Y00962*
Y00927*
X06337Y00916*
X06341Y00906*
X06348Y00897*
X06357Y0089*
X06367Y00886*
X06377Y00885*
X06388Y00886*
X06398Y0089*
X06407Y00897*
X06414Y00906*
X06418Y00916*
X06419Y00927*
Y00962*
X06418Y00973*
X06414Y00983*
X06407Y00992*
X06398Y00998*
X06388Y01003*
X06382Y01003*
Y01306*
X06567Y01491*
X06572Y01489*
X06569Y01483*
X06568Y01472*
X06569Y01461*
X0657Y01461*
X06497Y01388*
X06492Y01381*
X06491Y01374*
Y01304*
X0649Y01303*
X06482Y01297*
X06475Y01288*
X06471Y01278*
X06469Y01267*
X06471Y01256*
X06475Y01246*
X06482Y01238*
X0649Y01231*
X065Y01227*
X06511Y01225*
X06522Y01227*
X06532Y01231*
X06541Y01238*
X06548Y01246*
X06549Y0125*
X06554Y01249*
Y01004*
X06533*
Y00885*
X06616*
Y01004*
X06595*
Y01318*
X07219Y01942*
X07223Y01948*
X07225Y01956*
Y02949*
X07223Y02957*
X07219Y02963*
X06906Y03275*
X06907Y03277*
X06909Y0328*
X06917Y03279*
X06926Y0328*
X06934Y03283*
X06941Y03289*
X06946Y03296*
X0695Y03304*
X06951Y03313*
Y03359*
X0695Y03368*
X06946Y03376*
X06941Y03383*
X06934Y03389*
X06926Y03392*
X06917Y03393*
X06908Y03392*
X069Y03389*
X06893Y03383*
X06887Y03376*
X06884Y03368*
X06883Y03359*
Y03313*
X06884Y03305*
X06881Y03303*
X06879Y03302*
X06677Y03504*
Y04842*
X06682Y04843*
X0669Y04837*
X067Y04833*
X06711Y04831*
X06722Y04833*
X06732Y04837*
X06741Y04844*
X06748Y04852*
X06752Y04862*
X06753Y04873*
Y04889*
X06752Y049*
X06748Y0491*
X06741Y04918*
X06732Y04925*
X06722Y04929*
X06711Y04931*
X067Y04929*
X0669Y04925*
X06682Y04919*
X06677Y0492*
Y05029*
X06682Y05031*
X06683Y0503*
X06691Y05024*
X06699Y05021*
X06708Y05019*
X06717Y05021*
X06726Y05024*
X06733Y0503*
X06737Y05034*
X07151*
X07159Y05036*
X07166Y0504*
X07226Y051*
X0723Y05107*
X07232Y05114*
Y05137*
X07232Y05137*
X07241Y05144*
X07248Y05152*
X07252Y05162*
X07253Y05173*
Y05189*
X07252Y052*
X07248Y0521*
X07241Y05218*
X07232Y05225*
X07222Y05229*
X07211Y05231*
G37*
G36*
X08277Y05384D02*
X08266Y05383D01*
X08256Y05379*
X08247Y05372*
X0824Y05363*
X08236Y05353*
X08235Y05342*
Y05327*
X08236Y05316*
X0824Y05306*
X08247Y05297*
X08256Y0529*
X08256Y0529*
Y05079*
X08256Y05079*
X08247Y05072*
X0824Y05063*
X08236Y05053*
X08235Y05042*
Y05027*
X08236Y05016*
X0824Y05006*
X08247Y04997*
X08256Y0499*
X08266Y04986*
X08277Y04985*
X08288Y04986*
X08298Y0499*
X08306Y04997*
X08313Y05006*
X08317Y05016*
X08319Y05027*
Y05042*
X08317Y05053*
X08313Y05063*
X08306Y05072*
X08298Y05079*
X08297Y05079*
Y0529*
X08298Y0529*
X08306Y05297*
X08313Y05306*
X08317Y05316*
X08319Y05327*
Y05342*
X08317Y05353*
X08313Y05363*
X08306Y05372*
X08298Y05379*
X08288Y05383*
X08277Y05384*
G37*
G36*
X08177Y05084D02*
X08166Y05083D01*
X08156Y05079*
X08147Y05072*
X0814Y05063*
X08136Y05053*
X08135Y05042*
Y05027*
X08136Y05016*
X0814Y05006*
X08147Y04997*
X08156Y0499*
X08166Y04986*
X08177Y04985*
X08188Y04986*
X08198Y0499*
X08206Y04997*
X08213Y05006*
X08217Y05016*
X08219Y05027*
Y05042*
X08217Y05053*
X08213Y05063*
X08206Y05072*
X08198Y05079*
X08188Y05083*
X08177Y05084*
G37*
G36*
X07977D02*
X07966Y05083D01*
X07956Y05079*
X07947Y05072*
X0794Y05063*
X07936Y05053*
X07935Y05042*
Y05027*
X07936Y05016*
X0794Y05006*
X07947Y04997*
X07956Y0499*
X07966Y04986*
X07977Y04985*
X07988Y04986*
X07998Y0499*
X08006Y04997*
X08013Y05006*
X08017Y05016*
X08019Y05027*
Y05042*
X08017Y05053*
X08013Y05063*
X08006Y05072*
X07998Y05079*
X07988Y05083*
X07977Y05084*
G37*
G36*
X06346Y06937D02*
X06335Y06936D01*
X06325Y06931*
X06316Y06925*
X0631Y06916*
X06306Y06906*
X06304Y06895*
Y0686*
X06306Y06849*
X0631Y06839*
X06316Y0683*
X06325Y06823*
X06326Y06823*
Y04994*
X06199Y04868*
X06179*
Y04871*
X06178Y0488*
X06175Y04888*
X06169Y04895*
X06162Y04901*
X06154Y04904*
X06145Y04905*
X06136Y04904*
X06128Y04901*
X06121Y04895*
X06116Y04888*
X06112Y0488*
X06111Y04871*
Y04825*
X06112Y04816*
X06116Y04808*
X06121Y04801*
X06128Y04795*
X06136Y04792*
X06145Y04791*
X06154Y04792*
X06162Y04795*
X06169Y04801*
X06175Y04808*
X06178Y04816*
X06179Y04825*
Y04827*
X06208*
X06215Y04829*
X06222Y04833*
X0636Y04972*
X06365Y04978*
X06366Y04986*
Y06823*
X06367Y06823*
X06376Y0683*
X06382Y06839*
X06386Y06849*
X06388Y0686*
Y06895*
X06386Y06906*
X06382Y06916*
X06376Y06925*
X06367Y06931*
X06357Y06936*
X06346Y06937*
G37*
G36*
X08968Y067D02*
X08959Y06699D01*
X0895Y06695*
X08943Y0669*
X08937Y06683*
X08934Y06674*
X08933Y06665*
X08934Y06656*
X08937Y06647*
X08943Y0664*
X0895Y06634*
X08959Y06631*
X08968Y0663*
X08974Y0663*
X0902Y06584*
Y04855*
X09015Y04853*
X09012Y04857*
X09004Y04864*
X08994Y04868*
X08983Y04869*
X08972Y04868*
X08962Y04864*
X08953Y04857*
X08947Y04849*
X08945Y04849*
X08942Y0485*
Y05996*
X0894Y06003*
X08936Y0601*
X08772Y06174*
X08773Y0618*
X08772Y06189*
X08768Y06197*
X08762Y06204*
X08755Y0621*
X08747Y06214*
X08738Y06215*
X08728Y06214*
X0872Y0621*
X08713Y06204*
X08707Y06197*
X08703Y06189*
X08702Y0618*
X08703Y0617*
X08707Y06162*
X08713Y06155*
X0872Y06149*
X08728Y06145*
X08738Y06144*
X08743Y06145*
X08901Y05987*
Y01536*
X08903Y01528*
X08907Y01522*
X09093Y01336*
X09093Y01335*
X09091Y01324*
X09093Y01313*
X09097Y01303*
X09104Y01295*
X09112Y01288*
X09123Y01284*
X09133Y01282*
X09144Y01284*
X09154Y01288*
X09163Y01295*
X0917Y01303*
X09174Y01313*
X09175Y01324*
X09174Y01335*
X0917Y01345*
X09163Y01354*
X09154Y01361*
X09144Y01365*
X09133Y01366*
X09123Y01365*
X09122Y01365*
X08942Y01545*
Y01576*
X08945Y01577*
X08947Y01577*
X08953Y01569*
X08962Y01563*
X08972Y01558*
X08983Y01557*
X08994Y01558*
X09004Y01563*
X09012Y01569*
X09019Y01578*
X09023Y01588*
X09025Y01599*
X09023Y0161*
X09019Y0162*
X09012Y01629*
X09004Y01635*
X08994Y01639*
X08983Y01641*
X08972Y01639*
X08962Y01635*
X08953Y01629*
X08947Y0162*
X08945Y0162*
X08942Y01622*
Y02639*
X08945Y0264*
X08947Y0264*
X08953Y02632*
X08962Y02626*
X08972Y02621*
X08983Y0262*
X08994Y02621*
X09004Y02626*
X09012Y02632*
X09019Y02641*
X09023Y02651*
X09025Y02662*
X09023Y02673*
X09019Y02683*
X09012Y02691*
X09004Y02698*
X08994Y02702*
X08983Y02704*
X08972Y02702*
X08962Y02698*
X08953Y02691*
X08947Y02683*
X08945Y02683*
X08942Y02685*
Y03741*
X08945Y03743*
X08947Y03743*
X08953Y03735*
X08962Y03728*
X08972Y03724*
X08983Y03722*
X08994Y03724*
X09004Y03728*
X09012Y03735*
X09019Y03743*
X09023Y03753*
X09025Y03764*
X09023Y03775*
X09023Y03776*
X09681Y04434*
X09685Y0444*
X09687Y04448*
Y05231*
X09687Y05231*
X09696Y05238*
X09703Y05246*
X09707Y05256*
X09708Y05267*
Y05283*
X09707Y05294*
X09703Y05304*
X09696Y05313*
X09687Y05319*
X09677Y05323*
X09666Y05325*
X09656Y05323*
X09646Y05319*
X09637Y05313*
X0963Y05304*
X09626Y05294*
X09625Y05283*
Y05267*
X09626Y05256*
X0963Y05246*
X09637Y05238*
X09646Y05231*
X09646Y05231*
Y04456*
X08994Y03804*
X08994Y03805*
X08983Y03806*
X08972Y03805*
X08962Y03801*
X08953Y03794*
X08947Y03786*
X08945Y03786*
X08942Y03787*
Y04804*
X08945Y04806*
X08947Y04806*
X08953Y04798*
X08962Y04791*
X08972Y04787*
X08983Y04785*
X08994Y04787*
X09004Y04791*
X09012Y04798*
X09015Y04801*
X0902Y048*
Y04645*
X09022Y04638*
X09026Y04631*
X09093Y04564*
X09093Y04563*
X09091Y04553*
X09093Y04542*
X09097Y04532*
X09104Y04523*
X09112Y04516*
X09123Y04512*
X09133Y04511*
X09144Y04512*
X09154Y04516*
X09163Y04523*
X0917Y04532*
X09174Y04542*
X09175Y04553*
X09174Y04563*
X0917Y04574*
X09163Y04582*
X09154Y04589*
X09144Y04593*
X09133Y04595*
X09123Y04593*
X09122Y04593*
X09061Y04654*
Y06592*
X09059Y066*
X09055Y06607*
X09003Y06659*
X09003Y06665*
X09002Y06674*
X08999Y06683*
X08993Y0669*
X08986Y06695*
X08977Y06699*
X08968Y067*
G37*
G36*
X07211Y04931D02*
X072Y04929D01*
X0719Y04925*
X07182Y04918*
X07175Y0491*
X07171Y049*
X07169Y04889*
Y04873*
X07171Y04862*
X07175Y04852*
X07182Y04844*
X0719Y04837*
X072Y04833*
X07211Y04831*
X07222Y04833*
X07232Y04837*
X07241Y04844*
X07248Y04852*
X07252Y04862*
X07253Y04873*
Y04889*
X07252Y049*
X07248Y0491*
X07241Y04918*
X07232Y04925*
X07222Y04929*
X07211Y04931*
G37*
G36*
X08193Y04616D02*
X08074D01*
Y04533*
X08193*
Y04616*
G37*
G36*
X0632Y0488D02*
X06309Y04878D01*
X06299Y04874*
X06291Y04868*
X06285Y0486*
X06281Y0485*
X06279Y0484*
X06281Y04829*
X06285Y04819*
X06291Y04811*
X06299Y04805*
Y04594*
X06291Y04588*
X06285Y0458*
X06281Y0457*
X06279Y0456*
X06281Y04549*
X06285Y04539*
X06291Y04531*
X06299Y04525*
X06309Y04521*
X0632Y04519*
X0633Y04521*
X0634Y04525*
X06348Y04531*
X06354Y04539*
X06358Y04549*
X0636Y0456*
X06358Y0457*
X06354Y0458*
X06348Y04588*
X0634Y04594*
Y04805*
X06348Y04811*
X06354Y04819*
X06358Y04829*
X0636Y0484*
X06358Y0485*
X06354Y0486*
X06348Y04868*
X0634Y04874*
X0633Y04878*
X0632Y0488*
G37*
G36*
X09448Y04595D02*
X09437Y04593D01*
X09427Y04589*
X09419Y04582*
X09412Y04574*
X09408Y04563*
X09406Y04553*
X09408Y04542*
X09412Y04532*
X09419Y04523*
X09427Y04516*
X09437Y04512*
X09448Y04511*
X09459Y04512*
X09469Y04516*
X09478Y04523*
X09485Y04532*
X09489Y04542*
X0949Y04553*
X09489Y04563*
X09485Y04574*
X09478Y04582*
X09469Y04589*
X09459Y04593*
X09448Y04595*
G37*
G36*
X08151Y04518D02*
X08116D01*
X08105Y04516*
X08095Y04512*
X08086Y04505*
X08079Y04497*
X08075Y04487*
X08074Y04476*
X08075Y04465*
X08079Y04455*
X08086Y04446*
X08095Y0444*
X08105Y04435*
X08116Y04434*
X08151*
X08162Y04435*
X08172Y0444*
X08181Y04446*
X08187Y04455*
X08192Y04465*
X08193Y04476*
X08192Y04487*
X08187Y04497*
X08181Y04505*
X08172Y04512*
X08162Y04516*
X08151Y04518*
G37*
G36*
Y04419D02*
X08116D01*
X08105Y04418*
X08095Y04414*
X08086Y04407*
X08079Y04398*
X08075Y04388*
X08074Y04377*
X08075Y04367*
X08079Y04357*
X08086Y04348*
X08095Y04341*
X08105Y04337*
X08116Y04336*
X08151*
X08162Y04337*
X08172Y04341*
X08181Y04348*
X08187Y04357*
X08192Y04367*
X08193Y04377*
X08192Y04388*
X08187Y04398*
X08181Y04407*
X08172Y04414*
X08162Y04418*
X08151Y04419*
G37*
G36*
X07228Y04376D02*
X07181D01*
X07172Y04375*
X07164Y04371*
X07157Y04366*
X07151Y04359*
X07148Y04351*
X07147Y04342*
X07148Y04333*
X07151Y04325*
X07157Y04318*
X07164Y04313*
X07172Y04309*
X07181Y04308*
X07228*
X07236Y04309*
X07245Y04313*
X07252Y04318*
X07257Y04325*
X0726Y04333*
X07262Y04342*
X0726Y04351*
X07257Y04359*
X07252Y04366*
X07245Y04371*
X07236Y04375*
X07228Y04376*
G37*
G36*
X06798D02*
X06752D01*
X06743Y04375*
X06735Y04371*
X06728Y04366*
X06722Y04359*
X06719Y04351*
X06718Y04342*
X06719Y04333*
X06722Y04325*
X06728Y04318*
X06735Y04313*
X06743Y04309*
X06752Y04308*
X06798*
X06807Y04309*
X06815Y04313*
X06822Y04318*
X06828Y04325*
X06831Y04333*
X06832Y04342*
X06831Y04351*
X06828Y04359*
X06822Y04366*
X06815Y04371*
X06807Y04375*
X06798Y04376*
G37*
G36*
X08151Y04321D02*
X08116D01*
X08105Y04319*
X08095Y04315*
X08086Y04309*
X08079Y043*
X08075Y0429*
X08074Y04279*
X08075Y04268*
X08079Y04258*
X08086Y04249*
X08095Y04243*
X08105Y04239*
X08116Y04237*
X08151*
X08162Y04239*
X08172Y04243*
X08181Y04249*
X08187Y04258*
X08192Y04268*
X08193Y04279*
X08192Y0429*
X08187Y043*
X08181Y04309*
X08172Y04315*
X08162Y04319*
X08151Y04321*
G37*
G36*
X07661Y04376D02*
X07614D01*
X07605Y04375*
X07597Y04371*
X0759Y04366*
X07585Y04359*
X07581Y04351*
X0758Y04342*
X07581Y04333*
X07585Y04325*
X07588Y04321*
X07551Y04285*
X07547Y04278*
X07545Y0427*
Y03934*
X07547Y03926*
X07551Y0392*
X07588Y03883*
X07585Y03879*
X07581Y03871*
X0758Y03863*
X07581Y03854*
X07585Y03846*
X0759Y03839*
X07597Y03833*
X07605Y0383*
X07614Y03829*
X07661*
X07669Y0383*
X07678Y03833*
X07685Y03839*
X0769Y03846*
X07693Y03854*
X07695Y03863*
X07693Y03871*
X0769Y03879*
X07685Y03886*
X07678Y03892*
X07669Y03895*
X07661Y03896*
X07632*
X07586Y03943*
Y04178*
X07591Y0418*
X07597Y04175*
X07605Y04171*
X07614Y0417*
X07661*
X07669Y04171*
X07678Y04175*
X07685Y0418*
X0769Y04187*
X07693Y04195*
X07695Y04204*
X07693Y04213*
X0769Y04221*
X07685Y04228*
X07678Y04234*
X07669Y04237*
X07661Y04238*
X07614*
X07605Y04237*
X07597Y04234*
X07591Y04229*
X07586Y0423*
Y04262*
X07632Y04308*
X07661*
X07669Y04309*
X07678Y04313*
X07685Y04318*
X0769Y04325*
X07693Y04333*
X07695Y04342*
X07693Y04351*
X0769Y04359*
X07685Y04366*
X07678Y04371*
X07669Y04375*
X07661Y04376*
G37*
G36*
X07228Y04238D02*
X07181D01*
X07172Y04237*
X07164Y04234*
X07157Y04228*
X07151Y04221*
X07148Y04213*
X07147Y04204*
X07148Y04195*
X07151Y04187*
X07157Y0418*
X07164Y04175*
X07172Y04171*
X07181Y0417*
X07228*
X07236Y04171*
X07245Y04175*
X07252Y0418*
X07257Y04187*
X0726Y04195*
X07262Y04204*
X0726Y04213*
X07257Y04221*
X07252Y04228*
X07245Y04234*
X07236Y04237*
X07228Y04238*
G37*
G36*
X06798D02*
X06752D01*
X06743Y04237*
X06735Y04234*
X06728Y04228*
X06722Y04221*
X06719Y04213*
X06718Y04204*
X06719Y04195*
X06722Y04187*
X06728Y0418*
X06735Y04175*
X06743Y04171*
X06752Y0417*
X06798*
X06807Y04171*
X06815Y04175*
X06822Y0418*
X06828Y04187*
X06831Y04195*
X06832Y04204*
X06831Y04213*
X06828Y04221*
X06822Y04228*
X06815Y04234*
X06807Y04237*
X06798Y04238*
G37*
G36*
X08151Y04222D02*
X08116D01*
X08105Y04221*
X08095Y04217*
X08086Y0421*
X08079Y04202*
X08075Y04191*
X08074Y04181*
X08075Y0417*
X08079Y0416*
X08086Y04151*
X08095Y04144*
X08105Y0414*
X08116Y04139*
X08151*
X08162Y0414*
X08172Y04144*
X08181Y04151*
X08187Y0416*
X08192Y0417*
X08193Y04181*
X08192Y04191*
X08187Y04202*
X08181Y0421*
X08172Y04217*
X08162Y04221*
X08151Y04222*
G37*
G36*
Y04124D02*
X08116D01*
X08105Y04123*
X08095Y04118*
X08086Y04112*
X08079Y04103*
X08079Y04103*
X08064*
X08056Y04101*
X08049Y04097*
X08045Y0409*
X08043Y04082*
Y03753*
X08039Y0375*
X08033Y03742*
X08029Y03734*
X08028Y03725*
X08029Y03716*
X08033Y03707*
X08039Y037*
X08046Y03694*
X08054Y03691*
X08064Y03689*
X08073Y03691*
X08081Y03694*
X08088Y037*
X08094Y03707*
X08098Y03716*
X08099Y03725*
X08098Y03734*
X08094Y03742*
X08088Y0375*
X08084Y03753*
Y0395*
X08089Y03952*
X08095Y03948*
X08105Y03943*
X08116Y03942*
X08151*
X08162Y03943*
X08172Y03948*
X08181Y03954*
X08187Y03963*
X08192Y03973*
X08193Y03984*
X08192Y03995*
X08187Y04005*
X08181Y04013*
X08172Y0402*
X08162Y04024*
X08151Y04026*
X08116*
X08105Y04024*
X08095Y0402*
X08089Y04016*
X08084Y04018*
Y04048*
X08089Y0405*
X08095Y04046*
X08105Y04042*
X08116Y0404*
X08151*
X08162Y04042*
X08172Y04046*
X08181Y04053*
X08187Y04061*
X08192Y04071*
X08193Y04082*
X08192Y04093*
X08187Y04103*
X08181Y04112*
X08172Y04118*
X08162Y04123*
X08151Y04124*
G37*
G36*
X06133Y06139D02*
X06125Y06138D01*
X06116Y06135*
X06109Y0613*
X06104Y06123*
X06101Y06114*
X06099Y06106*
Y06059*
X06101Y0605*
X06104Y06042*
X06109Y06035*
X06113Y06032*
Y05664*
X06109Y05661*
X06104Y05654*
X06101Y05646*
X06099Y05637*
Y0559*
X06101Y05582*
X06104Y05573*
X06109Y05566*
X06116Y05561*
X06125Y05558*
X06133Y05556*
X06142Y05558*
X0615Y05561*
X06154Y05564*
X06204Y05515*
Y05181*
X06052Y0503*
X06048Y05023*
X06046Y05015*
Y04762*
X06048Y04754*
X06052Y04748*
X06125Y04675*
Y04603*
X06121Y046*
X06116Y04593*
X06112Y04585*
X06111Y04576*
Y04529*
X06112Y04521*
X06116Y04512*
X06121Y04505*
X06125Y04503*
Y04097*
X06121Y04094*
X06116Y04087*
X06112Y04079*
X06111Y0407*
Y04023*
X06112Y04019*
X06017Y03924*
X06012Y03917*
X06011Y03909*
Y03145*
X06012Y03137*
X06017Y03131*
X06089Y03058*
X06095Y03054*
X06103Y03053*
X06111*
Y03033*
X06112Y03024*
X06116Y03016*
X06121Y03009*
X06125Y03006*
Y02805*
X06125Y02805*
X06125Y02805*
X06131Y02596*
X06129Y02594*
X06124Y02587*
X0612Y02579*
X06119Y0257*
Y02523*
X0612Y02515*
X06124Y02506*
X06129Y02499*
X06136Y02494*
X06144Y02491*
X06153Y02489*
X06162Y02491*
X0617Y02494*
X06177Y02499*
X06182Y02506*
X06186Y02515*
X06187Y02523*
Y0257*
X06186Y02579*
X06182Y02587*
X06177Y02594*
X06172Y02598*
X06166Y02806*
Y03006*
X06169Y03009*
X06175Y03016*
X06178Y03024*
X06179Y03033*
Y0308*
X06178Y03089*
X06175Y03097*
X06169Y03104*
X06162Y03109*
X06154Y03113*
X06145Y03114*
X06136Y03113*
X06128Y03109*
X06121Y03104*
X06116Y03097*
X06116Y03096*
X0611Y03095*
X06051Y03154*
Y03901*
X06141Y0399*
X06145Y03989*
X06154Y03991*
X06162Y03994*
X06169Y03999*
X06175Y04006*
X06178Y04015*
X06179Y04023*
Y0407*
X06178Y04079*
X06175Y04087*
X06169Y04094*
X06166Y04097*
Y04503*
X06169Y04505*
X06175Y04512*
X06178Y04521*
X06179Y04529*
Y04576*
X06178Y04585*
X06175Y04593*
X06169Y046*
X06166Y04603*
Y04684*
X06164Y04691*
X0616Y04698*
X06087Y04771*
Y05007*
X06238Y05158*
X06243Y05165*
X06244Y05173*
Y05523*
X06243Y05531*
X06238Y05538*
X06176Y056*
X0617Y05604*
X06167Y05604*
Y05637*
X06166Y05646*
X06163Y05654*
X06157Y05661*
X06154Y05664*
Y06032*
X06157Y06035*
X06163Y06042*
X06166Y0605*
X06167Y06059*
Y06106*
X06166Y06114*
X06163Y06123*
X06157Y0613*
X0615Y06135*
X06142Y06138*
X06133Y06139*
G37*
G36*
X07228Y03896D02*
X07181D01*
X07172Y03895*
X07164Y03892*
X07157Y03886*
X07151Y03879*
X07148Y03871*
X07147Y03863*
X07148Y03854*
X07151Y03846*
X07157Y03839*
X07164Y03833*
X07172Y0383*
X07181Y03829*
X07228*
X07236Y0383*
X07245Y03833*
X07252Y03839*
X07257Y03846*
X0726Y03854*
X07262Y03863*
X0726Y03871*
X07257Y03879*
X07252Y03886*
X07245Y03892*
X07236Y03895*
X07228Y03896*
G37*
G36*
X06795D02*
X06748D01*
X06739Y03895*
X06731Y03892*
X06724Y03886*
X06718Y03879*
X06715Y03871*
X06714Y03863*
X06715Y03854*
X06718Y03846*
X06724Y03839*
X06731Y03833*
X06739Y0383*
X06748Y03829*
X06795*
X06803Y0383*
X06811Y03833*
X06819Y03839*
X06824Y03846*
X06827Y03854*
X06828Y03863*
X06827Y03871*
X06824Y03879*
X06819Y03886*
X06811Y03892*
X06803Y03895*
X06795Y03896*
G37*
G36*
X06444Y06937D02*
X06434Y06936D01*
X06423Y06931*
X06415Y06925*
X06408Y06916*
X06404Y06906*
X06403Y06895*
Y0686*
X06404Y06849*
X06408Y06839*
X06415Y0683*
X06423Y06823*
X06424Y06823*
Y06033*
Y0397*
X06225Y03771*
X06179*
Y03775*
X06178Y03784*
X06175Y03792*
X06169Y03799*
X06162Y03804*
X06154Y03808*
X06145Y03809*
X06136Y03808*
X06128Y03804*
X06121Y03799*
X06116Y03792*
X06112Y03784*
X06111Y03775*
Y03728*
X06112Y03719*
X06116Y03711*
X06121Y03704*
X06128Y03699*
X06136Y03695*
X06145Y03694*
X06154Y03695*
X06162Y03699*
X06169Y03704*
X06175Y03711*
X06178Y03719*
X06179Y03728*
Y0373*
X06234*
X06241Y03732*
X06248Y03736*
X06459Y03947*
X06463Y03954*
X06465Y03961*
Y06033*
Y06823*
X06465Y06823*
X06474Y0683*
X06481Y06839*
X06485Y06849*
X06486Y0686*
Y06895*
X06485Y06906*
X06481Y06916*
X06474Y06925*
X06465Y06931*
X06455Y06936*
X06444Y06937*
G37*
G36*
X07357Y03954D02*
X07347Y03953D01*
X07339Y03949*
X07332Y03943*
X07326Y03936*
X07322Y03928*
X07321Y03919*
X07322Y03909*
X07326Y03901*
X07332Y03894*
X07336Y0389*
Y0379*
X07291Y03745*
X07254*
X07252Y03749*
X07245Y03754*
X07236Y03757*
X07228Y03759*
X07181*
X07172Y03757*
X07164Y03754*
X07157Y03749*
X07151Y03742*
X07148Y03733*
X07147Y03725*
X07148Y03716*
X07151Y03708*
X07157Y03701*
X07164Y03695*
X07172Y03692*
X07181Y03691*
X07228*
X07236Y03692*
X07245Y03695*
X07252Y03701*
X07254Y03704*
X073*
X07307Y03706*
X07314Y0371*
X07371Y03767*
X07375Y03774*
X07377Y03782*
Y0389*
X07381Y03894*
X07387Y03901*
X07391Y03909*
X07392Y03919*
X07391Y03928*
X07387Y03936*
X07381Y03943*
X07374Y03949*
X07366Y03953*
X07357Y03954*
G37*
G36*
X07661Y03759D02*
X07614D01*
X07605Y03757*
X07597Y03754*
X0759Y03749*
X07585Y03742*
X07581Y03733*
X0758Y03725*
X07581Y03716*
X07585Y03708*
X0759Y03701*
X07597Y03695*
X07605Y03692*
X07614Y03691*
X07661*
X07669Y03692*
X07678Y03695*
X07685Y03701*
X0769Y03708*
X07693Y03716*
X07695Y03725*
X07693Y03733*
X0769Y03742*
X07685Y03749*
X07678Y03754*
X07669Y03757*
X07661Y03759*
G37*
G36*
X06795D02*
X06748D01*
X06739Y03757*
X06731Y03754*
X06724Y03749*
X06718Y03742*
X06715Y03733*
X06714Y03725*
X06715Y03716*
X06718Y03708*
X06724Y03701*
X06731Y03695*
X06739Y03692*
X06748Y03691*
X06795*
X06803Y03692*
X06811Y03695*
X06819Y03701*
X06824Y03708*
X06827Y03716*
X06828Y03725*
X06827Y03733*
X06824Y03742*
X06819Y03749*
X06811Y03754*
X06803Y03757*
X06795Y03759*
G37*
G36*
X08592Y03679D02*
X08557D01*
X08546Y03678*
X08536Y03674*
X08527Y03667*
X0852Y03658*
X08516Y03648*
X08515Y03637*
X08516Y03626*
X0852Y03616*
X08527Y03608*
X08536Y03601*
X08546Y03597*
X08557Y03595*
X08592*
X08603Y03597*
X08613Y03601*
X08622Y03608*
X08628Y03616*
X08632Y03626*
X08634Y03637*
X08632Y03648*
X08628Y03658*
X08622Y03667*
X08613Y03674*
X08603Y03678*
X08592Y03679*
G37*
G36*
Y03581D02*
X08557D01*
X08546Y03579*
X08536Y03575*
X08527Y03568*
X0852Y0356*
X08516Y0355*
X08515Y03539*
X08516Y03528*
X0852Y03518*
X08527Y03509*
X08536Y03503*
X08546Y03498*
X08557Y03497*
X08592*
X08603Y03498*
X08613Y03503*
X08622Y03509*
X08628Y03518*
X08632Y03528*
X08634Y03539*
X08632Y0355*
X08628Y0356*
X08622Y03568*
X08613Y03575*
X08603Y03579*
X08592Y03581*
G37*
G36*
X085Y06977D02*
X08291D01*
X08283Y06975*
X08276Y06971*
X08229Y06923*
X08225Y06917*
X08223Y06909*
Y06572*
X08225Y06565*
X08229Y06558*
X08287Y065*
X08286Y06496*
X08288Y06487*
X08291Y06479*
X08296Y06472*
X08303Y06466*
X08312Y06463*
X0832Y06462*
X08329Y06463*
X08337Y06466*
X08344Y06472*
X0835Y06479*
X08353Y06487*
X08354Y06496*
X08353Y06504*
X0835Y06513*
X08344Y0652*
X08337Y06525*
X08329Y06528*
X0832Y06529*
X08316Y06529*
X08264Y06581*
Y06901*
X08299Y06936*
X08491*
X08656Y06771*
Y05067*
X08652Y05064*
X08646Y05057*
X08643Y05048*
X08641Y05039*
X08643Y0503*
X08646Y05021*
X08652Y05014*
X08656Y0501*
Y03506*
X08621Y03471*
X08613Y03477*
X08603Y03481*
X08592Y03482*
X08557*
X08546Y03481*
X08536Y03477*
X08527Y0347*
X0852Y03461*
X08516Y03451*
X08515Y0344*
X08516Y0343*
X0852Y0342*
X08527Y03411*
X08536Y03404*
X08546Y034*
X08557Y03399*
X08592*
X08603Y034*
X08613Y03404*
X08622Y03411*
X08628Y0342*
X0863Y03423*
X08634Y03426*
X08691Y03483*
X08696Y0349*
X08697Y03498*
Y0501*
X08702Y05014*
X08703Y05016*
X08707Y05019*
X08711Y05025*
X08713Y05033*
X08712Y05038*
X08712Y05039*
X08711Y05048*
X08707Y05057*
X08702Y05064*
X08697Y05067*
Y06779*
X08696Y06787*
X08691Y06793*
X08514Y06971*
X08507Y06975*
X085Y06977*
G37*
G36*
X06543Y06937D02*
X06532Y06936D01*
X06522Y06931*
X06513Y06925*
X06507Y06916*
X06502Y06906*
X06501Y06895*
Y0686*
X06502Y06849*
X06507Y06839*
X06513Y0683*
X06522Y06823*
X06522Y06823*
Y06766*
X06485Y06729*
X06481Y06722*
X06479Y06715*
Y03715*
X06166Y03402*
X06162Y03405*
X06154Y03408*
X06145Y03409*
X06136Y03408*
X06128Y03405*
X06121Y03399*
X06116Y03392*
X06112Y03384*
X06111Y03375*
Y03328*
X06112Y0332*
X06116Y03312*
X06121Y03305*
X06128Y03299*
X06136Y03296*
X06145Y03295*
X06154Y03296*
X06162Y03299*
X06169Y03305*
X06175Y03312*
X06178Y0332*
X06179Y03328*
Y03361*
X06182Y03362*
X06188Y03366*
X06514Y03692*
X06518Y03698*
X0652Y03706*
Y06706*
X06557Y06743*
X06562Y0675*
X06563Y06758*
Y06823*
X06564Y06823*
X06572Y0683*
X06579Y06839*
X06583Y06849*
X06585Y0686*
Y06895*
X06583Y06906*
X06579Y06916*
X06572Y06925*
X06564Y06931*
X06554Y06936*
X06543Y06937*
G37*
G36*
X08592Y03384D02*
X08557D01*
X08546Y03382*
X08536Y03378*
X08527Y03372*
X0852Y03363*
X08516Y03353*
X08515Y03342*
X08516Y03331*
X0852Y03321*
X08527Y03312*
X08536Y03306*
X08546Y03302*
X08557Y033*
X08592*
X08603Y03302*
X08613Y03306*
X08622Y03312*
X08628Y03321*
X08632Y03331*
X08634Y03342*
X08632Y03353*
X08628Y03363*
X08622Y03372*
X08613Y03378*
X08603Y03382*
X08592Y03384*
G37*
G36*
Y03285D02*
X08557D01*
X08546Y03284*
X08536Y0328*
X08527Y03273*
X0852Y03265*
X08516Y03254*
X08515Y03244*
X08516Y03233*
X0852Y03223*
X08527Y03214*
X08536Y03207*
X08546Y03203*
X08557Y03202*
X08592*
X08603Y03203*
X08613Y03207*
X08622Y03214*
X08628Y03223*
X08632Y03233*
X08634Y03244*
X08632Y03254*
X08628Y03265*
X08622Y03273*
X08613Y0328*
X08603Y03284*
X08592Y03285*
G37*
G36*
X07111Y04931D02*
X071Y04929D01*
X0709Y04925*
X07082Y04918*
X07075Y0491*
X07071Y049*
X07069Y04889*
Y04873*
X07071Y04862*
X07075Y04852*
X07082Y04844*
X0709Y04837*
X07091Y04837*
Y03298*
X07092Y0329*
X07097Y03283*
X07188Y03192*
X07186Y03188*
X07181Y0319*
X07172Y03191*
X07166Y0319*
X07086Y0327*
Y04658*
X07084Y04665*
X0708Y04672*
X06932Y0482*
Y04837*
X06932Y04837*
X06941Y04844*
X06948Y04852*
X06952Y04862*
X06953Y04873*
Y04889*
X06952Y049*
X06948Y0491*
X06941Y04918*
X06932Y04925*
X06922Y04929*
X06911Y04931*
X069Y04929*
X0689Y04925*
X06882Y04918*
X06875Y0491*
X06871Y049*
X06869Y04889*
Y04873*
X06871Y04862*
X06875Y04852*
X06882Y04844*
X0689Y04837*
X06891Y04837*
Y04812*
X06892Y04804*
X06897Y04797*
X07045Y04649*
Y0463*
X0704Y04629*
X07039Y04633*
X07035Y0464*
X06838Y04837*
X06838Y04842*
X06841Y04844*
X06848Y04852*
X06852Y04862*
X06853Y04873*
Y04889*
X06852Y049*
X06848Y0491*
X06841Y04918*
X06832Y04925*
X06822Y04929*
X06811Y04931*
X068Y04929*
X0679Y04925*
X06782Y04918*
X06775Y0491*
X06771Y049*
X06769Y04889*
Y04873*
X06771Y04862*
X06775Y04852*
X06782Y04844*
X0679Y04837*
X06791Y04837*
Y04835*
X06792Y04827*
X06797Y0482*
X07Y04617*
Y03216*
X07002Y03208*
X07006Y03201*
X07322Y02886*
Y01693*
X07141Y01512*
X0714Y01512*
X07129Y01514*
X07119Y01512*
X07108Y01508*
X071Y01502*
X07093Y01493*
X07089Y01483*
X07088Y01472*
X07089Y01461*
X07093Y01451*
X071Y01442*
X07108Y01436*
X07119Y01432*
X07129Y0143*
X0714Y01432*
X0715Y01436*
X07159Y01442*
X07166Y01451*
X0717Y01461*
X07171Y01472*
X0717Y01483*
X0717Y01483*
X07356Y0167*
X07361Y01677*
X07362Y01685*
Y02894*
X07361Y02902*
X07356Y02909*
X07041Y03224*
Y03257*
X07046Y03258*
X07047Y03254*
X07051Y03247*
X07137Y03161*
X07136Y03156*
X07137Y03146*
X07141Y03138*
X07147Y03131*
X07154Y03125*
X07162Y03121*
X07172Y0312*
X07181Y03121*
X07189Y03125*
X07196Y03131*
X07202Y03138*
X07206Y03146*
X07207Y03156*
X07206Y03165*
X07204Y0317*
X07208Y03172*
X07416Y02964*
Y01488*
X0724Y01312*
X0724Y01313*
X07229Y01314*
X07218Y01313*
X07208Y01308*
X07199Y01302*
X07193Y01293*
X07188Y01283*
X07187Y01272*
X07188Y01261*
X07193Y01251*
X07199Y01243*
X07208Y01236*
X07218Y01232*
X07229Y0123*
X0724Y01232*
X0725Y01236*
X07258Y01243*
X07265Y01251*
X07269Y01261*
X07271Y01272*
X07269Y01283*
X07269Y01284*
X07451Y01465*
X07455Y01472*
X07457Y0148*
Y02972*
X07455Y0298*
X07451Y02987*
X07132Y03306*
Y04837*
X07132Y04837*
X07141Y04844*
X07148Y04852*
X07152Y04862*
X07153Y04873*
Y04889*
X07152Y049*
X07148Y0491*
X07141Y04918*
X07132Y04925*
X07122Y04929*
X07111Y04931*
G37*
G36*
X07311D02*
X073Y04929D01*
X0729Y04925*
X07282Y04918*
X07275Y0491*
X07271Y049*
X07269Y04889*
Y04873*
X07271Y04862*
X07275Y04852*
X07282Y04844*
X0729Y04837*
X07291Y04837*
Y04441*
X07292Y04433*
X07297Y04426*
X07424Y04299*
Y03175*
X07407Y03158*
X07402Y03159*
X07392Y03158*
X07384Y03154*
X07377Y03148*
X07371Y03141*
X07367Y03133*
X07366Y03124*
X07367Y03114*
X07371Y03106*
X07377Y03099*
X07384Y03093*
X07392Y03089*
X07402Y03088*
X07411Y03089*
X07419Y03093*
X07426Y03099*
X07432Y03106*
X07436Y03114*
X07437Y03124*
X07436Y03129*
X07459Y03152*
X07463Y03159*
X07465Y03166*
Y04308*
X07463Y04315*
X07459Y04322*
X07332Y04449*
Y04837*
X07332Y04837*
X07341Y04844*
X07348Y04852*
X07352Y04862*
X07353Y04873*
Y04889*
X07352Y049*
X07348Y0491*
X07341Y04918*
X07332Y04925*
X07322Y04929*
X07311Y04931*
G37*
G36*
X07685Y03096D02*
X07676Y03095D01*
X07668Y03092*
X07661Y03086*
X07655Y03079*
X07652Y03071*
X07651Y03062*
Y03015*
X07652Y03007*
X07655Y02999*
X07661Y02992*
X07668Y02986*
X07676Y02983*
X07685Y02982*
X07693Y02983*
X07702Y02986*
X07709Y02992*
X07714Y02999*
X07717Y03007*
X07718Y03015*
Y03062*
X07717Y03071*
X07714Y03079*
X07709Y03086*
X07702Y03092*
X07693Y03095*
X07685Y03096*
G37*
G36*
X07696Y026D02*
X07688Y02599D01*
X07679Y02596*
X07672Y0259*
X07667Y02583*
X07664Y02575*
X07662Y02566*
Y02519*
X07664Y02511*
X07667Y02502*
X07672Y02495*
X07679Y0249*
X07688Y02487*
X07696Y02486*
X07705Y02487*
X07713Y0249*
X0772Y02495*
X07726Y02502*
X07729Y02511*
X0773Y02519*
Y02566*
X07729Y02575*
X07726Y02583*
X0772Y0259*
X07713Y02596*
X07705Y02599*
X07696Y026*
G37*
G36*
X09133Y03532D02*
X09123Y0353D01*
X09112Y03526*
X09104Y03519*
X09097Y03511*
X09093Y035*
X09091Y0349*
X09093Y03479*
X09097Y03469*
X09104Y0346*
X09112Y03453*
X09123Y03449*
X09133Y03448*
X09144Y03449*
X09154Y03453*
X09156Y03454*
X09274*
X09413Y03316*
Y02409*
X09412Y02408*
X09408Y02398*
X09406Y02387*
X09408Y02376*
X09412Y02366*
X09419Y02358*
X09427Y02351*
X09437Y02347*
X09448Y02345*
X09459Y02347*
X09469Y02351*
X09478Y02358*
X09485Y02366*
X09489Y02376*
X0949Y02387*
X09489Y02398*
X09485Y02408*
X09484Y02409*
Y0333*
X09482Y03339*
X09479Y03348*
X09473Y03355*
X09314Y03515*
X09307Y0352*
X09298Y03524*
X09289Y03525*
X09156*
X09154Y03526*
X09144Y0353*
X09133Y03532*
G37*
G36*
X09448D02*
X09437Y0353D01*
X09427Y03526*
X09419Y03519*
X09412Y03511*
X09408Y035*
X09406Y0349*
X09408Y03479*
X09412Y03469*
X09419Y0346*
X09427Y03453*
X09437Y03449*
X09439Y03449*
X09594Y03294*
Y02309*
X09568Y02283*
X09231*
X09169Y02345*
Y02365*
X0917Y02366*
X09174Y02376*
X09175Y02387*
X09174Y02398*
X0917Y02408*
X09163Y02417*
X09154Y02424*
X09144Y02428*
X09133Y02429*
X09123Y02428*
X09112Y02424*
X09104Y02417*
X09097Y02408*
X09093Y02398*
X09091Y02387*
X09093Y02376*
X09097Y02366*
X09098Y02365*
Y0233*
X09099Y02321*
X09103Y02313*
X09108Y02305*
X09191Y02223*
X09198Y02217*
X09207Y02213*
X09216Y02212*
X09582*
X09591Y02213*
X096Y02217*
X09607Y02223*
X09654Y0227*
X0966Y02277*
X09664Y02286*
X09665Y02295*
Y03309*
X09664Y03318*
X0966Y03326*
X09654Y03334*
X09489Y03499*
X09489Y035*
X09485Y03511*
X09478Y03519*
X09469Y03526*
X09459Y0353*
X09448Y03532*
G37*
G36*
X08077Y05084D02*
X08066Y05083D01*
X08056Y05079*
X08047Y05072*
X0804Y05063*
X08036Y05053*
X08035Y05042*
Y05027*
X08036Y05016*
X0804Y05006*
X08047Y04997*
X08056Y0499*
X08056Y0499*
Y04809*
X07918Y04671*
X07914Y04664*
X07912Y04656*
Y02521*
X07696Y02305*
X07688Y02304*
X07679Y023*
X07672Y02295*
X07667Y02288*
X07664Y0228*
X07662Y02271*
Y02242*
X07536Y02116*
X07532Y0211*
X0753Y02102*
Y01453*
X07239Y01162*
X07165*
X07071Y01256*
X07071Y01256*
X07073Y01267*
X07071Y01278*
X07067Y01288*
X07061Y01297*
X07052Y01303*
X07042Y01308*
X07031Y01309*
X0702Y01308*
X0701Y01303*
X07001Y01297*
X06995Y01288*
X06991Y01278*
X06989Y01267*
X06991Y01256*
X06995Y01246*
X07001Y01238*
X0701Y01231*
X0702Y01227*
X07031Y01225*
X07042Y01227*
X07042Y01227*
X07143Y01127*
X07149Y01122*
X07157Y01121*
X07248*
X07255Y01122*
X07262Y01127*
X07565Y0143*
X0757Y01437*
X07571Y01444*
Y02093*
X07675Y02198*
X07679Y02195*
X07688Y02191*
X07696Y0219*
X07705Y02191*
X07713Y02195*
X0772Y022*
X07726Y02207*
X07729Y02215*
X0773Y02224*
Y02271*
X07729Y0228*
X07729Y0228*
X07947Y02498*
X07951Y02505*
X07953Y02513*
Y04648*
X08091Y04786*
X08096Y04793*
X08097Y04801*
Y0499*
X08098Y0499*
X08106Y04997*
X08113Y05006*
X08117Y05016*
X08119Y05027*
Y05042*
X08117Y05053*
X08113Y05063*
X08106Y05072*
X08098Y05079*
X08088Y05083*
X08077Y05084*
G37*
G36*
X08477D02*
X08466Y05083D01*
X08456Y05079*
X08447Y05072*
X0844Y05063*
X08436Y05053*
X08435Y05042*
Y05027*
X08436Y05016*
X0844Y05006*
X08447Y04997*
X08456Y0499*
X08456Y0499*
Y04906*
X084Y0485*
X08396Y04843*
X08394Y04835*
Y01391*
X08311Y01308*
X08311Y01309*
X083Y0131*
X08289Y01309*
X08279Y01304*
X0827Y01298*
X08263Y01289*
X08259Y01279*
X08258Y01268*
X08259Y01257*
X08263Y01247*
X0827Y01239*
X08279Y01232*
X08289Y01228*
X083Y01226*
X08311Y01228*
X08321Y01232*
X08329Y01239*
X08336Y01247*
X0834Y01257*
X08342Y01268*
X0834Y01279*
X0834Y0128*
X08429Y01369*
X08433Y01375*
X08435Y01383*
Y04827*
X08491Y04883*
X08496Y0489*
X08497Y04898*
Y0499*
X08498Y0499*
X08506Y04997*
X08513Y05006*
X08517Y05016*
X08519Y05027*
Y05042*
X08517Y05053*
X08513Y05063*
X08506Y05072*
X08498Y05079*
X08488Y05083*
X08477Y05084*
G37*
G36*
X07669Y01514D02*
X07658Y01512D01*
X07648Y01508*
X07639Y01502*
X07633Y01493*
X07628Y01483*
X07627Y01472*
X07628Y01461*
X07633Y01451*
X07639Y01442*
X07648Y01436*
X07648Y01435*
Y01374*
X07582Y01307*
X07581Y01308*
X0757Y01309*
X0756Y01308*
X07549Y01303*
X07541Y01297*
X07534Y01288*
X0753Y01278*
X07529Y01267*
X0753Y01256*
X07534Y01246*
X07541Y01238*
X07549Y01231*
X0756Y01227*
X0757Y01225*
X07581Y01227*
X07591Y01231*
X076Y01238*
X07607Y01246*
X07611Y01256*
X07612Y01267*
X07611Y01278*
X07611Y01279*
X07683Y01351*
X07688Y01358*
X07689Y01366*
Y01435*
X0769Y01436*
X07698Y01442*
X07705Y01451*
X07709Y01461*
X07711Y01472*
X07709Y01483*
X07705Y01493*
X07698Y01502*
X0769Y01508*
X0768Y01512*
X07669Y01514*
G37*
G36*
X09448Y01366D02*
X09437Y01365D01*
X09427Y01361*
X09419Y01354*
X09412Y01345*
X09408Y01335*
X09406Y01324*
X09408Y01313*
X09412Y01303*
X09419Y01295*
X09427Y01288*
X09437Y01284*
X09448Y01282*
X09459Y01284*
X09469Y01288*
X09478Y01295*
X09485Y01303*
X09489Y01313*
X0949Y01324*
X09489Y01335*
X09485Y01345*
X09478Y01354*
X09469Y01361*
X09459Y01365*
X09448Y01366*
G37*
G36*
X07768Y01314D02*
X07757Y01313D01*
X07747Y01308*
X07739Y01302*
X07732Y01293*
X07728Y01283*
X07726Y01272*
X07728Y01261*
X07732Y01251*
X07739Y01243*
X07747Y01236*
X07757Y01232*
X07768Y0123*
X07779Y01232*
X07789Y01236*
X07798Y01243*
X07804Y01251*
X07809Y01261*
X0781Y01272*
X07809Y01283*
X07804Y01293*
X07798Y01302*
X07789Y01308*
X07779Y01313*
X07768Y01314*
G37*
G36*
X06709D02*
X06698Y01313D01*
X06688Y01308*
X0668Y01302*
X06673Y01293*
X06669Y01283*
X06667Y01272*
X06669Y01261*
X06673Y01251*
X0668Y01243*
X06688Y01236*
X06698Y01232*
X06709Y0123*
X0672Y01232*
X0673Y01236*
X06739Y01243*
X06745Y01251*
X0675Y01261*
X06751Y01272*
X0675Y01283*
X06745Y01293*
X06739Y01302*
X0673Y01308*
X0672Y01313*
X06709Y01314*
G37*
G36*
X05958Y01637D02*
X05949Y01636D01*
X05941Y01632*
X05933Y01627*
X05928Y0162*
X05924Y01611*
X05923Y01602*
X05924Y01593*
X05928Y01584*
X05933Y01577*
X05941Y01571*
X05949Y01568*
X05958Y01567*
X05964Y01567*
X06013Y01519*
X06011Y01513*
X06004Y01512*
X05994Y01508*
X05986Y01502*
X05979Y01493*
X05975Y01483*
X05973Y01472*
X05975Y01461*
X05975Y01461*
X05902Y01388*
X05898Y01381*
X05896Y01374*
Y01304*
X05896Y01303*
X05887Y01297*
X05881Y01288*
X05876Y01278*
X05875Y01267*
X05876Y01256*
X05881Y01246*
X05887Y01238*
X05896Y01231*
X05906Y01227*
X05917Y01225*
X05928Y01227*
X05938Y01231*
X05946Y01238*
X05953Y01246*
X05957Y01256*
X05959Y01267*
X05957Y01278*
X05953Y01288*
X05946Y01297*
X05938Y01303*
X05937Y01304*
Y01365*
X06004Y01432*
X06004Y01432*
X06015Y0143*
X06026Y01432*
X06036Y01436*
X06045Y01442*
X06051Y01451*
X06056Y01461*
X06057Y01468*
X06062Y01469*
X06089Y01442*
Y01305*
X06085Y01302*
X06078Y01293*
X06074Y01283*
X06073Y01272*
X06074Y01261*
X06078Y01251*
X06085Y01243*
X06094Y01236*
X06104Y01232*
X06115Y0123*
X06125Y01232*
X06136Y01236*
X06144Y01243*
X06151Y01251*
X06155Y01261*
X06157Y01272*
X06155Y01283*
X06151Y01293*
X06144Y01302*
X06136Y01308*
X0613Y01311*
Y0145*
X06129Y01458*
X06124Y01465*
X05993Y01596*
X05993Y01602*
X05992Y01611*
X05989Y0162*
X05983Y01627*
X05976Y01632*
X05967Y01636*
X05958Y01637*
G37*
G36*
X08622Y01057D02*
X08607Y01056D01*
X08593Y01052*
X08581Y01045*
X0857Y01036*
X08561Y01025*
X08554Y01012*
X0855Y00998*
X08548Y00984*
X0855Y00969*
X08554Y00956*
X08561Y00943*
X0857Y00932*
X08581Y00923*
X08593Y00916*
X08607Y00912*
X08622Y0091*
X08636Y00912*
X0865Y00916*
X08662Y00923*
X08673Y00932*
X08683Y00943*
X08689Y00956*
X08693Y00969*
X08695Y00984*
X08693Y00998*
X08689Y01012*
X08683Y01025*
X08673Y01036*
X08662Y01045*
X0865Y01052*
X08636Y01056*
X08622Y01057*
G37*
G36*
X05708D02*
X05694Y01056D01*
X0568Y01052*
X05667Y01045*
X05656Y01036*
X05647Y01025*
X0564Y01012*
X05636Y00998*
X05635Y00984*
X05636Y00969*
X0564Y00956*
X05647Y00943*
X05656Y00932*
X05667Y00923*
X0568Y00916*
X05694Y00912*
X05708Y0091*
X05722Y00912*
X05736Y00916*
X05749Y00923*
X0576Y00932*
X05769Y00943*
X05776Y00956*
X0578Y00969*
X05782Y00984*
X0578Y00998*
X05776Y01012*
X05769Y01025*
X0576Y01036*
X05749Y01045*
X05736Y01052*
X05722Y01056*
X05708Y01057*
G37*
G36*
X06476Y01004D02*
X06465Y01003D01*
X06455Y00998*
X06446Y00992*
X0644Y00983*
X06435Y00973*
X06434Y00962*
Y00927*
X06435Y00916*
X0644Y00906*
X06446Y00897*
X06455Y0089*
X06465Y00886*
X06476Y00885*
X06487Y00886*
X06497Y0089*
X06505Y00897*
X06512Y00906*
X06516Y00916*
X06518Y00927*
Y00962*
X06516Y00973*
X06512Y00983*
X06505Y00992*
X06497Y00998*
X06487Y01003*
X06476Y01004*
G37*
G36*
X06279D02*
X06268Y01003D01*
X06258Y00998*
X06249Y00992*
X06243Y00983*
X06239Y00973*
X06237Y00962*
Y00927*
X06239Y00916*
X06243Y00906*
X06249Y00897*
X06258Y0089*
X06268Y00886*
X06279Y00885*
X0629Y00886*
X063Y0089*
X06309Y00897*
X06315Y00906*
X06319Y00916*
X06321Y00927*
Y00962*
X06319Y00973*
X06315Y00983*
X06309Y00992*
X063Y00998*
X0629Y01003*
X06279Y01004*
G37*
G36*
X06917Y03098D02*
X06908Y03097D01*
X069Y03094*
X06893Y03088*
X06887Y03081*
X06884Y03073*
X06883Y03064*
Y03017*
X06884Y03009*
X06887Y03001*
X06893Y02993*
X06893Y02993*
X06893Y02987*
X06772Y02866*
X06768Y02859*
X06767Y02852*
Y02527*
X06768Y02519*
X06772Y02513*
X06971Y02314*
Y02154*
X0617Y01353*
X06166Y01346*
X06164Y01338*
Y01*
X0616Y00998*
X06151Y00992*
X06144Y00983*
X0614Y00973*
X06139Y00962*
Y00927*
X0614Y00916*
X06144Y00906*
X06151Y00897*
X0616Y0089*
X0617Y00886*
X06181Y00885*
X06191Y00886*
X06202Y0089*
X0621Y00897*
X06217Y00906*
X06221Y00916*
X06222Y00927*
Y00962*
X06221Y00973*
X06217Y00983*
X0621Y00992*
X06205Y00996*
Y0133*
X07006Y02131*
X0701Y02137*
X07012Y02145*
Y02322*
X0701Y0233*
X07006Y02337*
X06807Y02536*
Y02843*
X06931Y02967*
X06936Y02974*
X06937Y02982*
Y02991*
X06941Y02993*
X06946Y03001*
X0695Y03009*
X06951Y03017*
Y03064*
X0695Y03073*
X06946Y03081*
X06941Y03088*
X06934Y03094*
X06926Y03097*
X06917Y03098*
G37*
G36*
X06082Y01004D02*
X06071Y01003D01*
X06061Y00998*
X06053Y00992*
X06046Y00983*
X06042Y00973*
X0604Y00962*
Y00927*
X06042Y00916*
X06046Y00906*
X06053Y00897*
X06061Y0089*
X06071Y00886*
X06082Y00885*
X06093Y00886*
X06103Y0089*
X06112Y00897*
X06118Y00906*
X06123Y00916*
X06124Y00927*
Y00962*
X06123Y00973*
X06118Y00983*
X06112Y00992*
X06103Y00998*
X06093Y01003*
X06082Y01004*
G37*
G36*
X0566Y06373D02*
X0565Y06372D01*
X05642Y06368*
X05635Y06362*
X05629Y06355*
X05625Y06347*
X05624Y06338*
X05625Y06328*
X05629Y0632*
X05635Y06313*
X05639Y06309*
Y01324*
X05641Y01316*
X05645Y01309*
X05956Y00998*
X05956Y00993*
X05954Y00992*
X05948Y00983*
X05943Y00973*
X05942Y00962*
Y00927*
X05943Y00916*
X05948Y00906*
X05954Y00897*
X05963Y0089*
X05973Y00886*
X05984Y00885*
X05995Y00886*
X06005Y0089*
X06013Y00897*
X0602Y00906*
X06024Y00916*
X06026Y00927*
Y00962*
X06024Y00973*
X0602Y00983*
X06013Y00992*
X06005Y00998*
X06004Y00999*
Y01*
X06003Y01007*
X05998Y01014*
X0568Y01332*
Y06309*
X05684Y06313*
X0569Y0632*
X05694Y06328*
X05695Y06338*
X05694Y06347*
X0569Y06355*
X05684Y06362*
X05677Y06368*
X05669Y06372*
X0566Y06373*
G37*
%LNfuncgen-3*%
%LPD*%
G54D29*
X0632Y0456D02*
Y0484D01*
X08677Y05049D02*
X08692Y05033D01*
X09041Y04645D02*
Y06592D01*
X08968Y06665D02*
X09041Y06592D01*
Y04645D02*
X09133Y04553D01*
X08488Y03119D02*
X08535Y03072D01*
Y03068D02*
Y03072D01*
X08488Y03119D02*
Y04598D01*
X08535Y03068D02*
X08557Y03047D01*
X08574*
X08488Y04598D02*
X08606Y04716D01*
Y06604*
X08377Y05101D02*
X08562Y05286D01*
X0832Y06299D02*
X08562Y06057D01*
Y05286D02*
Y06057D01*
X0832Y06889D02*
X08606Y06604D01*
X085Y06956D02*
X08677Y06779D01*
Y05049D02*
Y06779D01*
X08677Y03498D02*
Y05039D01*
X0862Y0344D02*
X08677Y03498D01*
X08638Y03145D02*
X08779Y03287D01*
Y05389*
X08244Y06572D02*
Y06909D01*
X08291Y06956D02*
X085D01*
X08244Y06909D02*
X08291Y06956D01*
X08244Y06572D02*
X0832Y06496D01*
X07627Y03404D02*
X07728Y03505D01*
Y05812D02*
X0782Y05905D01*
X07728Y03505D02*
Y05812D01*
X07685Y03334D02*
X07685Y03334D01*
X07787Y03366D02*
Y05615D01*
X07755Y03334D02*
X07787Y03366D01*
X07685Y03334D02*
X07755D01*
X07787Y05615D02*
X07821Y05649D01*
X07696Y02276D02*
X07933Y02513D01*
Y04656D02*
X08077Y04801D01*
X07933Y02513D02*
Y04656D01*
X07402Y03124D02*
X07444Y03166D01*
X07311Y04441D02*
X07444Y04308D01*
Y03166D02*
Y04308D01*
X07331Y06294D02*
X07336Y06299D01*
X07244Y06232D02*
X07305Y06294D01*
X07331*
X06749Y05258D02*
X06878D01*
X06665Y05342D02*
Y06145D01*
Y05342D02*
X06749Y05258D01*
X06665Y06145D02*
X06762Y06243D01*
X06884*
X06925Y06283D02*
Y06692D01*
X06884Y06243D02*
X06925Y06283D01*
X0674Y06877D02*
X06925Y06692D01*
X06569Y07276D02*
X06992Y06853D01*
Y06397D02*
Y06853D01*
X07151Y05055D02*
X07211Y05114D01*
X06708Y05055D02*
X07151D01*
X07244Y05604D02*
Y06232D01*
Y05604D02*
X07336Y05511D01*
X06836Y05708D02*
X06988D01*
X07311Y05385*
Y05181D02*
Y05385D01*
X07211Y05114D02*
Y05181D01*
X07248Y01141D02*
X07551Y01444D01*
Y02102D02*
X07696Y02248D01*
X07551Y01444D02*
Y02102D01*
X07696Y02248D02*
Y02276D01*
X07157Y01141D02*
X07248D01*
X07031Y01267D02*
X07157Y01141D01*
X07111Y03298D02*
X07437Y02972D01*
X07229Y01272D02*
X07437Y0148D01*
Y02972*
X07129Y01472D02*
X07342Y01685D01*
X07021Y03216D02*
X07342Y02894D01*
Y01685D02*
Y02894D01*
X06657Y03496D02*
X07204Y02949D01*
X06574Y01326D02*
X07204Y01956D01*
Y02949*
X06992Y02145D02*
Y02322D01*
X06787Y02527D02*
Y02852D01*
Y02527D02*
X06992Y02322D01*
X06181Y00944D02*
X06185Y00948D01*
Y01338*
X06992Y02145*
X07062Y02015D02*
Y02389D01*
X06362Y01314D02*
X07062Y02015D01*
X06377Y00944D02*
Y00974D01*
X06362Y00989D02*
X06377Y00974D01*
X06362Y00989D02*
Y01314D01*
X06934Y02518D02*
X07062Y02389D01*
X06909Y02537D02*
Y02553D01*
Y02537D02*
X06927Y02518D01*
X06934*
X06787Y02852D02*
X06917Y02982D01*
X06606Y0256D02*
Y06209D01*
X06909Y02257D02*
Y02273D01*
X06896Y02286D02*
X06909Y02273D01*
X0688Y02286D02*
X06896D01*
X06606Y0256D02*
X0688Y02286D01*
X06657Y05114D02*
X06716Y05173D01*
X06657Y03496D02*
D01*
Y05114D02*
Y03496D01*
X065Y03706D02*
Y06715D01*
X06153Y0233D02*
X06555Y02731D01*
Y06673D02*
X06641Y06759D01*
X065Y06715D02*
X06543Y06758D01*
X06555Y02731D02*
Y06673D01*
X06174Y0338D02*
X065Y03706D01*
X06606Y06209D02*
X06696Y06299D01*
X06444Y03961D02*
Y06033D01*
X06234Y03751D02*
X06444Y03961D01*
X06145Y03352D02*
Y03368D01*
X06158Y0338*
X06174*
X06031Y03145D02*
Y03909D01*
Y03145D02*
X06103Y03073D01*
X06145Y03057D02*
Y0306D01*
X06103Y03073D02*
X06133D01*
X06145Y0306*
X06031Y03909D02*
X06145Y04024D01*
X06066Y04762D02*
Y05015D01*
X06224Y05173D02*
Y05523D01*
X06066Y05015D02*
X06224Y05173D01*
X0611Y01277D02*
Y0145D01*
X05958Y01602D02*
X0611Y0145D01*
Y01277D02*
X06115Y01272D01*
X05917Y01374D02*
X06015Y01472D01*
X05917Y01267D02*
Y01374D01*
X06066Y04762D02*
X06145Y04684D01*
X06133Y05598D02*
Y06082D01*
Y05598D02*
X06146Y05585D01*
X06162*
X06224Y05523*
X06129Y06381D02*
X06133Y06377D01*
X06129Y06608D02*
X06149Y06627D01*
X06129Y06381D02*
Y06608D01*
X06133Y06082D02*
D01*
X06062Y0552D02*
X06133Y0545D01*
X06062Y06198D02*
X06248Y06384D01*
X06062Y0552D02*
Y06198D01*
X063Y07324D02*
Y07518D01*
Y07324D02*
X0674Y06884D01*
X05846Y07767D02*
X06051D01*
X063Y07518*
X06569Y07276D02*
Y07428D01*
X06871Y0743D02*
Y07489D01*
X07021Y07639D02*
Y08138D01*
X06871Y07489D02*
X07021Y07639D01*
X06869Y07428D02*
X06871Y0743D01*
X07011Y08188D02*
X0702Y0818D01*
Y08139D02*
Y0818D01*
Y08139D02*
X07021Y08138D01*
X06145Y02805D02*
Y03057D01*
X07821Y05649D02*
Y05708D01*
X06145Y04848D02*
X06208D01*
X06145Y03751D02*
X06234D01*
X06969Y07428D02*
X0705D01*
X08922Y01536D02*
X09133Y01324D01*
X08922Y01536D02*
Y05996D01*
X08738Y0618D02*
X08922Y05996D01*
X06811Y04835D02*
Y04881D01*
Y04835D02*
X07021Y04626D01*
Y03216D02*
Y04626D01*
X06145Y02805D02*
X06153Y02547D01*
X08574Y0344D02*
X0862D01*
X08377Y04976D02*
Y05035D01*
X08324Y04922D02*
X08377Y04976D01*
X08324Y01591D02*
Y04922D01*
X082Y01468D02*
X08324Y01591D01*
X082Y01362D02*
Y01468D01*
X08102Y01263D02*
X082Y01362D01*
X08477Y04898D02*
Y05035D01*
X08415Y04835D02*
X08477Y04898D01*
X08415Y01383D02*
Y04835D01*
X083Y01268D02*
X08415Y01383D01*
X08574Y03145D02*
X08638D01*
X08273Y05756D02*
X0832Y05708D01*
X08273Y05756D02*
Y06054D01*
X0832Y06102*
X06511Y01267D02*
Y01374D01*
X0661Y01472*
X06543Y06758D02*
Y06877D01*
X06641Y06759D02*
Y06877D01*
X06153Y02251D02*
Y0233D01*
X06911Y04812D02*
Y04881D01*
Y04812D02*
X07066Y04658D01*
Y03262D02*
Y04658D01*
Y03262D02*
X07172Y03156D01*
X07566Y0427D02*
X07637Y04342D01*
X07566Y03934D02*
Y0427D01*
Y03934D02*
X07637Y03863D01*
X06917Y02982D02*
Y03041D01*
X07669Y01366D02*
Y01472D01*
X0757Y01267D02*
X07669Y01366D01*
X05984Y00944D02*
Y01D01*
X0566Y01324D02*
X05984Y01D01*
X0566Y01324D02*
Y06338D01*
X09666Y04448D02*
Y05275D01*
X08983Y03764D02*
X09666Y04448D01*
X06696Y06299D02*
X06836D01*
X06574Y00944D02*
Y01326D01*
X08064Y04082D02*
X08133D01*
X08064Y03725D02*
Y04082D01*
X07311Y04441D02*
Y04881D01*
X07357Y03782D02*
Y03919D01*
X073Y03725D02*
X07357Y03782D01*
X07204Y03725D02*
X073D01*
X07111Y03298D02*
Y04881D01*
X06836Y05511D02*
X06965D01*
X07111Y05365*
Y05181D02*
Y05365D01*
X06911Y05181D02*
Y05225D01*
X06878Y05258D02*
X06911Y05225D01*
X06145Y04553D02*
Y04684D01*
X06444Y06033D02*
Y06877D01*
X06145Y03751D02*
Y03751D01*
X0832Y05708D02*
X08477Y05552D01*
Y05335D02*
Y05552D01*
X06969Y07428D02*
Y07428D01*
X0705Y07428D02*
X0711Y07488D01*
Y08188*
X08077Y04801D02*
Y05035D01*
X06346Y04986D02*
Y06877D01*
X06208Y04848D02*
X06346Y04986D01*
X06145Y04848D02*
Y04848D01*
X06248Y06384D02*
Y06877D01*
X06133Y05318D02*
Y0545D01*
X07877Y05035D02*
Y05205D01*
X07825Y05258D02*
X07877Y05205D01*
X07825Y05258D02*
Y05598D01*
X07865Y05638*
Y06255*
X0782Y06299D02*
X07865Y06255D01*
X0782Y05708D02*
X07821D01*
X08377Y05035D02*
Y05101D01*
X06145Y04024D02*
Y04047D01*
X06836Y05905D02*
Y06102D01*
Y05708D02*
Y05905D01*
X08277Y05035D02*
Y05335D01*
X06145Y04047D02*
Y04553D01*
X0782Y05905D02*
Y06102D01*
Y06299D02*
Y06496D01*
X06149Y06627D02*
Y06877D01*
X0782Y06791D02*
Y06889D01*
Y06791D02*
D01*
Y06692D02*
Y06791D01*
G54D30*
X09629Y02295D02*
Y03309D01*
X09216Y02248D02*
X09582D01*
X09629Y02295*
X09448Y0349D02*
X09629Y03309D01*
X09133Y0233D02*
Y02387D01*
Y0233D02*
X09216Y02248D01*
X09448Y0349D02*
D01*
X09133D02*
X09289D01*
X09448Y02387D02*
Y0333D01*
X09289Y0349D02*
X09448Y0333D01*
X06824Y06197D02*
X07061D01*
X0709Y06226D02*
Y06882D01*
X06669Y07304D02*
X0709Y06882D01*
X07061Y06197D02*
X0709Y06226D01*
X07237Y04976D02*
X07426Y05165D01*
X07011Y04881D02*
Y04947D01*
X07041Y04976*
X07237*
X06669Y07728D02*
Y07842D01*
X0693Y08244D02*
X0694Y08277D01*
X06913Y08188D02*
X0693Y08244D01*
X06669Y07842D02*
X06913Y08086D01*
Y08188*
X05846Y07866D02*
X06228D01*
X06334Y07972D02*
Y08165D01*
X06228Y07866D02*
X06334Y07972D01*
X07177Y08277D02*
X07302D01*
X0694D02*
X07177D01*
X08177Y05335D02*
Y07401D01*
X07302Y08277D02*
X08177Y07401D01*
X06669Y07304D02*
Y07428D01*
X06777Y0615D02*
X06824Y06197D01*
X06777Y05398D02*
Y0615D01*
Y05398D02*
X06778Y05397D01*
X06928*
X07011Y05313*
Y05181D02*
Y05313D01*
X07426Y05165D02*
Y08028D01*
X07177Y08277D02*
X07426Y08028D01*
G54D31*
X0632Y0456D03*
Y0484D03*
X09228Y07206D03*
X09229Y07107D03*
X05842Y08169D03*
X05708Y00984D03*
X09618Y08196D03*
X08622Y00984D03*
G54D32*
X06133Y05614D03*
Y05318D03*
X06145Y04047D03*
Y03751D03*
X06133Y06082D03*
Y06377D03*
X06145Y03057D03*
Y03352D03*
Y04848D03*
Y04553D03*
X06153Y02251D03*
Y02547D03*
X06917Y03041D03*
Y03336D03*
X07696Y02248D03*
Y02543D03*
X06909Y02257D03*
Y02553D03*
X07685Y03039D03*
Y03334D03*
G54D33*
X05917Y01267D03*
X06115Y01272D03*
X06015Y01472D03*
X0661D03*
X06709Y01272D03*
X06511Y01267D03*
X07129Y01472D03*
X07229Y01272D03*
X07031Y01267D03*
X07669Y01472D03*
X07768Y01272D03*
X0757Y01267D03*
X082Y01468D03*
X083Y01268D03*
X08102Y01263D03*
X08983Y01599D03*
X09133Y01324D03*
X09448D03*
X08983Y02662D03*
X09133Y02387D03*
X09448D03*
X08983Y04827D03*
X09133Y04553D03*
X09448D03*
X08983Y03764D03*
X09133Y0349D03*
X09448D03*
G54D34*
X06369Y07428D03*
X07311Y05181D03*
X07877Y05035D03*
X09166Y05275D03*
G54D35*
X06469Y07428D03*
X06569D03*
X06669D03*
X06769D03*
X06869D03*
X06969D03*
X06369Y07728D03*
X06469D03*
X06569D03*
X06669D03*
X06769D03*
X06869D03*
X06969D03*
X06711Y04881D03*
X06811D03*
X06911D03*
X07011D03*
X07111D03*
X07211D03*
X07311D03*
X06711Y05181D03*
X06811D03*
X06911D03*
X07011D03*
X07111D03*
X07211D03*
X08477Y05335D03*
X08377D03*
X08277D03*
X08177D03*
X08077D03*
X07977D03*
X07877D03*
X08477Y05035D03*
X08377D03*
X08277D03*
X08177D03*
X08077D03*
X07977D03*
X09666Y05275D03*
X09566D03*
X09466D03*
X09366D03*
X09266D03*
G54D36*
X05846Y07866D03*
G54D37*
X05846Y07767D03*
Y07669D03*
G54D38*
X09429Y07303D03*
Y06905D03*
G54D39*
X06913Y08188D03*
X07011D03*
X06236Y08165D03*
X06334D03*
X06248Y06877D03*
X06346D03*
X06444D03*
X06543D03*
X06641D03*
X0674D03*
X06476Y00944D03*
X06377D03*
X06279D03*
X06181D03*
X06082D03*
X05984D03*
G54D40*
X0711Y08188D03*
X06433Y08165D03*
X06149Y06877D03*
X06574Y00944D03*
G54D41*
X08133Y04574D03*
X08574Y03047D03*
G54D42*
X08133Y04476D03*
Y04377D03*
Y04279D03*
Y04181D03*
Y04082D03*
Y03984D03*
X08574Y03145D03*
Y03244D03*
Y03342D03*
Y0344D03*
Y03539D03*
Y03637D03*
G54D43*
X07204Y04342D03*
Y04204D03*
X06775Y04342D03*
Y04204D03*
X07637Y04342D03*
Y04204D03*
X06771Y03863D03*
Y03725D03*
X07204Y03863D03*
Y03725D03*
X07637Y03863D03*
Y03725D03*
G54D44*
X07336Y05511D03*
X06836D03*
X07336Y05708D03*
X06836D03*
Y05905D03*
X07336D03*
Y06102D03*
X06836D03*
X0832Y06496D03*
X0782D03*
Y06299D03*
X0832D03*
X06836Y06496D03*
X07336D03*
X0832Y06102D03*
X0782D03*
Y05905D03*
X0832D03*
Y05708D03*
X0782D03*
X07336Y06299D03*
X06836D03*
X0832Y06889D03*
X0782D03*
X0832Y06692D03*
X0782D03*
G54D45*
X08968Y06665D03*
X08677Y05039D03*
X08779Y05389D03*
X06992Y06397D03*
X06708Y05055D03*
X05958Y01602D03*
X08738Y0618D03*
X07627Y03404D03*
X07172Y03156D03*
X0566Y06338D03*
X08064Y03725D03*
X07402Y03124D03*
X07357Y03919D03*
M02*