%FSTAX23Y23*%
%MOIN*%
%SFA1B1*%

%IPPOS*%
%ADD10C,0.007870*%
%ADD11C,0.010000*%
%ADD12C,0.019680*%
%LNpwrsup-1*%
%LPD*%
G54D10*
X03311Y03366D02*
X03311Y03376D01*
X0331Y03386*
X03308Y03396*
X03306Y03405*
X03303Y03415*
X03299Y03424*
X03295Y03433*
X0329Y03442*
X03285Y03451*
X03279Y03459*
X03272Y03466*
X03265Y03473*
X03258Y0348*
X0325Y03486*
X03242Y03492*
X03233Y03497*
X03224Y03502*
X03215Y03506*
X03205Y03509*
X03196Y03512*
X03186Y03514*
X03176Y03515*
X03166Y03516*
X03156*
X03146Y03515*
X03136Y03514*
X03126Y03512*
X03116Y03509*
X03107Y03506*
X03098Y03502*
X03089Y03497*
X0308Y03492*
X03072Y03486*
X03064Y0348*
X03057Y03473*
X0305Y03466*
X03043Y03459*
X03037Y03451*
X03032Y03442*
X03027Y03433*
X03023Y03424*
X03019Y03415*
X03016Y03405*
X03014Y03396*
X03012Y03386*
X03011Y03376*
X03011Y03366*
X03011Y03356*
X03012Y03346*
X03014Y03336*
X03016Y03326*
X03019Y03316*
X03023Y03307*
X03027Y03298*
X03032Y03289*
X03037Y03281*
X03043Y03273*
X0305Y03265*
X03057Y03258*
X03064Y03251*
X03072Y03245*
X0308Y03239*
X03089Y03234*
X03098Y0323*
X03107Y03226*
X03116Y03222*
X03126Y0322*
X03136Y03218*
X03146Y03216*
X03156Y03216*
X03166*
X03176Y03216*
X03186Y03218*
X03196Y0322*
X03205Y03222*
X03215Y03226*
X03224Y0323*
X03233Y03234*
X03242Y03239*
X0325Y03245*
X03258Y03251*
X03265Y03258*
X03272Y03265*
X03279Y03273*
X03285Y03281*
X0329Y03289*
X03295Y03298*
X03299Y03307*
X03303Y03316*
X03306Y03326*
X03308Y03336*
X0331Y03346*
X03311Y03356*
X03311Y03366*
X02815Y03377D02*
X02815Y03387D01*
X02814Y03397*
X02812Y03407*
X0281Y03417*
X02807Y03427*
X02803Y03436*
X02799Y03445*
X02794Y03454*
X02789Y03462*
X02783Y0347*
X02776Y03478*
X02769Y03485*
X02762Y03492*
X02754Y03498*
X02746Y03504*
X02737Y03509*
X02728Y03514*
X02719Y03517*
X02709Y03521*
X027Y03523*
X0269Y03525*
X0268Y03527*
X0267Y03527*
X0266*
X0265Y03527*
X0264Y03525*
X0263Y03523*
X0262Y03521*
X02611Y03517*
X02602Y03514*
X02593Y03509*
X02584Y03504*
X02576Y03498*
X02568Y03492*
X02561Y03485*
X02554Y03478*
X02547Y0347*
X02541Y03462*
X02536Y03454*
X02531Y03445*
X02527Y03436*
X02523Y03427*
X0252Y03417*
X02518Y03407*
X02516Y03397*
X02515Y03387*
X02515Y03377*
X02515Y03367*
X02516Y03357*
X02518Y03348*
X0252Y03338*
X02523Y03328*
X02527Y03319*
X02531Y0331*
X02536Y03301*
X02541Y03293*
X02547Y03284*
X02554Y03277*
X02561Y0327*
X02568Y03263*
X02576Y03257*
X02584Y03251*
X02593Y03246*
X02602Y03241*
X02611Y03237*
X0262Y03234*
X0263Y03232*
X0264Y0323*
X0265Y03228*
X0266Y03228*
X0267*
X0268Y03228*
X0269Y0323*
X027Y03232*
X02709Y03234*
X02719Y03237*
X02728Y03241*
X02737Y03246*
X02746Y03251*
X02754Y03257*
X02762Y03263*
X02769Y0327*
X02776Y03277*
X02783Y03284*
X02789Y03293*
X02794Y03301*
X02799Y0331*
X02803Y03319*
X02807Y03328*
X0281Y03338*
X02812Y03348*
X02814Y03357*
X02815Y03367*
X02815Y03377*
X02327Y03381D02*
X02326Y03391D01*
X02325Y03401*
X02324Y03411*
X02321Y03421*
X02318Y03431*
X02315Y0344*
X02311Y03449*
X02306Y03458*
X023Y03466*
X02294Y03474*
X02288Y03482*
X02281Y03489*
X02274Y03496*
X02266Y03502*
X02257Y03508*
X02249Y03513*
X0224Y03517*
X02231Y03521*
X02221Y03525*
X02211Y03527*
X02202Y03529*
X02192Y03531*
X02182Y03531*
X02172*
X02162Y03531*
X02152Y03529*
X02142Y03527*
X02132Y03525*
X02123Y03521*
X02114Y03517*
X02105Y03513*
X02096Y03508*
X02088Y03502*
X0208Y03496*
X02072Y03489*
X02065Y03482*
X02059Y03474*
X02053Y03466*
X02048Y03458*
X02043Y03449*
X02039Y0344*
X02035Y03431*
X02032Y03421*
X0203Y03411*
X02028Y03401*
X02027Y03391*
X02027Y03381*
X02027Y03371*
X02028Y03361*
X0203Y03352*
X02032Y03342*
X02035Y03332*
X02039Y03323*
X02043Y03314*
X02048Y03305*
X02053Y03297*
X02059Y03288*
X02065Y03281*
X02072Y03274*
X0208Y03267*
X02088Y03261*
X02096Y03255*
X02105Y0325*
X02114Y03245*
X02123Y03241*
X02132Y03238*
X02142Y03235*
X02152Y03233*
X02162Y03232*
X02172Y03231*
X02182*
X02192Y03232*
X02202Y03233*
X02211Y03235*
X02221Y03238*
X02231Y03241*
X0224Y03245*
X02249Y0325*
X02257Y03255*
X02266Y03261*
X02274Y03267*
X02281Y03274*
X02288Y03281*
X02294Y03288*
X023Y03297*
X02306Y03305*
X02311Y03314*
X02315Y03323*
X02318Y03332*
X02321Y03342*
X02324Y03352*
X02325Y03361*
X02326Y03371*
X02327Y03381*
X03323Y0383D02*
X03322Y0384D01*
X03321Y0385*
X0332Y0386*
X03317Y0387*
X03314Y03879*
X03311Y03889*
X03307Y03898*
X03302Y03907*
X03296Y03915*
X0329Y03923*
X03284Y03931*
X03277Y03938*
X0327Y03945*
X03262Y03951*
X03253Y03957*
X03245Y03962*
X03236Y03966*
X03227Y0397*
X03217Y03973*
X03208Y03976*
X03198Y03978*
X03188Y03979*
X03178Y0398*
X03168*
X03158Y03979*
X03148Y03978*
X03138Y03976*
X03128Y03973*
X03119Y0397*
X0311Y03966*
X03101Y03962*
X03092Y03957*
X03084Y03951*
X03076Y03945*
X03068Y03938*
X03061Y03931*
X03055Y03923*
X03049Y03915*
X03044Y03907*
X03039Y03898*
X03035Y03889*
X03031Y03879*
X03028Y0387*
X03026Y0386*
X03024Y0385*
X03023Y0384*
X03023Y0383*
X03023Y0382*
X03024Y0381*
X03026Y038*
X03028Y03791*
X03031Y03781*
X03035Y03772*
X03039Y03763*
X03044Y03754*
X03049Y03745*
X03055Y03737*
X03061Y0373*
X03068Y03722*
X03076Y03716*
X03084Y03709*
X03092Y03704*
X03101Y03699*
X0311Y03694*
X03119Y0369*
X03128Y03687*
X03138Y03684*
X03148Y03682*
X03158Y03681*
X03168Y0368*
X03178*
X03188Y03681*
X03198Y03682*
X03208Y03684*
X03217Y03687*
X03227Y0369*
X03236Y03694*
X03245Y03699*
X03253Y03704*
X03262Y03709*
X0327Y03716*
X03277Y03722*
X03284Y0373*
X0329Y03737*
X03296Y03745*
X03302Y03754*
X03307Y03763*
X03311Y03772*
X03314Y03781*
X03317Y03791*
X0332Y038*
X03321Y0381*
X03322Y0382*
X03323Y0383*
X02815Y03865D02*
X02814Y03875D01*
X02813Y03885*
X02811Y03895*
X02809Y03905*
X02806Y03915*
X02803Y03924*
X02798Y03933*
X02794Y03942*
X02788Y0395*
X02782Y03958*
X02776Y03966*
X02769Y03973*
X02761Y0398*
X02753Y03986*
X02745Y03992*
X02737Y03997*
X02728Y04001*
X02718Y04005*
X02709Y04009*
X02699Y04011*
X02689Y04013*
X0268Y04015*
X0267Y04015*
X02659*
X02649Y04015*
X0264Y04013*
X0263Y04011*
X0262Y04009*
X02611Y04005*
X02601Y04001*
X02592Y03997*
X02584Y03992*
X02576Y03986*
X02568Y0398*
X0256Y03973*
X02553Y03966*
X02547Y03958*
X02541Y0395*
X02535Y03942*
X02531Y03933*
X02526Y03924*
X02523Y03915*
X0252Y03905*
X02518Y03895*
X02516Y03885*
X02515Y03875*
X02515Y03865*
X02515Y03855*
X02516Y03845*
X02518Y03835*
X0252Y03826*
X02523Y03816*
X02526Y03807*
X02531Y03798*
X02535Y03789*
X02541Y0378*
X02547Y03772*
X02553Y03765*
X0256Y03758*
X02568Y03751*
X02576Y03745*
X02584Y03739*
X02592Y03734*
X02601Y03729*
X02611Y03725*
X0262Y03722*
X0263Y03719*
X0264Y03717*
X02649Y03716*
X02659Y03715*
X0267*
X0268Y03716*
X02689Y03717*
X02699Y03719*
X02709Y03722*
X02718Y03725*
X02728Y03729*
X02737Y03734*
X02745Y03739*
X02753Y03745*
X02761Y03751*
X02769Y03758*
X02776Y03765*
X02782Y03772*
X02788Y0378*
X02794Y03789*
X02798Y03798*
X02803Y03807*
X02806Y03816*
X02809Y03826*
X02811Y03835*
X02813Y03845*
X02814Y03855*
X02815Y03865*
X0232Y03871D02*
X02319Y03881D01*
X02318Y03891*
X02316Y03901*
X02314Y03911*
X02311Y03921*
X02308Y0393*
X02303Y03939*
X02299Y03948*
X02293Y03956*
X02287Y03964*
X02281Y03972*
X02274Y03979*
X02266Y03986*
X02258Y03992*
X0225Y03998*
X02242Y04003*
X02233Y04007*
X02223Y04011*
X02214Y04015*
X02204Y04017*
X02194Y04019*
X02185Y04021*
X02175Y04021*
X02164*
X02154Y04021*
X02145Y04019*
X02135Y04017*
X02125Y04015*
X02116Y04011*
X02106Y04007*
X02097Y04003*
X02089Y03998*
X02081Y03992*
X02073Y03986*
X02065Y03979*
X02058Y03972*
X02052Y03964*
X02046Y03956*
X0204Y03948*
X02036Y03939*
X02031Y0393*
X02028Y03921*
X02025Y03911*
X02023Y03901*
X02021Y03891*
X0202Y03881*
X0202Y03871*
X0202Y03861*
X02021Y03851*
X02023Y03842*
X02025Y03832*
X02028Y03822*
X02031Y03813*
X02036Y03804*
X0204Y03795*
X02046Y03787*
X02052Y03778*
X02058Y03771*
X02065Y03764*
X02073Y03757*
X02081Y03751*
X02089Y03745*
X02097Y0374*
X02106Y03735*
X02116Y03731*
X02125Y03728*
X02135Y03726*
X02145Y03724*
X02154Y03722*
X02164Y03722*
X02175*
X02185Y03722*
X02194Y03724*
X02204Y03726*
X02214Y03728*
X02223Y03731*
X02233Y03735*
X02242Y0374*
X0225Y03745*
X02258Y03751*
X02266Y03757*
X02274Y03764*
X02281Y03771*
X02287Y03778*
X02293Y03787*
X02299Y03795*
X02303Y03804*
X02308Y03813*
X02311Y03822*
X02314Y03832*
X02316Y03842*
X02318Y03851*
X02319Y03861*
X0232Y03871*
X02917Y04138D02*
Y0434D01*
X03337*
Y04138D02*
Y0434D01*
X02917Y04138D02*
X03337D01*
X02002Y04142D02*
Y04344D01*
X02423*
Y04142D02*
Y04344D01*
X02002Y04142D02*
X02423D01*
G54D11*
X01687Y03185D02*
Y04106D01*
X01648Y04144D02*
X01687Y04106D01*
X01488Y04144D02*
X01648D01*
X01445Y03185D02*
Y04102D01*
X01488Y04144*
X01445Y03185D02*
X01687D01*
G54D12*
X02957Y0267D02*
Y02672D01*
Y0267D02*
X03347D01*
Y02899*
X02957D02*
X03347D01*
X02957Y02672D02*
Y02899D01*
X03082Y02871D02*
Y02898D01*
Y02871D02*
X0325D01*
Y02896*
X03246D02*
X0325D01*
X01903Y02908D02*
X01907D01*
Y02882D02*
Y02908D01*
X0174Y02882D02*
X01907D01*
X0174D02*
Y0291D01*
X01615Y02684D02*
Y02911D01*
X02004*
Y02682D02*
Y02911D01*
X01615Y02682D02*
X02004D01*
X01615D02*
Y02684D01*
M02*