%FSTAX23Y23*%
%MOIN*%
%SFA1B1*%

%IPPOS*%
%ADD10C,0.007870*%
%ADD11C,0.010000*%
%ADD12C,0.019680*%
%LNpwrsup-1*%
%LPD*%
G54D10*
X03311Y03364D02*
X03311Y03374D01*
X0331Y03384*
X03308Y03394*
X03306Y03403*
X03303Y03413*
X03299Y03422*
X03295Y03431*
X0329Y0344*
X03285Y03449*
X03279Y03457*
X03272Y03464*
X03265Y03472*
X03258Y03478*
X0325Y03484*
X03242Y0349*
X03233Y03495*
X03224Y035*
X03215Y03504*
X03205Y03507*
X03196Y0351*
X03186Y03512*
X03176Y03513*
X03166Y03514*
X03156*
X03146Y03513*
X03136Y03512*
X03126Y0351*
X03116Y03507*
X03107Y03504*
X03098Y035*
X03089Y03495*
X0308Y0349*
X03072Y03484*
X03064Y03478*
X03057Y03472*
X0305Y03464*
X03043Y03457*
X03037Y03449*
X03032Y0344*
X03027Y03431*
X03023Y03422*
X03019Y03413*
X03016Y03403*
X03014Y03394*
X03012Y03384*
X03011Y03374*
X03011Y03364*
X03011Y03354*
X03012Y03344*
X03014Y03334*
X03016Y03324*
X03019Y03314*
X03023Y03305*
X03027Y03296*
X03032Y03287*
X03037Y03279*
X03043Y03271*
X0305Y03263*
X03057Y03256*
X03064Y03249*
X03072Y03243*
X0308Y03237*
X03089Y03232*
X03098Y03228*
X03107Y03224*
X03116Y0322*
X03126Y03218*
X03136Y03216*
X03146Y03214*
X03156Y03214*
X03166*
X03176Y03214*
X03186Y03216*
X03196Y03218*
X03205Y0322*
X03215Y03224*
X03224Y03228*
X03233Y03232*
X03242Y03237*
X0325Y03243*
X03258Y03249*
X03265Y03256*
X03272Y03263*
X03279Y03271*
X03285Y03279*
X0329Y03287*
X03295Y03296*
X03299Y03305*
X03303Y03314*
X03306Y03324*
X03308Y03334*
X0331Y03344*
X03311Y03354*
X03311Y03364*
X02815Y03375D02*
X02815Y03386D01*
X02814Y03395*
X02812Y03405*
X0281Y03415*
X02807Y03425*
X02803Y03434*
X02799Y03443*
X02794Y03452*
X02789Y0346*
X02783Y03468*
X02776Y03476*
X02769Y03483*
X02762Y0349*
X02754Y03496*
X02746Y03502*
X02737Y03507*
X02728Y03512*
X02719Y03515*
X02709Y03519*
X027Y03521*
X0269Y03523*
X0268Y03525*
X0267Y03525*
X0266*
X0265Y03525*
X0264Y03523*
X0263Y03521*
X0262Y03519*
X02611Y03515*
X02602Y03512*
X02593Y03507*
X02584Y03502*
X02576Y03496*
X02568Y0349*
X02561Y03483*
X02554Y03476*
X02547Y03468*
X02541Y0346*
X02536Y03452*
X02531Y03443*
X02527Y03434*
X02523Y03425*
X0252Y03415*
X02518Y03405*
X02516Y03395*
X02515Y03386*
X02515Y03375*
X02515Y03365*
X02516Y03355*
X02518Y03346*
X0252Y03336*
X02523Y03326*
X02527Y03317*
X02531Y03308*
X02536Y03299*
X02541Y03291*
X02547Y03283*
X02554Y03275*
X02561Y03268*
X02568Y03261*
X02576Y03255*
X02584Y03249*
X02593Y03244*
X02602Y03239*
X02611Y03236*
X0262Y03232*
X0263Y0323*
X0264Y03228*
X0265Y03226*
X0266Y03226*
X0267*
X0268Y03226*
X0269Y03228*
X027Y0323*
X02709Y03232*
X02719Y03236*
X02728Y03239*
X02737Y03244*
X02746Y03249*
X02754Y03255*
X02762Y03261*
X02769Y03268*
X02776Y03275*
X02783Y03283*
X02789Y03291*
X02794Y03299*
X02799Y03308*
X02803Y03317*
X02807Y03326*
X0281Y03336*
X02812Y03346*
X02814Y03355*
X02815Y03365*
X02815Y03375*
X02327Y03379D02*
X02326Y03389D01*
X02325Y03399*
X02324Y03409*
X02321Y03419*
X02318Y03429*
X02315Y03438*
X02311Y03447*
X02306Y03456*
X023Y03464*
X02294Y03472*
X02288Y0348*
X02281Y03487*
X02274Y03494*
X02266Y035*
X02257Y03506*
X02249Y03511*
X0224Y03515*
X02231Y03519*
X02221Y03523*
X02211Y03525*
X02202Y03527*
X02192Y03529*
X02182Y03529*
X02172*
X02162Y03529*
X02152Y03527*
X02142Y03525*
X02132Y03523*
X02123Y03519*
X02114Y03515*
X02105Y03511*
X02096Y03506*
X02088Y035*
X0208Y03494*
X02072Y03487*
X02065Y0348*
X02059Y03472*
X02053Y03464*
X02048Y03456*
X02043Y03447*
X02039Y03438*
X02035Y03429*
X02032Y03419*
X0203Y03409*
X02028Y03399*
X02027Y03389*
X02027Y03379*
X02027Y03369*
X02028Y03359*
X0203Y0335*
X02032Y0334*
X02035Y0333*
X02039Y03321*
X02043Y03312*
X02048Y03303*
X02053Y03295*
X02059Y03286*
X02065Y03279*
X02072Y03272*
X0208Y03265*
X02088Y03259*
X02096Y03253*
X02105Y03248*
X02114Y03243*
X02123Y03239*
X02132Y03236*
X02142Y03234*
X02152Y03232*
X02162Y0323*
X02172Y0323*
X02182*
X02192Y0323*
X02202Y03232*
X02211Y03234*
X02221Y03236*
X02231Y03239*
X0224Y03243*
X02249Y03248*
X02257Y03253*
X02266Y03259*
X02274Y03265*
X02281Y03272*
X02288Y03279*
X02294Y03286*
X023Y03295*
X02306Y03303*
X02311Y03312*
X02315Y03321*
X02318Y0333*
X02321Y0334*
X02324Y0335*
X02325Y03359*
X02326Y03369*
X02327Y03379*
X03323Y03828D02*
X03322Y03838D01*
X03321Y03848*
X0332Y03858*
X03317Y03868*
X03314Y03877*
X03311Y03887*
X03307Y03896*
X03302Y03905*
X03296Y03913*
X0329Y03921*
X03284Y03929*
X03277Y03936*
X0327Y03943*
X03262Y03949*
X03253Y03955*
X03245Y0396*
X03236Y03964*
X03227Y03968*
X03217Y03972*
X03208Y03974*
X03198Y03976*
X03188Y03977*
X03178Y03978*
X03168*
X03158Y03977*
X03148Y03976*
X03138Y03974*
X03128Y03972*
X03119Y03968*
X0311Y03964*
X03101Y0396*
X03092Y03955*
X03084Y03949*
X03076Y03943*
X03068Y03936*
X03061Y03929*
X03055Y03921*
X03049Y03913*
X03044Y03905*
X03039Y03896*
X03035Y03887*
X03031Y03877*
X03028Y03868*
X03026Y03858*
X03024Y03848*
X03023Y03838*
X03023Y03828*
X03023Y03818*
X03024Y03808*
X03026Y03798*
X03028Y03789*
X03031Y03779*
X03035Y0377*
X03039Y03761*
X03044Y03752*
X03049Y03743*
X03055Y03735*
X03061Y03728*
X03068Y0372*
X03076Y03714*
X03084Y03707*
X03092Y03702*
X03101Y03697*
X0311Y03692*
X03119Y03688*
X03128Y03685*
X03138Y03682*
X03148Y0368*
X03158Y03679*
X03168Y03678*
X03178*
X03188Y03679*
X03198Y0368*
X03208Y03682*
X03217Y03685*
X03227Y03688*
X03236Y03692*
X03245Y03697*
X03253Y03702*
X03262Y03707*
X0327Y03714*
X03277Y0372*
X03284Y03728*
X0329Y03735*
X03296Y03743*
X03302Y03752*
X03307Y03761*
X03311Y0377*
X03314Y03779*
X03317Y03789*
X0332Y03798*
X03321Y03808*
X03322Y03818*
X03323Y03828*
X02815Y03863D02*
X02814Y03873D01*
X02813Y03883*
X02811Y03893*
X02809Y03903*
X02806Y03913*
X02803Y03922*
X02798Y03931*
X02794Y0394*
X02788Y03948*
X02782Y03956*
X02776Y03964*
X02769Y03971*
X02761Y03978*
X02753Y03984*
X02745Y0399*
X02737Y03995*
X02728Y03999*
X02718Y04003*
X02709Y04007*
X02699Y04009*
X02689Y04011*
X0268Y04013*
X0267Y04013*
X02659*
X02649Y04013*
X0264Y04011*
X0263Y04009*
X0262Y04007*
X02611Y04003*
X02601Y03999*
X02592Y03995*
X02584Y0399*
X02576Y03984*
X02568Y03978*
X0256Y03971*
X02553Y03964*
X02547Y03956*
X02541Y03948*
X02535Y0394*
X02531Y03931*
X02526Y03922*
X02523Y03913*
X0252Y03903*
X02518Y03893*
X02516Y03883*
X02515Y03873*
X02515Y03863*
X02515Y03853*
X02516Y03843*
X02518Y03834*
X0252Y03824*
X02523Y03814*
X02526Y03805*
X02531Y03796*
X02535Y03787*
X02541Y03779*
X02547Y0377*
X02553Y03763*
X0256Y03756*
X02568Y03749*
X02576Y03743*
X02584Y03737*
X02592Y03732*
X02601Y03727*
X02611Y03723*
X0262Y0372*
X0263Y03717*
X0264Y03715*
X02649Y03714*
X02659Y03713*
X0267*
X0268Y03714*
X02689Y03715*
X02699Y03717*
X02709Y0372*
X02718Y03723*
X02728Y03727*
X02737Y03732*
X02745Y03737*
X02753Y03743*
X02761Y03749*
X02769Y03756*
X02776Y03763*
X02782Y0377*
X02788Y03779*
X02794Y03787*
X02798Y03796*
X02803Y03805*
X02806Y03814*
X02809Y03824*
X02811Y03834*
X02813Y03843*
X02814Y03853*
X02815Y03863*
X0232Y03873D02*
X02319Y03883D01*
X02318Y03893*
X02316Y03903*
X02314Y03913*
X02311Y03923*
X02308Y03932*
X02303Y03941*
X02299Y0395*
X02293Y03958*
X02287Y03966*
X02281Y03974*
X02274Y03981*
X02266Y03988*
X02258Y03994*
X0225Y04*
X02242Y04005*
X02233Y04009*
X02223Y04013*
X02214Y04017*
X02204Y04019*
X02194Y04021*
X02185Y04023*
X02175Y04023*
X02164*
X02154Y04023*
X02145Y04021*
X02135Y04019*
X02125Y04017*
X02116Y04013*
X02106Y04009*
X02097Y04005*
X02089Y04*
X02081Y03994*
X02073Y03988*
X02065Y03981*
X02058Y03974*
X02052Y03966*
X02046Y03958*
X0204Y0395*
X02036Y03941*
X02031Y03932*
X02028Y03923*
X02025Y03913*
X02023Y03903*
X02021Y03893*
X0202Y03883*
X0202Y03873*
X0202Y03863*
X02021Y03853*
X02023Y03844*
X02025Y03834*
X02028Y03824*
X02031Y03815*
X02036Y03806*
X0204Y03797*
X02046Y03789*
X02052Y0378*
X02058Y03773*
X02065Y03766*
X02073Y03759*
X02081Y03753*
X02089Y03747*
X02097Y03742*
X02106Y03737*
X02116Y03733*
X02125Y0373*
X02135Y03727*
X02145Y03725*
X02154Y03724*
X02164Y03723*
X02175*
X02185Y03724*
X02194Y03725*
X02204Y03727*
X02214Y0373*
X02223Y03733*
X02233Y03737*
X02242Y03742*
X0225Y03747*
X02258Y03753*
X02266Y03759*
X02274Y03766*
X02281Y03773*
X02287Y0378*
X02293Y03789*
X02299Y03797*
X02303Y03806*
X02308Y03815*
X02311Y03824*
X02314Y03834*
X02316Y03844*
X02318Y03853*
X02319Y03863*
X0232Y03873*
X02918Y04138D02*
X03338D01*
Y0434*
X02918D02*
X03338D01*
X02918Y04138D02*
Y0434D01*
X02003Y04142D02*
X02424D01*
Y04344*
X02003D02*
X02424D01*
X02003Y04142D02*
Y04344D01*
G54D11*
X01687Y03186D02*
Y04107D01*
X01648Y04145D02*
X01687Y04107D01*
X01488Y04145D02*
X01648D01*
X01445Y03186D02*
Y04103D01*
X01488Y04145*
X01445Y03186D02*
X01687D01*
X01451Y0424D02*
Y0419D01*
X01461Y0418*
X01481*
X01491Y0419*
Y0424*
X01551Y0418D02*
X01511D01*
X01551Y0422*
Y0423*
X01541Y0424*
X01521*
X01511Y0423*
X01571D02*
X01581Y0424D01*
X01601*
X01611Y0423*
Y0419*
X01601Y0418*
X01581*
X01571Y0419*
Y0423*
X02923Y04433D02*
Y04384D01*
X02933Y04374*
X02952*
X02962Y04384*
Y04433*
X02982D02*
X03022D01*
Y04423*
X02982Y04384*
Y04374*
X01908Y04148D02*
X01958D01*
X01968Y04158*
Y04178*
X01958Y04188*
X01908*
Y04248D02*
X01918Y04228D01*
X01938Y04208*
X01958*
X01968Y04218*
Y04238*
X01958Y04248*
X01948*
X01938Y04238*
Y04208*
X02856Y0271D02*
Y0269D01*
Y027*
X02906*
X02916Y0269*
Y0268*
X02906Y0267*
X02916Y0273D02*
Y0275D01*
Y0274*
X02856*
X02866Y0273*
Y0278D02*
X02856Y0279D01*
Y0281*
X02866Y0282*
X02876*
X02886Y0281*
Y028*
Y0281*
X02896Y0282*
X02906*
X02916Y0281*
Y0279*
X02906Y0278*
X01514Y02722D02*
Y02702D01*
Y02712*
X01564*
X01574Y02702*
Y02692*
X01564Y02682*
X01574Y02742D02*
Y02762D01*
Y02752*
X01514*
X01524Y02742*
X01574Y02832D02*
Y02792D01*
X01534Y02832*
X01524*
X01514Y02822*
Y02802*
X01524Y02792*
X02923Y03258D02*
X02913Y03248D01*
Y03228*
X02923Y03218*
X02963*
X02973Y03228*
Y03248*
X02963Y03258*
X02973Y03318D02*
Y03278D01*
X02933Y03318*
X02923*
X02913Y03308*
Y03288*
X02923Y03278*
X02973Y03378D02*
Y03338D01*
X02933Y03378*
X02923*
X02913Y03368*
Y03348*
X02923Y03338*
X02427Y0327D02*
X02417Y0326D01*
Y0324*
X02427Y0323*
X02467*
X02477Y0324*
Y0326*
X02467Y0327*
X02477Y0333D02*
Y0329D01*
X02437Y0333*
X02427*
X02417Y0332*
Y033*
X02427Y0329*
X02477Y0335D02*
Y0337D01*
Y0336*
X02417*
X02427Y0335*
X01939Y03274D02*
X01929Y03264D01*
Y03244*
X01939Y03234*
X01979*
X01989Y03244*
Y03264*
X01979Y03274*
X01989Y03334D02*
Y03294D01*
X01949Y03334*
X01939*
X01929Y03324*
Y03304*
X01939Y03294*
Y03354D02*
X01929Y03364D01*
Y03384*
X01939Y03394*
X01979*
X01989Y03384*
Y03364*
X01979Y03354*
X01939*
X02935Y03723D02*
X02925Y03713D01*
Y03693*
X02935Y03683*
X02975*
X02985Y03693*
Y03713*
X02975Y03723*
X02985Y03743D02*
Y03763D01*
Y03753*
X02925*
X02935Y03743*
X02975Y03793D02*
X02985Y03803D01*
Y03823*
X02975Y03833*
X02935*
X02925Y03823*
Y03803*
X02935Y03793*
X02945*
X02955Y03803*
Y03833*
X02427Y03758D02*
X02417Y03748D01*
Y03728*
X02427Y03718*
X02467*
X02477Y03728*
Y03748*
X02467Y03758*
X02477Y03778D02*
Y03798D01*
Y03788*
X02417*
X02427Y03778*
Y03828D02*
X02417Y03838D01*
Y03858*
X02427Y03868*
X02437*
X02447Y03858*
X02457Y03868*
X02467*
X02477Y03858*
Y03838*
X02467Y03828*
X02457*
X02447Y03838*
X02437Y03828*
X02427*
X02447Y03838D02*
Y03858D01*
X01935Y03762D02*
X01925Y03752D01*
Y03732*
X01935Y03722*
X01975*
X01985Y03732*
Y03752*
X01975Y03762*
X01985Y03782D02*
Y03802D01*
Y03792*
X01925*
X01935Y03782*
X01925Y03832D02*
Y03872D01*
X01935*
X01975Y03832*
X01985*
G54D12*
X03245Y02897D02*
X03249D01*
Y02872D02*
Y02897D01*
X03081Y02872D02*
X03249D01*
X03081D02*
Y02899D01*
X02956Y02673D02*
Y029D01*
X03346*
Y02671D02*
Y029D01*
X02956Y02671D02*
X03346D01*
X02956D02*
Y02673D01*
X01614Y02683D02*
Y02685D01*
Y02683D02*
X02003D01*
Y02912*
X01614D02*
X02003D01*
X01614Y02685D02*
Y02912D01*
X01739Y02883D02*
Y02911D01*
Y02883D02*
X01906D01*
Y02909*
X01902D02*
X01906D01*
M02*