%FSTAX23Y23*%
%MOIN*%
%SFA1B1*%

%IPPOS*%
%ADD21C,0.039370*%
%ADD22O,0.098430X0.062990*%
%ADD23R,0.098430X0.062990*%
%ADD24R,0.062990X0.098430*%
%ADD25O,0.062990X0.098430*%
%ADD26O,0.066930X0.098430*%
%ADD27R,0.066930X0.098430*%
%ADD28O,0.094000X0.047240*%
%ADD29C,0.060000*%
%LNpwrsup-1*%
%LPD*%
G36*
X03942Y04531D02*
X03944Y04526D01*
X03917Y045*
Y02393*
X01255*
X01225Y02362*
X0122Y02364*
X01228Y04531*
X03942*
G37*
%LNpwrsup-2*%
%LPC*%
G36*
X0135Y04476D02*
X01334Y04475D01*
X01318Y0447*
X01304Y04462*
X01291Y04452*
X01281Y04439*
X01273Y04425*
X01268Y04409*
X01267Y04393*
X01268Y04377*
X01273Y04361*
X01281Y04347*
X01291Y04334*
X01304Y04324*
X01318Y04316*
X01334Y04312*
X0135Y0431*
X01366Y04312*
X01382Y04316*
X01396Y04324*
X01409Y04334*
X01419Y04347*
X01427Y04361*
X01431Y04377*
X01433Y04393*
X01431Y04409*
X01427Y04425*
X01419Y04439*
X01409Y04452*
X01396Y04462*
X01382Y0447*
X01366Y04475*
X0135Y04476*
G37*
G36*
X03783Y04468D02*
X03767Y04467D01*
X03751Y04462*
X03737Y04454*
X03724Y04444*
X03714Y04431*
X03706Y04417*
X03701Y04402*
X037Y04385*
X03701Y04369*
X03706Y04354*
X03714Y04339*
X03724Y04327*
X03737Y04316*
X03751Y04309*
X03767Y04304*
X03783Y04302*
X03799Y04304*
X03815Y04309*
X03829Y04316*
X03842Y04327*
X03852Y04339*
X0386Y04354*
X03864Y04369*
X03866Y04385*
X03864Y04402*
X0386Y04417*
X03852Y04431*
X03842Y04444*
X03829Y04454*
X03815Y04462*
X03799Y04467*
X03783Y04468*
G37*
G36*
X0231Y04289D02*
X02296Y04287D01*
X02284Y04282*
X02273Y04274*
X02265Y04263*
X02263Y04258*
X02258*
X02256Y04263*
X02248Y04274*
X02237Y04282*
X02224Y04287*
X02211Y04289*
X02198Y04287*
X02185Y04282*
X02175Y04274*
X02169Y04266*
X02164Y04268*
Y04288*
X02061*
Y04151*
X02073*
X02074Y04144*
X02078Y04134*
X02085Y04126*
X02221Y0399*
Y03981*
X02216Y03979*
X02215Y0398*
X02204Y03984*
X02193Y03986*
X02146*
X02135Y03984*
X02125Y03981*
X01944*
X01934Y03979*
X01924Y03975*
X01916Y03969*
X01893Y03946*
X01886Y03938*
X01882Y03928*
X01881Y03918*
Y0344*
Y03311*
X01782Y03212*
X01776Y03204*
X01772Y03195*
X01771Y03184*
Y02874*
X0177Y02873*
X01765Y02876*
Y02887*
X01752*
Y03724*
X0175Y03735*
X01746Y03744*
X0174Y03752*
X01678Y03815*
X01669Y03821*
X0166Y03825*
X0165Y03827*
X01624*
X01618Y03832*
X01605Y03837*
X01592Y03839*
X01557*
X01543Y03837*
X01531Y03832*
X0152Y03823*
X01512Y03813*
X01507Y038*
X01505Y03787*
X01507Y03774*
X01512Y03761*
X0152Y0375*
X01531Y03742*
X01543Y03737*
X01557Y03735*
X01592*
X01605Y03737*
X01618Y03742*
X01624Y03747*
X01633*
X01672Y03708*
Y02887*
X01659*
Y0275*
X01765*
Y02767*
X0177Y02768*
X01773Y02765*
X01784Y02756*
X01797Y02751*
X01811Y02749*
X01824Y02751*
X01837Y02756*
X01848Y02765*
X01857Y02776*
X01857Y02777*
X01862*
X01863Y02776*
X01871Y02765*
X01882Y02756*
X01895Y02751*
X01909Y02749*
X01923Y02751*
X01936Y02756*
X01947Y02765*
X01955Y02776*
X01961Y02789*
X01963Y02803*
Y02834*
X01961Y02848*
X01955Y02861*
X01947Y02872*
X01936Y02881*
X01923Y02886*
X01909Y02888*
X01895Y02886*
X01882Y02881*
X01871Y02872*
X01863Y02861*
X01862Y0286*
X01857*
X01857Y02861*
X0185Y0287*
Y03168*
X01949Y03267*
X01955Y03275*
X01959Y03284*
X0196Y03295*
Y03401*
X02143*
X02154Y03402*
X0216Y03405*
X022*
X02211Y03406*
X02222Y0341*
X02231Y03417*
X02238Y03426*
X02242Y03437*
X02244Y03448*
X02242Y0346*
X02238Y0347*
X02231Y03479*
X02222Y03486*
X02211Y03491*
X022Y03492*
X02153*
X02142Y03491*
X02131Y03486*
X02124Y0348*
X0196*
Y03901*
X02132*
X02135Y039*
X02146Y03899*
X02193*
X02204Y039*
X02215Y03904*
X02216Y03906*
X02221Y03903*
Y03868*
X02172Y03848*
X02146*
X02135Y03847*
X02124Y03842*
X02115Y03835*
X02108Y03826*
X02104Y03816*
X02102Y03805*
X02104Y03793*
X02108Y03783*
X02115Y03774*
X02124Y03767*
X02135Y03762*
X02146Y03761*
X02193*
X02204Y03762*
X02215Y03767*
X02224Y03774*
X02231Y03783*
X02232Y03787*
X02275Y03804*
X02278Y03805*
X0228Y03806*
X02282Y03808*
X02284Y03809*
X02286Y03811*
X02289Y03812*
X0229Y03814*
X02292Y03816*
X02293Y03818*
X02295Y03821*
X02296Y03823*
X02297Y03825*
X02298Y03828*
X02299Y0383*
X02299Y03832*
X023Y03835*
X023Y03838*
X023Y03841*
Y04007*
X02299Y04017*
X02295Y04026*
X02289Y04035*
X02164Y04159*
Y04171*
X02169Y04173*
X02175Y04165*
X02185Y04157*
X02198Y04152*
X02211Y0415*
X02224Y04152*
X02237Y04157*
X02248Y04165*
X02256Y04176*
X02258Y04181*
X02263*
X02265Y04176*
X02273Y04165*
X02284Y04157*
X02296Y04152*
X0231Y0415*
X02323Y04152*
X02335Y04157*
X02346Y04165*
X02354Y04176*
X02359Y04188*
X02361Y04202*
Y04237*
X02359Y04251*
X02354Y04263*
X02346Y04274*
X02335Y04282*
X02323Y04287*
X0231Y04289*
G37*
G36*
X03224Y04285D02*
X03211Y04284D01*
X03198Y04278*
X03187Y0427*
X03179Y0426*
X03177Y04255*
X03172*
X0317Y0426*
X03162Y0427*
X03151Y04278*
X03139Y04284*
X03125Y04285*
X03112Y04284*
X031Y04278*
X03089Y0427*
X03083Y04263*
X03078Y04264*
Y04285*
X02976*
Y04147*
X02989*
X02989Y04146*
X02993Y04136*
X02999Y04128*
X03181Y03945*
X03179Y03941*
X03149*
X03138Y03939*
X03132Y03937*
X02952*
X02942Y03936*
X02932Y03932*
X02924Y03925*
X02794Y03795*
X02788Y03787*
X02784Y03777*
X02783Y03767*
Y02909*
X02784Y02899*
X02788Y02889*
X02794Y02881*
X02893Y02782*
X02901Y02776*
X0291Y02772*
X02921Y02771*
X03001*
Y02738*
X03108*
Y02755*
X03113Y02756*
X03115Y02753*
X03126Y02744*
X03139Y02739*
X03153Y02737*
X03167Y02739*
X0318Y02744*
X03191Y02753*
X03199Y02764*
X032Y02765*
X03205*
X03205Y02764*
X03214Y02753*
X03225Y02744*
X03238Y02739*
X03251Y02737*
X03265Y02739*
X03278Y02744*
X03289Y02753*
X03298Y02764*
X03303Y02777*
X03305Y02791*
Y02822*
X03303Y02836*
X03298Y02849*
X03291Y02858*
Y03005*
X0329Y03015*
X03286Y03024*
X0328Y03033*
X03201Y03112*
Y03255*
X03202Y03255*
X03287*
X03297Y03256*
X03307Y0326*
X03315Y03267*
X03425Y03377*
X03432Y03385*
X03435Y03395*
X03437Y03405*
Y04043*
X03435Y04053*
X03432Y04063*
X03425Y04071*
X03276Y04221*
Y04234*
X03274Y04247*
X03269Y0426*
X0326Y0427*
X0325Y04278*
X03237Y04284*
X03224Y04285*
G37*
G36*
X01643Y04035D02*
X01505D01*
Y03933*
X01643*
Y04035*
G37*
G36*
X02688Y03976D02*
X02641D01*
X0263Y03974*
X02619Y0397*
X0261Y03963*
X02603Y03954*
X02599Y03944*
X02597Y03932*
X02599Y03921*
X02603Y0391*
X0261Y03901*
X02619Y03894*
X0263Y0389*
X02641Y03889*
X02688*
X02699Y0389*
X0271Y03894*
X02719Y03901*
X02726Y0391*
X0273Y03921*
X02732Y03932*
X0273Y03944*
X02726Y03954*
X02719Y03963*
X0271Y0397*
X02699Y03974*
X02688Y03976*
G37*
G36*
X01592Y03642D02*
X01557D01*
X01543Y0364*
X01531Y03635*
X0152Y03627*
X01512Y03616*
X01507Y03603*
X01505Y0359*
X01507Y03577*
X01512Y03564*
X0152Y03554*
X01531Y03545*
X01543Y0354*
X01557Y03538*
X01592*
X01605Y0354*
X01618Y03545*
X01629Y03554*
X01637Y03564*
X01642Y03577*
X01644Y0359*
X01642Y03603*
X01637Y03616*
X01629Y03627*
X01618Y03635*
X01605Y0364*
X01592Y03642*
G37*
G36*
X02688Y03838D02*
X02641D01*
X0263Y03837*
X02619Y03832*
X0261Y03825*
X02603Y03816*
X02599Y03806*
X02597Y03795*
X02599Y03783*
X02603Y03773*
X0261Y03764*
X02619Y03757*
X02625Y03754*
Y03619*
X02625Y03616*
Y03484*
X0262Y03482*
X02611Y03475*
X02604Y03466*
X02599Y03456*
X02598Y03444*
X02599Y03433*
X02604Y03423*
X02611Y03414*
X0262Y03407*
X0263Y03402*
X02641Y03401*
X02688*
X027Y03402*
X0271Y03407*
X02719Y03414*
X02726Y03423*
X0273Y03433*
X02732Y03444*
X0273Y03456*
X02726Y03466*
X02719Y03475*
X0271Y03482*
X02705Y03484*
Y03619*
X02704Y03621*
Y03754*
X0271Y03757*
X02719Y03764*
X02726Y03773*
X0273Y03783*
X02732Y03795*
X0273Y03806*
X02726Y03816*
X02719Y03825*
X0271Y03832*
X02699Y03837*
X02688Y03838*
G37*
G36*
X01592Y03445D02*
X01557D01*
X01543Y03443*
X01531Y03438*
X0152Y0343*
X01512Y03419*
X01507Y03407*
X01505Y03393*
X01507Y0338*
X01512Y03367*
X0152Y03357*
X01531Y03348*
X01543Y03343*
X01557Y03342*
X01592*
X01605Y03343*
X01618Y03348*
X01629Y03357*
X01637Y03367*
X01642Y0338*
X01644Y03393*
X01642Y03407*
X01637Y03419*
X01629Y0343*
X01618Y03438*
X01605Y03443*
X01592Y03445*
G37*
G36*
X022Y03354D02*
X02153D01*
X02142Y03353*
X02131Y03348*
X02122Y03341*
X02115Y03332*
X02111Y03322*
X0211Y03311*
X02111Y03299*
X02115Y03289*
X02122Y0328*
X02131Y03273*
X02142Y03268*
X02153Y03267*
X022*
X02211Y03268*
X02222Y03273*
X02231Y0328*
X02238Y03289*
X02242Y03299*
X02244Y03311*
X02242Y03322*
X02238Y03332*
X02231Y03341*
X02222Y03348*
X02211Y03353*
X022Y03354*
G37*
G36*
X02688Y0335D02*
X02641D01*
X0263Y03349*
X0262Y03344*
X02611Y03337*
X02604Y03328*
X02599Y03318*
X02598Y03307*
X02599Y03295*
X02604Y03285*
X02611Y03276*
X0262Y03269*
X0263Y03264*
X02641Y03263*
X02688*
X027Y03264*
X0271Y03269*
X02719Y03276*
X02726Y03285*
X0273Y03295*
X02732Y03307*
X0273Y03318*
X02726Y03328*
X02719Y03337*
X0271Y03344*
X027Y03349*
X02688Y0335*
G37*
G36*
X01342Y02622D02*
X01326Y0262D01*
X0131Y02616*
X01296Y02608*
X01283Y02598*
X01273Y02585*
X01265Y02571*
X01261Y02555*
X01259Y02539*
X01261Y02523*
X01265Y02507*
X01273Y02493*
X01283Y0248*
X01296Y0247*
X0131Y02462*
X01326Y02457*
X01342Y02456*
X01358Y02457*
X01374Y02462*
X01388Y0247*
X01401Y0248*
X01411Y02493*
X01419Y02507*
X01424Y02523*
X01425Y02539*
X01424Y02555*
X01419Y02571*
X01411Y02585*
X01401Y02598*
X01388Y02608*
X01374Y02616*
X01358Y0262*
X01342Y02622*
G37*
G36*
X03771Y02594D02*
X03755Y02593D01*
X03739Y02588*
X03725Y0258*
X03712Y0257*
X03702Y02557*
X03694Y02543*
X0369Y02528*
X03688Y02511*
X0369Y02495*
X03694Y0248*
X03702Y02465*
X03712Y02453*
X03725Y02442*
X03739Y02435*
X03755Y0243*
X03771Y02428*
X03787Y0243*
X03803Y02435*
X03817Y02442*
X0383Y02453*
X0384Y02465*
X03848Y0248*
X03853Y02495*
X03854Y02511*
X03853Y02528*
X03848Y02543*
X0384Y02557*
X0383Y0257*
X03817Y0258*
X03803Y02588*
X03787Y02593*
X03771Y02594*
G37*
%LNpwrsup-3*%
%LPD*%
G36*
X03179Y04173D02*
X03187Y04162D01*
X03198Y04154*
X03211Y04148*
X03224Y04147*
X03236Y04148*
X03357Y04026*
Y03421*
X0327Y03334*
X03202*
X03196Y03337*
X03184Y03338*
X03138*
X03129Y03337*
X03127Y03342*
X03173Y03389*
X03184*
X03196Y0339*
X03206Y03395*
X03215Y03402*
X03222Y03411*
X03226Y03421*
X03228Y03433*
X03226Y03444*
X03222Y03454*
X03215Y03463*
X03212Y03466*
Y03719*
X03218Y03722*
X03227Y03728*
X03234Y03738*
X03236Y03743*
X03287Y03794*
X03293Y03802*
X03297Y03812*
X03299Y03822*
Y03924*
X03297Y03934*
X03293Y03944*
X03287Y03952*
X03078Y04161*
Y04168*
X03083Y04169*
X03089Y04162*
X031Y04154*
X03112Y04148*
X03125Y04147*
X03139Y04148*
X03151Y04154*
X03162Y04162*
X0317Y04173*
X03172Y04177*
X03177*
X03179Y04173*
G37*
G36*
X03219Y03855D02*
Y03838D01*
X03184Y03803*
X03149*
X03138Y03802*
X03128Y03797*
X03118Y0379*
X03112Y03781*
X03107Y03771*
X03106Y03759*
X03107Y03748*
X03112Y03738*
X03118Y03728*
X03128Y03722*
X03133Y03719*
Y03476*
X03126Y03475*
X03116Y0347*
X03107Y03463*
X031Y03454*
X03095Y03444*
X03094Y03433*
X03095Y03423*
X03042Y0337*
X03036Y03362*
X03032Y03352*
X03031Y03342*
Y03092*
X03032Y03081*
X03036Y03072*
X03042Y03063*
X03113Y02993*
Y02862*
X03113Y02861*
X03108Y02864*
Y02875*
X03001*
Y0285*
X02937*
X02862Y02925*
Y03751*
X02969Y03857*
X03132*
X03138Y03855*
X03149Y03853*
X03196*
X03207Y03855*
X03214Y03858*
X03219Y03855*
G37*
G36*
X03212Y02988D02*
Y02858D01*
X03205Y02849*
X03205Y02848*
X032*
X03199Y02849*
X03193Y02858*
Y03001*
X03197Y03002*
X03212Y02988*
G37*
G54D21*
X02921Y02811D02*
X03041D01*
X02822Y02909D02*
Y03767D01*
Y02909D02*
X02921Y02811D01*
X03397Y03405D02*
Y04043D01*
X03161Y03295D02*
X03287D01*
X03397Y03405*
X03224Y04205D02*
Y04216D01*
Y04205D02*
X03235Y04194D01*
X03246*
X03397Y04043*
X01921Y03295D02*
Y0344D01*
Y03918*
X02151Y03448D02*
X02177D01*
X02143Y0344D02*
X02151Y03448D01*
X01921Y0344D02*
X02143D01*
X01811Y03184D02*
X01921Y03295D01*
X01811Y02818D02*
Y03184D01*
X01921Y03918D02*
X01944Y03941D01*
X02168*
X0217Y03942*
X03045Y02807D02*
X03055D01*
X03041Y02811D02*
X03045Y02807D01*
X02822Y03767D02*
X02952Y03897D01*
X03173*
Y03433D02*
Y03759D01*
X02113Y04154D02*
Y0422D01*
Y04154D02*
X02261Y04007D01*
Y03841D02*
Y04007D01*
X0217Y03805D02*
X02261Y03841D01*
X03027Y04156D02*
Y04216D01*
Y04156D02*
X03259Y03924D01*
Y03822D02*
Y03924D01*
X03197Y03759D02*
X03259Y03822D01*
X03173Y03759D02*
X03197D01*
X01712Y02818D02*
Y03724D01*
X0165Y03787D02*
X01712Y03724D01*
X01574Y03787D02*
X0165D01*
X03161Y03433D02*
X03173D01*
X03153Y02807D02*
Y03009D01*
X03071Y03092D02*
X03153Y03009D01*
X03071Y03092D02*
Y03342D01*
X03161Y03433*
X02665Y03619D02*
Y03795D01*
Y03619D02*
X02665Y03619D01*
Y03444D02*
Y03619D01*
X03161Y03095D02*
Y03295D01*
Y03095D02*
X03251Y03005D01*
Y02807D02*
Y03005D01*
G54D22*
X01574Y03787D03*
Y03393D03*
Y0359D03*
G54D23*
X01574Y03984D03*
G54D24*
X03027Y04216D03*
X02113Y0422D03*
G54D25*
X03125Y04216D03*
X03224D03*
X02211Y0422D03*
X0231D03*
G54D26*
X03251Y02807D03*
X03153D03*
X01811Y02818D03*
X01909D03*
G54D27*
X03055Y02807D03*
X01712Y02818D03*
G54D28*
X03161Y03433D03*
Y03295D03*
X02665Y03444D03*
Y03307D03*
X02177Y03448D03*
Y03311D03*
X03173Y03897D03*
Y03759D03*
X02665Y03932D03*
Y03795D03*
X0217Y03805D03*
Y03942D03*
G54D29*
X03783Y04385D03*
X03771Y02511D03*
X01342Y02539D03*
X0135Y04393D03*
M02*