%FSTAX23Y23*%
%MOIN*%
%SFA1B1*%

%IPPOS*%
%ADD21C,0.039370*%
%ADD22O,0.098430X0.062990*%
%ADD23R,0.098430X0.062990*%
%ADD24R,0.062990X0.098430*%
%ADD25O,0.062990X0.098430*%
%ADD26O,0.066930X0.098430*%
%ADD27R,0.066930X0.098430*%
%ADD28O,0.094000X0.047240*%
%ADD29C,0.060000*%
%LNpwrsup-1*%
%LPD*%
G36*
X03922Y04539D02*
X03924Y04534D01*
X03897Y04507*
Y02401*
X01236*
X01205Y0237*
X012Y02372*
X01208Y04539*
X03922*
G37*
%LNpwrsup-2*%
%LPC*%
G36*
X0135Y04476D02*
X01334Y04475D01*
X01318Y0447*
X01304Y04462*
X01291Y04452*
X01281Y04439*
X01273Y04425*
X01268Y04409*
X01267Y04393*
X01268Y04377*
X01273Y04361*
X01281Y04347*
X01291Y04334*
X01304Y04324*
X01318Y04316*
X01334Y04312*
X0135Y0431*
X01366Y04312*
X01382Y04316*
X01396Y04324*
X01409Y04334*
X01419Y04347*
X01427Y04361*
X01431Y04377*
X01433Y04393*
X01431Y04409*
X01427Y04425*
X01419Y04439*
X01409Y04452*
X01396Y04462*
X01382Y0447*
X01366Y04475*
X0135Y04476*
G37*
G36*
X03783Y04468D02*
X03767Y04467D01*
X03751Y04462*
X03737Y04454*
X03724Y04444*
X03714Y04431*
X03706Y04417*
X03701Y04402*
X037Y04385*
X03701Y04369*
X03706Y04354*
X03714Y04339*
X03724Y04327*
X03737Y04316*
X03751Y04309*
X03767Y04304*
X03783Y04302*
X03799Y04304*
X03815Y04309*
X03829Y04316*
X03842Y04327*
X03852Y04339*
X0386Y04354*
X03864Y04369*
X03866Y04385*
X03864Y04402*
X0386Y04417*
X03852Y04431*
X03842Y04444*
X03829Y04454*
X03815Y04462*
X03799Y04467*
X03783Y04468*
G37*
G36*
X0231Y04289D02*
X02296Y04287D01*
X02284Y04282*
X02273Y04274*
X02265Y04263*
X02263Y04258*
X02258*
X02256Y04263*
X02248Y04274*
X02237Y04282*
X02224Y04287*
X02211Y04289*
X02198Y04287*
X02185Y04282*
X02175Y04274*
X02169Y04266*
X02164Y04268*
Y04288*
X02061*
Y04224*
X0186Y04023*
X01643*
Y04035*
X01505*
Y03933*
X01643*
Y03944*
X01877*
X01887Y03945*
X01897Y03949*
X01905Y03956*
X021Y04151*
X02164*
Y04169*
X02169Y04171*
X02171Y04169*
Y03986*
X02146*
X02135Y03984*
X02124Y0398*
X02115Y03973*
X02108Y03964*
X02104Y03954*
X02102Y03942*
X02104Y03931*
X02108Y0392*
X02115Y03911*
X02124Y03904*
X02135Y039*
X02146Y03899*
X02193*
X02204Y039*
X0221Y03903*
X02211*
X02221Y03904*
X02231Y03908*
X02239Y03914*
X02245Y03922*
X02249Y03932*
X02251Y03942*
Y04169*
X02256Y04176*
X02258Y04181*
X02263*
X02265Y04176*
X0227Y04169*
Y041*
X02271Y04089*
X02275Y0408*
X02281Y04071*
X02449Y03904*
X02457Y03898*
X02466Y03894*
X02477Y03893*
X02624*
X0263Y0389*
X02641Y03889*
X02688*
X02699Y0389*
X02705Y03893*
X03106*
X03106Y03892*
X03107Y03886*
X03112Y03875*
X03118Y03866*
X03128Y03859*
X03138Y03855*
X03149Y03853*
X03196*
X03207Y03855*
X03218Y03859*
X03227Y03866*
X03234Y03875*
X03238Y03886*
X0324Y03897*
X03238Y03908*
X03234Y03919*
X03227Y03928*
X03218Y03935*
X03207Y03939*
X03196Y03941*
X0317*
X0315Y0396*
X03142Y03967*
X03133Y03971*
X03122Y03972*
X02705*
X02699Y03974*
X02688Y03976*
X02641*
X0263Y03974*
X02624Y03972*
X02493*
X02349Y04116*
Y04169*
X02354Y04176*
X02359Y04188*
X02361Y04202*
Y04237*
X02359Y04251*
X02354Y04263*
X02346Y04274*
X02335Y04282*
X02323Y04287*
X0231Y04289*
G37*
G36*
X03224Y04285D02*
X03211Y04284D01*
X03198Y04278*
X03187Y0427*
X03179Y0426*
X03177Y04255*
X03172*
X0317Y0426*
X03162Y0427*
X03151Y04278*
X03139Y04284*
X03125Y04285*
X03112Y04284*
X031Y04278*
X03089Y0427*
X03083Y04263*
X03078Y04264*
Y04285*
X02976*
Y04147*
X03078*
Y04166*
X03083Y04168*
X03086Y04165*
Y04156*
X03087Y04145*
X03091Y04136*
X03097Y04127*
X03283Y03942*
Y03169*
X02618*
X02449Y03339*
X0244Y03345*
X02431Y03349*
X0242Y0335*
X02217*
X02211Y03353*
X022Y03354*
X02153*
X02142Y03353*
X02136Y0335*
X01933*
X01862Y03421*
X01853Y03428*
X01844Y03432*
X01834Y03433*
X01624*
X01618Y03438*
X01605Y03443*
X01592Y03445*
X01557*
X01543Y03443*
X01531Y03438*
X0153Y03437*
X01525Y03439*
Y03535*
X01534Y03544*
X01543Y0354*
X01557Y03538*
X01592*
X01605Y0354*
X01618Y03545*
X01629Y03554*
X01637Y03564*
X01642Y03577*
X01644Y0359*
X01642Y03603*
X01637Y03616*
X01629Y03627*
X01618Y03635*
X01605Y0364*
X01592Y03642*
X01557*
X01543Y0364*
X01531Y03635*
X01524Y0363*
X01514Y03628*
X01505Y03624*
X01496Y03618*
X01457Y03579*
X01451Y03571*
X01447Y03561*
X01446Y03551*
Y03224*
X01447Y03213*
X01451Y03204*
X01457Y03195*
X01571Y03081*
X0158Y03075*
X01589Y03071*
X016Y0307*
X01783*
X01869Y02984*
Y0287*
X01863Y02861*
X01862Y0286*
X01857*
X01857Y02861*
X01848Y02872*
X01837Y02881*
X01824Y02886*
X01811Y02888*
X01797Y02886*
X01784Y02881*
X01773Y02872*
X0177Y02869*
X01765Y0287*
Y02887*
X01659*
Y0275*
X01765*
Y02767*
X0177Y02768*
X01773Y02765*
X01784Y02756*
X01797Y02751*
X01811Y02749*
X01824Y02751*
X01837Y02756*
X01848Y02765*
X01857Y02776*
X01857Y02777*
X01862*
X01863Y02776*
X01871Y02765*
X01882Y02756*
X01895Y02751*
X01909Y02749*
X01923Y02751*
X01936Y02756*
X01947Y02765*
X01955Y02776*
X01961Y02789*
X01963Y02803*
Y02834*
X01961Y02848*
X01955Y02861*
X01949Y0287*
Y03*
X01947Y0301*
X01943Y0302*
X01937Y03028*
X01828Y03138*
X01819Y03144*
X0181Y03148*
X018Y03149*
X01616*
X01525Y0324*
Y03347*
X0153Y03349*
X01531Y03348*
X01543Y03343*
X01557Y03342*
X01592*
X01605Y03343*
X01618Y03348*
X01624Y03353*
X01817*
X01888Y03282*
X01896Y03276*
X01906Y03272*
X01916Y03271*
X02136*
X02142Y03268*
X02153Y03267*
X022*
X02211Y03268*
X02217Y03271*
X02404*
X02574Y03101*
X02582Y03095*
X02591Y03091*
X02602Y0309*
X03299*
X0331Y03091*
X03319Y03095*
X03327Y03101*
X0335Y03124*
X03357Y03133*
X03361Y03142*
X03362Y03152*
Y03959*
X03361Y03969*
X03357Y03979*
X0335Y03987*
X03168Y04169*
X0317Y04173*
X03172Y04177*
X03177*
X03179Y04173*
X03187Y04162*
X03198Y04154*
X03211Y04148*
X03224Y04147*
X03237Y04148*
X0325Y04154*
X0326Y04162*
X03269Y04173*
X03274Y04185*
X03276Y04198*
Y04234*
X03274Y04247*
X03269Y0426*
X0326Y0427*
X0325Y04278*
X03237Y04284*
X03224Y04285*
G37*
G36*
X02193Y03848D02*
X02146D01*
X02135Y03847*
X02124Y03842*
X02115Y03835*
X02108Y03826*
X02104Y03816*
X02102Y03805*
X02104Y03793*
X02108Y03783*
X02115Y03774*
X02124Y03767*
X02135Y03762*
X02146Y03761*
X02193*
X02204Y03762*
X02215Y03767*
X02224Y03774*
X02231Y03783*
X02235Y03793*
X02237Y03805*
X02235Y03816*
X02231Y03826*
X02224Y03835*
X02215Y03842*
X02204Y03847*
X02193Y03848*
G37*
G36*
X02688Y03838D02*
X02641D01*
X0263Y03837*
X02619Y03832*
X0261Y03825*
X02603Y03816*
X02599Y03806*
X02597Y03795*
X02599Y03783*
X02603Y03773*
X0261Y03764*
X02619Y03757*
X0263Y03752*
X02641Y03751*
X02688*
X02699Y03752*
X0271Y03757*
X02719Y03764*
X02726Y03773*
X0273Y03783*
X02732Y03795*
X0273Y03806*
X02726Y03816*
X02719Y03825*
X0271Y03832*
X02699Y03837*
X02688Y03838*
G37*
G36*
X01592Y03839D02*
X01557D01*
X01543Y03837*
X01531Y03832*
X0152Y03823*
X01512Y03813*
X01507Y038*
X01505Y03787*
X01507Y03774*
X01512Y03761*
X0152Y0375*
X01531Y03742*
X01543Y03737*
X01557Y03735*
X01592*
X01605Y03737*
X01618Y03742*
X01629Y0375*
X01637Y03761*
X01642Y03774*
X01644Y03787*
X01642Y038*
X01637Y03813*
X01629Y03823*
X01618Y03832*
X01605Y03837*
X01592Y03839*
G37*
G36*
X03196Y03803D02*
X03149D01*
X03138Y03802*
X03128Y03797*
X03118Y0379*
X03112Y03781*
X03107Y03771*
X03106Y03759*
X03107Y03748*
X03112Y03738*
X03118Y03728*
X03128Y03722*
X03138Y03717*
X03149Y03716*
X03196*
X03207Y03717*
X03218Y03722*
X03227Y03728*
X03234Y03738*
X03238Y03748*
X0324Y03759*
X03238Y03771*
X03234Y03781*
X03227Y0379*
X03218Y03797*
X03207Y03802*
X03196Y03803*
G37*
G36*
X022Y03492D02*
X02153D01*
X02142Y03491*
X02131Y03486*
X02122Y03479*
X02115Y0347*
X02111Y0346*
X0211Y03448*
X02111Y03437*
X02115Y03426*
X02122Y03417*
X02131Y0341*
X02142Y03406*
X02153Y03405*
X022*
X02211Y03406*
X02217Y03409*
X02406*
X02412Y03406*
X02422Y03405*
X02624*
X0263Y03402*
X02641Y03401*
X02679*
X02682Y03398*
X02692Y03394*
X02702Y03393*
X0312*
X03126Y0339*
X03138Y03389*
X03184*
X03196Y0339*
X03206Y03395*
X03215Y03402*
X03222Y03411*
X03226Y03421*
X03228Y03433*
X03226Y03444*
X03222Y03454*
X03215Y03463*
X03206Y0347*
X03196Y03475*
X03184Y03476*
X03138*
X03126Y03475*
X0312Y03472*
X02721*
X02719Y03475*
X0271Y03482*
X027Y03487*
X02688Y03488*
X02641*
X0263Y03487*
X02624Y03484*
X02435*
X02429Y03487*
X02419Y03488*
X02217*
X02211Y03491*
X022Y03492*
G37*
G36*
X02688Y0335D02*
X02641D01*
X0263Y03349*
X0262Y03344*
X02611Y03337*
X02604Y03328*
X02599Y03318*
X02598Y03307*
X02599Y03295*
X02604Y03285*
X02611Y03276*
X0262Y03269*
X0263Y03264*
X02641Y03263*
X02678*
X02682Y03259*
X0269Y03253*
X027Y03249*
X0271Y03247*
X03128*
X03138Y03249*
X03144Y03251*
X03184*
X03196Y03253*
X03206Y03257*
X03215Y03264*
X03222Y03273*
X03226Y03283*
X03228Y03295*
X03226Y03306*
X03222Y03317*
X03215Y03326*
X03206Y03333*
X03196Y03337*
X03184Y03338*
X03138*
X03126Y03337*
X03116Y03333*
X03108Y03327*
X02727*
X02726Y03328*
X02719Y03337*
X0271Y03344*
X027Y03349*
X02688Y0335*
G37*
G36*
X03251Y02876D02*
X03238Y02874D01*
X03225Y02869*
X03214Y0286*
X03205Y02849*
X03205Y02848*
X032*
X03199Y02849*
X03191Y0286*
X0318Y02869*
X03167Y02874*
X03153Y02876*
X03139Y02874*
X03126Y02869*
X03115Y0286*
X03113Y02857*
X03108Y02858*
Y02875*
X03001*
Y02738*
X03108*
Y02755*
X03113Y02756*
X03115Y02753*
X03126Y02744*
X03139Y02739*
X03153Y02737*
X03167Y02739*
X0318Y02744*
X03191Y02753*
X03199Y02764*
X032Y02765*
X03205*
X03205Y02764*
X03214Y02753*
X03225Y02744*
X03238Y02739*
X03251Y02737*
X03265Y02739*
X03278Y02744*
X03289Y02753*
X03298Y02764*
X03303Y02777*
X03305Y02791*
Y02822*
X03303Y02836*
X03298Y02849*
X03289Y0286*
X03278Y02869*
X03265Y02874*
X03251Y02876*
G37*
G36*
X01342Y02622D02*
X01326Y0262D01*
X0131Y02616*
X01296Y02608*
X01283Y02598*
X01273Y02585*
X01265Y02571*
X01261Y02555*
X01259Y02539*
X01261Y02523*
X01265Y02507*
X01273Y02493*
X01283Y0248*
X01296Y0247*
X0131Y02462*
X01326Y02457*
X01342Y02456*
X01358Y02457*
X01374Y02462*
X01388Y0247*
X01401Y0248*
X01411Y02493*
X01419Y02507*
X01424Y02523*
X01425Y02539*
X01424Y02555*
X01419Y02571*
X01411Y02585*
X01401Y02598*
X01388Y02608*
X01374Y02616*
X01358Y0262*
X01342Y02622*
G37*
G36*
X03771Y02594D02*
X03755Y02593D01*
X03739Y02588*
X03725Y0258*
X03712Y0257*
X03702Y02557*
X03694Y02543*
X0369Y02528*
X03688Y02511*
X0369Y02495*
X03694Y0248*
X03702Y02465*
X03712Y02453*
X03725Y02442*
X03739Y02435*
X03755Y0243*
X03771Y02428*
X03787Y0243*
X03803Y02435*
X03817Y02442*
X0383Y02453*
X0384Y02465*
X03848Y0248*
X03853Y02495*
X03854Y02511*
X03853Y02528*
X03848Y02543*
X0384Y02557*
X0383Y0257*
X03817Y0258*
X03803Y02588*
X03787Y02593*
X03771Y02594*
G37*
%LNpwrsup-3*%
%LPD*%
G54D21*
X03151Y03897D02*
X03173D01*
X03148Y03901D02*
X03151Y03897D01*
X02665Y03932D02*
X03122D01*
X03148Y03901D02*
Y03907D01*
X03122Y03932D02*
X03148Y03907D01*
X02702Y03433D02*
X03161D01*
X0269Y03444D02*
X02702Y03433D01*
X02422Y03444D02*
X0269D01*
Y03307D02*
X0271Y03287D01*
X03128*
X03135Y03295*
X03161*
X02665Y03307D02*
X0269D01*
X03125Y04156D02*
X03322Y03959D01*
X02602Y03129D02*
X03299D01*
X03322Y03152*
Y03959*
X0242Y03311D02*
X02602Y03129D01*
X02211Y03942D02*
Y0422D01*
X02177Y03311D02*
X0242D01*
X03125Y04156D02*
Y04216D01*
X01525Y0359D02*
X01574D01*
X01486Y03551D02*
X01525Y0359D01*
X01486Y03224D02*
Y03551D01*
Y03224D02*
X016Y0311D01*
X018*
X01909Y03*
Y02818D02*
Y03D01*
X0217Y03942D02*
X02211D01*
X0231Y041D02*
Y0422D01*
Y041D02*
X02477Y03932D01*
X02665*
X01574Y03984D02*
X01877D01*
X02113Y0422*
X02419Y03448D02*
X02422Y03444D01*
X02177Y03448D02*
X02419D01*
X01916Y03311D02*
X02177D01*
X01834Y03393D02*
X01916Y03311D01*
X01574Y03393D02*
X01834D01*
G54D22*
X01574Y03787D03*
Y03393D03*
Y0359D03*
G54D23*
X01574Y03984D03*
G54D24*
X03027Y04216D03*
X02113Y0422D03*
G54D25*
X03125Y04216D03*
X03224D03*
X02211Y0422D03*
X0231D03*
G54D26*
X03251Y02807D03*
X03153D03*
X01811Y02818D03*
X01909D03*
G54D27*
X03055Y02807D03*
X01712Y02818D03*
G54D28*
X03161Y03433D03*
Y03295D03*
X02665Y03444D03*
Y03307D03*
X02177Y03448D03*
Y03311D03*
X03173Y03897D03*
Y03759D03*
X02665Y03932D03*
Y03795D03*
X0217Y03805D03*
Y03942D03*
G54D29*
X03783Y04385D03*
X03771Y02511D03*
X01342Y02539D03*
X0135Y04393D03*
M02*